<?xml version="1.0" encoding="utf-8"?>
<!-- Generator: Adobe Illustrator 27.5.0, SVG Export Plug-In . SVG Version: 6.00 Build 0)  -->
<svg version="1.1" xmlns="http://www.w3.org/2000/svg" xmlns:xlink="http://www.w3.org/1999/xlink" x="0px" y="0px"
	 viewBox="0 0 500 500" style="enable-background:new 0 0 500 500;" xml:space="preserve">
<g id="BACKGROUND">
	<rect id="XMLID_43_" style="fill:#FFFFFF;" width="500" height="500"/>
</g>
<g id="OBJECTS">
	<g>
		<ellipse style="fill:#CAD1F9;" cx="246.257" cy="308.36" rx="202.587" ry="41.444"/>
		<g>
			<g>
				
					<path style="fill:#A4F7CB;stroke:#A4F7CB;stroke-width:0.6763;stroke-linecap:round;stroke-linejoin:round;stroke-miterlimit:10;" d="
					M201.593,273.534c0,0-63.193-22.867-63.931-99.423c0,0,64.332,15.339,60.748,96.727L201.593,273.534z"/>
				
					<path style="fill:#91E5B3;stroke:#91E5B3;stroke-width:0.6763;stroke-linecap:round;stroke-linejoin:round;stroke-miterlimit:10;" d="
					M100.901,234.856c0,0,63.111,40.88,88.299,5.007C189.199,239.864,138.457,201.26,100.901,234.856"/>
			</g>
			
				<path style="opacity:0.5;fill:#A4F7CB;stroke:#A4F7CB;stroke-width:0.6763;stroke-linecap:round;stroke-linejoin:round;stroke-miterlimit:10;" d="
				M154.529,257.641c1.415-4.419-14.016-24.355-16.766-28.562c-7.237-11.075-15.238-21.914-24.961-30.954
				c-8.992-8.359-20.826-16.161-33.796-17.539c-6.665-0.708-31.152,0.484-25.097,12.893c1.684,3.45,5.361,5.38,8.804,7.08
				c16.997,8.394,34.038,16.179,47.049,30.482c10.45,11.488,6.759,16.772-8.539,13.12c-13.704-3.272-25.575-12.556-37.905-19.71
				c-7.084-4.11-33.737-14.768-31.319,4.407c1.004,7.959,18.176,14.451,24.508,17.372c9.896,4.565,20.198,8.184,30.481,11.762
				c1.226,0.427,13.157,4.41,9.115,3.782c-11.215-1.741-67.086,0.3-56.672,21.809c10.96,22.638,47.695,12.499,65.212,6.321
				C118.974,284.849,149.202,274.239,154.529,257.641z"/>
			
				<path style="opacity:0.5;fill:#A4F7CB;stroke:#A4F7CB;stroke-width:0.6763;stroke-linecap:round;stroke-linejoin:round;stroke-miterlimit:10;" d="
				M379.792,263.948c0,0,41.222,9.537,64.939-11.735s30.621,83.036-72.48,30.378S379.792,263.948,379.792,263.948z"/>
			
				<path style="opacity:0.5;fill:#A4F7CB;stroke:#A4F7CB;stroke-width:0.6763;stroke-linecap:round;stroke-linejoin:round;stroke-miterlimit:10;" d="
				M268.378,239.691c0,0-40.168-50.823-18.746-85.188s23.08,37.114,26.869,29.986c3.789-7.128-3.363-69.008,21.209-68.077
				c24.572,0.931,10.486,67.568,18.168,69.787c7.683,2.219,22.242-78.191,49.717-69.797c27.46,8.389-33.342,62.322-23.769,76.097
				c5.314,7.646,17.616-15.031,19.398-17.585c6.819-9.775,14.886-19.03,25.934-24.08c9.817-4.488,22.959-5.227,33.21-1.856
				c12.359,4.064,23.56,18.405,8.717,28.174c-10.911,7.181-25.207,5.38-36.414,13.284c-10.474,7.388-17.02,18.896-22.548,30.167
				c-8.273,16.865-17.383,39.008-14.921,58.265C358.609,305.489,268.378,239.691,268.378,239.691z"/>
			<g>
				
					<path style="fill:#A4F7CB;stroke:#A4F7CB;stroke-width:0.6763;stroke-linecap:round;stroke-linejoin:round;stroke-miterlimit:10;" d="
					M183.637,261.775c0,0,7.198-66.816,81.387-85.723c0,0,0.385,66.134-79.524,81.99L183.637,261.775z"/>
				
					<path style="fill:#91E5B3;stroke:#91E5B3;stroke-width:0.6763;stroke-linecap:round;stroke-linejoin:round;stroke-miterlimit:10;" d="
					M188.576,152.888c0,0-23.302,71.492,17.836,86.623C206.412,239.511,230.691,180.557,188.576,152.888"/>
			</g>
			<g>
				
					<path style="fill:#A4F7CB;stroke:#A4F7CB;stroke-width:0.6763;stroke-linecap:round;stroke-linejoin:round;stroke-miterlimit:10;" d="
					M341.528,266.735c0,0,37.394-55.838,111.881-38.142c0,0-30.361,58.754-108.499,35.701L341.528,266.735z"/>
				
					<path style="fill:#91E5B3;stroke:#91E5B3;stroke-width:0.6763;stroke-linecap:round;stroke-linejoin:round;stroke-miterlimit:10;" d="
					M396.453,172.586c0,0-53.829,52.504-24.417,85.003C372.036,257.589,420.909,216.644,396.453,172.586"/>
			</g>
		</g>
		<g>
			<g>
				<g>
					<path style="fill:#745A9F;" d="M394.694,269.595c-2.198-0.435-4.333,0.994-4.768,3.192c-0.435,2.198,0.994,4.333,3.192,4.768
						c0.293,0.058,3.558,0.683,7.894,0.683c1.132,0,2.337-0.043,3.581-0.15l0.496-8.202
						C400.905,270.416,396.685,269.982,394.694,269.595z"/>
					<path style="fill:#745A9F;" d="M418.19,242.94c-2.799-2.2-6.128-3.323-9.345-3.838c0.04,0.356,0.009,0.589,0.009,0.589
						c-0.187,4.198-0.681,6.349-1.196,7.429c2.04,0.338,4.011,1.01,5.535,2.214c2.321,1.833,3.45,4.77,3.45,8.978
						c0,3.864-1.12,6.665-3.422,8.563c-1.896,1.563-4.475,2.43-7.142,2.87c1.406,2.718,0.774,5.885-0.087,8.198
						c4.25-0.525,8.797-1.854,12.367-4.787c4.246-3.488,6.4-8.483,6.4-14.845C424.756,251.536,422.547,246.364,418.19,242.94z"/>
					<path style="fill:#745A9F;" d="M396.011,239.575c-2.174,0.529-3.504,2.716-2.981,4.891c0.524,2.175,2.713,3.514,4.89,2.996
						c1.573-0.375,4.892-0.842,8.269-0.53l0.258-8.112C400.971,238.403,396.337,239.496,396.011,239.575z"/>
					<path style="fill:#745A9F;" d="M408.844,239.102c-0.81-0.13-1.612-0.221-2.397-0.281l-0.258,8.112
						c0.49,0.045,0.98,0.106,1.467,0.187c0.515-1.08,1.01-3.231,1.196-7.429C408.853,239.691,408.884,239.458,408.844,239.102z"/>
					<path style="opacity:0.3;fill:#745A9F;" d="M408.844,239.102c-0.81-0.13-1.612-0.221-2.397-0.281l-0.258,8.112
						c0.49,0.045,0.98,0.106,1.467,0.187c0.515-1.08,1.01-3.231,1.196-7.429C408.853,239.691,408.884,239.458,408.844,239.102z"/>
					<path style="fill:#745A9F;" d="M406.076,269.745c-0.328,0.054-0.657,0.1-0.987,0.142l-0.496,8.202
						c0.46-0.039,0.926-0.088,1.395-0.146C406.85,275.631,407.482,272.463,406.076,269.745z"/>
					<path style="opacity:0.3;fill:#745A9F;" d="M406.076,269.745c-0.328,0.054-0.657,0.1-0.987,0.142l-0.496,8.202
						c0.46-0.039,0.926-0.088,1.395-0.146C406.85,275.631,407.482,272.463,406.076,269.745z"/>
				</g>
				<path style="fill:#4B2A67;" d="M377.826,226.643c-51.276-1.34-48.371,3.063-48.371,3.063s9.005,6.476,45.727,5.727
					c17.625-0.359,28.83-2.14,30.972-4.019C408.475,229.378,400.156,227.227,377.826,226.643z"/>
				<g>
					<g>
						
							<path style="fill:#8768C1;stroke:#8768C1;stroke-width:0.5743;stroke-linecap:round;stroke-linejoin:round;stroke-miterlimit:10;" d="
							M329.455,229.706l0.863,18.117l1.561,32.785c0,0,0.819,13.297,15.126,14.248c47.486,3.157,56.603-1.207,57.716-18.03
							c1.113-16.823,1.433-45.413,1.433-45.413c-2.142,1.879-13.347,3.659-30.972,4.019
							C338.46,236.182,329.455,229.706,329.455,229.706z"/>
					</g>
				</g>
			</g>
			<g>
				<g style="opacity:0.59;">
					
						<ellipse transform="matrix(0.7071 -0.7071 0.7071 0.7071 -79.6617 337.8393)" style="fill:none;stroke:#4B2A67;stroke-width:1.1271;stroke-linecap:round;stroke-linejoin:round;stroke-miterlimit:10;" cx="367.977" cy="265.08" rx="7.439" ry="20.814"/>
					
						<path style="fill:none;stroke:#4B2A67;stroke-width:1.1271;stroke-linecap:round;stroke-linejoin:round;stroke-miterlimit:10;" d="
						M352.634,275.051c1.025-4.108,4.7-9.849,10.083-15.232c5.655-5.655,11.704-9.425,15.841-10.218"/>
					
						<path style="fill:none;stroke:#4B2A67;stroke-width:1.1271;stroke-linecap:round;stroke-linejoin:round;stroke-miterlimit:10;" d="
						M383.455,254.499c-0.793,4.136-4.563,10.186-10.218,15.841c-5.609,5.609-11.606,9.364-15.74,10.198"/>
					
						<ellipse style="fill:none;stroke:#4B2A67;stroke-width:1.1271;stroke-linecap:round;stroke-linejoin:round;stroke-miterlimit:10;" cx="367.977" cy="265.08" rx="20.814" ry="7.439"/>
					
						<ellipse style="fill:none;stroke:#4B2A67;stroke-width:1.1271;stroke-linecap:round;stroke-linejoin:round;stroke-miterlimit:10;" cx="367.977" cy="265.08" rx="7.439" ry="20.814"/>
				</g>
				
					<circle style="fill:#EBB42B;stroke:#EBB42B;stroke-width:0.6763;stroke-linecap:round;stroke-linejoin:round;stroke-miterlimit:10;" cx="353.438" cy="278.867" r="1.766"/>
				
					<circle style="fill:#EBB42B;stroke:#EBB42B;stroke-width:0.6763;stroke-linecap:round;stroke-linejoin:round;stroke-miterlimit:10;" cx="382.441" cy="250.615" r="1.766"/>
				
					<circle style="fill:#EBB42B;stroke:#EBB42B;stroke-width:0.6763;stroke-linecap:round;stroke-linejoin:round;stroke-miterlimit:10;" cx="368.015" cy="265.268" r="4.321"/>
			</g>
		</g>
		<g>
			
				<polygon style="fill:#E89F25;stroke:#E89F25;stroke-width:0.6763;stroke-linecap:round;stroke-linejoin:round;stroke-miterlimit:10;" points="
				206.319,351.211 65.024,340.61 114.758,324.625 259.93,334.723 			"/>
			<path style="fill:#FFFFFF;" d="M210.453,345.75l-135.886-8.207v-36.348l131.752,9.885
				C206.319,311.08,221.002,324.896,210.453,345.75"/>
			
				<polyline style="fill:#E89F25;stroke:#E89F25;stroke-width:0.6763;stroke-linecap:round;stroke-linejoin:round;stroke-miterlimit:10;" points="
				114.758,284.495 65.024,300.479 206.319,311.08 281.509,287.851 			"/>
			
				<path style="fill:#EBB42B;stroke:#EBB42B;stroke-width:0.6763;stroke-linecap:round;stroke-linejoin:round;stroke-miterlimit:10;" d="
				M337.925,310.734c18.604-20.501,0-40.131,0-40.131L206.319,311.08c0,0,18.604,19.629,0,40.131L337.925,310.734z"/>
			<g>
				
					<line style="fill:none;stroke:#F1F1F1;stroke-width:0.6763;stroke-linecap:round;stroke-linejoin:round;stroke-miterlimit:10;" x1="75.695" y1="313.779" x2="211.609" y2="324.374"/>
				
					<line style="fill:none;stroke:#F1F1F1;stroke-width:0.6763;stroke-linecap:round;stroke-linejoin:round;stroke-miterlimit:10;" x1="75.695" y1="308.533" x2="209.353" y2="318.903"/>
				
					<line style="fill:none;stroke:#F1F1F1;stroke-width:0.6763;stroke-linecap:round;stroke-linejoin:round;stroke-miterlimit:10;" x1="75.695" y1="303.288" x2="205.067" y2="313.432"/>
				
					<line style="fill:none;stroke:#F1F1F1;stroke-width:0.6763;stroke-linecap:round;stroke-linejoin:round;stroke-miterlimit:10;" x1="75.695" y1="319.189" x2="211.834" y2="330.009"/>
				
					<line style="fill:none;stroke:#F1F1F1;stroke-width:0.6763;stroke-linecap:round;stroke-linejoin:round;stroke-miterlimit:10;" x1="75.695" y1="324.599" x2="211.834" y2="335.419"/>
				
					<line style="fill:none;stroke:#F1F1F1;stroke-width:0.6763;stroke-linecap:round;stroke-linejoin:round;stroke-miterlimit:10;" x1="75.695" y1="330.009" x2="209.804" y2="340.829"/>
				
					<line style="fill:none;stroke:#F1F1F1;stroke-width:0.6763;stroke-linecap:round;stroke-linejoin:round;stroke-miterlimit:10;" x1="75.695" y1="335.419" x2="206.319" y2="343.942"/>
			</g>
			<path style="fill:#BE394B;" d="M96.106,316.156v14.122c0,0.667,0.812,0.996,1.276,0.515l6.523-6.756
				c0.296-0.307,0.789-0.301,1.079,0.012l8.182,8.851c0.458,0.496,1.287,0.172,1.287-0.504v-14.998c0-0.389-0.3-0.711-0.688-0.74
				l-16.862-1.243C96.472,315.384,96.106,315.725,96.106,316.156z"/>
		</g>
		<g>
			<circle style="fill:#BE394B;" cx="134.023" cy="206.704" r="26.734"/>
			<circle style="fill:#CCDCE4;" cx="134.023" cy="206.704" r="22.216"/>
			<circle style="fill:#FFFFFF;" cx="134.023" cy="206.704" r="20.506"/>
			<path style="fill:#2A3348;" d="M132.874,206.624L132.874,206.624c0-0.635-0.515-1.149-1.149-1.149h-6.818
				c-0.635,0-1.149,0.515-1.149,1.149l0,0c0,0.635,0.515,1.149,1.149,1.149h6.818C132.359,207.774,132.874,207.259,132.874,206.624z
				"/>
			<path style="fill:#2A3348;" d="M134.023,191.773L134.023,191.773c-0.635,0-1.149,0.515-1.149,1.149v11.651
				c0,0.635,0.515,1.149,1.149,1.149l0,0c0.635,0,1.149-0.515,1.149-1.149v-11.651C135.172,192.287,134.658,191.773,134.023,191.773
				z"/>
			
				<circle style="fill:#EBB42B;stroke:#EBB42B;stroke-width:0.6763;stroke-linecap:round;stroke-linejoin:round;stroke-miterlimit:10;" cx="134.023" cy="206.704" r="2.141"/>
		</g>
		<g>
			<path style="fill:#83B3FF;" d="M363.72,167.497l-70.328-12.85c-4.784-0.874-9.371,2.296-10.245,7.08l-6.745,36.919
				c-0.874,4.784,2.296,9.371,7.08,10.245l27.525,5.029c0.402,0.074,0.651,0.482,0.528,0.872c-0.641,2.026-2.929,7.87-9.225,13.038
				c-0.532,0.436-0.167,1.295,0.515,1.206c4.969-0.648,16.386-3.101,21.736-12.178c0.147-0.249,0.429-0.383,0.713-0.331
				l28.536,5.214c4.784,0.874,9.371-2.296,10.245-7.08l6.745-36.919C371.674,172.958,368.504,168.371,363.72,167.497z"/>
			<g style="opacity:0.49;">
				
					<rect x="294.976" y="175.245" transform="matrix(0.988 0.1546 -0.1546 0.988 31.2826 -48.1594)" style="fill:#CCDCE4;" width="60.717" height="3.682"/>
				
					<rect x="293.203" y="186.576" transform="matrix(0.988 0.1546 -0.1546 0.988 33.0128 -47.7492)" style="fill:#CCDCE4;" width="60.717" height="3.682"/>
				
					<rect x="291.43" y="197.907" transform="matrix(0.988 0.1546 -0.1546 0.988 34.7429 -47.339)" style="fill:#CCDCE4;" width="60.717" height="3.682"/>
			</g>
		</g>
		<g>
			
				<path style="fill:#77A5FA;stroke:#77A5FA;stroke-width:2.0288;stroke-linecap:round;stroke-linejoin:round;stroke-miterlimit:10;" d="
				M216.1,336.487c0,0,12.586,19.782,1.062,39.896"/>
			<path style="fill:#F7E1D5;" d="M286.3,337.782c-113.686,0.088-163.113-10.283-163.113-10.283l1.176,44.187
				c0,0,96.347,3.556,163.113,10.283L286.3,337.782z"/>
			
				<path style="fill:#83B3FF;stroke:#83B3FF;stroke-width:2.0288;stroke-linecap:round;stroke-linejoin:round;stroke-miterlimit:10;" d="
				M217.162,376.383c-8.613-18.258-1.062-39.896-1.062-39.896l-26.656-1.891c0,0-10.99,22.441,1.062,39.896L217.162,376.383z"/>
			<path style="opacity:0.24;fill:#83B3FF;" d="M209.251,376.734c-8.239-21.041,0.903-40.828,0.903-40.828l-15.836-1.253
				c0,0-5.376,23.246,1.746,40.828L209.251,376.734z"/>
			
				<ellipse transform="matrix(0.9998 -0.022 0.022 0.9998 -7.8374 6.3899)" style="fill:#FCD0BE;" cx="286.888" cy="359.875" rx="6.696" ry="22.104"/>
			
				<ellipse transform="matrix(0.9998 -0.022 0.022 0.9998 -7.6508 2.8038)" style="fill:#F7E1D5;" cx="123.775" cy="349.592" rx="6.696" ry="22.104"/>
			<path style="opacity:0.3;fill:#CFBDB4;" d="M285.145,355.834l5.09,0.236c0,0-1.449-14.424-3.839-14.704
				c-2.391-0.28-4.899,48.405,3.676,37.908C290.071,379.274,284.435,385.321,285.145,355.834z"/>
			
				<ellipse transform="matrix(0.7514 -0.6598 0.6598 0.7514 -187.1338 214.1842)" style="fill:#E89F25;stroke:#E89F25;stroke-width:0.6763;stroke-linecap:round;stroke-linejoin:round;stroke-miterlimit:10;" cx="190.685" cy="355.444" rx="12.023" ry="12.963"/>
			
				<ellipse transform="matrix(0.7514 -0.6598 0.6598 0.7514 -188.3793 213.649)" style="fill:#EBB42B;stroke:#EBB42B;stroke-width:0.6763;stroke-linecap:round;stroke-linejoin:round;stroke-miterlimit:10;" cx="189.352" cy="356.829" rx="12.023" ry="12.963"/>
			<g>
				
					<polygon style="fill:#E89F25;stroke:#E89F25;stroke-width:0.6763;stroke-linecap:round;stroke-linejoin:round;stroke-miterlimit:10;" points="
					197.768,362.565 192.571,360.807 193.182,366.227 189.775,361.789 187.133,366.299 186.818,360.876 181.932,362.755 
					184.828,358.418 179.564,356.947 184.566,355.353 180.935,351.094 186.132,352.852 185.521,347.432 188.928,351.87 
					191.57,347.359 191.885,352.783 196.771,350.904 193.875,355.241 199.139,356.712 194.137,358.306 				"/>
			</g>
		</g>
		<g>
			<g>
				<path style="fill:#FFFFFF;" d="M356.343,239.691l-90.758,33.429c0,0-6.512,12.688,0,24.006l91.133-33.365
					C356.718,263.761,351.322,253.29,356.343,239.691z"/>
				<g style="opacity:0.39;">
					
						<line style="fill:none;stroke:#F1F1F1;stroke-width:1.8628;stroke-linejoin:round;stroke-miterlimit:10;" x1="264.555" y1="276.123" x2="355.158" y2="242.934"/>
					
						<line style="fill:none;stroke:#F1F1F1;stroke-width:1.8628;stroke-linejoin:round;stroke-miterlimit:10;" x1="263.427" y1="279.484" x2="354.492" y2="246.066"/>
					
						<line style="fill:none;stroke:#F1F1F1;stroke-width:1.8628;stroke-linejoin:round;stroke-miterlimit:10;" x1="263.201" y1="282.698" x2="354.074" y2="249.717"/>
					
						<line style="fill:none;stroke:#F1F1F1;stroke-width:1.8628;stroke-linejoin:round;stroke-miterlimit:10;" x1="262.976" y1="285.833" x2="354.152" y2="252.742"/>
					
						<line style="fill:none;stroke:#F1F1F1;stroke-width:1.8628;stroke-linejoin:round;stroke-miterlimit:10;" x1="263.427" y1="289.113" x2="354.377" y2="255.796"/>
					
						<line style="fill:none;stroke:#F1F1F1;stroke-width:1.8628;stroke-linejoin:round;stroke-miterlimit:10;" x1="354.828" y1="258.48" x2="263.878" y2="291.797"/>
					
						<line style="fill:none;stroke:#F1F1F1;stroke-width:1.8628;stroke-linejoin:round;stroke-miterlimit:10;" x1="264.555" y1="294.687" x2="355.602" y2="261.134"/>
				</g>
				
					<path style="fill:#EF3756;stroke:#EF3756;stroke-width:0.6763;stroke-linecap:round;stroke-linejoin:round;stroke-miterlimit:10;" d="
					M265.585,297.126c-5.748-11.496,0-24.006,0-24.006l-161.812-11.278c0,0-5.748,12.51,0,24.006L265.585,297.126z"/>
				
					<polygon style="fill:#BE394B;stroke:#BE394B;stroke-width:0.6763;stroke-linecap:round;stroke-linejoin:round;stroke-miterlimit:10;" points="
					265.585,273.12 103.773,261.842 223.141,237.678 356.343,239.691 				"/>
			</g>
			
				<polygon style="opacity:0.41;fill:#EBB42B;stroke:#EBB42B;stroke-width:0.6763;stroke-linecap:round;stroke-linejoin:round;stroke-miterlimit:10;" points="
				265.585,297.126 238.461,301.195 96.106,290.49 107.138,286.082 			"/>
		</g>
		<g>
			<polygon style="fill:#FFFFFF;" points="76.295,255.795 77.865,258.976 81.375,259.487 78.835,261.963 79.435,265.459 
				76.295,263.808 73.155,265.459 73.754,261.963 71.214,259.487 74.725,258.976 			"/>
			<polygon style="fill:#FFFFFF;" points="232.057,133.64 233.627,136.821 237.138,137.332 234.598,139.808 235.197,143.304 
				232.057,141.654 228.917,143.304 229.517,139.808 226.976,137.332 230.487,136.821 			"/>
			
				<polygon style="fill:#8768C1;stroke:#8768C1;stroke-width:0.5743;stroke-linecap:round;stroke-linejoin:round;stroke-miterlimit:10;" points="
				55.274,230.47 56.844,233.652 60.355,234.162 57.815,236.638 58.415,240.135 55.274,238.484 52.134,240.135 52.734,236.638 
				50.194,234.162 53.704,233.652 			"/>
			<polygon style="fill:#FFFFFF;" points="446.039,208.379 447.609,211.56 451.119,212.07 448.579,214.546 449.179,218.043 
				446.039,216.392 442.899,218.043 443.498,214.546 440.958,212.07 444.469,211.56 			"/>
			
				<polygon style="fill:#8768C1;stroke:#8768C1;stroke-width:0.5743;stroke-linecap:round;stroke-linejoin:round;stroke-miterlimit:10;" points="
				424.756,192.52 426.326,195.702 429.837,196.212 427.296,198.688 427.896,202.185 424.756,200.534 421.616,202.185 
				422.216,198.688 419.675,196.212 423.186,195.702 			"/>
			
				<polygon style="fill:#EBB42B;stroke:#EBB42B;stroke-width:0.6763;stroke-linecap:round;stroke-linejoin:round;stroke-miterlimit:10;" points="
				311.648,127.754 313.218,130.935 316.729,131.445 314.189,133.922 314.788,137.418 311.648,135.767 308.508,137.418 
				309.108,133.922 306.567,131.445 310.078,130.935 			"/>
			
				<polygon style="fill:#8768C1;stroke:#8768C1;stroke-width:0.5743;stroke-linecap:round;stroke-linejoin:round;stroke-miterlimit:10;" points="
				165.097,147.184 166.667,150.365 170.178,150.875 167.637,153.352 168.237,156.848 165.097,155.197 161.957,156.848 
				162.557,153.352 160.016,150.875 163.527,150.365 			"/>
			
				<polygon style="fill:#EBB42B;stroke:#EBB42B;stroke-width:0.6763;stroke-linecap:round;stroke-linejoin:round;stroke-miterlimit:10;" points="
				103.643,151.866 103.454,155.409 106.265,157.573 102.837,158.488 101.648,161.83 99.718,158.853 96.172,158.755 98.407,156 
				97.405,152.597 100.716,153.871 			"/>
			
				<polygon style="fill:#EBB42B;stroke:#EBB42B;stroke-width:0.6763;stroke-linecap:round;stroke-linejoin:round;stroke-miterlimit:10;" points="
				88.246,219.105 88.057,222.647 90.868,224.811 87.441,225.726 86.251,229.069 84.322,226.092 80.776,225.993 83.011,223.238 
				82.009,219.835 85.319,221.11 			"/>
			
				<polygon style="fill:#EBB42B;stroke:#EBB42B;stroke-width:0.6763;stroke-linecap:round;stroke-linejoin:round;stroke-miterlimit:10;" points="
				445.86,262.038 447.582,265.14 451.113,265.479 448.696,268.075 449.465,271.539 446.248,270.042 443.192,271.843 
				443.621,268.322 440.964,265.972 444.446,265.292 			"/>
			
				<path style="fill:#74C498;stroke:#74C498;stroke-width:0.6763;stroke-linecap:round;stroke-linejoin:round;stroke-miterlimit:10;" d="
				M29.817,243.15"/>
		</g>
		<g>
			<polygon style="fill:#F5F7FC;" points="338.989,309.022 356.046,317.141 357.156,322.491 359.074,321.28 359.091,321.338 
				366.139,317.141 362.436,319.346 			"/>
			<polygon style="fill:#C3C6C7;" points="339.393,345.906 337.475,336.318 331.42,328.958 341.714,350.851 353.751,351.337 
				347.316,345.906 			"/>
			<polygon style="fill:#F5F7FC;" points="357.156,322.491 359.091,321.338 359.074,321.28 			"/>
			<polygon style="fill:#EAE9E8;" points="357.156,334.703 349.183,326.225 335.053,325.115 331.42,328.958 337.475,336.318 			"/>
			<polygon style="fill:#F5F7FC;" points="339.393,345.906 347.316,345.906 352.514,345.906 354.835,340.304 357.156,334.703 
				337.475,336.318 			"/>
			<polygon style="fill:#F5F7FC;" points="358.67,343.786 357.156,350.448 352.413,349.943 354.23,351.356 353.845,351.416 
				356.046,353.274 367.249,351.356 358.937,343.956 			"/>
			<polygon style="fill:#D5D8D9;" points="352.514,345.906 347.316,345.906 353.751,351.337 354.23,351.356 352.413,349.943 
				357.156,350.448 358.67,343.786 358.937,343.956 354.835,340.304 			"/>
			<polygon style="fill:#F5F7FC;" points="356.046,317.141 338.989,309.022 335.053,325.115 349.183,326.225 			"/>
			<polygon style="fill:#EAECF1;" points="341.714,350.851 331.42,328.958 335.053,325.115 338.989,309.022 324.254,323.298 
				342.017,353.274 353.845,351.416 353.751,351.337 			"/>
			<polygon style="fill:#F5F7FC;" points="353.751,351.337 353.845,351.416 354.23,351.356 			"/>
			<polygon style="fill:#F5F7FC;" points="319.414,338.034 342.017,353.274 324.254,323.298 			"/>
			<polygon style="fill:#D8D8D8;" points="369.571,334.249 361.093,323.298 366.139,317.141 359.091,321.338 359.579,322.995 
				356.046,324.711 358.368,325.115 359.074,327.739 357.156,331.877 360.588,337.933 359.377,340.157 359.781,344.493 
				358.937,343.956 367.249,351.356 363.01,340.304 			"/>
			<polygon style="fill:#D8D8D8;" points="356.046,317.141 349.183,326.225 357.156,334.703 354.835,340.304 358.937,343.956 
				359.781,344.493 359.377,340.157 360.588,337.933 357.156,331.877 359.074,327.739 358.368,325.115 356.046,324.711 
				359.579,322.995 359.091,321.338 357.156,322.491 			"/>
			<polygon style="fill:#EAECF1;" points="362.436,319.346 366.139,317.141 354.835,303.929 352.467,304.69 338.989,309.022 			"/>
			<polygon style="fill:#E2E4E9;" points="352.467,304.69 352.564,302.745 335.053,295.473 345.55,301.797 319.754,325.115 
				319.754,334.249 320.863,333.621 324.254,323.298 338.989,309.022 			"/>
			<polygon style="fill:#F5F7FC;" points="335.053,295.473 319.754,325.115 345.55,301.797 			"/>
		</g>
		<g>
			<polygon style="fill:#F5F7FC;" points="388.364,328.283 394.466,319.339 397.527,319.285 397.039,318.047 397.074,318.043 
				395.422,313.52 396.29,315.896 			"/>
			<polygon style="fill:#C3C6C7;" points="408.782,332.092 403.303,332.147 398.662,334.832 411.735,331.296 413.143,324.409 
				409.533,327.524 			"/>
			<polygon style="fill:#F5F7FC;" points="397.527,319.285 397.074,318.043 397.039,318.047 			"/>
			<polygon style="fill:#EAE9E8;" points="404.275,320.623 398.835,324.291 396.883,332.316 398.662,334.832 403.303,332.147 			"/>
			<polygon style="fill:#F5F7FC;" points="408.782,332.092 409.533,327.524 410.025,324.528 407.15,322.575 404.275,320.623 
				403.303,332.147 			"/>
			<polygon style="fill:#F5F7FC;" points="409.437,320.746 412.974,322.349 412.246,325.028 413.199,324.136 413.196,324.364 
				414.431,323.298 414.432,316.629 409.556,320.611 			"/>
			<polygon style="fill:#D5D8D9;" points="410.025,324.528 409.533,327.524 413.143,324.409 413.199,324.136 412.246,325.028 
				412.974,322.349 409.437,320.746 409.556,320.611 407.15,322.575 			"/>
			<polygon style="fill:#F5F7FC;" points="394.466,319.339 388.364,328.283 396.883,332.316 398.835,324.291 			"/>
			<polygon style="fill:#EAECF1;" points="411.735,331.296 398.662,334.832 396.883,332.316 388.364,328.283 394.857,338.343 
				413.102,331.387 413.196,324.364 413.143,324.409 			"/>
			<polygon style="fill:#F5F7FC;" points="413.143,324.409 413.196,324.364 413.199,324.136 			"/>
			<polygon style="fill:#F5F7FC;" points="402.54,342.748 413.102,331.387 394.857,338.343 			"/>
			<polygon style="fill:#EAE9E8;" points="405.2,313.416 398.346,317.104 395.422,313.52 397.074,318.043 398.035,317.944 
				398.649,320.168 399.092,318.874 400.608,318.755 402.713,320.314 406.384,318.999 407.498,319.941 409.933,320.183 
				409.556,320.611 414.432,316.629 407.924,317.862 			"/>
			<polygon style="fill:#D8D8D8;" points="394.466,319.339 398.835,324.291 404.275,320.623 407.15,322.575 409.556,320.611 
				409.933,320.183 407.498,319.941 406.384,318.999 402.713,320.314 400.608,318.755 399.092,318.874 398.649,320.168 
				398.035,317.944 397.074,318.043 397.527,319.285 			"/>
			<polygon style="fill:#EAECF1;" points="396.29,315.896 395.422,313.52 387.051,318.589 387.247,320.038 388.364,328.283 			"/>
			<polygon style="fill:#E2E4E9;" points="387.247,320.038 386.182,319.769 380.505,329.068 384.993,323.709 395.434,341.136 
				400.481,342.137 400.239,341.429 394.857,338.343 388.364,328.283 			"/>
			<polygon style="fill:#F5F7FC;" points="380.505,329.068 395.434,341.136 384.993,323.709 			"/>
		</g>
		<g>
			
				<path style="opacity:0.45;fill:#74C498;stroke:#74C498;stroke-width:0.6763;stroke-linecap:round;stroke-linejoin:round;stroke-miterlimit:10;" d="
				M178.835,247.079l-12.172,2.639c0,0,74.516,17.223,114.621-11.091L178.835,247.079z"/>
			<path style="fill:#3F4E6D;" d="M178.835,224.087v22.992c0,0,56.127,14.539,102.449-8.453l-2.029-37.193l-100.42,12.51V224.087z"
				/>
			
				<polygon style="opacity:0.45;fill:#77A5FA;stroke:#77A5FA;stroke-width:0.6763;stroke-linecap:round;stroke-linejoin:round;stroke-miterlimit:10;" points="
				178.835,224.087 206.319,229.706 279.646,208.596 178.795,219.151 			"/>
			<polygon style="fill:#2A3348;" points="219.071,196.023 127.779,217.324 206.56,224.087 330.987,197.714 			"/>
			<ellipse style="fill:#3F4E6D;" cx="222.129" cy="205.652" rx="2.93" ry="1.052"/>
			
				<path style="fill:none;stroke:#EBB22C;stroke-width:1.8034;stroke-linecap:round;stroke-linejoin:round;stroke-miterlimit:10;" d="
				M221.776,205.828c0,0-44.26,13.471-49.01,15.357c-4.75,1.886,0.998,17.013-6.103,22.974"/>
			
				<path style="fill:none;stroke:#EBB22C;stroke-width:1.8034;stroke-linecap:round;stroke-linejoin:round;stroke-miterlimit:10;" d="
				M173.062,244.16c0.451-11.385-2.437-16.721-2.437-16.721s-0.569,11.425-5.528,14.281"/>
			
				<path style="fill:none;stroke:#EBB22C;stroke-width:1.8034;stroke-linecap:round;stroke-linejoin:round;stroke-miterlimit:10;" d="
				M170.625,243.673c2.222-6.913,0-16.234,0-16.234s-2.372,9.17-10.337,12.251"/>
			
				<path style="fill:none;stroke:#BE394B;stroke-width:1.8034;stroke-linecap:round;stroke-linejoin:round;stroke-miterlimit:10;" d="
				M169.659,227.339c0,0,1.202,0.451,1.954,0"/>
		</g>
	</g>
</g>
<g id="DESIGNED_BY_FREEPIK">
	<g id="XMLID_4_">
		<g>
			<g id="XMLID_480_">
				<g id="XMLID_499_">
					<path id="XMLID_507_" d="M260.104,467.949c-0.432,0.443-0.803,0.931-1.108,1.453l-0.465-0.241
						c-0.067-0.298-0.349-0.503-0.659-0.466c-0.331,0.039-0.568,0.339-0.529,0.67c0.039,0.331,0.339,0.568,0.67,0.529
						c0.066-0.008,0.127-0.026,0.184-0.052l0.451,0.234c-0.251,0.554-0.433,1.139-0.539,1.744l0.747,0.132
						c0.23-1.306,0.85-2.507,1.792-3.473L260.104,467.949z"/>
					<path id="XMLID_506_" d="M265.592,465.647c-0.171,0-0.341,0.006-0.51,0.017l-0.074-0.626c0.188-0.149,0.296-0.389,0.266-0.645
						c-0.046-0.393-0.402-0.674-0.795-0.628c-0.393,0.046-0.674,0.402-0.628,0.795c0.03,0.254,0.189,0.461,0.404,0.564l0.074,0.624
						c-0.714,0.116-1.403,0.332-2.06,0.646l0.327,0.684c0.934-0.447,1.942-0.673,2.995-0.673c0.496,0,0.993,0.053,1.475,0.158
						l0.161-0.741C266.692,465.706,266.142,465.647,265.592,465.647z"/>
					<path id="XMLID_505_" d="M272.194,468.194c0.331-0.04,0.566-0.342,0.526-0.672c-0.04-0.331-0.341-0.566-0.672-0.526
						c-0.309,0.038-0.535,0.304-0.53,0.609l-0.416,0.363c-0.418-0.43-0.889-0.813-1.408-1.139l-0.404,0.641
						c1.134,0.715,2.021,1.726,2.563,2.925l0.69-0.313c-0.251-0.554-0.567-1.072-0.942-1.545l0.402-0.351
						C272.065,468.199,272.129,468.202,272.194,468.194z"/>
					<path id="XMLID_504_" d="M265.044,475.855c-0.386,0.023-0.775,0.035-1.157,0.035c-0.88,0-1.733-0.061-2.478-0.179
						c-0.39-0.062-0.846-0.155-1.27-0.292c1.046,1.861,3.069,3.125,5.388,3.125c2.855,0,5.262-1.916,5.95-4.504
						c-0.682,0.449-1.505,0.825-2.459,1.123C267.839,475.53,266.463,475.77,265.044,475.855z"/>
					<path id="XMLID_500_" d="M265.592,467.163c-3.352,0-6.08,2.666-6.08,5.943c0,0.426,0.046,0.849,0.137,1.261
						c0.673,0.483,2.706,0.89,5.348,0.731c2.879-0.173,5.297-0.957,6.672-2.159c-0.006-0.195-0.021-0.39-0.045-0.582
						C271.244,469.396,268.65,467.163,265.592,467.163z M263.432,473.678c-1.02,0-1.85-0.83-1.85-1.85c0-1.02,0.83-1.85,1.85-1.85
						c1.02,0,1.85,0.83,1.85,1.85C265.282,472.848,264.452,473.678,263.432,473.678z M268.17,472.769c-0.75,0-1.36-0.61-1.36-1.36
						c0-0.75,0.61-1.361,1.36-1.361c0.75,0,1.361,0.61,1.361,1.361C269.53,472.159,268.92,472.769,268.17,472.769z"/>
				</g>
				<path id="XMLID_497_" d="M281.595,469.03c-0.295-0.116-0.805-0.309-1.382-0.237c-0.551,0.069-0.844,0.341-0.844,1.007v0.866
					h2.228v1.717h-2.228v5.455h-1.932v-5.455h-1.34v-1.717h1.34v-0.888c0-1.68,0.896-2.783,2.568-2.783
					c0.643,0,1.157,0.122,1.59,0.308L281.595,469.03z"/>
				<path id="XMLID_495_" d="M286.298,472.362c-0.177-0.03-0.358-0.046-0.526-0.046c-0.896,0-1.51,0.548-1.51,1.613v3.908h-1.932
					v-7.172h1.873v0.785c0.451-0.673,1.14-0.977,2.021-0.977c0.414,0,0.848,0.128,1.094,0.337L286.298,472.362z"/>
				<path id="XMLID_492_" d="M293.965,474.24c0,0.222-0.015,0.489-0.037,0.651h-5.085c0.207,1.036,0.933,1.488,1.843,1.488
					c0.622,0,1.295-0.252,1.813-0.688l1.133,1.243c-0.814,0.748-1.85,1.088-3.057,1.088c-2.198,0-3.723-1.495-3.723-3.753
					c0-2.258,1.48-3.797,3.627-3.797C292.544,470.473,293.958,472.005,293.965,474.24z M288.851,473.574h3.175
					c-0.177-0.918-0.733-1.436-1.562-1.436C289.554,472.138,289.021,472.686,288.851,473.574z"/>
				<path id="XMLID_489_" d="M301.618,474.24c0,0.222-0.015,0.489-0.037,0.651h-5.085c0.207,1.036,0.933,1.488,1.843,1.488
					c0.622,0,1.295-0.252,1.814-0.688l1.132,1.243c-0.814,0.748-1.85,1.088-3.057,1.088c-2.198,0-3.723-1.495-3.723-3.753
					c0-2.258,1.48-3.797,3.627-3.797C300.197,470.473,301.611,472.005,301.618,474.24z M296.504,473.574h3.175
					c-0.178-0.918-0.733-1.436-1.562-1.436C297.207,472.138,296.674,472.686,296.504,473.574z"/>
				<path id="XMLID_486_" d="M309.964,474.248c0,2.154-1.495,3.775-3.471,3.775c-0.962,0-1.643-0.378-2.109-0.933v3.708h-1.924
					v-10.133h1.887v0.792c0.466-0.585,1.155-0.984,2.139-0.984C308.469,470.473,309.964,472.094,309.964,474.248z M304.287,474.248
					c0,1.132,0.748,1.976,1.843,1.976c1.14,0,1.85-0.881,1.85-1.976c0-1.095-0.71-1.976-1.85-1.976
					C305.035,472.271,304.287,473.115,304.287,474.248z"/>
				<path id="XMLID_483_" d="M313.068,468.319c0,0.696-0.54,1.229-1.236,1.229c-0.696,0-1.229-0.533-1.229-1.229
					c0-0.696,0.533-1.243,1.229-1.243C312.527,467.076,313.068,467.623,313.068,468.319z M312.809,477.837h-1.932v-7.172h1.932
					V477.837z"/>
				<path id="XMLID_481_" d="M316.032,473.219l2.701-2.554h2.368l-3.479,3.375l3.501,3.797h-2.376l-2.716-2.901v2.901H314.1v-10.658
					h1.932V473.219z"/>
			</g>
			<g id="XMLID_452_">
				<path id="XMLID_477_" d="M184.412,477.772v-1.055c-0.527,0.718-1.391,1.23-2.387,1.23c-1.846,0-3.149-1.406-3.149-3.706
					c0-2.256,1.289-3.721,3.149-3.721c0.952,0,1.816,0.469,2.387,1.245v-3.765h1.099v9.77H184.412z M184.412,475.853v-3.208
					c-0.395-0.615-1.245-1.143-2.124-1.143c-1.421,0-2.27,1.172-2.27,2.739c0,1.567,0.85,2.724,2.27,2.724
					C183.168,476.967,184.017,476.469,184.412,475.853z"/>
				<path id="XMLID_474_" d="M186.932,474.228c0-2.051,1.465-3.706,3.486-3.706c2.139,0,3.398,1.67,3.398,3.794v0.279h-5.727
					c0.088,1.333,1.025,2.446,2.549,2.446c0.805,0,1.626-0.322,2.182-0.893l0.527,0.718c-0.703,0.703-1.655,1.084-2.812,1.084
					C188.44,477.948,186.932,476.439,186.932,474.228z M190.403,471.43c-1.509,0-2.256,1.274-2.314,2.358h4.643
					C192.718,472.733,192.015,471.43,190.403,471.43z"/>
				<path id="XMLID_472_" d="M194.607,476.835l0.571-0.791c0.469,0.542,1.362,1.011,2.329,1.011c1.084,0,1.67-0.513,1.67-1.216
					c0-1.714-4.38-0.659-4.38-3.281c0-1.098,0.952-2.036,2.636-2.036c1.201,0,2.051,0.454,2.622,1.025l-0.513,0.762
					c-0.424-0.513-1.201-0.894-2.109-0.894c-0.967,0-1.567,0.483-1.567,1.113c0,1.552,4.38,0.527,4.38,3.281
					c0,1.187-0.952,2.138-2.783,2.138C196.306,477.948,195.325,477.596,194.607,476.835z"/>
				<path id="XMLID_469_" d="M201.477,468.954c0-0.41,0.337-0.747,0.732-0.747c0.41,0,0.747,0.337,0.747,0.747
					c0,0.41-0.337,0.732-0.747,0.732C201.814,469.686,201.477,469.365,201.477,468.954z M201.667,477.772v-7.075h1.099v7.075
					H201.667z"/>
				<path id="XMLID_466_" d="M204.582,479.589l0.556-0.82c0.586,0.703,1.289,0.967,2.3,0.967c1.172,0,2.27-0.571,2.27-2.124V476.6
					c-0.513,0.718-1.377,1.26-2.373,1.26c-1.845,0-3.149-1.377-3.149-3.662c0-2.27,1.289-3.676,3.149-3.676
					c0.952,0,1.802,0.469,2.373,1.245v-1.069h1.098v6.87c0,2.344-1.641,3.076-3.369,3.076
					C206.237,480.643,205.417,480.409,204.582,479.589z M209.709,475.736v-3.091c-0.381-0.615-1.23-1.143-2.109-1.143
					c-1.421,0-2.27,1.128-2.27,2.695c0,1.553,0.849,2.695,2.27,2.695C208.478,476.893,209.328,476.352,209.709,475.736z"/>
				<path id="XMLID_464_" d="M217.413,477.772v-4.629c0-1.245-0.63-1.641-1.582-1.641c-0.865,0-1.685,0.527-2.095,1.099v5.17h-1.099
					v-7.075h1.099v1.025c0.498-0.586,1.464-1.201,2.519-1.201c1.48,0,2.256,0.747,2.256,2.285v4.966H217.413z"/>
				<path id="XMLID_461_" d="M219.932,474.228c0-2.051,1.465-3.706,3.486-3.706c2.139,0,3.398,1.67,3.398,3.794v0.279h-5.727
					c0.088,1.333,1.025,2.446,2.549,2.446c0.806,0,1.626-0.322,2.183-0.893l0.527,0.718c-0.703,0.703-1.655,1.084-2.812,1.084
					C221.441,477.948,219.932,476.439,219.932,474.228z M223.404,471.43c-1.509,0-2.256,1.274-2.314,2.358h4.643
					C225.718,472.733,225.015,471.43,223.404,471.43z"/>
				<path id="XMLID_458_" d="M233.35,477.772v-1.055c-0.527,0.718-1.392,1.23-2.388,1.23c-1.846,0-3.149-1.406-3.149-3.706
					c0-2.256,1.289-3.721,3.149-3.721c0.952,0,1.817,0.469,2.388,1.245v-3.765h1.098v9.77H233.35z M233.35,475.853v-3.208
					c-0.396-0.615-1.245-1.143-2.124-1.143c-1.421,0-2.27,1.172-2.27,2.739c0,1.567,0.849,2.724,2.27,2.724
					C232.105,476.967,232.954,476.469,233.35,475.853z"/>
				<path id="XMLID_455_" d="M239.692,477.772v-9.77h1.098v3.765c0.572-0.776,1.421-1.245,2.388-1.245
					c1.845,0,3.149,1.465,3.149,3.721c0,2.299-1.304,3.706-3.149,3.706c-0.996,0-1.86-0.513-2.388-1.23v1.055H239.692z
					 M242.9,476.967c1.436,0,2.285-1.157,2.285-2.724c0-1.568-0.85-2.739-2.285-2.739c-0.864,0-1.728,0.527-2.109,1.143v3.208
					C241.171,476.469,242.036,476.967,242.9,476.967z"/>
				<path id="XMLID_453_" d="M247.528,479.545c0.161,0.073,0.425,0.117,0.601,0.117c0.483,0,0.805-0.161,1.055-0.747l0.469-1.069
					l-2.959-7.148h1.187l2.358,5.801l2.344-5.801h1.201l-3.545,8.51c-0.425,1.025-1.143,1.421-2.08,1.435
					c-0.234,0-0.601-0.044-0.805-0.103L247.528,479.545z"/>
			</g>
		</g>
	</g>
</g>
</svg>
