<?xml version="1.0" encoding="utf-8"?>
<!-- Generator: Adobe Illustrator 19.0.0, SVG Export Plug-In . SVG Version: 6.00 Build 0)  -->
<svg version="1.1" id="Layer_1" xmlns="http://www.w3.org/2000/svg" xmlns:xlink="http://www.w3.org/1999/xlink" x="0px" y="0px"
	 width="1400px" height="1400px" viewBox="0 0 1400 1400" enable-background="new 0 0 1400 1400" xml:space="preserve">
<g id="XMLID_1_">
	<defs>
		<rect id="XMLID_28_" width="1400" height="1400"/>
	</defs>
	<clipPath id="XMLID_33_">
		<use xlink:href="#XMLID_28_"  overflow="visible"/>
	</clipPath>
	<linearGradient id="XMLID_34_" gradientUnits="userSpaceOnUse" x1="-14.4299" y1="227.7494" x2="1581.2537" y2="1282.524">
		<stop  offset="0" style="stop-color:#FFFFFF"/>
		<stop  offset="0.2692" style="stop-color:#FCFDFD"/>
		<stop  offset="0.4844" style="stop-color:#F2F6F8"/>
		<stop  offset="0.681" style="stop-color:#E1EAEE"/>
		<stop  offset="0.8652" style="stop-color:#C9D9E1"/>
		<stop  offset="1" style="stop-color:#B3C9D4"/>
	</linearGradient>
	<rect id="XMLID_1786_" clip-path="url(#XMLID_33_)" fill="url(#XMLID_34_)" width="1400" height="1400"/>
	<linearGradient id="XMLID_35_" gradientUnits="userSpaceOnUse" x1="408.2566" y1="-167.268" x2="408.2566" y2="999.9835">
		<stop  offset="0" style="stop-color:#F3F6F8"/>
		<stop  offset="0.2253" style="stop-color:#ECF1F4"/>
		<stop  offset="0.5633" style="stop-color:#D7E2E8"/>
		<stop  offset="0.9701" style="stop-color:#B6CBD6"/>
		<stop  offset="1" style="stop-color:#B3C9D4"/>
	</linearGradient>
	<rect id="XMLID_25_" x="143" y="107" clip-path="url(#XMLID_33_)" fill="url(#XMLID_35_)" width="530.5" height="805.8"/>
	<linearGradient id="XMLID_36_" gradientUnits="userSpaceOnUse" x1="408.2566" y1="207.77" x2="408.2566" y2="1019.2091">
		<stop  offset="0" style="stop-color:#F3F6F8"/>
		<stop  offset="0.2253" style="stop-color:#ECF1F4"/>
		<stop  offset="0.5633" style="stop-color:#D7E2E8"/>
		<stop  offset="0.9701" style="stop-color:#B6CBD6"/>
		<stop  offset="1" style="stop-color:#B3C9D4"/>
	</linearGradient>
	<rect id="XMLID_29_" x="185.7" y="147.8" clip-path="url(#XMLID_33_)" fill="url(#XMLID_36_)" width="445.1" height="724.3"/>
	<linearGradient id="XMLID_37_" gradientUnits="userSpaceOnUse" x1="990.5314" y1="-167.268" x2="990.5314" y2="999.9835">
		<stop  offset="0" style="stop-color:#F3F6F8"/>
		<stop  offset="0.2253" style="stop-color:#ECF1F4"/>
		<stop  offset="0.5633" style="stop-color:#D7E2E8"/>
		<stop  offset="0.9701" style="stop-color:#B6CBD6"/>
		<stop  offset="1" style="stop-color:#B3C9D4"/>
	</linearGradient>
	<rect id="XMLID_27_" x="725.3" y="107" clip-path="url(#XMLID_33_)" fill="url(#XMLID_37_)" width="530.5" height="805.8"/>
	<linearGradient id="XMLID_38_" gradientUnits="userSpaceOnUse" x1="990.5314" y1="207.77" x2="990.5314" y2="1019.2091">
		<stop  offset="0" style="stop-color:#F3F6F8"/>
		<stop  offset="0.2253" style="stop-color:#ECF1F4"/>
		<stop  offset="0.5633" style="stop-color:#D7E2E8"/>
		<stop  offset="0.9701" style="stop-color:#B6CBD6"/>
		<stop  offset="1" style="stop-color:#B3C9D4"/>
	</linearGradient>
	<rect id="XMLID_30_" x="768" y="147.8" clip-path="url(#XMLID_33_)" fill="url(#XMLID_38_)" width="445.1" height="724.3"/>
	<g id="XMLID_1781_" clip-path="url(#XMLID_33_)">
		<linearGradient id="XMLID_39_" gradientUnits="userSpaceOnUse" x1="507.3159" y1="566.7413" x2="673.5944" y2="566.7413">
			<stop  offset="0" style="stop-color:#333433"/>
			<stop  offset="1" style="stop-color:#151615"/>
		</linearGradient>
		<path id="XMLID_31_" fill="url(#XMLID_39_)" d="M586.8,445c0,12.8-10.9,22.7-21.6,29.6s-22.8,13.6-27.9,25.4
			c-4.8,11.2-1.9,24.3-5.2,36c-3.2,11.2-11.8,20-17.9,30c-6.1,10-9.5,23.7-2.2,32.8c1.6,2,3.7,3.8,4.9,6.1c3.2,6.5-1.8,13.7-5,20.1
			c-8.8,17.4-4.2,40.5,10.5,53.2c14.7,12.7,38.3,13.8,54.1,2.6c4.5-3.2,8.5-7.4,10.7-12.5c1.5-3.6,2.1-7.6,3.7-11.1
			c2.6-5.9,7.9-10.5,14-12.2c4.2-1.2,8.5-1.1,12.8-1.3c14.8-0.7,29.8-4.8,41.8-13.6c4.7-3.4,9-7.7,11.3-13.1c2-4.7,2.2-10,2.4-15.1
			c0.6-14.3,1.2-28.8-1.2-42.9c-3.8-22.3-14.9-42.8-19.8-64.8c-1.8-8-2.8-16.4-6.7-23.6c-6.9-13-21.4-19.7-34.9-25.5L586.8,445z"/>
		<linearGradient id="XMLID_40_" gradientUnits="userSpaceOnUse" x1="727.7946" y1="580.5243" x2="891.8404" y2="580.5243">
			<stop  offset="0" style="stop-color:#333433"/>
			<stop  offset="1" style="stop-color:#151615"/>
		</linearGradient>
		<path id="XMLID_6_" fill="url(#XMLID_40_)" d="M798.1,457.2c10.8-1.8,21.9,3.8,28.7,12.3c6.8,8.6,9.6,19.7,10,30.6
			c0.4,11.7-0.7,26.2,9.4,32.3c5.7,3.4,13.5,2.8,18.3,7.5c8.1,7.8,0.4,21.1-0.2,32.3c-0.7,12.7,8.4,23.4,15.2,34.2
			c12.6,20.1,17.6,46.8,5.8,67.3c-7.2,12.4-19.7,21.1-33.3,25.8c-27.8,9.6-59.3,3.2-84.9-11.3c-12.1-6.9-23.6-15.9-30.4-28.1
			c-6-10.6-8.1-23-8.6-35.2c-1.4-35.6,10.6-71.5,33.3-99L798.1,457.2z"/>
		<g id="XMLID_3_">
			<linearGradient id="XMLID_41_" gradientUnits="userSpaceOnUse" x1="803.7746" y1="482.2772" x2="851.5336" y2="482.2772">
				<stop  offset="0" style="stop-color:#333433"/>
				<stop  offset="1" style="stop-color:#151615"/>
			</linearGradient>
			<path id="XMLID_18_" fill="url(#XMLID_41_)" d="M850.4,488.4c-3.5,16.8-12.9,28.4-22.8,34.4c-8.9,5.4-18.2,6.2-23.9,2.1
				c0-35.8,12.1-77.2,12.1-77.2c0-9.6,5.6-12.3,12.4-9.8c2.5,0.9,5,2.4,7.6,4.6c1.3,1.1,2.6,2.4,3.9,3.8
				C847.9,455.4,854.1,470.5,850.4,488.4z"/>
			<linearGradient id="XMLID_42_" gradientUnits="userSpaceOnUse" x1="827.5704" y1="484.54" x2="851.5336" y2="484.54">
				<stop  offset="0" style="stop-color:#333433"/>
				<stop  offset="1" style="stop-color:#151615"/>
			</linearGradient>
			<path id="XMLID_10_" fill="url(#XMLID_42_)" d="M850.4,488.4c-3.5,16.8-12.9,28.4-22.8,34.4c0,0,0,0,0,0
				c-0.9-16.2,4.8-53.4,12.1-76.6C847.9,455.4,854.1,470.5,850.4,488.4z"/>
		</g>
		<g id="XMLID_4_">
			<linearGradient id="XMLID_43_" gradientUnits="userSpaceOnUse" x1="571.6655" y1="482.2753" x2="619.4245" y2="482.2753">
				<stop  offset="0" style="stop-color:#333433"/>
				<stop  offset="1" style="stop-color:#151615"/>
			</linearGradient>
			<path id="XMLID_20_" fill="url(#XMLID_43_)" d="M619.4,524.9c-5.7,4.1-15,3.3-23.9-2.1c-9.9-6-19.3-17.7-22.8-34.4
				c-3.7-17.9,2.5-33,10.7-42.1c0.8-0.9,1.5-1.6,2.3-2.4c2.5-2.3,5-4.1,7.5-5.3c7.5-3.5,14.1-1.3,14.1,9.1
				C607.3,447.7,619.4,489.1,619.4,524.9z"/>
			
				<linearGradient id="XMLID_44_" gradientUnits="userSpaceOnUse" x1="618.9905" y1="484.54" x2="642.9536" y2="484.54" gradientTransform="matrix(-1 0 0 1 1214.6238 0)">
				<stop  offset="0" style="stop-color:#333433"/>
				<stop  offset="1" style="stop-color:#A2A3A2"/>
			</linearGradient>
			<path id="XMLID_5_" fill="url(#XMLID_44_)" d="M572.8,488.4c3.5,16.8,12.9,28.4,22.8,34.4c0,0,0,0,0,0
				c0.8-16.2-4.9-53.4-12.1-76.6C575.3,455.4,569.1,470.5,572.8,488.4z"/>
		</g>
		<g id="XMLID_1776_">
			<linearGradient id="XMLID_45_" gradientUnits="userSpaceOnUse" x1="565.5975" y1="1259.1429" x2="498.101" y2="678.6725">
				<stop  offset="0" style="stop-color:#1C54AC"/>
				<stop  offset="1" style="stop-color:#00346C"/>
			</linearGradient>
			<path id="XMLID_1777_" fill="url(#XMLID_45_)" d="M589.6,672.2c-9.4-0.5-143.8,33.1-143.8,33.1s26.2,202.4,61.8,297
				c28.7,76.2-70.7,389-75.1,660.6c132.5,45,208.5,53.4,208.5,53.4l70.3-202.7l1.9-532.8L589.6,672.2z"/>
			<linearGradient id="XMLID_46_" gradientUnits="userSpaceOnUse" x1="969.9564" y1="1382.4551" x2="616.8205" y2="711.1915">
				<stop  offset="0" style="stop-color:#1C54AC"/>
				<stop  offset="1" style="stop-color:#00346C"/>
			</linearGradient>
			<path id="XMLID_1778_" fill="url(#XMLID_46_)" d="M807.1,670.2c9.4-0.5,170.2,35.1,170.2,35.1s-26.2,202.4-61.8,297
				c-28.7,76.2,70.7,389,75.1,660.6C858,1708,782,1716.3,782,1716.3l-70.3-202.7l1.5-532.8L807.1,670.2z"/>
		</g>
		<linearGradient id="XMLID_47_" gradientUnits="userSpaceOnUse" x1="711.7264" y1="778.9201" x2="711.7264" y2="702.3386">
			<stop  offset="0" style="stop-color:#1C54AC"/>
			<stop  offset="1" style="stop-color:#00346C"/>
		</linearGradient>
		<path id="XMLID_1766_" fill="url(#XMLID_47_)" d="M600.1,678.1c-1,9.6,223.2,0,223.2,0s2.1-59.6-59-59.6s-120.7,0-120.7,0
			S605.2,628.7,600.1,678.1z"/>
		<linearGradient id="XMLID_48_" gradientUnits="userSpaceOnUse" x1="711.3553" y1="1018.7906" x2="711.3553" y2="664.5024">
			<stop  offset="0" style="stop-color:#333433"/>
			<stop  offset="1" style="stop-color:#151615"/>
		</linearGradient>
		<path id="XMLID_1774_" fill="url(#XMLID_48_)" d="M612,686.2c2.2,0,198.8,0,198.8,0l-97.5,294.6L612,686.2z"/>
		<linearGradient id="XMLID_49_" gradientUnits="userSpaceOnUse" x1="436.4542" y1="532.6263" x2="934.855" y2="713.5409">
			<stop  offset="5.376344e-002" style="stop-color:#D19F70"/>
			<stop  offset="1" style="stop-color:#9C6848"/>
		</linearGradient>
		<path id="XMLID_15_" fill="url(#XMLID_49_)" d="M774.3,610.5c0-30.9,0-68.5,0-68.5L711.7,562l-62.5-19.9c0,0,0,27.1,0,54.2
			c0,4.8,0,9.6,0,14.3c0,0.3,0,0.6,0,0.9v0.3c0,4.8-0.4,9.3-0.9,13.6c-0.1,1-0.3,1.9-0.5,2.9v0c-3.5,20.3-13.5,34.1-29.8,41.3
			c-0.5,0.2-1,0.4-1.6,0.7c0,13.5,5.7,25.4,14.8,35.3c19.1,20.9,53.3,33.1,80.6,33.1c19.7,0,43-6.4,61.6-17.8
			c19.4-11.9,33.7-29.3,33.7-50.7C785.4,661.3,774.3,641.5,774.3,610.5z"/>
		<linearGradient id="XMLID_50_" gradientUnits="userSpaceOnUse" x1="442.0231" y1="935.301" x2="773.5065" y2="564.8198">
			<stop  offset="5.376344e-002" style="stop-color:#D19F70"/>
			<stop  offset="1" style="stop-color:#9C6848"/>
		</linearGradient>
		<path id="XMLID_1915_" fill="url(#XMLID_50_)" d="M704.5,671c22,19,45.2,35,68.9,49.8c19.4-11.9,33.7-29.3,33.7-50.7
			c-21.7-8.8-32.8-28.7-32.8-59.6s0-68.5,0-68.5L711.7,562l-62.5-19.9c0,0,0,27.1,0,54.2C663.3,624.2,680.3,650.8,704.5,671z"/>
		<linearGradient id="XMLID_51_" gradientUnits="userSpaceOnUse" x1="462.0518" y1="591.705" x2="883.5304" y2="744.6976">
			<stop  offset="5.376344e-002" style="stop-color:#D19F70"/>
			<stop  offset="1" style="stop-color:#9C6848"/>
		</linearGradient>
		<path id="XMLID_1916_" fill="url(#XMLID_51_)" d="M704.5,671c-24.2-20.2-41.2-46.8-55.3-74.7c0,4.8,0,9.6,0,14.3
			c0,0.3,0,0.6,0,0.9v0.3c0,4.8-0.4,9.3-0.9,13.6c-0.1,1-0.3,1.9-0.5,2.9v0c-3.5,20.3-13.5,34.1-29.8,41.3c-0.5,0.2-1,0.4-1.6,0.7
			c0,13.5,5.7,25.4,14.8,35.3c19.1,20.9,53.3,33.1,80.6,33.1c19.7,0,43-6.4,61.6-17.8C749.7,706,726.5,690,704.5,671z"/>
		<linearGradient id="XMLID_52_" gradientUnits="userSpaceOnUse" x1="600.5772" y1="457.4937" x2="909.3808" y2="457.4937">
			<stop  offset="5.376344e-002" style="stop-color:#D19F70"/>
			<stop  offset="1" style="stop-color:#9C6848"/>
		</linearGradient>
		<path id="XMLID_1929_" fill="url(#XMLID_52_)" d="M809.7,515.2c-11.9,42.8-54.9,97.8-99,97.8c-44.1,0-86.8-56-98.7-98.8
			c-13.2-47.4-12.1-82.6-10.4-104.7C603.8,380,619.2,302,710.7,302c46.5,0,73.4,20.2,88.8,43.9c14.9,22.9,19.2,49.2,20.3,63.7
			C821.5,431.6,822.9,467.8,809.7,515.2z"/>
		<linearGradient id="XMLID_53_" gradientUnits="userSpaceOnUse" x1="921.2838" y1="465.258" x2="604.398" y2="484.7162">
			<stop  offset="5.376344e-002" style="stop-color:#D19F70"/>
			<stop  offset="1" style="stop-color:#9C6848"/>
		</linearGradient>
		<path id="XMLID_1787_" fill="url(#XMLID_53_)" d="M819.1,409.5c-1.1-14.5-5.4-40.7-20.3-63.7c-11.2-1.2-22.2-1.9-30.7-1.2
			c-22.1,1.9-74.9-3.9-85.2,1.9c-10.2,5.8-31.7,24.6-31.7,24.6s43.1,43,74,46.9c30.9,3.9,37.5,18.7,37.5,18.7s-48.9,0.8-51.9,31.6
			c-3,30.8,0,46.4,0,46.4l7.1,1.4l-18,1.5c0,0,16.7,16.7,16.7,22.6c0,1,0,1.7,0,2l0-0.3c0,0,1.5,0.4,3.9,1l-4.4,27.6
			c-3,5-5.8,5-15.5,5.2c0,0,3,5.4,10.2,5.4c2.6,16.4-1,31.9-1,31.9c44.1,0,87.1-55,99-97.8C822.2,467.8,820.8,431.6,819.1,409.5z"/>
		<g id="XMLID_1830_">
			<linearGradient id="XMLID_54_" gradientUnits="userSpaceOnUse" x1="711.2566" y1="549" x2="711.2566" y2="586.387">
				<stop  offset="1.075269e-002" style="stop-color:#8B272A"/>
				<stop  offset="1" style="stop-color:#F7A483"/>
			</linearGradient>
			<path id="XMLID_11_" fill-rule="evenodd" clip-rule="evenodd" fill="url(#XMLID_54_)" d="M673.5,537.6c3.4,6.5,7.4,11.8,11.8,16
				h0c1.1,1.1,2.3,2.1,3.5,3.1c13.9-9.2,33.4-7.9,48.8-3c4.3-4.2,8.1-9.6,11.4-16.1C723.2,541.6,698,541.6,673.5,537.6z"/>
			<linearGradient id="XMLID_55_" gradientUnits="userSpaceOnUse" x1="713.227" y1="539.6666" x2="713.227" y2="592.0923">
				<stop  offset="1.075269e-002" style="stop-color:#8B272A"/>
				<stop  offset="1" style="stop-color:#F7A483"/>
			</linearGradient>
			<path id="XMLID_13_" fill-rule="evenodd" clip-rule="evenodd" fill="url(#XMLID_55_)" d="M688.8,556.7
				c15.4,12.1,34.4,11.1,48.7-2.9c0,0,0.1-0.1,0.1-0.1C722.2,548.8,702.7,547.5,688.8,556.7z"/>
			<g id="XMLID_1827_">
				<g id="XMLID_1825_">
					<g id="XMLID_1805_">
						<linearGradient id="XMLID_56_" gradientUnits="userSpaceOnUse" x1="657.67" y1="451.2469" x2="657.67" y2="472.2471">
							<stop  offset="0" style="stop-color:#333433"/>
							<stop  offset="1" style="stop-color:#151615"/>
						</linearGradient>
						<path id="XMLID_1815_" fill="url(#XMLID_56_)" d="M687.9,464.2c-7.5-15.6-17.1-20.3-31.1-20.3c-11.1,0-29.4,8.2-29.4,8.2
							l7.2,4.1L687.9,464.2z"/>
						<linearGradient id="XMLID_57_" gradientUnits="userSpaceOnUse" x1="661.2665" y1="461.0074" x2="661.2665" y2="445.7786">
							<stop  offset="0" style="stop-color:#FFFFFF"/>
							<stop  offset="1" style="stop-color:#B3C9D4"/>
						</linearGradient>
						<path id="XMLID_1822_" fill="url(#XMLID_57_)" d="M670.9,450c-5.1-1.5-10.8-1.9-16.6-0.8c-2.7,0.5-5.4,1.3-8.1,2.4
							c-6.5,2.6-9.9,4-11.7,4.6c5.6,5.6,12.1,10.5,22.4,10.9c0.4,0,0.7,0,1.1,0c3.4,0,6.8-0.1,10.2-0.4c11.5-0.8,19.7-2.5,19.7-2.5
							C683.7,457.4,678.9,452.3,670.9,450z"/>
						<linearGradient id="XMLID_58_" gradientUnits="userSpaceOnUse" x1="662.7584" y1="447.7472" x2="662.7584" y2="474.4003">
							<stop  offset="0" style="stop-color:#333433"/>
							<stop  offset="1" style="stop-color:#151615"/>
						</linearGradient>
						<path id="XMLID_1808_" fill="url(#XMLID_58_)" d="M674.4,457c0,4.1-2.1,7.6-5.2,9.7c-3.6,0.2-7.4,0.4-11.1,0.4
							c-0.4,0-0.8,0-1.2,0c-3.5-2-5.8-5.8-5.8-10.1c0-3,1.1-5.7,3-7.8c2.1-2.4,5.2-3.8,8.7-3.8c3.8,0,7.2,1.8,9.3,4.7
							C673.5,452,674.4,454.4,674.4,457z"/>
					</g>
					<circle id="XMLID_1820_" fill="#FFFFFF" cx="665.5" cy="453.2" r="2.8"/>
				</g>
				<g id="XMLID_1813_">
					<g id="XMLID_1818_">
						<linearGradient id="XMLID_59_" gradientUnits="userSpaceOnUse" x1="767.0673" y1="449.2649" x2="767.0673" y2="471.1124">
							<stop  offset="0" style="stop-color:#333433"/>
							<stop  offset="1" style="stop-color:#151615"/>
						</linearGradient>
						<path id="XMLID_1823_" fill="url(#XMLID_59_)" d="M736.8,466.6c7.5-15.6,17.1-20.3,31.1-20.3c11.1,0,29.4,8.2,29.4,8.2
							l-7.2,4.1L736.8,466.6z"/>
						<linearGradient id="XMLID_60_" gradientUnits="userSpaceOnUse" x1="763.4707" y1="461.5459" x2="763.4707" y2="444.1823">
							<stop  offset="0" style="stop-color:#FFFFFF"/>
							<stop  offset="1" style="stop-color:#B3C9D4"/>
						</linearGradient>
						<path id="XMLID_1821_" fill="url(#XMLID_60_)" d="M753.8,452.4c5.1-1.5,10.8-1.9,16.6-0.8c2.7,0.5,5.4,1.3,8.1,2.4
							c6.5,2.6,9.9,4,11.7,4.6c-5.6,5.6-12.1,10.5-22.4,10.9c-0.4,0-0.7,0-1.1,0c-3.4,0-6.8-0.1-10.2-0.4
							c-11.5-0.8-19.7-2.5-19.7-2.5C741.1,459.8,745.8,454.7,753.8,452.4z"/>
						<linearGradient id="XMLID_61_" gradientUnits="userSpaceOnUse" x1="761.9788" y1="452.7646" x2="761.9788" y2="486.1857">
							<stop  offset="0" style="stop-color:#333433"/>
							<stop  offset="1" style="stop-color:#151615"/>
						</linearGradient>
						<path id="XMLID_1819_" fill="url(#XMLID_61_)" d="M750.3,459.4c0,4.1,2.1,7.6,5.2,9.7c3.6,0.2,7.4,0.4,11.1,0.4
							c0.4,0,0.8,0,1.2,0c3.5-2,5.8-5.8,5.8-10.1c0-3-1.1-5.7-3-7.8c-2.1-2.4-5.2-3.8-8.7-3.8c-3.8,0-7.2,1.8-9.3,4.7
							C751.2,454.3,750.3,456.8,750.3,459.4z"/>
					</g>
					<circle id="XMLID_1817_" fill="#FFFFFF" cx="759.2" cy="455.6" r="2.8"/>
				</g>
			</g>
			<path id="XMLID_1833_" fill="#B14459" d="M742.2,548.5c-5.7,8.2-11.7,26.5-30.7,26.3c-19.3-0.2-25.6-18.5-31.3-26.8l5.1,5.6
				C701.2,568.9,726.8,563.7,742.2,548.5L742.2,548.5z"/>
			<path id="XMLID_1826_" fill="#B14459" d="M711.3,542.4c12.8,0,37.7-4.8,37.7-4.8c-19.3-1.4-27.5-6.9-37.8-3.9
				c-11.3-3-20,0.3-37.7,3.9C673.5,537.6,698.5,542.4,711.3,542.4L711.3,542.4L711.3,542.4L711.3,542.4L711.3,542.4z"/>
			<linearGradient id="XMLID_62_" gradientUnits="userSpaceOnUse" x1="711.2565" y1="549.9466" x2="711.2565" y2="498.7853">
				<stop  offset="5.376344e-002" style="stop-color:#D19F70"/>
				<stop  offset="1" style="stop-color:#9C6848"/>
			</linearGradient>
			<path id="XMLID_1816_" fill-rule="evenodd" clip-rule="evenodd" fill="url(#XMLID_62_)" d="M695.3,514.2c8.8-4.4,24.3-3.6,31.9,0
				C715.6,522.5,704.9,521.7,695.3,514.2z"/>
			<g id="XMLID_1829_">
				<linearGradient id="XMLID_63_" gradientUnits="userSpaceOnUse" x1="651.8507" y1="487.0244" x2="651.8507" y2="402.5063">
					<stop  offset="0" style="stop-color:#333433"/>
					<stop  offset="1" style="stop-color:#151615"/>
				</linearGradient>
				<path id="XMLID_1824_" fill-rule="evenodd" clip-rule="evenodd" fill="url(#XMLID_63_)" d="M682.1,437.6
					c-20.1-7.8-45-9.6-63.8-1.1c1.7-5,10.7-11.5,27.4-13.3c11.6-1.3,26.4,2.4,34.3,4.7c3.3,1,5.5,4,5.5,7.4l0,0
					C685.4,437.1,683.7,438.3,682.1,437.6z"/>
				
					<linearGradient id="XMLID_64_" gradientUnits="userSpaceOnUse" x1="1231.174" y1="487.0244" x2="1231.174" y2="402.5063" gradientTransform="matrix(-1 0 0 1 2001.8364 0)">
					<stop  offset="0" style="stop-color:#333433"/>
					<stop  offset="1" style="stop-color:#151615"/>
				</linearGradient>
				<path id="XMLID_1828_" fill-rule="evenodd" clip-rule="evenodd" fill="url(#XMLID_64_)" d="M740.5,437.6
					c20.1-7.8,45-9.6,63.8-1.1c-1.7-5-10.7-11.5-27.4-13.3c-11.6-1.3-26.4,2.4-34.3,4.7c-3.3,1-5.5,4-5.5,7.4l0,0
					C737.1,437.1,738.8,438.3,740.5,437.6z"/>
			</g>
		</g>
		<g id="XMLID_1765_">
			<linearGradient id="XMLID_65_" gradientUnits="userSpaceOnUse" x1="741.3099" y1="395.7117" x2="741.3099" y2="171.6125">
				<stop  offset="0" style="stop-color:#333433"/>
				<stop  offset="1" style="stop-color:#151615"/>
			</linearGradient>
			<path id="XMLID_1767_" fill="url(#XMLID_65_)" d="M652,279.2c0-3.7,17.8-10.1,20.8-11.2c7.7-2.7,15.9-4.2,24.1-4.6
				c7.9-0.4,17.4-0.7,25,1.7c8.3,2.6,15.4,4.5,24.4,3.7c3-0.3,6.2-0.7,8.7,0.9c2.3,1.4,3.4,4.2,5.7,5.7c1.5,1,3.3,1.3,5,1.9
				c7.6,2.5,12.5,9.7,19.3,13.8c2.5,1.5,5.2,2.5,7.6,4.2c5.7,4,8.9,11.3,13,16.6c3.7,4.9,6.4,10.7,8.8,16.4
				c5.4,12.8,9,26.3,11.5,39.9c2.9,15.4,4.9,31.2,4.5,46.9c-0.4,12.2-1,27.1-11.9,34.9c-2.6,1.9-5.8,3.2-9,2.8
				c-3.2-0.5-6.2-3.3-6-6.5c0.2-2.3,1.8-4.2,3.1-6.1c4.3-6.3,5.3-14.7,2.7-21.9c-2.6-7.2-8.7-13-16-15.2c-5.9-1.8-12.2-1.3-18.4-1.3
				c-8.4,0-16.8-1-25.1-1.9c-9.9-1.2-20.3-2.4-28.8-7.7c-3.1-1.9-5.8-4.3-9-6c-13.5-7.4-30.7-1.8-45.4-6.5
				c-11.2-3.6-14.7-12.8-14.8-23.6c0-12,0-24,0-36.1C652,306.4,652,292.8,652,279.2z"/>
			<linearGradient id="XMLID_66_" gradientUnits="userSpaceOnUse" x1="621.7245" y1="412.5533" x2="621.7245" y2="242.8794">
				<stop  offset="0" style="stop-color:#333433"/>
				<stop  offset="1" style="stop-color:#151615"/>
			</linearGradient>
			<path id="XMLID_1769_" fill="url(#XMLID_66_)" d="M651.7,370.7c2.8-14.9,0.4-32.3,0.4-46.7c0-14.9,0-29.9,0-44.8
				c0-1.7-12,5.7-12.7,6.2c-5.1,4.4-8.6,9.4-12,15.1c-6.2,10.5-17.3,17.7-22.2,29c-2.8,6.4-3.2,13.8-7.1,19.7
				c-1.5,2.3-3.5,4.2-4.4,6.8c-1,2.7-0.6,5.7-0.4,8.6c1.1,16.4-3.2,32.6-2.9,49c0.1,7.4,0.9,14.9,2.8,22c0.9,3.3,2,6.5,3.4,9.6
				c0.8,1.8,4.4,6,4.4,7.7c0-9.1,2.8-17.8,9.2-24.4c4-4.1,8.7-7.8,11.5-12.8c2.8-5,3.8-11.2,8.2-14.8c2-1.6,4.4-2.6,6.6-3.9
				c6.4-3.9,10.1-10.6,12.7-17.4C650.3,376.8,651.1,373.8,651.7,370.7z"/>
		</g>
		<linearGradient id="XMLID_67_" gradientUnits="userSpaceOnUse" x1="569.2332" y1="705.9783" x2="940.5167" y2="1004.6804">
			<stop  offset="0" style="stop-color:#1C54AC"/>
			<stop  offset="1" style="stop-color:#00346C"/>
		</linearGradient>
		<path id="XMLID_1770_" fill="url(#XMLID_67_)" d="M713.2,980.7l-82.1-275.2l-10-23.8c-1.7-3.9-2.7-8.1-3.3-12.2
			c-1-7.9,0.1-16.1,3.4-23.5c4-8.9,13.5-19.8,26.8-20.8c0.6-4.3,0.9-8.8,0.9-13.6v-0.3c-17.1,4-78.8,24.7-78.8,116h50.5l-31.3,42
			L713.2,980.7z"/>
		<linearGradient id="XMLID_68_" gradientUnits="userSpaceOnUse" x1="590.0519" y1="802.2095" x2="1095.234" y2="782.0022">
			<stop  offset="0" style="stop-color:#1C54AC"/>
			<stop  offset="1" style="stop-color:#00346C"/>
		</linearGradient>
		<path id="XMLID_1772_" fill="url(#XMLID_68_)" d="M713.2,980.7l79-275.2l9.9-23.8c1.7-3.9,2.7-8.1,3.3-12.2
			c1-7.9-0.1-16.1-3.4-23.5c-4-8.9-13.5-19.8-26.8-20.8c-0.6-4.3-0.9-8.8-0.9-13.6v-0.3c17.1,3.9,78.7,24.5,78.8,116h-50.5l31.3,42
			L713.2,980.7z"/>
	</g>
	<linearGradient id="XMLID_69_" gradientUnits="userSpaceOnUse" x1="700" y1="1321" x2="700" y2="964.1931">
		<stop  offset="0" style="stop-color:#FFFFFF"/>
		<stop  offset="1" style="stop-color:#B3C9D4"/>
	</linearGradient>
	<rect id="XMLID_1784_" y="1173.9" clip-path="url(#XMLID_33_)" fill="url(#XMLID_69_)" width="1400" height="226.1"/>
	<g id="XMLID_1785_" clip-path="url(#XMLID_33_)">
		<linearGradient id="XMLID_70_" gradientUnits="userSpaceOnUse" x1="418.4412" y1="827.8077" x2="418.4412" y2="1275.3082">
			<stop  offset="0" style="stop-color:#1C54AC"/>
			<stop  offset="1" style="stop-color:#00346C"/>
		</linearGradient>
		<path id="XMLID_1914_" fill="url(#XMLID_70_)" d="M481.2,785.9c-8.7-33.5-20.1-62.9-35.2-80.6c-36.9,33.4-81.6,312.6-91.6,423.6
			c5.5,37.2,28.8,46.8,51.6,46.7c18.8-54.6,33-111.2,48.4-168.5C474.1,933.8,486.6,860.6,481.2,785.9z"/>
		<linearGradient id="XMLID_71_" gradientUnits="userSpaceOnUse" x1="454.5438" y1="1302.3519" x2="462.0429" y2="634.8857">
			<stop  offset="0" style="stop-color:#1C54AC"/>
			<stop  offset="1" style="stop-color:#00346C"/>
		</linearGradient>
		<path id="XMLID_1917_" fill="url(#XMLID_71_)" d="M507.8,1002.3c0,0-2.7-124-26.6-216.4c5.4,74.6-7.1,147.9-26.7,221.1
			c-15.4,57.3-29.7,113.9-48.4,168.5c25-0.1,49.4-11.9,49.4-11.9L507.8,1002.3z"/>
		<linearGradient id="XMLID_72_" gradientUnits="userSpaceOnUse" x1="295.7838" y1="700.301" x2="298.7835" y2="847.2937">
			<stop  offset="5.376344e-002" style="stop-color:#D19F70"/>
			<stop  offset="1" style="stop-color:#9C6848"/>
		</linearGradient>
		<path id="XMLID_14_" fill="url(#XMLID_72_)" d="M345.6,804.7c-2.6-29.3-22.8-56.8-26.1-72.8c-3.2-16-10.8-42.1-10.8-42.1
			c-17.4,4.8-17.5,26.9-12.2,40.6c-0.3,6.3-0.1,12.8,0.4,18.8c-8.8,9-24.6,21.6-47.4,23.4c50.1,21.9,69,25.4,75.6,25.6
			C332.9,804.2,340.5,808,345.6,804.7z"/>
		<linearGradient id="XMLID_73_" gradientUnits="userSpaceOnUse" x1="321.1831" y1="953.7465" x2="411.7496" y2="953.7465">
			<stop  offset="0" style="stop-color:#1C54AC"/>
			<stop  offset="1" style="stop-color:#00346C"/>
		</linearGradient>
		<path id="XMLID_1792_" fill="url(#XMLID_73_)" d="M411.7,942.7c-5.2-17.7-91.7-9.7-90.6,18.8C322.3,990,412,964.5,411.7,942.7z"/>
		<linearGradient id="XMLID_74_" gradientUnits="userSpaceOnUse" x1="249.471" y1="701.1729" x2="441.462" y2="1202.1495">
			<stop  offset="5.376344e-002" style="stop-color:#D19F70"/>
			<stop  offset="1" style="stop-color:#9C6848"/>
		</linearGradient>
		<path id="XMLID_1802_" fill="url(#XMLID_74_)" d="M312.7,831.9c0,0,0.1,1.3,0.4,3.8c3.3,30.2,24.9,230.9,28.3,256.1
			c3.7,27.2,22.8,78.8,44.2,101.6c21.4,22.8,68.5,1.5,61.8-73.6c-6.6-75.1-74.4-256.9-85.4-287.9c-11-30.9-49-33.4-49.2,1.3"/>
		<linearGradient id="XMLID_75_" gradientUnits="userSpaceOnUse" x1="308.4885" y1="1078.3533" x2="524.4886" y2="1184.3535">
			<stop  offset="0" style="stop-color:#1C54AC"/>
			<stop  offset="1" style="stop-color:#00346C"/>
		</linearGradient>
		<path id="XMLID_1795_" fill="url(#XMLID_75_)" d="M418.3,1204.6c0,0,51.2-27.6,58.2-67.6s-2.5-86.1-43.8-90
			c-41.2-4-105.5,19.5-110.9,50.8C316.5,1129,345.2,1235.4,418.3,1204.6z"/>
		<linearGradient id="XMLID_76_" gradientUnits="userSpaceOnUse" x1="321.1934" y1="1104.8972" x2="459.3109" y2="1104.8972">
			<stop  offset="0" style="stop-color:#1C54AC"/>
			<stop  offset="1" style="stop-color:#00346C"/>
		</linearGradient>
		<path id="XMLID_1791_" fill="url(#XMLID_76_)" d="M430.5,999.1l14.4,25.4c12.1,58.5,39.8,165.7-42,185.5
			c-55.4,13.5-81.7-155.7-81.7-155.7l2.2-35.3L430.5,999.1z"/>
		<linearGradient id="XMLID_77_" gradientUnits="userSpaceOnUse" x1="321.1934" y1="982.5514" x2="430.5228" y2="982.5514">
			<stop  offset="0" style="stop-color:#1C54AC"/>
			<stop  offset="1" style="stop-color:#00346C"/>
		</linearGradient>
		<path id="XMLID_1789_" fill="url(#XMLID_77_)" d="M321.2,961.5c0,0,48.6,16.6,90.6-18.8c15.5,46.4,18.8,56.3,18.8,56.3
			c-32,27.6-81.7,25.4-107.1,19.9C322.3,990.2,321.2,961.5,321.2,961.5z"/>
	</g>
	<linearGradient id="XMLID_78_" gradientUnits="userSpaceOnUse" x1="983.8846" y1="1276.9037" x2="965.8856" y2="1008.4173">
		<stop  offset="0" style="stop-color:#1C54AC"/>
		<stop  offset="1" style="stop-color:#00346C"/>
	</linearGradient>
	<path id="XMLID_1913_" clip-path="url(#XMLID_33_)" fill="url(#XMLID_78_)" d="M937.5,835c-0.7-7.6-0.9-14.3-1.7-21.4
		c-18,87.6-20.2,188.7-20.2,188.7l52.4,161.4c0,0,31,14.9,58.9,11.3c-9.7-18.2-17.5-37.3-22.4-58C979.5,1021,954.5,933,937.5,835z"
		/>
	<linearGradient id="XMLID_79_" gradientUnits="userSpaceOnUse" x1="1003.1189" y1="1199.099" x2="1001.6191" y2="693.626">
		<stop  offset="0" style="stop-color:#1C54AC"/>
		<stop  offset="1" style="stop-color:#00346C"/>
	</linearGradient>
	<path id="XMLID_1918_" clip-path="url(#XMLID_33_)" fill="url(#XMLID_79_)" d="M1069,1129.2c-9.9-111-54.7-390.2-91.6-423.6
		c-19.2,22.5-32.4,63.7-41.6,108.3c0.7,7.1,1,13.7,1.7,21.4c17,98,42,186,67,282c4.9,20.6,12.7,39.8,22.4,58
		C1046.4,1172.7,1064.3,1161.2,1069,1129.2z"/>
	<linearGradient id="XMLID_80_" gradientUnits="userSpaceOnUse" x1="592.9773" y1="1081" x2="592.9773" y2="1245.0492">
		<stop  offset="5.376344e-002" style="stop-color:#D19F70"/>
		<stop  offset="1" style="stop-color:#9C6848"/>
	</linearGradient>
	<path id="XMLID_1794_" clip-path="url(#XMLID_33_)" fill="url(#XMLID_80_)" d="M701.8,1160.2l-33.4-5.2l-96.3-26l-55.6,31.2
		l-61.1,50.6c13.3,12.3,43.3-8.6,43.3-8.6s6.7,1.1,18.9,0c12.2,8.9,29.9,14.1,56.6,12.5c26.6-1.6,97.6-3.9,97.6-3.9h58.8
		L701.8,1160.2z"/>
	<linearGradient id="XMLID_81_" gradientUnits="userSpaceOnUse" x1="916.0895" y1="1122.6079" x2="916.0895" y2="1213.4155">
		<stop  offset="0" style="stop-color:#1C54AC"/>
		<stop  offset="1" style="stop-color:#00346C"/>
	</linearGradient>
	<path id="XMLID_1912_" clip-path="url(#XMLID_33_)" fill="url(#XMLID_81_)" d="M1037.5,1141c10.9-5.6,21.8-11.4,32.6-17.3
		c-0.6-2.4-1.3-4.6-2.2-6.6c-13.3-27-104.5-20.3-127.3-12.2c-22.8,8.1-118.4,30.6-138.1,36.6c-19.7,6-40.4,8.6-40.4,8.6l4.6,42.8
		C859.8,1195.6,952.9,1181.3,1037.5,1141z"/>
	<linearGradient id="XMLID_82_" gradientUnits="userSpaceOnUse" x1="918.3693" y1="860.804" x2="915.3693" y2="1264.2845">
		<stop  offset="0" style="stop-color:#1C54AC"/>
		<stop  offset="1" style="stop-color:#00346C"/>
	</linearGradient>
	<path id="XMLID_1919_" clip-path="url(#XMLID_33_)" fill="url(#XMLID_82_)" d="M1034.2,1141c-84.6,40.3-177.7,54.6-270.9,51.8
		l2.9,27.7c0,0,144,4.5,222.7,0c73.2-4.2,85.8-65.3,77.8-96.8C1055.9,1129.6,1045,1135.4,1034.2,1141z"/>
	<linearGradient id="XMLID_83_" gradientUnits="userSpaceOnUse" x1="734.6164" y1="1150.3561" x2="741.6163" y2="1277.3557">
		<stop  offset="0" style="stop-color:#1C54AC"/>
		<stop  offset="1" style="stop-color:#00346C"/>
	</linearGradient>
	<polygon id="XMLID_1790_" clip-path="url(#XMLID_33_)" fill="url(#XMLID_83_)" points="762.1,1150.1 703.5,1150.1 711.5,1222.6 
		769.6,1220.6 	"/>
	<g id="XMLID_8_" clip-path="url(#XMLID_33_)">
		<linearGradient id="XMLID_84_" gradientUnits="userSpaceOnUse" x1="584.699" y1="352.435" x2="836.7889" y2="352.435">
			<stop  offset="0" style="stop-color:#333433"/>
			<stop  offset="1" style="stop-color:#151615"/>
		</linearGradient>
		<path id="XMLID_17_" fill="url(#XMLID_84_)" d="M835.9,442.5c-2.5-2.1-5.1-3.7-7.6-4.6c0.7-9.4,1-24.8-0.8-42.8
			c-2.5-24.7-9.6-59.7-29.8-86.3c-20.1-26.5-49.3-39.9-87-39.9c-37.7,0-67,13.4-87,39.9c-20.2,26.6-27.3,61.6-29.8,86.3
			c-1.8,18.4-1.4,34.1-0.8,43.4c-2.5,1.1-5,2.9-7.5,5.3c-2.2-21.1-3.8-90.1,29.5-137c21.7-30.5,53.8-45.9,95.5-45.9
			c41.7,0,73.8,15.4,95.5,45.9C838.9,352.7,838,419.9,835.9,442.5z"/>
	</g>
	<g id="XMLID_7_" clip-path="url(#XMLID_33_)">
		<linearGradient id="XMLID_85_" gradientUnits="userSpaceOnUse" x1="579.6514" y1="533.0536" x2="656.0369" y2="533.0536">
			<stop  offset="0" style="stop-color:#A2A3A2"/>
			<stop  offset="1" style="stop-color:#333433"/>
		</linearGradient>
		<path id="XMLID_9_" fill="url(#XMLID_85_)" d="M652,569.1c-0.4,0-0.8-0.1-1.2-0.2c-2.5-0.8-61.2-19.4-71.1-67.1
			c-0.4-2.2,0.9-4.3,3.1-4.7c2.2-0.4,4.3,0.9,4.7,3.1c8.9,43.2,65.1,60.9,65.6,61.1c2.1,0.6,3.3,2.9,2.6,5
			C655.3,568,653.7,569.1,652,569.1z"/>
	</g>
	
		<linearGradient id="XMLID_86_" gradientUnits="userSpaceOnUse" x1="657.3605" y1="621.2849" x2="688.9525" y2="642.1677" gradientTransform="matrix(0.9409 0.3387 -0.3387 0.9409 242.5521 -254.3499)">
		<stop  offset="0" style="stop-color:#333433"/>
		<stop  offset="1" style="stop-color:#151615"/>
	</linearGradient>
	<path id="XMLID_2_" clip-path="url(#XMLID_33_)" fill="url(#XMLID_86_)" d="M658.2,583.1l-6-2.2c-8.6-3.1-13.1-12.6-10-21.2l0,0
		c3.1-8.6,12.6-13.1,21.2-10l6,2.2c8.6,3.1,13.1,12.6,10,21.2l0,0C676.2,581.7,666.8,586.2,658.2,583.1z"/>
	<linearGradient id="XMLID_87_" gradientUnits="userSpaceOnUse" x1="189.7092" y1="670.3336" x2="203.2086" y2="785.8281">
		<stop  offset="5.376344e-002" style="stop-color:#D19F70"/>
		<stop  offset="1" style="stop-color:#9C6848"/>
	</linearGradient>
	<path id="XMLID_12_" clip-path="url(#XMLID_33_)" fill="url(#XMLID_87_)" d="M230.2,766.7c0,0-67-33.7-67.7-35.7
		c-0.7-2-55.8-23.1-55.8-23.1s2.1-6.2,16.1-7.2s37.7,5,51,9.7c13.3,4.7,36,8.7,44.7,13.3c8.7,4.7,58.1,31.8,67.7,34.8
		S248.6,771.8,230.2,766.7z"/>
	<linearGradient id="XMLID_88_" gradientUnits="userSpaceOnUse" x1="221.3232" y1="711.9601" x2="413.3134" y2="1212.9347">
		<stop  offset="5.376344e-002" style="stop-color:#D19F70"/>
		<stop  offset="1" style="stop-color:#9C6848"/>
	</linearGradient>
	<path id="XMLID_19_" clip-path="url(#XMLID_33_)" fill="url(#XMLID_88_)" d="M340.7,788.3c-7-8.8-20.6-17.8-36.2-24.2
		c-0.6-0.3-5.6-1.8-10.2-3.2l0,0c0,0-12.5-12-23.1-14.3c-4.5-1-16.7-6.2-30.2-12.2c0,0,0,0,0,0c-10.4-9.8-23.3-16.3-25.8-20.2
		c-2.5-3.9-17.2-17-26.6-22.8c-9.4-5.8-19.4,0-19.4,0s8.9,10.6,16.4,19.6c-7.9-4-17.5-10.1-32.4-17.5c-21.3-10.6-34,0-34,0
		s112.9,71.1,111,73.1c48.1,38.8,60.1,56.3,88.9,82.6c20.4,0.8,31.9-4.2,38.9-17.7C359.2,829.3,359.3,811.6,340.7,788.3z"/>
	<linearGradient id="XMLID_89_" gradientUnits="userSpaceOnUse" x1="891.5142" y1="1215.214" x2="683.5145" y2="1285.2141">
		<stop  offset="0" style="stop-color:#FFFFFF"/>
		<stop  offset="1" style="stop-color:#B3C9D4"/>
	</linearGradient>
	<path id="XMLID_16_" clip-path="url(#XMLID_33_)" fill="url(#XMLID_89_)" d="M797.2,1298.3L634.6,1237v14.2c0,7.7,4.8,14.6,12,17.3
		l125.7,47.1C784.4,1320.2,797.2,1311.2,797.2,1298.3L797.2,1298.3z"/>
	<linearGradient id="XMLID_90_" gradientUnits="userSpaceOnUse" x1="1050.4469" y1="1177.0001" x2="1050.4469" y2="1319.0001">
		<stop  offset="0" style="stop-color:#FFFFFF"/>
		<stop  offset="1" style="stop-color:#B3C9D4"/>
	</linearGradient>
	<path id="XMLID_21_" clip-path="url(#XMLID_33_)" fill="url(#XMLID_90_)" d="M783.2,1316.8c0,0,487.8-44.5,507.8-46.5
		s25.4-11.2,26.7-20.9c-44.1,4.1-520.5,48.9-520.5,48.9L783.2,1316.8z"/>
	<linearGradient id="XMLID_91_" gradientUnits="userSpaceOnUse" x1="976.165" y1="1098.6968" x2="976.165" y2="1301.4286">
		<stop  offset="0" style="stop-color:#FFFFFF"/>
		<stop  offset="1" style="stop-color:#B3C9D4"/>
	</linearGradient>
	<polygon id="XMLID_22_" clip-path="url(#XMLID_33_)" fill="url(#XMLID_91_)" points="634.6,1237 1093,1202.1 1317.7,1249.4 
		797.2,1298.3 	"/>
	<linearGradient id="XMLID_92_" gradientUnits="userSpaceOnUse" x1="1100.0282" y1="923.7222" x2="1060.8647" y2="1302.5636">
		<stop  offset="0" style="stop-color:#FFFFFF"/>
		<stop  offset="1" style="stop-color:#B3C9D4"/>
	</linearGradient>
	<path id="XMLID_23_" clip-path="url(#XMLID_33_)" fill="url(#XMLID_92_)" d="M1317.7,1249.4l46.8-329.8
		c1.7-11.8-7.9-22.2-19.8-21.4l-449.5,28.6c-14.5,0.9-26.6,11.5-29.5,25.8l-68.5,345.8L1317.7,1249.4z"/>
	<linearGradient id="XMLID_93_" gradientUnits="userSpaceOnUse" x1="883.5898" y1="1220.2699" x2="742.9014" y2="1267.6171">
		<stop  offset="0" style="stop-color:#1C54AC"/>
		<stop  offset="1" style="stop-color:#00346C"/>
	</linearGradient>
	<polygon id="XMLID_24_" clip-path="url(#XMLID_33_)" fill="url(#XMLID_93_)" points="801.5,1276.9 710.7,1249.4 808.3,1242.3 	"/>
	<path id="XMLID_26_" clip-path="url(#XMLID_33_)" fill="#FFFFFF" d="M1151.6,1070.6c-5.8,24-30,43.5-54,43.5s-38.8-19.5-33-43.5
		c5.8-24,30-43.5,54-43.5S1157.4,1046.5,1151.6,1070.6z"/>
</g>
</svg>
