<?xml version="1.0" encoding="utf-8"?>
<!-- Generator: Adobe Illustrator 27.5.0, SVG Export Plug-In . SVG Version: 6.00 Build 0)  -->
<svg version="1.1" xmlns="http://www.w3.org/2000/svg" xmlns:xlink="http://www.w3.org/1999/xlink" x="0px" y="0px"
	 viewBox="0 0 750 500" style="enable-background:new 0 0 750 500;" xml:space="preserve">
<g id="BACKGROUND">
	<rect y="0.313" style="fill:#FFFFFF;" width="750" height="499.375"/>
	<g>
		<path style="opacity:0.5;fill:#DDACFF;" d="M706.641,184.527C658.143,56.926,353.125,42.654,270.8,51.184
			C129.184,65.858,16.02,132.211,50.292,301.921C112.02,607.583,828.229,504.427,706.641,184.527z"/>
		<path style="fill:#DDACFF;" d="M195.56,126.373c-56.649,26.819-133.196,61.838-155.159,124.244
			c-24.167,68.668,32.271,121.91,89.475,151.847c130.628,68.364,313.649,68.962,447.966,9.922
			c139.071-61.13,179.594-212.914,50.117-307.776C493.609,6.177,331.254,62.132,195.56,126.373z"/>
	</g>
</g>
<g id="OBJECTS">
	<g>
		<g>
			<path style="fill:#21033F;" d="M352.691,455.204c-19.884-79.238-63.637-201.879-122.386-220.071
				c-69.099-21.397-127.708,13.835-106.859,82.483c8.69,28.615,25.009,68.107,45.873,102.843
				C225.729,442.758,289.061,454.167,352.691,455.204z"/>
			<g>
				<path style="fill:#310068;" d="M192.79,424.994c-0.216,0-0.427-0.108-0.55-0.306c-19.481-31.376-37.498-70.508-48.194-104.679
					c-10.238-32.708-6.901-59.533,9.397-75.534c18.776-18.433,52.718-20.718,95.575-6.433c0.339,0.113,0.522,0.479,0.409,0.818
					c-0.113,0.338-0.478,0.523-0.818,0.409c-42.372-14.123-75.848-11.946-94.26,6.129c-15.934,15.644-19.155,42.004-9.069,74.225
					c10.665,34.073,28.631,73.095,48.059,104.384c0.188,0.303,0.095,0.702-0.208,0.891
					C193.025,424.963,192.907,424.994,192.79,424.994z"/>
			</g>
			<path style="fill:#310068;" d="M390.755,454.576c-26.856-79.531-89.535-200.486-149.849-218.881
				c-71.22-21.72-105.522,10.157-84.034,79.842c10.279,33.333,30.911,81.207,57.096,119.638
				C270.105,451.206,330.887,457.521,390.755,454.576z"/>
		</g>
		<g>
			<path style="fill:#E76050;" d="M152.152,202.043c-3.445,2.788-8.973,7.74-15.439,13.759l15.509,7.473
				c3.032-3.839,5.779-7.553,8.088-11.035C167.978,200.682,155.403,199.412,152.152,202.043z"/>
			<path style="fill:#6711B1;" d="M145.073,205.993c-1.646,1.342-3.291,2.685-4.936,4.027c4.16,4.067,15.965,16.997,15.965,16.997
				c2.064-2.093,3.996-4.4,6.061-6.492C157.231,214.77,151.464,210.068,145.073,205.993z"/>
			<path style="fill:#E76050;" d="M181.491,210.294c1.089-2.483-6.184-2.21-8.363-2.126c4.5-3.319,16.567-8.029,15.389-11.046
				c-1.012-2.593-12.656,3.201-16.912,4.181c4.054-3.238,10.276-7.259,14.557-10.215c4.787-3.305,2.759-6.291-2.201-3.933
				c-5.161,2.454-9.966,5.533-15.019,8.196c3.071-3.982,6.5-7.604,9.369-11.77c3.14-4.56-0.465-4.89-3.055-2.388
				c-3.914,3.783-6.987,6.678-10.573,10.298c1.122-2.504,2.622-4.76,3.557-7.322c1.475-4.044-1.532-4.208-2.591-3.197
				c-4.395,4.194-6.252,6.946-8.857,10.882c-3.104,4.689-7.68,11.178-4.569,16.878c1.481,2.713,4.182,4.623,7.11,5.614
				c6.296,2.131,13.597,0.951,19.419-2.007C179.643,211.888,181.059,211.28,181.491,210.294z"/>
			<path style="fill:#A030FF;" d="M197.082,254.822c-16.799-0.33-51.35,5.621-72.425,9.7c14.873-14.873,36.333-40.724,36.333-40.724
				l-21.075-15.636c0,0-82.938,62.544-57.785,84.298c7.713,6.671,75.173,8.44,108.485,5.041
				C209.989,295.524,232.692,255.522,197.082,254.822z"/>
		</g>
		<g>
			<path style="fill:#E76050;" d="M240.265,172.503c4.422,0.294,11.793,1.156,20.547,2.349l-8.37,15.044
				c-4.69-1.391-9.075-2.843-12.968-4.358C226.547,180.509,236.092,172.225,240.265,172.503z"/>
			<path style="fill:#6711B1;" d="M248.682,170.826c-2.897,7.065-4.915,14.285-5.636,21.886c2.914,0.525,5.845,1.303,8.759,1.827
				l0.162-5.449c1.065-5.764,2.052-12.05,3.117-17.814C252.95,171.126,250.816,170.976,248.682,170.826z"/>
			<path style="fill:#A030FF;" d="M232.648,238.656c13.539-9.95,47.205-23.279,68.495-31.717
				c-20.778-1.155-55.565-11.564-55.565-11.564l8.215-24.923c0,0,103.824,3.327,95.801,35.6
				c-2.46,9.896-54.423,46.687-83.607,63.104C249.014,278.703,203.946,259.747,232.648,238.656z"/>
		</g>
		<g>
			<path style="fill:#21033F;" d="M426.414,451.772c-39.864-19.121-69.609-35.934-100.649-47.574l-99.426,18.894
				c1.303,5.825,3.858,11.817,7.26,17.468C295.529,455.286,362.159,458.84,426.414,451.772z"/>
			<path style="fill:#15012B;" d="M325.765,404.198l-99.426,18.894c1.303,5.825,3.858,11.817,7.26,17.468
				c13.414,3.19,27.049,5.853,40.832,8c36.267-4.92,64.59-18.191,74.121-34.899C340.923,410.224,333.383,407.055,325.765,404.198z"
				/>
			<path style="fill:#A030FF;" d="M238.163,236.304c-16.515-2.418-41.624,15.858-53.367,30.158
				c-24.854,30.264,43.326,172.655,43.326,172.655s67.898,0,119.63-28.453C334.473,378.604,289.553,243.829,238.163,236.304z"/>
			<g>
				<g>
					<g>
						<path style="fill:#FF9587;" d="M177.984,171.45l37.404,25.303c6.071,16.941,14.02,39.602,14.02,39.602l1.167,23.741
							l-32.159-11.129C198.416,248.966,185.488,199.588,177.984,171.45z"/>
						<path style="fill:#E76050;" d="M215.387,196.753c4.916,13.718,8.171,23.124,13.087,36.842
							c-10.171,3.728-30.641-5.322-36.212-14.556C176.216,192.443,215.387,196.753,215.387,196.753z"/>
					</g>
					<g>
						<polygon style="fill:#6711B1;" points="225.606,258.345 197.121,244.435 191.909,254.822 219.864,269.128 						"/>
						<polygon style="fill:#6711B1;" points="230.269,254.993 228.474,233.594 235.881,236.069 240.208,258.494 						"/>
					</g>
				</g>
				<g>
					<path style="fill:#21033F;" d="M208.772,127.823l20.2,44.329C235.031,166.163,242.129,126.761,208.772,127.823z"/>
					<path style="fill:#15012B;" d="M208.772,127.823l20.2,44.329C235.031,166.163,242.129,126.761,208.772,127.823z"/>
					<g>
						<path style="fill:#E76050;" d="M201.059,174.852l24.405-12.869c6.257-3.3,14.076-0.88,17.375,5.377
							c3.299,6.257,0.879,14.075-5.377,17.375l-25.766,13.586L201.059,174.852z"/>
					</g>
					<g>
						<path style="fill:#FF9587;" d="M206.354,197.643l-24.405,12.869c-6.257,3.299-14.076,0.879-17.375-5.378
							c-3.299-6.257-0.879-14.076,5.377-17.375l25.766-13.587L206.354,197.643z"/>
					</g>
					<g>
						<g>
							<path style="fill:#FF9587;" d="M163.611,180.873c-3.805-8.144-5.415-17.177-4.425-26.111
								c1.126-10.157,4.826-14.063,17.416-21.188c26.765-15.146,38.965-0.279,46.817,11.4c7.45,11.082,31.71,48.461,21.515,67.169
								c-8.401,15.416-33.849,15.129-49.978,9.953C182.685,218.158,170.262,195.11,163.611,180.873z"/>
						</g>
					</g>
					<g>
						<path style="fill:#E76050;" d="M215.558,201.158c-1.195,0-2.458-0.116-3.787-0.381c-0.507-0.102-0.837-0.596-0.735-1.104
							c0.102-0.507,0.595-0.834,1.104-0.735c9.081,1.819,14.964-4.289,15.022-4.351c0.355-0.377,0.949-0.395,1.325-0.039
							c0.376,0.355,0.395,0.948,0.039,1.325C228.293,196.119,223.44,201.158,215.558,201.158z"/>
					</g>
					<g>
						<path style="fill:#E76050;" d="M177.308,205.376c-0.492,0-0.905-0.383-0.935-0.881c-0.128-2.13-1.106-4.176-2.684-5.612
							c-1.577-1.437-3.706-2.223-5.837-2.148c-0.559,0.026-0.951-0.389-0.968-0.906c-0.017-0.518,0.388-0.951,0.906-0.968
							c2.631-0.084,5.227,0.874,7.163,2.636c1.935,1.763,3.136,4.272,3.293,6.885c0.031,0.517-0.363,0.962-0.879,0.993
							C177.346,205.376,177.327,205.376,177.308,205.376z"/>
					</g>
					<g>
						<path style="fill:#E76050;" d="M218.621,192.089c-0.405,0-0.779-0.265-0.899-0.674c-0.146-0.497,0.138-1.018,0.635-1.163
							c5.31-1.561,8.212-3.188,8.626-4.839c0.447-1.782-1.923-4.113-4.666-6.812c-2.885-2.838-6.154-6.054-7.646-10.032
							c-1.623-4.327-0.04-9.217,3.684-11.375c2.761-1.598,7.07-1.668,10.884,2.937c0.33,0.399,0.274,0.99-0.124,1.32
							c-0.399,0.33-0.989,0.274-1.32-0.124c-2.605-3.147-5.782-4.085-8.5-2.511c-2.5,1.449-4.355,5.128-2.868,9.094
							c1.347,3.59,4.459,6.652,7.205,9.354c3.154,3.103,5.878,5.782,5.17,8.604c-0.612,2.44-3.67,4.346-9.915,6.182
							C218.797,192.077,218.708,192.089,218.621,192.089z"/>
					</g>
					<g>
						<path style="fill:#E76050;" d="M190.621,181.912c-0.448,0-0.844-0.321-0.923-0.777c-0.977-5.631,1.416-10.777,6.094-13.11
							c4.17-2.081,8.863-1.293,11.956,2.004c0.355,0.378,0.335,0.971-0.042,1.325c-0.378,0.355-0.97,0.335-1.325-0.042
							c-2.514-2.679-6.342-3.31-9.752-1.609c-3.12,1.556-6.093,5.292-5.083,11.112c0.088,0.51-0.253,0.996-0.764,1.084
							C190.728,181.908,190.674,181.912,190.621,181.912z"/>
					</g>
					<g>
						<path style="fill:#E76050;" d="M202.224,183.644c-0.165,0-0.331-0.004-0.5-0.014c-0.689-0.038-1.217-0.627-1.18-1.316
							c0.037-0.689,0.607-1.231,1.316-1.18c1.264,0.067,3.519-0.169,4.472-2.546c0.257-0.641,0.983-0.951,1.626-0.695
							c0.641,0.257,0.952,0.985,0.695,1.625C207.607,182.127,205.225,183.644,202.224,183.644z"/>
					</g>
					<g>
						<path style="fill:#E76050;" d="M222.513,174.242c-0.165,0-0.332-0.004-0.5-0.014c-0.689-0.038-1.217-0.627-1.18-1.316
							c0.037-0.689,0.607-1.233,1.316-1.18c1.261,0.069,3.52-0.17,4.472-2.546c0.257-0.641,0.983-0.951,1.626-0.695
							c0.641,0.257,0.952,0.984,0.695,1.626C227.896,172.725,225.514,174.242,222.513,174.242z"/>
					</g>
					<g>
						<path style="fill:#21033F;" d="M177.904,155.169c-3.249-2.556-7.165-3.453-10.635-3.159
							c-13.134,1.114-16.008,17.304-12.432,27.994c3.16,9.444,16.042,19.09,24.749,10.697c6.278-6.051,0.344-14.814-3.984-20.249
							c3.572,1.632,7.138-0.841,7.533-4.589C183.531,162.117,181.153,157.725,177.904,155.169z"/>
						<path style="fill:#21033F;" d="M157.715,157.761c7.282,10.773,69.988-24.357,66.806-37.926
							C221.339,106.265,129.882,116.585,157.715,157.761z"/>
						<path style="fill:#21033F;" d="M159.531,152.254c-0.104,13.003,36.273,10.324,43.493-1.597
							C210.243,138.735,159.625,140.536,159.531,152.254z"/>
					</g>
					<g style="opacity:0.75;">
						<path style="fill:#15012B;" d="M158.587,170.63c-2.389-7.142-1.893-16.733,2.612-22.649
							c-3.906-5.917-5.335-11.189-4.919-15.84c-4.928,6.521-5.648,14.888,1.169,25.215c-4.505,5.916-5.001,15.507-2.612,22.649
							c3.16,9.444,16.042,19.09,24.749,10.697c2.56-2.467,3.089-5.385,2.524-8.345C173.465,188.823,161.602,179.641,158.587,170.63z
							"/>
					</g>
				</g>
			</g>
		</g>
		<g>
			<path style="opacity:0.25;fill:#21033F;" d="M192.639,286.516c-38.083,7.878-78.26,5.185-115.025-7.451
				c-0.802,5.246,0.429,9.859,4.517,13.394c6.961,6.021,62.593,8.048,97.86,5.887c5.765,52.29,48.13,140.77,48.13,140.77
				s5.127,0.86,5.478,1.443c29.124,6.926,59.288,11.379,89.755,13.419C244.934,410.018,215.835,354.406,192.639,286.516z"/>
			<path style="opacity:0.25;fill:#21033F;" d="M278.849,314.269c-20.93,2.572-42.199,2.368-63.076-0.604
				C235.495,322.031,258.986,322.294,278.849,314.269z"/>
		</g>
		<g>
			<g>
				<g>
					<path style="fill:#FF0044;" d="M264.3,125.702v6.319h-18.053v-4.513l8.53-11.734h-8.079v-6.319h17.15v4.513l-8.53,11.734H264.3
						z"/>
				</g>
				<g>
					<path style="fill:#FF0044;" d="M294.561,92.871l-0.042,11.192l-31.976-0.121l0.03-7.994l15.188-20.727l-14.31-0.054
						l0.043-11.192l30.377,0.115l-0.03,7.994L278.654,92.81L294.561,92.871z"/>
				</g>
			</g>
		</g>
	</g>
	<g>
		<g style="opacity:0.25;">
			<g>
				
					<ellipse transform="matrix(0.9954 -0.0954 0.0954 0.9954 -9.0806 36.5515)" style="fill:#21033F;" cx="377.541" cy="113.197" rx="60.507" ry="68.21"/>
			</g>
		</g>
		<g>
			<g>
				<circle style="fill:#A030FF;" cx="374.911" cy="105.894" r="60.507"/>
			</g>
		</g>
		<g>
			<path style="opacity:0.25;fill:#21033F;" d="M399.434,147.967c-39.523,0-72.542-27.828-80.545-64.958
				c-2.888,7.06-4.484,14.786-4.484,22.885c0,33.417,27.09,60.507,60.507,60.507c18.45,0,34.965-8.263,46.063-21.284
				C414.107,146.971,406.887,147.967,399.434,147.967z"/>
		</g>
		<g>
			<g>
				<path style="fill:#310068;" d="M374.911,169.26c-34.941,0-63.367-28.426-63.367-63.367s28.426-63.367,63.367-63.367
					c34.94,0,63.366,28.426,63.366,63.367S409.851,169.26,374.911,169.26z M374.911,48.247c-31.787,0-57.647,25.86-57.647,57.647
					s25.861,57.647,57.647,57.647s57.646-25.86,57.646-57.647S406.697,48.247,374.911,48.247z"/>
			</g>
		</g>
		<g>
			<rect x="373.591" y="51.207" style="fill:#6711B1;" width="2.64" height="7.04"/>
			<rect x="372.468" y="153.834" style="fill:#6711B1;" width="2.64" height="7.04"/>
			<rect x="320.059" y="104.739" style="fill:#6711B1;" width="7.04" height="2.64"/>
			<rect x="422.722" y="104.739" style="fill:#6711B1;" width="7.04" height="2.64"/>
			
				<rect x="337.294" y="66.242" transform="matrix(0.7071 -0.7071 0.7071 0.7071 49.8431 259.8604)" style="fill:#6711B1;" width="2.64" height="7.04"/>
			
				<rect x="409.888" y="138.836" transform="matrix(0.7071 -0.7071 0.7071 0.7071 19.7737 332.4507)" style="fill:#6711B1;" width="2.64" height="7.04"/>
			
				<rect x="335.094" y="141.036" transform="matrix(0.7071 -0.7071 0.7071 0.7071 -1.479 281.1404)" style="fill:#6711B1;" width="7.04" height="2.64"/>
			
				<rect x="407.688" y="68.442" transform="matrix(0.7071 -0.7071 0.7071 0.7071 71.1044 311.1912)" style="fill:#6711B1;" width="7.04" height="2.64"/>
		</g>
		<g>
			<g>
				<path style="fill:#FFFFFF;" d="M378.225,109.08l19.978,32.823c0.408,0.67,0.195,1.544-0.475,1.952
					c-0.67,0.408-1.544,0.195-1.952-0.475l-19.978-32.823c-1.606,0.304-3.304-0.387-4.204-1.866
					c-1.161-1.907-0.556-4.393,1.351-5.553c1.907-1.16,4.393-0.556,5.553,1.351C379.399,105.968,379.233,107.793,378.225,109.08z"/>
			</g>
		</g>
		<g>
			<g>
				<path style="fill:#FFFFFF;" d="M375.691,102.689l12.434-21.947c0.387-0.683,1.253-0.923,1.936-0.536
					c0.682,0.387,0.922,1.254,0.536,1.936l-12.434,21.947c1.048,1.255,1.271,3.074,0.417,4.58c-1.1,1.942-3.566,2.624-5.508,1.524
					c-1.942-1.1-2.624-3.567-1.524-5.508C372.401,103.179,374.076,102.435,375.691,102.689z"/>
			</g>
		</g>
	</g>
	<g>
		<g>
			<g>
				<rect x="565.466" y="226.768" style="fill:#FFFFFF;" width="97.488" height="55.868"/>
				<polygon style="fill:#A030FF;" points="662.954,280.207 614.513,238.465 565.466,280.654 565.466,282.421 565.651,282.636 
					568.489,282.636 614.511,243.049 660.451,282.636 662.954,282.636 				"/>
				<polygon style="fill:#CC85FF;" points="614.167,261.704 565.466,226.768 662.954,226.768 				"/>
			</g>
			<g>
				
					<ellipse transform="matrix(0.1527 -0.9883 0.9883 0.1527 339.5117 849.2615)" style="fill:#FF0044;" cx="665.026" cy="226.635" rx="19.974" ry="19.974"/>
				
					<text transform="matrix(1 0 0 1 655.5195 238.5503)" style="fill:#FFFFFF; font-family:'Gilroy-ExtraBold'; font-size:32.8525px;">5</text>
			</g>
		</g>
		<g>
			<rect x="554.559" y="138.825" style="fill:#FF0044;" width="75.196" height="54.556"/>
			<polygon style="fill:#FF0044;" points="578.828,213.177 578.828,175.567 605.486,175.567 			"/>
			<g>
				
					<text transform="matrix(1 0 0 1 580.4707 180.1597)" style="fill:#FFFFFF; font-family:'Gilroy-ExtraBold'; font-size:41.7069px;">?</text>
			</g>
		</g>
		<g>
			
				<rect x="326.25" y="310.173" transform="matrix(-1 -1.224647e-16 1.224647e-16 -1 710.9882 650.9028)" style="fill:#FF0044;" width="58.488" height="30.556"/>
			<polygon style="fill:#FF0044;" points="374.89,352.652 374.89,331.587 359.959,331.587 			"/>
			<g>
				<g>
					<path style="fill:#FFFFFF;" d="M374.89,326.892h-38.792c-0.795,0-1.44-0.646-1.44-1.44s0.645-1.44,1.44-1.44h38.792
						c0.795,0,1.44,0.646,1.44,1.44S375.685,326.892,374.89,326.892z"/>
				</g>
				<g>
					<path style="fill:#FFFFFF;" d="M359.373,319.495h-23.618c-0.795,0-1.44-0.645-1.44-1.44c0-0.795,0.645-1.44,1.44-1.44h23.618
						c0.796,0,1.44,0.646,1.44,1.44C360.813,318.85,360.168,319.495,359.373,319.495z"/>
				</g>
				<g>
					<path style="fill:#FFFFFF;" d="M374.89,334.288h-38.792c-0.795,0-1.44-0.645-1.44-1.44c0-0.795,0.645-1.44,1.44-1.44h38.792
						c0.795,0,1.44,0.646,1.44,1.44C376.33,333.643,375.685,334.288,374.89,334.288z"/>
				</g>
			</g>
		</g>
		<g>
			<rect x="452.391" y="191.25" style="fill:#A030FF;" width="81.525" height="43.19"/>
			<polygon style="fill:#A030FF;" points="465.456,251.293 465.456,221.518 486.561,221.518 			"/>
			<g>
				<path style="fill:#FFFFFF;" d="M505.355,212.845c0,1.931,1.566,3.497,3.497,3.497c1.932,0,3.497-1.566,3.497-3.497
					c0-1.932-1.566-3.497-3.497-3.497C506.921,209.348,505.355,210.914,505.355,212.845z"/>
				<path style="fill:#FFFFFF;" d="M489.656,212.845c0,1.931,1.566,3.497,3.497,3.497c1.931,0,3.497-1.566,3.497-3.497
					c0-1.932-1.566-3.497-3.497-3.497C491.222,209.348,489.656,210.914,489.656,212.845z"/>
				<path style="fill:#FFFFFF;" d="M473.957,212.845c0,1.931,1.566,3.497,3.497,3.497c1.931,0,3.497-1.566,3.497-3.497
					c0-1.932-1.566-3.497-3.497-3.497C475.523,209.348,473.957,210.914,473.957,212.845z"/>
			</g>
		</g>
		<g>
			<polygon style="fill:#FF0044;" points="393.876,230.988 407.627,210.915 406.954,235.237 429.878,227.081 415.037,246.362 
				438.377,253.238 415.037,260.114 429.878,279.395 406.954,271.239 407.627,295.561 393.876,275.488 380.124,295.561 
				380.797,271.239 357.874,279.395 372.714,260.114 349.375,253.238 372.714,246.362 357.874,227.081 380.797,235.237 
				380.124,210.915 			"/>
			<g>
				<g>
					
						<text transform="matrix(1 0 0 1 388.2988 267.9531)" style="fill:#FFFFFF; font-family:'Gilroy-ExtraBold'; font-size:39.8341px;">!</text>
				</g>
			</g>
		</g>
		<g>
			<rect x="477.573" y="113.614" style="fill:#FFFFFF;" width="55.612" height="55.612"/>
			<rect x="477.573" y="113.614" style="fill:#CC85FF;" width="55.612" height="16.813"/>
			<g>
				
					<text transform="matrix(1 0 0 1 494.8516 161.4771)" style="fill:#FF0044; font-family:'Gilroy-ExtraBold'; font-size:36.6857px;">8</text>
			</g>
			<g>
				<g>
					<rect x="484.685" y="109.088" style="fill:#A030FF;" width="3.881" height="9.053"/>
				</g>
				<g>
					<rect x="509.689" y="109.088" style="fill:#A030FF;" width="3.881" height="9.053"/>
				</g>
				<g>
					<rect x="497.188" y="109.088" style="fill:#A030FF;" width="3.881" height="9.053"/>
				</g>
				<g>
					<rect x="522.191" y="109.088" style="fill:#A030FF;" width="3.881" height="9.053"/>
				</g>
			</g>
		</g>
		<path style="fill:#FFFFFF;" d="M635.782,331.426l-6.361-0.059c-0.469-2.249-1.328-4.431-2.589-6.437l4.534-4.451
			c0.309-0.304,0.313-0.801,0.01-1.109l-4.83-4.92c-0.304-0.309-0.8-0.314-1.109-0.01l-4.534,4.451
			c-1.983-1.298-4.149-2.197-6.389-2.708l0.059-6.36c0.004-0.433-0.344-0.788-0.777-0.792l-6.895-0.064
			c-0.433-0.004-0.787,0.344-0.792,0.777l-0.058,6.36c-2.249,0.47-4.431,1.328-6.438,2.59l-4.391-4.472
			c-0.303-0.309-0.8-0.313-1.109-0.01l-4.92,4.83c-0.309,0.303-0.314,0.8-0.011,1.109l4.391,4.472
			c-1.298,1.983-2.197,4.149-2.708,6.389l-6.361-0.059c-0.433-0.004-0.787,0.344-0.792,0.777l-0.063,6.894
			c-0.004,0.433,0.344,0.788,0.777,0.792l6.36,0.059c0.47,2.249,1.329,4.431,2.59,6.438l-4.534,4.451
			c-0.309,0.303-0.313,0.8-0.01,1.109l4.83,4.92c0.303,0.309,0.8,0.314,1.109,0.011l4.534-4.451
			c1.983,1.298,4.149,2.197,6.389,2.708l-0.059,6.36c-0.004,0.433,0.344,0.787,0.777,0.792l6.894,0.063
			c0.434,0.004,0.788-0.344,0.792-0.777l0.059-6.36c2.249-0.469,4.43-1.328,6.438-2.589l4.391,4.472
			c0.303,0.309,0.8,0.313,1.109,0.01l4.92-4.83c0.309-0.304,0.314-0.8,0.011-1.109l-4.391-4.472
			c1.299-1.983,2.197-4.149,2.708-6.389l6.36,0.059c0.433,0.004,0.788-0.344,0.792-0.777l0.064-6.895
			C636.563,331.784,636.215,331.43,635.782,331.426z M614.401,339.797c-2.417,2.373-6.3,2.337-8.673-0.08
			c-2.373-2.417-2.337-6.3,0.08-8.673c2.417-2.373,6.3-2.337,8.673,0.08C616.853,333.541,616.818,337.424,614.401,339.797z"/>
	</g>
	<g>
		<g>
			<polygon style="fill:#310068;" points="217.833,334.832 250.635,334.832 248.743,327.893 219.725,327.893 			"/>
			<polygon style="fill:#FFFFFF;" points="221.46,389.008 247.008,389.008 253.316,339.489 215.152,339.489 			"/>
			<polygon style="fill:#CC85FF;" points="253.537,349.516 250.403,374.118 218.065,374.118 214.931,349.516 			"/>
			
				<rect x="214.306" y="333.991" transform="matrix(-1 -1.224647e-16 1.224647e-16 -1 468.4683 674.9213)" style="fill:#21033F;" width="39.857" height="6.939"/>
			<path style="opacity:0.25;fill:#21033F;" d="M221.333,359.942c-2.702-11.582-0.809-23.033,4.398-32.049h-6.006l-1.663,6.098
				h-3.757v6.939h1.03l1.094,8.586h-1.498l3.134,24.602h1.498l1.897,14.89h21.841C232.823,383.634,224.423,373.19,221.333,359.942z"
				/>
		</g>
		<g>
			<path style="fill:#310068;" d="M127.387,396.95L127.387,396.95c0,4.32,3.502,7.822,7.822,7.822h479.582
				c4.32,0,7.822-3.502,7.822-7.822l0,0c0-4.32-3.502-7.822-7.822-7.822H135.209C130.889,389.128,127.387,392.63,127.387,396.95z"/>
			<path style="fill:#15012B;" d="M127.387,396.95L127.387,396.95c0,4.32,3.502,7.822,7.822,7.822h75.207
				c4.32,0,7.822-3.502,7.822-7.822l0,0c0-4.32-3.502-7.822-7.822-7.822h-75.207C130.889,389.128,127.387,392.63,127.387,396.95z"/>
		</g>
		<g>
			<g>
				<polygon style="fill:#1C0041;" points="559.549,374.501 403.624,374.501 429.99,270.735 585.914,270.735 				"/>
				<polygon style="fill:#1C0041;" points="325.354,378.338 323.75,389.136 395.332,389.136 397.933,374.384 				"/>
				<path style="fill:#15012B;" d="M397.834,374.384l-2.597,14.725c0.155,0.01,0.309,0.026,0.467,0.026h156.341l2.601-14.752
					H397.834z"/>
				<polygon style="fill:#310068;" points="398.016,374.501 424.381,270.735 429.99,270.735 403.624,374.501 				"/>
				
					<ellipse transform="matrix(0.7375 -0.6753 0.6753 0.7375 -88.0831 418.6165)" style="fill:#A030FF;" cx="494.464" cy="322.618" rx="15.604" ry="13.084"/>
				<path style="opacity:0.75;fill:#15012B;" d="M530.544,369.801c-52.169,0-97.424-18.229-119.923-44.913l-12.606,49.613h5.609
					h155.924l1.745-6.868C551.416,369.05,541.122,369.801,530.544,369.801z"/>
				<path style="fill:#6711B1;" d="M496.984,308.329c-0.62,0-1.238,0.044-1.851,0.121c6.868,0.899,11.243,6.897,9.961,14.168
					c-1.282,7.271-7.772,13.27-14.958,14.168c0.586,0.077,1.188,0.121,1.808,0.121c7.892,0,15.417-6.397,16.808-14.289
					C510.145,314.726,504.875,308.329,496.984,308.329z"/>
			</g>
		</g>
	</g>
</g>
</svg>
