<svg xmlns="http://www.w3.org/2000/svg" xmlns:xlink="http://www.w3.org/1999/xlink" x="0" y="0" version="1.1" viewBox="0 0 500 500" style="enable-background:new 0 0 500 500" xml:space="preserve"><g id="Background_Simple"><g><path style="fill:#92e3a9" d="M209.769,428.927c-119.602-20.913-103.598-82.793-141.24-154.213 c-37.642-71.42-42.085-100.493-4.805-161.682C101.005,51.843,181.641,17.348,256.79,68.56 c75.149,51.211,130.048,35.331,175.46,75.219c45.412,39.888,51.564,95.574-2.327,145.18S357.245,454.713,209.769,428.927z"/><path style="opacity:.7;fill:#fff" d="M209.769,428.927c-119.602-20.913-103.598-82.793-141.24-154.213 c-37.642-71.42-42.085-100.493-4.805-161.682C101.005,51.843,181.641,17.348,256.79,68.56 c75.149,51.211,130.048,35.331,175.46,75.219c45.412,39.888,51.564,95.574-2.327,145.18S357.245,454.713,209.769,428.927z"/></g></g><g id="Window"><g><polyline style="fill:none;stroke:#263238;stroke-linecap:round;stroke-linejoin:round;stroke-miterlimit:10" points="64.285 266.919 64.285 92.474 79.116 92.474"/><line style="fill:none;stroke:#263238;stroke-linecap:round;stroke-linejoin:round;stroke-miterlimit:10" x1="64.285" x2="64.285" y1="295.44" y2="289.077"/><polyline style="fill:none;stroke:#263238;stroke-linecap:round;stroke-linejoin:round;stroke-miterlimit:10" points="117.268 92.474 270.33 92.474 270.33 317.768 64.285 317.768"/><line style="fill:none;stroke:#263238;stroke-linecap:round;stroke-linejoin:round;stroke-miterlimit:10" x1="98.5" x2="111.951" y1="92.474" y2="92.474"/><rect x="72.033" y="100.206" style="fill:none;stroke:#263238;stroke-linecap:round;stroke-linejoin:round;stroke-miterlimit:10" width="190.549" height="209.83"/><polyline style="fill:none;stroke:#263238;stroke-linecap:round;stroke-linejoin:round;stroke-miterlimit:10" points="253.72 114.934 253.72 196.545 80.895 196.545 80.895 189.098"/><polyline style="fill:none;stroke:#263238;stroke-linecap:round;stroke-linejoin:round;stroke-miterlimit:10" points="80.895 171.639 80.895 108.313 253.72 108.313"/><line style="fill:none;stroke:#263238;stroke-linecap:round;stroke-linejoin:round;stroke-miterlimit:10" x1="80.895" x2="80.895" y1="183.373" y2="176.134"/><line style="fill:none;stroke:#263238;stroke-linecap:round;stroke-linejoin:round;stroke-miterlimit:10" x1="224.537" x2="262.582" y1="205.121" y2="205.121"/><line style="fill:none;stroke:#263238;stroke-linecap:round;stroke-linejoin:round;stroke-miterlimit:10" x1="211.007" x2="216.39" y1="205.121" y2="205.121"/><line style="fill:none;stroke:#263238;stroke-linecap:round;stroke-linejoin:round;stroke-miterlimit:10" x1="72.033" x2="204.579" y1="205.121" y2="205.121"/><polyline style="fill:none;stroke:#263238;stroke-linecap:round;stroke-linejoin:round;stroke-miterlimit:10" points="157.731 196.545 157.731 192.615 173.665 192.615 173.665 194.85 167.308 194.85 167.308 196.545"/><path style="fill:none;stroke:#263238;stroke-linecap:round;stroke-linejoin:round;stroke-miterlimit:10" d="M72.362,275.446 c0,0,2.641,1.999,4.5,14.106c0,0,3.2-19.332,7.078-19.635c3.879-0.302,3.087,12.579,3.087,12.579s0.647-6.347,3.686-6.053 c3.039,0.293,0,13.109,0,13.109s3.642-9.989,7.099-9.82c3.457,0.169-2.294,18.104-2.294,18.104s8.86-6.413,12.448-3.273 c3.589,3.14-1.994,11.052-1.994,11.052s12.704-2.754,14.682,4.699"/><path style="fill:none;stroke:#263238;stroke-linecap:round;stroke-linejoin:round;stroke-miterlimit:10" d="M120.654,303.09 c0,0,5.538-3.628,9.89-1.936c0,0-2.769-4.222,0-6.804c2.769-2.581,6.33,6.804,6.33,6.804s0.396-15.715,5.934-14.924 s0,14.924,0,14.924s9.89-8.769,12.264-5.714c2.374,3.054-1.582,7.65-1.582,7.65s5.932-1.896,10.285,2.525 c0,0,6.631-6.764,13.997-7.733c0,0-4.897-14.223-2.524-17.091c2.374-2.868,6.687,12.412,6.687,12.412s1.883-9.938,8.071-10.707 c0,0-5.15-2.802-3.624-7.051c1.526-4.248,8.647,0.997,8.647,0.997s-2.924-7.472,1.703-9.524c4.627-2.052,6.559,6.255,6.559,6.255 s1.289-8.702,6.731-8.222c5.398,0.476,3.677,10.494,3.677,10.494s5.133-7.96,7.881-7.149c5.492,1.621,3.824,14.2,3.824,14.2 s7.665-5.327,9.64-2.874c2.129,2.646-7.971,9.454-7.971,9.454s7.603,0.845,12.337,5.274"/><path style="fill:none;stroke:#263238;stroke-linecap:round;stroke-linejoin:round;stroke-miterlimit:10" d="M262.582,278.319 c0,0-0.876-7.982-8.862-8.401c-7.986-0.419,2.195,17.504,2.195,17.504s-6.581-5.447-8.948-3.771 c-2.366,1.675,6.752,10.913,6.752,10.913s-4.375-4.047-8.991-2.794c-4.615,1.253,2.635,14.101,2.635,14.101 s-9.611-2.516-20.293,2.373"/></g></g><g id="Book_shelf"><g><polyline style="fill:none;stroke:#263238;stroke-linecap:round;stroke-linejoin:round;stroke-miterlimit:10" points="342.063 385.621 342.063 285.944 454.302 285.944"/><polyline style="fill:none;stroke:#263238;stroke-linecap:round;stroke-linejoin:round;stroke-miterlimit:10" points="450.224 296.254 351.09 296.254 351.09 389.1"/><polyline style="fill:none;stroke:#263238;stroke-linecap:round;stroke-linejoin:round;stroke-miterlimit:10" points="370.927 346.89 370.927 305.615 377.421 305.615 377.421 314.132 386.082 314.132 386.082 310.315 393.821 310.315 393.821 314.945 404.27 314.945 404.27 305.615 414.956 305.615 414.956 311.884 420.719 311.884 420.719 308.243 431.044 308.243 431.044 332.548"/><line style="fill:none;stroke:#263238;stroke-linecap:round;stroke-linejoin:round;stroke-miterlimit:10" x1="420.719" x2="420.719" y1="311.884" y2="346.89"/><line style="fill:none;stroke:#263238;stroke-linecap:round;stroke-linejoin:round;stroke-miterlimit:10" x1="415.788" x2="415.788" y1="317.115" y2="323.37"/><line style="fill:none;stroke:#263238;stroke-linecap:round;stroke-linejoin:round;stroke-miterlimit:10" x1="415.788" x2="415.788" y1="327.853" y2="353.517"/><line style="fill:none;stroke:#263238;stroke-linecap:round;stroke-linejoin:round;stroke-miterlimit:10" x1="404.27" x2="404.27" y1="314.945" y2="338.009"/><line style="fill:none;stroke:#263238;stroke-linecap:round;stroke-linejoin:round;stroke-miterlimit:10" x1="404.674" x2="404.674" y1="345.607" y2="352.787"/><line style="fill:none;stroke:#263238;stroke-linecap:round;stroke-linejoin:round;stroke-miterlimit:10" x1="393.821" x2="393.821" y1="314.945" y2="327.853"/><line style="fill:none;stroke:#263238;stroke-linecap:round;stroke-linejoin:round;stroke-miterlimit:10" x1="393.821" x2="393.821" y1="335.783" y2="362.959"/><line style="fill:none;stroke:#263238;stroke-linecap:round;stroke-linejoin:round;stroke-miterlimit:10" x1="386.082" x2="386.082" y1="314.132" y2="346.168"/><line style="fill:none;stroke:#263238;stroke-linecap:round;stroke-linejoin:round;stroke-miterlimit:10" x1="377.421" x2="377.421" y1="314.132" y2="326.253"/><line style="fill:none;stroke:#263238;stroke-linecap:round;stroke-linejoin:round;stroke-miterlimit:10" x1="377.421" x2="377.421" y1="332.548" y2="361.36"/><line style="fill:none;stroke:#263238;stroke-linecap:round;stroke-linejoin:round;stroke-miterlimit:10" x1="370.927" x2="370.927" y1="352.787" y2="365.798"/><line style="fill:none;stroke:#263238;stroke-linecap:round;stroke-linejoin:round;stroke-miterlimit:10" x1="357.541" x2="436.319" y1="365.798" y2="365.798"/><line style="fill:none;stroke:#263238;stroke-linecap:round;stroke-linejoin:round;stroke-miterlimit:10" x1="420.719" x2="420.719" y1="365.798" y2="357.474"/><line style="fill:none;stroke:#263238;stroke-linecap:round;stroke-linejoin:round;stroke-miterlimit:10" x1="404.674" x2="404.674" y1="359.673" y2="365.413"/><line style="fill:none;stroke:#263238;stroke-linecap:round;stroke-linejoin:round;stroke-miterlimit:10" x1="431.922" x2="439.557" y1="318.928" y2="318.928"/><line style="fill:none;stroke:#263238;stroke-linecap:round;stroke-linejoin:round;stroke-miterlimit:10" x1="357.84" x2="431.044" y1="373.063" y2="373.063"/><polyline style="fill:none;stroke:#263238;stroke-linecap:round;stroke-linejoin:round;stroke-miterlimit:10" points="373.549 394.225 373.549 384.533 387.109 384.533 387.109 390.781 398.017 390.781 398.017 402.967 404.27 402.967 404.27 384.904 418.121 384.904 418.121 389.1 426.626 389.1"/><line style="fill:none;stroke:#263238;stroke-linecap:round;stroke-linejoin:round;stroke-miterlimit:10" x1="418.121" x2="418.121" y1="389.1" y2="399.503"/><line style="fill:none;stroke:#263238;stroke-linecap:round;stroke-linejoin:round;stroke-miterlimit:10" x1="404.674" x2="404.674" y1="407.366" y2="414.366"/><line style="fill:none;stroke:#263238;stroke-linecap:round;stroke-linejoin:round;stroke-miterlimit:10" x1="398.017" x2="398.017" y1="402.967" y2="412.194"/><line style="fill:none;stroke:#263238;stroke-linecap:round;stroke-linejoin:round;stroke-miterlimit:10" x1="387.109" x2="387.109" y1="390.781" y2="396.074"/></g></g><g id="Screen"><g><rect x="210.923" y="73.17" style="fill:#92e3a9;stroke:#263238;stroke-linecap:round;stroke-linejoin:round;stroke-miterlimit:10" width="239.637" height="165.566"/><rect x="210.923" y="73.17" style="fill:#263238" width="239.637" height="16.369"/><g><g><path style="fill:#fff;stroke:#263238;stroke-linecap:round;stroke-linejoin:round;stroke-miterlimit:10" d="M307.992,186.688l-5.627-7.819c0,0-0.041-4.162-0.249-4.889c-0.208-0.727-3.62-6.102-3.694-7.375 c-0.074-1.273-0.235-1.796-0.235-1.796s-1.749,0.44-1.722,1.509c0.027,1.069,0.203,4.684,0.203,4.684s-4.56-2.664-5.064-3.367 c-0.503-0.703-6.071-4.772-6.597-5.384c-0.526-0.612-2.641-0.648-2.889-0.033l0.299,0.749l-1.748,0.826l1.175,3.475 c0,0-0.787,2.028-0.603,2.459c0.184,0.431,0.809,2.999,0.809,2.999s-0.385,0.388-0.333,1.753 c0.051,1.364,7.519,8.314,8.978,9.058c1.459,0.744,5.421,1.909,5.421,1.909l4.689,6.075L307.992,186.688z"/><path style="fill:none;stroke:#263238;stroke-linecap:round;stroke-linejoin:round;stroke-miterlimit:10" d="M296.667,171.002 c0,0-1.462,3.055-0.632,6.314"/><path style="fill:none;stroke:#263238;stroke-linecap:round;stroke-linejoin:round;stroke-miterlimit:10" d="M282.417,162.969 c1.515,0.584,3.405,3.399,4.277,4.27c0.872,0.872,2.513,1.933,2.513,1.933"/><path style="fill:none;stroke:#263238;stroke-linecap:round;stroke-linejoin:round;stroke-miterlimit:10" d="M281.845,167.27 c1.239-0.259,2.073,0.217,2.046,1.433c-0.027,1.215,2.646,3.05,2.646,3.05"/><path style="fill:none;stroke:#263238;stroke-linecap:round;stroke-linejoin:round;stroke-miterlimit:10" d="M282.051,172.727 c0,0,0.871-1.547,1.556-0.836c0.685,0.711,0.917,2.533,2.182,2.911"/></g><path style="fill:#757575;stroke:#263238;stroke-linecap:round;stroke-linejoin:round;stroke-miterlimit:10" d="M381.078,178.191c0,0-19.723,1.215-24.078,3.006c-3.575,1.471-28.681,18-28.681,18s-14.768-11.136-19.054-14.961 c-0.512-0.457-2.637-0.755-2.637-0.755l-2.243-1.509l-5.537,7.787l1.551,2.15c0,0,0.253,3.469,0.944,4.337 c9.176,11.53,26.763,27.676,29.4,29.259c2.637,1.582,26.06-12.264,26.06-12.264l4.352,25.494h69.89 c0,0-0.184-44.747-3.125-48.175c-2.941-3.428-36.638-16.879-36.638-16.879L381.078,178.191z"/><path style="fill:#fff;stroke:#263238;stroke-linecap:round;stroke-linejoin:round;stroke-miterlimit:10" d="M404.674,162.038c0,0-6.259,4.205-2.948,17.623c0,0-9.425,6.742-18.751-0.065c0,0,2.15-10.697-0.005-12.842"/><path style="fill:none;stroke:#263238;stroke-linecap:round;stroke-linejoin:round;stroke-miterlimit:10" d="M426.626,192.67 c0,0-8.506,9.789-9.495,26.554"/><g><path style="fill:#263238" d="M389.181,135.109c0,0-5.585-0.84-7.535,6.029c-1.951,6.869,1.292,12.526,1.292,12.526 l10.259-9.681L389.181,135.109z"/><path style="fill:#fff;stroke:#263238;stroke-linecap:round;stroke-linejoin:round;stroke-miterlimit:10" d="M402.755,166.079c7.192-8.581,12.277-22.877,1.473-28.589c-20.84-11.019-27.729,10.49-24.216,30.552 c1.08,6.168,9.453,3.417,15.592,1.183"/><path style="fill:none;stroke:#263238;stroke-linecap:round;stroke-linejoin:round;stroke-miterlimit:10" d="M388.205,147.43 c0,0,3.432,0.929,4.308,2.771"/><path style="fill:none;stroke:#263238;stroke-linecap:round;stroke-linejoin:round;stroke-miterlimit:10" d="M383.219,146.523 c0,0-1.332-0.712-2.584,0.133"/><path style="fill:#263238" d="M388.139,152.167c-0.06,0.616,0.21,1.147,0.603,1.185c0.393,0.038,0.76-0.43,0.82-1.047 c0.06-0.616-0.21-1.147-0.603-1.185C388.566,151.082,388.199,151.551,388.139,152.167z"/><path style="fill:#263238" d="M380.685,150.325c-0.06,0.616,0.21,1.147,0.603,1.185c0.393,0.038,0.76-0.431,0.82-1.047 c0.06-0.616-0.21-1.147-0.603-1.185C381.112,149.24,380.745,149.709,380.685,150.325z"/><path style="fill:#263238" d="M399.554,156.179c0,0-3.229,4.679-5.408,6.18c-2.178,1.501-4.724,0.938-4.724,0.938 s-2.768-3.415-6.811-3.466c0,0-1.971-1.243-3.469-1.188l0.227-5.226c0,0-3.068,11.197-2.774,15.2 c0.294,4.004,10.142,6.792,15.08,5.67c4.939-1.123,7.433-8.788,8.931-16.022C400.725,157.693,399.554,156.179,399.554,156.179z"/><path style="fill:none;stroke:#fff;stroke-linecap:round;stroke-linejoin:round;stroke-miterlimit:10" d="M379.745,162.408 c0,0,3.897,1.873,7.363,1.432"/><path style="fill:#263238" d="M402.782,141.925c1.274-1.043-2.026-5.309-3.843-5.215c-1.817,0.094-10.868,0.429-10.868,0.429 s-1.902-9.937,13.3-4.569c2.491,0.88,3.29,3.214,5.52,4.4c2.23,1.186,5.244,7.452,4.392,12.789 c-0.852,5.337-3.711,14.714-8.879,17.525c0,0-1.786-0.188-0.701-1.411c5.084-5.729-0.246-16.515-1.097-7.607l-1.79-1.061 c0,0-0.086-0.462,0.301-2.911C399.503,151.843,396.788,146.833,402.782,141.925z"/><path style="fill:#fff;stroke:#263238;stroke-linecap:round;stroke-linejoin:round;stroke-miterlimit:10" d="M401.95,155.535c0,0,3.27-3.885,5.247-2.563c1.977,1.322,0.656,5.989-0.41,7.172c-1.067,1.183-1.918,1.426-3.387,3.299 c-1.47,1.872-3.32,1.238-3.051-0.264"/><path style="fill:none;stroke:#263238;stroke-width:.5;stroke-miterlimit:10" d="M391.982,152.672 c0.112,2.17-1.212,4.002-2.958,4.093c-1.746,0.09-3.251-1.596-3.364-3.766c-0.112-2.17,1.212-4.002,2.958-4.093 C390.364,148.816,391.869,150.502,391.982,152.672z"/><path style="fill:none;stroke:#263238;stroke-width:.5;stroke-miterlimit:10" d="M382.785,150.704 c0.112,2.17-1.212,4.002-2.958,4.093c-1.746,0.09-3.251-1.596-3.364-3.766c-0.112-2.17,1.212-4.002,2.958-4.093 C381.167,146.848,382.672,148.534,382.785,150.704z"/><path style="fill:#fff;stroke:#263238;stroke-linecap:round;stroke-linejoin:round;stroke-miterlimit:10" d="M383.73,148.84 c0.05,0.974-5.175,6.905-5.238,8.21c-0.063,1.305,4.822,1.378,4.822,1.378"/><path style="fill:none;stroke:#263238;stroke-width:.5;stroke-miterlimit:10" d="M382.785,150.704 c0,0,1.549-0.395,2.845,1.699"/><polyline style="fill:none;stroke:#263238;stroke-width:.5;stroke-miterlimit:10" points="392.021 153.43 393.698 153.684 403.126 154.343"/></g><g><path style="fill:#fff;stroke:#263238;stroke-linecap:round;stroke-linejoin:round;stroke-miterlimit:10" d="M420.719,197.98l-1.876-2.331c0,0-15.805,1.836-22.877,11.272c0,0-13.021-6.146-24.695-3.154l-0.345,4.191l25.595,15.309 l10.018-4.16L420.719,197.98z"/><g><defs><path id="XMLID_1015_" d="M423.288,196.59l-2.698,17.986c0,0-14.899,6.546-18.012,11.804l-0.735,0.104l-3.502,0.484 c0,0-0.718-0.216-1.894-0.553c-3.026-0.856-9.114-2.473-14.095-3.087c-1.894-0.251-3.632-0.337-4.981-0.19l-10.083-15.712 c0,0,15.591-2.153,26.374,1.539l5.154-0.363c0,0,0.061-0.052,0.19-0.164C400.546,207.183,411.407,198.553,423.288,196.59z"/></defs><use xlink:href="#XMLID_1015_" style="overflow:visible;fill:#92e3a9"/><clipPath id="XMLID_00000000938834735606638900000011850222199891819451_"><use xlink:href="#XMLID_1015_" style="overflow:visible"/></clipPath><path style="opacity:.3;clip-path:url(#XMLID_00000000938834735606638900000011850222199891819451_);fill-opacity:.7" d="M401.653,222.29l-2.646-13.853c1.539-1.254,12.4-9.884,24.281-11.847l-2.698,17.986c0,0-14.899,6.546-18.012,11.804 l-0.735,0.104L401.653,222.29z"/><path style="opacity:.3;clip-path:url(#XMLID_00000000938834735606638900000011850222199891819451_);fill-opacity:.7" d="M396.525,223.267l-0.078,3.148c-3.026-0.856-9.114-2.473-14.095-3.087c1.003-11.51,11.553-13.343,11.553-13.343 L396.525,223.267z"/><use xlink:href="#XMLID_1015_" style="overflow:visible;fill:none;stroke:#263238;stroke-linecap:round;stroke-linejoin:round;stroke-miterlimit:10"/></g></g><g><path style="fill:#fff;stroke:#263238;stroke-linecap:round;stroke-linejoin:round;stroke-miterlimit:10" d="M401.586,230.778c-5.333-0.337-15.498-8.521-15.498-8.521s-1.087-2.74-2.537-4.19c-1.45-1.45,0.483-2.658,0.483-2.658 s-1.691-1.087-2.658-1.691c-0.967-0.604,0.725-2.175,0.725-2.175s7.249,0.967,7.994,0.725c0.745-0.242,7.712,4.229,8.8,4.349 c1.087,0.121,3.448-0.482,4.173-1.086c0.725-0.604,2.955-4.351,4.403-5.076s3.989-0.725,2.781,0.846 c-1.208,1.571-0.967,5.074-1.604,5.558c-0.637,0.483-1.591,5.751-1.591,7.566l7.899,7.213l-4.495,6.132L401.586,230.778z"/><path style="fill:none;stroke:#263238;stroke-linecap:round;stroke-linejoin:round;stroke-miterlimit:10" d="M384.034,215.408 c0,0,2.842,0.35,4.096,1.148"/><path style="fill:none;stroke:#263238;stroke-linecap:round;stroke-linejoin:round;stroke-miterlimit:10" d="M389.384,218.267 c0,0-0.456,1.836-0.57,2.116c-0.114,0.279,1.482,2.072,1.254,2.886c-0.228,0.814,1.636,3.035,1.636,3.035"/><path style="fill:none;stroke:#263238;stroke-linecap:round;stroke-linejoin:round;stroke-miterlimit:10" d="M387.56,220.383 c0,0-3.642-1.832-4.009-2.316"/></g><polygon style="fill:#757575;stroke:#263238;stroke-linecap:round;stroke-linejoin:round;stroke-miterlimit:10" points="383.693 174.839 387.149 181.809 401.368 173.926 404.499 180.913 389.985 190.122 387.206 182.908 381.56 188.337 379.652 179.564"/><path style="fill:#757575;stroke:#263238;stroke-linecap:round;stroke-linejoin:round;stroke-miterlimit:10" d="M427.919,190.56 c3.455,3.692,15.719,30.746,16.905,48.175H407.44v-1.56l-4.08-2.384c0,0,2.534-8.898,9.735-7.51l2.104,3.035l4.648,3.503 c0,0,8.164,0.213,10.538,2.564"/><path style="fill:none;stroke:#263238;stroke-linecap:round;stroke-linejoin:round;stroke-miterlimit:10" d="M419.847,233.82 c0,0,4.538-6.535,11.197-3.765"/><path style="fill:none;stroke:#263238;stroke-linecap:round;stroke-linejoin:round;stroke-miterlimit:10" d="M418.121,223.268 c0,0,3.114,5.888,3.875,8.327"/><path style="fill:#757575;stroke:#263238;stroke-linecap:round;stroke-linejoin:round;stroke-miterlimit:10" d="M356.802,213.242c0,0-2.769-16.144-1.978-21.72"/><path style="fill:#757575;stroke:#263238;stroke-linecap:round;stroke-linejoin:round;stroke-miterlimit:10" d="M351.264,197.813c0,0,1.533,7.93,5.019,12.174"/><path style="fill:#757575;stroke:#263238;stroke-linecap:round;stroke-linejoin:round;stroke-miterlimit:10" d="M328.319,199.198c0,0,4.352,3.602,1.582,12.581"/><path style="fill:#263238" d="M386.493,188.615c0,0.518-0.42,0.938-0.938,0.938c-0.518,0-0.937-0.42-0.937-0.938 c0-0.518,0.42-0.938,0.937-0.938C386.073,187.678,386.493,188.098,386.493,188.615z"/><circle style="fill:#263238" cx="384.034" cy="201.444" r=".938"/><circle style="fill:#263238" cx="382.613" cy="230.309" r=".938"/><g><g><polygon style="fill:none;stroke:#263238;stroke-linecap:round;stroke-linejoin:round;stroke-miterlimit:10" points="260.942 145.476 272.724 145.476 278.615 135.272 272.724 125.068 260.942 125.068 255.051 135.272"/><polyline style="fill:none;stroke:#263238;stroke-linecap:round;stroke-linejoin:round;stroke-miterlimit:10" points="259.231 167.86 253.34 157.656 241.557 157.656"/><polygon style="fill:none;stroke:#263238;stroke-linecap:round;stroke-linejoin:round;stroke-miterlimit:10" points="243.14 135.272 254.922 135.272 260.813 125.068 254.922 114.864 243.14 114.864 237.248 125.068"/><polygon style="fill:none;stroke:#263238;stroke-linecap:round;stroke-linejoin:round;stroke-miterlimit:10" points="260.942 125.068 272.724 125.068 278.615 114.864 272.724 104.66 260.942 104.66 255.051 114.864"/><path style="fill:#263238" d="M259.231,125.068c0-0.874,0.708-1.582,1.583-1.582c0.874,0,1.582,0.708,1.582,1.582 c0,0.874-0.708,1.582-1.582,1.582C259.939,126.65,259.231,125.942,259.231,125.068z"/><circle style="fill:#263238" cx="236.21" cy="103.65" r="1.582"/><path style="fill:#263238" d="M257.648,167.86c0-0.874,0.708-1.583,1.582-1.583c0.874,0,1.583,0.708,1.583,1.583 c0,0.874-0.708,1.582-1.583,1.582C258.357,169.442,257.648,168.734,257.648,167.86z"/><circle style="fill:#263238" cx="241.557" cy="157.656" r="1.582"/><path style="fill:#263238" d="M290.01,115.133c0-0.874,0.708-1.582,1.582-1.582c0.874,0,1.582,0.709,1.582,1.582 c0,0.874-0.708,1.583-1.582,1.583C290.719,116.715,290.01,116.007,290.01,115.133z"/><circle style="fill:#263238" cx="253.219" cy="157.656" r="1.582"/><path style="fill:#263238" d="M277.033,115.133c0-0.874,0.708-1.582,1.582-1.582c0.874,0,1.582,0.709,1.582,1.582 c0,0.874-0.708,1.583-1.582,1.583C277.741,116.715,277.033,116.007,277.033,115.133z"/><path style="fill:#263238" d="M259.231,145.476c0-0.874,0.708-1.582,1.583-1.582c0.874,0,1.582,0.709,1.582,1.582 c0,0.874-0.708,1.583-1.582,1.583C259.939,147.058,259.231,146.35,259.231,145.476z"/><line style="fill:none;stroke:#263238;stroke-linecap:round;stroke-linejoin:round;stroke-miterlimit:10" x1="278.615" x2="291.593" y1="115.133" y2="115.133"/><line style="fill:none;stroke:#263238;stroke-linecap:round;stroke-linejoin:round;stroke-miterlimit:10" x1="260.813" x2="253.219" y1="145.476" y2="157.656"/><line style="fill:none;stroke:#263238;stroke-linecap:round;stroke-linejoin:round;stroke-miterlimit:10" x1="243.14" x2="236.21" y1="114.864" y2="103.65"/></g><path style="fill:none;stroke:#263238;stroke-linecap:round;stroke-linejoin:round;stroke-miterlimit:10" d="M229.558,194.79 c1.061-0.954,2.257-1.759,3.54-2.384c0.077,0.644,0.745,1.155,1.387,1.06c0.716-0.106,1.518-0.802,2.032-0.292 c0.199,0.198,0.243,0.516,0.45,0.706c0.64,0.586,1.731-0.685,2.451-0.201c0.19,0.128,0.296,0.355,0.489,0.477 c0.287,0.182,0.66,0.081,0.988-0.01c1.764-0.486,3.621-0.477,5.451-0.465c2.799,0.019,5.598,0.037,8.398,0.056 c-0.213-0.11-0.427-0.219-0.64-0.329"/><path style="fill:none;stroke:#263238;stroke-linecap:round;stroke-linejoin:round;stroke-miterlimit:10" d="M229.111,201.789 c0.143-0.648,0.782-1.148,1.445-1.132c0.663,0.017,1.277,0.549,1.386,1.204c0.407-0.186,0.733-0.543,0.88-0.966 c0.541,1.22,2.207,1.314,3.538,1.22c1.977-0.14,3.955-0.279,5.932-0.419c1.773-0.125,3.859-0.447,4.659-2.035 c0.882,1.587,1.244,3.458,1.018,5.259c0.549-1.306,1.269-2.541,2.136-3.661c0.176,0.64,0.352,1.281,0.529,1.921 c4.13-2.886,9.78-1.016,14.781-1.633"/><path style="fill:none;stroke:#263238;stroke-linecap:round;stroke-linejoin:round;stroke-miterlimit:10" d="M229.641,211.061 c-0.052-0.366,0.223-0.747,0.586-0.814c0.118,0.76,1.091,1.125,1.825,0.895c0.734-0.23,1.268-0.851,1.759-1.443 c0.574,0.49,1.58,0.318,1.958-0.336c0.447,0.721,0.815,1.49,1.097,2.29c0.543-1.385,2.378-1.603,3.866-1.599 c4.009,0.011,8.018,0.022,12.027,0.033"/><path style="fill:none;stroke:#263238;stroke-linecap:round;stroke-linejoin:round;stroke-miterlimit:10" d="M322.403,102.215 c-2.848-0.234-5.642,0.929-8.047,2.472c-2.878,1.847-5.615,4.944-4.896,8.287c0.741,3.45,4.664,5.104,8.128,5.779 c2.981,0.581,6.023,0.85,9.06,0.802c1.17-0.019,2.348-0.085,3.484-0.37c1.162-0.291,2.254-0.804,3.338-1.313 c2.579-1.213,5.158-2.425,7.738-3.638c1.068-0.502,2.254-1.141,2.545-2.285c0.359-1.413-0.848-2.718-2.031-3.571 c-4.271-3.079-9.732-4.46-14.953-3.778"/><path style="fill:none;stroke:#263238;stroke-linecap:round;stroke-linejoin:round;stroke-miterlimit:10" d="M313.207,109.699 c0.453-0.506,1.048-0.883,1.699-1.078c-0.074,0.393-0.143,0.82,0.037,1.177c0.18,0.357,0.723,0.545,0.987,0.244 c0.217-0.249,0.331-0.783,0.626-0.636c0.12,0.27,0.241,0.539,0.361,0.809c0.491-0.174,0.87-0.577,1.349-0.784 c0.531-0.229,1.132-0.196,1.709-0.166c4.29,0.225,8.599,0.095,12.867-0.388"/><path style="fill:none;stroke:#263238;stroke-linecap:round;stroke-linejoin:round;stroke-miterlimit:10" d="M320.215,113.947 c0.118-0.409,0.443-0.752,0.845-0.891c-0.229,0.253,0.056,0.683,0.392,0.739s0.664-0.107,0.991-0.205 c0.374-0.111,0.766-0.139,1.155-0.165c2.432-0.165,4.864-0.33,7.296-0.495"/><path style="fill:none;stroke:#263238;stroke-linecap:round;stroke-linejoin:round;stroke-miterlimit:10" d="M323.32,124.16 c-2.091,7.458-6.527,14.239-12.522,19.144c-5.995,4.905-13.521,7.909-21.245,8.482"/><path style="fill:none;stroke:#263238;stroke-linecap:round;stroke-linejoin:round;stroke-miterlimit:10" d="M289.668,149.624 c-1.412,0.868-2.678,1.973-3.729,3.255c1.242-0.28,2.625,0.219,3.404,1.226"/><path style="fill:none;stroke:#263238;stroke-linecap:round;stroke-linejoin:round;stroke-miterlimit:10" d="M320.924,151.96 c0.303,0.669,0.606,1.339,0.908,2.008c0.434-0.512,0.867-1.024,1.301-1.536c0.264,0.14,0.371,0.455,0.471,0.737 c0.1,0.282,0.25,0.591,0.538,0.673s0.63-0.3,0.415-0.508c0.367,0.249,0.845,0.327,1.272,0.207 c0.187-0.053,0.363-0.141,0.551-0.189c0.224-0.058,0.459-0.058,0.691-0.057c4.503,0.007,9.006,0.014,13.509,0.021"/><path style="fill:none;stroke:#263238;stroke-linecap:round;stroke-linejoin:round;stroke-miterlimit:10" d="M321.549,163.025 c0.116-0.74,1.331-0.948,1.686-0.288c0.065,0.121,0.105,0.261,0.204,0.356c0.211,0.203,0.575,0.098,0.791-0.1 c0.216-0.198,0.358-0.471,0.588-0.652c0.63-0.496,1.53-0.112,2.303,0.098c0.975,0.265,2.005,0.215,3.014,0.162 c2.559-0.134,5.117-0.268,7.676-0.403"/><path style="fill:none;stroke:#263238;stroke-linecap:round;stroke-linejoin:round;stroke-miterlimit:10" d="M321.791,171.503 c0.51,0.024,1.01-0.348,1.134-0.844c0.25,0.044,0.463,0.254,0.511,0.503c0.367-0.224,0.684-0.53,0.921-0.889 c4.947,0.057,9.894,0.069,14.841,0.037"/><path style="fill:none;stroke:#263238;stroke-linecap:round;stroke-linejoin:round;stroke-miterlimit:10" d="M321.785,177.853 c0.601,0.263,1.383-0.015,1.684-0.598c0.317,0.256,0.542,0.625,0.625,1.024c0.39-0.268,0.894-0.361,1.354-0.251 c0.197,0.047,0.383,0.129,0.576,0.187c0.474,0.141,0.977,0.135,1.47,0.128c5.745-0.086,11.489-0.171,17.233-0.256"/><path style="fill:none;stroke:#263238;stroke-linecap:round;stroke-linejoin:round;stroke-miterlimit:10" d="M275.491,218.275 c2.608-0.251,5.217-0.503,7.825-0.754c0.135-0.013,0.282-0.031,0.38-0.125c0.12-0.114,0.127-0.299,0.127-0.465 c-0.002-1.673-0.003-3.347-0.005-5.02c0-0.167-0.006-0.351-0.118-0.475c-0.115-0.129-0.305-0.153-0.477-0.168 c-1.704-0.147-5.532-1.003-7.001,0.15C274.707,212.608,275.496,216.568,275.491,218.275z"/><path style="fill:none;stroke:#263238;stroke-linecap:round;stroke-linejoin:round;stroke-miterlimit:10" d="M277.729,213.823 c0.098,0.471,0.195,0.942,0.293,1.412c1.186-0.245,2.409-0.308,3.613-0.187"/><path style="fill:none;stroke:#263238;stroke-linecap:round;stroke-linejoin:round;stroke-miterlimit:10" d="M281.723,220.444 c-0.363,0.429,0.105,1.221,0.656,1.109c0.53-0.107,0.947-0.816,1.438-0.59"/><path style="fill:none;stroke:#263238;stroke-linecap:round;stroke-linejoin:round;stroke-miterlimit:10" d="M276.329,208.907 c0.33-0.68,1.583-0.454,1.656,0.298c0.627-0.076,1.254-0.152,1.882-0.228"/><path style="fill:none;stroke:#263238;stroke-linecap:round;stroke-linejoin:round;stroke-miterlimit:10" d="M291.926,225.494 c2.678,0.02,5.356,0.019,8.033-0.003c2.074-0.017,4.156-0.047,6.203-0.376c0.226-0.036,0.471-0.086,0.622-0.259 c0.161-0.183,0.169-0.45,0.169-0.694c0.003-4.053,0.006-8.106,0.009-12.159c0-0.14-12.253-0.538-13.684,0.456 C290.36,214.484,291.925,222.384,291.926,225.494z"/><path style="fill:none;stroke:#263238;stroke-linecap:round;stroke-linejoin:round;stroke-miterlimit:10" d="M296.275,215.605 c0.636,0.015,1.272,0.029,1.908,0.044c-0.409,1.279-0.829,2.582-1.618,3.669c-0.257,0.354-0.567,0.793-0.375,1.187 c0.985,0.157,2.165,0.246,2.804-0.52c0.818-0.98,0.094-2.576,0.715-3.692c0.079,0.79,0.158,1.579,0.237,2.369 c0.278,0.263,0.556,0.526,0.835,0.789c0.233,0.221,0.479,0.449,0.788,0.538c0.308,0.09,0.697-0.008,0.831-0.3"/><path style="fill:none;stroke:#263238;stroke-linecap:round;stroke-linejoin:round;stroke-miterlimit:10" d="M301.83,227.528 c0.634-0.224,0.886,0.953,1.537,1.121c0.64,0.165,1.018-0.685,1.554-1.07c0.507-0.364,1.289-0.262,1.685,0.221"/><path style="fill:none;stroke:#263238;stroke-linecap:round;stroke-linejoin:round;stroke-miterlimit:10" d="M296.668,208.286 c0.599,0.158,0.366,1.154,0.815,1.581c0.465,0.442,1.197-0.021,1.706-0.411c0.509-0.391,1.444-0.589,1.626,0.026"/></g></g><rect x="210.923" y="238.507" style="fill:#bfbfbf;stroke:#263238;stroke-linecap:round;stroke-linejoin:round;stroke-miterlimit:10" width="239.637" height="16.924"/><g><rect x="249.637" y="245.167" style="fill:#263238" width="156.581" height="3.604"/><path style="fill:#92e3a9;stroke:#263238;stroke-linecap:round;stroke-linejoin:round;stroke-miterlimit:10" d="M338.442,246.969c0,1.452-1.177,2.629-2.629,2.629c-1.452,0-2.629-1.177-2.629-2.629c0-1.452,1.177-2.629,2.629-2.629 C337.265,244.34,338.442,245.517,338.442,246.969z"/><rect x="436.319" y="243.731" style="fill:none;stroke:#263238;stroke-linecap:round;stroke-linejoin:round;stroke-miterlimit:10" width="6.476" height="6.476"/><rect x="425.445" y="243.731" style="fill:none;stroke:#263238;stroke-linecap:round;stroke-linejoin:round;stroke-miterlimit:10" width="6.476" height="6.476"/><rect x="218.341" y="243.66" style="fill:none;stroke:#263238;stroke-linecap:round;stroke-linejoin:round;stroke-miterlimit:10" width="11.294" height="6.618"/></g><line style="fill:none;stroke:#fff;stroke-linecap:round;stroke-linejoin:round;stroke-miterlimit:10" x1="218.209" x2="260.813" y1="81.354" y2="81.354"/><path style="fill:none;stroke:#fff;stroke-linecap:round;stroke-linejoin:round;stroke-miterlimit:10" d="M444.487,81.201 c0,1.382-1.12,2.502-2.502,2.502c-1.382,0-2.502-1.12-2.502-2.502c0-1.382,1.12-2.502,2.502-2.502 C443.367,78.7,444.487,79.82,444.487,81.201z"/><path style="fill:none;stroke:#fff;stroke-linecap:round;stroke-linejoin:round;stroke-miterlimit:10" d="M434.601,81.354 c0,1.382-1.12,2.502-2.502,2.502c-1.382,0-2.502-1.12-2.502-2.502c0-1.382,1.12-2.502,2.502-2.502 C433.481,78.852,434.601,79.972,434.601,81.354z"/><path style="fill:none;stroke:#fff;stroke-linecap:round;stroke-linejoin:round;stroke-miterlimit:10" d="M424.714,81.506 c0,1.382-1.12,2.502-2.502,2.502c-1.382,0-2.502-1.12-2.502-2.502c0-1.382,1.12-2.502,2.502-2.502 C423.594,79.004,424.714,80.124,424.714,81.506z"/></g></g><g id="Character"><g><g><g><defs><path id="XMLID_1012_" d="M234.77,412.2h-23.68l-12.82-4.06l-4.03-1.27l-1.17,12.07L52.85,419.2c0,0,2.14-5.4,5.63-13.32 c7.53-17.09,21.33-45.95,33.4-57.74c9.8-9.57,34.28-9.84,34.28-9.84s3.93-2.76,8.43-2.54s38.52,3.91,40.63,4.97 c2.11,1.05,3.69,3.42,3.69,3.42s11.92-5.27,23.63-0.52C214.25,348.37,234.77,412.2,234.77,412.2z"/></defs><use xlink:href="#XMLID_1012_" style="overflow:visible;fill:#bfbfbf"/><clipPath id="XMLID_00000179621472806133458990000000515332656972724395_"><use xlink:href="#XMLID_1012_" style="overflow:visible"/></clipPath><path style="opacity:.2;clip-path:url(#XMLID_00000179621472806133458990000000515332656972724395_);fill-opacity:.7" d="M198.27,408.14l-4.03-1.27l-1.17,12.07L52.85,419.2c0,0,2.14-5.4,5.63-13.32c5.41-0.13,11.51-0.41,11.51-0.41l3.14-10.27 c0,0,4.93-5.21,11.09-2.14c0,0-0.78-2.61,1.59-4.19c2.38-1.58,12.14,3.49,12.14,3.49s4.7-8.96,6.3-14.89 c1.61-5.92,2.66,8.33,2.66,8.33s3.96-6.54,3.96-8.33s7.38,17.73,7.38,17.73s9.76,1.17,12.4,2.17c2.64,0.99,28.92,2.04,37.38,0 c8.47-2.04-6,9.96-6,9.96s14.86,5.01,23.26,1.72c8.39-3.3,12.16-6.79,12.16-6.79S197.83,404.73,198.27,408.14z"/><use xlink:href="#XMLID_1012_" style="overflow:visible;fill:none;stroke:#263238;stroke-linecap:round;stroke-linejoin:round;stroke-miterlimit:10"/></g><path style="fill:none;stroke:#263238;stroke-linecap:round;stroke-linejoin:round;stroke-miterlimit:10" d="M190.549,381.36 c0,0-2.316,3.535-7.086,8.106"/><path style="fill:none;stroke:#263238;stroke-linecap:round;stroke-linejoin:round;stroke-miterlimit:10" d="M176.532,395.302 c-7.995,5.913-19.499,11.872-34.741,13.743"/><g><defs><path id="XMLID_1011_" d="M220.319,391.89c0,0,3.641-2.258,6.832-1.525c3.19,0.733,5.828,3.898,5.828,3.898 s26.485-2.199,32.495-2.022c6.01,0.176,19.461,4.132,19.461,4.132s6.517-1.319,7.214-1.055 c0.698,0.264-1.412,22.462-1.412,22.462s-81.758,0-85.978,0c-4.22,0-7.349-6.109-10.514-10.914c0,0,8.298-26.126,8.298-58.731"/></defs><use xlink:href="#XMLID_1011_" style="overflow:visible;fill:#bfbfbf"/><clipPath id="XMLID_00000002347409291153899390000000576594131786431667_"><use xlink:href="#XMLID_1011_" style="overflow:visible"/></clipPath><path style="opacity:.2;clip-path:url(#XMLID_00000002347409291153899390000000576594131786431667_);fill-opacity:.7" d="M243.92,417.78h-39.16c-4.22,0-7.35-6.11-10.52-10.91c0,0,4.25-13.38,6.67-32.94c0,0,4.16,6.17,1.63,13.32l2.53-7.15 c0,0,2.43,7.66,0,14.15c-2.42,6.49-4.16,8.35-4.16,8.35s2.97,3.92,6.18,2.87c3.21-1.04,6.64,5.31,6.64,5.31s7.64,0.29,9.23,0 C223.69,410.65,233.58,414.06,243.92,417.78z"/><use xlink:href="#XMLID_1011_" style="overflow:visible;fill:none;stroke:#263238;stroke-linecap:round;stroke-linejoin:round;stroke-miterlimit:10"/></g><path style="fill:#fff;stroke:#263238;stroke-linecap:round;stroke-linejoin:round;stroke-miterlimit:10" d="M171.16,322.79 v21.36c0,0-3.65,2.55-8.4,5.09c-5.83,3.09-13.31,6.15-17.76,4.41c-8.07-3.17-13.3-15.35-13.3-15.35 c8.71-6.64,9.76-15.51,11.08-19.73L171.16,322.79z"/><path style="fill:none;stroke:#263238;stroke-linecap:round;stroke-linejoin:round;stroke-miterlimit:10" d="M127.483,339.934 c0,0,7.385,16.088,16.352,18.989c8.967,2.901,24.199-8.44,24.199-8.44"/><path style="fill:none;stroke:#263238;stroke-linecap:round;stroke-linejoin:round;stroke-miterlimit:10" d="M87.132,359.398 c0,0,13.978,10.898,16.352,14.574c2.374,3.676,0,38.226,0,38.226"/><path style="fill:#bfbfbf;stroke:#263238;stroke-linecap:round;stroke-linejoin:round;stroke-miterlimit:10" d="M68.07,394.568 c8.248-5.316,14.051,0.506,19.062,1.551c5.011,1.045,16.088-4.606,24.396,0s8.308,3.023,8.308,3.023s8.703,6.636,4.219,19.924 l-71.208,0.131c0,0-4.747-10.153,10.865-24.63"/><path style="fill:#92e3a9;stroke:#263238;stroke-linecap:round;stroke-linejoin:round;stroke-miterlimit:10" d="M137.835,373.972l18.794,34.368l0.591,3.857l-2.967-2.665l-19.385-34.126C134.868,375.407,135.758,373.626,137.835,373.972z"/><g><path style="fill:#fff;stroke:#263238;stroke-linecap:round;stroke-linejoin:round;stroke-miterlimit:10" d="M120.033,400.923c0,0,2.769-0.791,4.352-0.791c1.582,0,11.364-7.234,14.682-7.771c3.318-0.537,9.292,4.408,12.338,5.199 c3.046,0.791,2.848,4.747,4.629,6.33c1.78,1.582-0.791,3.363-2.967,1.582c0,0,0.593,2.002-0.791,3.573c0,0,0.593,2.164,0,3.153 h-35.246C117.029,412.198,116.472,405.473,120.033,400.923z"/><polyline style="fill:none;stroke:#263238;stroke-linecap:round;stroke-linejoin:round;stroke-miterlimit:10" points="153.066 405.473 149.901 402.341 141.791 399.736"/><polyline style="fill:none;stroke:#263238;stroke-linecap:round;stroke-linejoin:round;stroke-miterlimit:10" points="152.275 409.045 147.429 406.867 140.802 405.621"/><polyline style="fill:none;stroke:#263238;stroke-linecap:round;stroke-linejoin:round;stroke-miterlimit:10" points="140.802 410.781 147.429 411.078 152.275 412.198"/><path style="fill:none;stroke:#263238;stroke-linecap:round;stroke-linejoin:round;stroke-miterlimit:10" d="M139.067,392.361 c-3.012,2.628-0.045,5.397-1.429,7.375c-1.385,1.978-2.967,2.571-1.78,5.736"/></g><g><g><defs><path id="XMLID_1013_" d="M181.876,413.867h160.187l0,0c0,2.944-2.387,5.331-5.331,5.331H194.705 c-0.555,0-1.107-0.087-1.636-0.257l-11.412-3.68C180.882,415.01,181.062,413.867,181.876,413.867z"/></defs><use xlink:href="#XMLID_1013_" style="overflow:visible;fill:#92e3a9"/><clipPath id="XMLID_00000167397524245670532840000006878438960325470621_"><use xlink:href="#XMLID_1013_" style="overflow:visible"/></clipPath><path style="opacity:.2;clip-path:url(#XMLID_00000167397524245670532840000006878438960325470621_);fill-opacity:.7" d="M342.06,413.87c0,1.47-0.6,2.8-1.56,3.77c-0.05,0.05-0.11,0.1-0.16,0.14c-0.95,0.88-2.22,1.42-3.61,1.42H194.71 c-0.56,0-1.11-0.09-1.64-0.26l-11.41-3.68c-0.78-0.25-0.6-1.39,0.22-1.39H342.06z"/><path style="opacity:.2;clip-path:url(#XMLID_00000167397524245670532840000006878438960325470621_);fill-opacity:.7" d="M342.06,413.87c0,1.47-0.6,2.8-1.56,3.77c-0.05,0.05-0.11,0.1-0.16,0.14h-91.65c-2.16,0-3.92-1.75-3.92-3.91H342.06z"/><use xlink:href="#XMLID_1013_" style="overflow:visible;fill:none;stroke:#263238;stroke-linecap:round;stroke-linejoin:round;stroke-miterlimit:10"/></g><path style="fill:none;stroke:#263238;stroke-linecap:round;stroke-linejoin:round;stroke-miterlimit:10" d="M244.774,413.867 L244.774,413.867c0,2.162,1.752,3.914,3.914,3.914h15.213"/><g><defs><path id="XMLID_1014_" d="M370.73,348.12c-0.01,0.04-0.02,0.09-0.03,0.13l-18.61,64.85c-0.47,1.63-2.23,2.95-3.93,2.95h-97.1 c-1.7,0-2.7-1.32-2.24-2.95l18.62-64.85c0.47-1.63,2.22-2.95,3.93-2.95h97.1C370.12,345.3,371.12,346.55,370.73,348.12z"/></defs><use xlink:href="#XMLID_1014_" style="overflow:visible;fill:#92e3a9"/><clipPath id="XMLID_00000181089311572333737020000017793724986248161169_"><use xlink:href="#XMLID_1014_" style="overflow:visible"/></clipPath><path style="opacity:.4;clip-path:url(#XMLID_00000181089311572333737020000017793724986248161169_);fill:#fff" d="M370.73,348.12c-0.01,0.04-0.02,0.09-0.03,0.13l-18.61,64.85c-0.47,1.63-2.23,2.95-3.93,2.95H251.7 c0.01-0.04,0.02-0.09,0.03-0.13l18.61-64.85c0.47-1.63,2.23-2.95,3.93-2.95H370.73z"/><use xlink:href="#XMLID_1014_" style="overflow:visible;fill:none;stroke:#263238;stroke-linecap:round;stroke-linejoin:round;stroke-miterlimit:10"/></g><path style="fill:#fff;stroke:#263238;stroke-linecap:round;stroke-linejoin:round;stroke-miterlimit:10" d="M316.757,381.869c-1.549,3.338-5.303,5.872-8.965,5.872c-4.083,0-6.489-3.158-5.368-7.062c1.12-3.903,5.342-7.07,9.425-7.07 h0.107c-0.182,0.385-0.333,0.788-0.451,1.198C310.394,378.676,312.736,381.809,316.757,381.869z"/><path style="fill:none;stroke:#263238;stroke-linecap:round;stroke-linejoin:round;stroke-miterlimit:10" d="M252.198,412.867 l18.171-63.297c0.272-0.948,1.297-1.717,2.288-1.717h94.126"/></g><g><defs><path id="XMLID_1009_" d="M207.09,419.2H73.13l1.62-3.38c0,0,12.62,1.16,22.65-1.95c4.43-1.38,11.25-2.02,18.09-1.92 c4.31,0.06,14.8,0.1,21.31,0.07h0.01c2.32-0.01,4.14-0.03,4.98-0.06c0.33-0.02,0.66-0.02,0.98-0.02 c1.92-0.02,3.76,0.16,5.53,0.52c1.62-0.18,3.38-0.29,5.29-0.26c3.09,0.04,16.38-0.05,20,0c4.77,0.06,10.28,0.98,15.51,1.72 c0.05-0.02,0.1-0.03,0.14-0.05l0.03,0.07c6.32,0.88,12.24,1.48,15.97-0.07L207.09,419.2z"/></defs><use xlink:href="#XMLID_1009_" style="overflow:visible;fill:#fff"/><clipPath id="XMLID_00000067214824323010908560000015647933146556731327_"><use xlink:href="#XMLID_1009_" style="overflow:visible"/></clipPath><path style="opacity:.4;clip-path:url(#XMLID_00000067214824323010908560000015647933146556731327_);fill:#92e3a9" d="M207.09,419.2H103.22l2.11-3.63c0,0,5.67,3.31,11.21,0.96c5.54-2.34,11.12-3.5,20.26-4.51h0.01c2.05-0.23,4.07-0.22,5.96-0.08 c6.55,0.49,11.61,2.64,11.61,2.64s5.45-2.38,19.21-2.38c4.77,0.06,10.28,0.98,15.51,1.72c0.05-0.02,0.1-0.03,0.14-0.05 l0.03,0.07c6.32,0.88,12.24,1.48,15.97-0.07L207.09,419.2z"/><polygon style="clip-path:url(#XMLID_00000067214824323010908560000015647933146556731327_);fill:#92e3a9" points="105.33 415.57 74.75 415.82 73.13 419.2 103.22 419.2"/><path style="clip-path:url(#XMLID_00000067214824323010908560000015647933146556731327_);fill:none;stroke:#263238;stroke-linecap:round;stroke-linejoin:round;stroke-miterlimit:10" d="M104.084,417.713l1.246-2.143c0,0,4.088,1.913,8.571,1.782c4.483-0.132,11.562-5.683,25.166-5.413"/><path style="clip-path:url(#XMLID_00000067214824323010908560000015647933146556731327_);fill:none;stroke:#263238;stroke-linecap:round;stroke-linejoin:round;stroke-miterlimit:10" d="M148.3,412.46c2.514,0.922,6.08,2.12,6.08,2.12s4.62-2.657,14.774-2.382"/><path style="clip-path:url(#XMLID_00000067214824323010908560000015647933146556731327_);fill:none;stroke:#263238;stroke-linecap:round;stroke-linejoin:round;stroke-miterlimit:10" d="M105.33,415.57c0,0-15.822,0.284-22.151,0.415"/><path style="clip-path:url(#XMLID_00000067214824323010908560000015647933146556731327_);fill:none;stroke:#263238;stroke-linecap:round;stroke-linejoin:round;stroke-miterlimit:10" d="M152.275,419.198c0,0,0.264-2.298,2.506-2.665c2.242-0.368,3.692,2.402,3.692,2.402"/><line style="clip-path:url(#XMLID_00000067214824323010908560000015647933146556731327_);fill:none;stroke:#263238;stroke-linecap:round;stroke-linejoin:round;stroke-miterlimit:10" x1="154.38" x2="154.78" y1="414.58" y2="416.532"/><path style="clip-path:url(#XMLID_00000067214824323010908560000015647933146556731327_);fill:none;stroke:#263238;stroke-linecap:round;stroke-linejoin:round;stroke-miterlimit:10" d="M156.629,416.532c0,0,7.119-3.249,13.976-2.665"/><path style="clip-path:url(#XMLID_00000067214824323010908560000015647933146556731327_);fill:none;stroke:#263238;stroke-linecap:round;stroke-linejoin:round;stroke-miterlimit:10" d="M153.703,416.924c-0.637-0.496-11.319-3.797-22.264-1.355"/><path style="clip-path:url(#XMLID_00000067214824323010908560000015647933146556731327_);fill:none;stroke:#263238;stroke-linecap:round;stroke-linejoin:round;stroke-miterlimit:10" d="M152.275,418.275c0,0-9.01-1.714-16.835-0.527"/><path style="clip-path:url(#XMLID_00000067214824323010908560000015647933146556731327_);fill:none;stroke:#263238;stroke-linecap:round;stroke-linejoin:round;stroke-miterlimit:10" d="M157.635,417.774c0,0,8.647-2.721,18.325-1.242c9.678,1.479,18.285,1.215,18.285,1.215"/><use xlink:href="#XMLID_1009_" style="overflow:visible;fill:none;stroke:#263238;stroke-linecap:round;stroke-linejoin:round;stroke-miterlimit:10"/></g><path style="fill:#263238" d="M171.16,340.6v3.55c0,0-3.65,2.55-8.4,5.09c-6.41-5.89-7.32-17.08-7.32-17.08L171.16,340.6z"/><g><path style="fill:#fff;stroke:#263238;stroke-linecap:round;stroke-linejoin:round;stroke-miterlimit:10" d="M143.835,320.151c-7.536-11.153-6.019-32.052,3.692-43.382c14.242-16.615,51.406-4.483,51.368,19.01 c-0.005,3.141-0.308,6.421-0.836,9.739c-0.493,3.1-3.182,6.234-4.007,9.32c-0.825,3.086-0.494,7.963-0.824,11.034 c-0.733,6.831-10.184,20.379-12.752,21.846c-3.581,2.044-22.926-3.432-27.146-15.834"/><path style="fill:none;stroke:#263238;stroke-linecap:round;stroke-linejoin:round;stroke-miterlimit:10" d="M170.209,306.37 c0,0,5.275-1.916,10.022,0"/><path style="fill:none;stroke:#263238;stroke-linecap:round;stroke-linejoin:round;stroke-miterlimit:10" d="M191.044,306.37 c0,0,3.836-1.916,6.401,0"/><path style="fill:#263238" d="M175.14,315.328c-0.277,1.356-1.196,2.313-2.052,2.138s-1.326-1.416-1.048-2.772 c0.277-1.356,1.196-2.313,2.052-2.138C174.948,312.731,175.417,313.972,175.14,315.328z"/><path style="fill:#263238" d="M192.099,315.328c-0.277,1.356-1.196,2.313-2.052,2.138c-0.856-0.175-1.326-1.416-1.048-2.772 c0.277-1.356,1.196-2.313,2.052-2.138C191.907,312.731,192.376,313.972,192.099,315.328z"/><path style="fill:#fff;stroke:#263238;stroke-linecap:round;stroke-linejoin:round;stroke-miterlimit:10" d="M189.33,308.418c0,0-2.506,4.352-2.769,8.044c-0.264,3.692,3.956,11.209,2.769,13.583c-1.187,2.374-6.462,2.242-8.176,0.791"/><path style="fill:none;stroke:#263238;stroke-linecap:round;stroke-linejoin:round;stroke-miterlimit:10" d="M182.077,335.582 c0,0-5.407,0.923-10.154-1.451"/><path style="fill:#263238" d="M151.404,309.868c0,0,2.453-2.374,5.354-1.451c2.901,0.923,3.429,8.835,3.429,8.835l2.11-2.242 c0,0-0.791-4.467,2.374-10.739c3.165-6.272,1.582-13.657,1.582-13.657s5.443,1.846,7.337,6.066c0,0,2.062-4.483,0-7.912 c0,0,8.487,2.11,10.597,8.44c0,0,1.67-4.747,1.099-7.121c0,0,5.759,1.846,7.868,7.385c0,0,1.918-4.22,1.091-7.648 c0,0,2.32,1.98,3.201,7.912c0,0,2.708-4.747,1.45-11.604c0,0,2.962,3.428,3.489,6.33c0,0,2.438-8.439-11.836-19.78 c-14.274-11.341-38.699-8.768-42.494,0c0,0,1.26-6.46,3.795-8.768c0,0-7.054,3.119-6.854,9.56c0,0-6.172-0.791-9.337,3.165 c0,0,3.165-0.264,5.802,0.264c0,0-8.439,5.011-7.912,16.879c0.527,11.868,7.912,29.011,7.912,29.011l5.78-1.688 C147.241,321.103,148.161,313.033,151.404,309.868z"/><path style="fill:#fff;stroke:#263238;stroke-linecap:round;stroke-linejoin:round;stroke-miterlimit:10" d="M157.813,312.769c0,0-4.484-7.912-6.857-8.439c-2.374-0.528-6.857,2.637-5.802,6.857c1.055,4.22,1.846,11.341,3.165,12.132 s3.429,5.538,5.538,4.22c2.11-1.319,0.527-3.165,0.527-3.165"/></g><path style="fill:none;stroke:#263238;stroke-linecap:round;stroke-linejoin:round;stroke-miterlimit:10" d="M207.923,373.928 c0,0-0.527,2.454-1.748,5.745"/><path style="fill:none;stroke:#263238;stroke-linecap:round;stroke-linejoin:round;stroke-miterlimit:10" d="M204.574,383.491 c-1.605,3.395-3.848,7.007-6.86,9.571"/><path style="fill:none;stroke:#263238;stroke-linecap:round;stroke-linejoin:round;stroke-miterlimit:10" d="M232.978,394.264 c-1.371-0.182-4.157,1.544-6.714,3.779"/><path style="fill:none;stroke:#263238;stroke-linecap:round;stroke-linejoin:round;stroke-miterlimit:10" d="M224.401,399.806 c-2.018,2.073-3.555,4.263-3.555,5.666"/><path style="fill:none;stroke:#263238;stroke-linecap:round;stroke-linejoin:round;stroke-miterlimit:10" d="M78.956,388.868 c0,0,5.696,1.582,5.749,6.461"/><path style="fill:none;stroke:#263238;stroke-linecap:round;stroke-linejoin:round;stroke-miterlimit:10" d="M100.319,362.231 c0,0,1.199,1.275,2.575,3.376"/><path style="fill:none;stroke:#263238;stroke-linecap:round;stroke-linejoin:round;stroke-miterlimit:10" d="M105.143,369.726 c1.007,2.289,1.769,4.947,1.769,7.746c0,8.231-2.374,12.978-2.374,12.978"/><path style="fill:none;stroke:#263238;stroke-linecap:round;stroke-linejoin:round;stroke-miterlimit:10" d="M134.868,354.156 c0,0,1.811,1.776,4.831,3.853"/><path style="fill:none;stroke:#263238;stroke-linecap:round;stroke-linejoin:round;stroke-miterlimit:10" d="M144.717,360.996 c5.113,2.582,11.718,4.527,18.583,2.817"/><g style="opacity:.2"><path style="fill:none;stroke:#fff;stroke-linecap:round;stroke-linejoin:round;stroke-miterlimit:10" d="M155.44,273.088 c0,0,2.236-0.397,5.402-0.35"/><path style="fill:none;stroke:#fff;stroke-linecap:round;stroke-linejoin:round;stroke-miterlimit:10" d="M163.466,272.878 c4.897,0.459,10.915,2.172,14.655,7.33"/><path style="fill:none;stroke:#fff;stroke-linecap:round;stroke-linejoin:round;stroke-miterlimit:10" d="M167.308,269.08 c0,0,9.169,0.102,15.745,4.695"/><path style="fill:none;stroke:#fff;stroke-linecap:round;stroke-linejoin:round;stroke-miterlimit:10" d="M185.632,275.982 c1.127,1.191,2.084,2.589,2.775,4.227"/><path style="fill:none;stroke:#fff;stroke-linecap:round;stroke-linejoin:round;stroke-miterlimit:10" d="M153.066,277.044 c0,0,9.013,3.165,12.132,8.835"/><path style="fill:none;stroke:#fff;stroke-linecap:round;stroke-linejoin:round;stroke-miterlimit:10" d="M148.714,280.209 c0,0,2.881,3.706,4.125,8.95"/><path style="fill:none;stroke:#fff;stroke-linecap:round;stroke-linejoin:round;stroke-miterlimit:10" d="M153.4,293.66 c0.009,1.155-0.092,2.348-0.334,3.56"/><path style="fill:none;stroke:#fff;stroke-linecap:round;stroke-linejoin:round;stroke-miterlimit:10" d="M142.648,283.901 c0,0-0.574,1.377-1.147,3.604"/><path style="fill:none;stroke:#fff;stroke-linecap:round;stroke-linejoin:round;stroke-miterlimit:10" d="M140.785,290.951 c-0.435,2.739-0.638,6.035-0.115,9.434"/></g></g><g><polyline style="fill:#fff;stroke:#263238;stroke-linecap:round;stroke-linejoin:round;stroke-miterlimit:10" points="260.67 436.982 386.868 436.982 386.868 419.198 35.315 419.198 35.315 436.982 106.385 436.982"/><line style="fill:#fff;stroke:#263238;stroke-linecap:round;stroke-linejoin:round;stroke-miterlimit:10" x1="251.612" x2="233.691" y1="436.982" y2="436.982"/></g></g></g></svg>