<svg xmlns="http://www.w3.org/2000/svg" xmlns:xlink="http://www.w3.org/1999/xlink" x="0" y="0" version="1.1" viewBox="0 0 500 500" style="enable-background:new 0 0 500 500" xml:space="preserve"><g id="Background_Complete"><g><rect y="382.398" style="fill:#ebebeb" width="500" height=".25"/><rect x="416.779" y="398.494" style="fill:#ebebeb" width="33.122" height=".25"/><rect x="322.527" y="401.208" style="fill:#ebebeb" width="8.693" height=".25"/><rect x="396.586" y="389.208" style="fill:#ebebeb" width="19.192" height=".25"/><rect x="52.459" y="390.888" style="fill:#ebebeb" width="43.193" height=".25"/><rect x="104.556" y="390.888" style="fill:#ebebeb" width="6.333" height=".25"/><rect x="131.471" y="395.111" style="fill:#ebebeb" width="93.676" height=".25"/><path style="fill:#ebebeb" d="M237.014,337.8H43.915c-3.147,0-5.708-2.561-5.708-5.708V60.66c0-3.147,2.561-5.708,5.708-5.708 h193.099c3.146,0,5.707,2.561,5.707,5.708v271.432C242.721,335.239,240.16,337.8,237.014,337.8z M43.915,55.203 c-3.01,0-5.458,2.448-5.458,5.458v271.432c0,3.01,2.448,5.458,5.458,5.458h193.099c3.009,0,5.457-2.448,5.457-5.458V60.66 c0-3.009-2.448-5.458-5.457-5.458H43.915z"/><path style="fill:#ebebeb" d="M453.31,337.8H260.212c-3.147,0-5.707-2.561-5.707-5.708V60.66c0-3.147,2.561-5.708,5.707-5.708 H453.31c3.148,0,5.708,2.561,5.708,5.708v271.432C459.019,335.239,456.458,337.8,453.31,337.8z M260.212,55.203 c-3.009,0-5.457,2.448-5.457,5.458v271.432c0,3.01,2.448,5.458,5.457,5.458H453.31c3.01,0,5.458-2.448,5.458-5.458V60.66 c0-3.009-2.448-5.458-5.458-5.458H260.212z"/></g><g><g><ellipse transform="matrix(0.2298 -0.9732 0.9732 0.2298 230.6897 478.966)" style="fill:#e0e0e0" cx="417.945" cy="93.738" rx="23.554" ry="23.554"/><ellipse transform="matrix(0.1602 -0.9871 0.9871 0.1602 258.4693 491.2713)" style="fill:#f0f0f0" cx="417.945" cy="93.738" rx="20.027" ry="20.027"/><polyline style="fill:#f0f0f0;stroke:#e0e0e0;stroke-width:2;stroke-linecap:round;stroke-linejoin:round;stroke-miterlimit:10" points="417 80 417 94 407.722 88.75"/></g><g><rect x="62.045" y="109.064" style="fill:#e6e6e6" width="68.616" height="124.616"/><rect x="67" y="114" style="fill:#f0f0f0" width="59" height="115"/><polygon style="fill:#fafafa" points="96.11 114 67 223.02 67 164 80.32 114"/><polygon style="fill:#fafafa" points="109.12 114 78.42 229 72.63 229 103.33 114"/><rect x="64" y="194.387" style="fill:#e6e6e6" width="64.5" height="4"/></g><g><path style="fill:#e6e6e6" d="M424.256,270.73c0,0,1.577-10.397-6.006-17.064c-7.583-6.667-6.917-10.632-4.75-11.15 c2.167-0.517,4.167,6.15,7.5,7.983c0,0,0.105-9.5-3.281-13s-5.163-12.516-1.941-12.675c3.222-0.159,3.555,5.355,4.222,9.265 s4.256,9.41,4.256,9.41s0.701-8.5,2.889-12c2.188-3.5-3.645-11.5-1.395-15s6.25,3.167,5.917,10.667 c-0.333,7.5-5.333,15.5-4.167,23.333c0,0,2.206-5.5,4.186-6c1.98-0.5,3.98-4.138,5.314-5.486c1.333-1.348,3,3.319,0,7.652 c-3,4.333-10.667,15.926-9.5,25.296L424.256,270.73z"/><path style="fill:#e6e6e6" d="M419.723,266l-2.483,15.583c-0.767,4.813,2.951,9.171,7.825,9.171h2.649 c4.873,0,8.592-4.358,7.825-9.171L433.055,266H419.723z"/><g><rect x="424.256" y="292.543" style="fill:#e0e0e0" width="5.778" height="90.777"/><g><rect x="403.743" y="292.543" style="fill:#e6e6e6" width="5.778" height="90.777"/><rect x="444.769" y="292.543" style="fill:#e6e6e6" width="5.778" height="90.777"/></g><rect x="400.313" y="286.743" style="fill:#e6e6e6" width="53.665" height="9.665"/></g></g></g></g><g id="Background_Simple" style="display:none"><g style="display:inline"><path style="fill:#407bff" d="M111.835,112.155c4.708-3.202,10.208-5.35,16.447-6.037c33.175-3.655,50.045,41.557,57.078,66.773 c7.266,26.051,20.242,48.318,48.057,55.664c18.176,4.8,37.497,2.612,55.809-1.638c41.156-9.551,105.411-37.772,134.817,9.284 c8.987,14.381,11.381,32.255,8.847,49.023c-3.732,24.692-18.061,47.599-38.631,61.758c-47.501,32.694-96.05,8.361-132.548-28.174 c-39.346-39.386-73.517-78.239-122.078-107.452c-11.074-6.662-22.574-12.934-31.879-21.903 C86.53,168.994,85.985,129.736,111.835,112.155z"/><path style="opacity:.9;fill:#fff;enable-background:new" d="M111.835,112.155c4.708-3.202,10.208-5.35,16.447-6.037 c33.175-3.655,50.045,41.557,57.078,66.773c7.266,26.051,20.242,48.318,48.057,55.664c18.176,4.8,37.497,2.612,55.809-1.638 c41.156-9.551,105.411-37.772,134.817,9.284c8.987,14.381,11.381,32.255,8.847,49.023c-3.732,24.692-18.061,47.599-38.631,61.758 c-47.501,32.694-96.05,8.361-132.548-28.174c-39.346-39.386-73.517-78.239-122.078-107.452 c-11.074-6.662-22.574-12.934-31.879-21.903C86.53,168.994,85.985,129.736,111.835,112.155z"/></g></g><g id="Shadow_1_"><ellipse id="_x3C_Path_x3E__359_" style="fill:#f5f5f5" cx="250" cy="416.238" rx="193.889" ry="11.323"/></g><g id="Board"><g><g><polygon style="fill:#2e353a" points="350 377.521 350 267 339 267 339 377.521 332 379.671 332 383 357 383 357 379.671"/><polygon style="fill:#2e353a" points="210 267 199 267 199 377.521 192 379.671 192 383 217 383 217 379.671 210 377.521"/></g><g style="opacity:.2;enable-background:new"><polygon style="fill:#fff" points="350 280 339 280 339 377.521 332 379.671 332 383 357 383 357 379.671 350 377.521"/><polygon style="fill:#fff" points="210 280 199 280 199 377.521 192 379.671 192 383 217 383 217 379.671 210 377.521"/></g><rect x="185.5" y="72.5" transform="matrix(-1.836970e-16 1 -1 -1.836970e-16 456.5 -92.5)" style="fill:#2e353a" width="178" height="219"/><rect x="185.5" y="72.5" transform="matrix(-1.836970e-16 1 -1 -1.836970e-16 456.5 -92.5)" style="opacity:.2;fill:#fff;enable-background:new" width="178" height="219"/><g><rect x="169.868" y="97.941" style="fill:#407bff" width="209.263" height="168.022"/><rect x="169.868" y="97.941" style="opacity:.3;fill:#fff;enable-background:new" width="209.263" height="168.022"/></g><g><polygon style="fill:none;stroke:#263238;stroke-miterlimit:10" points="193.5 113 193.5 158.5 266.008 158.5"/><polyline style="fill:none;stroke:#263238;stroke-width:.7933;stroke-miterlimit:10" points="197.139 158.615 197.139 154.896 193.42 154.896"/><text transform="matrix(1 0 0 1 228.9888 129.4609)" style="fill:#263238;font-family:'Cabin-Regular';font-size:9.5196px">b</text><text transform="matrix(1 0 0 1 193.8169 198.168)" style="fill:#263238;font-family:'Cabin-Regular';font-size:9.5196px">b</text><text transform="matrix(1 0 0 1 219.0063 167.7852)" style="fill:#263238;font-family:'Cabin-Regular';font-size:9.5196px">c</text><text transform="matrix(1 0 0 1 193.8169 212.1411)" style="fill:#263238;font-family:'Cabin-Regular';font-size:9.5196px">c</text><text transform="matrix(1 0 0 1 185.4385 140.2959)" style="fill:#263238;font-family:'Cabin-Regular';font-size:9.5196px">a</text><text transform="matrix(1 0 0 1 193.8169 184.1943)" style="fill:#263238;font-family:'Cabin-Regular';font-size:9.5196px">a</text><line style="fill:none;stroke:#263238;stroke-miterlimit:10" x1="283" x2="323" y1="113.5" y2="113.5"/><line style="fill:none;stroke:#263238;stroke-miterlimit:10" x1="283" x2="305" y1="121.5" y2="121.5"/><line style="fill:none;stroke:#263238;stroke-miterlimit:10" x1="283" x2="314" y1="127.5" y2="127.5"/><line style="fill:none;stroke:#263238;stroke-miterlimit:10" x1="283" x2="309" y1="134.5" y2="134.5"/><line style="fill:none;stroke:#263238;stroke-miterlimit:10" x1="283" x2="322" y1="142.5" y2="142.5"/><line style="fill:none;stroke:#263238;stroke-miterlimit:10" x1="283" x2="321" y1="149.5" y2="149.5"/><line style="fill:none;stroke:#263238;stroke-miterlimit:10" x1="283" x2="309" y1="156.5" y2="156.5"/><line style="fill:none;stroke:#263238;stroke-miterlimit:10" x1="328" x2="355" y1="217.5" y2="217.5"/><line style="fill:none;stroke:#263238;stroke-miterlimit:10" x1="328" x2="343" y1="225.5" y2="225.5"/><line style="fill:none;stroke:#263238;stroke-miterlimit:10" x1="328" x2="349" y1="231.5" y2="231.5"/><line style="fill:none;stroke:#263238;stroke-miterlimit:10" x1="328" x2="346" y1="238.5" y2="238.5"/><line style="fill:none;stroke:#263238;stroke-miterlimit:10" x1="191" x2="218" y1="230.5" y2="230.5"/><line style="fill:none;stroke:#263238;stroke-miterlimit:10" x1="191" x2="206" y1="238.5" y2="238.5"/><line style="fill:none;stroke:#263238;stroke-miterlimit:10" x1="191" x2="212" y1="244.5" y2="244.5"/><line style="fill:none;stroke:#263238;stroke-miterlimit:10" x1="191" x2="209" y1="251.5" y2="251.5"/><line style="fill:none;stroke:#263238;stroke-miterlimit:10" x1="336" x2="362" y1="127.5" y2="127.5"/><line style="fill:none;stroke:#263238;stroke-miterlimit:10" x1="336" x2="362" y1="134.5" y2="134.5"/><line style="fill:none;stroke:#263238;stroke-miterlimit:10" x1="336" x2="354" y1="141.5" y2="141.5"/><line style="fill:none;stroke:#263238;stroke-miterlimit:10" x1="259" x2="285" y1="230.5" y2="230.5"/><line style="fill:none;stroke:#263238;stroke-miterlimit:10" x1="259" x2="285" y1="237.5" y2="237.5"/><line style="fill:none;stroke:#263238;stroke-miterlimit:10" x1="259" x2="277" y1="244.5" y2="244.5"/><line style="fill:none;stroke:#263238;stroke-miterlimit:10" x1="210" x2="268" y1="184.5" y2="184.5"/><line style="fill:none;stroke:#263238;stroke-miterlimit:10" x1="210" x2="268" y1="197.5" y2="197.5"/><line style="fill:none;stroke:#263238;stroke-miterlimit:10" x1="210" x2="268" y1="210.5" y2="210.5"/><circle style="fill:none;stroke:#263238;stroke-width:.7933;stroke-miterlimit:10" cx="306.466" cy="199.311" r="18.246"/><polyline style="fill:none;stroke:#263238;stroke-miterlimit:10" points="306.5 181 306.5 199.5 325 199.5"/></g><rect x="169.868" y="97.941" style="opacity:.6;fill:#fff;enable-background:new" width="209.263" height="168.022"/></g></g><g id="Teacher"><g><path style="fill:#b97964" d="M300.265,188.615l-15.443-8.976c0,0-3.397,0.343-7.37-0.342c-3.973-0.685-4.861-0.726-4.381-3.874 c0.48-3.148-0.188-7.35,1.001-7.795c1.189-0.445,9.608,3.115,11.066,5.519l15.587,5.577L300.265,188.615z"/><path style="fill:#407bff" d="M346,173.37v18.01c0,0-3.84,1.27-8.61,2.6c-5.47,1.52-12.16,3.12-15.64,2.95 c-6.5-0.32-28.5-11.74-28.5-11.74l4-7.62c0,0,24,8.18,27,7.59S346,173.37,346,173.37z"/><path style="opacity:.2;enable-background:new" d="M346,182.14v9.24c0,0-3.84,1.27-8.61,2.6 C339.15,188.62,343.54,184.25,346,182.14z"/><path style="fill:#b97964" d="M350.039,237.439c0,0-10.838,57.765-13.73,81.481c-3.778,30.939-19.227,76.202-19.227,76.202 l6.177,1.597c0,0,21.781-38.462,26.027-73.071c17.301-35.369,18.698-78.923,18.698-78.923L350.039,237.439z"/><path style="fill:#2e353a" d="M305.58,409.123c1-0.46,2.075-0.733,3.174-0.806l0,0c0,0,3.798-2.236,7.562-10.92l4.233-0.025 c1.466,0.017,2.764,0.947,3.252,2.329c0.069,0.188,0.11,0.386,0.12,0.586c-0.043,1.023-0.151,2.042-0.325,3.051 c-0.381,3.166-2.475,9.959-2.475,9.959l-0.717-0.183l1.304-6.316c0.434-2.146-1.821-0.073-2.867,2.091 c-1.046,2.164-2.65,4.342-7.325,3.273C306.068,410.888,303.872,410.103,305.58,409.123z"/><path style="fill:#b97964" d="M361.294,236.517c0,0,1.345,58.757,3.421,82.559c2.703,31.052-3.05,78.531-3.05,78.531l6.374,0.284 c0,0,13.354-42.136,10.35-76.874c9.611-38.182,1.969-81.083,1.969-81.083L361.294,236.517z"/><path style="fill:#2e353a" d="M351.745,411.057c0.944-0.565,1.984-0.953,3.068-1.145l0,0c0,0,3.534-2.633,6.338-11.674 l4.206-0.482c1.459-0.142,2.851,0.643,3.485,1.964c0.089,0.18,0.151,0.372,0.182,0.57c0.068,1.021,0.07,2.046,0.006,3.068 c-0.036,3.189-1.384,10.168-1.384,10.168l-0.733-0.104l0.614-6.42c0.199-2.18-1.819,0.124-2.624,2.389 c-0.806,2.264-2.165,4.603-6.929,4.046C352.421,412.758,350.153,412.216,351.745,411.057z"/><path style="fill:#2e353a" d="M382.826,136.581c0,0,3.174,0.171,5.84,5.378c2.667,5.208-0.667,10.992-1.333,13.766 c-0.667,2.774-4,5.221,1.5,9.414c5.5,4.193,8.793,8.639,4.333,13.173c-4.46,4.534,0.443,8.021-6.028,11.354 C380.667,193,357,188,354,181.5s0.62-11.436,0.81-13.385c0.19-1.948-3.81-3.928-4.81-10.272c-1-6.344,4.12-7.712,4.81-10.611 c0.69-2.899-2.523-6.566,0-12.733S382.486,126.995,382.826,136.581z"/><path style="fill:#407bff" d="M398.8,223.09c-3.79,0.49-8.175-6.91-11.345-13.81c-2.7-5.85-4.592-11.35-4.592-11.35l1.994-5.64 l5.222-14.72c0,0,3.656,5.09,9.146,24.47c0.88,3.12,1.938,6.61,2.908,10.51c0,0-0.132,1.17,0.868,2.75v0.01 C403,218.23,403.35,222.5,398.8,223.09z"/><path style="opacity:.2;enable-background:new" d="M387.39,209.28c-2.7-5.85-4.56-11.35-4.56-11.35l2.01-5.64 C386.23,196.19,388.28,203.26,387.39,209.28z"/><path style="opacity:.2;enable-background:new" d="M403,215.3v0.01c-2,1.32-4.09,1.3-5.26-1.11 c-2.37-4.87-0.085-9.69,1.545-12.16c0.88,3.12,1.908,6.61,2.878,10.51C402.163,212.55,402,213.72,403,215.3z"/><g><path style="fill:#407bff" d="M343.336,221.167c0,0,19.954,7.167,39.059,5.833c0,0-1.729-23.602-11.729-27.801 C360.667,195,343.339,201,343.336,221.167z"/><path style="opacity:.2;enable-background:new" d="M343.336,221.167c0,0,19.954,7.167,39.059,5.833 c0,0-1.729-23.602-11.729-27.801C360.667,195,343.339,201,343.336,221.167z"/></g><g><path style="fill:#407bff" d="M346.17,222.85l33.01,2.85c0.52-8.2,1.04-14.46,3.51-24.24c0.79-3.16,1.78-6.69,3.05-10.77 c0.68-2.18,1.43-4.52,2.27-7.04c0.63-1.91,1.31-3.94,2.06-6.08c-4.49-1.43-9.06-2.54-13.7-3.31c-4.89-0.87-9.85-1.39-14.82-1.56 c-6.42-0.05-13.8,0.67-13.8,0.67s-1.05,0.25-1.71,7.06C345.44,186.82,344.85,199.6,346.17,222.85z"/><path style="fill:#2e353a" d="M346.328,227.799l32.982,2.721c0.52-8.2,0.91-19.28,3.38-29.06c0.79-3.16,1.78-6.69,3.05-10.77 c0.68-2.18,1.43-4.52,2.27-7.04c0.63-1.91,1.31-3.94,2.06-6.08c-4.49-1.43-9.06-2.54-13.7-3.31c-4.89-0.87-9.85-1.39-14.82-1.56 c-6.42-0.05-13.8,0.67-13.8,0.67s-1.05,0.25-1.71,7.06C345.44,186.82,345.008,204.549,346.328,227.799z"/></g><path style="fill:#b97964" d="M364.274,179.989c8.135-1.041,10.579-4.516,10.579-4.516c-5.161-4.87-0.873-13.308-0.873-13.308 l-9.792,1.828c0.257,1.618,0.367,2.975,0.383,4.122c0.074,5.943-2.613,6.001-2.613,6.001 C360.239,177.335,364.274,179.989,364.274,179.989z"/><path style="opacity:.2;enable-background:new" d="M364.188,163.993c0.257,1.618,0.367,2.975,0.383,4.122 c6.614,0,9.409-5.95,9.409-5.95L364.188,163.993z"/><g><path style="fill:#b97964" d="M369.601,136.615c-8.512-0.466-11.501,3.941-12.605,12.678 c-1.38,10.919,0.624,18.839,11.395,17.081C383.019,163.986,383.737,137.389,369.601,136.615z"/><path style="fill:#a24e3f" d="M362.525,149.118c0,0-1.301,2.159-2.67,3.395c0,0,0.665,1.197,2.191,1.086L362.525,149.118z"/><g><path style="fill:#2e353a" d="M367.772,148.707c-0.055,0.698,0.279,1.294,0.744,1.33c0.466,0.036,0.887-0.5,0.942-1.198 c0.055-0.698-0.278-1.294-0.744-1.33C368.249,147.473,367.827,148.009,367.772,148.707z"/><path style="fill:#2e353a" d="M368.906,147.558l-1.472-0.715C367.434,146.843,368.09,148.18,368.906,147.558z"/></g><g><path style="fill:#2e353a" d="M359.103,147.882c-0.055,0.698,0.278,1.294,0.744,1.33c0.466,0.036,0.887-0.5,0.942-1.198 c0.055-0.698-0.279-1.294-0.744-1.33C359.579,146.648,359.158,147.184,359.103,147.882z"/><path style="fill:#2e353a" d="M360.237,146.733l-1.472-0.714C358.765,146.019,359.421,147.356,360.237,146.733z"/></g><path style="fill:none;stroke:#2e353a;stroke-width:.7247;stroke-linecap:round;stroke-linejoin:round;stroke-miterlimit:10" d="M368.18,142.834c0,0,2.409-0.18,3.621,1.489"/><path style="fill:none;stroke:#2e353a;stroke-width:.7247;stroke-linecap:round;stroke-linejoin:round;stroke-miterlimit:10" d="M362.013,142.136c0,0-1.473-0.639-3.431,0.514"/><path style="fill:#2e353a" d="M363.103,157.015c0.436,1.053,0.831,3.01,0.831,3.01c0.184-0.004,0.368-0.008,0.551-0.021 c2.491-0.115,3.609-0.991,4.093-1.928c0.263-0.513,0.33-1.051,0.327-1.487c0.002-0.504-0.112-0.864-0.112-0.864 c-1.284,0.85-3.598,1.136-4.841,1.237C363.432,157.01,363.103,157.015,363.103,157.015z"/><path style="fill:#fff" d="M363.952,156.962l0.268,0.881c2.346-0.114,3.983-0.509,4.685-1.254 c0.002-0.504-0.112-0.864-0.112-0.864C367.509,156.576,365.194,156.861,363.952,156.962z"/><path style="fill:#de5753" d="M364.485,160.004c2.491-0.115,3.609-0.991,4.093-1.928c-0.847,0.072-1.861,0.253-2.741,0.676 C365.163,159.073,364.751,159.539,364.485,160.004z"/><path style="fill:#2e353a" d="M378.118,151.47c0,0-3.597-7.211-2.698-12.577c0,0-16.489-7.815-18.26,9.26 c0,0-0.815-15.292,13.835-14.829c14.627,0.462,13.415,21.865,5.51,27.829C376.504,161.152,380.34,155.978,378.118,151.47z"/><path style="fill:#b97964" d="M376.629,153.19c0.132-1.367,1.673-3.609,4.206-3.192c2.622,0.432,3.582,5.916-3.05,6.858 C376.834,156.992,376.353,156.043,376.629,153.19z"/></g><path style="fill:#b97964" d="M382.395,176.375c0,0-9.551,7.75-18.443,7.625s-12.017-10.125-12.017-10.125 S365.727,169.792,382.395,176.375z"/><path style="fill:#407bff" d="M381.583,174.917c0,0-15.688,28.073,0.812,52.083c0,0,2.245-29.61,7.675-49.43L381.583,174.917z"/><path style="fill:#407bff" d="M352.81,172.697c0,0-0.143,19.876-2.977,27.256c-2.833,7.38-6.497,21.213-6.497,21.213 s-2.753-33.093,2.664-47.797L352.81,172.697z"/><path style="fill:none;stroke:#2e353a;stroke-width:.5;stroke-linecap:round;stroke-linejoin:round;stroke-miterlimit:10" d="M375.42,138.893c0,0-6.336-2.191-11.92,0s-4.063,7.974-6.888,9.056"/><g><path style="fill:#e0e0e0" d="M425.75,169.115l-2.625-1.497l-9.625,2.632l-13.042-3.375l-2.958,9.875c0,0-0.625,11,0,11.125 s14.875,0.875,14.875,0.875l7.25-4.625L425.75,169.115z"/><polygon style="fill:#407bff" points="397 167.618 391.249 190.386 409 192.376 421.25 189 427.5 167.618 413.5 171.25"/><polygon style="opacity:.4;fill:#fff;enable-background:new" points="413.5 171.25 409 192.38 391.25 190.39 397 167.62"/><polygon style="opacity:.2;fill:#fff" points="413.5 171.25 409 192.376 421.25 189 427.5 167.618"/></g><path style="fill:#b97964" d="M397.917,213l8.25-15.843c0,0-0.5-3.378,0-7.378s0.5-4.89,3.667-4.556 c3.167,0.333,7.333-0.528,7.833,0.639c0.5,1.167-2.667,9.742-5,11.31L407.818,213H397.917z"/><path style="fill:#407bff" d="M395.249,221.704c5.251,4.463,11.251,0.629,14.585-12.204l-10.333-1.333L395.249,221.704z"/><polygon style="fill:#2e353a" points="400.026 205.347 397.917 209.072 411 210.833 411 207"/><polygon style="fill:#2e353a" points="292.717 186.153 296.34 188.433 298.707 175.446 294.878 175.268"/><g><path style="fill:#407bff" d="M346.328,227.799l-20.801,122.224c0,0,50.342,6.008,67.408,2.493c0,0,4.185-87.475-13.624-121.995 L346.328,227.799z"/><path style="opacity:.4;fill:#fff;enable-background:new" d="M346.328,227.799l-20.801,122.224 c0,0,50.342,6.008,67.408,2.493c0,0,4.185-87.475-13.624-121.995L346.328,227.799z"/></g><g><path style="fill:#2e353a" d="M278.795,174.079c0,0-2.073-2.14-5.181-5.351c-3.094-3.225-7.291-7.454-11.465-11.704 c-2.099-2.113-4.198-4.227-6.166-6.208c-1.973-1.977-3.813-3.822-5.392-5.403c-1.578-1.581-2.893-2.899-3.813-3.822 c-0.462-0.46-0.825-0.821-1.072-1.067c-0.289-0.204-0.69-0.065-0.69-0.065l1.411-1.418c0,0-0.137,0.402,0.069,0.69 c0.247,0.246,0.61,0.607,1.072,1.067c0.927,0.916,2.251,2.225,3.84,3.795c1.589,1.571,3.443,3.403,5.428,5.366 c1.991,1.958,4.114,4.047,6.237,6.136c4.27,4.154,8.519,8.331,11.758,11.41c3.225,3.093,5.375,5.155,5.375,5.155L278.795,174.079 z"/></g><path style="fill:#b97964" d="M317.082,395.121c0,0-5.285,11.061-8.329,13.195c0,0,4.08,2.433,8.329-2.982 c5.494-7.003,6.838-5.047,6.838-5.047s-0.233-2.397-0.661-3.57C322.433,394.458,317.082,395.121,317.082,395.121z"/><path style="fill:#b97964" d="M362.313,395.031c0,0-1.5,4.094-3.5,8.594s-4,6.287-4,6.287s3.474,1.128,5.349-1.05 c1.875-2.178,5.082-10.045,8.679-9.141c0,0-0.263-0.939-0.802-1.83C367.5,397,362.313,395.031,362.313,395.031z"/></g></g><g id="Table"><g><g><polygon style="fill:#407bff" points="194.524 414 195.336 289.753 187.208 289.753 188.02 414"/><polygon style="opacity:.5;fill:#fff;enable-background:new" points="188.02 414 194.53 414 195.18 314.725 195.34 290 187.21 290 187.37 314.725"/><polygon style="opacity:.2;enable-background:new" points="195.34 290 195.18 315 187.37 315 187.21 290"/></g><g><polygon style="fill:#407bff" points="257.672 414 250.37 289.753 242.243 289.753 251.167 414"/><polygon style="opacity:.5;fill:#fff;enable-background:new" points="251.165 414 257.674 414 250.81 297.365 250.37 290 242.24 290 242.78 297.365"/><polygon style="opacity:.2;enable-background:new" points="250.81 297 242.78 297 242.24 290 250.37 290"/></g><g><polygon style="fill:#407bff" points="131.377 414 140.301 289.753 132.174 289.753 124.873 414"/><polygon style="opacity:.3;fill:#fff;enable-background:new" points="131.375 414 139.76 297.365 140.3 290 132.17 290 131.73 297.365 124.874 414"/><polygon style="opacity:.2;enable-background:new" points="132.17 290 140.3 290 139.76 297 131.73 297"/></g><g><path style="fill:#407bff" d="M254.651,293.591H127.894c-1.194,0-2.162-0.968-2.162-2.162v-5.513h131.081v5.513 C256.813,292.623,255.845,293.591,254.651,293.591z"/><path style="opacity:.4;fill:#fff;enable-background:new" d="M254.651,293.591H127.894 c-1.194,0-2.162-0.968-2.162-2.162v-5.513h131.081v5.513C256.813,292.623,255.845,293.591,254.651,293.591z"/></g><rect x="125.731" y="285.915" style="opacity:.2;enable-background:new" width="131.081" height="3.838"/><g><path style="fill:#407bff" d="M260.61,286.916H121.934c-1.194,0-2.162-0.968-2.162-2.162l0,0c0-1.194,0.968-2.162,2.162-2.162 H260.61c1.194,0,2.162,0.968,2.162,2.162l0,0C262.772,285.948,261.804,286.916,260.61,286.916z"/><path style="opacity:.4;fill:#fff;enable-background:new" d="M260.61,286.916H121.934c-1.194,0-2.162-0.968-2.162-2.162 l0,0c0-1.194,0.968-2.162,2.162-2.162H260.61c1.194,0,2.162,0.968,2.162,2.162l0,0 C262.772,285.948,261.804,286.916,260.61,286.916z"/></g></g></g><g id="Student"><g id="_x3C_Group_x3E__14_"><line style="fill:none;stroke:#2e353a;stroke-width:2;stroke-miterlimit:10" x1="196.5" x2="187.75" y1="268.25" y2="284.41"/><path style="fill:#e4897b" d="M117.125,246.945c0,0,7.909-14.07,9.205-16.82c1.295-2.75,4.795-22.125,4.795-22.125 s-0.625-1.875-0.625-2.875s0.625-5.625,0.625-5.625s0-0.375,2.5-1.125s5.25-1.75,5.5-0.625s-0.375,8.875-1.125,9.625 s-1.603,2-1.603,2s-2.105,20.667-3.063,23.708c-0.959,3.042-8.834,19.309-8.834,19.309L117.125,246.945z"/><path style="fill:#e4897b" d="M154.431,264.077c0,0,19.5,9.09,22.32,10.225c2.82,1.136,11.363,1.519,11.363,1.519 s1.836-0.731,2.835-0.789c0.998-0.057,5.652,0.301,5.652,0.301s0.374-0.021,1.266,2.431c0.892,2.453,2.048,5.141,0.939,5.455 c-1.109,0.314-8.882,0.134-9.674-0.572c-0.792-0.706-0.792-0.706-0.792-0.706s-11.05,2.303-14.142,1.521 c-3.091-0.783-24.784-7.712-24.784-7.712L154.431,264.077z"/><path style="fill:#407bff" d="M127.67,249.43c-0.45,3.05-2.16,6.64-4.33,9.69c-4.22,5.97-10.17,9.9-11.78,3.73 c-2.45-9.32,7.94-21.02,7.94-21.02L127.67,249.43z"/><path style="opacity:.2;enable-background:new" d="M127.67,249.43c-0.45,3.05-2.16,6.64-4.33,9.69 c-0.92-1.04-1.53-2.27-1.34-3.62C122.58,251.33,127.67,249.43,127.67,249.43z"/><path style="fill:#e4897b" d="M148.6,242.44c-0.57,2.1-1.74,3.9-3.3,5.31c-2.28,2.08-5.38,3.3-8.55,3.36 c-2.97,0.05-6-0.91-8.48-3.15c-4.59-4.14-4.45-8.9-5-17c-0.55-8.09,8.25-14.26,17.16-11.03 C149.34,223.16,150.6,235.17,148.6,242.44z"/><path style="fill:#2e353a" d="M137.647,214.78c0,0,6.228-2.28,10.603,1.345s4.125,12.375,0,16.5c0,0,1.125-1.5-2.125-5.125 S137.647,214.78,137.647,214.78z"/><path style="opacity:.2;enable-background:new" d="M145.3,247.75c-2.28,2.08-5.38,3.3-8.55,3.36 c1.27-2.54,2.75-3.36,2.75-3.36C141.38,248.71,143.71,248.26,145.3,247.75z"/><polygon style="fill:#e4897b" points="146.9 380.25 145.84 386.88 144.87 393 136 393 136.77 385.17 137.5 377.67"/><path style="fill:#2e353a" d="M144.366,389.525l-9-0.561c-0.313-0.034-0.594,0.193-0.628,0.506c0,0.003-0.001,0.006-0.001,0.009 l-0.883,7.1c-0.048,0.776,0.536,1.447,1.312,1.504c3.143,0.145,4.651,0.057,8.614,0.273c2.431,0.145,7.222,0.662,10.576,0.337 c3.355-0.325,2.943-3.632,1.495-3.79c-3.435-0.391-7.985-2.915-10.135-4.831C145.34,389.746,144.864,389.553,144.366,389.525z"/><path style="fill:#407bff" d="M147.126,391.068c-0.721-0.062-1.433-0.204-2.123-0.422c-0.072-0.016-0.126-0.076-0.133-0.149 c-0.007-0.073,0.025-0.144,0.084-0.188c0.267-0.163,2.637-1.569,3.598-1.128c0.22,0.105,0.37,0.316,0.399,0.558 c0.109,0.371-0.006,0.771-0.294,1.029C148.202,391.055,147.656,391.162,147.126,391.068z M148.393,389.555 c-0.512-0.238-1.887,0.351-2.855,0.884c1.416,0.372,2.472,0.392,2.874,0.047c0.17-0.173,0.236-0.423,0.175-0.657 C148.575,389.71,148.501,389.606,148.393,389.555L148.393,389.555z"/><path style="fill:#407bff" d="M145.043,390.652c-0.025,0.012-0.053,0.015-0.08,0.007c-0.052-0.034-0.086-0.09-0.093-0.153 c0.004-0.071-0.034-2.416,0.817-3.15c0.228-0.186,0.526-0.263,0.815-0.21c0.328,0.031,0.594,0.282,0.644,0.608 c0.125,0.883-1.174,2.488-2.001,2.91C145.111,390.675,145.074,390.671,145.043,390.652z M146.344,387.531 c-0.151-0.011-0.299,0.042-0.409,0.145c-0.515,0.435-0.654,1.752-0.681,2.507c0.727-0.543,1.567-1.759,1.517-2.347 c-0.009-0.11-0.071-0.245-0.336-0.293L146.344,387.531z"/><polygon style="opacity:.2;enable-background:new" points="146.9 380.25 145.84 386.88 136.77 385.17 137.5 377.67"/><path style="fill:#2e353a" d="M157.667,329.883c-4.109-5.419-14.738-8.172-23.292-9.545l-2.877,21.451 c5.272,1.086,7.46,4.008,7.752,5.211c1.393,5.744-5.25,35.667-5.25,35.667L147.811,386C147.811,386,165,339.554,157.667,329.883z"/><path style="opacity:.2;enable-background:new" d="M157.667,329.883c-4.109-5.419-14.738-8.172-23.292-9.545l-2.877,21.451 c5.272,1.086,7.46,4.008,7.752,5.211c1.393,5.744-5.25,35.667-5.25,35.667L147.811,386C147.811,386,165,339.554,157.667,329.883z"/><polygon style="fill:#e4897b" points="171.9 380.25 170.84 386.88 169.87 393 161 393 161.77 385.17 162.5 377.67"/><path style="fill:#2e353a" d="M169.366,389.525l-9-0.561c-0.313-0.034-0.594,0.193-0.628,0.506c0,0.003-0.001,0.006-0.001,0.009 l-0.883,7.1c-0.048,0.776,0.536,1.447,1.312,1.504c3.143,0.145,4.651,0.057,8.614,0.273c2.431,0.145,7.222,0.662,10.576,0.337 c3.355-0.325,2.943-3.632,1.495-3.79c-3.435-0.391-7.985-2.915-10.135-4.831C170.34,389.746,169.864,389.553,169.366,389.525z"/><path style="fill:#407bff" d="M172.126,391.068c-0.721-0.062-1.433-0.204-2.123-0.422c-0.072-0.016-0.126-0.076-0.133-0.149 c-0.007-0.073,0.025-0.144,0.084-0.188c0.267-0.163,2.637-1.569,3.598-1.128c0.22,0.105,0.37,0.316,0.399,0.558 c0.109,0.371-0.006,0.771-0.294,1.029C173.202,391.055,172.656,391.162,172.126,391.068z M173.393,389.555 c-0.512-0.238-1.887,0.351-2.855,0.884c1.416,0.372,2.472,0.392,2.874,0.047c0.17-0.173,0.236-0.423,0.175-0.657 C173.575,389.71,173.501,389.606,173.393,389.555L173.393,389.555z"/><path style="fill:#407bff" d="M170.043,390.652c-0.025,0.012-0.053,0.015-0.08,0.007c-0.052-0.034-0.086-0.09-0.093-0.153 c0.004-0.071-0.034-2.416,0.817-3.15c0.228-0.186,0.526-0.263,0.815-0.21c0.328,0.031,0.594,0.282,0.644,0.608 c0.125,0.883-1.174,2.488-2.001,2.91C170.111,390.675,170.074,390.671,170.043,390.652z M171.344,387.531 c-0.151-0.011-0.299,0.042-0.409,0.145c-0.515,0.435-0.654,1.752-0.681,2.507c0.727-0.543,1.567-1.759,1.517-2.347 c-0.009-0.11-0.071-0.245-0.336-0.293L171.344,387.531z"/><polygon style="opacity:.2;enable-background:new" points="171.9 380.25 170.84 386.88 161.77 385.17 162.5 377.67"/><path style="fill:#e4897b" d="M128.455,246.628c0,4.757-0.553,9.284-3.485,11.4c4.05,3.46,8.575,6.322,13.437,8.497 c5.207-3.682,2.799-6.731,2.799-6.731c-4.549-2.499-3.131-8.321-1.706-12.045c0,0-1.119-1.809-7.5-1.833 C129.167,245.906,128.455,246.628,128.455,246.628z"/><path style="fill:#2e353a" d="M103.91,315.186c0,0-9.303,26.304,17.06,26.304c26.363,0,28.49-10.278,26.26-22.384L103.91,315.186 z"/><path style="fill:#2e353a" d="M147.23,319.031c0,0,28.103,1.18,35.437,10.852C190,339.554,172.811,386,172.811,386L159,382.667 c0,0,7.59-31.691,4.732-35.786s-18.405-4.356-39.402-5.452S147.23,319.031,147.23,319.031z"/><path style="fill:#407bff" d="M122.375,257.25l2.595-6.146c0,0,14.95,0.538,19.49,7.343 C149,265.25,122.375,257.25,122.375,257.25z"/><g><path style="fill:#407bff" d="M152.87,266.606c0.45,7.69,0,23.49-5.64,52.5l-43.32-3.92c0.28-6.13,9.452-27.132,7.502-54.792 c-0.296-4.115,2.801-7.69,6.916-7.986c0.085-0.006,0.17-0.011,0.254-0.014c2.13-0.08,15.119,3.755,21.218,4.672 c2.35,0.43,4.63,1,6.57,1.55C150.018,259.622,152.627,262.83,152.87,266.606z"/><path style="opacity:.2;enable-background:new" d="M152.87,266.606c0.45,7.69,0,23.49-5.64,52.5l-43.32-3.92 c0.28-6.13,9.452-27.132,7.502-54.792c-0.296-4.115,2.801-7.69,6.916-7.986c0.085-0.006,0.17-0.011,0.254-0.014 c2.13-0.08,15.119,3.755,21.218,4.672c2.35,0.43,4.63,1,6.57,1.55C150.018,259.622,152.627,262.83,152.87,266.606z"/></g><path style="fill:#407bff" d="M146.37,258.616c-4.761-1.031-5.285,12.884-1.827,16.884c3.458,4,21.908,7,21.908,7l3.42-12.5 C169.87,270,154.698,260.419,146.37,258.616z"/><path style="fill:#2e353a" d="M126.59,246.142c0,0-6.09-1.673-8.923-14.741c-2.833-13.068,9.627-18.901,23.73-16.068 c14.103,2.833,7.216,23.034-5.063,30.808C136.334,246.142,132.18,247.95,126.59,246.142z"/><path style="fill:#e4897b" d="M141.99,235.526c0.339,1.62,1.283,3.051,2.64,4c1.73,1.14,3.07-0.6,3-2.84 c-0.08-2-1.07-5.05-3-5.27C142.7,231.196,141.52,233.406,141.99,235.526z"/><g><path style="fill:#407bff" d="M183.746,285.915v4.256c0,1.888,1.531,3.419,3.419,3.419h68.479c1.194,0,2.162-0.968,2.162-2.162 v-5.514H183.746z"/><path style="opacity:.6;fill:#fff;enable-background:new" d="M183.746,285.915v4.256c0,1.888,1.531,3.419,3.419,3.419 h68.479c1.194,0,2.162-0.968,2.162-2.162v-5.514H183.746z"/></g><rect x="183.746" y="285.915" style="opacity:.2;enable-background:new" width="74.06" height="3.838"/><g><path style="fill:#407bff" d="M261.48,282.592h-79.574c-1.194,0-2.162,0.968-2.162,2.162l0,0c0,1.194,0.968,2.162,2.162,2.162 h79.698c1.268,0,2.28-1.091,2.151-2.385C263.642,283.405,262.611,282.592,261.48,282.592z"/><path style="opacity:.6;fill:#fff;enable-background:new" d="M261.48,282.592h-79.574c-1.194,0-2.162,0.968-2.162,2.162 l0,0c0,1.194,0.968,2.162,2.162,2.162h79.698c1.268,0,2.28-1.091,2.151-2.385C263.642,283.405,262.611,282.592,261.48,282.592z"/></g></g></g><g id="Chair"><g><polygon style="fill:#407bff" points="125.213 414 131.459 414 132.68 361.57 133.04 346 123.64 346 124 361.57"/><polygon style="opacity:.4;fill:#fff;enable-background:new" points="125.213 414 131.459 414 132.68 361.57 133.04 346 123.64 346 124 361.57"/><polygon style="opacity:.2;enable-background:new" points="133.04 346 132.68 362 124 362 123.64 346"/><g><g><polygon style="fill:#407bff" points="161.371 414 157.421 347.1 149.251 347.1 154.781 414"/><polygon style="opacity:.5;fill:#fff;enable-background:new" points="154.771 414 161.365 414 157.874 354.7 157.424 347 149.254 347 149.884 354.7"/><polygon style="opacity:.2;enable-background:new" points="149.254 347 149.884 355 157.874 355 157.424 347"/></g><g><polygon style="fill:#407bff" points="101.895 414 107.424 347.1 99.254 347.1 95.305 414"/><polygon style="opacity:.5;fill:#fff;enable-background:new" points="101.905 414 106.791 354.7 107.421 347 99.251 347 98.801 354.7 95.311 414"/><polygon style="opacity:.2;enable-background:new" points="107.421 347 106.791 355 98.801 355 99.251 347"/></g></g><path style="fill:#407bff" d="M156.798,338.333H99.877c-2.761,0-5,2.239-5,5v6.689h66.921v-6.689 C161.798,340.572,159.559,338.333,156.798,338.333z"/><g><g><rect x="121.049" y="274.009" transform="matrix(0.9908 -0.1357 0.1357 0.9908 -40.9394 19.6301)" style="fill:#407bff" width="5" height="72.325"/></g><g><rect x="90.049" y="274.009" transform="matrix(0.9908 -0.1357 0.1357 0.9908 -41.226 15.4242)" style="fill:#407bff" width="5" height="72.325"/></g><g style="opacity:.4;enable-background:new"><rect x="121.049" y="274.009" transform="matrix(0.9908 -0.1357 0.1357 0.9908 -40.9394 19.6301)" style="fill:#fff" width="5" height="72.325"/></g><g style="opacity:.4;enable-background:new"><rect x="90.049" y="274.009" transform="matrix(0.9908 -0.1357 0.1357 0.9908 -41.226 15.4242)" style="fill:#fff" width="5" height="72.325"/></g></g><g><path style="fill:#407bff" d="M162.993,344.178H93.682c-1.111,0-2.011,0.9-2.011,2.011v1.822c0,1.111,0.901,2.011,2.011,2.011 h69.311c1.111,0,2.011-0.901,2.011-2.011v-1.822C165.004,345.078,164.104,344.178,162.993,344.178z"/><path style="opacity:.6;fill:#fff;enable-background:new" d="M162.993,344.178H93.682c-1.111,0-2.011,0.9-2.011,2.011 v1.822c0,1.111,0.901,2.011,2.011,2.011h69.311c1.111,0,2.011-0.901,2.011-2.011v-1.822 C165.004,345.078,164.104,344.178,162.993,344.178z"/></g><g><polygon style="fill:#407bff" points="128.049 298.289 83.556 298.289 80 270.531 124.494 270.531"/><polygon style="opacity:.6;fill:#fff;enable-background:new" points="128.049 298.289 83.556 298.289 80 270.531 124.494 270.531"/></g></g></g></svg>