<?xml version="1.0" encoding="utf-8"?>
<!-- Generator: Adobe Illustrator 27.5.0, SVG Export Plug-In . SVG Version: 6.00 Build 0)  -->
<svg version="1.1" xmlns="http://www.w3.org/2000/svg" xmlns:xlink="http://www.w3.org/1999/xlink" x="0px" y="0px"
	 viewBox="0 0 500 500" style="enable-background:new 0 0 500 500;" xml:space="preserve">
<g id="BACKGROUND">
	<rect style="fill:#E6E2DE;" width="500" height="500"/>
	<rect y="379.194" style="fill:#FFFFFF;" width="500" height="120.805"/>
	<rect y="358.099" style="fill:#D1CBC7;" width="500" height="21.096"/>
</g>
<g id="OBJECTS">
	<g>
		<path style="fill:#E6E2DE;" d="M436.911,464.035H65.446c-5.675,0-10.318-4.643-10.318-10.319l0,0
			c0-5.675,4.643-10.319,10.318-10.319h371.465c5.675,0,10.318,4.643,10.318,10.319l0,0
			C447.229,459.392,442.586,464.035,436.911,464.035z"/>
		<path style="fill:#E6E2DE;" d="M365.828,446.608H223.662c-5.675,0-10.318-4.643-10.318-10.318v-4.127
			c0-5.675,4.643-10.318,10.318-10.318h142.166c5.675,0,10.318,4.643,10.318,10.318v4.127
			C376.146,441.965,371.503,446.608,365.828,446.608z"/>
		<g>
			<path style="fill:#73797F;" d="M362.21,439.862L362.21,439.862c1.896-0.382,3.134-2.246,2.752-4.142l-18.134-89.938
				c-0.382-1.896-2.246-3.134-4.142-2.752l0,0c-1.896,0.382-6.056,3.695-5.674,5.591l21.056,88.489
				C358.451,439.006,360.314,440.244,362.21,439.862z"/>
			<path style="fill:#73797F;" d="M331.637,438.027L331.637,438.027c1.896-0.382,3.134-2.246,2.752-4.142l-18.134-89.938
				c-0.382-1.896-2.246-3.134-4.141-2.752h0c-1.896,0.382-6.056,3.695-5.674,5.591l21.056,88.489
				C327.878,437.172,329.741,438.41,331.637,438.027z"/>
			<path style="fill:#73797F;" d="M236.93,431.301L236.93,431.301c-1.896-0.382-3.134-2.246-2.752-4.141l18.134-89.938
				c0.382-1.896,2.246-3.134,4.142-2.752l0,0c1.896,0.382,6.056,3.695,5.674,5.59l-21.056,88.489
				C240.689,430.445,238.826,431.684,236.93,431.301z"/>
			<path style="fill:#73797F;" d="M266.433,438.027L266.433,438.027c-1.896-0.382-3.134-2.246-2.752-4.142l18.134-89.938
				c0.382-1.896,2.246-3.134,4.141-2.752l0,0c1.896,0.382,6.056,3.695,5.674,5.591l-21.056,88.489
				C270.192,437.172,268.329,438.41,266.433,438.027z"/>
			<path style="fill:#F2CC43;" d="M280.758,219.602c7.722-3.089,8.255-17.121,29.962-18.955c21.707-1.834,45.86,1.223,57.172,19.567
				c11.312,18.344,4.586,83.465-5.503,111.287c-10.089,27.822-64.815,27.21-78.267,26.293c-13.452-0.917-17.121-2.752-16.815-12.841
				c0.306-10.089,25.07-41.885,25.376-45.248c0.306-3.363,0.306-36.382,0-41.885C292.376,252.316,279.229,220.214,280.758,219.602z"
				/>
			<path style="fill:#F99A2C;" d="M369.874,277.845c-2.258-0.241-4.764,2.359-6.446,3.597c-1.223,0.901-2.556,1.643-3.876,2.396
				c-0.087-0.03-0.168-0.07-0.258-0.094c-0.048-0.163-0.096-0.326-0.144-0.488c-0.23-0.309-0.618-0.395-0.92-0.119l0.054,0.471
				c-1.604,0.161-3.295,1.06-3.667,2.792c-2.129,9.913-1.46,20.286-3.674,30.215c-2.233,10.013-7.785,16.968-17.254,20.988
				c-8.732,3.707-18.542,5.438-27.817,7.156c-10.831,2.007-22.747,3.018-33.099,6.859c-0.918,0.34-1.21,1.982,0,2.17
				c11.616,1.8,24.409-0.619,35.88-2.584c10.577-1.812,21.427-3.249,31.199-7.961c8.719-4.204,15.027-11.304,17.957-20.552
				c1.582-4.994,2.174-10.291,2.689-15.484c0.495-4.989,1.259-10.129,1.516-15.201c2.96-1.259,5.642-3.626,7.365-6.116
				C370.31,284.541,373.361,278.218,369.874,277.845z"/>
			<path style="fill:#F99A2C;" d="M365.086,221.299c-4.518-7.56-11.323-13.13-19.861-15.456c-9.526-2.596-20.49-3.906-30.331-3.186
				c-8.588,0.629-17.704,2.805-24.017,9.037c-0.487,0.481-0.525,1.196-0.23,1.781l0.191,0.38c0.207,0.411,0.779,0.518,1.157,0.303
				c0.094-0.053,0.158-0.098,0.222-0.188c0.972-1.377,6.807-3.165,8.813-3.877c3.943-1.4,8.04-2.284,12.224-2.506
				c9.142-0.484,18.035,1.644,26.818,3.888c8.476,2.166,14.873,6.369,19.159,14.152c3.949,7.17,4.527,14.834,6.439,22.588
				c0.96,3.893,6.528,2.839,6.742-0.912C372.896,238.826,369.39,228.501,365.086,221.299z"/>
			<path style="fill:#2D4B63;" d="M212.885,435.908c-4.242,0.268-15.249,1.987-18.115,4.166c-2.866,2.178-4.471,7.911,2.293,8.828
				c6.764,0.917,20.064,0.803,23.274,0.229c3.21-0.573,5.159-7.452,4.357-11.121C223.892,434.341,212.885,435.908,212.885,435.908z"
				/>
			<path style="fill:#E6B5A0;" d="M216.248,413.284c0,0-3.669,18.344-3.363,22.624c0.306,4.28,9.783,6.42,11.618,3.363
				c1.834-3.057,8.255-23.236,8.561-25.07S216.86,412.366,216.248,413.284z"/>
			<path style="fill:#2D4B63;" d="M264.195,438.008c-3.727,2.043-12.962,8.273-14.633,11.462c-1.67,3.189-0.69,9.061,5.824,7.02
				c6.514-2.041,18.507-7.791,21.17-9.673c2.663-1.882,1.507-8.938-0.777-11.919C273.495,431.916,264.195,438.008,264.195,438.008z"
				/>
			<path style="fill:#E6B5A0;" d="M257.635,416.095c0,0,4.466,18.166,6.56,21.912c2.094,3.746,11.584,1.66,11.947-1.887
				c0.363-3.547-2.391-24.542-2.892-26.333C272.747,407.997,257.799,415.005,257.635,416.095z"/>
			<path style="fill:#2D4B63;" d="M272.809,307.959c-10.089,3.057-26.293,7.338-36.688,21.096
				c-10.395,13.758,18.65,88.662,20.79,91.414c2.14,2.752,16.204-1.223,18.038-3.669c1.834-2.446-8.866-64.204-8.866-70.93
				c0-6.726,8.255-23.541,8.56-24.459c0.306-0.917,5.503-13.758,5.503-13.758L272.809,307.959z"/>
			<path style="fill:#2D4B63;" d="M355.662,305.819c0.917,7.338-3.363,26.905-19.567,33.936
				c-10.583,4.593-53.197,7.338-66.344,14.675c-13.146,7.337-34.242,61.758-35.771,64.204s-18.955,1.223-20.79-1.529
				c-1.834-2.752,13.758-66.955,24.764-80.713c11.006-13.758,36.382-26.905,42.191-28.739
				C285.955,305.819,355.662,305.819,355.662,305.819z"/>
			<path style="fill:#E6B5A0;" d="M371.255,250.787c0,0,1.223,4.892,1.223,9.478c0,4.586-10.701,15.287-11.924,14.675
				c-1.223-0.611-8.866-0.917-9.783-3.669c-0.917-2.752-2.446-14.369-2.14-15.898C348.936,253.844,371.255,250.787,371.255,250.787z
				"/>
			<path style="fill:#E6B5A0;" d="M283.204,261.793c0,0,2.419,10.842,0,14.064s-11.006,13.758-14.981,14.675
				c-3.975,0.917-10.089-26.905-8.866-27.21S283.204,261.793,283.204,261.793z"/>
			<path style="fill:#FFFFFF;" d="M304.146,206.532c-5.656,1.758-24,9.401-29.809,15.21s-14.064,26.599-15.898,37.911
				c0,0,14.064,7.338,22.624,5.809l-3.974,40.662c0,0,57.783,5.503,83.159,0.306c0,0-6.955-35.389-7.261-43.949
				c0,0,15.057-1.529,21.783-5.503c0,0-8.713-32.178-14.217-40.127c-5.503-7.949-32.56-12.153-32.56-12.153l-18.802-0.076
				L304.146,206.532z"/>
			<path style="fill:#E6B5A0;" d="M372.478,260.265c0,0,2.14,18.038-3.669,22.624c-4.947,3.906-44.943,10.395-50.752,11.618
				s-18.65,0-19.873-0.306c-1.223-0.306,0-2.752,3.057-4.28c3.057-1.529,4.32-2.67,9.172-3.363c5.997-0.857,13.3-5.569,9.478-3.057
				C316.093,285.996,372.478,260.265,372.478,260.265z"/>
			<path style="fill:#E6B5A0;" d="M304.605,196.214c0.229,0.688-0.459,10.319-0.459,10.319s10.777,8.713,23.847-1.834
				c0,0-3.21-11.924-3.898-13.529C323.408,189.564,304.605,196.214,304.605,196.214z"/>
			<path style="fill:#1E3547;" d="M301.166,195.067c-6.65-4.586-15.822-4.127-19.49-16.968c-3.669-12.841-0.459-18.115-2.522-23.847
				s5.287-24.396,18.115-22.471c4.586,0.688,9.172-8.943,23.159-0.688c13.987,8.255,21.783,9.401,22.93,22.013
				c1.146,12.611,3.669,36.917-20.178,40.815C302.938,197.229,301.166,195.067,301.166,195.067z"/>
			<path style="fill:#DC9373;" d="M317.519,202.431c3.178-0.269,6.387-0.695,9.344-1.878c-0.995-3.607-2.348-8.407-2.767-9.384
				c-0.688-1.605-19.49,5.045-19.49,5.045c0.106,0.317,0.016,2.532-0.111,4.829C308.439,202.802,313.128,202.803,317.519,202.431z"
				/>
			<path style="fill:#E6B5A0;" d="M328.845,166.25c0,0,6.439-0.238,7.154,5.485c0.651,5.206-5.485,7.392-5.485,7.392
				s-2.385,20.985-18.6,20.985c-16.215,0-22.177-19.315-22.654-31.477c0,0,2.348-4.871,6.402-7.733s3.119-6.244,5.962-6.65
				c1.605-0.229,5.76-0.211,11.006,5.274C317.877,165.01,326.222,165.773,328.845,166.25z"/>
			<path style="fill:#DC9373;" d="M333.918,172.847c-0.237-0.307-1.399-1.521-1.546-0.853c0.025-0.112,0.052-0.224,0.083-0.334
				c0.035-0.122,0.075-0.242,0.126-0.38c0.006-0.013,0.007-0.013,0.018-0.037c0.027-0.058,0.055-0.115,0.084-0.172
				c0.058-0.113,0.122-0.223,0.19-0.33c0.034-0.053,0.07-0.105,0.106-0.157c0.059-0.088,0.009-0.016,0.048-0.066
				c0.221-0.274,0.506-0.514,0.502-0.895c-0.002-0.246-0.18-0.514-0.433-0.568c-0.512-0.109-0.915,0.266-1.242,0.613
				c-0.269,0.285-0.511,0.608-0.704,0.949c-0.405,0.715-0.621,1.538-0.615,2.361c0.007,0.915,0.395,1.806,1.138,2.355
				c0.335,0.247,0.756,0.388,1.174,0.362c0.458-0.029,0.787-0.205,1.058-0.591c0.443-0.633,0.393-1.534,0.05-2.2
				C333.951,172.891,333.938,172.872,333.918,172.847z"/>
			<path style="fill:#172936;" d="M340.82,165.594c-0.468-0.263-0.522-0.778-0.94-1.083c-0.321-0.234-0.776-0.339-1.149-0.423
				c-1.021-0.232-2.136-0.245-3.175-0.225c-1.961,0.038-3.864,0.453-5.788,0.787c-3.799,0.661-7.207-0.194-10.484-2.169
				c-3.177-1.914-5.754-4.519-8.599-6.858c-2.406-1.978-5.86-3.958-8.997-2.711c-0.07-0.235-0.155-0.469-0.204-0.725
				c-0.025-0.131-0.227-0.189-0.313-0.083c-0.269,0.332-0.569,0.468-0.857,0.758c-0.359,0.361-0.52,0.87-0.732,1.321
				c-0.436,0.924-0.983,1.806-1.647,2.584c-1.452,1.702-3.506,2.701-4.947,4.405c-1.363,1.613-2.256,3.536-3.51,5.223
				c-1.465,1.972-3.381,2.986-5.851,2.619c-0.591-0.088-0.883,0.586-0.4,0.95c1.843,1.388,4.462,0.408,6.066-0.886
				c1.932-1.559,3.025-3.824,4.452-5.799c1.491-2.063,3.808-3.141,5.476-5.022c0.757-0.854,1.421-1.8,1.941-2.817
				c0.182-0.356,0.377-0.74,0.506-1.135c1.942-0.126,3.58,0.26,5.277,1.292c1.613,0.98,2.938,2.331,4.324,3.594
				c2.565,2.336,5.27,4.651,8.375,6.242c3.121,1.6,6.417,2.267,9.902,1.777c2.01-0.283,3.97-0.786,6.011-0.822
				c0.955-0.017,1.893,0.106,2.844,0.145c0.381,0.015,0.852,0.073,1.224-0.062c0.499-0.181,0.531-0.532,1.105-0.543
				C340.904,165.925,340.979,165.683,340.82,165.594z"/>
			<path style="fill:#172936;" d="M298.583,144.992c-0.076-0.123-0.306-0.083-0.291,0.079c0.098,1.089-0.236,2.202-0.548,3.234
				c-0.289,0.956-0.666,1.891-1.189,2.745c-0.555,0.906-1.319,1.661-2.246,2.181c-1.084,0.608-2.243,0.991-3.202,1.811
				c-1.846,1.58-2.462,4.182-3.344,6.346c-0.457,1.123-1.185,2.057-2.44,2.297c-0.559,0.107-1.034-0.176-1.561-0.155
				c-0.098,0.004-0.317-0.014-0.359,0.119c-0.275,0.863,1.282,1.271,1.85,1.327c1.167,0.114,2.291-0.325,3.186-1.058
				c1.222-1.002,1.889-2.233,2.478-3.666c0.486-1.183,0.98-2.538,2.002-3.37c1.049-0.855,2.441-1.186,3.53-2.005
				c1.023-0.769,1.876-1.752,2.486-2.879C300.233,149.603,299.963,147.241,298.583,144.992z"/>
			<path style="fill:#172936;" d="M295.665,139.589c-0.087-0.127-0.337-0.098-0.32,0.087c0.085,0.957-0.659,1.935-1.137,2.715
				c-0.481,0.784-1.122,1.414-1.853,1.969c-1.596,1.21-3.387,2.141-4.63,3.76c-0.587,0.766-0.981,1.631-1.159,2.581
				c-0.165,0.881-0.124,1.861-0.408,2.712c-0.286,0.857-1.116,1.161-1.933,1.315c-0.687,0.13-1.613,0.036-2.185,0.482
				c-0.075,0.058-0.05,0.17,0,0.232c0.517,0.641,1.835,0.702,2.592,0.656c0.921-0.057,1.829-0.326,2.526-0.953
				c0.752-0.676,1.211-1.669,1.396-2.65c0.204-1.08,0.309-2.062,0.988-2.972c1.34-1.796,3.578-2.675,5.184-4.193
				c0.789-0.746,1.529-1.688,1.758-2.775C296.724,141.412,296.287,140.497,295.665,139.589z"/>
			<path style="fill:#172936;" d="M338.903,157.767c-0.95-0.107-1.66-0.262-2.625-0.156c-0.865,0.095-1.716,0.258-2.572,0.413
				c-1.668,0.302-3.346,0.503-5.044,0.398c-3.483-0.215-6.069-1.895-8.379-4.399c-1.893-2.052-3.68-4.355-6.192-5.691
				c-1.491-0.793-3.116-1.072-4.754-1.399c-1.822-0.364-3.751-1.006-4.487-2.891c-0.154-0.395-0.864-0.395-0.813,0.11
				c0.399,3.953,4.989,4.129,7.892,5.113c3.199,1.084,5.229,4.047,7.421,6.432c2.335,2.54,5.002,4.433,8.511,4.874
				c1.874,0.235,3.761,0.081,5.62-0.207c0.971-0.151,1.945-0.342,2.868-0.683c1.067-0.395,1.752-0.942,2.631-1.621
				C339.107,157.962,339.064,157.786,338.903,157.767z"/>
			<path style="fill:#172936;" d="M339.11,151.461c-0.033-0.174-0.265-0.136-0.316,0c-0.342,0.906-3.419,0.577-4.257,0.576
				c-1.615-0.003-3.23-0.133-4.78-0.614c-3.279-1.017-4.842-3.602-6.797-6.185c-0.785-1.037-1.637-2.019-2.715-2.761
				c-1.406-0.969-3.034-1.252-4.703-1.383c-1.791-0.141-3.451-0.314-5.03-1.244c-1.384-0.815-2.3-2.107-3.61-2.982
				c-0.086-0.058-0.199,0.019-0.2,0.115c-0.017,1.565,1.214,2.896,2.381,3.822c1.489,1.181,3.252,1.758,5.117,2.004
				c2.044,0.27,4.043,0.378,5.639,1.831c1.309,1.193,2.202,2.763,3.249,4.174c2.219,2.99,5.096,4.658,8.789,5.198
				C333.836,154.297,339.792,155.082,339.11,151.461z"/>
			<path style="fill:#172936;" d="M337.194,145.237c-5.035-0.423-9.799-1.839-13.568-5.355c-1.611-1.503-2.869-3.564-4.941-4.482
				c-1.59-0.705-3.779-0.864-5.158,0.357c-0.052,0.046-0.01,0.134,0.055,0.133c1.182-0.005,2.316-0.128,3.473,0.202
				c1.224,0.35,2.153,1.082,2.972,2.035c1.562,1.818,2.959,3.559,4.924,4.979c1.846,1.334,3.927,2.359,6.119,2.979
				c2.086,0.59,4.514,1.112,6.244-0.555C337.431,145.42,337.336,145.249,337.194,145.237z"/>
			<path style="fill:#172936;" d="M288.538,182.864c-0.491-0.571-0.997-1.051-1.369-1.717c-0.403-0.722-0.692-1.508-0.955-2.29
				c-0.37-1.098-0.603-2.217-0.837-3.349c-0.054-0.26-0.262-2.471-0.847-2.13c-0.326,0.19-0.389,0.498-0.427,0.856
				c-0.054,0.511-0.057,1.038-0.047,1.551c0.02,1.015,0.195,2.05,0.4,3.043c0.352,1.702,0.925,3.455,2.119,4.764
				c0.471,0.517,1.489,1.193,2.184,0.711C289.331,183.906,288.883,183.265,288.538,182.864z"/>
			<path style="fill:#172936;" d="M339.872,173.618c-0.107-0.645-0.238-1.859-0.993-2.091c-0.187-0.058-0.917,0.075-0.648,0.403
				c0.207,0.253,0.262,1.077,0.296,1.445c0.058,0.632,0.054,1.267-0.005,1.899c-0.124,1.317-0.515,2.675-1.036,3.889
				c-0.527,1.229-1.235,2.402-2.053,3.458c-0.393,0.508-0.825,0.985-1.233,1.482c-0.213,0.26-0.41,0.531-0.621,0.793
				c-0.055,0.068-0.117,0.141-0.177,0.204c-0.037,0.04-0.078,0.075-0.121,0.107c-0.148-0.061-0.266,0.112-0.24,0.24
				c0.054,0.256,0.043,0.423,0.281,0.607c0.307,0.237,0.727,0.253,1.089,0.173c0.882-0.196,1.527-1.013,2.061-1.694
				c1.249-1.594,2.265-3.357,2.922-5.278C340.017,177.434,340.186,175.518,339.872,173.618z"/>
			<path style="fill:#D1CBC7;" d="M328.876,204.378c-0.081-0.504-0.66-0.687-1.086-0.617c-0.751,0.125-1.379,1.104-1.936,1.582
				c-0.838,0.718-1.753,1.344-2.715,1.884c-1.86,1.044-3.939,1.75-6.06,2.007c-2.128,0.257-4.351,0.109-6.424-0.433
				c-1.148-0.3-2.277-0.708-3.343-1.229c-1.01-0.494-1.924-1.195-2.954-1.635c-0.423-0.181-1.079,0.241-0.727,0.727
				c1.368,1.888,4.01,3.052,6.164,3.757c2.474,0.81,5.074,1.081,7.657,0.752c2.353-0.299,4.633-1.051,6.707-2.202
				c1.062-0.589,2.058-1.289,2.984-2.075C327.913,206.243,329.055,205.496,328.876,204.378z"/>
			<path style="fill:#D1CBC7;" d="M283.17,242.006c-0.051-0.089-0.177-0.083-0.229,0c-0.939,1.468-0.769,3.964-0.877,5.656
				c-0.134,2.095-0.297,4.188-0.47,6.28c-0.174,2.092-0.361,4.183-0.548,6.274c-0.096,1.079-0.192,2.158-0.289,3.237
				c-0.045,0.505-0.148,1.025-0.123,1.518c-1.414,0.07-2.828,0.105-4.243,0.004c-1.695-0.12-3.347-0.553-5.029-0.677
				c-0.466-0.034-0.614,0.643-0.233,0.859c1.501,0.851,3.345,1.178,5.044,1.43c1.771,0.262,3.564,0.401,5.352,0.231
				c0.509-0.048,0.947-0.4,0.947-0.947c0-0.167-0.063-0.325-0.15-0.471c0.16-0.457,0.157-0.969,0.201-1.498
				c0.09-1.074,0.18-2.148,0.269-3.223c0.179-2.167,0.345-4.336,0.49-6.506c0.145-2.169,0.263-4.34,0.349-6.512
				C283.696,245.964,284.053,243.537,283.17,242.006z"/>
			<path style="fill:#D1CBC7;" d="M374.729,256.165c-1.591-0.268-3.403,1.056-4.855,1.629c-1.68,0.663-3.335,1.263-5.088,1.718
				c-1.803,0.468-3.633,0.838-5.478,1.098c-0.944,0.133-1.893,0.232-2.843,0.307c-0.569,0.044-2.169,0.404-2.68,0.136
				c-0.39-0.205-0.311-0.598-0.375-1.089c-0.063-0.483-0.126-0.966-0.188-1.449c-0.125-0.966-0.247-1.933-0.371-2.899
				c-0.248-1.934-0.491-3.869-0.749-5.801c-0.258-1.934-0.511-3.869-0.759-5.805c-0.214-1.667-0.126-3.98-1.03-5.422
				c-0.095-0.151-0.298-0.108-0.357,0.047c-0.365,0.96-0.186,1.952-0.122,2.956c0.072,1.13,0.16,2.258,0.247,3.387
				c0.174,2.258,0.344,4.516,0.549,6.771c0.205,2.257,0.425,4.512,0.655,6.767c0.138,1.358-0.092,3.78,1.493,4.392
				c0.718,0.277,1.596,0.136,2.347,0.102c1.042-0.047,2.083-0.128,3.12-0.241c2.017-0.22,4.023-0.551,6-1.006
				c2.021-0.465,4.059-1.031,6.023-1.694c0.942-0.318,1.87-0.686,2.784-1.075c0.872-0.371,1.741-0.635,2.214-1.5
				C375.522,257.026,375.326,256.266,374.729,256.165z"/>
			<path style="fill:#DC9373;" d="M359.252,266.6c-0.818-0.279-1.673,0.329-2.395,0.656c-0.872,0.396-1.746,0.786-2.623,1.171
				c-0.845,0.371-1.69,0.752-2.517,1.161c-0.411,0.203-0.818,0.422-1.222,0.64c-0.326,0.176-0.684,0.357-0.909,0.658
				c-0.011,0.015,0,0.043,0.019,0.046c0.737,0.129,1.666-0.295,2.36-0.518c0.907-0.291,1.804-0.639,2.685-0.999
				c0.846-0.346,1.69-0.698,2.532-1.054c0.752-0.318,1.874-0.56,2.224-1.381C359.473,266.821,359.424,266.659,359.252,266.6z"/>
			<path style="fill:#1E3547;" d="M266.587,356.218c-4.799,4.408-7.85,10.259-10.887,15.931c-1.752,3.273-3.505,6.547-5.257,9.821
				c-0.857,1.6-1.713,3.201-2.57,4.801c-0.854,1.595-2.049,3.271-2.461,5.047c-0.133,0.573,0.581,1.049,1.018,0.593
				c1.162-1.211,1.842-2.903,2.643-4.365c0.871-1.592,1.743-3.184,2.614-4.775c1.783-3.256,3.565-6.512,5.348-9.768
				c3.097-5.656,6.032-11.564,10.844-15.992C268.748,356.712,267.453,355.423,266.587,356.218z"/>
			<path style="fill:#1E3547;" d="M273.681,310.001c-0.818-0.066-1.516,0.366-2.25,0.694c-0.797,0.356-1.588,0.723-2.375,1.102
				c-1.572,0.757-3.123,1.56-4.649,2.406c-3.053,1.692-6.01,3.558-8.852,5.584c-5.684,4.051-11.083,8.701-15.625,14.014
				c-2.365,2.766-5.157,5.884-6.33,9.388c-0.085,0.252,0.234,0.372,0.405,0.236c2.567-2.055,4.562-4.93,6.78-7.347
				c2.267-2.47,4.609-4.884,7.079-7.152c5.024-4.614,10.558-8.653,16.479-12.038c1.632-0.933,3.292-1.816,4.978-2.647
				c0.843-0.415,1.693-0.818,2.548-1.207c0.839-0.382,1.906-0.641,2.502-1.364C274.924,310.998,274.558,310.072,273.681,310.001z"/>
			<path style="fill:#1E3547;" d="M205.314,439.304c-0.029-0.152-0.057-0.304-0.086-0.457l-0.172-0.914
				c-0.089-0.47-0.303-0.884-0.686-1.18c-0.369-0.285-0.841-0.399-1.298-0.285c-0.365,0.091-0.685,0.343-0.872,0.668
				c-0.169,0.292-0.221,0.673-0.131,0.999c0.07,0.253,0.249,0.518,0.47,0.686c0.027,0.157,0.05,0.315,0.079,0.468
				c0.122,0.65,0.179,1.353,0.828,1.725c0.248,0.142,0.526,0.188,0.807,0.15c0.25-0.034,0.563-0.141,0.726-0.348
				c0.125-0.158,0.212-0.264,0.287-0.441c0.074-0.176,0.11-0.358,0.113-0.55C205.379,439.65,205.346,439.476,205.314,439.304z"/>
			<g>
				<path style="fill:#1E3547;" d="M206.988,436.37c0.032-0.02,0.072-0.015,0.106-0.029
					C207.122,436.328,207.089,436.337,206.988,436.37z"/>
				<path style="fill:#1E3547;" d="M209.281,439.908c-0.177-0.492-0.353-0.977-0.478-1.486c-0.061-0.249-0.111-0.51-0.188-0.754
					c-0.035-0.111-0.085-0.219-0.124-0.329c-0.045-0.129-0.087-0.288-0.157-0.398c-0.043-0.066-0.092-0.116-0.141-0.168
					c-0.127-0.174-0.27-0.295-0.449-0.37c0.027,0.007,0.055,0.015,0.082,0.022c-0.031-0.018-0.063-0.037-0.094-0.055
					c-0.192-0.112-0.43-0.111-0.637-0.029c-0.025,0.012-0.099,0.043-0.231,0.094c-0.115,0.062-0.208,0.147-0.278,0.255
					c-0.045,0.045-0.08,0.096-0.104,0.154c0.133-0.166,0.139-0.171,0.017-0.016c-0.167,0.216-0.219,0.449-0.261,0.708
					c-0.065,0.394-0.064,0.737-0.018,1.128c0.092,0.784,0.315,1.545,0.659,2.256c0.131,0.271,0.496,0.538,0.785,0.604
					c0.294,0.067,0.577,0.052,0.856-0.066C209.083,441.221,209.503,440.527,209.281,439.908z"/>
			</g>
			<path style="fill:#1E3547;" d="M259.131,444.899c-0.146-0.269-0.385-0.437-0.656-0.555c0.005,0.002,0.01,0.004,0.015,0.007
				c-0.128-0.056-0.245-0.132-0.362-0.208c-0.066-0.061-0.135-0.121-0.194-0.191c-0.523-0.71-1.035-1.441-1.946-1.681
				c-0.326-0.086-0.701-0.041-0.993,0.13c-0.267,0.156-0.522,0.463-0.592,0.77c-0.147,0.647,0.169,1.243,0.754,1.508
				c0.006,0.005,0.01,0.011,0.015,0.016l-0.061-0.026c0.031,0.014,0.058,0.036,0.087,0.053c0.07,0.066,0.139,0.134,0.201,0.209
				c0.259,0.375,0.48,0.78,0.81,1.1c0.22,0.214,0.476,0.415,0.751,0.554c0.17,0.086,0.372,0.174,0.565,0.214
				c0.138,0.029,0.347,0.064,0.453,0.064c0.374,0,0.681-0.155,0.951-0.403C259.358,446.069,259.396,445.387,259.131,444.899z"/>
			<g>
				<polygon style="fill:#1E3547;" points="259.654,439.877 259.648,439.875 259.642,439.874 259.649,439.876 				"/>
				<path style="fill:#1E3547;" d="M262.074,442.141c-0.101-0.177-0.241-0.338-0.362-0.502c-0.177-0.24-0.344-0.492-0.552-0.706
					c-0.38-0.39-0.758-0.842-1.3-0.995c0.082,0.035,0.165,0.07,0.247,0.104c-0.149-0.077-0.297-0.132-0.452-0.165
					c0.009,0.003,0.019,0.007,0.032,0.012c-0.013-0.006-0.025-0.008-0.038-0.013c-0.075-0.015-0.147-0.037-0.23-0.032
					c0.075,0.01,0.149,0.02,0.223,0.03c-0.138-0.054-0.268-0.09-0.426-0.068c-0.228,0.031-0.389,0.133-0.528,0.318
					c-0.125,0.165-0.153,0.356-0.137,0.549c-0.012,0.081-0.022,0.16-0.01,0.254c0.006,0.046,0.014,0.091,0.021,0.137
					c0.03,0.514,0.332,0.991,0.566,1.436c0.096,0.182,0.224,0.345,0.344,0.512c0.173,0.242,0.339,0.501,0.538,0.72
					c0.21,0.232,0.617,0.399,0.929,0.385c0.297-0.013,0.56-0.1,0.796-0.282C262.251,443.437,262.401,442.715,262.074,442.141z"/>
			</g>
			<path style="fill:#172936;" d="M302.099,169.693c-0.228-0.785-1.166-1.199-1.89-1.424c-0.695-0.216-1.431-0.244-2.144-0.119
				c-0.6,0.106-1.21,0.376-1.701,0.735c-0.324,0.237-0.641,0.482-0.867,0.818c-0.125,0.186-0.233,0.379-0.264,0.605
				c-0.02,0.148-0.012,0.287,0.027,0.434c0.026,0.099,0.137,0.419,0.049,0.148c0.092,0.283,0.36,0.527,0.674,0.513
				c-0.042-0.008-0.084-0.017-0.126-0.025c0.074,0.01,0.149,0.02,0.223,0.03c0.076,0.004,0.158-0.01,0.232-0.021
				c0.174-0.023,0.319-0.083,0.458-0.191c0.088-0.067,0.103-0.079,0.077-0.06c0.146-0.101,0.284-0.211,0.415-0.331
				c0.023-0.021,0.021-0.018,0.028-0.025c0.031-0.022,0.062-0.045,0.093-0.067c0.104-0.071,0.212-0.135,0.322-0.195
				c0.049-0.026,0.102-0.048,0.15-0.076c0.002-0.001,0-0.001,0.002-0.002c0.11-0.039,0.218-0.08,0.331-0.11
				c0.054-0.015,0.108-0.028,0.162-0.04c0.034-0.008,0.265-0.067,0.103-0.025c-0.143,0.037,0.03-0.004,0.064-0.008
				c0.057-0.006,0.114-0.011,0.171-0.014c0.129-0.007,0.258-0.007,0.386,0.001c0.014,0.001,0.055,0,0.094,0.002
				c0.011,0.003,0.017,0.006,0.043,0.011c0.126,0.027,0.252,0.054,0.376,0.09c0.055,0.016,0.109,0.034,0.164,0.053
				c0.007,0.003,0.029,0.011,0.052,0.019c0.04,0.018,0.108,0.048,0.123,0.056c0.051,0.026,0.102,0.053,0.152,0.081
				c0.1,0.057,0.193,0.122,0.29,0.183c0.239,0.15,0.472,0.211,0.753,0.229C301.781,171.013,302.274,170.294,302.099,169.693z"/>
			<path style="fill:#172936;" d="M320.242,169.621c-0.257-0.787-0.999-1.377-1.712-1.751c-0.663-0.348-1.452-0.598-2.209-0.588
				c-0.137,0.002-0.28,0.023-0.415,0.052c-0.034,0.007-0.081,0.02-0.079,0.021c-0.201,0.036-0.405,0.049-0.604,0.094
				c-0.37,0.083-0.727,0.225-1.068,0.389c-0.606,0.293-1.52,0.929-1.484,1.693c0.016,0.341,0.277,0.632,0.632,0.632
				c0.552-0.001,1.107-0.51,1.558-0.692c0.179-0.072,0.496-0.158,0.741-0.197c0.021-0.003,0.051-0.006,0.069-0.007
				c0.067-0.004,0.133-0.008,0.2-0.011c0.022-0.001,0.044,0,0.061,0c0.13,0.015,0.26,0.046,0.391,0.059
				c0.012,0.001,0.085,0.011,0.12,0.014c0.038,0.008,0.095,0.019,0.104,0.021c0.131,0.028,0.26,0.063,0.387,0.105
				c0.064,0.021,0.127,0.043,0.19,0.067c0.007,0.003,0.003,0.001,0.009,0.003c0.007,0.004,0.003,0.003,0.018,0.01
				c0.135,0.067,0.268,0.136,0.396,0.216c0.057,0.035,0.112,0.073,0.168,0.111c0.019,0.013,0.029,0.021,0.042,0.031
				c0.096,0.08,0.19,0.163,0.278,0.252c0.301,0.303,0.536,0.581,0.965,0.717C319.716,171.093,320.478,170.342,320.242,169.621z"/>
			<path style="fill:#172936;" d="M301.504,175.877c-0.025-0.308-0.09-0.612-0.208-0.902c-0.093-0.227-0.203-0.445-0.335-0.651
				c-0.036-0.076-0.063-0.155-0.101-0.23c-0.233-0.466-0.59-0.862-1.12-0.994c-0.572-0.143-1.186,0.071-1.581,0.495
				c-0.565,0.607-0.674,1.467-0.731,2.255c-0.028,0.383,0.01,0.753,0.077,1.131c0.079,0.446,0.297,0.834,0.587,1.178
				c0.262,0.31,0.659,0.541,1.053,0.643c0.572,0.148,1.177-0.06,1.597-0.452c0.265-0.247,0.425-0.582,0.541-0.918
				c0.008-0.022,0.017-0.044,0.022-0.067c0.005-0.024,0.004-0.027-0.001-0.019c0.029-0.069,0.059-0.138,0.082-0.207
				c0.039-0.118,0.065-0.241,0.083-0.364c0.041-0.276,0.053-0.556,0.036-0.834C301.504,175.919,301.506,175.898,301.504,175.877z"/>
			<path style="fill:#172936;" d="M317.67,175.303c-0.025-0.308-0.09-0.612-0.208-0.902c-0.093-0.227-0.203-0.446-0.335-0.651
				c-0.036-0.076-0.063-0.155-0.101-0.23c-0.233-0.466-0.59-0.862-1.12-0.994c-0.572-0.143-1.186,0.071-1.581,0.495
				c-0.565,0.607-0.674,1.467-0.731,2.255c-0.028,0.383,0.01,0.753,0.077,1.131c0.079,0.446,0.297,0.834,0.587,1.178
				c0.262,0.31,0.659,0.541,1.053,0.643c0.572,0.148,1.177-0.06,1.597-0.452c0.265-0.247,0.425-0.582,0.541-0.918
				c0.007-0.022,0.016-0.044,0.021-0.067c0.005-0.024,0.004-0.027-0.001-0.019c0.029-0.069,0.059-0.138,0.082-0.207
				c0.039-0.118,0.065-0.241,0.083-0.364c0.041-0.275,0.053-0.556,0.036-0.834C317.67,175.346,317.671,175.325,317.67,175.303z"/>
			<g>
				<path style="fill:#DC9373;" d="M307.926,181.403c-0.01,0.001-0.019,0.003-0.031,0.005l0.004,0
					C307.908,181.406,307.917,181.405,307.926,181.403z"/>
				<path style="fill:#DC9373;" d="M310.785,181.32c-0.095-0.228-0.204-0.444-0.435-0.566c-0.229-0.121-0.475-0.159-0.729-0.095
					c-0.137,0.034-0.262,0.101-0.372,0.186c-0.005,0.004-0.103,0.072-0.149,0.122c-0.035,0.02-0.071,0.041-0.107,0.06
					c-0.14,0.074-0.295,0.129-0.435,0.204c0.045-0.019,0.069-0.024-0.015,0.007c-0.017,0.009-0.036,0.016-0.052,0.025
					c0.013-0.008,0.028-0.015,0.043-0.022c-0.044,0.016-0.087,0.032-0.131,0.046c-0.089,0.03-0.179,0.056-0.27,0.077
					c-0.067,0.015-0.137,0.026-0.206,0.039c0.048-0.006,0.074-0.005-0.026,0.005h0c-0.014,0.003-0.028,0.004-0.042,0.008
					c0.012-0.003,0.025-0.005,0.037-0.008c-0.045,0.004-0.089,0.008-0.134,0.01c-0.183,0.01-0.362-0.003-0.545-0.015
					c-0.02-0.001-0.153-0.009-0.222-0.013c-0.04-0.008-0.08-0.015-0.119-0.024c-0.085-0.019-0.168-0.044-0.251-0.07
					c-0.041-0.013-0.081-0.027-0.121-0.04c-0.007-0.002-0.005-0.001-0.011-0.003c0,0,0,0,0,0c-0.101-0.059-0.222-0.111-0.33-0.15
					c-0.034-0.012-0.1-0.037-0.032-0.008c-0.048-0.02-0.094-0.044-0.139-0.068c-0.338-0.175-0.761,0.115-0.654,0.503
					c0.074,0.268,0.182,0.493,0.366,0.704c0.164,0.188,0.363,0.349,0.575,0.481c0.465,0.289,0.968,0.411,1.511,0.443
					c0.494,0.029,1.015-0.036,1.493-0.159c0.278-0.071,0.548-0.193,0.801-0.326C310.551,182.43,311.022,181.889,310.785,181.32z"/>
				<path style="fill:#DC9373;" d="M308.542,181.238c0.005-0.003,0.01-0.005,0.015-0.007c-0.008,0.003-0.015,0.007-0.024,0.011
					c0.001,0,0.001,0,0.002-0.001C308.539,181.239,308.538,181.239,308.542,181.238z"/>
			</g>
			<path style="fill:#FFFFFF;" d="M311.697,186.136c-0.275-0.275-0.602-0.305-0.966-0.255c0.239-0.034,0.192-0.028-0.142,0.018
				c-0.112,0.04-0.223,0.085-0.331,0.136c-0.256,0.198-0.297,0.23-0.124,0.095c-0.042,0.031-0.085,0.061-0.128,0.089
				c-0.148,0.099-0.303,0.179-0.462,0.258c-0.039,0.015-0.079,0.029-0.118,0.042c-0.098,0.033-0.197,0.065-0.296,0.096
				c-0.074,0.024-0.148,0.045-0.223,0.063c-0.047,0.012-0.095,0.022-0.142,0.031c-0.843,0.052-1.426-0.006-2.218-0.294
				c-0.361-0.131-0.623,0.313-0.468,0.608c0.25,0.475,0.607,0.821,1.048,1.123c0.513,0.351,1.072,0.49,1.687,0.529
				c0.526,0.034,1.056-0.03,1.549-0.223c0.268-0.105,0.534-0.22,0.78-0.369c0.396-0.24,0.674-0.532,0.81-0.983
				C312.054,186.765,311.943,186.382,311.697,186.136z"/>
		</g>
		<g>
			<path style="fill:#B9B9B9;" d="M66.776,459.287L66.776,459.287c-1.896-0.382-3.134-2.246-2.752-4.142l29.989-148.737
				c0.382-1.896,2.246-3.134,4.142-2.752l0,0c1.896,0.382,3.134,2.246,2.752,4.142L70.917,456.535
				C70.535,458.431,68.671,459.669,66.776,459.287z"/>
			<path style="fill:#B9B9B9;" d="M133.314,459.287L133.314,459.287c1.896-0.382,3.134-2.246,2.752-4.142l-29.989-148.737
				c-0.382-1.896-2.246-3.134-4.142-2.752l0,0c-1.896,0.382-3.134,2.246-2.752,4.142l29.989,148.737
				C129.555,458.431,131.418,459.669,133.314,459.287z"/>
			<path style="fill:#B9B9B9;" d="M358.444,459.287L358.444,459.287c-1.896-0.382-3.134-2.246-2.752-4.142l29.989-148.737
				c0.382-1.896,2.246-3.134,4.141-2.752l0,0c1.896,0.382,3.134,2.246,2.752,4.142l-29.989,148.737
				C362.204,458.431,360.34,459.669,358.444,459.287z"/>
			<path style="fill:#B9B9B9;" d="M424.983,459.287L424.983,459.287c1.896-0.382,3.134-2.246,2.752-4.142l-29.989-148.737
				c-0.382-1.896-2.246-3.134-4.141-2.752l0,0c-1.896,0.382-3.134,2.246-2.752,4.142l29.989,148.737
				C421.223,458.431,423.087,459.669,424.983,459.287z"/>
			<path style="fill:#F99A2C;" d="M421.318,309.487H73.242c-2.144,0-3.898-1.754-3.898-3.898v-2.293
				c0-2.144,1.754-3.898,3.898-3.898h348.076c2.144,0,3.898,1.754,3.898,3.898v2.293
				C425.217,307.733,423.462,309.487,421.318,309.487z"/>
		</g>
		<g>
			<path style="fill:#2D4B63;" d="M176.845,233.686h81.696c2.353,0,4.411,1.584,5.013,3.858l14.655,55.342
				c0.871,3.29-1.609,6.513-5.013,6.513h-81.696c-2.353,0-4.411-1.584-5.013-3.858l-14.655-55.342
				C170.961,236.909,173.442,233.686,176.845,233.686z"/>
			<path style="fill:#2D4B63;" d="M264.49,292.901h58.308c1.471,0,2.675,1.204,2.675,2.675v1.146c0,1.471-1.204,2.675-2.675,2.675
				H264.49c-1.471,0-2.675-1.204-2.675-2.675v-1.146C261.815,294.105,263.019,292.901,264.49,292.901z"/>
			<path style="fill:#1E3547;" d="M280.308,297.615c-0.03-0.165-0.066-0.329-0.103-0.492c-0.078-0.338-0.195-0.668-0.316-0.993
				c-0.256-0.686-0.538-1.498-1.069-2.025c-0.158-0.157-0.405-0.204-0.609-0.115c-0.183,0.08-0.369,0.291-0.342,0.509
				c0.087,0.695,0.39,1.355,0.566,2.032c0.085,0.325,0.148,0.654,0.225,0.981c0.038,0.163,0.073,0.327,0.105,0.492
				c0.058,0.302,0.228,0.525,0.487,0.685c0.228,0.141,0.633,0.12,0.812-0.105C280.309,298.276,280.381,298.01,280.308,297.615z"/>
			<path style="fill:#1E3547;" d="M228.445,265.02c-0.695-1.445-1.847-2.877-3.344-3.721c-0.2-0.161-0.407-0.314-0.621-0.455
				c-0.809-0.576-1.729-0.964-2.692-1.142c-0.915-0.206-1.871-0.263-2.827-0.127c-2.476,0.354-4.296,2.224-5.288,4.264
				c-1.062,2.186-1.436,4.663-0.736,7.001c1.3,4.342,6.478,7.341,11.145,5.53c2.193-0.851,3.863-2.502,4.747-4.544
				C229.774,269.64,229.46,267.13,228.445,265.02z"/>
			<path style="fill:#3C678A;" d="M198.669,238.844c-1.464,0.013-2.927,0.018-4.39,0.026c-0.13-0.014-0.253-0.036-0.393-0.035
				c-3.848-0.038-7.694,0.007-11.542,0.053c-3.805-0.016-3.807,5.865,0,5.911c3.848,0.046,7.693,0.092,11.542,0.053
				c0.115-0.001,0.216-0.024,0.324-0.035c1.486,0.009,2.972,0.014,4.458,0.027C202.53,244.879,202.536,238.81,198.669,238.844z"/>
			<path style="fill:#3C678A;" d="M212.197,239.154h-3.661c-3.167,0-3.172,4.922,0,4.922h3.661
				C215.364,244.076,215.37,239.154,212.197,239.154z"/>
		</g>
		<g>
			<path style="fill:#6F9585;" d="M414.104,251.936c-0.084-0.487-0.719-0.674-1.104-0.449c-2.982,1.746-5.701,3.952-7.932,6.598
				c0.061-0.499,0.116-0.998,0.161-1.497c0.464-5.194,0.194-10.499-0.077-15.697c-0.061-1.177-0.154-2.354-0.339-3.518
				c-0.138-0.871-0.214-2.32-0.907-2.965c-1.359-1.264-3.562,1.894-4.271,2.743c-2.942,3.519-4.913,7.793-6.012,12.23
				c-0.383,1.546-0.669,3.12-0.875,4.706c-0.676-2.519-1.452-5.012-2.353-7.46c-0.505-1.374-1.044-2.737-1.608-4.088
				c-0.397-0.949-0.724-1.873-1.663-2.393c-0.375-0.208-0.806-0.013-0.938,0.382c-1.681,5.038-2.115,10.36-1.721,15.639
				c0.193,2.577,0.566,5.138,1.079,7.67c0.058,0.285,0.115,0.574,0.172,0.864c-0.315-0.473-0.629-0.946-0.97-1.4
				c-0.881-1.172-1.83-2.304-2.875-3.334c-0.922-0.91-1.951-1.688-3.3-1.67c-0.355,0.005-0.588,0.28-0.617,0.617
				c-0.324,3.805,1.282,7.499,2.855,10.875c0.804,1.725,1.696,3.41,2.671,5.044c0.802,1.343,1.642,2.744,2.7,3.913
				c1.431,2.376,4.828,3.862,7.284,4.401c3.278,0.719,7.047,0.555,10.129-0.844c3.21-1.457,5.28-4.751,6.888-7.749
				c1.741-3.246,2.955-6.769,3.6-10.395C414.801,260.103,414.801,255.992,414.104,251.936z"/>
			<path style="fill:#2D4B63;" d="M384.073,276.028h24.509c1.528,0,2.708,1.415,2.514,3.014l-2.193,18.024
				c-0.162,1.334-1.239,2.333-2.514,2.333h-20.123c-1.275,0-2.351-0.999-2.514-2.333l-2.193-18.024
				C381.365,277.443,382.546,276.028,384.073,276.028z"/>
			<path style="fill:#4D6B61;" d="M389.405,272.57c-0.252-0.896-0.543-1.779-0.83-2.664c-0.272-0.839-0.525-1.687-0.827-2.516
				c-0.226-0.62-0.511-1.532-1.14-1.85c-0.179-0.09-0.465,0.016-0.441,0.253c0.038,0.374,0.223,0.67,0.355,1.017
				c0.123,0.322,0.229,0.651,0.324,0.982c0.221,0.772,0.409,1.553,0.61,2.33c0.213,0.821,0.427,1.641,0.66,2.457
				c0.107,0.376,0.194,0.75,0.279,1.131c0.09,0.4,0.248,0.648,0.534,0.935c0.046,0.046,0.142,0.069,0.199,0.026
				C389.849,274.122,389.621,273.336,389.405,272.57z"/>
			<path style="fill:#4D6B61;" d="M395.383,274.249c-0.167-0.895-0.376-1.781-0.545-2.676c-0.363-1.928-0.653-3.873-0.868-5.824
				c-0.2-1.812-0.331-3.63-0.393-5.452c-0.059-1.748,0.175-3.625-0.105-5.349c-0.051-0.316-0.527-0.279-0.603,0
				c-0.464,1.722-0.293,3.773-0.275,5.544c0.018,1.819,0.105,3.638,0.261,5.451c0.15,1.738,0.369,3.468,0.655,5.189
				c0.149,0.898,0.309,1.796,0.499,2.686c0.152,0.712,0.173,1.635,0.903,1.965c0.099,0.045,0.244,0.055,0.322-0.042
				C395.636,275.246,395.497,274.861,395.383,274.249z"/>
			<path style="fill:#4D6B61;" d="M404.916,258.895c-0.464,0.147-0.482,0.695-0.574,1.117c-0.149,0.682-0.274,1.37-0.389,2.058
				c-0.248,1.482-0.541,2.957-0.866,4.424c-0.325,1.468-0.693,2.927-1.097,4.376c-0.344,1.233-1.135,2.678-0.774,3.952
				c0.033,0.118,0.198,0.211,0.31,0.126c1.089-0.824,1.286-2.5,1.644-3.753c0.454-1.591,0.845-3.199,1.181-4.82
				c0.32-1.545,0.594-3.109,0.781-4.676C405.162,261.446,405.498,258.711,404.916,258.895z"/>
			<path style="fill:#ACC3AA;" d="M382.128,261.68c0-0.127-0.026-0.25-0.106-0.358c-0.097-0.129-0.167-0.217-0.309-0.303
				c-0.139-0.083-0.288-0.147-0.438-0.208c-0.053-0.022-0.109-0.046-0.165-0.06c-0.098-0.023-0.204-0.031-0.305-0.039
				c-0.098-0.008-0.195-0.008-0.289,0.027c-0.08,0.03-0.16,0.064-0.238,0.099c-0.139,0.062-0.221,0.241-0.221,0.384
				c0,0.171,0.091,0.286,0.22,0.384c-0.025-0.02-0.05-0.039-0.076-0.058c0.026,0.02,0.051,0.04,0.076,0.062
				c0.011,0.01,0.022,0.021,0.034,0.03c0.083,0.071,0.159,0.107,0.262,0.149c-0.044-0.018-0.088-0.037-0.132-0.056
				c0.052,0.022,0.104,0.046,0.154,0.072c0.091,0.047,0.186,0.084,0.28,0.123c-0.047-0.02-0.095-0.04-0.142-0.06
				c0.114,0.049,0.224,0.107,0.329,0.175c0.088,0.057,0.176,0.099,0.277,0.134c0.029,0.01,0.057,0.023,0.087,0.032
				c0.102,0.034,0.206,0.02,0.306-0.009c0.053-0.006,0.105-0.019,0.155-0.039c0.088-0.024,0.165-0.067,0.206-0.163
				c0.018-0.043,0.019-0.081,0.027-0.127c0.008-0.046-0.007-0.001,0.004,0.016c-0.012-0.019,0.016-0.105,0.017-0.131
				C382.141,261.734,382.133,261.707,382.128,261.68z"/>
			<path style="fill:#ACC3AA;" d="M382.623,265.169c-0.031-0.129-0.154-0.291-0.307-0.273c-0.07,0.008-0.129,0.013-0.192,0.049
				c-0.048,0.027-0.089,0.067-0.13,0.105c-0.068,0.062-0.141,0.12-0.19,0.2c-0.075,0.121-0.143,0.252-0.206,0.379
				c-0.045,0.089-0.077,0.188-0.113,0.281c-0.04,0.103-0.063,0.179-0.076,0.293c-0.019,0.16,0.024,0.312,0.139,0.428
				c0.07,0.07,0.147,0.114,0.249,0.12c0.242,0.014,0.445-0.14,0.547-0.353c0.072-0.15,0.145-0.308,0.191-0.467
				c0.047-0.162,0.119-0.337,0.109-0.506C382.639,265.341,382.643,265.251,382.623,265.169z"/>
			<g>
				<path style="fill:#ACC3AA;" d="M384.438,269.442c-0.01-0.016-0.02-0.032-0.031-0.048c-0.032-0.046-0.071-0.104-0.106-0.139
					c-0.082-0.082-0.149-0.102-0.254-0.145c-0.102-0.041-0.21-0.042-0.318-0.016c-0.023,0.005-0.045,0.013-0.068,0.02
					c-0.028,0.012-0.056,0.024-0.085,0.036c-0.041,0.022-0.074,0.053-0.1,0.091c-0.022,0.022-0.037,0.048-0.046,0.078
					c-0.022,0.042-0.032,0.088-0.03,0.137c0.001,0.021,0.001,0.042,0,0.063c0,0.005-0.001,0.01-0.001,0.015
					c-0.005,0.094,0.025,0.158,0.062,0.238c0.012,0.033,0.023,0.067,0.041,0.097c0.039,0.066,0.07,0.092,0.116,0.136
					c0.013,0.012,0.025,0.025,0.038,0.038c0.006,0.006,0.012,0.013,0.018,0.019c0.07,0.075,0.135,0.1,0.228,0.134
					c0.086,0.023,0.173,0.023,0.26,0c0.064-0.015,0.119-0.044,0.166-0.087c0.053-0.034,0.095-0.08,0.126-0.137
					c0.044-0.076,0.066-0.158,0.067-0.247C384.521,269.622,384.491,269.53,384.438,269.442z"/>
				<path style="fill:#ACC3AA;" d="M383.486,269.829c-0.008-0.018-0.016-0.037-0.023-0.055c0.001,0.003,0.001,0.005,0.002,0.008
					C383.472,269.798,383.48,269.813,383.486,269.829z"/>
				<path style="fill:#ACC3AA;" d="M383.463,269.774C383.463,269.774,383.463,269.774,383.463,269.774
					c-0.008-0.022-0.018-0.042-0.026-0.062C383.446,269.733,383.454,269.753,383.463,269.774z"/>
			</g>
			<g>
				<path style="fill:#ACC3AA;" d="M388.406,262.016c-0.031-0.111-0.086-0.176-0.157-0.263c-0.021-0.026-0.042-0.051-0.064-0.076
					c-0.044-0.05-0.089-0.098-0.136-0.145c-0.053-0.053-0.108-0.104-0.173-0.141c-0.061-0.035-0.146-0.063-0.216-0.089
					c-0.097-0.036-0.186-0.057-0.293-0.06c-0.025-0.001-0.051-0.001-0.076-0.001c-0.098,0.001-0.185,0.035-0.262,0.089
					c-0.01,0.003-0.02,0.005-0.03,0.007c-0.1,0.027-0.18,0.147-0.142,0.25c0.001,0.004,0.003,0.008,0.004,0.012
					c-0.003,0.019-0.009,0.036-0.01,0.055c-0.002,0.079,0.028,0.141,0.059,0.209c0.02,0.054,0.037,0.11,0.069,0.157
					c0.017,0.025,0.036,0.049,0.053,0.075c0.016,0.023,0.032,0.047,0.047,0.071c0.032,0.049,0.066,0.099,0.108,0.14
					c0.011,0.011,0.027,0.02,0.04,0.031c0.051,0.04,0.101,0.081,0.149,0.124c0.027,0.024,0.053,0.048,0.078,0.072
					c0.118,0.113,0.259,0.187,0.425,0.187c0.124,0,0.241-0.041,0.337-0.116c0.101-0.078,0.147-0.168,0.19-0.286
					C388.439,262.233,388.43,262.104,388.406,262.016z"/>
				<path style="fill:#ACC3AA;" d="M386.947,261.952l-0.035-0.084c0.001,0.003,0.001,0.006,0.002,0.009
					C386.925,261.902,386.936,261.927,386.947,261.952z"/>
				<path style="fill:#ACC3AA;" d="M386.912,261.868c0-0.001-0.001-0.002-0.001-0.003c-0.003-0.009-0.008-0.017-0.011-0.025
					C386.904,261.849,386.908,261.859,386.912,261.868z"/>
			</g>
			<path style="fill:#ACC3AA;" d="M389.034,252.76c-0.174,0.009-0.35,0.088-0.472,0.209c-0.078,0.078-0.159,0.155-0.236,0.234
				c-0.111,0.115-0.216,0.233-0.301,0.368c-0.083,0.132-0.215,0.279-0.238,0.434c-0.017,0.118-0.032,0.233,0,0.351
				c0.038,0.139,0.124,0.256,0.237,0.343c0.215,0.166,0.495,0.178,0.734,0.052c0.193-0.102,0.319-0.329,0.433-0.512
				c0.086-0.137,0.144-0.308,0.178-0.468c0.013-0.062,0.023-0.124,0.033-0.186c0.014-0.089,0.037-0.188,0.039-0.276
				C389.445,253.092,389.299,252.746,389.034,252.76z"/>
			<path style="fill:#ACC3AA;" d="M389.672,246.312c0.021-0.082,0.027-0.165,0.007-0.256c-0.004-0.017-0.008-0.036-0.013-0.052
				c-0.003-0.017-0.003-0.033-0.007-0.05c-0.041-0.158-0.161-0.286-0.267-0.406c-0.151-0.171-0.377-0.261-0.577-0.363
				c-0.163-0.084-0.333-0.161-0.489-0.258c-0.037-0.023-0.071-0.052-0.108-0.073c0.017,0.01,0.125,0.098,0.052,0.04
				c-0.093-0.075-0.149-0.12-0.268-0.15c-0.031-0.008-0.063-0.015-0.095-0.023c-0.212-0.051-0.381,0.01-0.509,0.188
				c-0.107,0.15-0.072,0.479,0.015,0.623c0.06,0.101,0.147,0.195,0.233,0.276c0.163,0.153,0.345,0.285,0.538,0.396
				c0.188,0.109,0.384,0.251,0.592,0.314c0.076,0.023,0.149,0.052,0.225,0.077c0.052,0.017,0.105,0.02,0.158,0.017
				c0.04,0.011,0.08,0.001,0.12,0c0.014,0.015,0.028,0.03,0.041,0.045c-0.029-0.036,0.013,0.02,0.018,0.027
				c0.014,0.021,0.024,0.041,0.041,0.06c0.047,0.05,0.116,0.071,0.178,0.035c0.093-0.054,0.103-0.2,0.109-0.296
				c0.001-0.02,0.004-0.043,0.001-0.063c0-0.005-0.001-0.01-0.001-0.015c-0.01,0.064-0.009,0.054,0.003-0.03
				C389.671,246.354,389.671,246.333,389.672,246.312z"/>
			<path style="fill:#ACC3AA;" d="M391.083,258.009c-0.036-0.097-0.077-0.192-0.12-0.286c-0.073-0.158-0.274-0.252-0.439-0.252
				c-0.186,0-0.322,0.098-0.427,0.241c0.005-0.007,0.01-0.013,0.015-0.02c-0.006,0.008-0.012,0.015-0.018,0.022
				c-0.003,0.004-0.007,0.005-0.009,0.009c-0.007,0.01-0.015,0.02-0.023,0.031c-0.001,0.001-0.001,0.002-0.002,0.003
				c-0.023,0.028-0.045,0.057-0.067,0.086c-0.09,0.116-0.125,0.235-0.136,0.383c-0.005,0.066-0.01,0.132-0.018,0.198
				c0.007-0.054,0.014-0.107,0.022-0.161c-0.009,0.068-0.024,0.136-0.022,0.204c0.002,0.086,0.015,0.134,0.035,0.204
				c0.045,0.161,0.129,0.294,0.281,0.377c-0.045-0.045-0.09-0.09-0.135-0.135c0.042,0.075,0.091,0.136,0.173,0.17
				c0.068,0.029,0.136,0.025,0.204,0.011c0.024,0,0.047,0.008,0.074,0.004c0.096-0.013,0.175-0.046,0.252-0.105
				c0.039-0.03,0.079-0.06,0.116-0.093c0.118-0.108,0.174-0.263,0.229-0.41C391.123,258.336,391.142,258.165,391.083,258.009z"/>
			<path style="fill:#ACC3AA;" d="M390.989,267.267c-0.027-0.023-0.054-0.046-0.081-0.069c-0.034-0.029-0.073-0.063-0.111-0.087
				c-0.004-0.002-0.008-0.004-0.012-0.006c-0.04-0.017-0.079-0.033-0.119-0.05c-0.043-0.012-0.099-0.015-0.144-0.019
				c-0.009-0.001-0.019-0.001-0.028-0.002c-0.03-0.002-0.06-0.004-0.09-0.007c-0.015-0.001-0.03-0.003-0.045-0.003
				c-0.053-0.002-0.108,0.013-0.156,0.033c-0.033,0.009-0.062,0.026-0.086,0.05c-0.013,0.009-0.023,0.021-0.034,0.031
				c-0.017-0.003-0.034-0.006-0.051-0.009c-0.049-0.009-0.103,0.043-0.071,0.092c0.012,0.019,0.024,0.037,0.036,0.056
				c-0.017,0.044-0.035,0.089-0.035,0.138c0,0.071,0.018,0.136,0.053,0.198c0.007,0.014,0.015,0.029,0.022,0.043
				c0.015,0.029,0.03,0.058,0.044,0.087c0.051,0.099,0.124,0.184,0.223,0.237c0.032,0.017,0.065,0.033,0.097,0.049
				c0.111,0.056,0.25,0.089,0.373,0.049c0.039-0.016,0.077-0.033,0.116-0.049c0.056-0.031,0.102-0.072,0.136-0.125
				c0.03-0.03,0.051-0.066,0.062-0.107c0.03-0.058,0.044-0.12,0.042-0.187C391.125,267.487,391.086,267.349,390.989,267.267z"/>
			<path style="fill:#ACC3AA;" d="M402.971,240.287c0.017-0.127-0.011-0.259-0.043-0.383c-0.047-0.184-0.122-0.362-0.23-0.518
				c-0.112-0.162-0.239-0.318-0.395-0.439c-0.09-0.07-0.205-0.109-0.313-0.145c-0.102-0.034-0.221-0.037-0.315,0.022
				c-0.049,0.031-0.116,0.078-0.136,0.135c-0.03,0.086-0.051,0.171-0.026,0.263c0.015,0.056,0.049,0.103,0.078,0.152
				c0.048,0.082,0.086,0.156,0.145,0.232c-0.018-0.023,0.006,0.009,0.014,0.02c0.019,0.027,0.037,0.054,0.054,0.082
				c0.036,0.059,0.068,0.12,0.097,0.182c0.001,0.002,0,0,0.001,0.003c0.012,0.031,0.025,0.061,0.038,0.092
				c-0.002-0.005,0.003,0.008,0.01,0.023c0.005,0.014,0.021,0.055,0.026,0.068c0.012,0.035,0.023,0.07,0.034,0.106
				c0.027,0.097,0.043,0.188,0.089,0.28c0.047,0.094,0.123,0.178,0.214,0.232c0.012,0.011,0.023,0.021,0.036,0.031
				c0.011,0.02,0.023,0.04,0.033,0.06c0.041,0.082,0.16,0.089,0.221,0.028c0.022-0.022,0.043-0.045,0.063-0.069
				c0.026-0.017,0.049-0.032,0.072-0.053C402.875,240.611,402.951,240.441,402.971,240.287z"/>
			<path style="fill:#ACC3AA;" d="M399.601,243.569c-0.003-0.013-0.007-0.027-0.01-0.04c-0.036-0.14-0.13-0.235-0.266-0.281
				c-0.015-0.005-0.03-0.01-0.045-0.015c-0.009-0.003-0.017-0.006-0.026-0.009c-0.09-0.03-0.138-0.021-0.22-0.01
				c-0.069,0.003-0.133,0.023-0.192,0.061c-0.008,0.003-0.016,0.007-0.023,0.01c-0.014,0.006-0.027,0.012-0.041,0.018
				c-0.029,0.012-0.058,0.025-0.087,0.037c-0.004,0.002-0.008,0.004-0.012,0.005c-0.039,0.03-0.078,0.06-0.117,0.09
				c-0.01,0.008-0.019,0.018-0.028,0.026c-0.021,0.019-0.041,0.038-0.061,0.057c-0.086,0.079-0.137,0.184-0.171,0.294
				c-0.007,0.023-0.014,0.045-0.021,0.068c-0.054,0.176,0.006,0.378,0.134,0.506c0.065,0.064,0.142,0.109,0.23,0.134
				c0.092,0.025,0.184,0.025,0.277,0c0.026-0.006,0.052-0.011,0.078-0.017c0.123-0.028,0.215-0.097,0.306-0.18
				c0.022-0.02,0.044-0.04,0.066-0.061c0.059-0.056,0.095-0.117,0.131-0.186c0.013-0.025,0.027-0.051,0.04-0.076
				c0.025-0.048,0.049-0.098,0.063-0.151C399.629,243.749,399.625,243.669,399.601,243.569z"/>
			<path style="fill:#ACC3AA;" d="M403.72,248.462c-0.018-0.105-0.089-0.195-0.161-0.27c-0.13-0.134-0.254-0.284-0.414-0.382
				c-0.086-0.052-0.171-0.111-0.27-0.135c-0.034-0.008-0.069-0.015-0.104-0.022c-0.017-0.004-0.035-0.008-0.052-0.011
				c-0.026-0.004-0.051-0.007-0.077-0.01c-0.034,0-0.063,0.015-0.094,0.026c-0.007-0.004-0.014-0.008-0.021-0.013
				c-0.098-0.059-0.198,0.056-0.15,0.15c0.002,0.003,0.003,0.006,0.005,0.009c-0.006,0.014-0.013,0.027-0.019,0.04
				c-0.014,0.051-0.014,0.102,0,0.154c0.003,0.018,0.006,0.037,0.008,0.055c0.006,0.042,0.01,0.086,0.019,0.128
				c0.016,0.072,0.06,0.141,0.095,0.207c0.041,0.078,0.078,0.142,0.139,0.211c0.064,0.073,0.13,0.144,0.195,0.216
				c0.045,0.05,0.087,0.095,0.141,0.136c0.06,0.047,0.124,0.077,0.199,0.094c0.018,0.004,0.035,0.009,0.053,0.015
				c-0.024-0.01-0.048-0.02-0.071-0.03c-0.016-0.012-0.031-0.024-0.046-0.036c-0.002-0.003-0.004-0.005-0.006-0.007
				c0.102,0.128,0.303,0.17,0.446,0.078c0.142-0.091,0.206-0.245,0.21-0.41C403.745,248.59,403.731,248.524,403.72,248.462z"/>
			<path style="fill:#ACC3AA;" d="M399.332,252.106c-0.021-0.146-0.224-0.254-0.358-0.203c-0.059,0.022-0.108,0.048-0.142,0.093
				c-0.048,0.042-0.096,0.086-0.14,0.131c-0.032,0.033-0.06,0.068-0.085,0.106c-0.025,0.033-0.027,0.036-0.007,0.009
				c0.037-0.049-0.038,0.048-0.046,0.057c-0.075,0.092-0.162,0.178-0.224,0.28c-0.042,0.067-0.078,0.137-0.12,0.205
				c-0.042,0.067-0.085,0.134-0.13,0.199c-0.026,0.037-0.052,0.074-0.079,0.111c-0.021,0.029-0.119,0.16-0.016,0.023
				c-0.093,0.123-0.191,0.234-0.235,0.386c-0.031,0.107-0.037,0.22-0.027,0.332c-0.003,0.014-0.005,0.029-0.008,0.043
				c-0.046,0.224,0.143,0.459,0.386,0.386c0.017-0.005,0.034-0.011,0.051-0.016c0.085,0,0.172-0.021,0.25-0.051
				c0.195-0.077,0.327-0.2,0.444-0.372c0.102-0.149,0.191-0.308,0.273-0.469c0.041-0.081,0.08-0.163,0.117-0.246
				c0.054-0.123,0.078-0.226,0.096-0.356c0.016-0.11,0.042-0.232,0.038-0.344C399.367,252.307,399.347,252.205,399.332,252.106z"/>
			<g>
				<path style="fill:#ACC3AA;" d="M396.037,257.176c0.001,0.001,0.002,0.001,0.003,0.002
					C396.058,257.193,396.109,257.224,396.037,257.176z"/>
				<path style="fill:#ACC3AA;" d="M396.861,258.549c-0.022-0.033-0.057-0.074-0.073-0.113c0.005-0.032,0.022-0.062,0.019-0.096
					c-0.005-0.059-0.017-0.115-0.032-0.172c-0.004-0.016-0.008-0.033-0.012-0.049c-0.018-0.06-0.001,0.029,0.002,0.044
					c-0.015-0.068-0.011-0.135-0.04-0.202c-0.014-0.033-0.027-0.062-0.044-0.093c-0.027-0.049-0.052-0.093-0.086-0.137
					c-0.036-0.047-0.074-0.093-0.112-0.139c-0.012-0.015-0.024-0.03-0.036-0.045c-0.007-0.009-0.022-0.028-0.027-0.034
					c-0.028-0.038-0.055-0.079-0.088-0.112c-0.051-0.052-0.116-0.091-0.175-0.134c-0.028-0.02-0.057-0.041-0.085-0.062
					c-0.014-0.01-0.027-0.022-0.042-0.031c0.003,0.002,0,0,0.003,0.002c-0.037-0.029-0.073-0.058-0.109-0.087
					c-0.05-0.038-0.112-0.054-0.174-0.062c0.019,0.004,0.036,0.007,0.037,0.008c-0.003-0.012-0.077-0.039-0.089-0.045
					c-0.042-0.022-0.081-0.025-0.122-0.03c-0.021-0.02-0.042-0.039-0.063-0.059c-0.048-0.046-0.114,0.001-0.104,0.061
					c0.005,0.027,0.009,0.053,0.014,0.08c-0.038,0.083-0.035,0.175-0.042,0.267c-0.011,0.073-0.008,0.147,0.013,0.229
					c0.018,0.07,0.038,0.139,0.058,0.208c0.027,0.091,0.053,0.192,0.105,0.271c0.06,0.091,0.133,0.174,0.201,0.259
					c0.07,0.087,0.145,0.152,0.236,0.221c0.021,0.016,0.043,0.034,0.066,0.049c0.073,0.042,0.152,0.064,0.237,0.064
					c-0.083-0.016-0.101-0.017-0.054-0.003c0.104,0.044,0.223,0.057,0.336,0.038c0.041,0.015,0.084,0.045,0.121,0.064
					C396.799,258.762,396.929,258.652,396.861,258.549z"/>
			</g>
			<path style="fill:#ACC3AA;" d="M402.066,260.537c-0.023-0.095-0.054-0.188-0.112-0.267c-0.051-0.07-0.097-0.14-0.175-0.186
				c-0.098-0.05-0.122-0.058-0.074-0.025c-0.021-0.012-0.045-0.014-0.068-0.021c-0.015-0.02-0.029-0.04-0.044-0.059
				c-0.074-0.094-0.205-0.006-0.213,0.088c-0.001,0.01-0.002,0.02-0.003,0.03c-0.166,0.107-0.215,0.314-0.256,0.497
				c-0.015,0.068-0.034,0.135-0.055,0.201c-0.035,0.107-0.047,0.213-0.061,0.325c0.007-0.049,0.013-0.099,0.02-0.149
				c-0.022,0.153-0.069,0.302-0.075,0.458c-0.001,0.024-0.003,0.048-0.003,0.072c-0.003,0.07,0.012,0.136,0.044,0.197
				c0.004,0.011,0.013,0.017,0.018,0.027c0,0.006-0.003,0.004,0.004,0.023c0.014,0.039,0.042,0.066,0.063,0.099
				c0.016,0.041,0.031,0.082,0.055,0.119c-0.004-0.013-0.007-0.027-0.011-0.04c0.018,0.098,0.106,0.142,0.198,0.11
				c-0.015,0.004-0.029,0.008-0.044,0.012c0.053,0.003,0.101-0.009,0.153-0.015c-0.059,0.022-0.032,0.021,0.082-0.004
				c0.04-0.016,0.08-0.033,0.119-0.051c0.008-0.004-0.002-0.001,0.003-0.004c0.008-0.004,0.018-0.001,0.026-0.006
				c0.12-0.051,0.187-0.13,0.263-0.234c0.108-0.148,0.161-0.346,0.195-0.526C402.156,260.986,402.118,260.757,402.066,260.537z"/>
			<path style="fill:#ACC3AA;" d="M399.04,266.171c-0.012-0.048-0.03-0.096-0.044-0.144c-0.028-0.093-0.056-0.187-0.106-0.27
				c-0.048-0.079-0.121-0.157-0.18-0.231c-0.057-0.073-0.121-0.144-0.187-0.208c-0.104-0.1-0.273-0.19-0.428-0.195
				c-0.014-0.01-0.028-0.021-0.043-0.032c-0.069-0.051-0.193,0-0.207,0.084c-0.004,0.027-0.009,0.055-0.014,0.082
				c-0.085,0.098-0.141,0.225-0.157,0.349c-0.015,0.113-0.01,0.234,0.001,0.348c0.007,0.071,0.015,0.142,0.025,0.214
				c0.017,0.123,0.065,0.229,0.121,0.34c0.025,0.049,0.047,0.1,0.075,0.146c0.072,0.121,0.183,0.198,0.293,0.28
				c0.142,0.105,0.355,0.093,0.508,0.029c0.149-0.063,0.302-0.2,0.331-0.37C399.053,266.446,399.078,266.318,399.04,266.171z"/>
			<path style="fill:#ACC3AA;" d="M398.15,271.819c-0.042-0.071-0.099-0.128-0.17-0.17c-0.03-0.013-0.062-0.023-0.093-0.035
				c-0.004-0.002-0.007-0.006-0.01-0.008c-0.007-0.003-0.014-0.001-0.021-0.004c-0.006-0.001-0.012-0.006-0.018-0.007
				c0.003,0.002,0.006,0.003,0.009,0.005c-0.046-0.016-0.093-0.017-0.139-0.004c-0.007,0.001-0.015,0.003-0.022,0.004
				c0.006-0.001,0.013-0.002,0.019-0.003c-0.009,0.002-0.016,0.008-0.024,0.012c-0.061,0.008-0.124,0.011-0.179,0.04
				c-0.069,0.036-0.117,0.099-0.16,0.162c0.008-0.011,0.017-0.022,0.025-0.033c-0.025,0.033-0.054,0.063-0.085,0.09
				c-0.063,0.054-0.099,0.126-0.148,0.191c0.025-0.033,0.051-0.066,0.076-0.098c-0.02,0.025-0.041,0.05-0.065,0.072
				c-0.036,0.034-0.071,0.072-0.096,0.115c-0.007,0.011-0.01,0.025-0.016,0.038c-0.005,0.011-0.012,0.022-0.018,0.033
				c-0.004,0.004-0.008,0.009-0.012,0.013c-0.05,0.043-0.086,0.135-0.083,0.2c0.003,0.073,0.027,0.15,0.083,0.201
				c0.05,0.046,0.111,0.092,0.173,0.122c0.04,0.02,0.082,0.038,0.124,0.053c0.083,0.03,0.18,0.025,0.265,0.006
				c0.031-0.007,0.061-0.016,0.091-0.028c0.064-0.025,0.13-0.051,0.191-0.085c0.1-0.056,0.177-0.141,0.236-0.238
				c0.073-0.119,0.13-0.263,0.133-0.404C398.214,271.973,398.193,271.893,398.15,271.819z"/>
			<g>
				<path style="fill:#ACC3AA;" d="M392.771,272.825c-0.067-0.096-0.141-0.191-0.227-0.271c-0.038-0.035-0.08-0.072-0.124-0.098
					c-0.088-0.051-0.151-0.054-0.249-0.065c-0.031-0.004-0.062-0.006-0.093-0.006c-0.056,0-0.108,0.011-0.159,0.032
					c-0.053,0.021-0.094,0.042-0.133,0.076c-0.014,0.001-0.028,0.001-0.043,0.002c-0.065,0.006-0.081,0.078-0.031,0.116
					c0.007,0.005,0.013,0.011,0.02,0.017c0.002,0.025,0.002,0.051,0.005,0.077c0.004,0.043,0.006,0.086,0.018,0.129
					c0.006,0.023,0.012,0.047,0.016,0.07c0.003,0.013,0.004,0.027,0.007,0.04c0.017,0.086,0.072,0.146,0.124,0.212
					c-0.023-0.03-0.046-0.059-0.069-0.089c0.056,0.073,0.103,0.153,0.14,0.238c-0.005-0.011-0.009-0.022-0.014-0.034
					c0.026,0.062,0.054,0.108,0.104,0.159c0.013,0.013,0.026,0.025,0.039,0.038c0.046,0.048,0.102,0.081,0.155,0.12
					c0.098,0.072,0.243,0.064,0.348,0.02c0.114-0.048,0.189-0.135,0.227-0.253C392.883,273.186,392.873,272.972,392.771,272.825z"/>
				<path style="fill:#ACC3AA;" d="M391.736,272.707c0-0.001,0-0.002,0-0.003c-0.002-0.02-0.005-0.039-0.008-0.058
					C391.731,272.666,391.734,272.686,391.736,272.707z"/>
			</g>
			<path style="fill:#ACC3AA;" d="M386.448,273.052c-0.086,0.027-0.169,0.092-0.244,0.141c-0.096,0.063-0.175,0.152-0.258,0.231
				c-0.032,0.03-0.06,0.057-0.084,0.096c-0.023,0.039-0.036,0.084-0.053,0.127c-0.018,0.045-0.038,0.09-0.054,0.135
				c-0.019,0.057-0.013,0.12-0.012,0.179c0.001,0.042,0.004,0.084,0.013,0.125c-0.007,0.027-0.015,0.054-0.022,0.081
				c-0.016,0.057,0.051,0.085,0.091,0.053c0.021-0.016,0.042-0.033,0.063-0.049c0.032-0.007,0.064-0.014,0.096-0.027
				c0.048-0.02,0.104-0.035,0.148-0.062c0.057-0.034,0.105-0.091,0.152-0.137c0.019-0.019,0.039-0.037,0.057-0.056
				c0.045-0.049,0.065-0.1,0.089-0.161c0.034-0.088,0.082-0.18,0.102-0.272c0.01-0.047,0.016-0.096,0.024-0.143
				c0.009-0.052,0.026-0.109,0.021-0.162C386.571,273.087,386.516,273.031,386.448,273.052z"/>
			<path style="fill:#ACC3AA;" d="M405.559,273.015c-0.046-0.086-0.092-0.172-0.139-0.258c-0.131-0.243-0.353-0.405-0.611-0.491
				c-0.161-0.053-0.345,0.062-0.388,0.22c-0.028,0.105-0.042,0.211-0.042,0.32c0,0.074,0.021,0.168,0.038,0.243
				c0.018,0.084,0.059,0.16,0.1,0.235c0.046,0.086,0.093,0.172,0.139,0.258c0.057,0.105,0.136,0.185,0.237,0.248
				c0.038,0.024,0.078,0.045,0.117,0.068c0.131,0.076,0.296,0.077,0.427,0c0.134-0.079,0.201-0.214,0.21-0.366
				c0.003-0.043,0.006-0.086,0.007-0.129C405.658,273.238,405.618,273.126,405.559,273.015z"/>
			<g>
				<polygon style="fill:#ACC3AA;" points="410.437,270.231 410.437,270.23 410.437,270.23 410.437,270.231 				"/>
				<path style="fill:#ACC3AA;" d="M410.504,270.299c-0.02-0.026-0.042-0.047-0.066-0.068c0.006,0.007,0.025,0.033,0.009,0.012
					c-0.003-0.004-0.006-0.008-0.009-0.012c-0.027-0.022-0.054-0.046-0.089-0.052c0.029,0.017,0.059,0.034,0.088,0.051
					c-0.009-0.012-0.018-0.024-0.027-0.036c-0.01-0.013-0.021-0.025-0.032-0.037c-0.073-0.079-0.207-0.037-0.235,0.062
					c-0.002,0.006-0.004,0.012-0.006,0.019c-0.038,0.015-0.074,0.033-0.111,0.055c-0.009,0.006-0.02,0.01-0.029,0.015c0,0,0,0,0,0
					c-0.115,0.034-0.217,0.081-0.302,0.169c-0.025,0.026-0.052,0.049-0.078,0.073c-0.015,0.009-0.028,0.02-0.043,0.029
					c-0.078,0.044-0.142,0.109-0.212,0.163c0.038-0.029,0.077-0.059,0.115-0.089c-0.049,0.037-0.101,0.068-0.157,0.092
					c-0.035,0.027-0.07,0.054-0.105,0.081c-0.027,0.035-0.054,0.07-0.081,0.105c-0.059,0.101-0.077,0.216-0.061,0.33
					c0.012,0.093,0.044,0.17,0.102,0.245c0.062,0.08,0.164,0.171,0.269,0.185c0.086,0.012,0.173,0.028,0.261,0.026
					c0.092-0.002,0.184-0.017,0.274-0.034c0.064-0.012,0.133-0.044,0.189-0.077c0.02-0.012,0.04-0.025,0.059-0.039
					c0.075-0.054,0.152-0.11,0.219-0.175c0.064-0.062,0.127-0.136,0.174-0.21c0.073-0.113,0.092-0.258,0.08-0.39
					C410.684,270.62,410.648,270.412,410.504,270.299z"/>
			</g>
			<path style="fill:#ACC3AA;" d="M408.318,266.503c-0.027-0.105-0.058-0.202-0.109-0.3c-0.01-0.019-0.018-0.038-0.027-0.057
				c-0.02-0.052-0.04-0.104-0.055-0.158c-0.01-0.037-0.017-0.076-0.027-0.113c-0.024-0.087-0.069-0.168-0.105-0.25
				c0.021,0.051,0.043,0.101,0.064,0.152c-0.044-0.104-0.076-0.212-0.126-0.315c-0.087-0.178-0.305-0.285-0.496-0.285
				c-0.193,0-0.406,0.107-0.496,0.285c-0.06,0.117-0.096,0.239-0.12,0.368c-0.013,0.07-0.032,0.142-0.028,0.212
				c0.004,0.079,0.019,0.157,0.031,0.235c0.006,0.042,0.014,0.083,0.023,0.125c0.019,0.085,0.043,0.169,0.074,0.251
				c0.035,0.091,0.07,0.184,0.115,0.271c0.038,0.074,0.121,0.158,0.186,0.219c0.107,0.1,0.231,0.161,0.377,0.18
				c0.14,0.019,0.296,0.001,0.418-0.078c0.095-0.061,0.174-0.14,0.235-0.235C408.344,266.867,408.359,266.663,408.318,266.503z"/>
			<path style="fill:#ACC3AA;" d="M412.947,263.303c-0.033-0.078-0.088-0.152-0.153-0.216c-0.02-0.022-0.04-0.039-0.063-0.058
				c-0.068-0.083-0.149-0.153-0.249-0.185c-0.027-0.018-0.051-0.04-0.081-0.054c-0.05-0.023-0.073-0.029-0.128-0.034
				c-0.007-0.001-0.006,0.001,0.001,0.004c-0.006-0.002-0.013-0.005-0.019-0.007c-0.031-0.008-0.059-0.016-0.091-0.021
				c-0.097-0.015-0.166,0.07-0.123,0.161c0.004,0.009,0.008,0.027,0.013,0.041c-0.005,0.022-0.008,0.043-0.007,0.065
				c0,0.003,0,0.005,0,0.007c-0.023,0.015-0.053,0.02-0.074,0.039c-0.095,0.073-0.153,0.163-0.199,0.269
				c-0.001,0.001-0.003,0.003-0.004,0.004c0.007-0.016,0.014-0.032,0.021-0.049c-0.012,0.027-0.03,0.052-0.045,0.077
				c-0.054,0.054-0.098,0.118-0.145,0.179c0.033-0.043,0.066-0.085,0.098-0.127c-0.027,0.033-0.057,0.061-0.087,0.091
				c-0.063,0.063-0.094,0.127-0.136,0.198c-0.066,0.111-0.093,0.278-0.053,0.403c0.04,0.123,0.119,0.255,0.241,0.313
				c0.061,0.029,0.123,0.056,0.187,0.078c0.116,0.04,0.241,0.027,0.357,0.001c0.13-0.029,0.258-0.086,0.363-0.167
				c0.199-0.154,0.327-0.362,0.409-0.597l0.023-0.17C413.005,263.462,412.987,263.379,412.947,263.303z"/>
			<path style="fill:#ACC3AA;" d="M409.479,258.817c-0.014-0.054-0.031-0.107-0.046-0.161c-0.035-0.123-0.119-0.214-0.235-0.263
				c-0.108-0.046-0.261-0.055-0.362,0.02c-0.114,0.085-0.241,0.163-0.318,0.285c-0.043,0.069-0.076,0.145-0.113,0.218
				c-0.049,0.098-0.1,0.211-0.122,0.322c-0.014,0.07-0.027,0.142-0.027,0.214c0,0.058,0.012,0.119,0.022,0.176
				c0.003,0.015,0.005,0.029,0.011,0.044c0.018,0.074,0.052,0.139,0.102,0.194c0.04,0.062,0.094,0.111,0.16,0.147
				c0.122,0.072,0.302,0.102,0.439,0.058c0.138-0.045,0.271-0.13,0.341-0.262c0.048-0.091,0.07-0.203,0.067-0.312
				c0.007-0.023,0.012-0.047,0.02-0.07c0.021-0.061,0.029-0.125,0.041-0.188C409.486,259.098,409.516,258.959,409.479,258.817z"/>
			<path style="fill:#ACC3AA;" d="M413.394,254.94c-0.024-0.13-0.137-0.233-0.252-0.282c-0.131-0.055-0.262-0.044-0.388,0.022
				c-0.047,0.025-0.088,0.045-0.132,0.078c-0.075,0.058-0.124,0.136-0.181,0.211c0.026-0.034,0.052-0.068,0.079-0.102
				c-0.044,0.056-0.093,0.104-0.142,0.155c-0.055,0.057-0.095,0.127-0.14,0.194c-0.068,0.08-0.144,0.153-0.208,0.238
				c0.021-0.027,0.041-0.053,0.062-0.08c-0.023,0.03-0.048,0.06-0.074,0.088c-0.011,0.012-0.023,0.022-0.033,0.034
				c-0.041,0.045-0.062,0.093-0.075,0.145c-0.043,0.028-0.084,0.058-0.131,0.079c-0.039,0.018-0.033,0.075,0,0.095
				c0.058,0.034,0.121,0.057,0.184,0.08c0.051,0.066,0.114,0.117,0.202,0.129c0.051,0.007,0.055,0.007,0.015,0.002
				c-0.029-0.004-0.036-0.005-0.02-0.002c0.038,0.004,0.075,0.011,0.113,0.015c0.063,0.007,0.12,0.008,0.183,0
				c0.152-0.02,0.294-0.079,0.433-0.143c0.078-0.036,0.156-0.081,0.218-0.143c0.063-0.064,0.116-0.141,0.167-0.214
				c0.04-0.057,0.072-0.115,0.099-0.179C413.435,255.211,413.422,255.092,413.394,254.94z"/>
			<path style="fill:#627DA1;" d="M408.811,283.398c-0.397-0.263-0.792-0.528-1.186-0.796c-0.44-0.299-0.884-0.593-1.327-0.887
				c0.332-0.3,0.666-0.597,0.998-0.897c0.654-0.59,2.01-1.281,1.911-2.263c-0.011-0.109-0.07-0.212-0.184-0.241
				c-0.922-0.236-1.63,0.809-2.273,1.354c-0.514,0.437-1.022,0.881-1.534,1.32c-0.708-0.479-1.411-0.964-2.11-1.457
				c-0.71-0.501-1.433-1.227-2.305-1.387c-0.05-0.009-0.081,0.036-0.062,0.08c0.346,0.798,1.19,1.311,1.845,1.853
				c0.628,0.52,1.262,1.032,1.9,1.54c-0.217,0.189-0.44,0.372-0.655,0.564c-1.118,0.996-2.223,2.007-3.333,3.012
				c-0.37-0.228-0.744-0.45-1.111-0.681c-1.627-1.025-3.217-2.113-4.792-3.216c0.02-0.02,0.041-0.04,0.062-0.059
				c0.575-0.554,1.142-1.116,1.709-1.678c0.457-0.454,1.115-0.931,1.386-1.528c0.113-0.25,0.095-0.493-0.09-0.701
				c-0.249-0.28-0.628-0.163-0.894,0.059c-0.617,0.514-1.166,1.156-1.74,1.721c-0.488,0.48-0.965,0.972-1.447,1.459
				c-0.563-0.402-1.128-0.801-1.684-1.212c-0.708-0.524-1.389-1.076-2.19-1.441c0.083-0.096,0.169-0.19,0.244-0.29
				c0.172-0.23,0.06-0.595-0.15-0.752c-0.252-0.188-0.529-0.138-0.766,0.046c-0.292,0.226-0.537,0.539-0.791,0.807
				c-0.259,0.273-0.518,0.547-0.777,0.821c-0.518,0.547-1.037,1.095-1.555,1.642c-0.504,0.533-1.001,1.071-1.496,1.612
				c-0.122,0.133-0.254,0.268-0.387,0.406c-0.418-0.315-0.859-0.592-1.374-0.766c-0.117-0.04-0.199,0.099-0.15,0.195
				c0.244,0.482,0.581,0.882,0.957,1.25c-0.147,0.209-0.276,0.426-0.344,0.668c-0.035,0.124,0.086,0.249,0.212,0.211
				c0.25-0.075,0.473-0.215,0.686-0.374c0.21,0.183,0.422,0.364,0.63,0.55c0.872,0.777,1.768,1.528,2.661,2.281
				c0.126,0.106,0.254,0.208,0.38,0.314c-0.565,0.574-1.121,1.158-1.679,1.738c-0.536,0.557-1.183,1.126-1.435,1.878
				c-0.035,0.106,0.078,0.216,0.183,0.182c0.601-0.193,1.076-0.645,1.529-1.071c0.582-0.547,1.166-1.092,1.747-1.641
				c0.151-0.143,0.299-0.289,0.449-0.432c1.405,1.172,2.813,2.34,4.231,3.495c0.337,0.275,0.684,0.538,1.023,0.811
				c-0.547,0.534-1.098,1.064-1.64,1.607c-0.884,0.885-1.883,1.748-2.814,2.666c-0.186-0.153-0.367-0.311-0.556-0.462
				c-0.677-0.542-1.353-1.083-2.03-1.624c-0.311-0.249-0.623-0.495-0.947-0.728c-0.176-0.126-0.348-0.27-0.533-0.383
				c-0.172-0.106-0.366-0.151-0.553-0.225c-0.034-0.013-0.059,0.03-0.044,0.057c0.095,0.174,0.165,0.36,0.292,0.514
				c0.131,0.159,0.281,0.305,0.421,0.456c0.286,0.307,0.582,0.6,0.883,0.892c0.636,0.617,1.272,1.233,1.909,1.85
				c0.141,0.136,0.288,0.266,0.43,0.401c-0.651,0.702-1.24,1.444-1.691,2.259c-0.023,0.042,0.023,0.085,0.064,0.064
				c0.843-0.436,1.616-1.012,2.352-1.648c0.247,0.227,0.489,0.459,0.737,0.686c0.309,0.282,0.611,0.574,0.928,0.847
				c0.333,0.287,0.681,0.6,1.144,0.508c0.184-0.037,0.288-0.223,0.3-0.394c0.03-0.429-0.357-0.75-0.651-1.01
				c-0.314-0.278-0.64-0.544-0.959-0.815c-0.224-0.19-0.453-0.374-0.677-0.563c0.875-0.823,1.715-1.691,2.576-2.463
				c0.657-0.589,1.309-1.182,1.966-1.771c1.102,0.881,2.199,1.769,3.316,2.631c0.773,0.597,1.55,1.189,2.328,1.779
				c-0.469,0.416-0.922,0.857-1.214,1.38c-0.134,0.24,0.095,0.629,0.392,0.51c0.632-0.253,1.181-0.708,1.707-1.167
				c0.572,0.508,1.261,1.089,1.91,0.825c0.137-0.056,0.21-0.146,0.224-0.294c0.062-0.683-0.55-1.063-1.112-1.411
				c0.637-0.539,1.274-1.078,1.901-1.629c0.749-0.657,1.498-1.313,2.247-1.97c0.375-0.328,0.749-0.657,1.124-0.985
				c0.229-0.201,0.51-0.398,0.718-0.638c0.476,0.229,1.181-0.1,0.952-0.723c-0.285-0.778-1.022-0.996-1.718-1.365
				c-0.928-0.493-1.85-0.997-2.765-1.513c-1.008-0.568-2.006-1.154-2.998-1.75c0.876-0.788,1.745-1.585,2.627-2.367
				c0.416-0.368,0.826-0.742,1.238-1.113c0.444,0.348,0.884,0.701,1.34,1.032c0.386,0.28,0.774,0.558,1.164,0.833
				c0.372,0.263,0.727,0.633,1.212,0.488c0.186-0.056,0.371-0.252,0.351-0.461C409.532,283.807,409.199,283.655,408.811,283.398z
				 M388.403,285.805c-0.176-0.144-0.355-0.283-0.53-0.428c-0.903-0.744-1.797-1.499-2.705-2.237
				c-0.152-0.123-0.299-0.248-0.448-0.373c0.097-0.096,0.193-0.192,0.287-0.281c0.563-0.533,1.123-1.067,1.677-1.609l1.616-1.581
				c0.34-0.333,0.713-0.661,1.059-1.008c0.898,1.195,2.295,2.1,3.522,2.986c-0.497,0.504-0.998,1.004-1.495,1.507
				C390.391,283.79,389.397,284.797,388.403,285.805z M394.541,290.703c-0.45-0.35-0.907-0.691-1.356-1.043
				c-1.334-1.046-2.646-2.12-3.959-3.192c0.72-0.694,1.441-1.387,2.161-2.081c0.828-0.798,1.656-1.596,2.483-2.394
				c1.39,1.023,2.8,2.017,4.235,2.978c0.506,0.339,1.016,0.671,1.525,1.006c-0.608,0.553-1.224,1.098-1.83,1.654
				C396.697,288.643,395.614,289.668,394.541,290.703z M402.96,288.106c0.796,0.488,1.597,0.968,2.404,1.438
				c0.453,0.264,0.909,0.526,1.366,0.785c0.117,0.066,0.275,0.138,0.438,0.214c-0.12,0.104-0.237,0.213-0.362,0.322
				c-0.374,0.328-0.749,0.657-1.124,0.985c-0.771,0.676-1.542,1.352-2.314,2.028c-0.721,0.632-1.436,1.271-2.145,1.918
				c-0.765-0.567-1.528-1.137-2.288-1.711c-1.153-0.872-2.293-1.761-3.438-2.643c1.019-0.916,2.043-1.827,3.055-2.753
				c0.727-0.665,1.465-1.317,2.195-1.978C401.481,287.182,402.217,287.65,402.96,288.106z"/>
		</g>
		<g>
			<path style="fill:#627DA1;" d="M164.053,278.06c-0.786-3.596-2.794-6.349-6.644-6.852c-1.388-0.182-3.03-0.021-4.52,0.495v-3.068
				c0-1.261-1.022-2.283-2.283-2.283h-22.936c-1.261,0-2.283,1.022-2.283,2.283v28.48c0,1.261,1.022,2.283,2.283,2.283h22.936
				c1.261,0,2.283-1.022,2.283-2.283v-1.468c3.548-0.297,7.544-1.917,9.712-4.38C165.712,287.733,164.974,282.268,164.053,278.06z
				 M157.509,286.985c-1.104,1.216-2.88,1.726-4.62,1.937v-11.736c2.774-0.632,5.351-1.776,5.864,2.666
				C159.018,282.138,159.093,285.239,157.509,286.985z"/>
			<path style="fill:#9BACD0;" d="M131.071,271.449c-0.262-1.385-2.441-1.328-2.743,0c-0.66,2.899-1.414,7.166-0.397,10.017
				c0.576,1.614,2.599,1.529,3.206,0C132.253,278.652,131.626,274.379,131.071,271.449z"/>
			<path style="fill:#9BACD0;" d="M130.582,285.223c-0.339-0.439-0.863-0.691-1.423-0.546c-0.844,0.218-1.167,1.146-1.061,1.933
				c0.112,0.836,0.931,1.392,1.74,1.159c0.426-0.122,0.903-0.506,0.974-0.974C130.897,286.234,130.958,285.709,130.582,285.223z"/>
			<path style="fill:#365A78;" d="M153.284,272.281c-0.094-0.31-0.605-0.443-0.758-0.099c-0.223,0.499-0.191,1.101-0.222,1.64
				c-0.03,0.516-0.059,1.034-0.06,1.552c0,0.517,0.008,1.035,0.023,1.552c0.016,0.552,0.084,1.003,0.477,1.402
				c0.044,0.045,0.135,0.053,0.178,0c0.146-0.179,0.277-0.322,0.332-0.563c0.053-0.23,0.055-0.485,0.056-0.72
				c0.001-0.537-0.01-1.074-0.003-1.612c0.007-0.517,0.001-1.035,0.01-1.552C153.325,273.37,153.434,272.775,153.284,272.281z"/>
			<path style="fill:#365A78;" d="M153.145,290.747c-0.017-0.248-0.016-0.5-0.109-0.733c-0.042-0.105-0.085-0.205-0.159-0.292
				c-0.069-0.081-0.156-0.096-0.177-0.202c-0.016-0.078-0.125-0.053-0.131,0.018c-0.007,0.086-0.142,0.183-0.183,0.26
				c-0.044,0.082-0.076,0.174-0.101,0.264c-0.067,0.239-0.042,0.492-0.04,0.737c0.003,0.491-0.007,0.982-0.002,1.474
				c0.005,0.491,0.003,0.982-0.005,1.474c-0.004,0.252-0.031,0.507,0.035,0.753c0.065,0.244,0.168,0.358,0.363,0.507
				c0.031,0.024,0.088,0.021,0.12,0c0.214-0.137,0.323-0.257,0.398-0.507c0.072-0.243,0.059-0.501,0.063-0.753
				c0.008-0.509,0.01-1.018,0.004-1.526C153.214,291.729,153.179,291.237,153.145,290.747z"/>
		</g>
	</g>
	<g>
		<path style="fill:#A9A3A5;" d="M71.744,202.162h156.749c2.986,0,5.407-2.421,5.407-5.407V96.088c0-2.986-2.421-5.407-5.407-5.407
			H71.744c-2.986,0-5.407,2.421-5.407,5.407v100.668C66.337,199.742,68.758,202.162,71.744,202.162z"/>
		<path style="fill:#B9B9B9;" d="M73.999,200.215h152.24c2.986,0,5.407-2.421,5.407-5.407V98.035c0-2.986-2.421-5.407-5.407-5.407
			H73.999c-2.986,0-5.407,2.421-5.407,5.407v96.774C68.592,197.795,71.013,200.215,73.999,200.215z"/>
		<path style="fill:#5E6265;" d="M79.616,195.056h141.004c2.986,0,5.407-2.421,5.407-5.407v-86.455c0-2.986-2.421-5.407-5.407-5.407
			H79.616c-2.986,0-5.407,2.421-5.407,5.407v86.455C74.21,192.635,76.63,195.056,79.616,195.056z"/>
		<path style="fill:#73797F;" d="M82.712,191.96h134.813c2.986,0,5.407-2.421,5.407-5.407V106.29c0-2.986-2.421-5.407-5.407-5.407
			H82.712c-2.986,0-5.407,2.421-5.407,5.407v80.264C77.305,189.54,79.726,191.96,82.712,191.96z"/>
		<path style="fill:#F2CC43;" d="M108.375,145.914H93.593c-1.601,0-2.899-1.298-2.899-2.899v-17.327
			c0-1.601,1.298-2.899,2.899-2.899h14.782c1.601,0,2.899,1.298,2.899,2.899v17.327
			C111.275,144.616,109.977,145.914,108.375,145.914z"/>
		<path style="fill:#F99A2C;" d="M124.332,174.849h-14.782c-1.601,0-2.899-1.298-2.899-2.899v-17.327
			c0-1.601,1.298-2.899,2.899-2.899h14.782c1.601,0,2.899,1.298,2.899,2.899v17.327
			C127.231,173.551,125.933,174.849,124.332,174.849z"/>
		<path style="fill:#F99A2C;" d="M147.818,145.914h-14.782c-1.601,0-2.899-1.298-2.899-2.899v-17.327
			c0-1.601,1.298-2.899,2.899-2.899h14.782c1.601,0,2.899,1.298,2.899,2.899v17.327
			C150.717,144.616,149.419,145.914,147.818,145.914z"/>
		<path style="fill:#F2CC43;" d="M154.993,185.259H140.21c-1.601,0-2.899-1.298-2.899-2.899v-17.327
			c0-1.601,1.298-2.899,2.899-2.899h14.783c1.601,0,2.899,1.298,2.899,2.899v17.327
			C157.892,183.961,156.594,185.259,154.993,185.259z"/>
		<path style="fill:#F99A2C;" d="M178.584,163.921h-14.783c-1.601,0-2.899-1.298-2.899-2.899v-17.327
			c0-1.601,1.298-2.899,2.899-2.899h14.783c1.601,0,2.899,1.298,2.899,2.899v17.327
			C181.483,162.624,180.185,163.921,178.584,163.921z"/>
		<path style="fill:#F2CC43;" d="M203.181,145.914h-14.782c-1.601,0-2.899-1.298-2.899-2.899v-17.327
			c0-1.601,1.298-2.899,2.899-2.899h14.782c1.601,0,2.899,1.298,2.899,2.899v17.327C206.08,144.616,204.782,145.914,203.181,145.914
			z"/>
		<path style="fill:#F99A2C;" d="M211.484,183.601h-14.782c-1.601,0-2.899-1.298-2.899-2.899v-17.327
			c0-1.601,1.298-2.899,2.899-2.899h14.782c1.601,0,2.899,1.298,2.899,2.899v17.327
			C214.383,182.303,213.085,183.601,211.484,183.601z"/>
		<g>
			<path style="fill:#5E6265;" d="M110.47,108.462h-0.651c-0.59,0-1.069-0.479-1.069-1.069v-0.351c0-0.59,0.479-1.069,1.069-1.069
				h6.65c0.59,0,1.069,0.479,1.069,1.069v0.351c0,0.59-0.479,1.069-1.069,1.069h-0.65c-0.59,0-1.069,0.479-1.069,1.069v4.895
				c0,0.59-0.479,1.069-1.069,1.069h-1.072c-0.59,0-1.069-0.479-1.069-1.069v-4.895C111.54,108.941,111.061,108.462,110.47,108.462z
				"/>
			<path style="fill:#5E6265;" d="M117.853,110.734c0-2.884,2.272-4.979,5.374-4.979c3.102,0,5.373,2.095,5.373,4.979
				c0,2.884-2.272,4.979-5.373,4.979C120.124,115.713,117.853,113.618,117.853,110.734z M125.362,110.734
				c0-1.483-0.952-2.381-2.136-2.381c-1.184,0-2.136,0.898-2.136,2.381s0.952,2.381,2.136,2.381
				C124.41,113.115,125.362,112.217,125.362,110.734z"/>
			<path style="fill:#5E6265;" d="M133.852,107.042c0-0.59,0.479-1.069,1.069-1.069h3.624c3.183,0,5.374,1.809,5.374,4.761
				c0,2.952-2.19,4.761-5.374,4.761h-3.624c-0.591,0-1.069-0.479-1.069-1.069V107.042z M138.41,112.992
				c1.347,0,2.272-0.802,2.272-2.258c0-1.456-0.925-2.259-2.272-2.259h-0.278c-0.59,0-1.069,0.479-1.069,1.069v2.378
				c0,0.59,0.479,1.069,1.069,1.069H138.41z"/>
			<path style="fill:#5E6265;" d="M144.709,110.734c0-2.884,2.272-4.979,5.374-4.979c3.102,0,5.373,2.095,5.373,4.979
				c0,2.884-2.272,4.979-5.373,4.979C146.981,115.713,144.709,113.618,144.709,110.734z M152.218,110.734
				c0-1.483-0.952-2.381-2.136-2.381c-1.184,0-2.136,0.898-2.136,2.381s0.952,2.381,2.136,2.381
				C151.266,113.115,152.218,112.217,152.218,110.734z"/>
			<path style="fill:#5E6265;" d="M161.777,105.973h1.072c0.59,0,1.069,0.479,1.069,1.069v4.895c0,0.59,0.479,1.069,1.069,1.069
				h2.161c0.59,0,1.069,0.479,1.069,1.069v0.351c0,0.59-0.479,1.069-1.069,1.069h-5.371c-0.59,0-1.069-0.479-1.069-1.069v-7.384
				C160.708,106.452,161.187,105.973,161.777,105.973z"/>
			<path style="fill:#5E6265;" d="M170.172,105.973h1.072c0.59,0,1.069,0.479,1.069,1.069v7.384c0,0.59-0.479,1.069-1.069,1.069
				h-1.072c-0.59,0-1.069-0.479-1.069-1.069v-7.384C169.102,106.452,169.581,105.973,170.172,105.973z"/>
			<path style="fill:#5E6265;" d="M173.691,113.771l0.166-0.376c0.226-0.512,0.813-0.775,1.336-0.573
				c0.722,0.278,1.522,0.442,2.25,0.442c0.911,0,1.238-0.19,1.238-0.517c0-1.197-5.265-0.231-5.265-3.782
				c0-1.769,1.483-3.211,4.435-3.211c0.855,0,1.728,0.122,2.51,0.369c0.603,0.191,0.919,0.853,0.676,1.437l-0.149,0.359
				c-0.219,0.529-0.814,0.775-1.355,0.589c-0.593-0.204-1.163-0.305-1.709-0.305c-0.939,0-1.238,0.272-1.238,0.599
				c0,1.143,5.265,0.191,5.265,3.701c0,1.741-1.483,3.21-4.435,3.21c-1.107,0-2.221-0.191-3.117-0.504
				C173.714,115.005,173.441,114.336,173.691,113.771z"/>
			<path style="fill:#5E6265;" d="M183.665,108.462h-0.651c-0.59,0-1.069-0.479-1.069-1.069v-0.351c0-0.59,0.479-1.069,1.069-1.069
				h6.65c0.59,0,1.069,0.479,1.069,1.069v0.351c0,0.59-0.479,1.069-1.069,1.069h-0.65c-0.59,0-1.069,0.479-1.069,1.069v4.895
				c0,0.59-0.479,1.069-1.069,1.069h-1.072c-0.59,0-1.069-0.479-1.069-1.069v-4.895
				C184.735,108.941,184.256,108.462,183.665,108.462z"/>
		</g>
		<g>
			<g>
				<path style="fill:#FFFFFF;" d="M111.445,108.462h-0.651c-0.59,0-1.069-0.479-1.069-1.069v-0.351c0-0.59,0.479-1.069,1.069-1.069
					h6.65c0.59,0,1.069,0.479,1.069,1.069v0.351c0,0.59-0.479,1.069-1.069,1.069h-0.651c-0.59,0-1.069,0.479-1.069,1.069v4.895
					c0,0.59-0.479,1.069-1.069,1.069h-1.072c-0.59,0-1.069-0.479-1.069-1.069v-4.895
					C112.514,108.941,112.035,108.462,111.445,108.462z"/>
				<path style="fill:#FFFFFF;" d="M118.827,110.734c0-2.884,2.272-4.979,5.374-4.979c3.102,0,5.373,2.095,5.373,4.979
					c0,2.884-2.272,4.979-5.373,4.979C121.099,115.713,118.827,113.618,118.827,110.734z M126.337,110.734
					c0-1.483-0.952-2.381-2.136-2.381c-1.184,0-2.136,0.898-2.136,2.381s0.952,2.381,2.136,2.381
					C125.384,113.115,126.337,112.217,126.337,110.734z"/>
				<path style="fill:#FFFFFF;" d="M134.826,107.042c0-0.59,0.479-1.069,1.069-1.069h3.625c3.183,0,5.374,1.809,5.374,4.761
					c0,2.952-2.19,4.761-5.374,4.761h-3.625c-0.59,0-1.069-0.479-1.069-1.069V107.042z M139.384,112.992
					c1.347,0,2.272-0.802,2.272-2.258c0-1.456-0.925-2.259-2.272-2.259h-0.278c-0.59,0-1.069,0.479-1.069,1.069v2.378
					c0,0.59,0.479,1.069,1.069,1.069H139.384z"/>
				<path style="fill:#FFFFFF;" d="M145.683,110.734c0-2.884,2.272-4.979,5.374-4.979c3.102,0,5.373,2.095,5.373,4.979
					c0,2.884-2.272,4.979-5.373,4.979C147.955,115.713,145.683,113.618,145.683,110.734z M153.193,110.734
					c0-1.483-0.952-2.381-2.136-2.381c-1.184,0-2.136,0.898-2.136,2.381s0.952,2.381,2.136,2.381
					C152.24,113.115,153.193,112.217,153.193,110.734z"/>
				<path style="fill:#FFFFFF;" d="M162.752,105.973h1.072c0.59,0,1.069,0.479,1.069,1.069v4.895c0,0.59,0.479,1.069,1.069,1.069
					h2.161c0.59,0,1.069,0.479,1.069,1.069v0.351c0,0.59-0.479,1.069-1.069,1.069h-5.371c-0.59,0-1.069-0.479-1.069-1.069v-7.384
					C161.683,106.452,162.161,105.973,162.752,105.973z"/>
				<path style="fill:#FFFFFF;" d="M171.146,105.973h1.072c0.59,0,1.069,0.479,1.069,1.069v7.384c0,0.59-0.479,1.069-1.069,1.069
					h-1.072c-0.59,0-1.069-0.479-1.069-1.069v-7.384C170.077,106.452,170.556,105.973,171.146,105.973z"/>
				<path style="fill:#FFFFFF;" d="M174.665,113.771l0.166-0.376c0.226-0.512,0.813-0.775,1.336-0.573
					c0.722,0.278,1.522,0.442,2.25,0.442c0.911,0,1.238-0.19,1.238-0.517c0-1.197-5.265-0.231-5.265-3.782
					c0-1.769,1.483-3.211,4.435-3.211c0.855,0,1.728,0.122,2.51,0.369c0.604,0.191,0.919,0.853,0.676,1.437l-0.149,0.359
					c-0.22,0.529-0.814,0.775-1.355,0.589c-0.593-0.204-1.163-0.305-1.709-0.305c-0.939,0-1.238,0.272-1.238,0.599
					c0,1.143,5.265,0.191,5.265,3.701c0,1.741-1.483,3.21-4.435,3.21c-1.107,0-2.221-0.191-3.117-0.504
					C174.689,115.005,174.416,114.336,174.665,113.771z"/>
				<path style="fill:#FFFFFF;" d="M184.64,108.462h-0.651c-0.59,0-1.069-0.479-1.069-1.069v-0.351c0-0.59,0.479-1.069,1.069-1.069
					h6.65c0.59,0,1.069,0.479,1.069,1.069v0.351c0,0.59-0.479,1.069-1.069,1.069h-0.65c-0.59,0-1.069,0.479-1.069,1.069v4.895
					c0,0.59-0.479,1.069-1.069,1.069h-1.072c-0.59,0-1.069-0.479-1.069-1.069v-4.895C185.709,108.941,185.23,108.462,184.64,108.462
					z"/>
			</g>
		</g>
		<path style="fill:#FFFFFF;" d="M101.833,125.171c-0.075-0.266-0.209-0.498-0.404-0.694c-0.106-0.082-0.212-0.164-0.318-0.246
			c-0.245-0.142-0.51-0.214-0.794-0.215c-0.217-0.008-0.418,0.037-0.606,0.135c-0.195,0.063-0.364,0.172-0.506,0.325
			c-0.153,0.142-0.262,0.311-0.325,0.506c-0.098,0.187-0.144,0.389-0.135,0.606c0.019,0.139,0.037,0.279,0.056,0.418
			c0.075,0.266,0.209,0.498,0.404,0.694c0.106,0.082,0.212,0.164,0.318,0.246c0.245,0.142,0.51,0.214,0.794,0.215
			c0.216,0.008,0.418-0.037,0.606-0.135c0.195-0.063,0.364-0.172,0.506-0.325c0.153-0.142,0.262-0.311,0.325-0.506
			c0.099-0.187,0.144-0.389,0.135-0.606C101.871,125.45,101.852,125.311,101.833,125.171z"/>
		<path style="fill:#FFFFFF;" d="M119.177,154.449c-0.087-0.31-0.244-0.578-0.47-0.807c-0.165-0.178-0.361-0.304-0.588-0.378
			c-0.218-0.115-0.452-0.167-0.704-0.157c-0.33,0.001-0.637,0.084-0.922,0.25c-0.275,0.162-0.493,0.381-0.656,0.656
			c-0.165,0.285-0.248,0.592-0.249,0.922c0.001,0.011,0.002,0.022,0.002,0.033c0.022,0.161,0.043,0.322,0.065,0.482
			c0.061,0.144,0.122,0.289,0.183,0.433c0.094,0.122,0.189,0.245,0.284,0.367c0.164,0.177,0.359,0.302,0.584,0.375
			c0.141,0.082,0.294,0.123,0.458,0.124c0.161,0.043,0.321,0.043,0.482,0c0.164-0.001,0.316-0.042,0.458-0.124
			c0.225-0.073,0.419-0.198,0.584-0.375c0.007-0.008,0.014-0.015,0.021-0.023C119.159,155.75,119.354,155.091,119.177,154.449z"/>
		<path style="fill:#FFFFFF;" d="M142.322,124.589c-0.082-0.291-0.229-0.544-0.442-0.758c-0.116-0.09-0.232-0.179-0.348-0.269
			c-0.268-0.155-0.557-0.234-0.868-0.235c-0.237-0.009-0.457,0.04-0.662,0.148c-0.213,0.069-0.398,0.188-0.553,0.355
			c-0.168,0.156-0.286,0.34-0.355,0.553c-0.108,0.205-0.157,0.426-0.148,0.662c0.02,0.152,0.041,0.305,0.061,0.457
			c0.082,0.291,0.229,0.544,0.442,0.758c0.116,0.09,0.232,0.179,0.348,0.269c0.268,0.156,0.557,0.234,0.867,0.235
			c0.237,0.009,0.457-0.04,0.662-0.148c0.213-0.069,0.397-0.188,0.553-0.355c0.168-0.156,0.286-0.34,0.355-0.553
			c0.108-0.205,0.157-0.425,0.148-0.662C142.363,124.894,142.342,124.741,142.322,124.589z"/>
		<path style="fill:#FFFFFF;" d="M149.623,164.279c-0.08-0.285-0.224-0.532-0.433-0.742c-0.109-0.093-0.223-0.181-0.341-0.264
			c-0.192-0.122-0.4-0.189-0.623-0.199c-0.075-0.011-0.15-0.021-0.226-0.03c-0.232-0.009-0.448,0.04-0.648,0.145
			c-0.208,0.068-0.389,0.184-0.541,0.348c-0.208,0.21-0.353,0.457-0.433,0.742c-0.02,0.149-0.04,0.298-0.06,0.447
			c0.001,0.304,0.077,0.587,0.23,0.849c0.106,0.196,0.25,0.353,0.433,0.472c0.162,0.149,0.353,0.249,0.572,0.301
			c0.298,0.08,0.596,0.08,0.894,0c0.134-0.057,0.268-0.113,0.402-0.17c0.253-0.15,0.454-0.351,0.604-0.604l0.169-0.402
			C149.704,164.876,149.704,164.577,149.623,164.279z"/>
		<path style="fill:#FFFFFF;" d="M173.639,143.091c-0.071-0.219-0.193-0.409-0.365-0.569c-0.16-0.172-0.35-0.294-0.569-0.365
			c-0.211-0.111-0.438-0.161-0.681-0.152c-0.319,0.001-0.616,0.081-0.892,0.241c-0.235,0.131-0.37,0.271-0.524,0.47
			c-0.098,0.126-0.116,0.13-0.159,0.227c-0.125,0.196-0.193,0.409-0.203,0.636c-0.051,0.227-0.041,0.455,0.031,0.682
			c0.133,0.41,0.39,0.82,0.786,1.022c0.148,0.075,0.311,0.164,0.46,0.198c0.156,0.021,0.312,0.042,0.468,0.063
			c0.168-0.016,0.336-0.039,0.502-0.069c0.299-0.084,0.559-0.235,0.78-0.454c0.092-0.119,0.184-0.238,0.276-0.358
			c0.16-0.276,0.24-0.573,0.241-0.892C173.8,143.529,173.749,143.302,173.639,143.091z"/>
		<path style="fill:#FFFFFF;" d="M198.17,125.116c-0.077-0.274-0.216-0.513-0.416-0.715c-0.109-0.084-0.218-0.169-0.328-0.253
			c-0.253-0.146-0.525-0.22-0.817-0.221c-0.223-0.008-0.431,0.038-0.624,0.139c-0.201,0.065-0.374,0.177-0.521,0.335
			c-0.158,0.147-0.27,0.32-0.335,0.521c-0.101,0.193-0.148,0.401-0.139,0.624c0.019,0.144,0.039,0.287,0.058,0.43
			c0.077,0.274,0.216,0.512,0.417,0.715c0.109,0.084,0.218,0.169,0.328,0.253c0.253,0.146,0.525,0.22,0.817,0.221
			c0.223,0.008,0.431-0.038,0.624-0.14c0.201-0.065,0.374-0.177,0.521-0.335c0.158-0.147,0.27-0.32,0.335-0.521
			c0.101-0.193,0.148-0.401,0.139-0.624C198.209,125.403,198.189,125.26,198.17,125.116z"/>
		<path style="fill:#FFFFFF;" d="M207.34,163.779c-0.099-0.352-0.277-0.657-0.534-0.916c-0.14-0.108-0.28-0.217-0.42-0.325
			c-0.324-0.188-0.673-0.282-1.048-0.284c-0.286-0.011-0.553,0.049-0.8,0.179c-0.258,0.084-0.48,0.227-0.668,0.429
			c-0.202,0.188-0.346,0.411-0.429,0.668c-0.13,0.247-0.19,0.514-0.179,0.8c0.025,0.184,0.049,0.368,0.074,0.552
			c0.099,0.352,0.277,0.657,0.534,0.916c0.14,0.108,0.28,0.216,0.42,0.325c0.324,0.188,0.673,0.282,1.048,0.284
			c0.286,0.011,0.553-0.049,0.8-0.179c0.257-0.084,0.48-0.227,0.668-0.429c0.202-0.188,0.346-0.411,0.429-0.668
			c0.13-0.247,0.19-0.514,0.179-0.8L207.34,163.779z"/>
		<path style="fill:#4F5355;" d="M107.667,130.08c-4.285-0.098-8.587-0.143-12.874-0.078c-0.512-0.015-0.762,0.385-0.755,0.785
			c-0.008,0.4,0.242,0.8,0.755,0.785c4.286,0.065,8.588,0.02,12.874-0.078c0.462,0.011,0.687-0.348,0.68-0.706
			C108.354,130.428,108.129,130.07,107.667,130.08z"/>
		<path style="fill:#4F5355;" d="M107.667,135.112c-4.285-0.098-8.587-0.143-12.874-0.078c-0.512-0.015-0.762,0.385-0.755,0.785
			c-0.008,0.4,0.242,0.8,0.755,0.785c4.286,0.065,8.588,0.02,12.874-0.078c0.462,0.011,0.687-0.348,0.68-0.706
			C108.354,135.46,108.129,135.101,107.667,135.112z"/>
		<path style="fill:#4F5355;" d="M123.64,159.913c-4.285-0.098-8.587-0.143-12.873-0.078c-0.512-0.015-0.762,0.385-0.755,0.785
			c-0.008,0.4,0.242,0.8,0.755,0.785c4.286,0.065,8.588,0.02,12.873-0.078c0.462,0.01,0.686-0.348,0.68-0.706
			C124.327,160.26,124.102,159.902,123.64,159.913z"/>
		<path style="fill:#4F5355;" d="M123.64,164.944c-4.285-0.098-8.587-0.143-12.873-0.078c-0.512-0.015-0.762,0.385-0.755,0.785
			c-0.008,0.4,0.242,0.8,0.755,0.785c4.286,0.065,8.588,0.02,12.873-0.078c0.462,0.011,0.686-0.348,0.68-0.706
			C124.327,165.292,124.102,164.934,123.64,164.944z"/>
		<path style="fill:#4F5355;" d="M123.64,169.976c-4.285-0.098-8.587-0.143-12.873-0.078c-0.512-0.015-0.762,0.385-0.755,0.785
			c-0.008,0.4,0.242,0.8,0.755,0.785c4.286,0.065,8.588,0.02,12.873-0.078c0.462,0.011,0.686-0.348,0.68-0.706
			C124.327,170.324,124.102,169.965,123.64,169.976z"/>
		<path style="fill:#4F5355;" d="M147.31,130.124c-4.285-0.098-8.587-0.143-12.873-0.078c-0.512-0.015-0.762,0.385-0.755,0.785
			c-0.008,0.4,0.242,0.8,0.755,0.785c4.286,0.065,8.588,0.02,12.873-0.078c0.462,0.011,0.687-0.348,0.68-0.706
			C147.997,130.472,147.773,130.113,147.31,130.124z"/>
		<path style="fill:#4F5355;" d="M153.91,169.13c-4.285-0.098-8.587-0.143-12.873-0.078c-0.512-0.015-0.762,0.385-0.755,0.785
			c-0.008,0.4,0.242,0.8,0.755,0.785c4.286,0.065,8.588,0.02,12.873-0.078c0.462,0.01,0.686-0.348,0.68-0.706
			C154.597,169.478,154.373,169.119,153.91,169.13z"/>
		<path style="fill:#4F5355;" d="M153.91,174.162c-4.285-0.098-8.587-0.143-12.873-0.078c-0.512-0.015-0.762,0.385-0.755,0.785
			c-0.008,0.4,0.242,0.8,0.755,0.785c4.286,0.065,8.588,0.02,12.873-0.078c0.462,0.01,0.686-0.348,0.68-0.706
			C154.597,174.51,154.373,174.151,153.91,174.162z"/>
		<path style="fill:#4F5355;" d="M177.844,148.404c-4.285-0.098-8.587-0.143-12.873-0.078c-0.512-0.015-0.762,0.385-0.755,0.785
			c-0.008,0.4,0.242,0.8,0.755,0.785c4.286,0.065,8.588,0.02,12.873-0.078c0.462,0.01,0.687-0.348,0.68-0.706
			C178.531,148.752,178.307,148.393,177.844,148.404z"/>
		<path style="fill:#4F5355;" d="M177.844,153.435c-4.285-0.098-8.587-0.143-12.873-0.078c-0.512-0.015-0.762,0.385-0.755,0.785
			c-0.008,0.4,0.242,0.8,0.755,0.785c4.286,0.065,8.588,0.02,12.873-0.078c0.462,0.01,0.687-0.348,0.68-0.706
			C178.531,153.783,178.307,153.425,177.844,153.435z"/>
		<path style="fill:#4F5355;" d="M202.231,130.14c-4.285-0.098-8.587-0.143-12.874-0.078c-0.512-0.015-0.762,0.385-0.755,0.785
			c-0.008,0.4,0.242,0.8,0.755,0.785c4.286,0.065,8.588,0.02,12.874-0.078c0.462,0.011,0.686-0.348,0.68-0.706
			C202.918,130.488,202.694,130.129,202.231,130.14z"/>
		<path style="fill:#4F5355;" d="M202.231,135.171c-4.285-0.098-8.587-0.143-12.874-0.078c-0.512-0.015-0.762,0.385-0.755,0.785
			c-0.008,0.4,0.242,0.8,0.755,0.785c4.286,0.065,8.588,0.02,12.874-0.078c0.462,0.011,0.686-0.348,0.68-0.706
			C202.918,135.519,202.694,135.161,202.231,135.171z"/>
		<path style="fill:#4F5355;" d="M211.023,168.318c-4.285-0.098-8.587-0.143-12.874-0.078c-0.512-0.015-0.762,0.385-0.755,0.785
			c-0.008,0.4,0.242,0.8,0.755,0.785c4.286,0.065,8.588,0.02,12.874-0.078c0.462,0.011,0.686-0.348,0.679-0.706
			C211.71,168.666,211.485,168.307,211.023,168.318z"/>
		<path style="fill:#4F5355;" d="M211.023,173.35c-4.285-0.098-8.587-0.143-12.874-0.078c-0.512-0.015-0.762,0.385-0.755,0.785
			c-0.008,0.4,0.242,0.8,0.755,0.785c4.286,0.065,8.588,0.02,12.874-0.078c0.462,0.011,0.686-0.348,0.679-0.706
			C211.71,173.698,211.485,173.339,211.023,173.35z"/>
		<path style="fill:#4F5355;" d="M211.023,178.381c-4.285-0.098-8.587-0.143-12.874-0.078c-0.512-0.015-0.762,0.385-0.755,0.785
			c-0.008,0.4,0.242,0.8,0.755,0.785c4.286,0.065,8.588,0.02,12.874-0.078c0.462,0.011,0.686-0.348,0.679-0.706
			C211.71,178.729,211.485,178.371,211.023,178.381z"/>
	</g>
	<g>
		<path style="fill:#A9A3A5;" d="M372.483,185.666h65.297c2.986,0,5.407-2.421,5.407-5.407v-69.43c0-2.986-2.421-5.407-5.407-5.407
			h-65.297c-2.986,0-5.407,2.421-5.407,5.407v69.43C367.076,183.246,369.497,185.666,372.483,185.666z"/>
		<path style="fill:#B9B9B9;" d="M374.554,183.156h61.154c2.986,0,5.407-2.421,5.407-5.407V113.34c0-2.986-2.421-5.407-5.407-5.407
			h-61.154c-2.986,0-5.407,2.421-5.407,5.407v64.409C369.147,180.735,371.568,183.156,374.554,183.156z"/>
		<path style="fill:#DCDEDB;" d="M378.758,179.549h52.746c2.986,0,5.407-2.421,5.407-5.407v-57.195c0-2.986-2.421-5.407-5.407-5.407
			h-52.746c-2.986,0-5.407,2.421-5.407,5.407v57.195C373.351,177.128,375.772,179.549,378.758,179.549z"/>
		<path style="fill:#FFFFFF;" d="M381.586,177.309h47.09c2.986,0,5.407-2.421,5.407-5.407v-52.715c0-2.986-2.421-5.407-5.407-5.407
			h-47.09c-2.986,0-5.407,2.421-5.407,5.407v52.715C376.179,174.888,378.6,177.309,381.586,177.309z"/>
		<g>
			<path style="fill:#6F9585;" d="M425.772,133.714c-0.774-3.341-1.698-6.7-1.589-10.158c0.014-0.435-0.469-0.839-0.899-0.685
				c-10.295,3.707-22.758,1.143-31.749,8.378c-3.842,3.092-6.414,7.599-7.595,12.35c-0.599,2.408-0.858,4.913-0.745,7.392
				c0.116,2.551,0.534,5.36,2.107,7.453c1.564,2.082,3.493,3.54,6.131,3.882c1.477,0.192,2.963,0.018,4.321-0.505
				c0.438,2.618,2.003,5.038,4.487,6.197c4.048,1.89,9.066,1.076,12.977-0.756c9.429-4.415,13.821-14.652,13.71-24.64
				C426.894,139.601,426.453,136.655,425.772,133.714z M412.522,128.498c0.115-0.272,0.276-0.482,0.51-0.662
				c0.288-0.223,0.634-0.355,1.003-0.355c0.301,0,0.566,0.107,0.835,0.226c0.674,0.298,1.107,1.079,1.036,1.807
				c-0.035,0.359-0.084,0.67-0.276,0.98c-0.094,0.152-0.22,0.295-0.343,0.428c-0.498,0.539-1.474,0.537-1.972,0
				c-0.166-0.179-0.316-0.36-0.459-0.561c0.085,0.11,0.17,0.221,0.256,0.331c-0.094-0.118-0.2-0.208-0.294-0.33
				c-0.15-0.193-0.259-0.397-0.332-0.634c-0.016-0.051-0.028-0.101-0.047-0.151C412.314,129.241,412.389,128.815,412.522,128.498z
				 M394.206,157.375c-1.177,0.564-2.248,0.43-3.431-0.01c-0.93-0.346-1.934-0.769-2.435-1.681c-0.478-0.87-0.171-1.849,0.625-2.385
				c0.669-0.45,1.534-0.447,2.318-0.495c0.164-0.01,0.328-0.024,0.491-0.035c0.003-0.002,0.002-0.003,0.006-0.006
				c0.418-0.326,1.336-0.135,1.82-0.021C395.64,153.219,396.177,156.433,394.206,157.375z M397.624,150.425
				c-0.121,0.403-0.348,0.725-0.675,0.978c-0.354,0.273-0.71,0.355-1.141,0.404c-0.758,0.087-1.491-0.203-2.066-0.679
				c-0.662-0.547-0.664-1.86,0-2.409c0.33-0.273,0.667-0.467,1.081-0.584c0.32-0.091,0.655-0.132,0.985-0.094
				c0.449,0.051,0.785,0.13,1.141,0.404c0.327,0.252,0.556,0.581,0.675,0.978C397.72,149.745,397.72,150.106,397.624,150.425z
				 M401.046,138.294c-0.398,0.942-1.366,1.445-2.371,1.31c-0.686-0.092-1.253-0.404-1.769-0.862
				c-0.348-0.309-0.619-0.692-0.903-1.057c0.477,0.613-0.349-0.482-0.27-0.334c-0.111-0.21-0.216-0.456-0.261-0.691
				c-0.146-0.763,0.077-1.697,0.844-2.074c1.076-0.529,2.154-0.273,3.161,0.281C400.703,135.54,401.647,136.87,401.046,138.294z
				 M402.918,136.339c-0.003-0.066,0.006-0.134,0.012-0.201c-0.001,0.011-0.003,0.022-0.004,0.034
				c0.032-0.348,0.025-0.681,0.137-1.019c0.122-0.366,0.334-0.645,0.656-0.853c0.274-0.176,0.789-0.266,1.1-0.144
				c0.533,0.208,0.96,0.455,1.227,0.998c0.255,0.518,0.411,1.064,0.252,1.643c-0.13,0.471-0.494,0.951-0.919,1.2
				c-0.512,0.299-1.094,0.263-1.602,0.003c-0.152-0.082-0.273-0.194-0.366-0.336c0.027,0.035,0.052,0.068,0.091,0.117
				c-0.008-0.012-0.023-0.02-0.033-0.031c-0.259-0.267-0.338-0.557-0.459-0.884c0.056,0.134,0.113,0.268,0.17,0.402
				C403.037,136.953,402.934,136.683,402.918,136.339z M406.449,165.093c-0.513,0.487-1.462,0.72-2.08,0.268
				c-0.509-0.372-0.776-0.714-0.972-1.326c-0.107-0.336-0.161-0.66-0.203-1.012c-0.071-0.6-0.079-1.175,0.105-1.759
				c0.259-0.821,1.345-1.45,2.144-0.872c0.708,0.512,1.161,1.134,1.463,1.954C407.235,163.238,407.162,164.416,406.449,165.093z
				 M410.282,157.341c-0.038,0.152-0.11,0.3-0.177,0.442c-0.117,0.248-0.384,0.435-0.628,0.537c-0.284,0.12-0.541,0.113-0.835,0.068
				c0.1,0.013,0.199,0.027,0.299,0.04c-0.116-0.014-0.214-0.026-0.307-0.041c-0.004-0.001-0.007,0-0.011-0.001
				c-0.015-0.002-0.03-0.005-0.045-0.007c0.013,0.002,0.027,0.004,0.04,0.005c-0.16-0.027-0.305-0.068-0.482-0.171
				c-0.196-0.115-0.266-0.208-0.402-0.342c-0.181-0.179-0.363-0.319-0.478-0.564c-0.095-0.202-0.242-0.407-0.292-0.624
				c-0.031-0.138-0.037-0.26-0.031-0.383c-0.223-0.641,0.428-1.308,1.063-1.242c0.199-0.038,0.401-0.046,0.621,0.001
				c0.193,0.041,0.375,0.112,0.556,0.188c0.413,0.174,0.714,0.526,0.931,0.912C410.307,156.52,410.384,156.936,410.282,157.341z
				 M415.252,155.383c-0.656,0.007-1.246-0.212-1.775-0.591c-0.274-0.196-0.532-0.415-0.79-0.631
				c-0.03-0.025-0.305-0.257-0.298-0.255c-0.486-0.387-1.512-1.092-1.863-1.874c-0.516-1.15,0.091-2.403,1.419-2.473
				c0.889-0.047,1.907,0.276,2.733,0.584c1.34,0.498,2.829,1.45,2.709,3.104C417.303,154.412,416.468,155.368,415.252,155.383z
				 M423.195,139.031c-0.937,2.152-4.361,1.685-5.314-0.193c-0.334-0.658-0.231-1.707,0.538-2.052
				c0.533-0.239,1.044-0.346,1.602-0.488c0.745-0.189,1.298-0.16,2.049-0.032c0.561,0.096,1.011,0.596,1.219,1.09
				C423.542,137.952,423.445,138.457,423.195,139.031z M423.898,134.42c-0.256,0.38-0.572,0.669-1.018,0.814
				c-0.534,0.173-1.123-0.042-1.513-0.414c-0.188-0.179-0.353-0.474-0.409-0.729c-0.073-0.336-0.035-0.647,0.124-0.949
				c0.084-0.159,0.249-0.317,0.429-0.429c0.098-0.086,0.193-0.148,0.294-0.198c-0.01,0.004-0.02,0.008-0.03,0.013
				c0.027-0.013,0.051-0.029,0.076-0.045c0.137-0.102,0.28-0.193,0.454-0.239c0.065-0.017,0.13-0.027,0.195-0.048
				c0.666-0.209,1.335,0.247,1.535,0.872C424.175,133.509,424.163,134.028,423.898,134.42z"/>
			<path style="fill:#4D6B61;" d="M419.896,133.847c-0.211-0.109-0.426-0.214-0.664-0.24c-0.186-0.021-0.373-0.027-0.56-0.02
				c-0.218,0.008-0.434,0.041-0.646,0.09c-0.079,0.018-0.165,0.044-0.251,0.068c0.491-0.694,0.943-1.415,1.324-2.173
				c0.443-0.879,1.544-2.754,0.733-3.648c-0.02-0.022-0.058-0.033-0.086-0.023c-0.39,0.143-0.585,0.424-0.755,0.796
				c-0.041,0.089-0.075,0.178-0.114,0.268c-0.049-0.116-0.091-0.235-0.149-0.347c-0.113-0.221-0.28-0.407-0.452-0.585
				c-0.116-0.12-0.314-0.142-0.457-0.059c-0.134,0.078-0.233,0.272-0.173,0.426c0.037,0.096,0.072,0.192,0.102,0.29
				c0.013,0.042,0.024,0.086,0.038,0.128c0.021,0.052,0.042,0.103,0.064,0.154c0.005,0.013,0.006,0.013,0.009,0.02
				c0.074,0.179,0.136,0.364,0.186,0.551c0.05,0.19,0.096,0.384,0.131,0.577c0.009,0.051,0.017,0.101,0.025,0.152
				c0.007,0.055,0.014,0.109,0.022,0.163c0.001,0.003,0.002,0.005,0.003,0.007c-0.075,0.163-0.14,0.328-0.225,0.488
				c-0.694,1.309-1.548,2.515-2.515,3.636c-0.044,0.051-0.093,0.098-0.138,0.15c-0.002-0.014-0.004-0.029-0.006-0.042
				c-0.039-0.328-0.091-0.655-0.166-0.977c-0.07-0.3-0.157-0.596-0.261-0.886c-0.058-0.162-0.118-0.328-0.191-0.484
				c-0.066-0.139-0.164-0.259-0.257-0.382c-0.119-0.157-0.299-0.248-0.494-0.162c-0.184,0.081-0.275,0.27-0.229,0.466
				c0.034,0.148,0.056,0.302,0.107,0.445c0.044,0.124,0.093,0.247,0.135,0.372c0.094,0.282,0.172,0.569,0.234,0.859
				c0.056,0.261,0.097,0.519,0.122,0.781c0.013,0.142,0.023,0.285,0.028,0.428c0.007,0.174-0.013,0.36,0.045,0.526
				c0.006,0.016,0.021,0.022,0.027,0.037c-1.687,1.78-3.541,3.399-5.366,5.034c0.112-1.651,0.164-3.303,0.105-4.959
				c-0.035-0.994-0.102-1.984-0.212-2.973c-0.097-0.87-0.123-1.9-0.547-2.682c-0.142-0.262-0.574-0.208-0.643,0.084
				c-0.212,0.897,0.003,1.916,0.052,2.827c0.051,0.952,0.092,1.906,0.107,2.859c0.029,1.947-0.05,3.897-0.227,5.835
				c-0.009,0.101,0.011,0.182,0.037,0.257c-2.758,2.611-5.239,5.449-7.337,8.575c0-0.026-0.001-0.053-0.001-0.079
				c0.004-1.002,0.007-2.004,0.008-3.006c0.001-1.002-0.008-2.004-0.021-3.006c-0.013-1.038,0.052-2.113-0.113-3.139
				c-0.024-0.153-0.197-0.326-0.35-0.35c0.002,0-0.103-0.025-0.144-0.019c-0.041,0.006-0.081,0.013-0.122,0.019
				c-0.153,0.024-0.326,0.197-0.35,0.35c-0.164,1.027-0.101,2.101-0.119,3.139c-0.017,1.002-0.034,2.004-0.043,3.006
				c-0.008,1.002-0.018,2.004-0.029,3.006c-0.006,0.534-0.049,1.085-0.018,1.619c0.009,0.16,0.038,0.279,0.079,0.387
				c-0.643,1.073-1.256,2.169-1.81,3.307c-0.046-0.346-0.094-0.691-0.149-1.036c-0.057-0.358-0.101-0.728-0.189-1.079
				c-0.089-0.356-0.192-0.721-0.508-0.934c-0.118-0.079-0.272-0.017-0.345,0.09c-0.212,0.314-0.157,0.749-0.106,1.108
				c0.047,0.33,0.096,0.66,0.137,0.991c0.043,0.35,0.08,0.7,0.113,1.05c0.038,0.408,0.058,0.791,0.237,1.165
				c0.031,0.064,0.083,0.095,0.133,0.131c-0.527,1.185-1.022,2.385-1.447,3.61c-0.573,1.648-1.34,3.532-1.31,5.298
				c0.008,0.472,0.711,0.723,0.939,0.254c0.686-1.408,0.927-3.041,1.418-4.528c0.165-0.499,0.354-0.99,0.536-1.483
				c0.266-0.136,0.5-0.365,0.742-0.54c0.258-0.186,0.521-0.367,0.787-0.54c0.533-0.348,1.087-0.663,1.658-0.944
				c0.562-0.276,1.139-0.514,1.732-0.716c0.301-0.103,0.604-0.204,0.907-0.303c0.286-0.093,0.619-0.193,0.823-0.425
				c0.147-0.167,0.166-0.501-0.078-0.608c-0.596-0.261-1.374,0.023-1.961,0.212c-0.673,0.217-1.332,0.48-1.973,0.779
				c-0.613,0.286-1.208,0.611-1.779,0.973c-0.005,0.003-0.01,0.007-0.015,0.01c0.149-0.347,0.286-0.699,0.445-1.041
				c1.402-3.034,3.137-5.92,5.175-8.571c0.201-0.261,0.418-0.508,0.625-0.763c0.049,0.003,0.096,0.012,0.15,0.004
				c1.339-0.206,2.659-0.543,4.002-0.748c1.336-0.205,2.679-0.354,4.027-0.453c1.306-0.096,2.612-0.16,3.921-0.19
				c1.064-0.024,2.088,0.087,2.869-0.714c0.035-0.036,0.012-0.109-0.043-0.105c-0.528,0.039-1.127-0.204-1.663-0.25
				c-0.678-0.059-1.355-0.067-2.035-0.065c-1.261,0.004-2.517,0.06-3.773,0.172c-2.039,0.182-4.181,0.406-6.211,0.878
				c1.478-1.659,3.07-3.21,4.731-4.699c0.737-0.661,1.479-1.321,2.216-1.985c0.23,0.033,0.468,0.036,0.71,0.044
				c0.442,0.013,0.883,0.04,1.321,0.102c0.458,0.064,0.913,0.16,1.36,0.278c0.227,0.06,0.447,0.11,0.68,0.142
				c0.142,0.02,0.299,0.035,0.44-0.004c0.116-0.032,0.176-0.134,0.288-0.158c0.077-0.016,0.124-0.124,0.077-0.19
				c-0.085-0.121-0.003,0.013-0.059-0.192c-0.041-0.147-0.157-0.244-0.275-0.331c-0.225-0.165-0.484-0.271-0.75-0.351
				c-0.49-0.147-0.99-0.263-1.495-0.347c-0.348-0.058-0.7-0.1-1.053-0.132c1.069-1.003,2.105-2.04,3.053-3.161
				c0.28-0.331,0.552-0.67,0.818-1.015c0.004,0.01-0.001,0.021,0.003,0.031c0.082,0.194,0.251,0.286,0.455,0.306
				c0.138,0.014,0.263-0.046,0.392-0.084c0.1-0.03,0.202-0.055,0.304-0.076c0.088-0.018,0.176-0.032,0.265-0.047
				c0.016-0.003,0.123-0.019,0.126-0.02c0.031-0.004,0.063-0.007,0.094-0.01c0.221-0.019,0.435-0.017,0.653-0.058
				c0.12-0.022,0.151-0.003,0.286-0.04c0.09-0.025,0.156-0.084,0.207-0.16c0.016-0.023,0.056-0.072,0.053-0.102
				c-0.004-0.024-0.006-0.048-0.006-0.073C420.065,134.029,420.005,133.903,419.896,133.847z"/>
			<path style="fill:#ACC2A9;" d="M391.205,145.021c-0.065-0.173-0.14-0.342-0.21-0.513c-0.003-0.009-0.038-0.102-0.051-0.146
				c-0.078-0.253-0.12-0.516-0.208-0.764c-0.258-0.724-0.992-1.695-1.922-1.321c-1.664,0.67-1.415,2.728-0.718,4.055
				c0.394,0.75,1.381,1.01,2.124,0.696C390.94,146.724,391.505,145.817,391.205,145.021z"/>
			<path style="fill:#ACC2A9;" d="M394.636,140.908c-0.044-0.101-0.088-0.202-0.132-0.302c-0.13-0.298-0.532-0.556-0.83-0.638
				c-0.333-0.092-0.776-0.05-1.071,0.14c-0.63,0.406-0.894,1.231-0.498,1.901c0.056,0.094,0.111,0.188,0.167,0.282
				c0.176,0.297,0.485,0.537,0.818,0.629c0.328,0.09,0.764,0.049,1.055-0.138c0.292-0.188,0.55-0.469,0.629-0.818
				c0.016-0.121,0.033-0.243,0.049-0.364C394.822,141.352,394.76,141.121,394.636,140.908z"/>
			<path style="fill:#ACC2A9;" d="M403.309,130.187c-0.179-0.328-0.397-0.571-0.771-0.683c-0.394-0.118-0.895,0.075-1.09,0.444
				c-0.186,0.352-0.179,0.686-0.063,1.051c0.117,0.368,0.324,0.625,0.679,0.783c0.567,0.252,1.103,0.048,1.325-0.539
				C403.53,130.867,403.502,130.54,403.309,130.187z"/>
			<path style="fill:#ACC2A9;" d="M415.657,162.025c0.019-0.234-0.144-0.476-0.339-0.59c-0.042-0.025-0.086-0.046-0.129-0.068
				c-0.509-0.5-1.332-0.523-1.877-0.616c-0.783-0.133-2.029-0.126-2.18,1.042c-0.301,2.327,4.166,2.88,4.425,0.675
				C415.606,162.329,415.643,162.188,415.657,162.025z"/>
			<path style="fill:#ACC2A9;" d="M417.738,157.643c-0.192-0.176-0.473-0.34-0.745-0.308c-0.199,0.023-0.388,0.034-0.564,0.148
				c-0.169,0.109-0.267,0.232-0.39,0.394c0.054-0.07,0.108-0.139,0.161-0.209c-0.015,0.017-0.03,0.033-0.047,0.048
				c-0.17,0.15-0.291,0.454-0.281,0.679c0.011,0.085,0.023,0.17,0.034,0.255c0.046,0.163,0.128,0.304,0.247,0.424
				c0.049,0.061,0.105,0.098,0.169,0.148c0.277,0.214,0.613,0.262,0.951,0.181c0.241-0.057,0.513-0.264,0.629-0.484
				c0.112-0.213,0.157-0.432,0.125-0.671C417.998,158.027,417.907,157.798,417.738,157.643z"/>
			<g>
				<path style="fill:#ACC2A9;" d="M421.53,146.769c0.002-0.001,0.003-0.001,0.005-0.002c0.009-0.003,0.019-0.009,0.028-0.012
					C421.552,146.759,421.541,146.764,421.53,146.769z"/>
				<path style="fill:#ACC2A9;" d="M423.628,147.389c-0.378-0.489-0.842-0.657-1.441-0.723c-0.24-0.026-0.448,0.025-0.652,0.101
					c-0.534,0.186-1.148,0.594-1.426,1.114c-0.261,0.487-0.325,1.143,0,1.625c0.369,0.547,0.923,0.882,1.574,0.969
					c0.982,0.132,2.036-0.484,2.273-1.486C424.094,148.408,423.992,147.859,423.628,147.389z"/>
				<path style="fill:#ACC2A9;" d="M421.53,146.769c-0.139,0.052-0.276,0.114-0.418,0.177
					C421.251,146.886,421.391,146.827,421.53,146.769z"/>
			</g>
			<path style="fill:#ACC2A9;" d="M417.631,141.774c-0.258-0.081-0.501-0.124-0.774-0.043c-0.112,0.033-0.221,0.083-0.324,0.135
				c-0.049,0.024-0.191,0.079,0.005,0.007c-0.466,0.173-0.876,0.782-0.516,1.267c0.189,0.255,0.364,0.48,0.667,0.608
				c0.428,0.18,0.783,0.109,1.187-0.094c0.364-0.183,0.542-0.644,0.491-1.025C418.312,142.219,418.026,141.897,417.631,141.774z"/>
			<path style="fill:#ACC2A9;" d="M420.898,124.923c-0.24-0.22-0.534-0.359-0.866-0.359c-0.314,0-0.644,0.137-0.866,0.359
				c-0.326,0.326-0.402,0.754-0.315,1.191c0.009,0.044,0.019,0.087,0.03,0.13c0.04,0.095,0.08,0.19,0.12,0.285
				c0.075,0.139,0.177,0.251,0.307,0.335c0.201,0.155,0.462,0.268,0.723,0.256c0.515-0.023,1.024-0.352,1.151-0.876
				c0.01-0.043,0.021-0.087,0.03-0.13C421.296,125.691,421.233,125.23,420.898,124.923z"/>
			<path style="fill:#ACC2A9;" d="M423.624,128.048c-0.047-0.11-0.126-0.208-0.219-0.287c0.011,0.008,0.021,0.016,0.032,0.025
				c-0.008-0.006-0.015-0.012-0.022-0.019c-0.007-0.007-0.016-0.01-0.023-0.016c-0.027-0.022-0.049-0.05-0.08-0.067
				c-0.014-0.008-0.027-0.016-0.04-0.026c0.037,0.028,0.074,0.057,0.11,0.085c-0.131-0.114-0.283-0.188-0.457-0.212
				c-0.175-0.023-0.396-0.006-0.545,0.101c-0.123,0.089-0.245,0.174-0.319,0.314c-0.011,0.021-0.02,0.047-0.03,0.071
				c-0.051,0.108-0.097,0.216-0.088,0.342c0.023,0.315,0.157,0.575,0.436,0.748c0.178,0.11,0.458,0.151,0.658,0.086
				c0.222-0.072,0.376-0.202,0.51-0.392c0.053-0.075,0.085-0.173,0.114-0.255C423.718,128.387,423.686,128.196,423.624,128.048z"/>
			<path style="fill:#ACC2A9;" d="M413.028,132.038c-0.067-0.24-0.189-0.449-0.365-0.626c-0.277-0.255-0.619-0.415-1.003-0.415
				c-0.364,0-0.746,0.158-1.003,0.415c-0.36,0.36-0.495,0.889-0.365,1.38c0.004,0.014,0.008,0.029,0.011,0.043
				c0.047,0.112,0.095,0.224,0.142,0.336c0.089,0.164,0.209,0.296,0.363,0.395c0.238,0.184,0.545,0.316,0.853,0.302
				c0.25-0.011,0.49-0.075,0.711-0.192c0.164-0.089,0.296-0.209,0.395-0.363c0.125-0.136,0.209-0.296,0.252-0.479
				c0.003-0.014,0.005-0.029,0.008-0.043C413.095,132.541,413.095,132.289,413.028,132.038z"/>
		</g>
	</g>
	<g>
		<circle style="fill:#1E3547;" cx="303.839" cy="64.647" r="36.688"/>
		<circle style="fill:#2D4B63;" cx="303.839" cy="64.647" r="34.446"/>
		<circle style="fill:#DCDEDB;" cx="303.839" cy="64.647" r="28.892"/>
		<circle style="fill:#FFFFFF;" cx="303.839" cy="64.647" r="26.599"/>
		<path style="fill:#2D4B63;" d="M305.576,40.24c0.034-0.988-0.893-1.933-1.888-1.888c-1.052,0.047-1.852,0.83-1.888,1.888
			c-0.027,0.781-0.054,1.562-0.081,2.343c-0.035,1.03,0.931,2.015,1.969,1.969c1.036-0.046,2.007-0.866,1.969-1.969L305.576,40.24z"
			/>
		<path style="fill:#2D4B63;" d="M305.576,85.412c0.034-0.988-0.893-1.933-1.888-1.888c-1.052,0.047-1.852,0.83-1.888,1.888
			c-0.027,0.781-0.054,1.562-0.081,2.343c-0.035,1.03,0.931,2.015,1.969,1.969c1.036-0.046,2.007-0.866,1.969-1.969L305.576,85.412z
			"/>
		<path style="fill:#2D4B63;" d="M327.486,65.926c0.988,0.034,1.933-0.893,1.888-1.888c-0.047-1.052-0.83-1.852-1.888-1.888
			c-0.781-0.027-1.562-0.054-2.343-0.08c-1.03-0.035-2.015,0.931-1.969,1.969c0.046,1.037,0.866,2.007,1.969,1.969L327.486,65.926z"
			/>
		<path style="fill:#2D4B63;" d="M282.314,65.926c0.988,0.034,1.933-0.893,1.888-1.888c-0.047-1.052-0.83-1.852-1.888-1.888
			c-0.781-0.027-1.562-0.054-2.343-0.08c-1.03-0.035-2.015,0.931-1.969,1.969c0.046,1.037,0.866,2.007,1.969,1.969L282.314,65.926z"
			/>
		<path style="fill:#2D4B63;" d="M316.521,49.974c-2.186,2.372-4.328,4.78-6.41,7.243c-1.626,1.924-3.123,4.092-4.83,5.97
			c-1.372-1.518-2.956-2.935-4.529-4.184c-1.485-1.18-3.471-3.133-5.39-3.463c-1.245-0.214-2.401,0.994-1.698,2.209
			c0.997,1.725,2.955,3.114,4.387,4.479c1.694,1.614,3.349,3.333,5.113,4.865c1.065,0.926,2.266,0.653,2.947-0.109
			c0.31-0.053,0.622-0.191,0.911-0.45c2.099-1.881,3.77-4.656,5.586-6.821c2.074-2.472,4.189-4.909,6.334-7.319
			C320.4,50.758,318.023,48.344,316.521,49.974z"/>
	</g>
</g>
</svg>
