<?xml version="1.0" encoding="utf-8"?>
<!-- Generator: Adobe Illustrator 27.5.0, SVG Export Plug-In . SVG Version: 6.00 Build 0)  -->
<svg version="1.1" xmlns="http://www.w3.org/2000/svg" xmlns:xlink="http://www.w3.org/1999/xlink" x="0px" y="0px"
	 viewBox="0 0 500 500" style="enable-background:new 0 0 500 500;" xml:space="preserve">
<g id="Background_Complete">
	<g>
		<rect y="382.398" style="fill:#EBEBEB;" width="500" height="0.25"/>
		<rect x="416.779" y="398.494" style="fill:#EBEBEB;" width="33.122" height="0.25"/>
		<rect x="322.527" y="401.208" style="fill:#EBEBEB;" width="8.693" height="0.25"/>
		<rect x="396.586" y="389.208" style="fill:#EBEBEB;" width="19.192" height="0.25"/>
		<rect x="52.459" y="390.888" style="fill:#EBEBEB;" width="43.193" height="0.25"/>
		<rect x="104.556" y="390.888" style="fill:#EBEBEB;" width="6.333" height="0.25"/>
		<rect x="131.471" y="395.111" style="fill:#EBEBEB;" width="93.676" height="0.25"/>
		<path style="fill:#EBEBEB;" d="M237.014,337.8H43.915c-3.147,0-5.708-2.561-5.708-5.708V60.66c0-3.147,2.561-5.708,5.708-5.708
			h193.099c3.146,0,5.707,2.561,5.707,5.708v271.432C242.721,335.239,240.16,337.8,237.014,337.8z M43.915,55.203
			c-3.01,0-5.458,2.448-5.458,5.458v271.432c0,3.01,2.448,5.458,5.458,5.458h193.099c3.009,0,5.457-2.448,5.457-5.458V60.66
			c0-3.009-2.448-5.458-5.457-5.458H43.915z"/>
		<path style="fill:#EBEBEB;" d="M453.31,337.8H260.212c-3.147,0-5.707-2.561-5.707-5.708V60.66c0-3.147,2.561-5.708,5.707-5.708
			H453.31c3.148,0,5.708,2.561,5.708,5.708v271.432C459.019,335.239,456.458,337.8,453.31,337.8z M260.212,55.203
			c-3.009,0-5.457,2.448-5.457,5.458v271.432c0,3.01,2.448,5.458,5.457,5.458H453.31c3.01,0,5.458-2.448,5.458-5.458V60.66
			c0-3.009-2.448-5.458-5.458-5.458H260.212z"/>
	</g>
	<g>
		<g>
			<polygon style="fill:#F0F0F0;" points="441.049,382.648 441.049,334.853 436.962,334.853 436.962,312.079 430.988,312.079 
				430.989,232.897 422.353,232.897 422.353,222.68 403.914,214.08 403.914,203.779 401.359,203.779 401.359,232.897 
				397.783,232.897 397.783,312.079 394.207,312.079 394.207,270.445 384.501,270.445 384.501,248.989 381.793,248.989 
				381.793,312.079 374.421,312.079 374.421,288.069 369.568,288.069 369.568,281.939 358.329,281.939 358.329,260.994 
				352.175,260.994 352.175,246.179 344.609,246.179 344.609,224.596 341.909,224.596 341.909,246.179 334.343,246.179 
				334.343,260.994 328.189,260.994 328.189,281.939 316.95,281.939 316.95,288.069 312.097,288.069 312.097,312.079 
				306.341,312.079 306.341,281.939 295.102,281.939 295.102,217.061 291.526,217.061 291.526,209.909 267.516,209.909 
				267.516,217.061 262.408,217.061 262.408,264.059 241.974,264.059 241.974,268.656 234.311,268.656 234.311,272.233 
				241.974,272.233 241.974,290.623 220.518,290.623 220.518,229.321 215.92,229.321 215.92,216.294 205.959,216.294 
				205.959,170.062 203.149,170.062 203.149,216.294 195.997,216.294 195.997,229.321 154.069,229.321 154.069,225.033 
				151.514,225.033 151.514,254.152 147.938,254.152 147.938,254.663 145.79,254.663 145.79,283.781 142.215,283.781 
				142.215,291.699 134.656,291.699 134.656,270.244 131.948,270.244 131.948,321.329 128.932,321.329 128.932,299.873 
				126.224,299.873 126.224,333.334 124.576,333.334 124.576,309.324 119.723,309.324 119.723,303.194 108.484,303.194 
				108.484,282.249 102.329,282.249 102.329,267.434 94.764,267.434 94.764,245.85 92.064,245.85 92.064,267.434 84.498,267.434 
				84.498,282.249 78.344,282.249 78.344,303.194 67.105,303.194 67.105,309.324 62.252,309.324 62.252,332.823 61.381,332.823 
				61.381,333.334 58.978,333.334 58.978,382.648 			"/>
			<g>
				<rect x="177.463" y="232.186" style="fill:#FAFAFA;" width="2.895" height="2.895"/>
				<rect x="177.463" y="237.039" style="fill:#FAFAFA;" width="2.895" height="2.895"/>
				<rect x="177.463" y="256.451" style="fill:#FAFAFA;" width="2.895" height="2.895"/>
				<rect x="177.463" y="261.304" style="fill:#FAFAFA;" width="2.895" height="2.895"/>
				<rect x="177.463" y="266.157" style="fill:#FAFAFA;" width="2.895" height="2.895"/>
				<rect x="177.463" y="280.716" style="fill:#FAFAFA;" width="2.895" height="2.895"/>
				<rect x="177.463" y="285.569" style="fill:#FAFAFA;" width="2.895" height="2.895"/>
				<rect x="182.061" y="251.598" style="fill:#FAFAFA;" width="2.895" height="2.895"/>
				<rect x="182.061" y="256.451" style="fill:#FAFAFA;" width="2.895" height="2.895"/>
				<rect x="182.061" y="261.304" style="fill:#FAFAFA;" width="2.895" height="2.895"/>
				<rect x="182.061" y="266.157" style="fill:#FAFAFA;" width="2.895" height="2.895"/>
				<rect x="182.061" y="271.01" style="fill:#FAFAFA;" width="2.895" height="2.895"/>
				<rect x="182.061" y="280.716" style="fill:#FAFAFA;" width="2.895" height="2.895"/>
				<rect x="182.061" y="285.569" style="fill:#FAFAFA;" width="2.895" height="2.895"/>
				<rect x="186.659" y="232.186" style="fill:#FAFAFA;" width="2.895" height="2.895"/>
				<rect x="186.659" y="237.039" style="fill:#FAFAFA;" width="2.895" height="2.895"/>
				<rect x="186.659" y="241.892" style="fill:#FAFAFA;" width="2.895" height="2.895"/>
				<rect x="186.658" y="246.745" style="fill:#FAFAFA;" width="2.895" height="2.895"/>
				<rect x="186.658" y="251.598" style="fill:#FAFAFA;" width="2.895" height="2.895"/>
				<rect x="186.658" y="256.451" style="fill:#FAFAFA;" width="2.895" height="2.895"/>
				<rect x="186.658" y="261.304" style="fill:#FAFAFA;" width="2.895" height="2.895"/>
				<rect x="186.658" y="266.157" style="fill:#FAFAFA;" width="2.895" height="2.895"/>
				<rect x="186.658" y="271.01" style="fill:#FAFAFA;" width="2.895" height="2.895"/>
				<rect x="186.658" y="275.863" style="fill:#FAFAFA;" width="2.895" height="2.895"/>
				<rect x="186.658" y="285.569" style="fill:#FAFAFA;" width="2.895" height="2.895"/>
				<rect x="191.256" y="232.186" style="fill:#FAFAFA;" width="2.895" height="2.895"/>
				<rect x="191.256" y="237.039" style="fill:#FAFAFA;" width="2.895" height="2.895"/>
				<rect x="191.256" y="241.892" style="fill:#FAFAFA;" width="2.895" height="2.895"/>
				<rect x="191.256" y="246.745" style="fill:#FAFAFA;" width="2.895" height="2.895"/>
				<rect x="191.256" y="251.598" style="fill:#FAFAFA;" width="2.895" height="2.895"/>
				<rect x="191.256" y="256.451" style="fill:#FAFAFA;" width="2.895" height="2.895"/>
				<rect x="191.256" y="261.304" style="fill:#FAFAFA;" width="2.895" height="2.895"/>
				<rect x="191.256" y="304.982" style="fill:#FAFAFA;" width="2.895" height="2.895"/>
				<rect x="195.854" y="232.186" style="fill:#FAFAFA;" width="2.895" height="2.895"/>
				<rect x="195.854" y="237.039" style="fill:#FAFAFA;" width="2.895" height="2.895"/>
				<rect x="195.854" y="241.892" style="fill:#FAFAFA;" width="2.895" height="2.895"/>
				<rect x="195.854" y="246.745" style="fill:#FAFAFA;" width="2.895" height="2.895"/>
				<rect x="195.854" y="251.598" style="fill:#FAFAFA;" width="2.895" height="2.895"/>
				<rect x="195.854" y="256.451" style="fill:#FAFAFA;" width="2.895" height="2.895"/>
				<rect x="195.854" y="261.304" style="fill:#FAFAFA;" width="2.895" height="2.895"/>
				<rect x="195.854" y="266.157" style="fill:#FAFAFA;" width="2.895" height="2.895"/>
				<rect x="195.854" y="295.276" style="fill:#FAFAFA;" width="2.895" height="2.895"/>
				<rect x="195.854" y="300.129" style="fill:#FAFAFA;" width="2.895" height="2.895"/>
				<rect x="195.854" y="304.982" style="fill:#FAFAFA;" width="2.895" height="2.895"/>
				<rect x="195.854" y="309.835" style="fill:#FAFAFA;" width="2.895" height="2.895"/>
				<rect x="195.854" y="329.247" style="fill:#FAFAFA;" width="2.895" height="2.895"/>
				<rect x="200.452" y="232.186" style="fill:#FAFAFA;" width="2.895" height="2.895"/>
				<rect x="200.452" y="237.039" style="fill:#FAFAFA;" width="2.895" height="2.895"/>
				<rect x="200.452" y="241.892" style="fill:#FAFAFA;" width="2.895" height="2.895"/>
				<rect x="200.452" y="246.745" style="fill:#FAFAFA;" width="2.895" height="2.895"/>
				<rect x="200.452" y="251.598" style="fill:#FAFAFA;" width="2.895" height="2.895"/>
				<rect x="200.452" y="256.451" style="fill:#FAFAFA;" width="2.895" height="2.895"/>
				<rect x="200.452" y="261.304" style="fill:#FAFAFA;" width="2.895" height="2.895"/>
				<rect x="200.452" y="266.157" style="fill:#FAFAFA;" width="2.895" height="2.895"/>
				<rect x="200.452" y="271.01" style="fill:#FAFAFA;" width="2.895" height="2.895"/>
				<rect x="200.452" y="275.863" style="fill:#FAFAFA;" width="2.895" height="2.895"/>
				<rect x="200.452" y="290.423" style="fill:#FAFAFA;" width="2.895" height="2.895"/>
				<rect x="200.452" y="295.276" style="fill:#FAFAFA;" width="2.895" height="2.895"/>
				<rect x="200.452" y="300.129" style="fill:#FAFAFA;" width="2.895" height="2.895"/>
				<rect x="200.452" y="304.982" style="fill:#FAFAFA;" width="2.895" height="2.895"/>
				<rect x="200.452" y="309.835" style="fill:#FAFAFA;" width="2.895" height="2.895"/>
				<rect x="200.452" y="329.247" style="fill:#FAFAFA;" width="2.895" height="2.895"/>
				<rect x="205.049" y="232.186" style="fill:#FAFAFA;" width="2.895" height="2.895"/>
				<rect x="205.049" y="237.039" style="fill:#FAFAFA;" width="2.895" height="2.895"/>
				<rect x="205.049" y="241.892" style="fill:#FAFAFA;" width="2.895" height="2.895"/>
				<rect x="205.049" y="246.745" style="fill:#FAFAFA;" width="2.895" height="2.895"/>
				<rect x="205.049" y="251.598" style="fill:#FAFAFA;" width="2.895" height="2.895"/>
				<rect x="205.049" y="256.451" style="fill:#FAFAFA;" width="2.895" height="2.895"/>
				<rect x="205.049" y="261.304" style="fill:#FAFAFA;" width="2.895" height="2.895"/>
				<rect x="205.049" y="266.157" style="fill:#FAFAFA;" width="2.895" height="2.895"/>
				<rect x="205.049" y="271.01" style="fill:#FAFAFA;" width="2.895" height="2.895"/>
				<rect x="205.049" y="275.863" style="fill:#FAFAFA;" width="2.895" height="2.895"/>
				<rect x="205.049" y="280.716" style="fill:#FAFAFA;" width="2.895" height="2.895"/>
				<rect x="205.049" y="285.569" style="fill:#FAFAFA;" width="2.895" height="2.895"/>
				<rect x="205.049" y="290.423" style="fill:#FAFAFA;" width="2.895" height="2.895"/>
				<rect x="205.049" y="295.276" style="fill:#FAFAFA;" width="2.895" height="2.895"/>
				<rect x="205.049" y="300.129" style="fill:#FAFAFA;" width="2.895" height="2.895"/>
				<rect x="205.049" y="304.982" style="fill:#FAFAFA;" width="2.895" height="2.895"/>
				<rect x="205.049" y="309.835" style="fill:#FAFAFA;" width="2.895" height="2.895"/>
				<rect x="205.049" y="314.688" style="fill:#FAFAFA;" width="2.895" height="2.895"/>
				<rect x="209.647" y="232.186" style="fill:#FAFAFA;" width="2.895" height="2.895"/>
				<rect x="209.647" y="237.039" style="fill:#FAFAFA;" width="2.895" height="2.895"/>
				<rect x="209.647" y="241.892" style="fill:#FAFAFA;" width="2.895" height="2.895"/>
				<rect x="209.647" y="246.745" style="fill:#FAFAFA;" width="2.895" height="2.895"/>
				<rect x="209.647" y="251.598" style="fill:#FAFAFA;" width="2.895" height="2.895"/>
				<rect x="209.647" y="256.451" style="fill:#FAFAFA;" width="2.895" height="2.895"/>
				<rect x="209.647" y="261.304" style="fill:#FAFAFA;" width="2.895" height="2.895"/>
				<rect x="209.647" y="266.157" style="fill:#FAFAFA;" width="2.895" height="2.895"/>
				<rect x="209.647" y="271.01" style="fill:#FAFAFA;" width="2.895" height="2.895"/>
				<rect x="209.647" y="275.863" style="fill:#FAFAFA;" width="2.895" height="2.895"/>
				<rect x="209.647" y="290.423" style="fill:#FAFAFA;" width="2.895" height="2.895"/>
				<rect x="209.647" y="295.276" style="fill:#FAFAFA;" width="2.895" height="2.895"/>
				<rect x="209.647" y="300.129" style="fill:#FAFAFA;" width="2.895" height="2.895"/>
				<rect x="209.647" y="304.982" style="fill:#FAFAFA;" width="2.895" height="2.895"/>
				<rect x="214.245" y="232.186" style="fill:#FAFAFA;" width="2.895" height="2.895"/>
				<rect x="214.245" y="237.039" style="fill:#FAFAFA;" width="2.895" height="2.895"/>
				<rect x="214.244" y="241.892" style="fill:#FAFAFA;" width="2.895" height="2.895"/>
				<rect x="214.244" y="246.745" style="fill:#FAFAFA;" width="2.895" height="2.895"/>
				<rect x="214.244" y="251.598" style="fill:#FAFAFA;" width="2.895" height="2.895"/>
				<rect x="214.244" y="256.451" style="fill:#FAFAFA;" width="2.895" height="2.895"/>
				<rect x="214.244" y="261.304" style="fill:#FAFAFA;" width="2.895" height="2.895"/>
				<rect x="214.244" y="266.157" style="fill:#FAFAFA;" width="2.895" height="2.895"/>
				<rect x="214.244" y="271.01" style="fill:#FAFAFA;" width="2.895" height="2.895"/>
				<rect x="214.244" y="275.863" style="fill:#FAFAFA;" width="2.895" height="2.895"/>
				<rect x="214.244" y="290.423" style="fill:#FAFAFA;" width="2.895" height="2.895"/>
				<rect x="214.244" y="295.276" style="fill:#FAFAFA;" width="2.895" height="2.895"/>
				<rect x="214.244" y="300.129" style="fill:#FAFAFA;" width="2.895" height="2.895"/>
				<rect x="266.01" y="219.585" style="fill:#FAFAFA;" width="2.895" height="2.895"/>
				<rect x="266.01" y="224.438" style="fill:#FAFAFA;" width="2.895" height="2.895"/>
				<rect x="266.01" y="229.291" style="fill:#FAFAFA;" width="2.895" height="2.895"/>
				<rect x="266.01" y="234.144" style="fill:#FAFAFA;" width="2.895" height="2.895"/>
				<rect x="266.01" y="238.997" style="fill:#FAFAFA;" width="2.895" height="2.895"/>
				<rect x="266.01" y="243.85" style="fill:#FAFAFA;" width="2.895" height="2.895"/>
				<rect x="266.01" y="248.703" style="fill:#FAFAFA;" width="2.895" height="2.895"/>
				<rect x="266.01" y="253.556" style="fill:#FAFAFA;" width="2.895" height="2.895"/>
				<rect x="266.01" y="268.116" style="fill:#FAFAFA;" width="2.895" height="2.895"/>
				<rect x="266.01" y="272.969" style="fill:#FAFAFA;" width="2.895" height="2.895"/>
				<rect x="270.608" y="219.585" style="fill:#FAFAFA;" width="2.895" height="2.895"/>
				<rect x="270.608" y="224.438" style="fill:#FAFAFA;" width="2.895" height="2.895"/>
				<rect x="270.608" y="229.291" style="fill:#FAFAFA;" width="2.895" height="2.895"/>
				<rect x="270.608" y="234.144" style="fill:#FAFAFA;" width="2.895" height="2.895"/>
				<rect x="270.608" y="238.997" style="fill:#FAFAFA;" width="2.895" height="2.895"/>
				<rect x="270.608" y="243.85" style="fill:#FAFAFA;" width="2.895" height="2.895"/>
				<rect x="270.608" y="248.703" style="fill:#FAFAFA;" width="2.895" height="2.895"/>
				<rect x="270.608" y="253.556" style="fill:#FAFAFA;" width="2.895" height="2.895"/>
				<rect x="270.608" y="272.969" style="fill:#FAFAFA;" width="2.895" height="2.895"/>
				<rect x="275.206" y="219.585" style="fill:#FAFAFA;" width="2.895" height="2.895"/>
				<rect x="275.206" y="224.438" style="fill:#FAFAFA;" width="2.895" height="2.895"/>
				<rect x="275.206" y="229.291" style="fill:#FAFAFA;" width="2.895" height="2.895"/>
				<rect x="275.206" y="234.144" style="fill:#FAFAFA;" width="2.895" height="2.895"/>
				<rect x="275.206" y="238.997" style="fill:#FAFAFA;" width="2.895" height="2.895"/>
				<rect x="275.206" y="243.85" style="fill:#FAFAFA;" width="2.895" height="2.895"/>
				<rect x="275.206" y="248.703" style="fill:#FAFAFA;" width="2.895" height="2.895"/>
				<rect x="275.206" y="253.556" style="fill:#FAFAFA;" width="2.895" height="2.895"/>
				<rect x="279.803" y="219.585" style="fill:#FAFAFA;" width="2.895" height="2.895"/>
				<rect x="279.803" y="224.438" style="fill:#FAFAFA;" width="2.895" height="2.895"/>
				<rect x="279.803" y="229.291" style="fill:#FAFAFA;" width="2.895" height="2.895"/>
				<rect x="279.803" y="234.144" style="fill:#FAFAFA;" width="2.895" height="2.895"/>
				<rect x="279.803" y="238.997" style="fill:#FAFAFA;" width="2.895" height="2.895"/>
				<rect x="279.803" y="243.85" style="fill:#FAFAFA;" width="2.895" height="2.895"/>
				<rect x="279.803" y="253.556" style="fill:#FAFAFA;" width="2.895" height="2.895"/>
				<rect x="279.803" y="258.409" style="fill:#FAFAFA;" width="2.895" height="2.895"/>
				<rect x="279.803" y="272.969" style="fill:#FAFAFA;" width="2.895" height="2.895"/>
				<rect x="279.803" y="277.822" style="fill:#FAFAFA;" width="2.895" height="2.895"/>
				<rect x="279.803" y="282.675" style="fill:#FAFAFA;" width="2.895" height="2.895"/>
				<rect x="279.803" y="287.528" style="fill:#FAFAFA;" width="2.895" height="2.895"/>
				<rect x="279.803" y="292.381" style="fill:#FAFAFA;" width="2.895" height="2.895"/>
				<rect x="279.803" y="297.234" style="fill:#FAFAFA;" width="2.895" height="2.895"/>
				<rect x="279.803" y="302.087" style="fill:#FAFAFA;" width="2.895" height="2.895"/>
				<rect x="284.401" y="219.585" style="fill:#FAFAFA;" width="2.895" height="2.895"/>
				<rect x="284.401" y="224.438" style="fill:#FAFAFA;" width="2.895" height="2.895"/>
				<rect x="284.401" y="229.291" style="fill:#FAFAFA;" width="2.895" height="2.895"/>
				<rect x="284.401" y="234.144" style="fill:#FAFAFA;" width="2.895" height="2.895"/>
				<rect x="284.401" y="238.997" style="fill:#FAFAFA;" width="2.895" height="2.895"/>
				<rect x="284.401" y="243.85" style="fill:#FAFAFA;" width="2.895" height="2.895"/>
				<rect x="284.401" y="258.409" style="fill:#FAFAFA;" width="2.895" height="2.895"/>
				<rect x="284.401" y="263.262" style="fill:#FAFAFA;" width="2.895" height="2.895"/>
				<rect x="284.401" y="268.116" style="fill:#FAFAFA;" width="2.895" height="2.895"/>
				<rect x="284.401" y="272.969" style="fill:#FAFAFA;" width="2.895" height="2.895"/>
				<rect x="284.401" y="277.822" style="fill:#FAFAFA;" width="2.895" height="2.895"/>
				<rect x="284.401" y="282.675" style="fill:#FAFAFA;" width="2.895" height="2.895"/>
				<rect x="284.401" y="287.528" style="fill:#FAFAFA;" width="2.895" height="2.895"/>
				<rect x="284.401" y="292.381" style="fill:#FAFAFA;" width="2.895" height="2.895"/>
				<rect x="284.401" y="297.234" style="fill:#FAFAFA;" width="2.895" height="2.895"/>
				<rect x="284.401" y="302.087" style="fill:#FAFAFA;" width="2.895" height="2.895"/>
				<rect x="284.401" y="306.94" style="fill:#FAFAFA;" width="2.895" height="2.895"/>
				<rect x="284.401" y="316.647" style="fill:#FAFAFA;" width="2.895" height="2.895"/>
				<rect x="288.999" y="219.585" style="fill:#FAFAFA;" width="2.895" height="2.895"/>
				<rect x="288.999" y="224.438" style="fill:#FAFAFA;" width="2.895" height="2.895"/>
				<rect x="288.999" y="229.291" style="fill:#FAFAFA;" width="2.895" height="2.895"/>
				<rect x="288.999" y="234.144" style="fill:#FAFAFA;" width="2.895" height="2.895"/>
				<rect x="288.999" y="238.997" style="fill:#FAFAFA;" width="2.895" height="2.895"/>
				<rect x="288.999" y="243.85" style="fill:#FAFAFA;" width="2.895" height="2.895"/>
				<rect x="288.999" y="258.409" style="fill:#FAFAFA;" width="2.895" height="2.895"/>
				<rect x="288.999" y="263.262" style="fill:#FAFAFA;" width="2.895" height="2.895"/>
				<rect x="288.999" y="268.116" style="fill:#FAFAFA;" width="2.895" height="2.895"/>
				<rect x="288.999" y="272.969" style="fill:#FAFAFA;" width="2.895" height="2.895"/>
				<rect x="288.999" y="287.528" style="fill:#FAFAFA;" width="2.895" height="2.895"/>
				<rect x="288.999" y="292.381" style="fill:#FAFAFA;" width="2.895" height="2.895"/>
				<rect x="288.999" y="297.234" style="fill:#FAFAFA;" width="2.895" height="2.895"/>
				<rect x="288.999" y="302.087" style="fill:#FAFAFA;" width="2.895" height="2.895"/>
				<rect x="288.999" y="306.94" style="fill:#FAFAFA;" width="2.895" height="2.895"/>
				<rect x="288.999" y="316.647" style="fill:#FAFAFA;" width="2.895" height="2.895"/>
				<rect x="288.999" y="321.5" style="fill:#FAFAFA;" width="2.895" height="2.895"/>
				<rect x="330.718" y="264.71" style="fill:#FAFAFA;" width="2.895" height="2.895"/>
				<rect x="330.718" y="269.563" style="fill:#FAFAFA;" width="2.895" height="2.895"/>
				<rect x="330.718" y="274.416" style="fill:#FAFAFA;" width="2.895" height="2.895"/>
				<rect x="330.718" y="279.269" style="fill:#FAFAFA;" width="2.895" height="2.895"/>
				<rect x="330.718" y="284.122" style="fill:#FAFAFA;" width="2.895" height="2.895"/>
				<rect x="330.718" y="288.975" style="fill:#FAFAFA;" width="2.895" height="2.895"/>
				<rect x="330.718" y="293.828" style="fill:#FAFAFA;" width="2.895" height="2.895"/>
				<rect x="330.718" y="308.388" style="fill:#FAFAFA;" width="2.895" height="2.895"/>
				<rect x="330.718" y="313.241" style="fill:#FAFAFA;" width="2.895" height="2.895"/>
				<rect x="330.718" y="318.094" style="fill:#FAFAFA;" width="2.895" height="2.895"/>
				<rect x="335.316" y="264.71" style="fill:#FAFAFA;" width="2.895" height="2.895"/>
				<rect x="335.316" y="269.563" style="fill:#FAFAFA;" width="2.895" height="2.895"/>
				<rect x="335.316" y="274.416" style="fill:#FAFAFA;" width="2.895" height="2.895"/>
				<rect x="335.316" y="279.269" style="fill:#FAFAFA;" width="2.895" height="2.895"/>
				<rect x="335.316" y="284.122" style="fill:#FAFAFA;" width="2.895" height="2.895"/>
				<rect x="335.316" y="288.975" style="fill:#FAFAFA;" width="2.895" height="2.895"/>
				<rect x="335.316" y="293.828" style="fill:#FAFAFA;" width="2.895" height="2.895"/>
				<rect x="339.914" y="264.71" style="fill:#FAFAFA;" width="2.895" height="2.895"/>
				<rect x="339.914" y="269.563" style="fill:#FAFAFA;" width="2.895" height="2.895"/>
				<rect x="339.914" y="274.416" style="fill:#FAFAFA;" width="2.895" height="2.895"/>
				<rect x="339.914" y="279.269" style="fill:#FAFAFA;" width="2.895" height="2.895"/>
				<rect x="339.914" y="284.122" style="fill:#FAFAFA;" width="2.895" height="2.895"/>
				<rect x="339.914" y="288.975" style="fill:#FAFAFA;" width="2.895" height="2.895"/>
				<rect x="339.914" y="293.828" style="fill:#FAFAFA;" width="2.895" height="2.895"/>
				<rect x="344.511" y="264.71" style="fill:#FAFAFA;" width="2.895" height="2.895"/>
				<rect x="344.511" y="269.563" style="fill:#FAFAFA;" width="2.895" height="2.895"/>
				<rect x="344.511" y="274.416" style="fill:#FAFAFA;" width="2.895" height="2.895"/>
				<rect x="344.511" y="279.269" style="fill:#FAFAFA;" width="2.895" height="2.895"/>
				<rect x="344.511" y="284.122" style="fill:#FAFAFA;" width="2.895" height="2.895"/>
				<rect x="344.511" y="288.975" style="fill:#FAFAFA;" width="2.895" height="2.895"/>
				<rect x="344.511" y="293.828" style="fill:#FAFAFA;" width="2.895" height="2.895"/>
				<rect x="344.511" y="298.681" style="fill:#FAFAFA;" width="2.895" height="2.895"/>
				<rect x="344.511" y="303.534" style="fill:#FAFAFA;" width="2.895" height="2.895"/>
				<rect x="344.511" y="308.388" style="fill:#FAFAFA;" width="2.895" height="2.895"/>
				<rect x="344.511" y="313.241" style="fill:#FAFAFA;" width="2.895" height="2.895"/>
				<rect x="349.109" y="264.71" style="fill:#FAFAFA;" width="2.895" height="2.895"/>
				<rect x="349.109" y="269.563" style="fill:#FAFAFA;" width="2.895" height="2.895"/>
				<rect x="349.109" y="274.416" style="fill:#FAFAFA;" width="2.895" height="2.895"/>
				<rect x="349.109" y="279.269" style="fill:#FAFAFA;" width="2.895" height="2.895"/>
				<rect x="349.109" y="284.122" style="fill:#FAFAFA;" width="2.895" height="2.895"/>
				<rect x="349.109" y="288.975" style="fill:#FAFAFA;" width="2.895" height="2.895"/>
				<rect x="349.109" y="293.828" style="fill:#FAFAFA;" width="2.895" height="2.895"/>
				<rect x="349.109" y="298.681" style="fill:#FAFAFA;" width="2.895" height="2.895"/>
				<rect x="349.109" y="303.534" style="fill:#FAFAFA;" width="2.895" height="2.895"/>
				<rect x="349.109" y="308.388" style="fill:#FAFAFA;" width="2.895" height="2.895"/>
				<rect x="349.109" y="313.241" style="fill:#FAFAFA;" width="2.895" height="2.895"/>
				<rect x="349.109" y="318.094" style="fill:#FAFAFA;" width="2.895" height="2.895"/>
				<rect x="349.109" y="332.653" style="fill:#FAFAFA;" width="2.895" height="2.895"/>
				<rect x="349.109" y="337.506" style="fill:#FAFAFA;" width="2.895" height="2.895"/>
				<rect x="353.707" y="264.71" style="fill:#FAFAFA;" width="2.895" height="2.895"/>
				<rect x="353.707" y="269.563" style="fill:#FAFAFA;" width="2.895" height="2.895"/>
				<rect x="353.707" y="274.416" style="fill:#FAFAFA;" width="2.895" height="2.895"/>
				<rect x="353.707" y="288.975" style="fill:#FAFAFA;" width="2.895" height="2.895"/>
				<rect x="353.707" y="293.828" style="fill:#FAFAFA;" width="2.895" height="2.895"/>
				<rect x="353.707" y="298.681" style="fill:#FAFAFA;" width="2.895" height="2.895"/>
				<rect x="353.707" y="303.534" style="fill:#FAFAFA;" width="2.895" height="2.895"/>
				<rect x="353.707" y="308.388" style="fill:#FAFAFA;" width="2.895" height="2.895"/>
				<rect x="353.707" y="313.241" style="fill:#FAFAFA;" width="2.895" height="2.895"/>
				<rect x="353.707" y="318.094" style="fill:#FAFAFA;" width="2.895" height="2.895"/>
				<rect x="353.707" y="332.653" style="fill:#FAFAFA;" width="2.895" height="2.895"/>
				<rect x="353.707" y="337.506" style="fill:#FAFAFA;" width="2.895" height="2.895"/>
				<rect x="353.707" y="342.359" style="fill:#FAFAFA;" width="2.895" height="2.895"/>
				<rect x="401.897" y="235.592" style="fill:#FAFAFA;" width="2.895" height="2.895"/>
				<rect x="401.897" y="240.445" style="fill:#FAFAFA;" width="2.895" height="2.895"/>
				<rect x="401.897" y="245.298" style="fill:#FAFAFA;" width="2.895" height="2.895"/>
				<rect x="401.897" y="250.151" style="fill:#FAFAFA;" width="2.895" height="2.895"/>
				<rect x="401.897" y="255.004" style="fill:#FAFAFA;" width="2.895" height="2.895"/>
				<rect x="401.897" y="259.857" style="fill:#FAFAFA;" width="2.895" height="2.895"/>
				<rect x="401.897" y="264.71" style="fill:#FAFAFA;" width="2.895" height="2.895"/>
				<rect x="401.897" y="269.563" style="fill:#FAFAFA;" width="2.895" height="2.895"/>
				<rect x="401.897" y="274.416" style="fill:#FAFAFA;" width="2.895" height="2.895"/>
				<rect x="401.897" y="279.269" style="fill:#FAFAFA;" width="2.895" height="2.895"/>
				<rect x="401.897" y="284.122" style="fill:#FAFAFA;" width="2.895" height="2.895"/>
				<rect x="401.897" y="288.975" style="fill:#FAFAFA;" width="2.895" height="2.895"/>
				<rect x="401.897" y="293.828" style="fill:#FAFAFA;" width="2.895" height="2.895"/>
				<rect x="401.897" y="298.681" style="fill:#FAFAFA;" width="2.895" height="2.895"/>
				<rect x="401.897" y="303.534" style="fill:#FAFAFA;" width="2.895" height="2.895"/>
				<rect x="401.897" y="308.388" style="fill:#FAFAFA;" width="2.895" height="2.895"/>
				<rect x="401.897" y="313.241" style="fill:#FAFAFA;" width="2.895" height="2.895"/>
				<rect x="401.897" y="318.094" style="fill:#FAFAFA;" width="2.895" height="2.895"/>
				<rect x="401.897" y="322.947" style="fill:#FAFAFA;" width="2.895" height="2.895"/>
				<rect x="401.897" y="327.8" style="fill:#FAFAFA;" width="2.895" height="2.895"/>
				<rect x="401.897" y="332.653" style="fill:#FAFAFA;" width="2.895" height="2.895"/>
				<rect x="401.897" y="337.506" style="fill:#FAFAFA;" width="2.895" height="2.895"/>
				<rect x="401.897" y="342.359" style="fill:#FAFAFA;" width="2.895" height="2.895"/>
				<rect x="406.495" y="235.592" style="fill:#FAFAFA;" width="2.895" height="2.895"/>
				<rect x="406.495" y="240.445" style="fill:#FAFAFA;" width="2.895" height="2.895"/>
				<rect x="406.494" y="245.298" style="fill:#FAFAFA;" width="2.895" height="2.895"/>
				<rect x="406.494" y="250.151" style="fill:#FAFAFA;" width="2.895" height="2.895"/>
				<rect x="406.494" y="255.004" style="fill:#FAFAFA;" width="2.895" height="2.895"/>
				<rect x="406.494" y="259.857" style="fill:#FAFAFA;" width="2.895" height="2.895"/>
				<rect x="406.494" y="264.71" style="fill:#FAFAFA;" width="2.895" height="2.895"/>
				<rect x="406.494" y="269.563" style="fill:#FAFAFA;" width="2.895" height="2.895"/>
				<rect x="406.494" y="274.416" style="fill:#FAFAFA;" width="2.895" height="2.895"/>
				<rect x="406.494" y="279.269" style="fill:#FAFAFA;" width="2.895" height="2.895"/>
				<rect x="406.494" y="284.122" style="fill:#FAFAFA;" width="2.895" height="2.895"/>
				<rect x="406.494" y="288.975" style="fill:#FAFAFA;" width="2.895" height="2.895"/>
				<rect x="406.494" y="293.828" style="fill:#FAFAFA;" width="2.895" height="2.895"/>
				<rect x="406.494" y="298.681" style="fill:#FAFAFA;" width="2.895" height="2.895"/>
				<rect x="406.494" y="303.534" style="fill:#FAFAFA;" width="2.895" height="2.895"/>
				<rect x="406.494" y="308.388" style="fill:#FAFAFA;" width="2.895" height="2.895"/>
				<rect x="406.494" y="313.241" style="fill:#FAFAFA;" width="2.895" height="2.895"/>
				<rect x="406.494" y="318.094" style="fill:#FAFAFA;" width="2.895" height="2.895"/>
				<rect x="406.494" y="322.947" style="fill:#FAFAFA;" width="2.895" height="2.895"/>
				<rect x="411.092" y="235.592" style="fill:#FAFAFA;" width="2.895" height="2.895"/>
				<rect x="411.092" y="240.445" style="fill:#FAFAFA;" width="2.895" height="2.895"/>
				<rect x="411.092" y="245.298" style="fill:#FAFAFA;" width="2.895" height="2.895"/>
				<rect x="411.092" y="250.151" style="fill:#FAFAFA;" width="2.895" height="2.895"/>
				<rect x="411.092" y="255.004" style="fill:#FAFAFA;" width="2.895" height="2.895"/>
				<rect x="411.092" y="259.857" style="fill:#FAFAFA;" width="2.895" height="2.895"/>
				<rect x="411.092" y="264.71" style="fill:#FAFAFA;" width="2.895" height="2.895"/>
				<rect x="411.092" y="269.563" style="fill:#FAFAFA;" width="2.895" height="2.895"/>
				<rect x="411.092" y="274.416" style="fill:#FAFAFA;" width="2.895" height="2.895"/>
				<rect x="411.092" y="279.269" style="fill:#FAFAFA;" width="2.895" height="2.895"/>
				<rect x="411.092" y="284.122" style="fill:#FAFAFA;" width="2.895" height="2.895"/>
				<rect x="411.092" y="288.975" style="fill:#FAFAFA;" width="2.895" height="2.895"/>
				<rect x="411.092" y="293.828" style="fill:#FAFAFA;" width="2.895" height="2.895"/>
				<rect x="411.092" y="298.681" style="fill:#FAFAFA;" width="2.895" height="2.895"/>
				<rect x="411.092" y="303.534" style="fill:#FAFAFA;" width="2.895" height="2.895"/>
				<rect x="411.092" y="308.388" style="fill:#FAFAFA;" width="2.895" height="2.895"/>
				<rect x="411.092" y="313.241" style="fill:#FAFAFA;" width="2.895" height="2.895"/>
				<rect x="411.092" y="318.094" style="fill:#FAFAFA;" width="2.895" height="2.895"/>
				<rect x="411.092" y="322.947" style="fill:#FAFAFA;" width="2.895" height="2.895"/>
				<rect x="415.69" y="235.592" style="fill:#FAFAFA;" width="2.895" height="2.895"/>
				<rect x="415.69" y="240.445" style="fill:#FAFAFA;" width="2.895" height="2.895"/>
				<rect x="415.69" y="245.298" style="fill:#FAFAFA;" width="2.895" height="2.895"/>
				<rect x="415.69" y="250.151" style="fill:#FAFAFA;" width="2.895" height="2.895"/>
				<rect x="415.69" y="255.004" style="fill:#FAFAFA;" width="2.895" height="2.895"/>
				<rect x="415.69" y="259.857" style="fill:#FAFAFA;" width="2.895" height="2.895"/>
				<rect x="415.69" y="264.71" style="fill:#FAFAFA;" width="2.895" height="2.895"/>
				<rect x="415.69" y="269.563" style="fill:#FAFAFA;" width="2.895" height="2.895"/>
				<rect x="415.69" y="274.416" style="fill:#FAFAFA;" width="2.895" height="2.895"/>
				<rect x="415.69" y="279.269" style="fill:#FAFAFA;" width="2.895" height="2.895"/>
				<rect x="415.69" y="284.122" style="fill:#FAFAFA;" width="2.895" height="2.895"/>
				<rect x="415.69" y="288.975" style="fill:#FAFAFA;" width="2.895" height="2.895"/>
				<rect x="415.69" y="293.828" style="fill:#FAFAFA;" width="2.895" height="2.895"/>
				<rect x="415.69" y="298.681" style="fill:#FAFAFA;" width="2.895" height="2.895"/>
				<rect x="415.69" y="303.534" style="fill:#FAFAFA;" width="2.895" height="2.895"/>
				<rect x="420.287" y="235.592" style="fill:#FAFAFA;" width="2.895" height="2.895"/>
				<rect x="420.287" y="240.445" style="fill:#FAFAFA;" width="2.895" height="2.895"/>
				<rect x="420.287" y="245.298" style="fill:#FAFAFA;" width="2.895" height="2.895"/>
				<rect x="420.287" y="250.151" style="fill:#FAFAFA;" width="2.895" height="2.895"/>
				<rect x="420.287" y="255.004" style="fill:#FAFAFA;" width="2.895" height="2.895"/>
				<rect x="420.287" y="259.857" style="fill:#FAFAFA;" width="2.895" height="2.895"/>
				<rect x="420.287" y="264.71" style="fill:#FAFAFA;" width="2.895" height="2.895"/>
				<rect x="420.287" y="269.563" style="fill:#FAFAFA;" width="2.895" height="2.895"/>
				<rect x="420.287" y="274.416" style="fill:#FAFAFA;" width="2.895" height="2.895"/>
				<rect x="420.287" y="279.269" style="fill:#FAFAFA;" width="2.895" height="2.895"/>
				<rect x="420.287" y="284.122" style="fill:#FAFAFA;" width="2.895" height="2.895"/>
				<rect x="420.287" y="288.975" style="fill:#FAFAFA;" width="2.895" height="2.895"/>
				<rect x="420.287" y="293.828" style="fill:#FAFAFA;" width="2.895" height="2.895"/>
				<rect x="424.885" y="235.592" style="fill:#FAFAFA;" width="2.895" height="2.895"/>
				<rect x="424.885" y="240.445" style="fill:#FAFAFA;" width="2.895" height="2.895"/>
				<rect x="424.885" y="245.298" style="fill:#FAFAFA;" width="2.895" height="2.895"/>
				<rect x="424.885" y="250.151" style="fill:#FAFAFA;" width="2.895" height="2.895"/>
				<rect x="424.885" y="255.004" style="fill:#FAFAFA;" width="2.895" height="2.895"/>
				<rect x="424.885" y="259.857" style="fill:#FAFAFA;" width="2.895" height="2.895"/>
				<rect x="424.885" y="264.71" style="fill:#FAFAFA;" width="2.895" height="2.895"/>
				<rect x="424.885" y="269.563" style="fill:#FAFAFA;" width="2.895" height="2.895"/>
				<rect x="424.885" y="274.416" style="fill:#FAFAFA;" width="2.895" height="2.895"/>
				<rect x="424.885" y="279.269" style="fill:#FAFAFA;" width="2.895" height="2.895"/>
				<rect x="424.885" y="284.122" style="fill:#FAFAFA;" width="2.895" height="2.895"/>
				<rect x="424.885" y="288.975" style="fill:#FAFAFA;" width="2.895" height="2.895"/>
				<rect x="87.043" y="271.01" style="fill:#FAFAFA;" width="2.895" height="2.895"/>
				<rect x="87.043" y="275.863" style="fill:#FAFAFA;" width="2.895" height="2.895"/>
				<rect x="87.043" y="280.716" style="fill:#FAFAFA;" width="2.895" height="2.895"/>
				<rect x="87.043" y="285.569" style="fill:#FAFAFA;" width="2.895" height="2.895"/>
				<rect x="87.043" y="290.423" style="fill:#FAFAFA;" width="2.895" height="2.895"/>
				<rect x="87.043" y="295.276" style="fill:#FAFAFA;" width="2.895" height="2.895"/>
				<rect x="87.043" y="300.129" style="fill:#FAFAFA;" width="2.895" height="2.895"/>
				<rect x="87.043" y="304.982" style="fill:#FAFAFA;" width="2.895" height="2.895"/>
				<rect x="87.043" y="309.835" style="fill:#FAFAFA;" width="2.895" height="2.895"/>
				<rect x="87.043" y="314.688" style="fill:#FAFAFA;" width="2.895" height="2.895"/>
				<rect x="87.043" y="319.541" style="fill:#FAFAFA;" width="2.895" height="2.895"/>
				<rect x="87.043" y="324.394" style="fill:#FAFAFA;" width="2.895" height="2.895"/>
				<rect x="87.043" y="329.247" style="fill:#FAFAFA;" width="2.895" height="2.895"/>
				<rect x="87.043" y="334.1" style="fill:#FAFAFA;" width="2.895" height="2.895"/>
				<rect x="87.043" y="338.953" style="fill:#FAFAFA;" width="2.895" height="2.895"/>
				<rect x="87.043" y="343.806" style="fill:#FAFAFA;" width="2.895" height="2.895"/>
				<rect x="87.043" y="348.66" style="fill:#FAFAFA;" width="2.895" height="2.895"/>
				<rect x="87.043" y="353.513" style="fill:#FAFAFA;" width="2.895" height="2.895"/>
				<rect x="87.043" y="358.366" style="fill:#FAFAFA;" width="2.895" height="2.895"/>
				<rect x="87.043" y="363.219" style="fill:#FAFAFA;" width="2.895" height="2.895"/>
				<rect x="91.64" y="271.01" style="fill:#FAFAFA;" width="2.895" height="2.895"/>
				<rect x="91.64" y="275.863" style="fill:#FAFAFA;" width="2.895" height="2.895"/>
				<rect x="91.64" y="280.716" style="fill:#FAFAFA;" width="2.895" height="2.895"/>
				<rect x="91.64" y="285.569" style="fill:#FAFAFA;" width="2.895" height="2.895"/>
				<rect x="91.64" y="290.423" style="fill:#FAFAFA;" width="2.895" height="2.895"/>
				<rect x="91.64" y="295.276" style="fill:#FAFAFA;" width="2.895" height="2.895"/>
				<rect x="91.64" y="300.129" style="fill:#FAFAFA;" width="2.895" height="2.895"/>
				<rect x="91.64" y="304.982" style="fill:#FAFAFA;" width="2.895" height="2.895"/>
				<rect x="91.64" y="309.835" style="fill:#FAFAFA;" width="2.895" height="2.895"/>
				<rect x="91.64" y="314.688" style="fill:#FAFAFA;" width="2.895" height="2.895"/>
				<rect x="91.64" y="319.541" style="fill:#FAFAFA;" width="2.895" height="2.895"/>
				<rect x="91.64" y="324.394" style="fill:#FAFAFA;" width="2.895" height="2.895"/>
				<rect x="91.64" y="329.247" style="fill:#FAFAFA;" width="2.895" height="2.895"/>
				<rect x="91.64" y="334.1" style="fill:#FAFAFA;" width="2.895" height="2.895"/>
				<rect x="91.64" y="338.953" style="fill:#FAFAFA;" width="2.895" height="2.895"/>
				<rect x="91.64" y="343.806" style="fill:#FAFAFA;" width="2.895" height="2.895"/>
				<rect x="91.64" y="348.66" style="fill:#FAFAFA;" width="2.895" height="2.895"/>
				<rect x="91.64" y="353.513" style="fill:#FAFAFA;" width="2.895" height="2.895"/>
				<rect x="96.238" y="271.01" style="fill:#FAFAFA;" width="2.895" height="2.895"/>
				<rect x="96.238" y="275.863" style="fill:#FAFAFA;" width="2.895" height="2.895"/>
				<rect x="96.238" y="280.716" style="fill:#FAFAFA;" width="2.895" height="2.895"/>
				<rect x="96.238" y="285.569" style="fill:#FAFAFA;" width="2.895" height="2.895"/>
				<rect x="96.238" y="290.423" style="fill:#FAFAFA;" width="2.895" height="2.895"/>
				<rect x="96.238" y="295.276" style="fill:#FAFAFA;" width="2.895" height="2.895"/>
				<rect x="96.238" y="300.129" style="fill:#FAFAFA;" width="2.895" height="2.895"/>
				<rect x="96.238" y="304.982" style="fill:#FAFAFA;" width="2.895" height="2.895"/>
				<rect x="96.238" y="309.835" style="fill:#FAFAFA;" width="2.895" height="2.895"/>
				<rect x="96.238" y="314.688" style="fill:#FAFAFA;" width="2.895" height="2.895"/>
				<rect x="96.238" y="319.541" style="fill:#FAFAFA;" width="2.895" height="2.895"/>
				<rect x="96.238" y="324.394" style="fill:#FAFAFA;" width="2.895" height="2.895"/>
				<rect x="96.238" y="329.247" style="fill:#FAFAFA;" width="2.895" height="2.895"/>
				<rect x="96.238" y="334.1" style="fill:#FAFAFA;" width="2.895" height="2.895"/>
				<rect x="96.238" y="338.953" style="fill:#FAFAFA;" width="2.895" height="2.895"/>
				<rect x="96.238" y="343.806" style="fill:#FAFAFA;" width="2.895" height="2.895"/>
				<rect x="96.238" y="348.66" style="fill:#FAFAFA;" width="2.895" height="2.895"/>
				<rect x="96.238" y="353.513" style="fill:#FAFAFA;" width="2.895" height="2.895"/>
				<rect x="69.844" y="306.429" style="fill:#FAFAFA;" width="2.895" height="2.895"/>
				<rect x="69.844" y="311.282" style="fill:#FAFAFA;" width="2.895" height="2.895"/>
				<rect x="69.844" y="316.135" style="fill:#FAFAFA;" width="2.895" height="2.895"/>
				<rect x="69.844" y="320.988" style="fill:#FAFAFA;" width="2.895" height="2.895"/>
				<rect x="69.844" y="325.842" style="fill:#FAFAFA;" width="2.895" height="2.895"/>
				<rect x="69.844" y="330.695" style="fill:#FAFAFA;" width="2.895" height="2.895"/>
				<rect x="69.844" y="335.548" style="fill:#FAFAFA;" width="2.895" height="2.895"/>
				<rect x="69.844" y="340.401" style="fill:#FAFAFA;" width="2.895" height="2.895"/>
				<rect x="69.844" y="345.254" style="fill:#FAFAFA;" width="2.895" height="2.895"/>
				<rect x="69.844" y="350.107" style="fill:#FAFAFA;" width="2.895" height="2.895"/>
				<rect x="69.844" y="354.96" style="fill:#FAFAFA;" width="2.895" height="2.895"/>
				<rect x="69.844" y="359.813" style="fill:#FAFAFA;" width="2.895" height="2.895"/>
				<rect x="69.844" y="364.666" style="fill:#FAFAFA;" width="2.895" height="2.895"/>
				<rect x="74.441" y="306.429" style="fill:#FAFAFA;" width="2.895" height="2.895"/>
				<rect x="74.441" y="311.282" style="fill:#FAFAFA;" width="2.895" height="2.895"/>
				<rect x="74.441" y="316.135" style="fill:#FAFAFA;" width="2.895" height="2.895"/>
				<rect x="74.441" y="320.988" style="fill:#FAFAFA;" width="2.895" height="2.895"/>
				<rect x="74.441" y="325.842" style="fill:#FAFAFA;" width="2.895" height="2.895"/>
				<rect x="74.441" y="330.695" style="fill:#FAFAFA;" width="2.895" height="2.895"/>
				<rect x="74.441" y="335.548" style="fill:#FAFAFA;" width="2.895" height="2.895"/>
				<rect x="74.441" y="340.401" style="fill:#FAFAFA;" width="2.895" height="2.895"/>
				<rect x="74.441" y="345.254" style="fill:#FAFAFA;" width="2.895" height="2.895"/>
				<rect x="74.441" y="350.107" style="fill:#FAFAFA;" width="2.895" height="2.895"/>
				<rect x="74.441" y="354.96" style="fill:#FAFAFA;" width="2.895" height="2.895"/>
				<rect x="74.441" y="359.813" style="fill:#FAFAFA;" width="2.895" height="2.895"/>
				<rect x="74.441" y="364.666" style="fill:#FAFAFA;" width="2.895" height="2.895"/>
				<rect x="79.039" y="306.429" style="fill:#FAFAFA;" width="2.895" height="2.895"/>
				<rect x="79.039" y="311.282" style="fill:#FAFAFA;" width="2.895" height="2.895"/>
				<rect x="79.039" y="316.135" style="fill:#FAFAFA;" width="2.895" height="2.895"/>
				<rect x="79.039" y="320.988" style="fill:#FAFAFA;" width="2.895" height="2.895"/>
				<rect x="79.039" y="325.842" style="fill:#FAFAFA;" width="2.895" height="2.895"/>
				<rect x="79.039" y="330.695" style="fill:#FAFAFA;" width="2.895" height="2.895"/>
				<rect x="79.039" y="335.548" style="fill:#FAFAFA;" width="2.895" height="2.895"/>
				<rect x="79.039" y="340.401" style="fill:#FAFAFA;" width="2.895" height="2.895"/>
				<rect x="79.039" y="345.254" style="fill:#FAFAFA;" width="2.895" height="2.895"/>
				<rect x="79.039" y="350.107" style="fill:#FAFAFA;" width="2.895" height="2.895"/>
				<rect x="79.039" y="354.96" style="fill:#FAFAFA;" width="2.895" height="2.895"/>
				<rect x="79.039" y="359.813" style="fill:#FAFAFA;" width="2.895" height="2.895"/>
				<rect x="79.039" y="364.666" style="fill:#FAFAFA;" width="2.895" height="2.895"/>
				<rect x="79.039" y="369.52" style="fill:#FAFAFA;" width="2.895" height="2.895"/>
				<rect x="104.582" y="307.877" style="fill:#FAFAFA;" width="2.895" height="2.895"/>
				<rect x="104.582" y="312.73" style="fill:#FAFAFA;" width="2.895" height="2.895"/>
				<rect x="104.582" y="317.583" style="fill:#FAFAFA;" width="2.895" height="2.895"/>
				<rect x="104.582" y="322.436" style="fill:#FAFAFA;" width="2.895" height="2.895"/>
				<rect x="104.582" y="327.289" style="fill:#FAFAFA;" width="2.895" height="2.895"/>
				<rect x="104.582" y="332.142" style="fill:#FAFAFA;" width="2.895" height="2.895"/>
				<rect x="104.582" y="336.995" style="fill:#FAFAFA;" width="2.895" height="2.895"/>
				<rect x="104.582" y="341.848" style="fill:#FAFAFA;" width="2.895" height="2.895"/>
				<rect x="104.582" y="346.701" style="fill:#FAFAFA;" width="2.895" height="2.895"/>
				<rect x="104.582" y="351.555" style="fill:#FAFAFA;" width="2.895" height="2.895"/>
				<rect x="104.582" y="366.114" style="fill:#FAFAFA;" width="2.895" height="2.895"/>
				<rect x="109.179" y="307.877" style="fill:#FAFAFA;" width="2.895" height="2.895"/>
				<rect x="109.179" y="312.73" style="fill:#FAFAFA;" width="2.895" height="2.895"/>
				<rect x="109.179" y="317.583" style="fill:#FAFAFA;" width="2.895" height="2.895"/>
				<rect x="109.179" y="322.436" style="fill:#FAFAFA;" width="2.895" height="2.895"/>
				<rect x="109.179" y="327.289" style="fill:#FAFAFA;" width="2.895" height="2.895"/>
				<rect x="109.179" y="332.142" style="fill:#FAFAFA;" width="2.895" height="2.895"/>
				<rect x="109.179" y="336.995" style="fill:#FAFAFA;" width="2.895" height="2.895"/>
				<rect x="109.179" y="341.848" style="fill:#FAFAFA;" width="2.895" height="2.895"/>
				<rect x="109.179" y="346.701" style="fill:#FAFAFA;" width="2.895" height="2.895"/>
				<rect x="109.179" y="361.26" style="fill:#FAFAFA;" width="2.895" height="2.895"/>
				<rect x="109.179" y="366.114" style="fill:#FAFAFA;" width="2.895" height="2.895"/>
				<rect x="113.777" y="307.877" style="fill:#FAFAFA;" width="2.895" height="2.895"/>
				<rect x="113.777" y="312.73" style="fill:#FAFAFA;" width="2.895" height="2.895"/>
				<rect x="113.777" y="317.583" style="fill:#FAFAFA;" width="2.895" height="2.895"/>
				<rect x="113.777" y="322.436" style="fill:#FAFAFA;" width="2.895" height="2.895"/>
				<rect x="113.777" y="327.289" style="fill:#FAFAFA;" width="2.895" height="2.895"/>
				<rect x="113.777" y="332.142" style="fill:#FAFAFA;" width="2.895" height="2.895"/>
				<rect x="113.777" y="336.995" style="fill:#FAFAFA;" width="2.895" height="2.895"/>
				<rect x="113.777" y="341.848" style="fill:#FAFAFA;" width="2.895" height="2.895"/>
				<rect x="113.777" y="356.408" style="fill:#FAFAFA;" width="2.895" height="2.895"/>
				<rect x="113.777" y="361.26" style="fill:#FAFAFA;" width="2.895" height="2.895"/>
				<rect x="113.777" y="366.114" style="fill:#FAFAFA;" width="2.895" height="2.895"/>
				<rect x="156.518" y="234.144" style="fill:#FAFAFA;" width="2.895" height="2.895"/>
				<rect x="156.518" y="238.997" style="fill:#FAFAFA;" width="2.895" height="2.895"/>
				<rect x="156.518" y="243.85" style="fill:#FAFAFA;" width="2.895" height="2.895"/>
				<rect x="156.518" y="248.703" style="fill:#FAFAFA;" width="2.895" height="2.895"/>
				<rect x="156.518" y="253.556" style="fill:#FAFAFA;" width="2.895" height="2.895"/>
				<rect x="156.518" y="258.409" style="fill:#FAFAFA;" width="2.895" height="2.895"/>
				<rect x="156.518" y="263.262" style="fill:#FAFAFA;" width="2.895" height="2.895"/>
				<rect x="156.518" y="268.116" style="fill:#FAFAFA;" width="2.895" height="2.895"/>
				<rect x="156.518" y="272.969" style="fill:#FAFAFA;" width="2.895" height="2.895"/>
				<rect x="156.518" y="277.822" style="fill:#FAFAFA;" width="2.895" height="2.895"/>
				<rect x="156.518" y="282.675" style="fill:#FAFAFA;" width="2.895" height="2.895"/>
				<rect x="156.518" y="287.528" style="fill:#FAFAFA;" width="2.895" height="2.895"/>
				<rect x="156.518" y="292.381" style="fill:#FAFAFA;" width="2.895" height="2.895"/>
				<rect x="156.518" y="297.234" style="fill:#FAFAFA;" width="2.895" height="2.895"/>
				<rect x="156.518" y="302.087" style="fill:#FAFAFA;" width="2.895" height="2.895"/>
				<rect x="156.518" y="306.94" style="fill:#FAFAFA;" width="2.895" height="2.895"/>
				<rect x="156.518" y="311.793" style="fill:#FAFAFA;" width="2.895" height="2.895"/>
				<rect x="156.518" y="321.5" style="fill:#FAFAFA;" width="2.895" height="2.895"/>
				<rect x="156.518" y="326.353" style="fill:#FAFAFA;" width="2.895" height="2.895"/>
				<rect x="156.518" y="331.206" style="fill:#FAFAFA;" width="2.895" height="2.895"/>
				<rect x="156.518" y="336.059" style="fill:#FAFAFA;" width="2.895" height="2.895"/>
				<rect x="156.518" y="340.912" style="fill:#FAFAFA;" width="2.895" height="2.895"/>
				<rect x="161.116" y="234.144" style="fill:#FAFAFA;" width="2.895" height="2.895"/>
				<rect x="161.116" y="238.997" style="fill:#FAFAFA;" width="2.895" height="2.895"/>
				<rect x="161.116" y="243.85" style="fill:#FAFAFA;" width="2.895" height="2.895"/>
				<rect x="161.116" y="248.703" style="fill:#FAFAFA;" width="2.895" height="2.895"/>
				<rect x="161.116" y="253.556" style="fill:#FAFAFA;" width="2.895" height="2.895"/>
				<rect x="161.116" y="258.409" style="fill:#FAFAFA;" width="2.895" height="2.895"/>
				<rect x="161.116" y="263.262" style="fill:#FAFAFA;" width="2.895" height="2.895"/>
				<rect x="161.116" y="268.116" style="fill:#FAFAFA;" width="2.895" height="2.895"/>
				<rect x="161.116" y="272.969" style="fill:#FAFAFA;" width="2.895" height="2.895"/>
				<rect x="161.116" y="277.822" style="fill:#FAFAFA;" width="2.895" height="2.895"/>
				<rect x="161.116" y="282.675" style="fill:#FAFAFA;" width="2.895" height="2.895"/>
				<rect x="161.116" y="287.528" style="fill:#FAFAFA;" width="2.895" height="2.895"/>
				<rect x="161.116" y="292.381" style="fill:#FAFAFA;" width="2.895" height="2.895"/>
				<rect x="161.116" y="297.234" style="fill:#FAFAFA;" width="2.895" height="2.895"/>
				<rect x="161.116" y="302.087" style="fill:#FAFAFA;" width="2.895" height="2.895"/>
				<rect x="161.116" y="306.94" style="fill:#FAFAFA;" width="2.895" height="2.895"/>
				<rect x="161.116" y="336.059" style="fill:#FAFAFA;" width="2.895" height="2.895"/>
				<rect x="161.116" y="340.912" style="fill:#FAFAFA;" width="2.895" height="2.895"/>
				<rect x="165.714" y="234.144" style="fill:#FAFAFA;" width="2.895" height="2.895"/>
				<rect x="165.714" y="238.997" style="fill:#FAFAFA;" width="2.895" height="2.895"/>
				<rect x="165.714" y="243.85" style="fill:#FAFAFA;" width="2.895" height="2.895"/>
				<rect x="165.714" y="248.703" style="fill:#FAFAFA;" width="2.895" height="2.895"/>
				<rect x="165.714" y="253.556" style="fill:#FAFAFA;" width="2.895" height="2.895"/>
				<rect x="165.714" y="258.409" style="fill:#FAFAFA;" width="2.895" height="2.895"/>
				<rect x="165.714" y="263.262" style="fill:#FAFAFA;" width="2.895" height="2.895"/>
				<rect x="165.714" y="268.116" style="fill:#FAFAFA;" width="2.895" height="2.895"/>
				<rect x="165.714" y="272.969" style="fill:#FAFAFA;" width="2.895" height="2.895"/>
				<rect x="165.714" y="277.822" style="fill:#FAFAFA;" width="2.895" height="2.895"/>
				<rect x="165.714" y="282.675" style="fill:#FAFAFA;" width="2.895" height="2.895"/>
				<rect x="165.714" y="287.528" style="fill:#FAFAFA;" width="2.895" height="2.895"/>
				<rect x="165.714" y="292.381" style="fill:#FAFAFA;" width="2.895" height="2.895"/>
				<rect x="165.714" y="297.234" style="fill:#FAFAFA;" width="2.895" height="2.895"/>
				<rect x="165.714" y="302.087" style="fill:#FAFAFA;" width="2.895" height="2.895"/>
				<rect x="165.714" y="306.94" style="fill:#FAFAFA;" width="2.895" height="2.895"/>
				<rect x="165.714" y="316.647" style="fill:#FAFAFA;" width="2.895" height="2.895"/>
				<rect x="165.714" y="321.5" style="fill:#FAFAFA;" width="2.895" height="2.895"/>
				<rect x="165.714" y="326.353" style="fill:#FAFAFA;" width="2.895" height="2.895"/>
				<rect x="165.714" y="331.206" style="fill:#FAFAFA;" width="2.895" height="2.895"/>
				<rect x="165.714" y="340.912" style="fill:#FAFAFA;" width="2.895" height="2.895"/>
				<rect x="139.83" y="295.276" style="fill:#FAFAFA;" width="2.895" height="2.895"/>
				<rect x="139.83" y="300.129" style="fill:#FAFAFA;" width="2.895" height="2.895"/>
				<rect x="139.83" y="304.982" style="fill:#FAFAFA;" width="2.895" height="2.895"/>
				<rect x="139.83" y="309.835" style="fill:#FAFAFA;" width="2.895" height="2.895"/>
				<rect x="139.83" y="314.688" style="fill:#FAFAFA;" width="2.895" height="2.895"/>
				<rect x="139.83" y="319.541" style="fill:#FAFAFA;" width="2.895" height="2.895"/>
				<rect x="139.83" y="324.394" style="fill:#FAFAFA;" width="2.895" height="2.895"/>
				<rect x="139.83" y="334.1" style="fill:#FAFAFA;" width="2.895" height="2.895"/>
				<rect x="139.83" y="338.953" style="fill:#FAFAFA;" width="2.895" height="2.895"/>
				<rect x="139.83" y="343.806" style="fill:#FAFAFA;" width="2.895" height="2.895"/>
				<rect x="139.83" y="348.66" style="fill:#FAFAFA;" width="2.895" height="2.895"/>
				<rect x="139.83" y="353.513" style="fill:#FAFAFA;" width="2.895" height="2.895"/>
				<rect x="139.83" y="358.366" style="fill:#FAFAFA;" width="2.895" height="2.895"/>
				<rect x="139.83" y="363.219" style="fill:#FAFAFA;" width="2.895" height="2.895"/>
				<rect x="139.83" y="368.072" style="fill:#FAFAFA;" width="2.895" height="2.895"/>
				<rect x="144.428" y="295.276" style="fill:#FAFAFA;" width="2.895" height="2.895"/>
				<rect x="144.428" y="300.129" style="fill:#FAFAFA;" width="2.895" height="2.895"/>
				<rect x="144.428" y="304.982" style="fill:#FAFAFA;" width="2.895" height="2.895"/>
				<rect x="144.428" y="309.835" style="fill:#FAFAFA;" width="2.895" height="2.895"/>
				<rect x="144.428" y="314.688" style="fill:#FAFAFA;" width="2.895" height="2.895"/>
				<rect x="144.428" y="319.541" style="fill:#FAFAFA;" width="2.895" height="2.895"/>
				<rect x="144.428" y="334.1" style="fill:#FAFAFA;" width="2.895" height="2.895"/>
				<rect x="144.428" y="338.953" style="fill:#FAFAFA;" width="2.895" height="2.895"/>
				<rect x="144.428" y="343.806" style="fill:#FAFAFA;" width="2.895" height="2.895"/>
				<rect x="144.428" y="348.66" style="fill:#FAFAFA;" width="2.895" height="2.895"/>
				<rect x="144.428" y="353.513" style="fill:#FAFAFA;" width="2.895" height="2.895"/>
				<rect x="144.428" y="358.366" style="fill:#FAFAFA;" width="2.895" height="2.895"/>
				<rect x="144.428" y="363.219" style="fill:#FAFAFA;" width="2.895" height="2.895"/>
				<rect x="144.428" y="368.072" style="fill:#FAFAFA;" width="2.895" height="2.895"/>
				<rect x="149.026" y="295.276" style="fill:#FAFAFA;" width="2.895" height="2.895"/>
				<rect x="149.026" y="300.129" style="fill:#FAFAFA;" width="2.895" height="2.895"/>
				<rect x="149.026" y="304.982" style="fill:#FAFAFA;" width="2.895" height="2.895"/>
				<rect x="149.026" y="309.835" style="fill:#FAFAFA;" width="2.895" height="2.895"/>
				<rect x="149.026" y="314.688" style="fill:#FAFAFA;" width="2.895" height="2.895"/>
				<rect x="149.026" y="319.541" style="fill:#FAFAFA;" width="2.895" height="2.895"/>
				<rect x="149.026" y="329.247" style="fill:#FAFAFA;" width="2.895" height="2.895"/>
				<rect x="149.026" y="334.1" style="fill:#FAFAFA;" width="2.895" height="2.895"/>
				<rect x="149.026" y="338.953" style="fill:#FAFAFA;" width="2.895" height="2.895"/>
				<rect x="149.026" y="343.806" style="fill:#FAFAFA;" width="2.895" height="2.895"/>
				<rect x="149.026" y="348.66" style="fill:#FAFAFA;" width="2.895" height="2.895"/>
				<rect x="149.026" y="353.513" style="fill:#FAFAFA;" width="2.895" height="2.895"/>
				<rect x="149.026" y="358.366" style="fill:#FAFAFA;" width="2.895" height="2.895"/>
				<rect x="149.026" y="363.219" style="fill:#FAFAFA;" width="2.895" height="2.895"/>
				<rect x="149.026" y="368.072" style="fill:#FAFAFA;" width="2.895" height="2.895"/>
				<rect x="245.917" y="268.116" style="fill:#FAFAFA;" width="2.895" height="2.895"/>
				<rect x="245.917" y="272.969" style="fill:#FAFAFA;" width="2.895" height="2.895"/>
				<rect x="245.917" y="277.822" style="fill:#FAFAFA;" width="2.895" height="2.895"/>
				<rect x="245.917" y="282.675" style="fill:#FAFAFA;" width="2.895" height="2.895"/>
				<rect x="245.917" y="287.528" style="fill:#FAFAFA;" width="2.895" height="2.895"/>
				<rect x="245.917" y="292.381" style="fill:#FAFAFA;" width="2.895" height="2.895"/>
				<rect x="245.917" y="297.234" style="fill:#FAFAFA;" width="2.895" height="2.895"/>
				<rect x="245.917" y="302.087" style="fill:#FAFAFA;" width="2.895" height="2.895"/>
				<rect x="245.917" y="306.94" style="fill:#FAFAFA;" width="2.895" height="2.895"/>
				<rect x="245.917" y="311.793" style="fill:#FAFAFA;" width="2.895" height="2.895"/>
				<rect x="245.917" y="316.647" style="fill:#FAFAFA;" width="2.895" height="2.895"/>
				<rect x="245.917" y="321.5" style="fill:#FAFAFA;" width="2.895" height="2.895"/>
				<rect x="245.917" y="326.353" style="fill:#FAFAFA;" width="2.895" height="2.895"/>
				<rect x="245.917" y="336.059" style="fill:#FAFAFA;" width="2.895" height="2.895"/>
				<rect x="245.917" y="340.912" style="fill:#FAFAFA;" width="2.895" height="2.895"/>
				<rect x="245.917" y="345.765" style="fill:#FAFAFA;" width="2.895" height="2.895"/>
				<rect x="245.917" y="350.618" style="fill:#FAFAFA;" width="2.895" height="2.894"/>
				<rect x="245.917" y="360.324" style="fill:#FAFAFA;" width="2.895" height="2.895"/>
				<rect x="245.917" y="365.177" style="fill:#FAFAFA;" width="2.895" height="2.895"/>
				<rect x="245.917" y="370.03" style="fill:#FAFAFA;" width="2.895" height="2.895"/>
				<rect x="250.515" y="268.116" style="fill:#FAFAFA;" width="2.895" height="2.895"/>
				<rect x="250.515" y="272.969" style="fill:#FAFAFA;" width="2.895" height="2.895"/>
				<rect x="250.515" y="277.822" style="fill:#FAFAFA;" width="2.895" height="2.895"/>
				<rect x="250.515" y="282.675" style="fill:#FAFAFA;" width="2.895" height="2.895"/>
				<rect x="250.515" y="287.528" style="fill:#FAFAFA;" width="2.895" height="2.895"/>
				<rect x="250.515" y="292.381" style="fill:#FAFAFA;" width="2.895" height="2.895"/>
				<rect x="250.515" y="297.234" style="fill:#FAFAFA;" width="2.895" height="2.895"/>
				<rect x="250.515" y="302.087" style="fill:#FAFAFA;" width="2.895" height="2.895"/>
				<rect x="250.515" y="306.94" style="fill:#FAFAFA;" width="2.895" height="2.895"/>
				<rect x="250.515" y="311.793" style="fill:#FAFAFA;" width="2.895" height="2.895"/>
				<rect x="250.515" y="316.647" style="fill:#FAFAFA;" width="2.895" height="2.895"/>
				<rect x="250.515" y="321.5" style="fill:#FAFAFA;" width="2.895" height="2.895"/>
				<rect x="250.515" y="326.353" style="fill:#FAFAFA;" width="2.895" height="2.895"/>
				<rect x="250.515" y="340.912" style="fill:#FAFAFA;" width="2.895" height="2.895"/>
				<rect x="250.515" y="345.765" style="fill:#FAFAFA;" width="2.895" height="2.895"/>
				<rect x="250.515" y="355.471" style="fill:#FAFAFA;" width="2.895" height="2.895"/>
				<rect x="250.515" y="360.324" style="fill:#FAFAFA;" width="2.895" height="2.895"/>
				<rect x="250.515" y="365.177" style="fill:#FAFAFA;" width="2.895" height="2.895"/>
				<rect x="250.515" y="370.03" style="fill:#FAFAFA;" width="2.895" height="2.895"/>
				<rect x="255.112" y="268.116" style="fill:#FAFAFA;" width="2.895" height="2.895"/>
				<rect x="255.112" y="272.969" style="fill:#FAFAFA;" width="2.895" height="2.895"/>
				<rect x="255.112" y="277.822" style="fill:#FAFAFA;" width="2.895" height="2.895"/>
				<rect x="255.112" y="282.675" style="fill:#FAFAFA;" width="2.895" height="2.895"/>
				<rect x="255.112" y="287.528" style="fill:#FAFAFA;" width="2.895" height="2.895"/>
				<rect x="255.112" y="292.381" style="fill:#FAFAFA;" width="2.895" height="2.895"/>
				<rect x="255.112" y="297.234" style="fill:#FAFAFA;" width="2.895" height="2.895"/>
				<rect x="255.112" y="302.087" style="fill:#FAFAFA;" width="2.895" height="2.895"/>
				<rect x="255.112" y="306.94" style="fill:#FAFAFA;" width="2.895" height="2.895"/>
				<rect x="255.112" y="311.793" style="fill:#FAFAFA;" width="2.895" height="2.895"/>
				<rect x="255.112" y="316.647" style="fill:#FAFAFA;" width="2.895" height="2.895"/>
				<rect x="255.112" y="321.5" style="fill:#FAFAFA;" width="2.895" height="2.895"/>
				<rect x="255.112" y="326.353" style="fill:#FAFAFA;" width="2.895" height="2.895"/>
				<rect x="255.112" y="331.206" style="fill:#FAFAFA;" width="2.895" height="2.895"/>
				<rect x="255.112" y="340.912" style="fill:#FAFAFA;" width="2.895" height="2.895"/>
				<rect x="255.112" y="350.618" style="fill:#FAFAFA;" width="2.895" height="2.894"/>
				<rect x="255.112" y="355.471" style="fill:#FAFAFA;" width="2.895" height="2.895"/>
				<rect x="255.112" y="360.324" style="fill:#FAFAFA;" width="2.895" height="2.895"/>
				<rect x="255.112" y="365.177" style="fill:#FAFAFA;" width="2.895" height="2.895"/>
				<rect x="255.112" y="370.03" style="fill:#FAFAFA;" width="2.895" height="2.895"/>
				<rect x="227.186" y="295.787" style="fill:#FAFAFA;" width="2.895" height="2.895"/>
				<rect x="227.186" y="300.64" style="fill:#FAFAFA;" width="2.895" height="2.895"/>
				<rect x="227.186" y="305.493" style="fill:#FAFAFA;" width="2.895" height="2.895"/>
				<rect x="227.186" y="310.346" style="fill:#FAFAFA;" width="2.895" height="2.895"/>
				<rect x="227.186" y="315.199" style="fill:#FAFAFA;" width="2.895" height="2.895"/>
				<rect x="227.186" y="320.052" style="fill:#FAFAFA;" width="2.895" height="2.895"/>
				<rect x="227.186" y="334.612" style="fill:#FAFAFA;" width="2.895" height="2.895"/>
				<rect x="227.186" y="339.465" style="fill:#FAFAFA;" width="2.895" height="2.895"/>
				<rect x="227.186" y="344.318" style="fill:#FAFAFA;" width="2.895" height="2.895"/>
				<rect x="227.186" y="349.171" style="fill:#FAFAFA;" width="2.895" height="2.895"/>
				<rect x="227.186" y="354.024" style="fill:#FAFAFA;" width="2.895" height="2.895"/>
				<rect x="227.186" y="358.877" style="fill:#FAFAFA;" width="2.895" height="2.895"/>
				<rect x="227.186" y="363.73" style="fill:#FAFAFA;" width="2.895" height="2.895"/>
				<rect x="231.783" y="295.787" style="fill:#FAFAFA;" width="2.895" height="2.895"/>
				<rect x="231.783" y="300.64" style="fill:#FAFAFA;" width="2.895" height="2.895"/>
				<rect x="231.783" y="305.493" style="fill:#FAFAFA;" width="2.895" height="2.895"/>
				<rect x="231.783" y="310.346" style="fill:#FAFAFA;" width="2.895" height="2.895"/>
				<rect x="231.783" y="315.199" style="fill:#FAFAFA;" width="2.895" height="2.895"/>
				<rect x="231.783" y="320.052" style="fill:#FAFAFA;" width="2.895" height="2.895"/>
				<rect x="231.783" y="334.612" style="fill:#FAFAFA;" width="2.895" height="2.895"/>
				<rect x="231.783" y="339.465" style="fill:#FAFAFA;" width="2.895" height="2.895"/>
				<rect x="231.783" y="344.318" style="fill:#FAFAFA;" width="2.895" height="2.895"/>
				<rect x="231.783" y="349.171" style="fill:#FAFAFA;" width="2.895" height="2.895"/>
				<rect x="231.783" y="354.024" style="fill:#FAFAFA;" width="2.895" height="2.895"/>
				<rect x="231.783" y="358.877" style="fill:#FAFAFA;" width="2.895" height="2.895"/>
				<rect x="231.783" y="368.583" style="fill:#FAFAFA;" width="2.895" height="2.895"/>
				<rect x="384.528" y="274.416" style="fill:#FAFAFA;" width="2.895" height="2.895"/>
				<rect x="384.528" y="279.269" style="fill:#FAFAFA;" width="2.895" height="2.895"/>
				<rect x="384.528" y="284.122" style="fill:#FAFAFA;" width="2.895" height="2.895"/>
				<rect x="384.528" y="288.975" style="fill:#FAFAFA;" width="2.895" height="2.895"/>
				<rect x="384.528" y="293.828" style="fill:#FAFAFA;" width="2.895" height="2.895"/>
				<rect x="384.528" y="298.681" style="fill:#FAFAFA;" width="2.895" height="2.895"/>
				<rect x="384.528" y="303.534" style="fill:#FAFAFA;" width="2.895" height="2.895"/>
				<rect x="384.528" y="308.388" style="fill:#FAFAFA;" width="2.895" height="2.895"/>
				<rect x="384.528" y="313.241" style="fill:#FAFAFA;" width="2.895" height="2.895"/>
				<rect x="384.528" y="318.094" style="fill:#FAFAFA;" width="2.895" height="2.895"/>
				<rect x="384.528" y="322.947" style="fill:#FAFAFA;" width="2.895" height="2.895"/>
				<rect x="384.528" y="332.653" style="fill:#FAFAFA;" width="2.895" height="2.895"/>
				<rect x="384.528" y="337.506" style="fill:#FAFAFA;" width="2.895" height="2.895"/>
				<rect x="384.528" y="342.359" style="fill:#FAFAFA;" width="2.895" height="2.895"/>
				<rect x="384.528" y="347.212" style="fill:#FAFAFA;" width="2.895" height="2.895"/>
				<rect x="384.528" y="352.065" style="fill:#FAFAFA;" width="2.895" height="2.895"/>
				<rect x="384.528" y="356.918" style="fill:#FAFAFA;" width="2.895" height="2.895"/>
				<rect x="384.528" y="361.772" style="fill:#FAFAFA;" width="2.895" height="2.895"/>
				<rect x="384.528" y="366.625" style="fill:#FAFAFA;" width="2.895" height="2.895"/>
				<rect x="389.125" y="274.416" style="fill:#FAFAFA;" width="2.895" height="2.895"/>
				<rect x="389.125" y="279.269" style="fill:#FAFAFA;" width="2.895" height="2.895"/>
				<rect x="389.125" y="284.122" style="fill:#FAFAFA;" width="2.895" height="2.895"/>
				<rect x="389.125" y="288.975" style="fill:#FAFAFA;" width="2.895" height="2.895"/>
				<rect x="389.125" y="293.828" style="fill:#FAFAFA;" width="2.895" height="2.895"/>
				<rect x="389.125" y="298.681" style="fill:#FAFAFA;" width="2.895" height="2.895"/>
				<rect x="389.125" y="303.534" style="fill:#FAFAFA;" width="2.895" height="2.895"/>
				<rect x="389.125" y="308.388" style="fill:#FAFAFA;" width="2.895" height="2.895"/>
				<rect x="389.125" y="313.241" style="fill:#FAFAFA;" width="2.895" height="2.895"/>
				<rect x="389.125" y="318.094" style="fill:#FAFAFA;" width="2.895" height="2.895"/>
				<rect x="389.125" y="322.947" style="fill:#FAFAFA;" width="2.895" height="2.895"/>
				<rect x="389.125" y="327.8" style="fill:#FAFAFA;" width="2.895" height="2.895"/>
				<rect x="389.125" y="332.653" style="fill:#FAFAFA;" width="2.895" height="2.895"/>
				<rect x="389.125" y="337.506" style="fill:#FAFAFA;" width="2.895" height="2.895"/>
				<rect x="389.125" y="342.359" style="fill:#FAFAFA;" width="2.895" height="2.895"/>
				<rect x="389.125" y="347.212" style="fill:#FAFAFA;" width="2.895" height="2.895"/>
				<rect x="389.125" y="352.065" style="fill:#FAFAFA;" width="2.895" height="2.895"/>
				<rect x="389.125" y="356.918" style="fill:#FAFAFA;" width="2.895" height="2.895"/>
				<rect x="389.125" y="361.772" style="fill:#FAFAFA;" width="2.895" height="2.895"/>
				<rect x="389.125" y="366.625" style="fill:#FAFAFA;" width="2.895" height="2.895"/>
				<rect x="361.88" y="293.318" style="fill:#FAFAFA;" width="2.895" height="2.895"/>
				<rect x="361.88" y="298.171" style="fill:#FAFAFA;" width="2.895" height="2.895"/>
				<rect x="361.88" y="303.024" style="fill:#FAFAFA;" width="2.895" height="2.895"/>
				<rect x="361.88" y="307.877" style="fill:#FAFAFA;" width="2.895" height="2.895"/>
				<rect x="361.88" y="312.73" style="fill:#FAFAFA;" width="2.895" height="2.895"/>
				<rect x="361.88" y="317.583" style="fill:#FAFAFA;" width="2.895" height="2.895"/>
				<rect x="361.88" y="322.436" style="fill:#FAFAFA;" width="2.895" height="2.895"/>
				<rect x="361.88" y="327.289" style="fill:#FAFAFA;" width="2.895" height="2.895"/>
				<rect x="361.88" y="332.142" style="fill:#FAFAFA;" width="2.895" height="2.895"/>
				<rect x="361.88" y="336.995" style="fill:#FAFAFA;" width="2.895" height="2.895"/>
				<rect x="366.478" y="293.318" style="fill:#FAFAFA;" width="2.895" height="2.895"/>
				<rect x="366.478" y="298.171" style="fill:#FAFAFA;" width="2.895" height="2.895"/>
				<rect x="366.478" y="303.024" style="fill:#FAFAFA;" width="2.895" height="2.895"/>
				<rect x="366.478" y="307.877" style="fill:#FAFAFA;" width="2.895" height="2.895"/>
				<rect x="366.478" y="312.73" style="fill:#FAFAFA;" width="2.895" height="2.895"/>
				<rect x="366.478" y="317.583" style="fill:#FAFAFA;" width="2.895" height="2.895"/>
				<rect x="366.478" y="322.436" style="fill:#FAFAFA;" width="2.895" height="2.895"/>
				<rect x="366.478" y="327.289" style="fill:#FAFAFA;" width="2.895" height="2.895"/>
				<rect x="366.478" y="332.142" style="fill:#FAFAFA;" width="2.895" height="2.895"/>
			</g>
		</g>
		<path style="fill:#F5F5F5;" d="M376.066,165.757c0-2.904,2.355-5.259,5.259-5.259c0.525,0,1.032,0.079,1.51,0.223
			c-0.077-0.527-0.118-1.066-0.118-1.615c0-6.15,4.986-11.136,11.136-11.136c0.701,0,1.386,0.068,2.051,0.192
			c1.711-2.801,4.788-4.677,8.311-4.677c5.332,0,9.658,4.285,9.737,9.598c0.054-0.001,0.107-0.008,0.162-0.008
			c4.954,0,8.971,4.016,8.971,8.971c0,4.954-4.016,8.971-8.971,8.971l-32.945,0l0.007-0.008
			C378.341,170.929,376.066,168.611,376.066,165.757z"/>
		<path style="fill:#F5F5F5;" d="M157.392,141.52h-22.573c0.06-0.541,0.096-1.089,0.096-1.646c0-8.206-6.652-14.858-14.858-14.858
			c-0.183,0-0.36,0.021-0.541,0.027c-1.862-4.997-6.662-8.562-12.308-8.562c-7.26,0-13.145,5.885-13.145,13.145
			c0,0.01,0.001,0.02,0.001,0.03c-6.437,0.301-11.594,5.437-11.929,11.864h-0.598c-3.633,0-6.606,2.973-6.606,6.606
			c0,3.633,2.973,6.606,6.606,6.606h75.854c3.633,0,6.606-2.973,6.606-6.606C163.998,144.492,161.025,141.52,157.392,141.52z"/>
	</g>
</g>
<g id="Background_Simple" style="display:none;">
	<g style="display:inline;">
		<path style="fill:#407BFF;" d="M88.932,121.25c27.919-59.449,127.059-51.062,165.317-9.255
			c38.258,41.806,50.696,68.599,85.208,52.983c34.512-15.616,78.518-11.44,81.043,38.164s-37.913,108.263-102.09,125.615
			c-64.177,17.352-64.161,78.759-149.1,66.368c-46.31-6.756-47.365-56.86-40.825-98.301S56.553,190.194,88.932,121.25z"/>
		<path style="opacity:0.9;fill:#FFFFFF;" d="M88.932,121.25c27.919-59.449,127.059-51.062,165.317-9.255
			c38.258,41.806,50.696,68.599,85.208,52.983c34.512-15.616,78.518-11.44,81.043,38.164s-37.913,108.263-102.09,125.615
			c-64.177,17.352-64.161,78.759-149.1,66.368c-46.31-6.756-47.365-56.86-40.825-98.301S56.553,190.194,88.932,121.25z"/>
	</g>
</g>
<g id="Shadow_1_">
	<ellipse id="_x3C_Path_x3E__359_" style="fill:#F5F5F5;" cx="250" cy="416.238" rx="193.889" ry="11.323"/>
</g>
<g id="Target">
	<g>
		<rect x="108.939" y="332.514" style="fill:#263238;" width="27.187" height="4.534"/>
		<polygon style="opacity:0.3;fill:#FFFFFF;enable-background:new    ;" points="136.126,337.048 111.368,337.048 111.941,332.514 
			136.126,332.514 		"/>
		<g>
			<polygon style="fill:#263238;" points="80.688,418.351 85.435,418.351 122.467,246.677 117.72,246.677 			"/>
			<polygon style="opacity:0.2;fill:#FFFFFF;enable-background:new    ;" points="82.039,418.351 85.435,418.351 122.467,246.677 
				119.071,246.677 			"/>
		</g>
		<g>
			<polygon style="fill:#263238;" points="148.188,418.15 143.441,418.15 122.713,246.677 127.46,246.677 			"/>
			<polygon style="opacity:0.4;fill:#FFFFFF;enable-background:new    ;" points="148.188,418.15 144.792,418.15 124.064,246.677 
				127.46,246.677 			"/>
		</g>
		<g>
			<polygon style="fill:#263238;" points="98.414,418.15 103.161,418.15 119.465,246.677 114.718,246.677 			"/>
			<polygon style="opacity:0.4;fill:#FFFFFF;enable-background:new    ;" points="99.765,418.15 103.161,418.15 119.465,246.677 
				116.069,246.677 			"/>
		</g>
		<g>
			<g>
				
					<ellipse transform="matrix(0.8886 -0.4587 0.4587 0.8886 -99.6201 81.0672)" style="fill:#407BFF;" cx="117.06" cy="245.594" rx="26.712" ry="33.2"/>
			</g>
			<g>
				<g>
					
						<ellipse transform="matrix(0.8886 -0.4587 0.4587 0.8886 -98.9381 81.8738)" style="fill:#407BFF;" cx="119.061" cy="244.593" rx="26.712" ry="33.2"/>
				</g>
				<g style="opacity:0.7;">
					
						<ellipse transform="matrix(0.8886 -0.4587 0.4587 0.8886 -98.9381 81.8738)" style="fill:#FFFFFF;" cx="119.061" cy="244.593" rx="26.712" ry="33.2"/>
				</g>
				<path style="opacity:0.3;fill:#407BFF;" d="M142.798,232.338c-8.412-16.293-25.856-24.014-38.966-17.246
					c-13.109,6.768-16.92,25.463-8.507,41.756s25.856,24.014,38.966,17.246C147.4,267.326,151.208,248.631,142.798,232.338z
					 M133.218,267.44c-10.581,5.463-24.66-0.769-31.451-13.92c-6.787-13.148-3.713-28.24,6.866-33.7
					c10.581-5.463,24.663,0.769,31.454,13.92C146.874,246.891,143.799,261.98,133.218,267.44z"/>
				<path style="opacity:0.5;fill:#407BFF;" d="M137.881,234.877c-5.438-10.531-16.716-15.523-25.19-11.15
					c-8.474,4.376-10.935,16.46-5.497,26.991c5.436,10.534,16.714,15.526,25.187,11.15
					C140.855,257.495,143.317,245.408,137.881,234.877z M131.239,256.853c-6.249,3.228-14.704-0.714-18.879-8.8
					c-4.176-8.089-2.492-17.263,3.76-20.491c6.25-3.225,14.704,0.714,18.879,8.803C139.175,244.452,137.491,253.626,131.239,256.853
					z"/>
				<path style="opacity:0.7;fill:#407BFF;" d="M119.272,231.806c-4.262,2.199-5.302,8.658-2.325,14.428
					c2.977,5.767,8.845,8.658,13.107,6.458c4.262-2.199,5.302-8.658,2.325-14.425C129.402,232.5,123.534,229.606,119.272,231.806z
					 M129.276,249.277c-2.888,1.488-6.971-0.68-9.12-4.845c-2.149-4.167-1.553-8.75,1.332-10.241
					c2.888-1.491,6.971,0.677,9.12,4.845C132.761,243.201,132.164,247.786,129.276,249.277z"/>
				<path style="fill:#407BFF;" d="M123.724,237.203c-1.59,0.821-1.919,3.347-0.734,5.642c1.185,2.295,3.434,3.49,5.025,2.669
					c1.59-0.821,1.919-3.347,0.734-5.642C127.564,237.577,125.314,236.382,123.724,237.203z"/>
			</g>
			<g>
				<g>
					<polygon style="fill:#407BFF;" points="164.642,213.875 156.885,217.88 156.309,225.498 162.854,229.44 170.61,225.436 
						163.939,221.559 					"/>
				</g>
				<g>
					<path style="fill:#263238;" d="M127.34,241.987c-0.589,0.079-1.19-0.213-1.478-0.771c-0.367-0.71-0.088-1.583,0.622-1.95
						l37.978-19.606c0.71-0.366,1.583-0.088,1.949,0.622c0.367,0.71,0.088,1.583-0.622,1.949l-37.978,19.606
						C127.659,241.917,127.5,241.966,127.34,241.987z"/>
				</g>
				<g style="opacity:0.6;enable-background:new    ;">
					<path style="fill:#FFFFFF;" d="M127.34,241.987c-0.589,0.079-1.19-0.213-1.478-0.771c-0.367-0.71-0.088-1.583,0.622-1.95
						l37.978-19.606c0.71-0.366,1.583-0.088,1.949,0.622c0.367,0.71,0.088,1.583-0.622,1.949l-37.978,19.606
						C127.659,241.917,127.5,241.966,127.34,241.987z"/>
				</g>
			</g>
		</g>
	</g>
</g>
<g id="Sheets">
	<g>
		<g>
			<polygon style="fill:#407BFF;" points="388.141,396.042 388.141,397.696 393.859,399.973 388.141,399.973 388.141,403.877 
				393.069,403.877 398.274,407.282 394.37,407.282 399.576,410.307 394.37,410.307 394.37,418.06 302.322,418.096 302.322,413.766 
				298.862,410.307 303.091,410.307 303.091,400.624 295.545,400.624 295.545,397.371 291.786,397.371 291.786,396.042 			"/>
			<polygon style="opacity:0.7;fill:#FFFFFF;enable-background:new    ;" points="388.141,396.042 388.141,397.696 393.859,399.973 
				388.141,399.973 388.141,403.877 393.069,403.877 398.274,407.282 394.37,407.282 399.576,410.307 394.37,410.307 394.37,418.06 
				302.322,418.096 302.322,413.766 298.862,410.307 303.091,410.307 303.091,400.624 295.545,400.624 295.545,397.371 
				291.786,397.371 291.786,396.042 			"/>
			<polygon style="opacity:0.1;enable-background:new    ;" points="388.141,396.042 388.141,397.696 393.859,399.973 
				388.141,399.973 388.141,403.877 393.069,403.877 398.274,407.282 394.37,407.282 399.576,410.307 394.37,410.307 394.37,418.06 
				344.26,418.096 344.26,413.766 340.801,410.307 345.03,410.307 345.03,400.624 337.484,400.624 337.484,397.371 333.725,397.371 
				333.725,396.042 			"/>
			<polygon style="opacity:0.1;enable-background:new    ;" points="303.091,400.624 345.03,400.624 345.213,403.552 			"/>
			<polygon style="opacity:0.1;enable-background:new    ;" points="295.545,397.371 337.484,397.371 295.545,398.835 			"/>
			<polygon style="opacity:0.1;enable-background:new    ;" points="303.091,410.307 345.03,410.307 303.091,408.757 			"/>
			<polygon style="opacity:0.1;enable-background:new    ;" points="302.321,413.766 344.26,413.766 344.26,415.366 			"/>
			<polygon style="opacity:0.1;enable-background:new    ;" points="388.142,397.696 345.03,397.371 388.142,396.395 			"/>
			<polygon style="opacity:0.1;enable-background:new    ;" points="388.142,399.973 344.26,399.973 388.142,401.437 			"/>
			<polygon style="opacity:0.1;enable-background:new    ;" points="394.37,407.282 345.681,407.282 345.681,408.757 			"/>
			<polygon style="opacity:0.1;enable-background:new    ;" points="394.37,410.307 359.089,410.307 394.37,411.278 			"/>
		</g>
		<g>
			<polygon style="fill:#407BFF;" points="396.757,374.344 396.757,375.997 402.474,378.275 396.757,378.275 396.757,382.178 
				401.685,382.178 406.89,385.583 402.985,385.583 408.191,388.608 402.985,388.608 402.985,396.362 310.937,396.397 
				310.937,392.067 307.477,388.608 311.707,388.608 311.707,378.925 304.16,378.925 304.16,375.672 300.402,375.672 
				300.402,374.344 			"/>
			<polygon style="opacity:0.7;fill:#FFFFFF;enable-background:new    ;" points="396.757,374.344 396.757,375.997 402.474,378.275 
				396.757,378.275 396.757,382.178 401.685,382.178 406.89,385.583 402.985,385.583 408.191,388.608 402.985,388.608 
				402.985,396.362 310.937,396.397 310.937,392.067 307.477,388.608 311.707,388.608 311.707,378.925 304.16,378.925 
				304.16,375.672 300.402,375.672 300.402,374.344 			"/>
			<polygon style="opacity:0.1;enable-background:new    ;" points="396.757,374.344 396.757,375.997 402.474,378.275 
				396.757,378.275 396.757,382.178 401.685,382.178 406.89,385.583 402.985,385.583 408.191,388.608 402.985,388.608 
				402.985,396.362 352.876,396.397 352.876,392.067 349.417,388.608 353.646,388.608 353.646,378.925 346.1,378.925 346.1,375.672 
				342.341,375.672 342.341,374.344 			"/>
			<polygon style="opacity:0.1;enable-background:new    ;" points="311.707,378.925 353.646,378.925 353.828,381.853 			"/>
			<polygon style="opacity:0.1;enable-background:new    ;" points="304.16,375.672 346.1,375.672 304.16,377.136 			"/>
			<polygon style="opacity:0.1;enable-background:new    ;" points="311.707,388.608 353.646,388.608 311.707,387.058 			"/>
			<polygon style="opacity:0.1;enable-background:new    ;" points="310.937,392.067 352.876,392.067 352.876,393.667 			"/>
			<polygon style="opacity:0.1;enable-background:new    ;" points="396.757,375.997 353.646,375.672 396.757,374.696 			"/>
			<polygon style="opacity:0.1;enable-background:new    ;" points="396.757,378.275 352.876,378.275 396.757,379.738 			"/>
			<polygon style="opacity:0.1;enable-background:new    ;" points="402.986,385.583 354.296,385.583 354.296,387.058 			"/>
			<polygon style="opacity:0.1;enable-background:new    ;" points="402.986,388.608 367.704,388.608 402.986,389.579 			"/>
		</g>
	</g>
</g>
<g id="Pencils">
	<g>
		<g>
			<g>
				
					<rect x="387.201" y="377.379" transform="matrix(0.151 -0.9885 0.9885 0.151 -25.7131 731.6168)" style="fill:#263238;" width="51.732" height="6.797"/>
			</g>
			<g style="opacity:0.7;enable-background:new    ;">
				
					<rect x="387.201" y="377.379" transform="matrix(0.151 -0.9885 0.9885 0.151 -25.7131 731.6168)" style="fill:#FFFFFF;" width="51.732" height="6.797"/>
			</g>
			<g style="opacity:0.2;">
				<g>
					<rect x="418.88" y="356.085" transform="matrix(0.151 -0.9885 0.9885 0.151 2.9097 717.4961)" width="0.537" height="1.938"/>
				</g>
				<g>
					
						<rect x="418.645" y="357.622" transform="matrix(0.1513 -0.9885 0.9885 0.1513 1.0688 718.4267)" width="0.537" height="1.938"/>
				</g>
				<g>
					
						<rect x="418.409" y="359.16" transform="matrix(0.1511 -0.9885 0.9885 0.1511 -0.5807 719.5813)" width="0.539" height="1.938"/>
				</g>
				<g>
					
						<rect x="418.176" y="360.697" transform="matrix(0.1509 -0.9885 0.9885 0.1509 -2.2378 720.7277)" width="0.537" height="1.938"/>
				</g>
				<g>
					
						<rect x="417.941" y="362.234" transform="matrix(0.1509 -0.9885 0.9885 0.1509 -3.9564 721.8005)" width="0.537" height="1.939"/>
				</g>
				<g>
					
						<rect x="417.705" y="363.772" transform="matrix(0.1509 -0.9885 0.9885 0.1509 -5.6725 722.8782)" width="0.539" height="1.938"/>
				</g>
				<g>
					<rect x="417.471" y="365.31" transform="matrix(0.151 -0.9885 0.9885 0.151 -7.4057 723.9355)" width="0.537" height="1.939"/>
				</g>
				<g>
					
						<rect x="417.236" y="366.847" transform="matrix(0.151 -0.9885 0.9885 0.151 -9.1342 724.9962)" width="0.536" height="1.938"/>
				</g>
				<g>
					<rect x="417" y="368.384" transform="matrix(0.1509 -0.9885 0.9885 0.1509 -10.8302 726.0979)" width="0.539" height="1.939"/>
				</g>
				<g>
					
						<rect x="416.767" y="369.922" transform="matrix(0.1513 -0.9885 0.9885 0.1513 -12.6846 727.0089)" width="0.537" height="1.938"/>
				</g>
				<g>
					
						<rect x="416.532" y="371.459" transform="matrix(0.151 -0.9885 0.9885 0.151 -14.2818 728.2279)" width="0.537" height="1.938"/>
				</g>
				<g>
					
						<rect x="416.296" y="372.997" transform="matrix(0.1509 -0.9885 0.9885 0.1509 -15.978 729.3299)" width="0.539" height="1.938"/>
				</g>
				<g>
					
						<rect x="416.062" y="374.535" transform="matrix(0.151 -0.9885 0.9885 0.151 -17.7211 730.3749)" width="0.537" height="1.939"/>
				</g>
				<g>
					
						<rect x="415.827" y="376.071" transform="matrix(0.1509 -0.9885 0.9885 0.1509 -19.4295 731.4598)" width="0.537" height="1.938"/>
				</g>
				<g>
					
						<rect x="415.591" y="377.609" transform="matrix(0.1509 -0.9885 0.9885 0.1509 -21.1458 732.5377)" width="0.539" height="1.939"/>
				</g>
				<g>
					
						<rect x="415.358" y="379.147" transform="matrix(0.1509 -0.9885 0.9885 0.1509 -22.8688 733.6068)" width="0.537" height="1.938"/>
				</g>
				<g>
					
						<rect x="415.123" y="380.684" transform="matrix(0.1513 -0.9885 0.9885 0.1513 -24.7272 734.5051)" width="0.537" height="1.938"/>
				</g>
				<g>
					
						<rect x="414.887" y="382.222" transform="matrix(0.1509 -0.9885 0.9885 0.1509 -26.3034 735.7576)" width="0.539" height="1.938"/>
				</g>
				<g>
					
						<rect x="414.653" y="383.759" transform="matrix(0.1509 -0.9885 0.9885 0.1509 -28.0265 736.8267)" width="0.537" height="1.938"/>
				</g>
				<g>
					
						<rect x="414.418" y="385.296" transform="matrix(0.151 -0.9885 0.9885 0.151 -29.7549 737.887)" width="0.537" height="1.939"/>
				</g>
				<g>
					
						<rect x="414.182" y="386.834" transform="matrix(0.1509 -0.9885 0.9885 0.1509 -31.4612 738.9774)" width="0.539" height="1.938"/>
				</g>
				<g>
					
						<rect x="413.949" y="388.372" transform="matrix(0.1509 -0.9885 0.9885 0.1509 -33.1842 740.0464)" width="0.537" height="1.939"/>
				</g>
				<g>
					
						<rect x="413.714" y="389.909" transform="matrix(0.1509 -0.9885 0.9885 0.1509 -34.9028 741.1193)" width="0.537" height="1.938"/>
				</g>
				<g>
					
						<rect x="413.478" y="391.446" transform="matrix(0.1511 -0.9885 0.9885 0.1511 -36.6831 742.1145)" width="0.539" height="1.938"/>
				</g>
			</g>
		</g>
		<g>
			<g>
				
					<rect x="403.921" y="362.906" transform="matrix(-1 -1.224647e-16 1.224647e-16 -1 810.443 760.2521)" style="fill:#407BFF;" width="2.602" height="34.44"/>
			</g>
			<g>
				<polygon style="fill:#407BFF;" points="404.133,359.003 406.31,359.003 406.522,362.906 403.921,362.906 				"/>
			</g>
			<g style="opacity:0.8;">
				<polygon style="fill:#FFFFFF;" points="404.133,359.003 406.31,359.003 406.522,362.906 403.921,362.906 				"/>
			</g>
			<g style="opacity:0.3;">
				
					<rect x="403.921" y="362.906" transform="matrix(-1 -1.224647e-16 1.224647e-16 -1 810.443 760.2521)" width="2.602" height="34.44"/>
			</g>
		</g>
		<g>
			<g>
				
					<rect x="392.84" y="366.517" transform="matrix(-0.9919 0.1266 -0.1266 -0.9919 833.4197 714.8682)" style="fill:#263238;" width="2.287" height="34.823"/>
			</g>
			<g>
				<path style="fill:#263238;" d="M389.493,363.989l0.668-0.784l-0.143-4.652l1.428-0.175l1.799,8.06l-0.121,1.737l-2.269,0.29
					l-0.323-0.912l0.492,6.118l-0.291,0.037C389.803,369.947,389.493,363.989,389.493,363.989z"/>
			</g>
			<g style="opacity:0.1;">
				<path style="fill:#FFFFFF;" d="M389.493,363.989l0.668-0.784l-0.143-4.652l1.428-0.175l1.799,8.06l-0.121,1.737l-2.269,0.29
					l-0.323-0.912l0.492,6.118l-0.291,0.037C389.803,369.947,389.493,363.989,389.493,363.989z"/>
			</g>
		</g>
		<g>
			<g>
				<polygon style="fill:#263238;" points="394.544,374.842 401.659,375.216 401.398,368.068 395.553,367.761 				"/>
			</g>
			<g>
				<polygon style="fill:#407BFF;" points="394.544,374.842 401.659,375.216 400.007,394.541 394.162,394.233 				"/>
			</g>
		</g>
		<g>
			<polygon style="fill:#263238;" points="391.857,384.671 418.252,384.671 416.131,418.351 393.978,418.351 			"/>
		</g>
		<g>
			
				<rect x="391.48" y="383.399" transform="matrix(-1 -1.224647e-16 1.224647e-16 -1 810.1087 770.2319)" style="fill:#263238;" width="27.149" height="3.434"/>
		</g>
		<g style="opacity:0.2;">
			
				<rect x="391.48" y="383.399" transform="matrix(-1 -1.224647e-16 1.224647e-16 -1 810.1087 770.2319)" style="fill:#FFFFFF;" width="27.149" height="3.434"/>
		</g>
	</g>
</g>
<g id="Speech_bubble">
	<g>
		<g>
			<path style="fill:#407BFF;" d="M227.721,139.804h-26.953c-5.118,0-9.268,4.149-9.268,9.268v26.194
				c0,5.118,4.149,9.268,9.268,9.268h16.543l10.111,9.785l-3.877-9.785h4.176c5.118,0,9.267-4.149,9.267-9.268v-26.194
				C236.988,143.954,232.839,139.804,227.721,139.804z"/>
			<path style="opacity:0.7;fill:#FFFFFF;" d="M227.721,139.804h-26.953c-5.118,0-9.268,4.149-9.268,9.268v26.194
				c0,5.118,4.149,9.268,9.268,9.268h16.543l10.111,9.785l-3.877-9.785h4.176c5.118,0,9.267-4.149,9.267-9.268v-26.194
				C236.988,143.954,232.839,139.804,227.721,139.804z"/>
		</g>
		<path style="fill:#407BFF;" d="M204.882,156.921c2.34-3.912,6.925-2.48,9.324,0.505c2.32-3.046,6.867-4.596,9.307-0.746
			c4.114,6.492-4.112,12.662-8.003,15.087c-0.441,0.279-0.806,0.508-1.11,0.688c-0.309-0.173-0.68-0.392-1.127-0.659
			C209.32,169.473,200.937,163.517,204.882,156.921z"/>
	</g>
</g>
<g id="Character">
	<g>
		<g>
			<g>
				<polygon style="fill:#407BFF;" points="376.31,179.671 387.316,179.671 374.167,169.704 364.639,175.551 				"/>
				<polygon style="opacity:0.4;enable-background:new    ;" points="376.31,179.671 387.316,179.671 374.167,169.704 
					364.639,175.551 				"/>
			</g>
			<polygon style="fill:#407BFF;" points="378.05,136.538 368.044,136.538 327.547,162.98 338.714,167.059 266.945,300.984 
				186.92,309.748 121.375,418.349 157.886,418.349 172.763,418.349 209.275,418.349 243.182,342.522 317.172,334.315 
				375.642,175.553 387.317,179.676 			"/>
			<polygon style="opacity:0.25;fill:#FFFFFF;enable-background:new    ;" points="340.036,162.981 351.586,167.061 
				292.416,300.981 213.214,309.751 157.884,418.351 121.374,418.351 186.924,309.751 266.946,300.981 338.716,167.061 
				327.546,162.981 368.046,136.541 378.05,136.538 			"/>
			<polygon style="opacity:0.4;fill:#407BFF;enable-background:new    ;" points="327.546,162.981 340.036,162.981 351.586,167.061 
				338.716,167.061 			"/>
			<polygon style="fill:#407BFF;" points="387.316,179.671 375.646,175.551 317.176,334.311 243.184,342.521 209.274,418.351 
				157.884,418.351 213.214,309.751 292.416,300.981 351.586,167.061 340.036,162.981 378.046,136.541 			"/>
			<polygon style="opacity:0.4;fill:#FFFFFF;" points="186.924,309.751 213.214,309.751 292.416,300.981 266.946,300.981 			"/>
		</g>
		<g>
			<g>
				<path style="fill:#263238;" d="M252.824,195.591c0,0-10.328,2.378-10.94,10.07c-0.456,5.727,3.08,15.043,0.81,27.272
					c-1.046,5.635-0.998,17.72,14.813,13.8c19.034-4.719,15.701-47.145,7.807-49.169C257.42,195.54,252.824,195.591,252.824,195.591
					z"/>
				<path style="fill:#263238;" d="M271.678,228.744c-0.013,0-0.026-0.001-0.04-0.004c-0.11-0.022-0.182-0.129-0.16-0.24
					c2.582-12.958-1.091-27.369-4.856-29.91c-0.663-0.448-1.29-0.483-1.862-0.108c-0.095,0.06-0.22,0.035-0.283-0.059
					c-0.062-0.094-0.035-0.221,0.059-0.283c0.713-0.468,1.514-0.429,2.314,0.111c3.839,2.591,7.728,16.782,5.028,30.329
					C271.859,228.677,271.774,228.744,271.678,228.744z"/>
			</g>
			<path style="fill:#E4897B;" d="M300.493,358.494l-5.57-1.06l2.57-22.14l4.41-37.99l-36.39-1.06l-2.34-15.4l-0.8-5.25
				c0,0,6.97,0.53,15.85,1.6c8.75,1.06,19.35,2.63,26.97,4.75c0.01,0,0.01,0,0.01,0c3.43,0.95,6.25,2.01,8.03,3.17
				C323.003,291.504,300.493,358.494,300.493,358.494z"/>
			<path style="opacity:0.2;enable-background:new    ;" d="M297.493,335.294l4.41-37.99l-36.39-1.06l-2.34-15.4l15.05-3.65
				c8.75,1.06,19.35,2.63,26.97,4.75c-0.36,0-9.06,0.16-15.06,4.33c0,0,11.14,3.24,17.96,9.96
				C312.583,300.664,303.913,321.584,297.493,335.294z"/>
			<g>
				<path style="fill:#DC897C;" d="M274.71,224.139c5.598,0.029,11.368,0.123,16.942-0.24c2.322-0.233,4.643-0.212,6.565-1.492
					c5.52-3.528,10.505-7.991,15.703-12.06c0.934-0.774,2.327-0.634,3.086,0.314c0.636,0.793,0.625,1.895,0.041,2.672
					c-2.403,3.19-4.937,6.201-7.689,9.111c-3.057,3.048-6.096,6.461-10.196,8.243c-4.233,1.524-8.4,1.766-12.736,2.068
					c-4.027,0.235-7.953,0.281-11.989,0.109C268.747,232.454,268.999,224.194,274.71,224.139L274.71,224.139z"/>
				<path style="fill:#407BFF;" d="M273.793,223.851c6.768-0.733,16.263,0,16.263,0l-1.978,10.28l-15.39,3.057L273.793,223.851z"/>
				<path style="opacity:0.6;fill:#FFFFFF;enable-background:new    ;" d="M290.051,223.848l-1.97,10.279l-10.54,2.099l-4.85,0.964
					l0.54-6.51l0.56-6.831C280.561,223.12,290.051,223.848,290.051,223.848z"/>
				<path style="opacity:0.2;enable-background:new    ;" d="M280.508,235.634l-7.817,1.555l1.18-10.214
					C276.359,228.162,279.328,232.422,280.508,235.634z"/>
				<polygon style="fill:#407BFF;" points="289.595,223.339 287.551,234.947 289.727,234.357 291.177,223.339 				"/>
			</g>
			<path style="fill:#E4897B;" d="M256.033,278.756c0,0,42.413,7.983,50.206,16.666c7.793,8.683-33.19,68.63-33.19,68.63
				l-5.11-2.452l22.21-56.314l-38.717,0.12L256.033,278.756z"/>
			<path style="fill:#263238;" d="M295.847,279.219c-10.213,6-23.087,27.242-23.087,27.242s-51.165,15.751-25.274-35.822
				l26.124-2.016l1.583,7.455C286.937,277.565,295.847,279.219,295.847,279.219z"/>
			<g>
				<g>
					<polygon style="fill:#263238;" points="247.652,267.087 247.217,271.007 274.22,271.927 274.735,267.291 					"/>
					<polygon style="opacity:0.2;fill:#FFFFFF;enable-background:new    ;" points="247.652,267.087 247.217,271.007 
						274.22,271.927 274.735,267.291 					"/>
				</g>
				
					<rect x="255.284" y="266.391" transform="matrix(0.9982 0.0594 -0.0594 0.9982 16.4846 -14.7327)" style="fill:#263238;" width="1.338" height="6.816"/>
				
					<rect x="262.482" y="267.233" transform="matrix(0.9998 0.0213 -0.0213 0.9998 5.7921 -5.5852)" style="fill:#FFFFFF;" width="5.914" height="4.485"/>
				
					<rect x="271.841" y="266.411" transform="matrix(0.9982 0.0596 -0.0596 0.9982 16.5589 -15.7559)" style="fill:#263238;" width="1.338" height="6.815"/>
			</g>
			<g>
				<path style="fill:#407BFF;" d="M274.713,267.544l-27.21-0.47c0,0,0.02-1.409-0.21-6.419c-0.14-3.2-0.38-7.05-0.78-11.08
					c-0.65-6.37-1.7-13.18-3.44-18.54c0,0,8.81-4.275,30.72-7.184C273.793,223.851,278.894,237.941,274.713,267.544z"/>
				<path style="opacity:0.6;fill:#FFFFFF;enable-background:new    ;" d="M267.904,246.79c-0.031,0.424-0.4,0.743-0.824,0.712
					c-0.424-0.031-0.743-0.4-0.712-0.824c0.031-0.424,0.4-0.743,0.824-0.712C267.617,245.997,267.935,246.365,267.904,246.79z"/>
				<path style="opacity:0.6;fill:#FFFFFF;enable-background:new    ;" d="M267.996,255.109c-0.031,0.424-0.4,0.743-0.824,0.712
					c-0.424-0.031-0.743-0.4-0.712-0.824c0.031-0.424,0.4-0.743,0.824-0.712C267.708,254.316,268.027,254.684,267.996,255.109z"/>
				<path style="opacity:0.6;fill:#FFFFFF;enable-background:new    ;" d="M267.353,262.909c-0.031,0.424-0.4,0.743-0.824,0.712
					c-0.424-0.031-0.743-0.4-0.712-0.824c0.031-0.424,0.4-0.743,0.824-0.712C267.065,262.116,267.384,262.484,267.353,262.909z"/>
			</g>
			<g>
				<path style="fill:#407BFF;" d="M252.3,235.962c0,0-4.533-8.8,6.952-10.878c11.485-2.077,14.427,4.938,14.427,4.938l-5.547-1.376
					l-1.686,13.369c0,0-2.82-7.168-11.145-10.744L252.3,235.962z"/>
				<path style="opacity:0.6;fill:#FFFFFF;enable-background:new    ;" d="M252.3,235.962c0,0-4.533-8.8,6.952-10.878
					c11.485-2.077,14.427,4.938,14.427,4.938l-5.547-1.376l-1.686,13.369c0,0-2.82-7.168-11.145-10.744L252.3,235.962z"/>
			</g>
			<path style="fill:#E4897B;" d="M265.206,235.285c-5.362-2.876-10.381-7.013-10.381-7.013c2.828-2.298,2.616-6.014,2.108-8.359
				c-0.274-1.297-0.643-2.175-0.643-2.175l7.685,2.026c-0.297,1.271-0.466,2.348-0.541,3.259c-0.089,1-0.057,1.797,0.044,2.426
				c0.359,2.367,1.684,2.497,1.684,2.497C266.344,230.603,265.206,235.285,265.206,235.285z"/>
			<path style="opacity:0.2;enable-background:new    ;" d="M263.435,223.024c-0.089,1-0.057,1.797,0.044,2.426
				c-3.064-0.633-5.228-3.28-6.545-5.537c-0.274-1.297-0.643-2.175-0.643-2.175l7.685,2.026
				C263.678,221.036,263.509,222.113,263.435,223.024z"/>
			<g>
				<path style="fill:#263238;" d="M290.132,358.711l1.104,0.913l1.435-1.107l2.283,4.673l9.245,7.667c0,0,2.696-0.259-0.731-5.088
					c-0.156-0.22-0.299-0.469-0.426-0.756c-1.435-3.048-1.693-9.536-1.693-9.536l-5.073-4.207c0,0-0.388,0.107-1.022,0.387
					C293.775,352.313,290.875,353.861,290.132,358.711z"/>
				<path style="fill:#E4897B;" d="M295.254,351.656c-0.006,0.008-0.013,0.015-0.013,0.015c1.289-0.191,1.618,5.616,2.925,8.583
					c1.17,2.646,3.046,4.943,4.876,4.758c-1.435-3.048-1.141-10.916-1.141-10.916l-4.079-3.383
					C297.822,350.714,295.889,351.377,295.254,351.656z"/>
			</g>
			<g>
				<path style="fill:#263238;" d="M261.441,363.735l0.861,1.145l1.653-0.743l1.132,5.076l7.207,9.607c0,0,2.682,0.376,0.474-5.118
					c-0.1-0.25-0.182-0.526-0.238-0.834c-0.686-3.298,0.573-9.668,0.573-9.668l-3.954-5.272c0,0-0.402,0.014-1.084,0.138
					C266.472,358.36,263.292,359.192,261.441,363.735z"/>
				<path style="fill:#E4897B;" d="M268.064,358.066c-0.008,0.006-0.016,0.012-0.016,0.012c1.298,0.114,0.267,5.838,0.847,9.028
					c0.522,2.846,1.813,5.516,3.635,5.762c-0.686-3.298,1.43-10.882,1.43-10.882l-3.18-4.239
					C270.78,357.747,268.746,357.942,268.064,358.066z"/>
			</g>
			<g>
				<path style="fill:#E4897B;" d="M313.083,211.212l4.059-7.744l6.117,4.585c0,0-2.077,5.812-7.166,5.955L313.083,211.212z"/>
				<polygon style="fill:#E4897B;" points="322.281,199.957 326.022,204.465 323.259,208.052 317.142,203.468 				"/>
			</g>
			<g>
				<path style="fill:#E4897B;" d="M260.863,271.927l8.714,0.722l-1.84,7.419c0,0-6.162,0.351-8.276-4.28L260.863,271.927z"/>
				<polygon style="fill:#E4897B;" points="274.812,276.015 272.117,281.217 267.737,280.069 269.577,272.649 				"/>
			</g>
			<g>
				<path style="fill:#263238;" d="M311.559,278.9v2.538c0,0.652-0.767,0.918-1.41,0.918h-50.729c-0.651,0-1.435-0.267-1.435-0.918
					V278.9H311.559z"/>
				<path style="opacity:0.4;fill:#FFFFFF;enable-background:new    ;" d="M311.559,278.9v2.538c0,0.652-0.767,0.918-1.41,0.918
					h-50.729c-0.651,0-1.435-0.267-1.435-0.918V278.9H311.559z"/>
				<path style="opacity:0.2;enable-background:new    ;" d="M311.559,278.9v2.538c0,0.652-0.767,0.918-1.41,0.918H276.69
					c-0.651,0-1.424-0.267-1.424-0.918V278.9H311.559z"/>
				<path style="fill:#263238;" d="M320.046,252.544l-6.039,27.391c-0.197,0.902-1.075,1.557-1.961,1.557h-32.988
					c-0.879,0-1.443-0.819-1.239-1.721l6.031-27.182c0.204-0.895,1.074-1.34,1.96-1.34H318.8
					C319.686,251.248,320.243,251.649,320.046,252.544z"/>
				<path style="opacity:0.4;fill:#FFFFFF;enable-background:new    ;" d="M320.046,252.544l-6.039,27.391
					c-0.197,0.902-1.075,1.557-1.961,1.557H280.18c-0.886,0-1.443-0.819-1.247-1.721l6.039-27.182
					c0.196-0.895,1.074-1.34,1.961-1.34H318.8C319.686,251.248,320.243,251.649,320.046,252.544z"/>
				<path style="opacity:0.2;enable-background:new    ;" d="M303.782,266.466v0.008c0,2.345-2.515,4.25-4.358,4.25
					c-1.843,0-2.936-1.905-2.41-4.25c0.526-2.299,2.36-4.173,4.164-4.244c-0.525,2.345,0.6,4.244,2.436,4.244
					C303.652,266.474,303.782,266.474,303.782,266.466z"/>
			</g>
			<path style="opacity:0.2;enable-background:new    ;" d="M247.293,260.656c-0.14-3.2-0.38-7.05-0.78-11.08
				c1.61-2.65,2.93-4.62,2.93-4.62S253.563,254.726,247.293,260.656z"/>
			<path style="fill:#DC897C;" d="M248.685,237.992c0.098,6.65-0.18,16.84,0.489,23.346c0,0,0.07,0.449,0.07,0.449
				c0,0.051,0.054,0.152-0.136-0.189c4.005,3.695,11.407,8.371,16.631,12.295c0.986,0.702,1.211,2.077,0.498,3.056
				c-0.597,0.82-1.66,1.099-2.561,0.743c-3.826-1.513-7.533-3.191-11.202-5.073c-3.152-1.709-6.375-3.256-9.142-5.761
				c-1.128-1.014-1.757-2.678-2.007-3.966c-1.505-8.313-1.43-16.612-1.368-25.001C240.259,232.202,248.513,232.288,248.685,237.992
				L248.685,237.992z"/>
			<g>
				<path style="fill:#407BFF;" d="M243.076,231.032c-4.537,2.311-5.262,10.157-4.375,22.119l10.878-0.697
					c0,0,1.854-9.932,0.365-14.545C247.724,231.032,243.076,231.032,243.076,231.032z"/>
				<path style="opacity:0.6;fill:#FFFFFF;enable-background:new    ;" d="M243.076,231.032c-4.537,2.311-5.262,10.157-4.375,22.119
					l10.878-0.697c0,0,1.854-9.932,0.365-14.545C247.724,231.032,243.076,231.032,243.076,231.032z"/>
				<polygon style="fill:#407BFF;" points="237.937,252.474 250.003,252.078 249.739,253.826 237.937,254.452 				"/>
			</g>
			<g>
				<path style="fill:#E4897B;" d="M257.375,198.534c8.217-1.804,9.779,2.016,11.753,8.757c2.466,8.424,1.889,14.914-6.814,14.891
					C250.494,222.15,246.348,200.955,257.375,198.534z"/>
				<path style="fill:#DE5753;" d="M264.753,207.852c0,0,1.297,1.535,2.531,2.335c0,0-0.372,1.027-1.588,1.132L264.753,207.852z"/>
				<g>
					<path style="fill:#263238;" d="M260.569,208.192c0.131,0.543-0.056,1.054-0.418,1.142c-0.362,0.088-0.762-0.282-0.893-0.825
						c-0.131-0.543,0.056-1.054,0.418-1.142C260.037,207.28,260.437,207.649,260.569,208.192z"/>
					<path style="fill:#263238;" d="M259.531,207.43l1.069-0.749C260.6,206.681,260.252,207.817,259.531,207.43z"/>
				</g>
				<g>
					<path style="fill:#263238;" d="M267.291,206.447c0.131,0.543-0.056,1.054-0.418,1.142c-0.362,0.087-0.762-0.282-0.893-0.825
						c-0.131-0.543,0.056-1.054,0.418-1.142C266.76,205.535,267.16,205.904,267.291,206.447z"/>
					<path style="fill:#263238;" d="M266.253,205.685l1.069-0.749C267.322,204.936,266.975,206.072,266.253,205.685z"/>
				</g>
				<path style="fill:#263238;" d="M256.842,205.538c-0.044,0-0.089-0.01-0.13-0.031c-0.143-0.072-0.2-0.246-0.127-0.388
					c0.807-1.593,2.811-1.781,2.896-1.788c0.162-0.002,0.298,0.105,0.312,0.263c0.014,0.159-0.104,0.299-0.263,0.313
					c-0.018,0.002-1.77,0.17-2.43,1.473C257.049,205.48,256.947,205.538,256.842,205.538z"/>
				<path style="fill:#263238;" d="M264.274,202.577c-0.096,0-0.19-0.047-0.245-0.135c-0.085-0.134-0.046-0.311,0.088-0.397
					c0.049-0.03,1.222-0.759,3.027-0.054c0.148,0.058,0.222,0.226,0.164,0.375c-0.058,0.148-0.227,0.223-0.375,0.164
					c-1.515-0.592-2.468-0.02-2.507,0.004C264.38,202.563,264.327,202.577,264.274,202.577z"/>
				<path style="fill:#263238;" d="M252.771,211.674c0,0,1.921-6.133,0.535-10.245c0,0,3.622-5.856,10.978-2.469
					c0,0,3.633,3.96,4.572,7.453c0,0-1.291-12.145-12.769-9.929c-11.46,2.212-7.801,18.913-0.822,22.611
					C255.265,219.095,251.591,215.505,252.771,211.674z"/>
				<path style="fill:#E4897B;" d="M254.161,212.841c-0.277-1.06-1.774-2.631-3.716-1.982c-2.01,0.672-2.073,5.111,3.268,5.015
					C254.48,215.861,254.738,215.053,254.161,212.841z"/>
				<path style="fill:#263238;" d="M263.91,215.738c-0.92,0-2.025-0.3-2.895-1.444c-0.097-0.127-0.072-0.308,0.055-0.405
					c0.127-0.098,0.308-0.072,0.405,0.055c1.532,2.017,3.891,0.953,3.99,0.907c0.143-0.066,0.316-0.005,0.384,0.14
					c0.067,0.145,0.005,0.316-0.139,0.384C265.696,215.381,264.913,215.738,263.91,215.738z"/>
				<path style="fill:#263238;" d="M253.306,201.43c0,0,6.848-5.034,12.847-1.688c0,0,0.687-6.289-6.481-6.809
					c-7.168-0.521-12.534,7.711-12.534,7.711L253.306,201.43z"/>
				<path style="fill:#263238;" d="M255.97,199.34c0,0-5.399,4.496-4.063,13.33c1.377,9.102,0.136,13.269-0.45,19.09
					c-0.784,7.774,4.245,9.062,4.245,9.062s-4.986,0.487-6.596-5.038c-0.829-2.844-0.342-14.564-4.785-21.761
					C239.273,205.846,249.314,197.999,255.97,199.34z"/>
			</g>
		</g>
	</g>
</g>
</svg>
