<?xml version="1.0" encoding="utf-8"?>
<!-- Generator: Adobe Illustrator 27.5.0, SVG Export Plug-In . SVG Version: 6.00 Build 0)  -->
<svg version="1.1" xmlns="http://www.w3.org/2000/svg" xmlns:xlink="http://www.w3.org/1999/xlink" x="0px" y="0px"
	 viewBox="0 0 500 500" style="enable-background:new 0 0 500 500;" xml:space="preserve">
<g id="Background_Complete">
	<g>
		<rect y="382.398" style="fill:#EBEBEB;" width="500" height="0.25"/>
		<rect x="416.779" y="398.494" style="fill:#EBEBEB;" width="33.122" height="0.25"/>
		<rect x="322.527" y="401.208" style="fill:#EBEBEB;" width="8.693" height="0.25"/>
		<rect x="396.586" y="389.208" style="fill:#EBEBEB;" width="19.192" height="0.25"/>
		<rect x="52.459" y="390.888" style="fill:#EBEBEB;" width="43.193" height="0.25"/>
		<rect x="104.556" y="390.888" style="fill:#EBEBEB;" width="6.333" height="0.25"/>
		<rect x="131.471" y="395.111" style="fill:#EBEBEB;" width="93.676" height="0.25"/>
		<path style="fill:#EBEBEB;" d="M237.014,337.8H43.915c-3.147,0-5.708-2.561-5.708-5.708V60.66c0-3.147,2.561-5.708,5.708-5.708
			h193.099c3.146,0,5.707,2.561,5.707,5.708v271.432C242.721,335.239,240.16,337.8,237.014,337.8z M43.915,55.203
			c-3.01,0-5.458,2.448-5.458,5.458v271.432c0,3.01,2.448,5.458,5.458,5.458h193.099c3.009,0,5.457-2.448,5.457-5.458V60.66
			c0-3.009-2.448-5.458-5.457-5.458H43.915z"/>
		<path style="fill:#EBEBEB;" d="M453.31,337.8H260.212c-3.147,0-5.707-2.561-5.707-5.708V60.66c0-3.147,2.561-5.708,5.707-5.708
			H453.31c3.148,0,5.708,2.561,5.708,5.708v271.432C459.019,335.239,456.458,337.8,453.31,337.8z M260.212,55.203
			c-3.009,0-5.457,2.448-5.457,5.458v271.432c0,3.01,2.448,5.458,5.457,5.458H453.31c3.01,0,5.458-2.448,5.458-5.458V60.66
			c0-3.009-2.448-5.458-5.458-5.458H260.212z"/>
	</g>
	<g>
		<g>
			<g>
				<rect x="88.329" y="92.079" style="fill:#F5F5F5;" width="94.673" height="213.274"/>
				
					<rect x="33.029" y="154.952" transform="matrix(-1.836970e-16 1 -1 -1.836970e-16 334.3826 63.0508)" style="fill:#FAFAFA;" width="205.274" height="87.53"/>
				<rect x="134.66" y="95.052" style="fill:#F5F5F5;" width="2.012" height="208.302"/>
				<rect x="86.145" y="89.304" style="fill:#F5F5F5;" width="99.043" height="10.037"/>
				<g>
					<rect x="86.145" y="100.453" style="fill:#F5F5F5;" width="99.043" height="1.19"/>
					<rect x="86.145" y="103.153" style="fill:#F5F5F5;" width="99.043" height="1.19"/>
					<rect x="86.145" y="105.853" style="fill:#F5F5F5;" width="99.043" height="1.19"/>
					<rect x="86.145" y="108.553" style="fill:#F5F5F5;" width="99.043" height="1.19"/>
					<rect x="86.145" y="111.253" style="fill:#F5F5F5;" width="99.043" height="1.189"/>
					<rect x="86.145" y="113.953" style="fill:#F5F5F5;" width="99.043" height="1.189"/>
					<rect x="86.145" y="116.653" style="fill:#F5F5F5;" width="99.043" height="1.189"/>
					<rect x="86.145" y="119.354" style="fill:#F5F5F5;" width="99.043" height="1.189"/>
					<rect x="86.145" y="122.054" style="fill:#F5F5F5;" width="99.043" height="1.189"/>
					<rect x="86.145" y="124.754" style="fill:#F5F5F5;" width="99.043" height="1.19"/>
					<rect x="86.145" y="127.454" style="fill:#F5F5F5;" width="99.043" height="1.19"/>
					<rect x="86.145" y="130.154" style="fill:#F5F5F5;" width="99.043" height="1.19"/>
					<rect x="86.145" y="132.854" style="fill:#F5F5F5;" width="99.043" height="1.19"/>
					<rect x="86.145" y="135.554" style="fill:#F5F5F5;" width="99.043" height="1.19"/>
					<rect x="86.145" y="138.254" style="fill:#F5F5F5;" width="99.043" height="1.189"/>
					<rect x="86.145" y="140.954" style="fill:#F5F5F5;" width="99.043" height="1.189"/>
					<rect x="86.145" y="143.654" style="fill:#F5F5F5;" width="99.043" height="1.189"/>
					<rect x="86.145" y="146.355" style="fill:#F5F5F5;" width="99.043" height="1.189"/>
				</g>
			</g>
			<g>
				<rect x="200.415" y="92.079" style="fill:#F5F5F5;" width="94.673" height="213.274"/>
				
					<rect x="145.115" y="154.952" transform="matrix(-1.836970e-16 1 -1 -1.836970e-16 446.4686 -49.0352)" style="fill:#FAFAFA;" width="205.274" height="87.53"/>
				<rect x="246.746" y="95.052" style="fill:#F5F5F5;" width="2.012" height="208.302"/>
				<rect x="198.231" y="89.304" style="fill:#F5F5F5;" width="99.043" height="10.037"/>
				<g>
					<rect x="198.231" y="100.453" style="fill:#F5F5F5;" width="99.043" height="1.19"/>
					<rect x="198.231" y="103.153" style="fill:#F5F5F5;" width="99.043" height="1.19"/>
					<rect x="198.231" y="105.853" style="fill:#F5F5F5;" width="99.043" height="1.19"/>
					<rect x="198.231" y="108.553" style="fill:#F5F5F5;" width="99.043" height="1.19"/>
					<rect x="198.231" y="111.253" style="fill:#F5F5F5;" width="99.043" height="1.189"/>
					<rect x="198.231" y="113.953" style="fill:#F5F5F5;" width="99.043" height="1.189"/>
					<rect x="198.231" y="116.653" style="fill:#F5F5F5;" width="99.043" height="1.189"/>
					<rect x="198.231" y="119.354" style="fill:#F5F5F5;" width="99.043" height="1.189"/>
					<rect x="198.231" y="122.054" style="fill:#F5F5F5;" width="99.043" height="1.189"/>
					<rect x="198.231" y="124.754" style="fill:#F5F5F5;" width="99.043" height="1.19"/>
					<rect x="198.231" y="127.454" style="fill:#F5F5F5;" width="99.043" height="1.19"/>
					<rect x="198.231" y="130.154" style="fill:#F5F5F5;" width="99.043" height="1.19"/>
					<rect x="198.231" y="132.854" style="fill:#F5F5F5;" width="99.043" height="1.19"/>
					<rect x="198.231" y="135.554" style="fill:#F5F5F5;" width="99.043" height="1.19"/>
					<rect x="198.231" y="138.254" style="fill:#F5F5F5;" width="99.043" height="1.189"/>
					<rect x="198.231" y="140.954" style="fill:#F5F5F5;" width="99.043" height="1.189"/>
					<rect x="198.231" y="143.654" style="fill:#F5F5F5;" width="99.043" height="1.189"/>
					<rect x="198.231" y="146.355" style="fill:#F5F5F5;" width="99.043" height="1.189"/>
				</g>
			</g>
			<g>
				<rect x="312.501" y="92.079" style="fill:#F5F5F5;" width="94.673" height="213.274"/>
				
					<rect x="257.201" y="154.952" transform="matrix(-1.836970e-16 1 -1 -1.836970e-16 558.5546 -161.1212)" style="fill:#FAFAFA;" width="205.274" height="87.53"/>
				<rect x="358.832" y="95.052" style="fill:#F5F5F5;" width="2.012" height="208.302"/>
				<rect x="310.317" y="89.304" style="fill:#F5F5F5;" width="99.043" height="10.037"/>
				<g>
					<rect x="310.317" y="100.453" style="fill:#F5F5F5;" width="99.043" height="1.19"/>
					<rect x="310.317" y="103.153" style="fill:#F5F5F5;" width="99.043" height="1.19"/>
					<rect x="310.317" y="105.853" style="fill:#F5F5F5;" width="99.043" height="1.19"/>
					<rect x="310.317" y="108.553" style="fill:#F5F5F5;" width="99.043" height="1.19"/>
					<rect x="310.317" y="111.253" style="fill:#F5F5F5;" width="99.043" height="1.189"/>
					<rect x="310.317" y="113.953" style="fill:#F5F5F5;" width="99.043" height="1.189"/>
					<rect x="310.317" y="116.653" style="fill:#F5F5F5;" width="99.043" height="1.189"/>
					<rect x="310.317" y="119.354" style="fill:#F5F5F5;" width="99.043" height="1.189"/>
					<rect x="310.317" y="122.054" style="fill:#F5F5F5;" width="99.043" height="1.189"/>
					<rect x="310.317" y="124.754" style="fill:#F5F5F5;" width="99.043" height="1.19"/>
					<rect x="310.317" y="127.454" style="fill:#F5F5F5;" width="99.043" height="1.19"/>
					<rect x="310.317" y="130.154" style="fill:#F5F5F5;" width="99.043" height="1.19"/>
					<rect x="310.317" y="132.854" style="fill:#F5F5F5;" width="99.043" height="1.19"/>
					<rect x="310.317" y="135.554" style="fill:#F5F5F5;" width="99.043" height="1.19"/>
					<rect x="310.317" y="138.254" style="fill:#F5F5F5;" width="99.043" height="1.189"/>
					<rect x="310.317" y="140.954" style="fill:#F5F5F5;" width="99.043" height="1.189"/>
					<rect x="310.317" y="143.654" style="fill:#F5F5F5;" width="99.043" height="1.189"/>
					<rect x="310.317" y="146.355" style="fill:#F5F5F5;" width="99.043" height="1.189"/>
				</g>
			</g>
		</g>
		<g>
			<g>
				<path style="fill:#F5F5F5;" d="M331.847,282.521L331.847,282.521h120.141l0,0c0,4.411-3.472,8.032-7.878,8.231
					c-12.911,0.582-32.773,2.625-39.072,9.769c-11.741,13.316-10.604,60.095,3.46,70.929c4.409,3.397,17.265,10.142,17.265,10.142
					h-67.691c0,0,12.012-6.881,16.186-10.142c13.984-10.923,14.391-57.674,2.595-70.929c-6.052-6.801-24.669-8.998-37.16-9.691
					C335.287,290.586,331.847,286.934,331.847,282.521z"/>
				<path style="fill:#E6E6E6;" d="M437.106,291.188c-12.203,0.978-26.828,3.39-32.068,9.333c-1.551,1.759-2.87,4.114-3.972,6.88
					h-20.178c-1.131-2.769-2.473-5.125-4.035-6.88c-5.26-5.91-20.006-8.342-31.977-9.333H437.106z"/>
			</g>
			<g>
				<polygon style="fill:#EBEBEB;" points="383.024,282.579 384.658,263.905 360.976,263.905 359.342,282.579 				"/>
				<polygon style="fill:#E0E0E0;" points="383.024,282.579 384.658,263.905 385.933,263.905 384.299,282.579 				"/>
				<polygon style="fill:#F0F0F0;" points="380.776,280.675 382.077,265.809 363.224,265.809 361.923,280.675 				"/>
				<polygon style="fill:#FAFAFA;" points="379.331,279.452 380.417,267.033 364.668,267.033 363.582,279.452 				"/>
			</g>
			<g>
				<g>
					<polygon style="fill:#E6E6E6;" points="390.706,282.521 414.495,282.521 411.856,252.351 388.066,252.351 					"/>
					<polygon style="fill:#E0E0E0;" points="390.706,282.521 389.57,282.521 386.93,252.351 388.066,252.351 					"/>
					<polygon style="fill:#F0F0F0;" points="392.862,279.445 411.801,279.445 409.7,255.427 390.761,255.427 					"/>
					<polygon style="fill:#FAFAFA;" points="394.248,277.468 410.069,277.468 408.314,257.404 392.493,257.404 					"/>
				</g>
				<path style="fill:#EBEBEB;" d="M402.239,266.431L402.239,266.431c-1.075,1.075-2.817,1.075-3.892,0l0,0
					c-1.075-1.075-1.075-2.817,0-3.892l0,0c1.075-1.075,2.817-1.075,3.892,0l0,0C403.314,263.614,403.314,265.356,402.239,266.431z"
					/>
				<path style="fill:#F0F0F0;" d="M401.074,269.802L401.074,269.802c0.787-0.787,2.063-0.787,2.85,0l0,0
					c1.269,1.27,0.37,3.44-1.425,3.44l0,0C400.704,273.242,399.805,271.072,401.074,269.802z"/>
			</g>
		</g>
		<g>
			<path style="fill:#F5F5F5;" d="M166.455,375.421h23.17l-12.181-99.206c-0.516-4.2-4.338-7.604-8.538-7.604h-7.963H67.806
				l14.821,106.81H166.455z"/>
			<path style="fill:#F0F0F0;" d="M92.968,375.421h-23.17l-12.181-99.206c-0.516-4.2,2.471-7.604,6.67-7.604h7.963
				c4.2,0,8.022,3.404,8.537,7.604L92.968,375.421z"/>
			<g>
				<path style="fill:#E6E6E6;" d="M101.505,375.304l-4.198-47.984c-0.188-2.143-1.843-3.866-3.978-4.138l-1.726-0.22
					c-2.863-0.365-5.084-2.676-5.336-5.551l-0.766-8.749c-0.314-3.586,2.513-6.67,6.112-6.67H52.891c-3.6,0-6.426,3.084-6.112,6.67
					l0.766,8.749c0.251,2.875,2.473,5.186,5.335,5.551l1.726,0.22c2.134,0.272,3.79,1.995,3.977,4.138l4.198,47.984
					c0.306,3.498,3.235,6.183,6.747,6.183h38.723C104.74,381.486,101.811,378.802,101.505,375.304z"/>
			</g>
			<path style="fill:#E6E6E6;" d="M208.068,315.308c0.659-7.535,6.969-13.317,14.533-13.317h-18.737h-14.975
				c-7.564,0-13.873,5.782-14.533,13.317l-3.328,38.037h33.712L208.068,315.308z"/>
			<path style="fill:#F0F0F0;" d="M237.575,301.991H222.6c-7.564,0-13.873,5.782-14.533,13.317l-3.328,38.037h-80.29l-3.328-38.037
				c-0.659-7.535-6.969-13.317-14.533-13.317H91.614c-3.599,0-6.426,3.084-6.112,6.67l0.766,8.749
				c0.251,2.875,2.473,5.186,5.336,5.551l1.726,0.22c2.134,0.272,3.79,1.995,3.977,4.138l4.198,47.984
				c0.306,3.498,3.235,6.183,6.747,6.183h112.686c3.512,0,6.441-2.684,6.747-6.183l4.198-47.984
				c0.188-2.143,1.843-3.866,3.977-4.138l1.727-0.22c2.863-0.365,5.084-2.676,5.336-5.551l0.765-8.749
				C244.001,305.075,241.175,301.991,237.575,301.991z"/>
		</g>
	</g>
</g>
<g id="Background_Simple" style="display:none;">
	<g style="display:inline;">
		<path style="fill:#407BFF;" d="M104.556,101.625c27.919-59.449,127.059-51.062,165.317-9.255
			c38.258,41.806,50.696,68.599,85.208,52.983c34.512-15.616,78.518-11.44,81.043,38.164s-37.913,108.263-102.09,125.615
			c-64.177,17.352-64.161,78.759-149.1,66.368c-46.31-6.756-47.365-56.86-40.825-98.301S72.177,170.569,104.556,101.625z"/>
		<path style="opacity:0.9;fill:#FFFFFF;" d="M104.556,101.625c27.919-59.449,127.059-51.062,165.317-9.255
			c38.258,41.806,50.696,68.599,85.208,52.983c34.512-15.616,78.518-11.44,81.043,38.164s-37.913,108.263-102.09,125.615
			c-64.177,17.352-64.161,78.759-149.1,66.368c-46.31-6.756-47.365-56.86-40.825-98.301S72.177,170.569,104.556,101.625z"/>
	</g>
</g>
<g id="Shadow_1_">
	<ellipse id="_x3C_Path_x3E__359_" style="fill:#F5F5F5;" cx="250" cy="416.238" rx="193.889" ry="11.323"/>
</g>
<g id="Interface">
	<g>
		<path style="fill:#407BFF;" d="M380.05,343.574H168.961c-2.406,0-4.356-1.95-4.356-4.356V145.199c0-2.406,1.95-4.356,4.356-4.356
			H380.05c2.406,0,4.356,1.95,4.356,4.356v194.019C384.406,341.624,382.455,343.574,380.05,343.574z"/>
		<path style="opacity:0.4;fill:#FFFFFF;" d="M380.05,343.574H168.961c-2.406,0-4.356-1.95-4.356-4.356V145.199
			c0-2.406,1.95-4.356,4.356-4.356H380.05c2.406,0,4.356,1.95,4.356,4.356v194.019C384.406,341.624,382.455,343.574,380.05,343.574z
			"/>
		<path style="opacity:0.6;fill:#FFFFFF;" d="M167.021,181.607v156.707c0,1.569,1.276,2.845,2.845,2.845h209.279
			c1.569,0,2.845-1.276,2.845-2.845V181.607H167.021z"/>
		<g>
			<path style="fill:#407BFF;" d="M260.286,172.67h-54.828c-1.045,0-1.892-0.847-1.892-1.891v-16.774
				c0-1.045,0.847-1.891,1.892-1.891h54.828c1.045,0,1.892,0.847,1.892,1.891v16.774C262.177,171.823,261.331,172.67,260.286,172.67
				z"/>
			<g>
				<path style="fill:#FFFFFF;" d="M230.42,164.731h-5.403l-1.164,2.591h-1.067l4.434-9.698h1.011l4.434,9.698h-1.08L230.42,164.731
					z M230.046,163.899l-2.328-5.21l-2.328,5.21H230.046z"/>
				<path style="fill:#FFFFFF;" d="M234.276,157.624h3.949c3.104,0,5.195,1.995,5.195,4.849s-2.092,4.849-5.195,4.849h-3.949
					V157.624z M238.169,166.435c2.577,0,4.24-1.635,4.24-3.962c0-2.328-1.663-3.962-4.24-3.962h-2.868v7.925H238.169z"/>
				<path style="fill:#FFFFFF;" d="M245.725,157.624h3.949c3.104,0,5.195,1.995,5.195,4.849s-2.092,4.849-5.195,4.849h-3.949
					V157.624z M249.618,166.435c2.577,0,4.24-1.635,4.24-3.962c0-2.328-1.663-3.962-4.24-3.962h-2.868v7.925H249.618z"/>
			</g>
			<g>
				<line style="fill:none;stroke:#FFFFFF;stroke-miterlimit:10;" x1="208.756" y1="162.391" x2="217.675" y2="162.391"/>
				<line style="fill:none;stroke:#FFFFFF;stroke-miterlimit:10;" x1="213.215" y1="157.932" x2="213.215" y2="166.851"/>
			</g>
		</g>
		
			<rect x="178.242" y="153.961" style="fill:#FFFFFF;stroke:#407BFF;stroke-linecap:round;stroke-linejoin:round;stroke-miterlimit:10;" width="15.768" height="15.768"/>
		<g>
			<path style="opacity:0.6;fill:#407BFF;" d="M364.065,212.527H205.458c-1.045,0-1.892-0.847-1.892-1.891v-16.774
				c0-1.045,0.847-1.892,1.892-1.892h158.608c1.045,0,1.892,0.847,1.892,1.892v16.774
				C365.957,211.68,365.11,212.527,364.065,212.527z"/>
			
				<rect x="178.242" y="195.026" style="opacity:0.6;fill:#FFFFFF;stroke:#407BFF;stroke-linecap:round;stroke-linejoin:round;stroke-miterlimit:10;" width="15.768" height="15.768"/>
			<g>
				<path style="fill:#FFFFFF;" d="M212.833,199.69h-2.672v-0.695h6.149v0.695h-2.672v6.91h-0.804V199.69z"/>
				<path style="fill:#FFFFFF;" d="M221.984,204.568h-4.237l-0.913,2.032h-0.837l3.477-7.605h0.793l3.477,7.605h-0.848
					L221.984,204.568z M221.691,203.917l-1.825-4.085l-1.825,4.085H221.691z"/>
				<path style="fill:#FFFFFF;" d="M224.281,205.677l0.315-0.62c0.543,0.533,1.51,0.924,2.51,0.924c1.423,0,2.042-0.598,2.042-1.347
					c0-2.086-4.683-0.804-4.683-3.618c0-1.119,0.869-2.086,2.803-2.086c0.858,0,1.749,0.249,2.357,0.673l-0.271,0.641
					c-0.652-0.424-1.413-0.63-2.086-0.63c-1.391,0-2.01,0.62-2.01,1.38c0,2.086,4.683,0.826,4.683,3.596
					c0,1.119-0.891,2.075-2.835,2.075C225.965,206.665,224.846,206.263,224.281,205.677z"/>
				<path style="fill:#FFFFFF;" d="M234.052,203.026l-1.554,1.575v1.999h-0.804v-7.605h0.804v4.596l4.465-4.596h0.923l-3.292,3.444
					l3.52,4.161h-0.956L234.052,203.026z"/>
				<path style="fill:#FFFFFF;" d="M241.597,202.797c0-2.422,1.271-3.867,3.031-3.867c1.76,0,3.042,1.445,3.042,3.867
					c0,2.423-1.282,3.868-3.042,3.868C242.868,206.665,241.597,205.22,241.597,202.797z M246.866,202.797
					c0-2.031-0.913-3.15-2.238-3.15c-1.326,0-2.238,1.119-2.238,3.15c0,2.032,0.913,3.151,2.238,3.151
					C245.954,205.948,246.866,204.829,246.866,202.797z"/>
				<path style="fill:#FFFFFF;" d="M250.879,198.995v7.605h-0.782v-6.91h-1.793v-0.695H250.879z"/>
			</g>
			<g>
				<rect x="349.99" y="196.818" style="fill:none;stroke:#FFFFFF;stroke-miterlimit:10;" width="7.645" height="10.392"/>
				<line style="fill:none;stroke:#FFFFFF;stroke-miterlimit:10;" x1="360.143" y1="198.609" x2="355.007" y2="203.865"/>
			</g>
		</g>
		<g>
			<path style="opacity:0.6;fill:#407BFF;" d="M364.553,240.803H205.945c-1.045,0-1.891-0.847-1.891-1.892v-16.774
				c0-1.045,0.847-1.892,1.891-1.892h158.608c1.045,0,1.892,0.847,1.892,1.892v16.774
				C366.445,239.956,365.598,240.803,364.553,240.803z"/>
			
				<rect x="178.73" y="223.302" style="opacity:0.6;fill:#FFFFFF;stroke:#407BFF;stroke-linecap:round;stroke-linejoin:round;stroke-miterlimit:10;" width="15.768" height="15.768"/>
			<g>
				<path style="fill:#FFFFFF;" d="M212.833,227.967h-2.672v-0.695h6.149v0.695h-2.672v6.909h-0.804V227.967z"/>
				<path style="fill:#FFFFFF;" d="M221.984,232.845h-4.237l-0.913,2.031h-0.837l3.477-7.605h0.793l3.477,7.605h-0.848
					L221.984,232.845z M221.691,232.192l-1.825-4.085l-1.825,4.085H221.691z"/>
				<path style="fill:#FFFFFF;" d="M224.281,233.953l0.315-0.62c0.543,0.533,1.51,0.924,2.51,0.924c1.423,0,2.042-0.598,2.042-1.347
					c0-2.086-4.683-0.805-4.683-3.618c0-1.119,0.869-2.086,2.803-2.086c0.858,0,1.749,0.25,2.357,0.673l-0.271,0.641
					c-0.652-0.424-1.413-0.63-2.086-0.63c-1.391,0-2.01,0.62-2.01,1.38c0,2.086,4.683,0.826,4.683,3.596
					c0,1.119-0.891,2.075-2.835,2.075C225.965,234.941,224.846,234.539,224.281,233.953z"/>
				<path style="fill:#FFFFFF;" d="M234.052,231.302l-1.554,1.575v1.999h-0.804v-7.605h0.804v4.596l4.465-4.596h0.923l-3.292,3.444
					l3.52,4.161h-0.956L234.052,231.302z"/>
				<path style="fill:#FFFFFF;" d="M241.597,231.073c0-2.422,1.271-3.867,3.031-3.867c1.76,0,3.042,1.445,3.042,3.867
					c0,2.423-1.282,3.868-3.042,3.868C242.868,234.941,241.597,233.496,241.597,231.073z M246.866,231.073
					c0-2.031-0.913-3.15-2.238-3.15c-1.326,0-2.238,1.119-2.238,3.15c0,2.032,0.913,3.151,2.238,3.151
					C245.954,234.225,246.866,233.105,246.866,231.073z"/>
				<path style="fill:#FFFFFF;" d="M253.964,234.181v0.695h-5.334v-0.554l3.161-3.097c0.858-0.847,1.021-1.357,1.021-1.879
					c0-0.88-0.619-1.423-1.782-1.423c-0.891,0-1.575,0.271-2.075,0.848l-0.554-0.479c0.587-0.695,1.532-1.086,2.694-1.086
					c1.543,0,2.52,0.782,2.52,2.053c0,0.728-0.228,1.379-1.249,2.379l-2.586,2.542H253.964z"/>
			</g>
			<g>
				<rect x="350.478" y="225.094" style="fill:none;stroke:#FFFFFF;stroke-miterlimit:10;" width="7.645" height="10.392"/>
				<line style="fill:none;stroke:#FFFFFF;stroke-miterlimit:10;" x1="360.631" y1="226.886" x2="355.495" y2="232.142"/>
			</g>
		</g>
		<g>
			<path style="opacity:0.6;fill:#407BFF;" d="M365.041,269.08H206.433c-1.045,0-1.892-0.847-1.892-1.892v-16.774
				c0-1.045,0.847-1.892,1.892-1.892h158.607c1.045,0,1.892,0.847,1.892,1.892v16.774
				C366.932,268.233,366.086,269.08,365.041,269.08z"/>
			
				<rect x="179.218" y="251.579" style="opacity:0.6;fill:#FFFFFF;stroke:#407BFF;stroke-linecap:round;stroke-linejoin:round;stroke-miterlimit:10;" width="15.768" height="15.768"/>
			<g>
				<path style="fill:#FFFFFF;" d="M212.833,256.242h-2.673v-0.695h6.15v0.695h-2.673v6.91h-0.804V256.242z"/>
				<path style="fill:#FFFFFF;" d="M221.984,261.121h-4.237l-0.913,2.031h-0.837l3.477-7.605h0.793l3.477,7.605h-0.848
					L221.984,261.121z M221.691,260.469l-1.825-4.085l-1.825,4.085H221.691z"/>
				<path style="fill:#FFFFFF;" d="M224.281,262.228l0.315-0.619c0.544,0.532,1.51,0.924,2.51,0.924
					c1.423,0,2.042-0.598,2.042-1.348c0-2.086-4.683-0.804-4.683-3.617c0-1.119,0.869-2.086,2.803-2.086
					c0.858,0,1.749,0.25,2.358,0.674l-0.272,0.641c-0.651-0.424-1.412-0.63-2.086-0.63c-1.391,0-2.01,0.619-2.01,1.38
					c0,2.086,4.683,0.825,4.683,3.596c0,1.119-0.891,2.075-2.835,2.075C225.964,263.218,224.846,262.815,224.281,262.228z"/>
				<path style="fill:#FFFFFF;" d="M234.051,259.578l-1.554,1.575v1.999h-0.804v-7.605h0.804v4.596l4.465-4.596h0.923l-3.292,3.444
					l3.52,4.161h-0.956L234.051,259.578z"/>
				<path style="fill:#FFFFFF;" d="M241.597,259.35c0-2.423,1.271-3.867,3.031-3.867c1.76,0,3.042,1.444,3.042,3.867
					c0,2.423-1.282,3.868-3.042,3.868C242.868,263.218,241.597,261.772,241.597,259.35z M246.866,259.35
					c0-2.031-0.913-3.15-2.238-3.15c-1.326,0-2.238,1.119-2.238,3.15c0,2.032,0.913,3.15,2.238,3.15
					C245.953,262.5,246.866,261.382,246.866,259.35z"/>
				<path style="fill:#FFFFFF;" d="M253.714,260.969c0,1.271-0.923,2.249-2.76,2.249c-1.097,0-2.151-0.381-2.738-0.978l0.38-0.62
					c0.489,0.511,1.369,0.88,2.357,0.88c1.26,0,1.956-0.586,1.956-1.531c0-0.913-0.641-1.51-2.053-1.51h-0.543v-0.576l2.108-2.641
					h-3.889v-0.695h4.889v0.555l-2.151,2.705C252.899,258.894,253.714,259.752,253.714,260.969z"/>
			</g>
			<g>
				<rect x="350.966" y="253.371" style="fill:none;stroke:#FFFFFF;stroke-miterlimit:10;" width="7.645" height="10.392"/>
				<line style="fill:none;stroke:#FFFFFF;stroke-miterlimit:10;" x1="361.119" y1="255.163" x2="355.983" y2="260.418"/>
			</g>
		</g>
		<g>
			<path style="opacity:0.6;fill:#407BFF;" d="M365.529,297.356H206.921c-1.045,0-1.892-0.847-1.892-1.892v-16.774
				c0-1.045,0.847-1.892,1.892-1.892h158.608c1.045,0,1.892,0.847,1.892,1.892v16.774
				C367.42,296.51,366.573,297.356,365.529,297.356z"/>
			
				<rect x="179.706" y="279.855" style="opacity:0.6;fill:#FFFFFF;stroke:#407BFF;stroke-linecap:round;stroke-linejoin:round;stroke-miterlimit:10;" width="15.768" height="15.768"/>
			<g>
				<path style="fill:#FFFFFF;" d="M212.833,284.52h-2.673v-0.695h6.15v0.695h-2.673v6.909h-0.804V284.52z"/>
				<path style="fill:#FFFFFF;" d="M221.984,289.397h-4.237l-0.913,2.031h-0.837l3.477-7.605h0.793l3.477,7.605h-0.848
					L221.984,289.397z M221.691,288.745l-1.825-4.085l-1.825,4.085H221.691z"/>
				<path style="fill:#FFFFFF;" d="M224.281,290.505l0.315-0.619c0.544,0.532,1.51,0.924,2.51,0.924
					c1.423,0,2.042-0.598,2.042-1.348c0-2.086-4.683-0.804-4.683-3.617c0-1.119,0.869-2.086,2.803-2.086
					c0.858,0,1.749,0.25,2.358,0.673l-0.272,0.642c-0.651-0.424-1.412-0.63-2.086-0.63c-1.391,0-2.01,0.619-2.01,1.379
					c0,2.086,4.683,0.826,4.683,3.597c0,1.119-0.891,2.075-2.835,2.075C225.964,291.494,224.846,291.092,224.281,290.505z"/>
				<path style="fill:#FFFFFF;" d="M234.051,287.854l-1.554,1.575v1.999h-0.804v-7.605h0.804v4.595l4.465-4.595h0.923l-3.292,3.443
					l3.52,4.161h-0.956L234.051,287.854z"/>
				<path style="fill:#FFFFFF;" d="M241.597,287.626c0-2.423,1.271-3.867,3.031-3.867c1.76,0,3.042,1.444,3.042,3.867
					c0,2.423-1.282,3.868-3.042,3.868C242.868,291.494,241.597,290.049,241.597,287.626z M246.866,287.626
					c0-2.031-0.913-3.15-2.238-3.15c-1.326,0-2.238,1.119-2.238,3.15c0,2.032,0.913,3.151,2.238,3.151
					C245.953,290.777,246.866,289.658,246.866,287.626z"/>
				<path style="fill:#FFFFFF;" d="M255.257,289.43h-1.521v1.999h-0.782v-1.999h-4.292v-0.564l4.031-5.041h0.869l-3.89,4.91h3.303
					v-1.76h0.761v1.76h1.521V289.43z"/>
			</g>
			<g>
				<rect x="351.453" y="281.647" style="fill:none;stroke:#FFFFFF;stroke-miterlimit:10;" width="7.645" height="10.392"/>
				<line style="fill:none;stroke:#FFFFFF;stroke-miterlimit:10;" x1="361.607" y1="283.439" x2="356.47" y2="288.695"/>
			</g>
		</g>
		<g>
			<path style="opacity:0.6;fill:#407BFF;" d="M366.016,325.633H207.409c-1.045,0-1.892-0.847-1.892-1.892v-16.774
				c0-1.045,0.847-1.892,1.892-1.892h158.607c1.045,0,1.892,0.847,1.892,1.892v16.774
				C367.908,324.786,367.061,325.633,366.016,325.633z"/>
			
				<rect x="180.193" y="308.132" style="opacity:0.6;fill:#FFFFFF;stroke:#407BFF;stroke-linecap:round;stroke-linejoin:round;stroke-miterlimit:10;" width="15.768" height="15.768"/>
			<g>
				<path style="fill:#FFFFFF;" d="M212.833,312.795h-2.673V312.1h6.15v0.695h-2.673v6.91h-0.804V312.795z"/>
				<path style="fill:#FFFFFF;" d="M221.984,317.674h-4.237l-0.913,2.031h-0.837l3.477-7.605h0.793l3.477,7.605h-0.848
					L221.984,317.674z M221.691,317.022l-1.825-4.085l-1.825,4.085H221.691z"/>
				<path style="fill:#FFFFFF;" d="M224.281,318.781l0.315-0.619c0.544,0.532,1.51,0.924,2.51,0.924
					c1.423,0,2.042-0.598,2.042-1.348c0-2.086-4.683-0.804-4.683-3.617c0-1.119,0.869-2.086,2.803-2.086
					c0.858,0,1.749,0.25,2.358,0.674l-0.272,0.641c-0.651-0.424-1.412-0.63-2.086-0.63c-1.391,0-2.01,0.619-2.01,1.38
					c0,2.086,4.683,0.825,4.683,3.596c0,1.119-0.891,2.075-2.835,2.075C225.964,319.771,224.846,319.368,224.281,318.781z"/>
				<path style="fill:#FFFFFF;" d="M234.051,316.131l-1.554,1.575v1.999h-0.804V312.1h0.804v4.596l4.465-4.596h0.923l-3.292,3.444
					l3.52,4.161h-0.956L234.051,316.131z"/>
				<path style="fill:#FFFFFF;" d="M241.597,315.902c0-2.423,1.271-3.867,3.031-3.867c1.76,0,3.042,1.444,3.042,3.867
					c0,2.423-1.282,3.868-3.042,3.868C242.868,319.771,241.597,318.325,241.597,315.902z M246.866,315.902
					c0-2.031-0.913-3.15-2.238-3.15c-1.326,0-2.238,1.119-2.238,3.15c0,2.032,0.913,3.15,2.238,3.15
					C245.953,319.053,246.866,317.935,246.866,315.902z"/>
				<path style="fill:#FFFFFF;" d="M253.953,317.467c0,1.293-0.902,2.304-2.76,2.304c-1.097,0-2.14-0.381-2.727-0.978l0.38-0.62
					c0.489,0.511,1.358,0.88,2.336,0.88c1.293,0,1.977-0.63,1.977-1.553c0-0.978-0.608-1.587-2.542-1.587h-1.619l0.391-3.813h4.161
					v0.695h-3.477l-0.261,2.423h0.978C253.084,315.218,253.953,316.12,253.953,317.467z"/>
			</g>
			<g>
				<rect x="351.941" y="309.924" style="fill:none;stroke:#FFFFFF;stroke-miterlimit:10;" width="7.645" height="10.392"/>
				<line style="fill:none;stroke:#FFFFFF;stroke-miterlimit:10;" x1="362.095" y1="311.716" x2="356.958" y2="316.971"/>
			</g>
		</g>
		<path style="fill:#FFFFFF;" d="M355.743,171.258h-69.885c-5.245,0-9.497-4.252-9.497-9.497v0c0-5.245,4.252-9.497,9.497-9.497
			h69.885c5.245,0,9.497,4.252,9.497,9.497v0C365.24,167.006,360.988,171.258,355.743,171.258z"/>
		<g>
			<path style="fill:none;stroke:#407BFF;stroke-linecap:round;stroke-linejoin:round;stroke-miterlimit:10;" d="M354.232,158.757
				c1.12,1.12,1.12,2.935,0,4.054s-2.935,1.12-4.054,0c-1.12-1.12-1.12-2.935,0-4.054
				C351.298,157.637,353.113,157.637,354.232,158.757z"/>
			
				<line style="fill:none;stroke:#407BFF;stroke-linecap:round;stroke-linejoin:round;stroke-miterlimit:10;" x1="354.232" y1="162.811" x2="358.287" y2="166.865"/>
		</g>
	</g>
</g>
<g id="Plant">
	<g>
		<path style="fill:#407BFF;" d="M391.942,392.638c0,0-4.953-10.806,0.706-21.459c5.659-10.653,7.299-13.162,3.692-15.345
			c-3.607-2.182-5.262,8.522-5.262,8.522s-3.041-7.364-0.53-15.071c2.511-7.707,4.085-20.259,0.656-21.606
			c-3.429-1.347-0.655,15.659-3.63,21.456c0,0-2.499-6.453-2.91-12.643c-0.411-6.19,0.231-16.075-2.477-18.61
			c-2.708-2.535-4.442-0.781-1.781,12.879c2.661,13.661,2.641,24.765,2.641,24.765s-5.877-17.92-9.822-18.442
			c-3.944-0.523-3.939,5.281-0.563,10.314c3.376,5.033,9.888,14.051,10.956,18.69c0,0-6.451-13.485-12.254-9.352
			c-5.803,4.133,5.051,12.278,9.889,15.222c4.838,2.943,8.197,21.393,8.197,21.393L391.942,392.638z"/>
		<path style="opacity:0.2;enable-background:new    ;" d="M391.942,392.638c0,0-4.953-10.806,0.706-21.459
			c5.659-10.653,7.299-13.162,3.692-15.345c-3.607-2.182-5.262,8.522-5.262,8.522s-3.041-7.364-0.53-15.071
			c2.511-7.707,4.085-20.259,0.656-21.606c-3.429-1.347-0.655,15.659-3.63,21.456c0,0-2.499-6.453-2.91-12.643
			c-0.411-6.19,0.231-16.075-2.477-18.61c-2.708-2.535-4.442-0.781-1.781,12.879c2.661,13.661,2.641,24.765,2.641,24.765
			s-5.877-17.92-9.822-18.442c-3.944-0.523-3.939,5.281-0.563,10.314c3.376,5.033,9.888,14.051,10.956,18.69
			c0,0-6.451-13.485-12.254-9.352c-5.803,4.133,5.051,12.278,9.889,15.222c4.838,2.943,8.197,21.393,8.197,21.393L391.942,392.638z"
			/>
		<path style="fill:#407BFF;" d="M388.032,397.07c0,0,4.823-10.879-0.964-21.447c-5.786-10.568-7.456-13.052-3.875-15.288
			c3.581-2.236,5.364,8.443,5.364,8.443s2.952-7.409,0.349-15.078c-2.603-7.669-4.328-20.197-0.915-21.594
			c3.412-1.398,0.842,15.648,3.887,21.4c0,0,2.421-6.49,2.758-12.686c0.337-6.196-0.424-16.07,2.253-18.645
			c2.677-2.576,4.433-0.848,1.936,12.852c-2.497,13.699-2.344,24.802-2.344,24.802s5.662-18.006,9.599-18.587
			c3.938-0.581,4.003,5.221,0.687,10.305c-3.316,5.084-9.718,14.197-10.73,18.852c0,0,6.289-13.58,12.141-9.534
			c5.852,4.046-4.903,12.353-9.705,15.368c-4.802,3.015-7.94,21.513-7.94,21.513L388.032,397.07z"/>
		<g>
			<polygon style="fill:#263238;" points="410.276,389.314 370.435,389.314 373.66,417.825 407.051,417.825 			"/>
		</g>
	</g>
</g>
<g id="Character">
	<g>
		<path style="fill:#B97964;" d="M99.557,392.726l4.83,2.84c0,0,2.34-3.33,7.34-8.7v-0.01c1.4-1.48,2.87-3.12,4.4-4.88
			c3.06-3.51,6.37-7.52,9.84-11.83c1.02-1.27,2.06-2.57,3.11-3.89c12.09-15.21,25.16-33.09,30.05-45.18
			c1.52-3.76,2.26-6.95,1.93-9.34c-0.99-7.22-3.8-18.09-7.01-28.59c-4.88-16.05-10.37-31.26-10.37-31.26l-13.49,22.85
			c0,0,4.14,9.87,7.91,20.38c3.71,10.32,7.06,21.27,5.82,24.12c-0.12,0.28-0.27,0.61-0.44,0.96c-2.24,4.64-8.44,15.15-15.48,26.76
			c-0.71,1.17-1.43,2.35-2.15,3.53c-3.78,6.2-7.71,12.57-11.35,18.42c-1.42,2.3-2.8,4.52-4.11,6.62
			C104.187,385.496,99.557,392.726,99.557,392.726z"/>
		<path style="opacity:0.2;enable-background:new    ;" d="M129.352,366.256c-6.38,8.02-12.51,15.3-17.07,20.6
			c-0.65-3.26-1.31-7.12-1.83-11.33c5.27-8.46,11.72-18.9,17.58-28.57C127.981,352.076,128.171,359.646,129.352,366.256z"/>
		<path style="fill:#B97964;" d="M105.277,300.136c1.67,11.39,4.05,21.71,5.6,27.86c0.93,3.69,1.56,5.87,1.56,5.87
			c-0.09,11.49,0.83,23.8,2.06,35.04c0.51,4.58,1.06,8.98,1.63,13.07c2.1,15.14,4.31,26.01,4.31,26.01l5.75-0.75l-0.22-37.09
			l-0.12-19.66l-0.16-26.75l-0.06-4.66l-0.28-20.34l-0.41-30l-20-9C102.257,271.136,103.257,286.416,105.277,300.136z"/>
		<path style="opacity:0.2;enable-background:new    ;" d="M158.796,300.322c-5.11,3.53-12.01,5.65-16.73,6.79
			c-1.09-3.73-2.5-7.92-3.97-12c-3.77-10.51-7.91-20.38-7.91-20.38l13.49-22.85c0,0,5.49,15.21,10.37,31.26
			C155.836,288.982,157.496,294.942,158.796,300.322z"/>
		<path style="opacity:0.2;enable-background:new    ;" d="M125.516,311.322c-7.49-0.2-13.62-0.7-18.59-1.34
			c-0.58-3.13-1.15-6.44-1.65-9.85c-2.02-13.72-3.02-29-0.34-40.4l20,9l0.41,30L125.516,311.322z"/>
		<path style="fill:#263238;" d="M159.763,298.335c-12.51,7.35-49.307,10.468-49.307,10.468l-6.02-16.92l0.656,16.736h-1.783
			c0,0-13.448-45.494,4.417-75.316l32-2.47l3.5,16.48C143.226,247.312,152.243,270.935,159.763,298.335z"/>
		<path style="fill:#2E353A;" d="M136.3,415.355c-0.944-0.565-1.984-0.953-3.068-1.145l0,0c0,0-3.534-2.633-6.338-11.674
			l-4.206-0.482c-1.459-0.142-2.851,0.643-3.485,1.964c-0.089,0.18-0.151,0.372-0.183,0.57c-0.068,1.021-0.07,2.046-0.006,3.068
			c0.036,3.189,1.384,10.168,1.384,10.168l0.733-0.104l-0.614-6.42c-0.199-2.18,1.819,0.124,2.624,2.389
			c0.806,2.264,2.165,4.603,6.929,4.046C135.624,417.057,137.891,416.514,136.3,415.355z"/>
		<path style="fill:#263238;" d="M118.147,141.872c0,0,7.996-4.445,14.517-1.137c3.005,1.525,4.062,5.412,4.696,8.443
			c0.885,4.237,1.025,8.586,1.628,12.864c0.255,1.808,0.698,3.573,1.533,5.207c1.11,2.172,3.375,4.344,2.925,6.997
			c-0.398,2.348-2.795,3.754-4.886,4.397c-5.549,1.705-11.828,0.76-17.562,1.123c-4.614,0.292-9.065,1.848-13.691,1.96
			c-1.313,0.032-2.686-0.081-3.813-0.755c-4.454-2.66-2.513-9.503-1.069-13.299c1.22-3.209,0.32-6.535,0.713-9.904
			c0.344-2.948,0.925-5.925,2.084-8.671C107.534,143.615,112.174,140.71,118.147,141.872z"/>
		<path style="fill:#B97964;" d="M125.732,399.329c0,0,1.5,4.094,3.5,8.594c2,4.5,4,6.287,4,6.287s-3.474,1.128-5.349-1.05
			c-1.875-2.178-5.082-10.045-8.679-9.141c0,0,0.263-0.939,0.802-1.83C120.545,401.298,125.732,399.329,125.732,399.329z"/>
		<path style="fill:#2E353A;" d="M101.065,411.799c-0.202-1.082-0.601-2.118-1.176-3.056l0,0c0,0-0.37-4.392,4.542-12.482
			l-2.426-3.469c-0.861-1.186-2.371-1.709-3.78-1.308c-0.194,0.052-0.378,0.133-0.548,0.241c-0.81,0.626-1.579,1.303-2.301,2.028
			c-2.364,2.141-6.698,7.775-6.698,7.775l0.563,0.48l4.401-4.715c1.501-1.594,1.112,1.444-0.05,3.548
			c-1.162,2.104-2.012,4.672,1.562,7.87C99.343,412.421,101.252,413.759,101.065,411.799z"/>
		<path style="fill:#B97964;" d="M106.064,393.265c0,0-2.072,3.837-4.117,8.317c-2.045,4.48-2.057,7.162-2.057,7.162
			s-3.147-1.854-2.758-4.702c0.389-2.848,4.154-10.463,1.094-12.557c0,0,0.878-0.425,1.902-0.612
			C101.151,390.685,106.064,393.265,106.064,393.265z"/>
		<g>
			<g>
				<polygon style="fill:#263238;" points="107.439,230.03 107.257,234.858 140.329,233.573 140.544,227.863 				"/>
				<polygon style="opacity:0.2;fill:#FFFFFF;enable-background:new    ;" points="107.439,230.03 107.257,234.858 140.329,233.573 
					140.544,227.863 				"/>
			</g>
			
				<rect x="117.003" y="228.428" transform="matrix(0.9999 -0.0134 0.0134 0.9999 -3.0978 1.5952)" style="fill:#263238;" width="1.639" height="8.348"/>
			
				<rect x="137.232" y="226.975" transform="matrix(0.9999 -0.0133 0.0133 0.9999 -3.0627 1.8569)" style="fill:#263238;" width="1.639" height="8.348"/>
			<g>
				<path style="fill:#FFFFFF;" d="M132.393,228.731c-0.396-0.368-0.93-0.56-1.474-0.514l-3.906,0.308
					c-1.011,0.08-1.78,0.905-1.787,1.919l-0.019,2.493c-0.004,0.542,0.222,1.065,0.619,1.434c0.356,0.331,0.825,0.516,1.308,0.52
					c0.057,0,0.113-0.002,0.169-0.007l3.906-0.316c1.009-0.081,1.775-0.906,1.783-1.918l0.019-2.485
					C133.014,229.623,132.789,229.101,132.393,228.731z M131.128,233.572l-3.906,0.316c-0.268,0.023-0.521-0.066-0.716-0.249
					c-0.195-0.181-0.302-0.428-0.299-0.695l0.019-2.493c0.004-0.491,0.376-0.891,0.866-0.93l3.906-0.308
					c0.028-0.002,0.056-0.003,0.083-0.003c0.235,0.002,0.456,0.09,0.631,0.253c0.195,0.181,0.301,0.428,0.299,0.695l-0.003,0.378
					c-0.051-0.009-0.1-0.024-0.153-0.02l-1.094,0.076c-0.364,0.025-0.641,0.344-0.616,0.708c0.025,0.364,0.344,0.641,0.708,0.616
					l1.094-0.076c0.019-0.001,0.033-0.012,0.051-0.014l-0.006,0.818C131.988,233.133,131.617,233.533,131.128,233.572z"/>
			</g>
		</g>
		<g>
			<path style="fill:#407BFF;" d="M98.454,187.743c0.711,1.808,0.421,2.498,1.006,4.118c0.648,1.735,1.244,3.366,1.777,4.913
				c1.286,3.638,2.289,6.784,3.094,9.575c2.467,8.624,2.885,25.202,2.885,25.202l33.277-2.328
				c2.309-30.846-2.984-46.079-2.984-46.079s-0.836-0.073-2.174-0.167c-2.54-0.178-6.899-0.439-10.871-0.408
				c-4.704,0.146-9.377,0.596-14.007,1.327C107.31,184.366,102.272,185.187,98.454,187.743z"/>
			<path style="opacity:0.2;enable-background:new    ;" d="M130.868,210.014c0,0-12.675,14.937-23.682,20.582
				c-0.136-3.633-0.745-16.857-2.853-24.245c-0.571-1.994-1.248-4.171-2.06-6.573l-0.811-6.316c0,0,4.37,6.976,5.011,13.079
				c0,0,14.637-0.975,23.346-6.092L130.868,210.014z"/>
		</g>
		<g>
			<path style="fill:#EEC1BB;" d="M123.425,189.129c-7.807-1.405-9.997-4.883-9.997-4.883c5.225-4.45,1.498-12.813,1.498-12.813
				l9.368,2.248c-0.328,1.55-0.501,2.856-0.572,3.963c-0.364,5.737,2.229,5.925,2.229,5.925
				C127.453,186.764,123.425,189.129,123.425,189.129z"/>
			<path style="opacity:0.2;enable-background:new    ;" d="M124.294,173.681c-0.328,1.55-0.501,2.856-0.572,3.963
				c-4.506-1.289-8.796-6.211-8.796-6.211L124.294,173.681z"/>
		</g>
		<g>
			<path style="fill:#EEC1BB;" d="M123.601,146.868c8.212,0.739,10.459,5.373,10.3,13.889c-0.199,10.643-3.22,17.946-13.284,14.763
				C106.948,171.199,109.963,145.641,123.601,146.868z"/>
			<path style="fill:#D4827D;" d="M128.633,159.82c0,0,0.945,2.247,2.083,3.621c0,0-0.803,1.054-2.248,0.734L128.633,159.82z"/>
			<g>
				<path style="fill:#263238;" d="M123.668,158.697c-0.045,0.676-0.447,1.2-0.897,1.17c-0.451-0.03-0.78-0.602-0.735-1.278
					c0.045-0.676,0.447-1.2,0.897-1.17C123.384,157.449,123.713,158.021,123.668,158.697z"/>
				<path style="fill:#263238;" d="M122.743,157.439l1.508-0.479C124.251,156.96,123.437,158.148,122.743,157.439z"/>
			</g>
			<g>
				<path style="fill:#263238;" d="M132.08,159.114c-0.045,0.676-0.447,1.2-0.897,1.17c-0.451-0.03-0.78-0.602-0.735-1.278
					c0.045-0.676,0.447-1.2,0.897-1.17C131.796,157.866,132.125,158.438,132.08,159.114z"/>
				<path style="fill:#263238;" d="M131.156,157.856l1.508-0.479C132.664,157.377,131.85,158.566,131.156,157.856z"/>
			</g>
			
				<path style="fill:none;stroke:#263238;stroke-width:0.7247;stroke-linecap:round;stroke-linejoin:round;stroke-miterlimit:10;" d="
				M124.095,153.019c0,0-2.281-0.507-3.673,0.921"/>
			
				<path style="fill:none;stroke:#263238;stroke-width:0.7247;stroke-linecap:round;stroke-linejoin:round;stroke-miterlimit:10;" d="
				M130.095,153.209c0,0,1.499-0.407,3.212,0.969"/>
			<path style="fill:#263238;" d="M113.381,159.901c0,0,4.446-6.402,4.333-11.663c0,0,16.871-5.184,16.188,11.405
				c0,0,2.909-14.524-11.178-16.12c-14.065-1.594-15.884,19.061-9.148,25.87C113.577,169.393,110.626,163.907,113.381,159.901z"/>
			<path style="fill:#EEC1BB;" d="M114.566,161.755c0.064-1.327-1.099-3.688-3.582-3.641c-2.57,0.049-4.252,5.164,1.964,6.989
				C113.841,165.365,114.433,164.524,114.566,161.755z"/>
			
				<path style="fill:none;stroke:#263238;stroke-width:0.708;stroke-linecap:round;stroke-linejoin:round;stroke-miterlimit:10;" d="
				M127.905,167.632c0,0-3.45,0.28-4.408-2.902"/>
		</g>
		<g>
			<path style="fill:#407BFF;" d="M115.418,180.281l7.325,5.607l2.169-6.042l3.556,2.774l3.231,0.842
				c1.111,0.29,1.692,1.516,1.205,2.557c-1.692,3.618-5.462,10.875-8.538,11.029c-3.167,0.158-13.498-6.952-18.042-10.202
				c-0.837-0.599-0.555-1.906,0.454-2.108l5.77-1.152L115.418,180.281z"/>
			<path style="opacity:0.6;fill:#FFFFFF;" d="M115.418,180.281l7.325,5.607l2.169-6.042l3.556,2.774l3.231,0.842
				c1.111,0.29,1.692,1.516,1.205,2.557c-1.692,3.618-5.462,10.875-8.538,11.029c-3.167,0.158-13.498-6.952-18.042-10.202
				c-0.837-0.599-0.555-1.906,0.454-2.108l5.77-1.152L115.418,180.281z"/>
			<polygon style="opacity:0.3;fill:#FFFFFF;" points="112.548,183.585 117.4,190.527 122.743,186.606 127.905,189.129 
				128.468,182.62 124.912,179.846 122.743,185.888 115.418,180.281 			"/>
		</g>
		<polygon style="fill:#EEC1BB;" points="122.974,205.565 125.414,208.569 109.301,214.462 109.527,209.291 		"/>
		<path style="fill:none;stroke:#263238;stroke-width:0.708;stroke-linecap:round;stroke-linejoin:round;stroke-miterlimit:10;" d="
			M117.714,148.238c0,0,13.313-2.884,14.95,9.875"/>
		<g>
			<path style="fill:#407BFF;" d="M101.359,186.285c-5.967-0.206-22.482,25.133-16.833,34.141c5.649,9.008,29.071-5.02,29.071-5.02
				l-1.992-7.59c0,0-14.432,2.896-15.213,1.482c-0.781-1.414,4.999-8.78,4.999-8.78s2.73-1.694,1.9-7.149
				C102.461,187.914,101.359,186.285,101.359,186.285z"/>
		</g>
		<polygon style="fill:#407BFF;" points="112.688,217.295 114.566,217.216 113.498,206.541 110.957,206.565 		"/>
		<polygon style="fill:#EEC1BB;" points="199.058,171.409 202.246,173.604 188.445,183.799 187.205,178.773 		"/>
		<path style="fill:#EEC1BB;" d="M210.654,168.133c-0.796-0.898-5.474-4.125-6.471-3.562c-0.997,0.563-4.622,6.38-5.741,6.995
			c-0.136,0.075,2.088,4.107,2.088,4.107s2.127,0.137,2.99-0.095C204.385,175.347,211.45,169.031,210.654,168.133z"/>
		<path style="fill:#407BFF;" d="M137.509,183.143c18.15,1.242,29.755,1.823,36.348-0.577c6.593-2.401,18.757-7.837,18.757-7.837
			l3.49,6.753c0,0-21.629,11.286-25.499,11.71c-3.869,0.424-31.561,3.856-31.561,3.856L137.509,183.143z"/>
		<g>
			<path style="fill:#263238;" d="M126.746,211.379c-0.113,0.498,0.21,0.947,0.721,1.003l9.086,0.991
				c0.511,0.056,1.016-0.303,1.128-0.801l3.985-17.711c0.112-0.498-0.197-1.071-0.708-1.127l-9.086-0.991
				c-0.511-0.056-1.029,0.427-1.142,0.925L126.746,211.379z"/>
			<path style="opacity:0.5;fill:#FFFFFF;" d="M131.752,193.661l-4.031,17.881c-0.114,0.504,0.114,0.88,0.621,0.935l7.704,0.84
				c0.517,0.056,1.495-0.125,1.609-0.629l4.038-17.943c0.114-0.504-0.724-1.009-1.24-1.066l-7.704-0.84
				C132.241,192.784,131.865,193.157,131.752,193.661z"/>
		</g>
		<path style="fill:#EEC1BB;" d="M135.024,205.69c-0.511-1.085-4.089-5.5-5.205-5.241c-1.115,0.259-6.233,4.819-7.479,5.094
			c-0.151,0.033,0.846,4.53,0.846,4.53s2.002,0.73,2.896,0.752C126.976,210.845,135.534,206.775,135.024,205.69z"/>
		<polygon style="opacity:0.6;fill:#FFFFFF;" points="112.688,217.295 114.566,217.216 113.498,206.541 110.957,206.565 		"/>
		<polygon style="fill:#407BFF;" points="196.623,183.585 198.234,182.617 192.189,173.754 189.969,174.992 		"/>
		<polygon style="opacity:0.6;fill:#FFFFFF;" points="196.623,183.585 198.234,182.617 192.189,173.754 189.969,174.992 		"/>
	</g>
</g>
</svg>
