<?xml version="1.0" encoding="utf-8"?>
<!-- Generator: Adobe Illustrator 27.5.0, SVG Export Plug-In . SVG Version: 6.00 Build 0)  -->
<svg version="1.1" xmlns="http://www.w3.org/2000/svg" xmlns:xlink="http://www.w3.org/1999/xlink" x="0px" y="0px"
	 viewBox="0 0 500 500" style="enable-background:new 0 0 500 500;" xml:space="preserve">
<g id="BACKGROUND">
	<rect id="XMLID_133_" style="fill:#FFFFFF;" width="500" height="500"/>
</g>
<g id="OBJECTS">
	<g id="XMLID_183_">
		<g id="XMLID_182_">
			<path id="XMLID_131_" style="fill:#FDEEEB;" d="M409.101,413.184c31.74-41.41,55.59-90.32,59.76-142.33
				c4.17-52.01-13.41-107.14-52.9-141.24c-39.49-34.1-101.71-42.46-145.05-13.4c-39.4,26.42-59.67,78.22-103.87,95.44
				c-22.28,8.68-47.28,6.96-70.3,13.41c-40.61,11.38-71.87,50.36-74.15,92.47c-2.28,42.11,24.57,84.24,65.81,97.67
				C190.791,412.954,293.181,410.714,409.101,413.184z"/>
			<path id="XMLID_130_" style="fill:#FDEEEB;" d="M226.541,122.934c-10.42,40.89-51.57,71.7-93.74,70.18
				c-22.3-0.81-45.36-10.97-56.47-30.32c-11.11-19.35-6.07-47.95,13.64-58.4c16.93-8.97,38.09-3.02,56.4-8.69
				c17.27-5.35,31.03-20.75,49.05-22.18c10.12-0.8,20.53,3.33,27.34,10.86C229.571,91.924,231.761,102.444,226.541,122.934z"/>
		</g>
		<g id="XMLID_234_">
			<g id="XMLID_213_">
				<path id="XMLID_229_" style="fill:#0088DE;" d="M144.086,239.628l2.289-11.256l-9.149-1.861
					c-0.072-2.905-0.64-5.728-1.635-8.364l7.789-5.156l-6.334-9.582l-7.789,5.156c-2.049-1.948-4.428-3.562-7.074-4.763l1.863-9.16
					l-11.256-2.289l-1.863,9.16c-2.905,0.072-5.726,0.629-8.362,1.624l-5.156-7.789l-9.584,6.345l5.156,7.789
					c-1.945,2.038-3.56,4.417-4.761,7.063l-9.16-1.863l-2.289,11.256l9.16,1.863c0.072,2.905,0.629,5.726,1.622,8.372l-7.789,5.156
					l6.347,9.573l7.789-5.156c2.038,1.945,4.415,3.571,7.061,4.772l-1.861,9.149l11.256,2.289l1.861-9.149
					c2.905-0.072,5.728-0.64,8.375-1.633l5.156,7.789l9.571-6.336l-5.156-7.789c1.947-2.049,3.573-4.425,4.774-7.072
					L144.086,239.628z M108.684,241.361c-7.844-1.595-12.915-9.241-11.317-17.096c1.595-7.844,9.252-12.913,17.096-11.317
					s12.912,9.252,11.317,17.096C124.182,237.899,116.528,242.956,108.684,241.361z"/>
				<path id="XMLID_218_" style="fill:none;stroke:#0088DE;stroke-miterlimit:10;" d="M182.078,277.589l2.609-7.907l-6.427-2.121
					c0.196-2.097,0.028-4.178-0.463-6.16l6.047-3.047l-3.741-7.439l-6.047,3.047c-1.308-1.577-2.883-2.943-4.685-4.033l2.123-6.435
					l-7.907-2.609l-2.123,6.435c-2.097-0.196-4.176-0.036-6.158,0.455l-3.046-6.047l-7.441,3.749l3.047,6.047
					c-1.574,1.301-2.94,2.875-4.03,4.678l-6.435-2.123l-2.609,7.907l6.435,2.123c-0.196,2.097-0.036,4.176,0.452,6.165l-6.047,3.047
					l3.751,7.433l6.047-3.047c1.301,1.574,2.873,2.948,4.675,4.038l-2.121,6.427l7.907,2.609l2.121-6.427
					c2.097,0.196,4.178,0.028,6.168-0.46l3.046,6.047l7.431-3.744l-3.046-6.047c1.577-1.308,2.95-2.881,4.04-4.683L182.078,277.589z
					 M156.446,275.814c-5.51-1.818-8.508-7.755-6.687-13.273c1.818-5.51,7.763-8.505,13.273-6.687
					c5.51,1.818,8.505,7.763,6.687,13.273C167.898,274.645,161.956,277.632,156.446,275.814z"/>
				<path id="XMLID_221_" style="fill:none;stroke:#0088DE;stroke-miterlimit:10;" d="M196.141,226.7l1.011-5.265l-4.28-0.822
					c-0.048-1.355-0.328-2.67-0.806-3.895l3.609-2.447l-3.005-4.44l-3.609,2.447c-0.966-0.899-2.085-1.64-3.326-2.187l0.823-4.285
					l-5.266-1.011l-0.823,4.285c-1.356,0.048-2.669,0.323-3.895,0.801l-2.447-3.609l-4.441,3.01l2.447,3.609
					c-0.898,0.961-1.639,2.08-2.186,3.321l-4.285-0.823l-1.011,5.265l4.285,0.823c0.048,1.356,0.323,2.669,0.8,3.9l-3.609,2.447
					l3.011,4.436l3.609-2.446c0.961,0.897,2.079,1.644,3.32,2.191l-0.822,4.28l5.265,1.011l0.822-4.28
					c1.356-0.048,2.67-0.328,3.901-0.805l2.447,3.609l4.435-3.006l-2.447-3.609c0.899-0.966,1.645-2.084,2.192-3.325L196.141,226.7z
					 M179.626,227.691c-3.669-0.705-6.076-4.247-5.37-7.922c0.705-3.669,4.253-6.074,7.922-5.37c3.669,0.704,6.074,4.253,5.37,7.922
					C186.842,225.995,183.295,228.395,179.626,227.691z"/>
			</g>
			<g id="XMLID_233_">
				<path id="XMLID_224_" style="fill:#0088DE;" d="M477.544,248.234l-0.961-11.944l-9.709,0.781
					c-0.912-2.891-2.298-5.556-4.057-7.911l6.316-7.421l-9.12-7.773l-6.316,7.421c-2.617-1.36-5.469-2.29-8.468-2.729l-0.782-9.721
					l-11.944,0.961l0.782,9.721c-2.891,0.912-5.557,2.286-7.912,4.046l-7.421-6.316l-7.772,9.132l7.421,6.316
					c-1.361,2.605-2.291,5.457-2.729,8.456l-9.721,0.782l0.961,11.944l9.721-0.782c0.912,2.891,2.286,5.557,4.047,7.923
					l-6.316,7.421l9.131,7.76l6.316-7.421c2.605,1.36,5.458,2.303,8.457,2.741l0.781,9.709l11.944-0.961l-0.781-9.709
					c2.891-0.912,5.556-2.298,7.922-4.059l7.421,6.316l7.761-9.119l-7.421-6.316c1.359-2.617,2.302-5.469,2.74-8.469
					L477.544,248.234z M442.56,260.21c-8.324,0.669-15.618-5.528-16.288-13.863c-0.669-8.324,5.54-15.619,13.863-16.288
					c8.324-0.669,15.619,5.54,16.288,13.863C457.094,252.257,450.884,259.54,442.56,260.21z"/>
				<path id="XMLID_230_" style="fill:none;stroke:#0088DE;stroke-miterlimit:10;" d="M364.47,133.67l1.011-5.265l-4.28-0.822
					c-0.048-1.356-0.328-2.67-0.806-3.896l3.609-2.447l-3.005-4.44l-3.609,2.447c-0.966-0.899-2.085-1.64-3.326-2.187l0.823-4.285
					l-5.265-1.011l-0.823,4.285c-1.355,0.048-2.669,0.323-3.895,0.801l-2.447-3.609l-4.441,3.01l2.447,3.609
					c-0.897,0.961-1.639,2.08-2.186,3.321l-4.285-0.823l-1.011,5.265l4.285,0.823c0.048,1.355,0.323,2.669,0.8,3.9l-3.609,2.447
					l3.012,4.436l3.609-2.447c0.961,0.897,2.079,1.644,3.32,2.191l-0.822,4.28l5.265,1.011l0.822-4.28
					c1.355-0.048,2.67-0.328,3.901-0.805l2.446,3.609l4.435-3.006l-2.447-3.609c0.898-0.966,1.645-2.084,2.192-3.325L364.47,133.67z
					 M347.955,134.66c-3.669-0.704-6.075-4.247-5.37-7.922c0.704-3.669,4.253-6.074,7.922-5.37c3.669,0.704,6.074,4.252,5.37,7.922
					C355.171,132.965,351.624,135.365,347.955,134.66z"/>
			</g>
			<g id="XMLID_162_">
				<g id="XMLID_163_">
					<circle id="XMLID_164_" style="fill:#FF8B2E;" cx="168.391" cy="126.058" r="36.59"/>
					<circle id="XMLID_165_" style="fill:#FDFEFD;" cx="168.391" cy="126.058" r="31.37"/>
				</g>
				<g id="XMLID_166_">
					<g id="XMLID_167_">
						<g id="XMLID_168_">
							
								<line id="XMLID_169_" style="fill:none;stroke:#212B3B;stroke-width:2;stroke-miterlimit:10;" x1="168.401" y1="96.258" x2="168.361" y2="100.418"/>
							
								<line id="XMLID_170_" style="fill:none;stroke:#212B3B;stroke-width:2;stroke-miterlimit:10;" x1="168.421" y1="151.688" x2="168.381" y2="155.848"/>
						</g>
						<g id="XMLID_171_">
							
								<line id="XMLID_172_" style="fill:none;stroke:#212B3B;stroke-width:2;stroke-miterlimit:10;" x1="138.591" y1="126.048" x2="142.751" y2="126.078"/>
							
								<line id="XMLID_173_" style="fill:none;stroke:#212B3B;stroke-width:2;stroke-miterlimit:10;" x1="194.021" y1="126.028" x2="198.181" y2="126.068"/>
						</g>
					</g>
					<g id="XMLID_174_">
						<g id="XMLID_175_">
							
								<line id="XMLID_176_" style="fill:none;stroke:#212B3B;stroke-miterlimit:10;" x1="147.331" y1="104.978" x2="150.241" y2="107.948"/>
							
								<line id="XMLID_177_" style="fill:none;stroke:#212B3B;stroke-miterlimit:10;" x1="186.541" y1="144.168" x2="189.451" y2="147.128"/>
						</g>
						<g id="XMLID_178_">
							
								<line id="XMLID_179_" style="fill:none;stroke:#212B3B;stroke-miterlimit:10;" x1="147.311" y1="147.118" x2="150.281" y2="144.198"/>
							
								<line id="XMLID_180_" style="fill:none;stroke:#212B3B;stroke-miterlimit:10;" x1="186.501" y1="107.908" x2="189.461" y2="104.998"/>
						</g>
					</g>
					<circle id="XMLID_181_" style="fill:#212B3B;" cx="168.391" cy="126.058" r="2.51"/>
				</g>
			</g>
			<g id="XMLID_187_">
				<g id="XMLID_188_">
					<path id="XMLID_189_" style="fill:#FFFFFF;" d="M351.471,178.054v-17.25c0-7.53,6.1-13.63,13.63-13.63h69.11
						c7.53,0,13.63,6.1,13.63,13.63v17.25c0,7.53-6.1,13.63-13.63,13.63h-69.11C357.571,191.674,351.471,185.574,351.471,178.054z"
						/>
					<polygon id="XMLID_190_" style="fill:#FFFFFF;" points="393.451,184.574 390.341,214.124 418.151,185.044 					"/>
				</g>
				<g id="XMLID_191_">
					<ellipse id="XMLID_192_" style="fill:#0A4494;" cx="372.141" cy="171.334" rx="5.12" ry="4.83"/>
					<ellipse id="XMLID_193_" style="fill:#0A4494;" cx="400.031" cy="171.334" rx="5.12" ry="4.83"/>
					<ellipse id="XMLID_194_" style="fill:#0A4494;" cx="427.161" cy="171.334" rx="5.12" ry="4.83"/>
				</g>
			</g>
			<g id="XMLID_211_">
				<ellipse id="XMLID_212_" style="fill:#FDEEEB;" cx="272.885" cy="122.11" rx="40.478" ry="40.829"/>
				<g id="XMLID_209_">
					<ellipse id="XMLID_208_" style="fill:#FFFFFF;" cx="275.578" cy="125.346" rx="40.478" ry="40.829"/>
					<g id="XMLID_206_">
						<path id="XMLID_217_" style="fill:#0088DE;" d="M264.567,136.105c-2.783-2.852-7.315-2.903-10.123-0.115
							c-2.811,2.79-2.834,7.362-0.051,10.214c2.781,2.85,7.312,2.9,10.123,0.11C267.325,143.527,267.348,138.955,264.567,136.105z
							 M258.155,146.04l-3.541-3.629l1.327-4.886l4.862-1.257l3.54,3.629l-1.324,4.884L258.155,146.04z"/>
						<path id="XMLID_207_" style="fill:#0088DE;" d="M298.601,107.552l-5.622,5.581c-0.864,0.858-2.258,0.84-3.113-0.037
							l-1.751-1.795c-0.856-0.877-0.851-2.283,0.013-3.14l5.617-5.576c-2.465-0.696-5.271-0.033-7.286,1.968
							c-2.951,2.929-3.088,7.614-0.305,10.467c2.781,2.85,7.427,2.787,10.378-0.142
							C298.549,112.873,299.251,110.049,298.601,107.552z"/>
						<path id="XMLID_1_" style="fill:#0088DE;" d="M265.238,140.438l-4.632-4.748c7.604-8.474,15.667-16.478,24.189-24.012
							l4.632,4.748C281.77,124.846,273.706,132.85,265.238,140.438z"/>
					</g>
					<polygon id="XMLID_210_" style="fill:#FFFFFF;" points="281.665,158.545 296.422,174.97 296.255,147.474 					"/>
				</g>
			</g>
		</g>
		<g>
			<g id="XMLID_3_">
				<g id="XMLID_4_">
					<path id="XMLID_129_" style="fill:#FFD6D0;" d="M359.261,410.044c4.32-23.09,10.32-46.1,20.25-67.93
						c9.93-21.83,23.92-42.51,42.76-59.14c7.12-6.29,16.85-12.38,26.12-9.74c9.29,2.65,12.87,12.87,12.07,21.69
						c-1.39,15.39-11.75,29.14-22.58,41.44C414.931,362.434,388.341,385.764,359.261,410.044z"/>
					<g id="XMLID_5_">
						<path id="XMLID_128_" style="fill:none;stroke:#CC8F8D;stroke-linecap:round;stroke-miterlimit:10;" d="M450.021,281.904
							c-33.88,38.62-63.75,80.59-89.01,125.05"/>
						<g id="XMLID_6_">
							<path id="XMLID_127_" style="fill:none;stroke:#CC8F8D;stroke-linecap:round;stroke-miterlimit:10;" d="M435.491,277.074
								c2.14,5.44,3.55,11.16,4.19,16.96c6.25-0.99,12.72-0.6,18.79,1.14"/>
							<path id="XMLID_126_" style="fill:none;stroke:#CC8F8D;stroke-linecap:round;stroke-miterlimit:10;" d="M407.971,301.084
								c4.85,5.93,7.99,13.19,8.98,20.73c9.53-2.03,19.61-1.46,28.83,1.62"/>
							<path id="XMLID_125_" style="fill:none;stroke:#CC8F8D;stroke-linecap:round;stroke-miterlimit:10;" d="M386.151,336.334
								c3.74,5.56,5.99,12.07,6.45,18.72c8.92-1.79,18.08-2.37,27.16-1.71"/>
							<path id="XMLID_124_" style="fill:none;stroke:#CC8F8D;stroke-linecap:round;stroke-miterlimit:10;" d="M372.651,369.304
								c2.11,3.06,3.57,6.55,4.24,10.18c4.74-1.89,9.68-3.31,14.71-4.23"/>
						</g>
					</g>
				</g>
				<g id="XMLID_7_">
					<path id="XMLID_123_" style="fill:#FFD6D0;" d="M352.491,415.204c21.47-20.27,43.46-40.9,71.44-54.8
						c7.17-3.56,15-6.72,23.23-6.94c8.23-0.22,16.9,3.23,19.44,9.53c2.48,6.15-1.5,13.27-7.6,17.75c-6.1,4.49-13.96,6.91-21.59,9.22
						C409.631,398.394,381.851,406.814,352.491,415.204z"/>
					<g id="XMLID_8_">
						<path id="XMLID_122_" style="fill:none;stroke:#CC8F8D;stroke-linecap:round;stroke-miterlimit:10;" d="M460.661,364.904
							c-38.11,9.12-73.9,25.54-104.13,47.77"/>
						<path id="XMLID_121_" style="fill:none;stroke:#CC8F8D;stroke-linecap:round;stroke-miterlimit:10;" d="M446.651,357.294
							c0.08,3.93-0.58,7.87-1.96,11.61c4.18,2.16,7.36,5.76,8.69,9.84"/>
						<path id="XMLID_120_" style="fill:none;stroke:#CC8F8D;stroke-linecap:round;stroke-miterlimit:10;" d="M424.171,363.834
							c-0.45,4.55-1.53,9.06-3.19,13.39c4.05,2.75,7.26,6.42,9.23,10.56"/>
						<path id="XMLID_119_" style="fill:none;stroke:#CC8F8D;stroke-linecap:round;stroke-miterlimit:10;" d="M397.981,377.314
							c0.66,3.5,0.64,7.09-0.07,10.58c4.49,0.87,8.55,3.31,11.09,6.66"/>
						<path id="XMLID_118_" style="fill:none;stroke:#CC8F8D;stroke-linecap:round;stroke-miterlimit:10;" d="M377.711,393.714
							c0.27,1.19,0.04,3.97-0.88,5.99c3.9,0.2,7.69,1.72,10.41,4.18"/>
					</g>
				</g>
				<g id="XMLID_9_">
					<path id="XMLID_117_" style="fill:#FFD6D0;" d="M356.051,415.204c19.09-48.98,36.58-98.95,52.4-149.72
						c3.63-11.63,7.05-25.4,1.88-35.84c-5.38-10.88-18.29-12.24-27.22-5.83s-14.53,18.38-18.52,30.4
						C346.801,307.724,353.031,368.174,356.051,415.204z"/>
					<g id="XMLID_10_">
						<path id="XMLID_116_" style="fill:none;stroke:#CC8F8D;stroke-linecap:round;stroke-miterlimit:10;" d="M397.881,227.564
							c-23.09,43.45-33.81,107.29-40.5,186.48"/>
						<g id="XMLID_11_">
							<path id="XMLID_115_" style="fill:none;stroke:#CC8F8D;stroke-linecap:round;stroke-miterlimit:10;" d="M366.621,262.064
								c4.71,4.69,8.6,10.6,11.46,17.31c7.51-4.87,15.82-7.88,24.3-8.78"/>
							<path id="XMLID_114_" style="fill:none;stroke:#CC8F8D;stroke-linecap:round;stroke-miterlimit:10;" d="M356.131,302.274
								c5.13,4.34,9.75,9.59,13.74,15.54c6.36-6,13.72-10.44,21.49-12.99"/>
							<path id="XMLID_113_" style="fill:none;stroke:#CC8F8D;stroke-linecap:round;stroke-miterlimit:10;" d="M355.871,342.994
								c2.93,2.23,5.53,5.11,7.63,8.46c4.43-4.02,9.37-7.21,14.58-9.44"/>
							<path id="XMLID_112_" style="fill:none;stroke:#CC8F8D;stroke-linecap:round;stroke-miterlimit:10;" d="M379.401,232.804
								c4.62,4.14,7.78,10.61,8.55,17.52c6.26-4.16,13.79-5.42,20.74-3.48"/>
						</g>
					</g>
				</g>
			</g>
			<g id="XMLID_12_">
				<g id="XMLID_13_">
					<g id="XMLID_14_">
						<path id="XMLID_111_" style="fill:none;stroke:#FFD6D0;stroke-width:2;stroke-linecap:round;stroke-miterlimit:10;" d="
							M228.921,238.314c20.82,43.14,34.94,89.51,41.7,136.94"/>
						<g id="XMLID_15_">
							<path id="XMLID_110_" style="fill:#FFD6D0;" d="M229.401,240.104c-9.26-2.09-17.01-8.92-19.92-17.54
								c-0.88-2.6-1.07-6,1.3-7.65c2.38-1.66,5.67-0.4,7.98,1.2C226.761,221.654,231.611,231.044,229.401,240.104z"/>
							<path id="XMLID_109_" style="fill:#FFD6D0;" d="M233.371,247.004c-2.13-8.49-2.02-17.54,0.31-25.98
								c0.33-1.19,0.72-2.4,1.45-3.4s1.87-1.78,3.11-1.78s2.38,0.77,3.09,1.78c0.71,1.01,1.04,2.24,1.25,3.46
								c0.78,4.61-0.05,9.38-1.7,13.76C239.221,239.224,236.771,243.244,233.371,247.004z"/>
							<path id="XMLID_108_" style="fill:#FFD6D0;" d="M239.831,260.264c-0.52-8.09,1.03-16.3,4.46-23.64
								c1.42-3.04,3.22-6,5.89-8.05c1.4-1.08,3.31-1.88,4.91-1.12c1.25,0.6,1.94,2.03,2,3.42c0.07,1.39-0.38,2.74-0.87,4.04
								C252.591,244.634,246.471,253.404,239.831,260.264z"/>
							<path id="XMLID_107_" style="fill:#FFD6D0;" d="M245.021,272.594c-0.77-9.68,4.64-19.57,13.2-24.14
								c1.85-0.99,4.2-1.72,5.96-0.57c1.4,0.91,1.92,2.78,1.67,4.43c-0.25,1.65-1.14,3.12-2.08,4.5
								C259.071,263.744,252.761,269.594,245.021,272.594z"/>
							<path id="XMLID_106_" style="fill:#FFD6D0;" d="M249.651,287.924c0.65-10.42,7.16-20.27,16.47-24.98
								c1.48-0.75,3.32-1.35,4.71-0.45c1.35,0.88,1.58,2.77,1.35,4.36c-0.54,3.65-2.76,6.81-5.18,9.6
								C262.371,281.804,256.791,286.324,249.651,287.924z"/>
							<path id="XMLID_105_" style="fill:#FFD6D0;" d="M254.631,300.544c2.54-9.96,10-18.53,19.51-22.43
								c1.57-0.64,3.38-1.16,4.93-0.45c1.53,0.7,2.35,2.5,2.31,4.19c-0.04,1.69-0.79,3.28-1.69,4.71
								c-2.73,4.35-6.89,7.66-11.4,10.12C263.771,299.144,258.891,300.814,254.631,300.544z"/>
							<path id="XMLID_104_" style="fill:#FFD6D0;" d="M234.111,251.294c-4.75-7.34-12.94-12.35-21.64-13.23
								c-1.21-0.12-2.49-0.16-3.56,0.41c-2.02,1.07-2.46,3.99-1.41,6.02c1.36,2.63,4.39,3.89,7.23,4.73
								C220.131,250.814,225.771,251.624,234.111,251.294z"/>
							<path id="XMLID_103_" style="fill:#FFD6D0;" d="M241.521,265.014c-4.33-7.41-13.27-11.84-21.79-10.81
								c-2.07,0.25-4.2,0.84-5.72,2.27c-1.52,1.43-2.26,3.85-1.26,5.67c1.13,2.04,3.78,2.57,6.11,2.81
								C225.731,265.674,232.671,265.834,241.521,265.014z"/>
							<path id="XMLID_102_" style="fill:#FFD6D0;" d="M247.051,280.484c-5.97-6.85-15.49-10.42-24.49-9.17
								c-1.5,0.21-3.02,0.56-4.24,1.46c-1.21,0.9-2.04,2.45-1.7,3.92c0.3,1.26,1.4,2.22,2.61,2.69c1.21,0.47,2.54,0.54,3.83,0.61
								C230.821,280.374,238.581,280.754,247.051,280.484z"/>
							<path id="XMLID_101_" style="fill:#FFD6D0;" d="M252.821,296.714c-3.09-4.32-7.09-8.12-11.94-10.27
								c-4.86-2.16-10.64-2.53-15.46-0.31c-1.39,0.64-2.8,1.66-3.06,3.16c-0.25,1.48,0.77,2.94,2.08,3.68
								c1.3,0.74,2.84,0.92,4.33,1.08C234.801,294.724,240.831,295.394,252.821,296.714z"/>
							<path id="XMLID_100_" style="fill:#FFD6D0;" d="M256.541,309.674c-5.35-6.43-13.6-10.34-21.96-10.43
								c-2.2-0.02-4.53,0.25-6.31,1.56s-2.75,3.91-1.62,5.81s3.67,2.3,5.87,2.49C238.111,309.594,243.691,310.084,256.541,309.674z"
								/>
							<path id="XMLID_99_" style="fill:#FFD6D0;" d="M259.161,320.274c-5.79-5.34-14.48-6.22-22.27-5.07
								c-2.01,0.3-4.13,0.77-5.59,2.19c-1.46,1.42-1.86,4.09-0.33,5.42c1.13,0.98,2.8,0.91,4.29,0.79
								C242.251,323.044,249.241,322.474,259.161,320.274z"/>
							<path id="XMLID_98_" style="fill:#FFD6D0;" d="M262.871,333.074c-2.73-3.28-6.98-5.06-11.23-5.45
								c-4.25-0.39-8.53,0.48-12.6,1.77c-1.58,0.5-3.19,1.1-4.37,2.26c-1.18,1.16-1.83,3.02-1.13,4.51c1,2.15,3.92,2.39,6.28,2.19
								C246.511,337.784,253.101,336.054,262.871,333.074z"/>
							<path id="XMLID_97_" style="fill:#FFD6D0;" d="M265.921,346.694c-7.89-4.3-17.55-6.32-25.93-3.1
								c-2.08,0.8-4.33,2.39-4.19,4.62c0.09,1.38,1.16,2.56,2.41,3.14c1.26,0.58,2.68,0.67,4.07,0.68
								C249.331,352.064,256.231,350.144,265.921,346.694z"/>
							<path id="XMLID_96_" style="fill:#FFD6D0;" d="M267.321,358.924c-6.52-3.21-14.24-3.9-21.23-1.9
								c-1.95,0.56-3.93,1.37-5.25,2.92c-1.32,1.55-1.76,3.99-0.54,5.62c1.26,1.68,3.67,1.88,5.77,1.83
								C252.141,367.214,258.141,366.054,267.321,358.924z"/>
							<path id="XMLID_95_" style="fill:#FFD6D0;" d="M258.991,314.514c1.77-7.92,7.73-14.77,15.33-17.63
								c1.97-0.74,4.12-1.23,6.18-0.79c2.06,0.44,3.98,2.01,4.32,4.08c0.26,1.63-0.48,3.3-1.6,4.52s-2.58,2.05-4.04,2.83
								C273.621,310.494,267.771,312.904,258.991,314.514z"/>
							<path id="XMLID_94_" style="fill:#FFD6D0;" d="M261.901,329.594c2.85-9.59,10.92-17.45,20.58-20.05
								c1.21-0.33,2.6-0.54,3.62,0.17c1.46,1.02,1.26,3.26,0.55,4.89c-1.77,4.04-5.54,6.84-9.43,8.92
								C273.341,325.604,269.151,327.184,261.901,329.594z"/>
							<path id="XMLID_93_" style="fill:#FFD6D0;" d="M264.431,340.674c1.62-3.89,4.64-7.11,8.23-9.33
								c3.58-2.22,7.7-3.47,11.88-4.06c1.53-0.21,3.12-0.33,4.59,0.15c1.47,0.48,2.79,1.7,2.96,3.23c0.15,1.25-0.49,2.5-1.41,3.37
								c-0.92,0.87-2.09,1.41-3.26,1.88C280.861,338.574,273.771,339.544,264.431,340.674z"/>
							<path id="XMLID_92_" style="fill:#FFD6D0;" d="M267.351,354.064c5.24-8.12,13.79-14.72,23.44-15.11
								c2.44-0.1,5.39,0.57,6.16,2.89c0.49,1.47-0.16,3.13-1.26,4.22c-1.1,1.09-2.57,1.7-4.04,2.19
								C283.451,350.974,273.931,350.704,267.351,354.064z"/>
						</g>
					</g>
					<g id="XMLID_16_">
						<path id="XMLID_91_" style="fill:none;stroke:#FFD6D0;stroke-width:2;stroke-linecap:round;stroke-miterlimit:10;" d="
							M40.991,377.264c58.37-4.41,117.79,5.77,171.36,29.36"/>
						<g id="XMLID_17_">
							<path id="XMLID_90_" style="fill:#FFD6D0;" d="M50.881,376.294c-7.45-5.18-18.29-4.84-25.39,0.81
								c-0.99,0.78-1.92,1.68-2.46,2.83c-0.54,1.14-0.61,2.57,0.09,3.62c1.01,1.53,3.16,1.75,4.99,1.66
								C36.561,384.784,44.491,381.194,50.881,376.294z"/>
							<path id="XMLID_89_" style="fill:#FFD6D0;" d="M65.401,376.264c-6.34,1.47-12.04,5.55-15.46,11.08
								c-0.74,1.19-1.38,2.47-1.55,3.86c-0.17,1.39,0.22,2.9,1.27,3.83c1.08,0.96,2.71,1.12,4.09,0.72c1.39-0.41,2.58-1.31,3.63-2.3
								C63.111,388.074,66.001,379.544,65.401,376.264z"/>
							<path id="XMLID_88_" style="fill:#FFD6D0;" d="M87.431,377.254c-9.7,2.21-17.91,9.98-20.65,19.54
								c-0.56,1.95-0.7,4.48,1.01,5.58c1.85,1.18,4.22-0.29,5.81-1.79C80.341,394.234,85.281,386.244,87.431,377.254z"/>
							<path id="XMLID_87_" style="fill:#FFD6D0;" d="M106.351,377.954c-8.88,3.47-15.75,10.79-21.03,18.73
								c-0.96,1.44-1.9,2.97-2.16,4.69c-0.26,1.72,0.34,3.67,1.84,4.53c1.31,0.75,3.01,0.5,4.32-0.26s2.3-1.95,3.23-3.14
								C97.791,395.804,102.051,388.404,106.351,377.954z"/>
							<path id="XMLID_86_" style="fill:#FFD6D0;" d="M119.201,379.924c-8.1,2.85-14.31,10.46-15.5,18.96
								c-0.19,1.33-0.25,2.71,0.14,3.99c0.39,1.28,1.32,2.46,2.6,2.86c1.6,0.5,3.37-0.33,4.47-1.59c1.1-1.26,1.67-2.89,2.21-4.47
								C115.421,392.994,117.711,386.314,119.201,379.924z"/>
							<path id="XMLID_85_" style="fill:#FFD6D0;" d="M130.831,381.284c-2.82,3.59-5.67,7.22-7.57,11.37
								c-1.9,4.15-2.8,8.93-1.55,13.31c0.37,1.29,1.12,2.7,2.44,2.91c1.15,0.19,2.22-0.63,3.02-1.48c2.92-3.07,4.64-7.13,5.43-11.28
								C133.391,391.954,133.321,387.684,130.831,381.284z"/>
							<path id="XMLID_84_" style="fill:#FFD6D0;" d="M151.091,385.244c-3.37,1.43-6.07,4.15-8.01,7.25
								c-1.94,3.1-3.19,6.58-4.28,10.07c-0.44,1.4-0.86,2.84-0.76,4.31c0.1,1.46,0.8,2.97,2.11,3.63c1.56,0.79,3.54,0.15,4.78-1.08
								c1.24-1.23,1.89-2.93,2.41-4.59C149.161,399.084,149.971,393.014,151.091,385.244z"/>
							<path id="XMLID_83_" style="fill:#FFD6D0;" d="M58.511,375.294c-6.34-1.95-11.79-6.62-14.68-12.58
								c-0.37-0.76-0.71-1.59-0.59-2.43c0.19-1.43,1.63-2.39,3.05-2.64c2.65-0.48,5.37,0.88,7.16,2.89
								c1.79,2.01,2.79,4.58,3.61,7.14C57.881,370.234,58.561,372.874,58.511,375.294z"/>
							<path id="XMLID_82_" style="fill:#FFD6D0;" d="M77.171,376.884c-5.12-2.97-9.34-7.46-11.99-12.75
								c-0.6-1.2-1.12-2.46-1.21-3.79c-0.09-1.33,0.34-2.76,1.37-3.61c1.14-0.94,2.81-1.01,4.19-0.49c1.38,0.52,2.51,1.54,3.5,2.63
								C76.741,362.934,78.981,368.294,77.171,376.884z"/>
							<path id="XMLID_81_" style="fill:#FFD6D0;" d="M97.141,377.284c-6.99-4.12-11.35-12.33-10.85-20.43
								c0.07-1.09,0.33-2.34,1.3-2.83c0.74-0.37,1.67-0.14,2.33,0.36s1.1,1.23,1.51,1.95
								C94.501,361.694,96.661,367.574,97.141,377.284z"/>
							<path id="XMLID_80_" style="fill:#FFD6D0;" d="M114.881,378.694c-5.68-3.31-9.45-9.69-9.6-16.27
								c-0.05-2.16,0.49-4.66,2.41-5.66c1.36-0.7,3.07-0.41,4.36,0.42c1.29,0.83,2.21,2.11,2.99,3.43
								C118.291,366.144,119.361,372.904,114.881,378.694z"/>
							<path id="XMLID_79_" style="fill:#FFD6D0;" d="M129.211,381.834c-2.86-1.52-4.7-4.53-5.51-7.67
								c-0.81-3.14-0.69-6.43-0.48-9.66c0.12-1.9,0.3-3.87,1.24-5.53c0.94-1.66,2.88-2.9,4.73-2.45c1.96,0.48,3.04,2.57,3.66,4.49
								C135.001,367.754,134.401,375.314,129.211,381.834z"/>
							<path id="XMLID_78_" style="fill:#FFD6D0;" d="M145.171,384.444c-4.41-6.48-4.68-15.53-0.68-22.27
								c0.79-1.33,2.02-2.7,3.55-2.54c1.41,0.15,2.33,1.54,2.9,2.84C154.091,369.684,152.551,378.684,145.171,384.444z"/>
						</g>
					</g>
				</g>
				<g id="XMLID_18_">
					<g id="XMLID_19_">
						<path id="XMLID_77_" style="fill:#F7746F;" d="M287.551,303.844l-5.14-17.51c0,0-13.82,5.97-18.21,15.14
							c-9.94,20.8-16.2,61.22-20.23,66.86c-4.03,5.64-53.63,12.36-53.63,12.36l5.08,25.57c0,0,60.66-4.37,68.78-11.54
							c11-9.71,24.27-51.94,24.27-51.94L287.551,303.844z"/>
						<g id="XMLID_20_">
							<path id="XMLID_76_" style="fill:#6B2E40;" d="M320.431,198.874c1.73-7.17,9.46-12.03,16.81-11.43
								c7.35,0.6,13.83,5.99,16.78,12.75c2.94,6.76,2.65,14.65,0.26,21.63c-1.62,4.72-4.17,9.78-2.35,14.43
								c1.35,3.46,4.81,5.61,8.21,7.12c3.4,1.5,7.07,2.66,9.83,5.15c2.76,2.49,4.3,6.88,2.24,9.98c-2.97,4.49-11.21,3.63-13.06,8.68
								c-0.95,2.57,0.39,5.41,0.23,8.15c-0.19,3.44-2.8,6.39-5.9,7.89s-6.63,1.8-10.08,1.88c-6.06,0.15-12.38-0.36-17.63-3.38
								c-5.25-3.03-9.11-9.15-7.85-15.08c1.03-4.86,5.25-9.36,3.78-14.1c-1.06-3.43-4.66-5.27-7.24-7.77
								c-5.46-5.29-6.32-14.01-4.11-21.28C312.541,216.214,317.721,210.144,320.431,198.874z"/>
							<g id="XMLID_21_">
								<g id="XMLID_22_">
									<g id="XMLID_23_">
										<path id="XMLID_75_" style="fill:#FAC8BF;" d="M327.911,273.664c-8.64,13.35-23.95,28.38-29.41,27.65
											c-4.51-0.6-9.12-6.93-9.12-18.1c0.63-0.25,1.26-0.62,1.87-1.08c1.33-1.03,2.52-2.55,3.22-4.34
											c0.18-0.44,0.33-0.92,0.43-1.4c0.7-3.13-0.16-6.72-2.08-8.85c-0.1-0.11-0.19-0.22-0.29-0.32
											c7.31-6.64,14.61-11.34,21.9-16.04c0.28,4.38,1.2,8.43,2.8,11.9c0.37,0.82,0.78,1.6,1.23,2.34
											C320.801,269.324,324.171,272.264,327.911,273.664z"/>
										<path id="XMLID_74_" style="fill:#EDA19F;" d="M317.211,263.064c-5.37,7.45-14.65,19.23-25.98,19.06
											c1.33-1.03,2.52-2.55,3.22-4.34c0.18-0.44,0.33-0.92,0.43-1.4c0.7-3.13-0.16-6.72-2.08-8.85
											c-0.1-0.11-0.19-0.22-0.29-0.32c7.31-6.64,14.61-11.34,21.9-16.04C314.691,255.554,315.621,259.604,317.211,263.064z"/>
									</g>
									<path id="XMLID_73_" style="fill:#FF9185;" d="M324.741,271.574c0,0-12.35,26.27-27.08,26.98
										c-8.42,0.41-7.01-17.74-7.01-17.74s-14.05,6.59-18.1,11.62c-4.67,5.79-10.44,41-9.94,50.21c0.9,16.6,9.63,27.43,9.63,36.45
										c0,9.02-6.55,30.68-6.55,30.68l89.26-0.24c0,0-4.71-19.21-5.63-39.59c-0.92-20.38,9.47-65.91,5.72-78.74
										C352.381,282.184,324.741,271.574,324.741,271.574z"/>
								</g>
								<g id="XMLID_24_">
									<g id="XMLID_25_">
										<path id="XMLID_72_" style="fill:#F25C61;" d="M297.331,298.594c0,0,19.35-7.46,26.65-28.07c0,0,10.58,3.05,11.26,4.79
											c1.14,2.91-3.84,23.88-10.11,27.02C319.741,305.034,297.331,298.594,297.331,298.594z"/>
										<path id="XMLID_71_" style="fill:#F25C61;" d="M297.331,298.574c0,0-6.37-9.13-3.88-19.92c0,0-5.64,1.94-8.68,4.69
											c-4.46,4.04-12.2,19.96-10.04,21.53C276.231,305.954,297.331,298.574,297.331,298.574z"/>
									</g>
									<g id="XMLID_26_">
										<circle id="XMLID_70_" style="fill:#BF4753;" cx="296.121" cy="307.654" r="2.67"/>
										<circle id="XMLID_69_" style="fill:#BF4753;" cx="294.231" cy="324.084" r="2.67"/>
									</g>
								</g>
							</g>
							<g id="XMLID_27_">
								<g id="XMLID_28_">
									<g id="XMLID_29_">
										<path id="XMLID_68_" style="fill:#0387D9;" d="M262.518,224.709c6.272-1.098,12.631,5.283,14.202,14.254
											c1.571,8.971-2.24,17.133-8.513,18.232c-6.272,1.098-12.631-5.283-14.202-14.254
											C252.434,233.97,256.246,225.808,262.518,224.709z"/>
									</g>
									<g id="XMLID_30_">
										<path id="XMLID_67_" style="fill:#FAC8BF;" d="M329.741,234.814c2.8-22.29-10.06-42.31-28.73-44.72
											c-18.66-2.4-38.86,13.54-38.86,36.01c0,30.27,12.08,49.64,30.18,46.1C309.701,268.814,326.941,257.104,329.741,234.814z"
											/>
										<path id="XMLID_66_" style="fill:#EDA19F;" d="M326.251,231.964c-6.06-1.01-11.55-4.96-14.44-10.38
											c0.63,3.48-0.83,7.27-3.65,9.41c-1.07,0.82-2.51,1.42-3.75,0.91c-0.96-0.39-1.57-1.35-2.02-2.28
											c-1.59-3.3-2.04-7.13-1.26-10.71c-2.67,6.18-8.52,10.88-15.13,12.17c-1.8,0.35-3.91,0.36-5.15-0.99
											c-1.02-1.11-1.1-2.84-0.59-4.26c0.51-1.42,1.52-2.6,2.5-3.74c-6.17,4.34-14,6.25-21.47,5.23
											c2.49-10.25,8.73-19.74,17.73-25.25c9-5.5,20.79-6.63,30.28-2.03c9.49,4.6,16.05,15.16,15.02,25.67"/>
									</g>
									<g id="XMLID_31_">
										<path id="XMLID_65_" style="fill:#904B57;" d="M327.201,245.134c-0.64-3.69-1.82-7.94-3.43-12.38
											c-5.69-4.23-9.99-10.28-13-16.75c-0.02,0.24-0.02,0.45-0.02,0.69c-0.14,5.15-3.78,14.98-5.39,13.96
											c-2.62-1.63-2.22-19.52-3.33-29.28c0.76,6-0.05,12.31-2.93,17.63c-2.88,5.32-8.01,9.52-13.94,10.66
											c-0.78,0.14-1.7,0.19-2.24-0.38c-0.66-0.73-0.33-1.87,0.05-2.76c2.98-7.02,5.95-14.01,8.88-21.03
											c-2.32,5.41-4.99,10.7-9.55,14.2c-5.1,3.95-11.91,5.69-19.49,5.62c-0.66,4.54-0.54,8.62-0.07,12.03
											c-1.94-3.59-3.19-7.42-3.78-11.32c-1.54-10.04,1.18-20.6,7.28-28.61c8.46-11.11,23.56-16.73,37.22-13.87
											c2.93,0.17,5.79,0.66,8.51,1.49c10.94,3.28,19.82,11.53,23.63,21.88C340.361,219.824,336.931,235.374,327.201,245.134z"/>
										<path id="XMLID_64_" style="fill:#BD7D81;" d="M311.961,185.014c-11.7-0.78-23.58,1.65-33.39,7.99
											c-11.18,7.21-19.07,19.82-19.61,33.01c-1.54-10.04,1.18-20.6,7.28-28.61c8.46-11.11,23.56-16.73,37.22-13.87
											C306.381,183.694,309.241,184.194,311.961,185.014z"/>
									</g>
									<g id="XMLID_32_">
										<path id="XMLID_63_" style="fill:#0A4494;" d="M322.721,230.694c0,0,2.09-24.02-11.75-35
											c-16.75-13.28-39.29-4.01-39.29-4.01s-1.36-3.17,12.51-7.5c6.79-2.12,23.28-4.19,34.62,6.33
											c13.52,12.54,12.7,34.52,12.7,34.52L322.721,230.694z"/>
										<g id="XMLID_33_">
											<path id="XMLID_62_" style="fill:#0387D9;" d="M316.579,238.484c1.187-9.03,7.267-15.677,13.581-14.848
												c6.314,0.83,10.47,8.822,9.283,17.852c-1.187,9.03-7.267,15.677-13.581,14.847
												C319.548,255.506,315.392,247.513,316.579,238.484z"/>
											<path id="XMLID_61_" style="fill:#75C0E0;" d="M324.765,239.559c1.059-8.055,5.237-14.149,9.333-13.61
												c4.096,0.538,6.558,7.505,5.5,15.56c-1.059,8.055-5.237,14.149-9.333,13.61
												C326.169,254.581,323.707,247.614,324.765,239.559z"/>
										</g>
									</g>
									<g id="XMLID_34_">
										<path id="XMLID_60_" style="fill:none;stroke:#904B57;stroke-width:2;stroke-linecap:round;stroke-miterlimit:10;" d="
											M303.151,233.844c-3.77-3.77-9.04-4.11-12.51-2.58"/>
										<path id="XMLID_59_" style="fill:none;stroke:#904B57;stroke-width:2;stroke-linecap:round;stroke-miterlimit:10;" d="
											M276.411,231.744c-3.9-2.96-9-1.91-11.18,0.7"/>
										<path id="XMLID_58_" style="fill:none;stroke:#B35267;stroke-width:2;stroke-linecap:round;stroke-miterlimit:10;" d="
											M279.621,242.014c-0.12,2.95,0.19,5.91,0.93,8.8"/>
										<ellipse id="XMLID_57_" style="fill:#363857;" cx="295.171" cy="242.004" rx="1.73" ry="2.63"/>
										<ellipse id="XMLID_56_" style="fill:#363857;" cx="270.821" cy="242.004" rx="1.73" ry="2.63"/>
										<g id="XMLID_35_">
											<path id="XMLID_55_" style="fill:#B35267;" d="M293.581,262.094c-3.23,0.98-5.49-0.04-7-1.53
												c-2.03-1.99-2.74-4.83-2.74-4.83l0.43-0.12l12.9-3.82c0,0,0.32,0.7,0.6,1.75c0.11,0.39,0.2,0.83,0.26,1.31
												C298.391,257.384,297.951,260.774,293.581,262.094z"/>
											<path id="XMLID_54_" style="fill:#FFEDEF;" d="M297.771,253.544c-3.38,1.31-10.67,3.21-11.66,3.21
												c-0.66,0-1.34-0.59-1.83-1.14l12.9-3.82C297.181,251.794,297.501,252.494,297.771,253.544z"/>
											<path id="XMLID_53_" style="fill:#E6919D;" d="M293.581,262.094c-3.23,0.98-5.49-0.04-7-1.53
												c3.81-4.37,8.52-5.49,11.45-5.72C298.391,257.384,297.951,260.774,293.581,262.094z"/>
										</g>
									</g>
								</g>
								<g id="XMLID_36_">
									<path id="XMLID_52_" style="fill:none;stroke:#363857;stroke-miterlimit:10;" d="M282.591,274.714
										c0,0-6.16,0.06-11.77-4.81c-5.38-4.68-6.01-10.5-5.83-12.95"/>
									<ellipse id="XMLID_51_" style="fill:#363857;" cx="284.691" cy="274.714" rx="5.34" ry="3.25"/>
								</g>
							</g>
						</g>
					</g>
					<g id="XMLID_37_">
						<polygon id="XMLID_50_" style="fill:#1B2E34;" points="35.561,419.494 35.561,425.844 380.191,426.574 456.361,410.174 
							456.361,404.054 						"/>
						<polygon id="XMLID_49_" style="fill:#FFFFFF;" points="159.981,404.164 456.361,404.054 379.651,419.614 35.561,419.494 
													"/>
					</g>
					<g id="XMLID_38_">
						<g id="XMLID_39_" style="opacity:0.949;">
							<g id="XMLID_40_">
								<path id="XMLID_48_" style="fill:#12252B;" d="M192.291,405.824c-6.42,0.79-13.66,1.29-21.27,1.55
									c-7.37,0.29-15.08,0.39-22.85,0.39c1.87-6.4,6.03-12.19,11.74-15.61c1.76-1.05,3.68-1.9,5.69-2.45
									c4.42-1.24,9.21-1.18,13.53,0.39C185.391,392.394,191.081,399.264,192.291,405.824z"/>
								<path id="XMLID_47_" style="fill:#597375;" d="M171.021,407.374c-7.37,0.29-15.08,0.39-22.85,0.39
									c1.87-6.4,6.03-12.19,11.74-15.61c1.76-1.05,3.68-1.9,5.69-2.45c2.53,1.84,4.24,4.76,5.05,7.84
									C171.491,400.744,171.421,404.114,171.021,407.374z"/>
							</g>
							<path id="XMLID_46_" style="fill:#FAC8BF;" d="M195.921,400.004c-3.83,1.8-7.02,2.29-11.79,1.91
								c-1.66,2.17-10.01,9.21-12.16,7.34c-1.66-1.44,4.38-7.33,5.6-9.57c0.88-1.62,1.59-3.45,1.64-5.37
								c-2.05-2.45-6.13-4.8-8.76-4.14c-4.1,1.03-9.13,7.01-14.26,11.36c-0.71,0.6-1.43,1.21-2.28,1.47
								c-0.85,0.26-1.84,0.09-2.41-0.68c-1-1.35-0.18-3.42,0.7-4.88c4.72-7.78,10.78-14.44,17.71-19.46
								c8.66,1.07,14.55,3.24,22.37,6.72C194.381,389.314,195.991,395.424,195.921,400.004z"/>
						</g>
						<g id="XMLID_41_">
							<g id="XMLID_42_">
								<polygon id="XMLID_45_" style="fill:#1B2E34;" points="180.761,405.024 180.761,409.784 317.441,409.784 347.641,403.864 
									347.641,400.864 								"/>
								<polygon id="XMLID_44_" style="fill:#324B4F;" points="230.101,400.894 347.641,400.864 317.221,405.064 180.761,405.024 
																	"/>
							</g>
							<g id="XMLID_43_">
								<g id="XMLID_132_">
									<path id="XMLID_134_" style="fill:#BF4753;" d="M340.151,374.604c0,0-9.39,9.31-0.17,24.51c0,0,8.13-1.57,8.86-11.11
										C349.301,381.904,340.151,374.604,340.151,374.604z"/>
									<g id="XMLID_135_">
										<g id="XMLID_136_">
											<path id="XMLID_137_" style="fill:#FAC8BF;" d="M345.711,389.944c-0.31,0.56-4.24,1.1-7.08,1.38
												c-0.73,0.05-3.46-0.02-3.96,0c0.44,3.2-1.27,5.38-3.06,5.82c-2.2,0.56-4.46-0.74-5.94-2.1
												c-2.15,1.63-4.22,2.07-6.19,1.04c-1.99-1.03-3.73-4.03-3.96-6.95c-0.43,1.97-0.81,3.68-0.54,4.66
												c0.36,1.34,5.18,7.93,1.7,9.04c-1.6,0.51-6.88-5.17-7.48-7.66c-0.75-3.12-0.62-6.82,1.04-11.51
												c-3.03,3.63-4.1,5.43-4.42,6.96c-0.83,3.93-0.18,10.92-2.95,10.69c-3.3,0-3.92-9.97-2.57-14.24
												c0.97-3.08,7.12-12.79,10.43-13.61c3.06-0.76,19.68-0.08,22.8,0.38c1.56,0.24,3.11,0.4,4.54,0.53
												c3.92,0.34,7.02,0.32,7.19,0.46C347.201,376.894,346.561,388.284,345.711,389.944z"/>
											<path id="XMLID_138_" style="fill:#EDA19F;" d="M345.711,389.944c-0.31,0.56-4.24,1.1-7.08,1.38
												c0.68-1.66,1.16-3.37,1.37-5.12c0.52-4.03-0.17-8.19-1.94-11.82c3.92,0.34,7.02,0.32,7.19,0.46
												C347.201,376.894,346.561,388.284,345.711,389.944z"/>
										</g>
										<g id="XMLID_139_">
											<path id="XMLID_140_" style="fill:none;stroke:#B35267;stroke-linecap:round;stroke-miterlimit:10;" d="M321.451,383.084
												c0.3,4.46,1.31,7.44,3.76,11.18"/>
											<g id="XMLID_141_">
												<path id="XMLID_142_" style="fill:none;stroke:#B35267;stroke-linecap:round;stroke-miterlimit:10;" d="
													M334.301,391.174c-0.66-0.18-1.59-0.8-2.09-1.27"/>
												<path id="XMLID_143_" style="fill:none;stroke:#B35267;stroke-linecap:round;stroke-miterlimit:10;" d="
													M332.141,387.994c0.18,1.31-0.04,2.66-0.63,3.85"/>
											</g>
										</g>
									</g>
								</g>
								<g id="XMLID_144_">
									<path id="XMLID_145_" style="fill:#FF9185;" d="M364.331,298.324c-2.61-5.98-10.55-11.53-17.97-15.63
										c-0.24,0.14-0.48,0.27-0.72,0.42c-4.22,2.71-7.72,6.44-10.97,10.22c-0.14,0.16-0.27,0.34-0.4,0.5
										c2.05,13.51,4.64,30.68,5.58,37.06c1.97,13.34,16.75,39.11,16.55,41.81c-0.2,2.7-16.55,1.3-16.55,1.3
										c6.53,9.08,5.03,18.73-0.1,24.87c0,0,42.33,2.42,47.43-4.25C392.281,387.964,368.141,307.064,364.331,298.324z"/>
									<g id="XMLID_146_">
										<path id="XMLID_147_" style="fill:none;stroke:#EB6E6A;stroke-linecap:round;stroke-miterlimit:10;" d="M346.601,292.704
											c-6.67,20.6-5.72,43.57,2.63,63.55"/>
										<path id="XMLID_148_" style="fill:none;stroke:#EB6E6A;stroke-linecap:round;stroke-miterlimit:10;" d="M332.071,327.794
											c2.61,9.52,7.76,17.73,15.36,24.02"/>
									</g>
									<path id="XMLID_149_" style="fill:none;stroke:#EB6E6A;stroke-linecap:round;stroke-miterlimit:10;" d="M340.791,373.874
										c2.41,0.55,4.89,0.79,7.36,0.71"/>
									<path id="XMLID_150_" style="fill:none;stroke:#EB6E6A;stroke-linecap:round;stroke-miterlimit:10;" d="M352.311,399.334
										c-4.55,0-7.48-0.14-11.91-0.37"/>
								</g>
							</g>
						</g>
					</g>
					<g id="XMLID_151_">
						<g id="XMLID_152_">
							<polygon id="XMLID_153_" style="fill:#1B2E34;" points="68.261,389.014 62.801,264.474 233.541,264.474 239.001,389.014 
															"/>
							<polygon id="XMLID_154_" style="fill:#324B4F;" points="233.151,389.014 227.691,264.474 233.541,264.474 239.001,389.014 
															"/>
						</g>
						<g id="XMLID_155_">
							<g id="XMLID_156_">
								<polygon id="XMLID_157_" style="fill:#12252B;" points="117.451,413.704 133.381,346.824 164.331,346.824 148.401,413.704 
																	"/>
								<polygon id="XMLID_158_" style="fill:#324B4F;" points="146.411,413.704 162.341,346.824 164.331,346.824 148.401,413.704 
																	"/>
							</g>
							<g id="XMLID_159_">
								<rect id="XMLID_160_" x="102.771" y="406.714" style="fill:#12252B;" width="63.11" height="6.99"/>
								<rect id="XMLID_161_" x="161.811" y="406.714" style="fill:#324B4F;" width="4.07" height="6.99"/>
							</g>
						</g>
					</g>
				</g>
			</g>
		</g>
	</g>
</g>
</svg>
