<?xml version="1.0" encoding="utf-8"?>
<!-- Generator: Adobe Illustrator 27.5.0, SVG Export Plug-In . SVG Version: 6.00 Build 0)  -->
<svg version="1.1" xmlns="http://www.w3.org/2000/svg" xmlns:xlink="http://www.w3.org/1999/xlink" x="0px" y="0px"
	 viewBox="0 0 750 500" style="enable-background:new 0 0 750 500;" xml:space="preserve">
<g id="BACKGROUND">
	<rect style="fill:#FFFFFF;" width="750" height="500"/>
</g>
<g id="OBJECTS">
	<ellipse style="fill:#C3E9F8;" cx="135.053" cy="447.174" rx="58.242" ry="7.616"/>
	<path style="fill:#C3E9F8;" d="M364.978,447.174c0,3.838-23.789,6.948-53.133,6.948c-29.345,0-53.134-3.111-53.134-6.948
		c0-3.837,23.789-6.948,53.134-6.948C341.189,440.225,364.978,443.336,364.978,447.174z"/>
	<path style="fill:#C3E9F8;" d="M502.925,447.174c0,3.891-24.12,7.045-53.874,7.045s-53.874-3.154-53.874-7.045
		c0-3.891,24.12-7.045,53.874-7.045S502.925,443.283,502.925,447.174z"/>
	<g>
		<path style="fill:#EF5E42;" d="M97.061,138.564c0,0,2.262-12.269,10.249-13.235c7.988-0.965,21.804-2.96,23.201,8.098
			s-7.079,5.531-7.079,5.531s3.522-7.902-5.913-9.337c-13.449-2.045-14.469,9.139-14.469,9.139L97.061,138.564z"/>
		<path style="fill:#EF5E42;" d="M130.511,133.427c0,0-33.218-2.766-39.539,7.507c-6.322,10.273-25.061,53.734-6.357,93.883
			c8.918,12.734,58.484,8.876,60.929-0.112C157.818,205.961,130.511,133.427,130.511,133.427z"/>
		<path style="fill:#D6503E;" d="M130.667,132.44c0,0-14.051,0-22.023,1.289c-11.51,11.244-17.019,33.928-19.988,52.114
			c-2.507,16.605-2.232,40.534,6.363,54.966c17.515,4.861,48.602,0.967,50.525-6.104C157.818,205.961,130.667,132.44,130.667,132.44
			z"/>
		<g>
			<g id="XMLID_50_">
				<polygon id="XMLID_37_" style="fill:#D28C73;" points="160.763,419.599 164.684,439.989 173.236,438.983 176.254,423.891 				
					"/>
				<path id="XMLID_15_" style="fill:#FDF6D9;" d="M164.416,437.663l0.268,2.325l8.551-1.006l0.645-3.225
					C172.294,436.141,164.416,437.663,164.416,437.663z"/>
				<path id="XMLID_80_" style="fill:#565599;" d="M173.685,436.735c-3.097,0.414-5.992,0.886-9.184,1.668l0.046,0.395
					c3.118-0.66,6.03-1.113,9.064-1.688L173.685,436.735z"/>
				<path id="XMLID_94_" style="fill:#49292E;" d="M195.118,448.54h-30.434v-8.552l8.551-1.006
					c10.066,2.012,18.034,6.927,20.816,8.808C194.745,448.258,195.118,448.54,195.118,448.54z"/>
				<path id="XMLID_91_" style="fill:#FDF6D9;" d="M195.118,448.54h-30.434v-0.875c11.585-0.126,19.724,0.196,29.367,0.126
					C194.745,448.258,195.118,448.54,195.118,448.54z"/>
				<path id="XMLID_61_" style="fill:#FDF6D9;" d="M180.457,443.761c-0.086,0-0.169-0.044-0.216-0.123
					c-0.071-0.119-0.032-0.274,0.087-0.345c1.913-1.142,2.249-1.736,2.252-1.742c0.065-0.12,0.215-0.17,0.336-0.108
					c0.122,0.062,0.173,0.206,0.115,0.33c-0.034,0.07-0.386,0.722-2.446,1.952C180.545,443.75,180.501,443.761,180.457,443.761z"/>
				<path id="XMLID_14_" style="fill:#FDF6D9;" d="M182.972,444.704c-0.086,0-0.169-0.044-0.216-0.123
					c-0.071-0.119-0.032-0.274,0.087-0.345c1.912-1.142,2.249-1.736,2.252-1.742c0.065-0.12,0.215-0.17,0.337-0.108
					c0.122,0.062,0.173,0.206,0.115,0.33c-0.033,0.07-0.386,0.722-2.446,1.952C183.06,444.693,183.016,444.704,182.972,444.704z"/>
				<path id="XMLID_126_" style="fill:#FDF6D9;" d="M178.004,442.724c-0.086,0-0.169-0.044-0.216-0.123
					c-0.071-0.119-0.032-0.274,0.087-0.345c1.913-1.142,2.249-1.736,2.252-1.742c0.065-0.12,0.215-0.17,0.337-0.108
					c0.122,0.062,0.174,0.206,0.115,0.33c-0.033,0.07-0.386,0.722-2.446,1.952C178.093,442.712,178.048,442.724,178.004,442.724z"/>
				<path id="XMLID_13_" style="fill:#FDF6D9;" d="M176.464,439.947c-0.002,0-0.004,0-0.007,0c-0.101-0.003-0.191-0.066-0.227-0.16
					c-0.156-0.399-0.904-2.431-0.352-3.212c0.107-0.15,0.326-0.311,0.677-0.316c0.367,0.012,0.561,0.202,0.659,0.359
					c0.518,0.832-0.413,2.945-0.521,3.182C176.652,439.889,176.562,439.947,176.464,439.947z M176.521,436.76
					c-0.139,0-0.196,0.052-0.233,0.104c-0.23,0.326-0.058,1.288,0.195,2.116c0.288-0.786,0.526-1.742,0.304-2.098
					c-0.036-0.058-0.093-0.116-0.248-0.121C176.533,436.76,176.527,436.76,176.521,436.76z"/>
				<path id="XMLID_65_" style="fill:#FDF6D9;" d="M173.126,441.844c-0.996,0-1.669-0.355-1.812-0.96
					c-0.057-0.244-0.002-0.476,0.16-0.669c0.819-0.977,4.579-0.796,5.004-0.771c0.072,0.004,0.138,0.038,0.183,0.095
					c0.045,0.057,0.063,0.129,0.05,0.2c-0.224,1.263-1.938,2.061-3.466,2.103C173.205,441.844,173.165,441.844,173.126,441.844z
					 M175.407,439.919c-1.444,0-3.154,0.151-3.548,0.62c-0.06,0.072-0.077,0.141-0.055,0.231c0.105,0.447,0.809,0.593,1.428,0.57
					c1.172-0.032,2.513-0.592,2.895-1.408C175.9,439.923,175.658,439.919,175.407,439.919z"/>
				<path id="XMLID_64_" style="fill:#FDF6D9;" d="M176.925,442.378c-0.016,0-0.032-0.001-0.048-0.004
					c-0.136-0.027-0.226-0.159-0.199-0.295c0.23-1.189-0.421-2.239-0.427-2.249c-0.053-0.085-0.051-0.194,0.006-0.277
					c0.057-0.083,0.158-0.125,0.256-0.104c0.281,0.056,1.085,0.198,1.437,0.164c0.476-0.042,1.785,0.038,1.841,0.042
					c0.139,0.009,0.244,0.128,0.235,0.267c-0.009,0.139-0.131,0.243-0.267,0.235c-0.013,0-1.327-0.083-1.764-0.043
					c-0.278,0.026-0.734-0.029-1.085-0.084c0.2,0.478,0.43,1.272,0.261,2.145C177.148,442.294,177.043,442.378,176.925,442.378z"/>
			</g>
			<path id="XMLID_31_" style="fill:#565599;" d="M145.543,217.189c0,0,10.387,145.872,10.387,156.435
				c0,10.563,1.509,55.079,1.509,55.079l23.845-1.29c0,0,10.667-171.899-4.757-212.565L145.543,217.189z"/>
			<path id="XMLID_39_" style="fill:#343A6A;" d="M155.378,421.376c0,0-1.258,8.3,0.503,9.055c1.761,0.755,26.912,0.503,27.164-1.76
				c0.252-2.264,1.509-7.797,0-7.797C181.536,420.873,155.378,421.376,155.378,421.376z"/>
		</g>
		<g>
			<g id="XMLID_8_">
				<polygon id="XMLID_41_" style="fill:#D28C73;" points="88.063,386.277 74.978,405.863 81.768,411.158 94.521,402.544 				"/>
				<path id="XMLID_38_" style="fill:#FDF6D9;" d="M76.421,404.02l-1.443,1.843l6.79,5.295l2.725-1.84
					C83.094,408.475,76.421,404.02,76.421,404.02z"/>
				<path id="XMLID_35_" style="fill:#565599;" d="M83.667,409.875c-2.494-1.882-4.885-3.581-7.705-5.268l-0.245,0.313
					c2.682,1.722,5.071,3.446,7.634,5.169L83.667,409.875z"/>
				<path id="XMLID_33_" style="fill:#49292E;" d="M90.615,433.336l-21.648-21.39l6.01-6.083l6.79,5.295
					c5.746,8.506,7.96,17.602,8.616,20.896C90.549,432.874,90.615,433.336,90.615,433.336z"/>
				<path id="XMLID_30_" style="fill:#FDF6D9;" d="M90.615,433.336l-21.648-21.39l0.615-0.623
					c8.329,8.053,13.892,14.003,20.801,20.73C90.549,432.874,90.615,433.336,90.615,433.336z"/>
				<path id="XMLID_29_" style="fill:#FDF6D9;" d="M83.546,419.632c-0.061-0.06-0.09-0.15-0.067-0.239
					c0.033-0.135,0.169-0.217,0.304-0.184c2.163,0.532,2.82,0.346,2.826,0.344c0.13-0.04,0.272,0.03,0.315,0.16
					c0.043,0.129-0.022,0.269-0.15,0.315c-0.073,0.026-0.782,0.243-3.112-0.33C83.616,419.686,83.577,419.663,83.546,419.632z"/>
				<path id="XMLID_28_" style="fill:#FDF6D9;" d="M84.672,422.071c-0.061-0.06-0.09-0.15-0.068-0.239
					c0.033-0.135,0.169-0.217,0.304-0.184c2.163,0.532,2.82,0.346,2.826,0.344c0.131-0.039,0.272,0.03,0.315,0.16
					c0.043,0.13-0.022,0.269-0.15,0.315c-0.073,0.026-0.782,0.243-3.112-0.33C84.742,422.125,84.703,422.102,84.672,422.071z"/>
				<path id="XMLID_22_" style="fill:#FDF6D9;" d="M82.53,417.171c-0.061-0.06-0.09-0.15-0.067-0.239
					c0.033-0.135,0.17-0.217,0.304-0.184c2.163,0.532,2.82,0.346,2.826,0.344c0.13-0.04,0.272,0.03,0.315,0.16
					c0.043,0.13-0.022,0.269-0.15,0.315c-0.073,0.027-0.782,0.243-3.112-0.33C82.601,417.224,82.562,417.201,82.53,417.171z"/>
				<path id="XMLID_19_" style="fill:#FDF6D9;" d="M83.386,414.112c-0.002-0.001-0.003-0.003-0.005-0.005
					c-0.07-0.073-0.09-0.181-0.049-0.274c0.17-0.394,1.066-2.365,2.008-2.532c0.182-0.032,0.451,0.008,0.704,0.251
					c0.253,0.267,0.257,0.538,0.216,0.718c-0.216,0.956-2.364,1.804-2.607,1.897C83.56,414.203,83.456,414.181,83.386,414.112z
					 M85.666,411.886c-0.099-0.098-0.176-0.1-0.239-0.09c-0.393,0.07-0.947,0.875-1.349,1.642c0.757-0.357,1.598-0.87,1.691-1.279
					c0.015-0.066,0.015-0.148-0.091-0.26C85.675,411.895,85.671,411.89,85.666,411.886z"/>
				<path id="XMLID_10_" style="fill:#FDF6D9;" d="M79.678,413.116c-0.708-0.7-0.938-1.426-0.614-1.956
					c0.131-0.214,0.333-0.34,0.584-0.364c1.269-0.119,3.817,2.652,4.102,2.968c0.048,0.053,0.072,0.125,0.064,0.196
					c-0.008,0.072-0.046,0.136-0.105,0.178c-1.047,0.741-2.828,0.104-3.943-0.94C79.735,413.172,79.706,413.144,79.678,413.116z
					 M82.654,413.35c-1.027-1.015-2.35-2.11-2.959-2.053c-0.093,0.009-0.154,0.047-0.202,0.125c-0.24,0.392,0.158,0.99,0.615,1.409
					c0.857,0.801,2.204,1.345,3.049,1.033C83.002,413.699,82.832,413.526,82.654,413.35z"/>
				<path id="XMLID_9_" style="fill:#FDF6D9;" d="M82.006,416.166c-0.011-0.011-0.022-0.024-0.031-0.037
					c-0.078-0.115-0.049-0.271,0.066-0.349c0.999-0.684,1.275-1.888,1.277-1.9c0.022-0.098,0.1-0.174,0.199-0.193
					c0.099-0.019,0.2,0.022,0.256,0.106c0.161,0.238,0.633,0.904,0.907,1.126c0.368,0.305,1.243,1.282,1.28,1.324
					c0.092,0.104,0.083,0.263-0.02,0.355c-0.104,0.093-0.264,0.081-0.355-0.02c-0.009-0.01-0.886-0.992-1.225-1.27
					c-0.216-0.177-0.501-0.537-0.713-0.822c-0.194,0.48-0.588,1.207-1.322,1.709C82.223,416.264,82.09,416.249,82.006,416.166z"/>
			</g>
			<path id="XMLID_6_" style="fill:#565599;" d="M114.166,214.848c-5.002,17.947-1.476,85.716,0.042,91.375
				c-10.343,8.82-31.753,85.326-31.753,85.326l16.941,14.315l43.936-89.058c0,0,7.898-84.002,5.155-96.85
				C148.487,219.955,116.085,212.705,114.166,214.848z"/>
			<path id="XMLID_1_" style="fill:#343A6A;" d="M82.431,386.277c0,0-6.382,5.455-5.544,7.177
				c0.838,1.723,20.025,17.987,21.696,16.44c1.671-1.548,6.243-4.91,5.101-5.897C102.543,403.01,82.431,386.277,82.431,386.277z"/>
		</g>
		<path style="fill:#D28C73;" d="M197.973,238.03c0,0-0.988,3.655-0.889,6.223c0.099,2.568,3.26,4.643,3.26,4.643
			s2.47-5.331,2.469-7.606C202.813,239.016,197.973,238.03,197.973,238.03z"/>
		<g>
			<polygon style="fill:#A5DFF7;" points="185.034,242.377 230.273,242.377 230.685,271.729 185.034,272.865 			"/>
			<polygon style="fill:#91CAD8;" points="185.034,272.865 179.751,272.273 179.317,242.377 185.034,242.377 			"/>
			<polygon style="fill:#FFFFFF;" points="185.034,271.285 180.835,270.976 180.49,242.377 185.034,242.377 			"/>
			<rect x="221.844" y="246.36" style="fill:#C5EDF9;" width="2.502" height="21.434"/>
			<rect x="217.68" y="248.83" style="fill:#C5EDF9;" width="1.926" height="16.495"/>
		</g>
		<path style="fill:#D28C73;" d="M199.367,237.339c0.387-0.102,2.285,4.963,2.478,5.301c0.741,1.297,1.901,2.337,2.627,3.686
			c0.747,1.388,1.293,2.886,1.604,4.432c0.285,1.416,0.377,2.863,0.61,4.288c0.083,0.507,0.313,1.13,0.826,1.151
			c0.577,0.024,0.823-0.717,0.877-1.292c0.238-2.518,0.123-4.944-0.158-7.454c1.002,2.262,0.712,4.908,1.556,7.233
			c0.104,0.286,0.294,0.613,0.598,0.605c0.31-0.008,0.481-0.358,0.558-0.658c0.378-1.475,0.31-3.011,0.238-4.517
			c-0.065-1.367-0.445-2.716-0.785-4.036c0.138,0.276,0.265,0.558,0.38,0.844c0.677,1.675,1.04,3.553,1.169,5.351
			c0.019,0.26,0.033,0.525,0.13,0.767c0.098,0.241,0.297,0.459,0.554,0.501c0.352,0.058,0.672-0.222,0.859-0.526
			c0.379-0.616,0.441-1.375,0.418-2.098c-0.028-0.866-0.039-1.67-0.298-2.49c-0.154-0.488-0.261-1.004-0.359-1.507
			c-0.04-0.203-0.022-1.165-0.13-1.277c0.57,0.591,1.201,4.092,1.695,4.142c1.679,0.445,1.383-3.424,0.247-5.877
			c-0.932-2.012-1.844-3.288-2.988-5.118c-0.171-0.274-1.812-4.324-1.97-4.282C210.103,234.507,199.393,237.332,199.367,237.339z"/>
		<path style="fill:#11AA94;" d="M181.243,133.427c0,0,8.953,4.014,16.707,33.448c6.728,25.541,12.153,65.578,12.153,65.578
			l-14.23,2.364l-18.715-61.315L181.243,133.427z"/>
		<path style="fill:#11AA94;" d="M113.291,133.427c0,0-24.594,27.262-24.594,59.527h11.982l12.384-12.623L113.291,133.427z"/>
		<path style="fill:#13B6A1;" d="M136.257,122.24c0,0,9.29-3.285,22.02,0l-3.58,6.534l-16.352,1.492L136.257,122.24z"/>
		<path style="fill:#FBAF25;" d="M181.47,133.427c-6.458-6.322-27.225-7.243-27.225-7.243h-6.906h-0.144h-6.906
			c0,0-20.767,0.922-27.225,7.243c-6.458,6.322,1.941,98.775,1.941,98.775h67.972C182.977,232.203,187.928,139.749,181.47,133.427z"
			/>
		<path style="fill:#FFC25F;" d="M149.277,131.847c3.546-0.709,5.677-2.833,7.071-5.525c-1.314-0.103-2.103-0.138-2.103-0.138
			h-6.906h-0.144h-6.906c0,0-1.309,0.058-3.371,0.245C139.918,130.297,143.403,132.948,149.277,131.847z"/>
		<g>
			<path style="fill:#D28C73;" d="M141.596,114.858l-1.307,11.326l0,0c3.583,4.584,10.519,4.584,14.102,0l0,0l-1.358-11.326H141.596
				z"/>
			<path style="fill:#BC7A66;" d="M141.596,114.858l-0.742,8.498c4.353-0.456,9.657-2.559,13.506-4.344l-1.328-4.154H141.596z"/>
		</g>
		<g>
			<path style="fill:#D28C73;" d="M174.607,81.508c0,27.818-10.837,38.662-27.267,38.662c-16.431,0-27.267-10.844-27.267-38.662
				c0-16.692,12.208-30.224,27.267-30.224C162.399,51.284,174.607,64.816,174.607,81.508z"/>
			<g>
				<path style="fill:#48282B;" d="M136.837,84.239c0,1.363-0.939,2.468-2.096,2.468c-1.158,0-2.096-1.105-2.096-2.468
					c0-1.363,0.939-2.468,2.096-2.468C135.898,81.77,136.837,82.875,136.837,84.239z"/>
			</g>
			<g>
				<path style="fill:#48282B;" d="M162.237,84.239c0,1.363-0.939,2.468-2.096,2.468c-1.158,0-2.096-1.105-2.096-2.468
					c0-1.363,0.939-2.468,2.096-2.468C161.298,81.77,162.237,82.875,162.237,84.239z"/>
			</g>
			<g>
				<path style="fill:#48282B;" d="M139.965,80.515c0,0,1-2.076-0.226-2.459c-1.225-0.383-8.067-0.35-9.836,0.904
					C128.134,80.214,135.534,79.071,139.965,80.515z"/>
				<path style="fill:#48282B;" d="M154.713,80.515c0,0-1-2.076,0.226-2.459c1.226-0.383,8.067-0.35,9.836,0.904
					C166.545,80.214,159.144,79.071,154.713,80.515z"/>
			</g>
			<path style="fill:#BC664B;" d="M146.775,83.118c-0.879,1.677-1.568,3.489-2.096,5.304c-0.68,2.335-1.867,5.398-1.019,7.781
				c0.184,0.515,0.457,1.024,0.906,1.337c0.694,0.484,1.622,0.394,2.461,0.283c0.435-0.057,0.889-0.122,1.249-0.372
				c0.36-0.251,0.589-0.749,0.391-1.141c-0.434,0.603-1.262,0.89-1.977,0.684C142.77,95.864,145.978,85.317,146.775,83.118z"/>
			<path style="fill:#FFFFFF;" d="M139.042,102.559c0,0,6.717,1.53,16.594,0C155.636,102.559,147.339,112.584,139.042,102.559z"/>
			<path style="fill:#48282B;" d="M156.348,57.561c0,0,8.621,14.244,13.44,19.095c4.818,4.852,4.014,12.933,4.014,12.933
				s7.102-7.909,7.686-16.014c0.583-8.105-12.459-23.833-21.347-22.291C151.253,52.827,156.348,57.561,156.348,57.561z"/>
			<path style="fill:#48282B;" d="M139.554,57.561c0,0-8.622,14.244-13.44,19.095S122.1,89.589,122.1,89.589
				s-7.102-7.909-7.686-16.014c-0.583-8.105,12.459-23.833,21.347-22.291C144.649,52.827,139.554,57.561,139.554,57.561z"/>
			<g>
				<g>
					<path style="fill:#D28C73;" d="M120.255,80.585c0,0-5.136-2.592-7.269,2.928c-2.611,6.757,4.389,15.349,8.924,13.733
						S120.255,80.585,120.255,80.585z"/>
					<path style="fill:#C17E68;" d="M119.596,92.6c0,0-0.263-9.351-3.029-8.561c-2.766,0.79-0.659,4.257-0.659,4.257
						s-0.659-2.742,0.395-2.775C117.358,85.488,118.148,86.805,119.596,92.6z"/>
				</g>
				<g>
					<path style="fill:#D28C73;" d="M174.423,80.585c0,0,5.136-2.592,7.269,2.928c2.611,6.757-4.389,15.349-8.924,13.733
						S174.423,80.585,174.423,80.585z"/>
					<path style="fill:#C17E68;" d="M175.082,92.6c0,0,0.264-9.351,3.029-8.561c2.766,0.79,0.659,4.257,0.659,4.257
						s0.658-2.742-0.395-2.775C177.321,85.488,176.531,86.805,175.082,92.6z"/>
				</g>
			</g>
			<path style="fill:#48282B;" d="M160.14,59.938c0,0-15.536,16.72-36.708,3.421c-5.763-4.211-10.1-7.131-10.1-8.931
				c0-1.8,2.51,1.602,9.152,0c6.643-1.602,19.282-14.565,37.656-3.145C163.642,57.279,160.14,59.938,160.14,59.938z"/>
		</g>
		<g>
			<g>
				<path style="fill:#13B6A1;" d="M140.516,136.588c-2.03-2.401-5.65-7.295-4.028-10.097c-6.37,0.617-18.526,2.364-23.197,6.937
					c-6.458,6.322-6.875,104.418-4.648,111.925c2.228,7.507,36.899,10.845,36.899,10.845c-1.951-33.584-1.032-83.458-0.99-111.342
					C143.374,141.232,142.029,138.378,140.516,136.588z"/>
				<path style="fill:#15C8AD;" d="M139.27,126.259l-3.013-4.019c0,0-7.92,3.141-5.399,12.887c2.521,9.746,2.775,9.743,2.775,9.743
					s9.672-3.161,10.878,0C144.511,144.87,141.666,137.311,139.27,126.259z"/>
			</g>
			<g>
				<path style="fill:#13B6A1;" d="M154.018,136.588c2.03-2.401,5.65-7.295,4.028-10.097c6.37,0.617,18.526,2.364,23.197,6.937
					c6.458,6.322,5.27,104.418,3.042,111.925c-2.228,7.507-35.294,10.845-35.294,10.845c1.951-33.584,1.032-83.458,0.99-111.342
					C151.16,141.232,152.505,138.378,154.018,136.588z"/>
				<path style="fill:#15C8AD;" d="M155.264,126.259l3.013-4.019c0,0,7.92,3.141,5.399,12.887c-2.521,9.746-2.775,9.743-2.775,9.743
					s-9.672-3.161-10.878,0C150.023,144.87,152.868,137.311,155.264,126.259z"/>
			</g>
		</g>
		<path style="fill:#D28C73;" d="M122.485,168.715c0,0,1.21-3.68,2.988-4.865c1.778-1.185,5.532-1.516,6.618-0.66
			c1.087,0.857-0.438,2.927-2.935,2.979c-2.497,0.052,0.595,3.987-2.581,4.834C123.398,171.851,122.485,168.715,122.485,168.715z"/>
		<path style="fill:#EE5D43;" d="M116.427,130.323l8.758-2.446c0.442-0.124,0.862,0.119,1.086,0.519
			c20.996,37.429,13.309,89.978-32.308,110.721c0,0-5.992-9.299-4.414-10.47c13.304-9.878,59.442-38.522,26.306-97.038
			C115.573,131.111,115.876,130.477,116.427,130.323z"/>
		<path style="fill:#138A77;" d="M107.311,198.283c0,0,14.836-10.221,18.656-18.244L107.311,198.283z"/>
		<g>
			<path style="fill:#D28C73;" d="M122.485,168.715c2.191-0.925,6.956-2.69,9.205-3.462c1.313-0.45,2.604-0.901,3.938-1.29
				c0.43-0.126,0.944-0.235,1.285,0.055c0.106,0.09,0.182,0.21,0.255,0.329c0.423,0.677,0.645,1.337,0.99,2.027
				c0.187,0.802,0.151,1.675,0.546,2.398c0.187,0.343,0.466,0.638,0.602,1.005c0.332,0.896-0.274,1.892-0.114,2.834
				c0.104,0.617,0.533,1.22,0.34,1.815c-0.111,0.343-0.412,0.597-0.535,0.936c-0.124,0.344-0.049,0.725-0.085,1.088
				c-0.073,0.726-0.602,1.345-1.235,1.706c-0.634,0.361-1.366,0.504-2.087,0.618c-1.818,0.287-3.66,0.423-5.5,0.405
				c-0.488-0.005-0.993-0.024-1.433-0.236c-0.622-0.3-1.006-0.929-1.347-1.529C126.931,176.748,122.928,168.527,122.485,168.715z"/>
			<path style="fill:#138A77;" d="M120.66,169.777c0,0-22.482,1.712-29.688,15.175L120.66,169.777z"/>
			<path style="fill:#13B6A1;" d="M90.972,184.952c0,0,12.133-13.2,29.688-15.175c5.307,0,5.307,10.262,5.307,10.262
				s-15.938,20.254-26.472,21.741C88.3,203.36,86.386,190.234,90.972,184.952z"/>
			<path style="fill:#15C8AD;" d="M116.484,169.777c0,0,2.537,2.896,4.984,7.687c0.988,2.381,2.723,5.523,2.723,5.523
				s6.584-2.409,6.171-3.428c-0.413-1.019-4.684-11.536-6.28-12.458C121.514,165.916,116.484,169.777,116.484,169.777z"/>
		</g>
		<path style="fill:#15C8AD;" d="M193.964,233.02l1.91,6.558c0,0,15.393-0.502,16.647-3.951c-0.594-5.683-1.726-6.19-1.726-6.19
			L193.964,233.02z"/>
	</g>
	<g>
		<g>
			<path style="fill:#6C7514;" d="M328.129,231.943c0,0,6.992-12.62,24.64-3.862c17.647,8.758,20.894,29.199,19.325,33.548
				c-1.569,4.35-25.471,7.228-25.471,7.228L328.129,231.943z"/>
			<path style="fill:#6C7514;" d="M339.824,286.867c0,0-4.564-0.737-22.304-14.911c-5.37-4.291,3.802-39.515,10.609-40.012
				C334.936,231.446,345.647,278.951,339.824,286.867z"/>
			<path style="fill:#7C8C1F;" d="M328.129,231.943c0,0,14.938-7.676,23.497-1.384c6.508,4.785,15.347,43.023,14.345,49.531
				c-1.001,6.508-27.213,9.543-29.049,5.131C333.935,278.039,324.166,236.921,328.129,231.943z"/>
			<path style="fill:#6C7514;" d="M328.129,231.943c0,0,18.494-10.395,27.19,4.122C355.319,236.066,347.558,215.165,328.129,231.943
				z"/>
			<path style="fill:#A7E6F9;" d="M336.322,239.307c-1.693,0.837-2.513,2.051-2.228,3.877c0.025,0.161,0.061,0.33,0.102,0.502
				c0.056,0.211,0.122,0.418,0.205,0.621c1.879,4.562,9.073,4.334,9.073-1.167C343.475,239.354,339.595,237.691,336.322,239.307z
				 M335.529,243.995c-0.061-0.149-0.112-0.304-0.151-0.46c-0.032-0.127-0.056-0.251-0.075-0.373
				c-0.212-1.352,0.395-2.253,1.651-2.871c2.426-1.198,5.302,0.034,5.302,2.84C342.255,247.207,336.922,247.375,335.529,243.995z"/>
			<path style="fill:#91A828;" d="M336.765,247.514c0,0-0.376-2.427,0.469-2.427c0.845,0,4.619-0.722,4.7-0.657
				c0.081,0.065,1.401,2.32,0.932,3.085C342.397,248.279,337.657,248.719,336.765,247.514z"/>
			<path style="fill:#6C7514;" d="M336.682,264.728c0,0,17.259-1.12,21.765-7.037c0,0,6.946,21.491-6.383,24.151
				C338.734,284.501,336.682,264.728,336.682,264.728z"/>
		</g>
		<g id="XMLID_241_">
			<polygon id="XMLID_279_" style="fill:#D28C73;" points="288.995,424.929 294.02,381.519 274.802,380.19 279.47,441.118 
				287.161,439.497 			"/>
			<g id="XMLID_242_">
				<path id="XMLID_275_" style="fill:#FDF6D9;" d="M279.18,436.768l0.07,2.727l8.103-0.951l0.458-3.44
					C286.307,435.467,279.18,436.768,279.18,436.768z"/>
			</g>
		</g>
		<g id="XMLID_238_">
			<polygon id="XMLID_240_" style="fill:#D28C73;" points="332.661,424.49 329.051,380.317 315.904,381.79 326.2,442.126 
				333.474,439.15 			"/>
			<g id="XMLID_267_">
				<path id="XMLID_289_" style="fill:#FDF6D9;" d="M325.133,437.899l0.559,2.67l7.8-2.391l-0.167-3.467
					C331.911,435.339,325.133,437.899,325.133,437.899z"/>
			</g>
		</g>
		<path id="XMLID_301_" style="fill:#232B56;" d="M337.096,436.798c-1.027-24.649-1.717-162.167-3.877-188.277
			c-0.92-11.119-13.769-6.288-17.571-16.777l-0.895-2.47l-12.13,1.02c-3.243,0.273-6.501,0.312-9.749,0.117l-16.966-1.018l0,0
			c-3.337,12.279-12.635,9.747-12.162,22.462c0.984,26.456,12.906,163.766,11.909,187.708l18.678-1.923l5.352-169.405
			l22.317,171.878L337.096,436.798z"/>
		<path style="fill:#3F2225;" d="M268.371,82.516c0,0-16.12,32.37,4.686,63.403c0,0,44.925,5.632,53.799-2.513
			c0,0,14.506-28.519,5.296-56.028C317.392,68.109,268.371,82.516,268.371,82.516z"/>
		<path style="fill:#4385F5;" d="M334.615,246.457c0.034-3.772-1.91-7.41-2.988-10.941c-1.863-6.099-3.317-12.347-2.975-18.768
			c0.433-8.123,2.427-16.418,3.553-24.477c1.591-11.391,4.315-31.879,0.367-43.189c-3.54-10.138-26.484-6.884-26.484-6.884
			l-8.092-0.497c0,0.166,0.001,0.332,0.001,0.497c-2.343,0-5.728,0-5.728,0s-22.945-3.255-26.485,6.884
			c-3.948,11.31-1.224,31.799,0.368,43.189c1.126,8.059,3.12,16.353,3.553,24.476c0.436,8.192-2.078,15.962-4.521,23.665
			c-0.587,1.852-1.669,4.063-1.82,6c-0.165,2.115,1.189,2.243,3.223,2.884c3.958,1.246,8.169,1.4,12.284,1.548
			c3.512,0.126,7.024,0.252,10.536,0.378c14.485,0.519,29.699,1.236,43.813-2.702c0.387-0.108,0.796-0.235,1.054-0.542
			c0.263-0.313,0.315-0.748,0.332-1.157C334.611,246.7,334.614,246.579,334.615,246.457z"/>
		<path style="fill:#EF5E43;" d="M283.915,218.92c8.8-24.991,5.39-51.303,4.62-77.078c-6.652-0.433-20.108-0.329-22.751,7.24
			c-3.948,11.31-1.224,31.799,0.368,43.189c1.126,8.059,3.12,16.353,3.553,24.476c0.385,7.22-1.523,14.113-3.654,20.921
			c2.308-0.819,4.533-1.933,6.601-3.354C277.908,230.559,281.663,224.927,283.915,218.92z"/>
		<path style="fill:#EF5E43;" d="M274.908,142.625c0,0-13.021,0.449-16.65,10.337c-3.63,9.887-9.989,41.712-8.487,43.339
			c1.502,1.627,11.018,7.452,13.654,3.072c2.636-4.38,12.606-37.65,12.606-37.65S279.543,145.68,274.908,142.625z"/>
		<path style="fill:#EF5E43;" d="M323.731,142.625c0,0,13.021,0.449,16.65,10.337c3.63,9.887,9.989,41.712,8.487,43.339
			c-1.502,1.627-11.018,7.452-13.654,3.072c-2.636-4.38-12.606-37.65-12.606-37.65S319.096,145.68,323.731,142.625z"/>
		<path style="fill:#EF5E43;" d="M328.652,216.748c0.433-8.123,2.427-16.418,3.553-24.477c1.591-11.391,4.315-31.879,0.367-43.189
			c-2.353-6.738-13.275-7.56-20.338-7.354c0.796,27.293-4.56,55.146,5.474,80.946c2.58,6.924,7.664,10.804,13.867,12.67
			C329.737,229.3,328.313,223.109,328.652,216.748z"/>
		<g>
			<path style="fill:#D28C73;" d="M293.512,131.435l-1.242,10.763l0,0c3.405,4.357,9.996,4.357,13.401,0l0,0l-1.291-10.763H293.512z
				"/>
			<path style="fill:#BC7A66;" d="M293.512,131.435l-0.705,8.076c4.137-0.433,9.177-2.432,12.835-4.128l-1.263-3.948H293.512z"/>
		</g>
		<g>
			<path style="fill:#D28C73;" d="M324.883,99.742c0,26.436-18.028,36.741-25.913,36.741c-7.885,0-25.913-10.305-25.913-36.741
				c0-15.863,11.601-28.722,25.913-28.722C313.281,71.019,324.883,83.879,324.883,99.742z"/>
			<g>
				<path style="fill:#48282B;" d="M288.989,102.337c0,1.295-0.892,2.345-1.992,2.345c-1.1,0-1.992-1.05-1.992-2.345
					c0-1.295,0.892-2.345,1.992-2.345C288.098,99.991,288.989,101.041,288.989,102.337z"/>
			</g>
			<g>
				<path style="fill:#48282B;" d="M313.128,102.337c0,1.295-0.892,2.345-1.992,2.345s-1.992-1.05-1.992-2.345
					c0-1.295,0.892-2.345,1.992-2.345S313.128,101.041,313.128,102.337z"/>
			</g>
			<g>
				<path style="fill:#48282B;" d="M291.53,98.14c0.095-0.066,0.172-0.153,0.223-0.267c0.068-0.156,0.067-0.333,0.061-0.503
					c-0.032-0.991-0.272-0.999-1.197-1.065c-1.954-0.14-4.098-0.232-6.033,0.11c-1.139,0.202-2.264,0.629-3.128,1.399
					c-0.109,0.097-0.221,0.218-0.216,0.364c0.011,0.306,0.448,0.343,0.749,0.287c2.773-0.515,5.625-0.424,8.433-0.16
					C290.796,98.34,291.244,98.337,291.53,98.14z"/>
				<path style="fill:#48282B;" d="M305.899,98.14c-0.095-0.066-0.172-0.153-0.223-0.267c-0.068-0.156-0.067-0.333-0.061-0.503
					c0.032-0.991,0.272-0.999,1.197-1.065c1.954-0.14,4.098-0.232,6.033,0.11c1.139,0.202,2.264,0.629,3.128,1.399
					c0.109,0.097,0.221,0.218,0.216,0.364c-0.011,0.306-0.449,0.343-0.749,0.287c-2.773-0.515-5.625-0.424-8.433-0.16
					C306.633,98.34,306.184,98.337,305.899,98.14z"/>
			</g>
			<path style="fill:#BC664B;" d="M298.434,101.272c-0.835,1.594-1.49,3.316-1.992,5.041c-0.646,2.219-1.774,5.13-0.968,7.394
				c0.174,0.49,0.434,0.973,0.861,1.271c0.659,0.46,1.541,0.374,2.339,0.269c0.413-0.054,0.844-0.116,1.187-0.354
				c0.342-0.238,0.559-0.712,0.371-1.084c-0.412,0.573-1.2,0.846-1.878,0.65C294.628,113.385,297.676,103.361,298.434,101.272z"/>
			<path style="fill:#C33A21;" d="M291.085,119.747c0,0,7.885,6.18,15.77,0C306.855,119.747,299.685,129.307,291.085,119.747z"/>
			<g>
				<g>
					<path style="fill:#D28C73;" d="M273.231,98.865c0,0-4.881-2.463-6.908,2.782c-2.481,6.421,4.171,14.587,8.481,13.051
						C279.114,113.162,273.231,98.865,273.231,98.865z"/>
					<path style="fill:#C17E68;" d="M272.605,110.283c0,0-0.25-8.886-2.879-8.135s-0.626,4.045-0.626,4.045
						s-0.626-2.606,0.375-2.637C270.478,103.524,271.229,104.776,272.605,110.283z"/>
				</g>
				<g>
					<path style="fill:#D28C73;" d="M324.709,98.865c0,0,4.881-2.463,6.908,2.782c2.481,6.421-4.171,14.587-8.481,13.051
						C318.826,113.162,324.709,98.865,324.709,98.865z"/>
					<path style="fill:#C17E68;" d="M325.335,110.283c0,0,0.25-8.886,2.879-8.135c2.628,0.751,0.626,4.045,0.626,4.045
						s0.626-2.606-0.375-2.637C327.462,103.524,326.711,104.776,325.335,110.283z"/>
				</g>
			</g>
		</g>
		<path style="fill:#48282B;" d="M305.612,80.182c0,0-4.129,11.047-29.23,19.809c-11.366,6.202,0,24.005,0,24.005
			s-19.571-8.496-10.608-34.826c9.13-26.823,22.895-26.481,33.911-23.227L305.612,80.182z"/>
		<path style="fill:#48282B;" d="M305.612,80.182c0,0,2.709,13.517,21.244,22.154c4.181,1.125,2.713,19.535,2.713,19.535
			s7.288-17.283,4.472-27.797c-2.816-10.513-9.514-37.769-34.356-28.132L305.612,80.182z"/>
		<path style="fill:#48282B;" d="M263.27,99.991c0,0-10.959,40.135,9.787,45.927h4.475c0,0-13.517-5.282-11.748-37.618
			C266.012,104.144,262.928,105.069,263.27,99.991z"/>
		<path style="fill:#48282B;" d="M334.336,96.179c0,0,11.339,43.948-9.407,49.74h-4.475c0,0,13.517-5.282,11.748-37.618
			C331.974,104.144,334.677,101.257,334.336,96.179z"/>
		<path style="fill:#EF5E43;" d="M245.871,195.822"/>
		<path style="fill:#91A828;" d="M318.733,140.636c0,0,0.29,61.716,10.208,74.529c7.616,10.513,6.543,26.61,6.543,26.61
			s2.495,2.847,6.335-0.323c0.788-7.791,0.365-15.549-8.658-31.868c-9.022-16.32-8.682-68.947-8.682-68.947
			S320.884,136.321,318.733,140.636z"/>
		<g>
			<rect x="278.659" y="170.362" style="fill:#565599;" width="43.555" height="51.565"/>
			<polygon style="fill:#494987;" points="278.659,170.362 281.271,167.546 322.214,167.546 322.214,170.362 			"/>
			<polygon style="fill:#FFFFFF;" points="280.067,170.362 281.85,168.485 322.214,168.485 322.214,170.362 			"/>
		</g>
		<g>
			<path style="opacity:0.5;fill:#EF5E43;" d="M265.556,194.3c0,0,17.782-2.827,44.542-0.884
				C310.098,193.416,267.542,194.456,265.556,194.3z"/>
			<g>
				<path style="fill:#D28C73;" d="M310.098,193.416c0,0,2.729-7.913,4.106-8.664c1.377-0.751,0.751,2.907,0,4.332
					c0.066-0.124,0.632-0.279,0.757-0.339c0.677-0.326,1.333-0.699,1.96-1.112c0.821-0.541,1.6-1.155,2.28-1.866
					c0.725-0.758,1.115-1.703,1.867-2.407c0.08-0.074,0.167-0.153,0.275-0.166c0.208-0.026,0.361,0.191,0.429,0.389
					c0.236,0.693,0.052,1.46-0.237,2.133c-0.374,0.869-0.811,1.71-1.355,2.483c-0.322,0.457-0.686,0.886-1.101,1.262
					c0.115-0.095,0.23-0.19,0.343-0.288c0.598-0.515,1.139-1.094,1.615-1.724c0.487-0.645,0.828-1.357,1.311-1.998
					c0.182-0.241,0.372-0.49,0.639-0.631c0.267-0.141,0.633-0.143,0.838,0.079c0.151,0.164,0.18,0.406,0.173,0.628
					c-0.016,0.499-0.178,0.977-0.407,1.417c-0.169,0.326-0.421,0.619-0.624,0.932c-0.76,1.173-1.391,2.403-2.521,3.275
					c0.174,0.006,0.326-0.113,0.456-0.229c0.989-0.882,1.624-2.037,2.413-3.084c0.228-0.302,1.002-1.145,1.14-0.364
					c0.109,0.621-0.172,1.275-0.45,1.815c-0.229,0.445-0.534,0.821-0.837,1.215c-0.311,0.404-0.572,0.834-0.945,1.195
					c-0.056,0.055-0.119,0.126-0.096,0.201c0.504-0.16,0.82-0.643,1.212-0.998c0.123-0.112,0.279-0.219,0.443-0.19
					c0.166,0.03,0.28,0.196,0.302,0.363c0.023,0.167-0.025,0.335-0.075,0.495c-0.164,0.53-0.465,0.981-0.674,1.481
					c-0.229,0.547-0.766,1.034-1.196,1.428c-1.516,1.389-3.316,2.127-4.97,3.247c-1.666,1.128-3.58,2.111-5.662,1.794
					C306.569,198.769,310.098,193.416,310.098,193.416z"/>
				<path style="fill:#EF5E43;" d="M250.192,188.523c0,0-3.088,16.542,5.173,23.551c8.26,7.009,57.551-12.212,57.551-12.212
					l-2.818-6.446c0,0-38.268-0.6-44.542,0.884C259.283,195.785,250.192,188.523,250.192,188.523z"/>
			</g>
			<path style="fill:#C9442B;" d="M265.556,194.3c0,0-4.67-1.435-8.299,3.895C257.257,198.195,259.963,195.964,265.556,194.3z"/>
		</g>
		<path style="opacity:0.5;fill:#EF5E43;" d="M332.204,192.271c0,0-36.055,9.994-44.8,16.584L332.204,192.271z"/>
		<g>
			<path style="fill:#D28C73;" d="M287.404,208.856c0,0-7.637-3.427-9.127-2.938c-1.49,0.49,1.605,2.537,3.158,2.965
				c-0.136-0.037-0.636,0.27-0.766,0.32c-0.701,0.27-1.422,0.493-2.152,0.668c-0.956,0.228-1.937,0.376-2.922,0.385
				c-1.049,0.01-2.004-0.353-3.033-0.286c-0.109,0.007-0.226,0.017-0.31,0.087c-0.161,0.134-0.108,0.394-0.01,0.579
				c0.344,0.646,1.029,1.038,1.717,1.287c0.89,0.322,1.801,0.579,2.738,0.712c0.554,0.078,1.116,0.106,1.673,0.061
				c-0.148,0.019-0.296,0.037-0.445,0.053c-0.784,0.083-1.578,0.081-2.362-0.003c-0.803-0.087-1.556-0.325-2.354-0.412
				c-0.3-0.033-0.612-0.064-0.897,0.034s-0.537,0.364-0.515,0.665c0.016,0.222,0.172,0.409,0.34,0.556
				c0.375,0.33,0.834,0.539,1.311,0.674c0.354,0.1,0.74,0.117,1.106,0.183c1.375,0.249,2.704,0.63,4.113,0.404
				c-0.115,0.131-0.305,0.16-0.479,0.176c-1.319,0.117-2.597-0.211-3.9-0.352c-0.376-0.041-1.521-0.053-1.045,0.582
				c0.378,0.505,1.047,0.747,1.631,0.915c0.481,0.138,0.965,0.173,1.459,0.221c0.507,0.05,1,0.154,1.518,0.13
				c0.078-0.004,0.174-0.001,0.212,0.068c-0.462,0.258-1.03,0.158-1.557,0.2c-0.166,0.013-0.351,0.053-0.441,0.193
				c-0.092,0.141-0.048,0.338,0.057,0.469c0.106,0.131,0.261,0.21,0.413,0.284c0.499,0.243,1.034,0.332,1.541,0.522
				c0.556,0.208,1.278,0.149,1.86,0.105c2.05-0.154,3.821-0.961,5.769-1.4c1.963-0.442,3.989-1.165,5.184-2.9
				C293.722,209.948,287.404,208.856,287.404,208.856z"/>
			<path style="fill:#EF5E43;" d="M348.613,189.685c0,0,5.016,19.661-3.62,21.726c-8.636,2.065-55.163,3.755-55.163,3.755
				l-2.425-6.309C287.404,208.856,336.632,187.599,348.613,189.685z"/>
		</g>
		<path style="fill:#C9442B;" d="M332.204,192.271c0,0,5.154-2.184,8.705-2.083C340.909,190.189,336.094,188.996,332.204,192.271z"
			/>
		<g>
			<path id="XMLID_273_" style="fill:#13B6A1;" d="M308.084,447.606l-28.836-0.009l0.002-8.103l8.103-0.951
				c9.537,1.909,17.085,6.568,19.72,8.352C307.731,447.339,308.084,447.606,308.084,447.606z"/>
			<path id="XMLID_36_" style="fill:#FDF6D9;" d="M308.084,447.606l-28.836-0.009l0-0.829c10.977-0.116,18.688,0.191,27.825,0.127
				C307.731,447.339,308.084,447.606,308.084,447.606z"/>
			<path id="XMLID_32_" style="fill:#FDF6D9;" d="M294.194,443.074c-0.081,0-0.16-0.041-0.205-0.116
				c-0.067-0.113-0.03-0.259,0.083-0.327c1.813-1.081,2.131-1.645,2.134-1.65c0.061-0.114,0.203-0.161,0.319-0.102
				c0.115,0.059,0.164,0.195,0.109,0.312c-0.032,0.066-0.366,0.685-2.318,1.85C294.277,443.063,294.235,443.074,294.194,443.074z"/>
			<path id="XMLID_278_" style="fill:#FDF6D9;" d="M296.577,443.968c-0.081,0-0.16-0.041-0.205-0.116
				c-0.068-0.113-0.03-0.259,0.082-0.327c1.813-1.081,2.131-1.645,2.134-1.65c0.061-0.114,0.203-0.161,0.319-0.102
				c0.115,0.059,0.164,0.195,0.109,0.312c-0.032,0.067-0.366,0.684-2.318,1.849C296.66,443.957,296.618,443.968,296.577,443.968z"/>
			<path id="XMLID_282_" style="fill:#FDF6D9;" d="M291.871,442.09c-0.081,0-0.16-0.041-0.205-0.116
				c-0.067-0.113-0.03-0.259,0.083-0.327c1.813-1.081,2.132-1.644,2.134-1.65c0.061-0.115,0.203-0.161,0.319-0.102
				c0.115,0.059,0.164,0.196,0.109,0.312c-0.032,0.067-0.366,0.684-2.318,1.849C291.954,442.079,291.912,442.09,291.871,442.09z"/>
			<path id="XMLID_244_" style="fill:#FDF6D9;" d="M290.411,439.458c-0.002,0-0.004,0-0.007,0c-0.096-0.003-0.181-0.062-0.215-0.152
				c-0.147-0.379-0.856-2.304-0.332-3.044c0.101-0.142,0.29-0.297,0.642-0.3c0.348,0.011,0.531,0.191,0.624,0.34
				c0.491,0.789-0.393,2.79-0.495,3.016C290.59,439.404,290.505,439.458,290.411,439.458z M290.466,436.439
				c-0.132,0-0.185,0.05-0.22,0.099c-0.219,0.309-0.056,1.221,0.184,2.005c0.273-0.745,0.499-1.651,0.289-1.988
				c-0.034-0.054-0.088-0.11-0.234-0.115C290.478,436.439,290.472,436.439,290.466,436.439z"/>
			<path id="XMLID_243_" style="fill:#FDF6D9;" d="M287.25,441.256c-0.944,0-1.583-0.336-1.718-0.91
				c-0.055-0.232-0.002-0.451,0.152-0.634c0.776-0.925,4.337-0.753,4.741-0.729c0.068,0.004,0.131,0.037,0.173,0.09
				c0.042,0.054,0.06,0.123,0.048,0.19c-0.213,1.197-1.837,1.953-3.284,1.992C287.324,441.255,287.287,441.256,287.25,441.256z
				 M289.404,439.431c-1.367,0-2.983,0.143-3.355,0.586c-0.057,0.068-0.073,0.134-0.053,0.219c0.1,0.424,0.763,0.562,1.353,0.541
				c1.111-0.03,2.381-0.561,2.743-1.333C289.875,439.436,289.643,439.431,289.404,439.431z"/>
			<path id="XMLID_26_" style="fill:#FDF6D9;" d="M290.848,441.762c-0.015,0-0.03-0.001-0.046-0.004
				c-0.129-0.025-0.214-0.15-0.188-0.279c0.217-1.119-0.398-2.122-0.404-2.132c-0.05-0.08-0.048-0.184,0.006-0.262
				c0.054-0.078,0.148-0.118,0.243-0.098c0.267,0.053,1.031,0.185,1.361,0.155c0.449-0.04,1.692,0.036,1.744,0.039
				c0.131,0.009,0.231,0.122,0.223,0.253c-0.008,0.131-0.126,0.237-0.253,0.223c-0.012-0.001-1.258-0.078-1.672-0.04
				c-0.262,0.025-0.695-0.029-1.028-0.081c0.189,0.453,0.407,1.206,0.247,2.033C291.06,441.683,290.96,441.762,290.848,441.762z"/>
		</g>
		<g>
			<path id="XMLID_283_" style="fill:#13B6A1;" d="M355.513,443.369l-28.368,5.171l-1.453-7.971l7.8-2.391
				c9.725,0.165,17.987,3.392,20.9,4.673C355.118,443.17,355.513,443.369,355.513,443.369z"/>
			<path id="XMLID_280_" style="fill:#FDF6D9;" d="M355.513,443.369l-28.368,5.171l-0.149-0.816
				c10.777-2.086,18.419-3.169,27.396-4.873C355.118,443.17,355.513,443.369,355.513,443.369z"/>
			<path id="XMLID_271_" style="fill:#FDF6D9;" d="M340.992,441.41c-0.066,0-0.132-0.027-0.179-0.081
				c-0.087-0.099-0.077-0.249,0.022-0.336c1.589-1.39,1.801-2.001,1.803-2.007c0.04-0.123,0.173-0.194,0.296-0.158
				c0.124,0.037,0.197,0.163,0.163,0.288c-0.019,0.071-0.237,0.739-1.948,2.236C341.104,441.39,341.048,441.41,340.992,441.41z"/>
			<path id="XMLID_270_" style="fill:#FDF6D9;" d="M343.497,441.861c-0.066,0-0.132-0.027-0.179-0.081
				c-0.087-0.099-0.077-0.249,0.022-0.336c1.589-1.39,1.801-2.001,1.803-2.007c0.04-0.123,0.173-0.194,0.296-0.158
				c0.124,0.037,0.197,0.163,0.163,0.288c-0.019,0.071-0.236,0.739-1.948,2.235C343.609,441.842,343.553,441.861,343.497,441.861z"
				/>
			<path id="XMLID_417_" style="fill:#FDF6D9;" d="M338.53,440.859c-0.066,0-0.132-0.027-0.179-0.081
				c-0.087-0.099-0.077-0.25,0.022-0.336c1.589-1.389,1.801-2.001,1.803-2.007c0.041-0.123,0.171-0.195,0.296-0.158
				c0.124,0.037,0.197,0.163,0.163,0.288c-0.019,0.071-0.237,0.74-1.948,2.236C338.642,440.839,338.586,440.859,338.53,440.859z"/>
			<path id="XMLID_269_" style="fill:#FDF6D9;" d="M336.622,438.532c-0.082,0-0.159-0.042-0.203-0.114
				c-0.212-0.345-1.255-2.112-0.873-2.934c0.073-0.159,0.234-0.359,0.577-0.41c0.345-0.053,0.557,0.092,0.675,0.222
				c0.624,0.688,0.115,2.815,0.055,3.055c-0.023,0.093-0.1,0.163-0.195,0.178C336.646,438.531,336.634,438.532,336.622,438.532z
				 M336.264,435.54c-0.021,0-0.044,0.002-0.069,0.006c-0.143,0.022-0.19,0.083-0.216,0.14c-0.159,0.343,0.165,1.21,0.541,1.939
				c0.135-0.782,0.194-1.714-0.073-2.008C336.41,435.577,336.361,435.54,336.264,435.54z"/>
			<path id="XMLID_268_" style="fill:#FDF6D9;" d="M333.292,440.921c-0.629,0-1.085-0.224-1.267-0.643
				c-0.096-0.218-0.083-0.443,0.035-0.651c0.598-1.049,4.132-1.519,4.534-1.569c0.068-0.009,0.135,0.013,0.187,0.057
				c0.051,0.045,0.081,0.11,0.081,0.178c0.005,1.215-1.456,2.251-2.873,2.549C333.738,440.895,333.505,440.921,333.292,440.921z
				 M336.348,438.571c-1.436,0.208-3.537,0.7-3.874,1.291c-0.044,0.077-0.048,0.144-0.013,0.224
				c0.174,0.399,0.852,0.411,1.428,0.289C334.977,440.147,336.131,439.397,336.348,438.571z"/>
			<path id="XMLID_34_" style="fill:#FDF6D9;" d="M337.465,440.72c-0.001,0-0.002,0-0.002,0c-0.132-0.001-0.238-0.109-0.237-0.241
				c0.013-1.147-0.772-2.015-0.78-2.024c-0.065-0.07-0.081-0.172-0.042-0.259c0.039-0.087,0.127-0.132,0.221-0.141
				c0.273,0.004,1.048-0.003,1.367-0.091c0.435-0.121,1.671-0.268,1.723-0.274c0.129-0.021,0.25,0.078,0.264,0.208
				c0.016,0.131-0.078,0.249-0.208,0.264c-0.013,0.002-1.251,0.149-1.651,0.26c-0.255,0.071-0.689,0.097-1.026,0.105
				c0.268,0.412,0.617,1.113,0.608,1.956C337.702,440.615,337.595,440.72,337.465,440.72z"/>
		</g>
	</g>
	<path style="fill:#C3E9F8;" d="M681.033,447.174c0,3.838-23.789,6.948-53.133,6.948c-29.345,0-53.133-3.111-53.133-6.948
		c0-3.837,23.789-6.948,53.133-6.948C657.244,440.225,681.033,443.336,681.033,447.174z"/>
	<g>
		<g>
			<g id="XMLID_146_">
				<path id="XMLID_150_" style="fill:#D28C73;" d="M612.393,337.161l1.351-21.395l-26.363-1.104c0,0,0.982,7.589,6.16,38.302
					c-6.896,44.998,1.765,86.531,1.765,86.531l7.91,0.002L612.393,337.161z"/>
				<g id="XMLID_147_">
					<path id="XMLID_148_" style="fill:#FDF6D9;" d="M594.289,433.95l1.015,5.919l8.105-1.325l0.458-3.44
						C602.362,435.467,594.289,433.95,594.289,433.95z"/>
				</g>
			</g>
			<g>
				<path id="XMLID_138_" style="fill:#EF5E43;" d="M624.139,447.606l-28.836-0.009l0.002-8.103l8.103-0.951
					c9.537,1.909,17.085,6.568,19.72,8.352C623.786,447.339,624.139,447.606,624.139,447.606z"/>
				<path id="XMLID_136_" style="fill:#FDF6D9;" d="M624.139,447.606l-28.836-0.009l0-0.829c10.977-0.116,18.688,0.191,27.825,0.127
					C623.786,447.339,624.139,447.606,624.139,447.606z"/>
				<path id="XMLID_135_" style="fill:#FDF6D9;" d="M610.249,443.074c-0.081,0-0.16-0.041-0.205-0.116
					c-0.067-0.113-0.03-0.259,0.083-0.327c1.813-1.081,2.131-1.645,2.134-1.65c0.061-0.114,0.203-0.161,0.319-0.102
					c0.115,0.059,0.164,0.195,0.109,0.312c-0.032,0.066-0.366,0.685-2.318,1.85C610.332,443.063,610.29,443.074,610.249,443.074z"/>
				<path id="XMLID_134_" style="fill:#FDF6D9;" d="M612.632,443.968c-0.081,0-0.161-0.041-0.205-0.116
					c-0.068-0.113-0.031-0.259,0.082-0.327c1.813-1.081,2.131-1.645,2.134-1.65c0.061-0.114,0.203-0.161,0.319-0.102
					c0.115,0.059,0.164,0.195,0.109,0.312c-0.032,0.067-0.366,0.684-2.318,1.849C612.715,443.957,612.673,443.968,612.632,443.968z"
					/>
				<path id="XMLID_133_" style="fill:#FDF6D9;" d="M607.926,442.09c-0.081,0-0.161-0.041-0.205-0.116
					c-0.068-0.113-0.03-0.259,0.083-0.327c1.813-1.081,2.132-1.644,2.134-1.65c0.061-0.115,0.203-0.161,0.319-0.102
					c0.115,0.059,0.164,0.196,0.109,0.312c-0.032,0.067-0.366,0.684-2.318,1.849C608.009,442.079,607.967,442.09,607.926,442.09z"/>
				<path id="XMLID_129_" style="fill:#FDF6D9;" d="M606.466,439.458c-0.002,0-0.004,0-0.006,0
					c-0.096-0.003-0.181-0.062-0.216-0.152c-0.147-0.379-0.856-2.304-0.332-3.044c0.101-0.142,0.29-0.297,0.642-0.3
					c0.348,0.011,0.531,0.191,0.624,0.34c0.491,0.789-0.393,2.79-0.495,3.016C606.645,439.404,606.56,439.458,606.466,439.458z
					 M606.521,436.439c-0.132,0-0.185,0.05-0.22,0.099c-0.219,0.309-0.056,1.221,0.183,2.005c0.273-0.745,0.499-1.651,0.289-1.988
					c-0.034-0.054-0.088-0.11-0.234-0.115C606.533,436.439,606.527,436.439,606.521,436.439z"/>
				<path id="XMLID_114_" style="fill:#FDF6D9;" d="M603.305,441.256c-0.944,0-1.583-0.336-1.718-0.91
					c-0.055-0.232-0.002-0.451,0.152-0.634c0.776-0.925,4.337-0.753,4.741-0.729c0.068,0.004,0.131,0.037,0.173,0.09
					c0.042,0.054,0.06,0.123,0.048,0.19c-0.213,1.197-1.837,1.953-3.284,1.992C603.379,441.255,603.342,441.256,603.305,441.256z
					 M605.459,439.431c-1.367,0-2.983,0.143-3.355,0.586c-0.057,0.068-0.073,0.134-0.053,0.219c0.1,0.424,0.763,0.562,1.353,0.541
					c1.111-0.03,2.381-0.561,2.743-1.333C605.93,439.436,605.698,439.431,605.459,439.431z"/>
				<path id="XMLID_111_" style="fill:#FDF6D9;" d="M606.903,441.762c-0.015,0-0.03-0.001-0.046-0.004
					c-0.129-0.025-0.214-0.15-0.188-0.279c0.217-1.119-0.398-2.122-0.404-2.132c-0.05-0.08-0.048-0.184,0.006-0.262
					c0.054-0.078,0.148-0.118,0.243-0.098c0.267,0.053,1.031,0.185,1.361,0.155c0.449-0.04,1.692,0.036,1.744,0.039
					c0.131,0.009,0.231,0.122,0.223,0.253c-0.008,0.131-0.126,0.237-0.253,0.223c-0.012-0.001-1.258-0.078-1.672-0.04
					c-0.262,0.025-0.696-0.029-1.028-0.081c0.189,0.453,0.407,1.206,0.247,2.033C607.115,441.683,607.015,441.762,606.903,441.762z"
					/>
			</g>
		</g>
		<g>
			<g id="XMLID_142_">
				<path id="XMLID_149_" style="fill:#D28C73;" d="M646.373,337.161l1.351-21.395l-26.363-1.104c0,0,0.982,7.589,6.16,38.302
					c-6.896,44.998,1.765,86.531,1.765,86.531l7.91,0.002L646.373,337.161z"/>
				<g id="XMLID_143_">
					<path id="XMLID_144_" style="fill:#FDF6D9;" d="M628.268,433.95l1.015,5.919l8.105-1.325l0.458-3.44
						C636.342,435.467,628.268,433.95,628.268,433.95z"/>
				</g>
			</g>
			<g>
				<path id="XMLID_141_" style="fill:#EF5E43;" d="M658.118,447.606l-28.836-0.009l0.002-8.103l8.103-0.951
					c9.537,1.909,17.085,6.568,19.72,8.352C657.766,447.339,658.118,447.606,658.118,447.606z"/>
				<path id="XMLID_110_" style="fill:#FDF6D9;" d="M658.118,447.606l-28.836-0.009l0-0.829c10.977-0.116,18.688,0.191,27.825,0.127
					C657.766,447.339,658.118,447.606,658.118,447.606z"/>
				<path id="XMLID_109_" style="fill:#FDF6D9;" d="M644.228,443.074c-0.081,0-0.16-0.041-0.205-0.116
					c-0.067-0.113-0.03-0.259,0.083-0.327c1.813-1.081,2.131-1.645,2.134-1.65c0.061-0.114,0.203-0.161,0.319-0.102
					c0.115,0.059,0.164,0.195,0.109,0.312c-0.032,0.066-0.366,0.685-2.318,1.85C644.312,443.063,644.27,443.074,644.228,443.074z"/>
				<path id="XMLID_104_" style="fill:#FDF6D9;" d="M646.611,443.968c-0.081,0-0.161-0.041-0.205-0.116
					c-0.068-0.113-0.03-0.259,0.082-0.327c1.813-1.081,2.131-1.645,2.134-1.65c0.061-0.114,0.203-0.161,0.319-0.102
					c0.115,0.059,0.164,0.195,0.109,0.312c-0.032,0.067-0.366,0.684-2.318,1.849C646.695,443.957,646.653,443.968,646.611,443.968z"
					/>
				<path id="XMLID_103_" style="fill:#FDF6D9;" d="M641.905,442.09c-0.081,0-0.161-0.041-0.205-0.116
					c-0.068-0.113-0.03-0.259,0.083-0.327c1.813-1.081,2.132-1.644,2.135-1.65c0.061-0.115,0.203-0.161,0.319-0.102
					c0.115,0.059,0.164,0.196,0.109,0.312c-0.032,0.067-0.366,0.684-2.318,1.849C641.988,442.079,641.946,442.09,641.905,442.09z"/>
				<path id="XMLID_96_" style="fill:#FDF6D9;" d="M640.446,439.458c-0.002,0-0.004,0-0.006,0c-0.096-0.003-0.181-0.062-0.216-0.152
					c-0.147-0.379-0.856-2.304-0.332-3.044c0.101-0.142,0.29-0.297,0.642-0.3c0.348,0.011,0.531,0.191,0.624,0.34
					c0.491,0.789-0.393,2.79-0.495,3.016C640.624,439.404,640.539,439.458,640.446,439.458z M640.501,436.439
					c-0.132,0-0.185,0.05-0.22,0.099c-0.219,0.309-0.056,1.221,0.183,2.005c0.273-0.745,0.499-1.651,0.289-1.988
					c-0.034-0.054-0.088-0.11-0.234-0.115C640.513,436.439,640.507,436.439,640.501,436.439z"/>
				<path id="XMLID_89_" style="fill:#FDF6D9;" d="M637.284,441.256c-0.944,0-1.583-0.336-1.718-0.91
					c-0.055-0.232-0.002-0.451,0.152-0.634c0.776-0.925,4.337-0.753,4.741-0.729c0.068,0.004,0.131,0.037,0.173,0.09
					c0.042,0.054,0.06,0.123,0.048,0.19c-0.213,1.197-1.837,1.953-3.284,1.992C637.359,441.255,637.321,441.256,637.284,441.256z
					 M639.438,439.431c-1.367,0-2.983,0.143-3.355,0.586c-0.057,0.068-0.073,0.134-0.053,0.219c0.1,0.424,0.763,0.562,1.353,0.541
					c1.111-0.03,2.381-0.561,2.743-1.333C639.91,439.436,639.678,439.431,639.438,439.431z"/>
				<path id="XMLID_5_" style="fill:#FDF6D9;" d="M640.882,441.762c-0.015,0-0.03-0.001-0.046-0.004
					c-0.129-0.025-0.214-0.15-0.188-0.279c0.217-1.119-0.398-2.122-0.404-2.132c-0.05-0.08-0.048-0.184,0.006-0.262
					c0.054-0.078,0.148-0.118,0.243-0.098c0.267,0.053,1.031,0.185,1.361,0.155c0.449-0.04,1.692,0.036,1.744,0.039
					c0.131,0.009,0.231,0.122,0.223,0.253c-0.008,0.131-0.126,0.237-0.253,0.223c-0.012-0.001-1.258-0.078-1.672-0.04
					c-0.262,0.025-0.695-0.029-1.028-0.081c0.189,0.453,0.407,1.206,0.247,2.033C641.094,441.683,640.994,441.762,640.882,441.762z"
					/>
			</g>
		</g>
		
			<ellipse transform="matrix(0.9239 -0.3827 0.3827 0.9239 21.3083 240.4334)" style="fill:#473628;" cx="615.025" cy="66.655" rx="14.46" ry="14.46"/>
		<g>
			<path style="fill:#6C7514;" d="M587.932,232.746c0,0-6.336-12.962-24.409-5.12c-18.073,7.841-22.364,28.089-21.02,32.513
				c1.344,4.424,25.066,8.525,25.066,8.525L587.932,232.746z"/>
			<path style="fill:#6C7514;" d="M573.436,286.998c0,0,4.596-0.502,23.039-13.748c5.583-4.01-1.771-39.658-8.543-40.503
				C581.16,231.901,568.027,278.793,573.436,286.998z"/>
			<path style="fill:#7C8C1F;" d="M587.932,232.746c0,0-14.525-8.432-23.395-2.587c-6.745,4.445-17.533,42.18-16.866,48.73
				c0.666,6.551,26.688,10.926,28.747,6.614C579.771,278.484,591.635,237.92,587.932,232.746z"/>
			<path style="fill:#6C7514;" d="M587.932,232.746c0,0-17.937-11.33-27.365,2.723C560.567,235.469,569.389,214.994,587.932,232.746
				z"/>
			<path style="fill:#A7E6F9;" d="M572.033,243.141c-0.282,5.494,6.891,6.09,9.002,1.63c0.093-0.198,0.17-0.402,0.237-0.609
				c0.05-0.169,0.095-0.337,0.128-0.496c0.379-1.809-0.378-3.064-2.026-3.986C576.187,237.898,572.227,239.36,572.033,243.141z
				 M573.251,243.194c0.144-2.802,3.08-3.885,5.441-2.564c1.223,0.682,1.783,1.613,1.502,2.952
				c-0.026,0.121-0.056,0.243-0.094,0.368c-0.047,0.154-0.106,0.307-0.175,0.452C578.36,247.707,573.042,247.265,573.251,243.194z"
				/>
			<path style="fill:#91A828;" d="M578.509,247.854c0,0,0.5-2.405-0.344-2.448c-0.844-0.043-4.576-0.958-4.66-0.897
				c-0.084,0.061-1.518,2.245-1.089,3.033S577.557,249.011,578.509,247.854z"/>
			<path style="fill:#6C7514;" d="M577.71,265.048c0,0-17.179-2.003-21.376-8.143c0,0-8.039,21.107,5.136,24.446
				C574.646,284.691,577.71,265.048,577.71,265.048z"/>
		</g>
		<path id="XMLID_139_" style="fill:#12B5A0;" d="M632.307,331.508c1.089-0.164,2.18-0.347,3.276-0.55
			c4.247-0.787,8.493-1.573,12.739-2.36c0.777-0.144,1.586-0.302,2.211-0.786c1.193-0.925,1.297-2.657,1.299-4.166
			c0.006-6.677,0.525-13.444,0.226-20.069c-0.276-6.129-1.419-12.258-1.419-18.395c-0.279-12.204-0.359-24.487-1.366-36.66
			c-0.92-11.119-13.769-6.288-17.571-16.777l-0.895-2.47l-12.13,1.02c-3.243,0.273-6.5,0.312-9.749,0.117l-16.966-1.018
			c-3.337,12.279-12.635,9.747-12.162,22.462c0.529,14.211,1.773,28.413,2.818,42.592c0.359,4.875,0.723,9.75,1.086,14.625
			c0.349,4.683-0.602,12.532,1.25,16.789c2.935,6.745,19.541,5.974,26.862,6.462C618.793,332.788,625.489,332.533,632.307,331.508z"
			/>
		<path style="fill:#D28C73;" d="M650.67,246.457c0.034-3.772-1.909-7.41-2.988-10.941c-1.863-6.099-3.317-12.347-2.975-18.768
			c0.433-8.123,2.427-16.418,3.553-24.477c1.591-11.391,4.315-31.879,0.367-43.189c-3.54-10.138-26.484-6.884-26.484-6.884
			l-8.092-0.497c0,0.166,0.001,0.332,0.001,0.497c-2.343,0-5.728,0-5.728,0s-22.945-3.255-26.485,6.884
			c-3.948,11.31-1.224,31.799,0.367,43.189c1.126,8.059,3.12,16.353,3.553,24.476c0.436,8.192-2.078,15.962-4.522,23.665
			c-0.587,1.852-1.669,4.063-1.82,6c-0.165,2.115,1.189,2.243,3.223,2.884c3.958,1.246,8.169,1.4,12.284,1.548
			c3.512,0.126,7.024,0.252,10.536,0.378c14.485,0.519,29.699,1.236,43.813-2.702c0.387-0.108,0.796-0.235,1.054-0.542
			c0.263-0.313,0.315-0.748,0.332-1.157C650.666,246.7,650.669,246.579,650.67,246.457z"/>
		<path style="fill:#353967;" d="M647.682,235.516c-1.863-6.099-3.317-12.347-2.975-18.768c0.433-8.123,2.427-16.418,3.553-24.477
			c1.591-11.391,4.315-31.879,0.368-43.189c-1.526-4.37-6.659-6.249-12.004-6.975c-3.537,9.474-14.972,13.633-25.672,11.85
			c-7.386-1.847-12.381-6.085-15.679-12.02c-5.833,0.579-11.77,2.386-13.432,7.145c-3.948,11.31-1.224,31.799,0.367,43.189
			c1.126,8.059,3.12,16.354,3.553,24.476c0.437,8.192-2.078,15.962-4.521,23.665c-0.587,1.852-1.669,4.063-1.82,6
			c-0.165,2.115,1.189,2.243,3.223,2.884c3.958,1.246,8.169,1.4,12.284,1.548c3.512,0.126,7.024,0.252,10.536,0.378
			c14.485,0.519,29.699,1.236,43.813-2.702c0.387-0.108,0.796-0.235,1.054-0.542c0.263-0.313,0.315-0.748,0.332-1.157
			c0.005-0.122,0.008-0.243,0.01-0.364C650.703,242.686,648.76,239.048,647.682,235.516z"/>
		<g>
			<path style="fill:#353967;" d="M597.708,142.022c0,0-12.918-1.691-18.119,7.468c-5.201,9.159-26.721,38.988-25.506,40.839
				c1.215,1.851,9.648,9.157,12.966,5.268c3.318-3.889,28.636-34.552,28.636-34.552S601.78,145.796,597.708,142.022z"/>
		</g>
		<g>
			<path style="fill:#D28C73;" d="M609.567,131.435l-1.242,10.763l0,0c3.405,4.357,9.996,4.357,13.401,0l0,0l-1.291-10.763H609.567z
				"/>
			<path style="fill:#BC7A66;" d="M609.567,131.435l-0.705,8.076c4.137-0.433,8.52-1.331,12.178-3.027l-0.605-5.048H609.567z"/>
		</g>
		<g>
			<path style="fill:#D28C73;" d="M640.938,99.742c0,26.436-18.028,36.741-25.913,36.741c-7.885,0-25.913-10.305-25.913-36.741
				c0-15.863,11.602-28.722,25.913-28.722C629.336,71.019,640.938,83.879,640.938,99.742z"/>
			<g>
				<path style="fill:#48282B;" d="M605.047,102.337c0,0.225-0.032,0.439-0.086,0.643c-0.225-0.986-0.996-1.703-1.907-1.703
					c-0.911,0-1.682,0.718-1.907,1.703c-0.053-0.203-0.086-0.418-0.086-0.643c0-1.296,0.889-2.346,1.993-2.346
					C604.147,99.991,605.047,101.041,605.047,102.337z"/>
			</g>
			<g>
				<path style="fill:#48282B;" d="M629.185,102.337c0,0.225-0.032,0.439-0.086,0.643c-0.225-0.986-0.996-1.703-1.907-1.703
					s-1.682,0.718-1.907,1.703c-0.054-0.203-0.086-0.418-0.086-0.643c0-1.296,0.889-2.346,1.993-2.346
					C628.285,99.991,629.185,101.041,629.185,102.337z"/>
			</g>
			<g>
				<path style="fill:#48282B;" d="M607.585,98.14c0.095-0.066,0.172-0.153,0.223-0.267c0.068-0.156,0.067-0.333,0.061-0.503
					c-0.032-0.991-0.272-0.999-1.196-1.065c-1.955-0.14-4.098-0.232-6.033,0.11c-1.139,0.202-2.264,0.629-3.128,1.399
					c-0.109,0.097-0.221,0.218-0.216,0.364c0.011,0.306,0.448,0.343,0.749,0.287c2.773-0.515,5.625-0.424,8.433-0.16
					C606.851,98.34,607.299,98.337,607.585,98.14z"/>
				<path style="fill:#48282B;" d="M621.954,98.14c-0.095-0.066-0.172-0.153-0.223-0.267c-0.068-0.156-0.067-0.333-0.061-0.503
					c0.032-0.991,0.272-0.999,1.196-1.065c1.955-0.14,4.098-0.232,6.033,0.11c1.139,0.202,2.264,0.629,3.128,1.399
					c0.109,0.097,0.221,0.218,0.216,0.364c-0.011,0.306-0.448,0.343-0.749,0.287c-2.773-0.515-5.625-0.424-8.433-0.16
					C622.688,98.34,622.239,98.337,621.954,98.14z"/>
			</g>
			<path style="fill:#BC664B;" d="M614.489,101.272c-0.835,1.594-1.49,3.316-1.992,5.041c-0.646,2.219-1.774,5.13-0.968,7.394
				c0.174,0.49,0.434,0.973,0.86,1.271c0.66,0.46,1.541,0.374,2.339,0.269c0.414-0.054,0.844-0.116,1.187-0.354
				c0.342-0.238,0.559-0.712,0.371-1.084c-0.412,0.573-1.2,0.846-1.878,0.65C610.683,113.385,613.731,103.361,614.489,101.272z"/>
			<path style="fill:#FFFFFF;" d="M607.14,119.747c0,0,8.274,2.124,15.77,0C622.91,119.747,615.74,129.307,607.14,119.747z"/>
			<g>
				<g>
					<path style="fill:#D28C73;" d="M589.286,98.865c0,0-4.881-2.463-6.908,2.782c-2.481,6.421,4.171,14.587,8.481,13.051
						C595.169,113.162,589.286,98.865,589.286,98.865z"/>
					<path style="fill:#C17E68;" d="M588.66,110.283c0,0-0.25-8.886-2.879-8.135s-0.626,4.045-0.626,4.045s-0.626-2.606,0.375-2.637
						C586.533,103.524,587.284,104.776,588.66,110.283z"/>
				</g>
				<g>
					<path style="fill:#D28C73;" d="M640.764,98.865c0,0,4.881-2.463,6.908,2.782c2.481,6.421-4.171,14.587-8.481,13.051
						C634.881,113.162,640.764,98.865,640.764,98.865z"/>
					<path style="fill:#C17E68;" d="M641.389,110.283c0,0,0.25-8.886,2.879-8.135c2.628,0.751,0.626,4.045,0.626,4.045
						s0.626-2.606-0.376-2.637C643.517,103.524,642.766,104.776,641.389,110.283z"/>
				</g>
			</g>
		</g>
		<path style="fill:#EF5E43;" d="M561.926,195.822"/>
		<path style="fill:#D28C73;" d="M576.109,219.176c0,0,3.549-0.803,5.379,0.067c1.83,0.87-2.701,1.295-4.062,1.027
			C576.064,220.002,576.109,219.176,576.109,219.176z"/>
		<path style="fill:#91A828;" d="M601.998,142.041c0,0-3.454,61.62-14.016,73.907c-8.145,10.109-7.899,26.24-7.899,26.24
			s-2.638,2.716-6.31-0.647c-0.388-7.821,0.433-15.547,10.28-31.383c9.847-15.835,12.206-68.411,12.206-68.411
			S600.071,137.621,601.998,142.041z"/>
		<g>
			<path style="fill:#D28C73;" d="M634.909,141.909c0,0,13.125,0.375,16.755,10.262c3.63,9.887,9.989,41.712,8.487,43.339
				c-1.502,1.627-11.018,7.452-13.654,3.072c-2.636-4.38-12.606-37.65-12.606-37.65S630.274,144.964,634.909,141.909z"/>
			<path style="fill:#353967;" d="M631.396,141.701c0,0,16.383-0.646,20.268,10.471c3.475,9.943,9.989,41.712,8.487,43.339
				c-1.502,1.627-11.018,7.452-13.654,3.072c-2.636-4.38-12.606-37.65-12.606-37.65s-2.469-5.601-3.557-10.834
				C633.226,147.26,631.887,142.126,631.396,141.701z"/>
			<g>
				<rect x="600.326" y="166.284" style="fill:#FBAF25;" width="36.688" height="43.435"/>
				<polygon style="fill:#E2951A;" points="637.014,166.284 634.814,163.912 600.326,163.912 600.326,166.284 				"/>
				<polygon style="fill:#FFFFFF;" points="635.828,166.284 634.326,164.702 600.326,164.702 600.326,166.284 				"/>
			</g>
			<g>
				<rect x="606.38" y="169.773" style="fill:#565599;" width="36.688" height="43.435"/>
				<polygon style="fill:#494987;" points="643.068,169.773 640.867,167.401 606.38,167.401 606.38,169.773 				"/>
				<polygon style="fill:#FFFFFF;" points="641.882,169.773 640.38,168.192 606.38,168.192 606.38,169.773 				"/>
			</g>
			<g>
				<path style="opacity:0.3;fill:#565599;" d="M644.366,193.51c0,0-17.782-2.827-44.541-0.884
					C599.824,192.626,642.38,193.666,644.366,193.51z"/>
				<g>
					<path style="fill:#D28C73;" d="M599.824,192.626c0,0-2.729-7.913-4.106-8.664c-1.377-0.751-0.751,2.907,0,4.332
						c-0.066-0.125-0.632-0.279-0.757-0.339c-0.677-0.326-1.333-0.699-1.96-1.112c-0.821-0.541-1.6-1.155-2.28-1.866
						c-0.725-0.758-1.115-1.703-1.867-2.407c-0.08-0.074-0.167-0.153-0.275-0.166c-0.208-0.026-0.361,0.191-0.429,0.389
						c-0.236,0.693-0.052,1.461,0.237,2.133c0.374,0.869,0.811,1.71,1.355,2.483c0.322,0.457,0.686,0.886,1.101,1.262
						c-0.115-0.095-0.23-0.19-0.343-0.288c-0.598-0.515-1.139-1.095-1.614-1.724c-0.486-0.645-0.828-1.357-1.311-1.998
						c-0.182-0.241-0.372-0.49-0.639-0.631c-0.267-0.141-0.633-0.143-0.837,0.079c-0.151,0.164-0.18,0.406-0.173,0.628
						c0.016,0.499,0.178,0.977,0.407,1.417c0.169,0.327,0.421,0.619,0.624,0.932c0.76,1.173,1.391,2.403,2.521,3.275
						c-0.174,0.006-0.326-0.113-0.456-0.229c-0.989-0.882-1.624-2.037-2.413-3.084c-0.228-0.302-1.002-1.145-1.14-0.364
						c-0.109,0.621,0.172,1.275,0.45,1.815c0.229,0.445,0.534,0.821,0.837,1.215c0.311,0.404,0.572,0.834,0.945,1.195
						c0.056,0.055,0.119,0.126,0.096,0.201c-0.504-0.16-0.82-0.643-1.212-0.998c-0.123-0.112-0.279-0.219-0.443-0.19
						c-0.166,0.03-0.28,0.196-0.302,0.363c-0.023,0.167,0.025,0.335,0.075,0.495c0.164,0.53,0.465,0.981,0.674,1.481
						c0.229,0.547,0.766,1.034,1.196,1.428c1.516,1.389,3.316,2.127,4.97,3.247c1.666,1.128,3.58,2.111,5.662,1.794
						C603.353,197.979,599.824,192.626,599.824,192.626z"/>
					<path style="fill:#353967;" d="M659.73,187.732c0,0,3.088,16.542-5.173,23.551c-8.26,7.009-57.552-12.212-57.552-12.212
						l2.818-6.446c0,0,38.268-0.6,44.541,0.884C650.639,194.994,659.73,187.732,659.73,187.732z"/>
				</g>
				<path style="fill:#2E335B;" d="M644.366,193.51c0,0,4.67-1.435,8.299,3.895C652.665,197.405,649.959,195.173,644.366,193.51z"/>
			</g>
		</g>
		<g>
			<path style="fill:#473628;" d="M626.956,71.019c0,0-9.327,26.648-37.843,28.722c0,0-3.499-2.86-1.974-15.749
				C588.664,71.103,611.249,57.175,626.956,71.019z"/>
			<path style="fill:#473628;" d="M623.805,77.458c0,0-1.449,13.067,17.133,22.283c0,0,8.452-25.592-13.982-28.722
				C626.956,71.019,620.947,73.814,623.805,77.458z"/>
		</g>
	</g>
	<g>
		<path style="fill:#D28C73;" d="M538.1,156.422c0,0-3.207-0.456-3.896,0.232c-0.688,0.688,0.063,2.378,1.565,1.877
			C537.271,158.031,538.1,156.422,538.1,156.422z"/>
		<g>
			<path style="fill:#49292E;" d="M418.43,127.349c0,0,6.781-11.185,28.683-10.809c21.903,0.376,27.711,5.476,29.03,8.268
				c1.319,2.792,7.226,95.479-1.149,100.615c-8.375,5.136-68.451,5.534-71.454-11.812
				C400.536,196.266,398.405,140.24,418.43,127.349z"/>
			<path style="fill:#351E22;" d="M430.905,118.829c0,0-1.064-4.934,1.179-6.302c2.244-1.368,30.655-2.495,31.906,2.011
				c1.252,4.506,0.751,5.409,0.751,5.409l-3.54-0.68c0,0,0.402-3.477-2.096-4.228c-2.499-0.751-24.774-0.626-24.901,1.001
				c-0.126,1.627,0,3.907,0,3.907L430.905,118.829z"/>
			<path style="fill:#351E22;" d="M476.143,124.808c-1.319-2.792-7.127-7.893-29.03-8.268
				c-21.903-0.375-28.683,10.809-28.683,10.809c-4.964,3.195-8.565,9.043-11.13,16.293c-0.031,8.196,0.34,16.393,1.121,24.589
				c1.126,10.138,0.751,20.275,1.502,30.413c0.942,9.735,6.086,17.894,9.941,26.455c19.29,5.141,49.383,3.849,55.131,0.324
				C483.369,220.287,477.462,127.599,476.143,124.808z"/>
		</g>
		<g id="XMLID_4_">
			<g id="XMLID_48_">
				<g id="XMLID_249_">
					<g>
						<path id="XMLID_167_" style="fill:#D28C73;" d="M491.376,159.195l8.424,24.215c0,0-10.036,10.603-12.688,11.361
							c-2.651,0.757-12.119-26.631-12.119-26.631L491.376,159.195z"/>
						<path id="XMLID_166_" style="fill:#D28C73;" d="M497.718,178.676c0,0,17.232-12.146,39.103-20.383l5.454,6.825
							c0,0-43.989,52.092-57.718,26.966L497.718,178.676z"/>
					</g>
				</g>
				<path id="XMLID_197_" style="fill:#232B56;" d="M479.16,125.723c0,0,14.392,30.677,13.634,37.494
					c-0.757,6.817-15.149,4.923-15.149,4.923L479.16,125.723z"/>
				<g id="XMLID_171_">
					<polygon id="XMLID_194_" style="fill:#D28C73;" points="447.347,425.862 449.052,440.632 458.709,439.496 462.117,422.453 
											"/>
					<path id="XMLID_191_" style="fill:#FDF6D9;" d="M448.749,438.006l0.303,2.626l9.657-1.136l0.728-3.641
						C457.645,436.287,448.749,438.006,448.749,438.006z"/>
					<path id="XMLID_188_" style="fill:#FF4B1E;" d="M459.217,436.957c-3.497,0.467-6.767,1.001-10.372,1.884l0.051,0.446
						c3.522-0.745,6.81-1.257,10.236-1.906L459.217,436.957z"/>
					<path id="XMLID_185_" style="fill:#353968;" d="M483.421,450.289h-34.369v-9.658l9.657-1.136
						c11.368,2.272,20.366,7.822,23.508,9.947C483,449.971,483.421,450.289,483.421,450.289z"/>
					<path id="XMLID_182_" style="fill:#FDF6D9;" d="M483.421,450.289h-34.369v-0.988c13.083-0.142,22.275,0.222,33.165,0.142
						C483,449.971,483.421,450.289,483.421,450.289z"/>
					<path id="XMLID_181_" style="fill:#FDF6D9;" d="M466.864,444.892c-0.097,0-0.191-0.049-0.244-0.139
						c-0.08-0.134-0.036-0.309,0.098-0.389c2.16-1.289,2.54-1.961,2.543-1.967c0.073-0.135,0.242-0.191,0.38-0.122
						c0.137,0.07,0.196,0.233,0.13,0.372c-0.038,0.079-0.435,0.815-2.762,2.205C466.963,444.88,466.913,444.892,466.864,444.892z"/>
					<path id="XMLID_180_" style="fill:#FDF6D9;" d="M469.704,445.958c-0.097,0-0.191-0.049-0.244-0.139
						c-0.081-0.134-0.036-0.309,0.098-0.389c2.16-1.289,2.54-1.961,2.543-1.967c0.074-0.135,0.243-0.192,0.38-0.122
						c0.137,0.07,0.196,0.233,0.13,0.372c-0.038,0.079-0.436,0.816-2.762,2.205C469.804,445.945,469.754,445.958,469.704,445.958z"
						/>
					<path id="XMLID_179_" style="fill:#FDF6D9;" d="M464.094,443.721c-0.097,0-0.191-0.049-0.244-0.139
						c-0.08-0.134-0.036-0.309,0.098-0.389c2.16-1.289,2.54-1.961,2.543-1.967c0.073-0.135,0.243-0.192,0.38-0.122
						c0.137,0.07,0.196,0.233,0.13,0.372c-0.038,0.079-0.435,0.816-2.762,2.205C464.194,443.708,464.144,443.721,464.094,443.721z"
						/>
					<path id="XMLID_176_" style="fill:#FDF6D9;" d="M462.354,440.585c-0.003,0-0.005,0-0.008,0
						c-0.114-0.003-0.216-0.074-0.257-0.181c-0.176-0.451-1.021-2.746-0.397-3.628c0.12-0.17,0.368-0.352,0.765-0.357
						c0.415,0.013,0.634,0.228,0.744,0.405c0.585,0.94-0.467,3.325-0.589,3.594C462.567,440.52,462.466,440.585,462.354,440.585z
						 M462.419,436.986c-0.158,0-0.221,0.059-0.263,0.117c-0.26,0.368-0.066,1.455,0.22,2.39c0.325-0.888,0.593-1.968,0.343-2.37
						c-0.04-0.065-0.105-0.131-0.28-0.137C462.433,436.986,462.426,436.986,462.419,436.986z"/>
					<path id="XMLID_173_" style="fill:#FDF6D9;" d="M458.585,442.728c-1.125,0-1.885-0.401-2.046-1.084
						c-0.065-0.276-0.002-0.537,0.18-0.756c0.925-1.103,5.171-0.899,5.651-0.871c0.081,0.004,0.157,0.043,0.207,0.107
						c0.05,0.064,0.071,0.146,0.057,0.226c-0.254,1.426-2.189,2.328-3.914,2.375C458.674,442.727,458.63,442.728,458.585,442.728z
						 M461.161,440.553c-1.631,0-3.562,0.17-4.007,0.7c-0.068,0.081-0.086,0.159-0.063,0.261c0.118,0.505,0.913,0.669,1.612,0.644
						c1.324-0.037,2.838-0.669,3.269-1.591C461.718,440.558,461.444,440.553,461.161,440.553z"/>
					<path id="XMLID_172_" style="fill:#FDF6D9;" d="M462.875,443.33c-0.018,0-0.036-0.002-0.054-0.005
						c-0.154-0.03-0.255-0.179-0.225-0.333c0.26-1.342-0.475-2.529-0.482-2.54c-0.06-0.096-0.058-0.219,0.007-0.313
						c0.064-0.094,0.178-0.141,0.29-0.118c0.318,0.063,1.226,0.224,1.623,0.185c0.538-0.048,2.016,0.043,2.079,0.047
						c0.156,0.01,0.275,0.145,0.266,0.301c-0.01,0.157-0.148,0.275-0.301,0.266c-0.015,0-1.499-0.094-1.992-0.048
						c-0.314,0.029-0.829-0.033-1.225-0.095c0.226,0.54,0.486,1.436,0.295,2.422C463.128,443.236,463.009,443.33,462.875,443.33z"/>
				</g>
				<g id="XMLID_119_">
					<polygon id="XMLID_168_" style="fill:#D28C73;" points="426.227,400.289 417.007,411.953 424.649,417.966 439.094,408.301 
											"/>
					<path id="XMLID_165_" style="fill:#FDF6D9;" d="M418.646,409.88l-1.639,2.074l7.642,6.013l3.086-2.065
						C426.161,414.942,418.646,409.88,418.646,409.88z"/>
					<path id="XMLID_162_" style="fill:#FF4B1E;" d="M426.801,416.526c-2.807-2.138-5.5-4.068-8.676-5.987l-0.279,0.352
						c3.02,1.958,5.71,3.917,8.595,5.875L426.801,416.526z"/>
					<path id="XMLID_130_" style="fill:#353968;" d="M434.533,443.055l-24.343-24.262l6.817-6.84l7.642,6.013
						c6.447,9.634,8.903,19.917,9.628,23.64C434.46,442.533,434.533,443.055,434.533,443.055z"/>
					<path id="XMLID_128_" style="fill:#FDF6D9;" d="M434.533,443.055l-24.343-24.262l0.698-0.7
						c9.367,9.135,15.62,15.881,23.39,23.512C434.46,442.533,434.533,443.055,434.533,443.055z"/>
					<path id="XMLID_127_" style="fill:#FDF6D9;" d="M429.635,428.074c-0.521,0-1.419-0.086-2.888-0.454
						c-0.152-0.038-0.245-0.193-0.207-0.345c0.038-0.153,0.191-0.244,0.345-0.207c2.44,0.612,3.183,0.403,3.19,0.402
						c0.147-0.045,0.307,0.036,0.355,0.182c0.048,0.147-0.025,0.303-0.171,0.355C430.223,428.02,430.047,428.074,429.635,428.074z"
						/>
					<path id="XMLID_124_" style="fill:#FDF6D9;" d="M430.895,430.834c-0.521,0-1.419-0.087-2.889-0.455
						c-0.152-0.038-0.245-0.192-0.206-0.344c0.038-0.152,0.191-0.244,0.344-0.207c2.44,0.612,3.182,0.403,3.19,0.402
						c0.148-0.044,0.307,0.035,0.355,0.182c0.048,0.147-0.025,0.303-0.171,0.355C431.483,430.78,431.307,430.834,430.895,430.834z"
						/>
					<path id="XMLID_291_" style="fill:#FDF6D9;" d="M428.502,425.29c-0.521,0-1.419-0.087-2.89-0.455
						c-0.152-0.038-0.245-0.193-0.206-0.344c0.038-0.153,0.192-0.243,0.344-0.207c2.441,0.612,3.184,0.404,3.191,0.402
						c0.147-0.043,0.307,0.035,0.355,0.182c0.048,0.147-0.026,0.304-0.171,0.355C429.089,425.236,428.913,425.29,428.502,425.29z"/>
					<path id="XMLID_123_" style="fill:#FDF6D9;" d="M426.663,421.393c-0.076,0-0.151-0.031-0.206-0.088
						c-0.079-0.083-0.1-0.205-0.054-0.31c0.194-0.443,1.215-2.665,2.28-2.85c0.205-0.035,0.509-0.015,0.794,0.288
						c0.285,0.302,0.288,0.608,0.242,0.812c-0.249,1.079-2.678,2.026-2.955,2.13C426.731,421.387,426.697,421.393,426.663,421.393z
						 M428.832,418.701c-0.018,0-0.036,0.002-0.052,0.005c-0.444,0.077-1.073,0.984-1.531,1.847
						c0.857-0.399,1.809-0.975,1.916-1.436c0.017-0.074,0.018-0.168-0.101-0.295C428.971,418.725,428.896,418.701,428.832,418.701z"
						/>
					<path id="XMLID_120_" style="fill:#FDF6D9;" d="M425.588,421.699c-1.078,0-2.33-0.607-3.211-1.437
						c-0.872-0.823-1.164-1.685-0.781-2.307c0.149-0.241,0.378-0.382,0.661-0.408c0.029-0.003,0.058-0.004,0.088-0.004
						c1.459,0,4.215,3.025,4.53,3.376c0.054,0.061,0.08,0.142,0.071,0.222c-0.009,0.081-0.052,0.154-0.119,0.2
						C426.473,421.59,426.046,421.699,425.588,421.699z M422.359,418.111c-0.018,0-0.034,0-0.051,0.002
						c-0.105,0.009-0.173,0.052-0.228,0.141c-0.272,0.441,0.177,1.113,0.688,1.595c0.964,0.909,2.482,1.529,3.438,1.181
						C425.048,419.79,423.193,418.111,422.359,418.111z"/>
					<path id="XMLID_245_" style="fill:#FDF6D9;" d="M429.145,424.201c-0.078,0-0.156-0.032-0.213-0.096
						c-0.01-0.011-0.996-1.124-1.377-1.44c-0.243-0.202-0.563-0.609-0.801-0.932c-0.221,0.542-0.67,1.36-1.501,1.924
						c-0.13,0.087-0.306,0.054-0.395-0.076c-0.088-0.13-0.054-0.306,0.076-0.394c1.125-0.763,1.449-2.126,1.452-2.14
						c0.025-0.111,0.114-0.195,0.225-0.216c0.11-0.022,0.224,0.027,0.288,0.121c0.181,0.27,0.716,1.025,1.019,1.277
						c0.414,0.344,1.398,1.454,1.44,1.501c0.104,0.117,0.093,0.297-0.024,0.4C429.279,424.178,429.212,424.201,429.145,424.201z"/>
				</g>
				<g id="XMLID_112_">
					<path id="XMLID_116_" style="fill:#0054AA;" d="M482.001,232.145c0,0,13.066,89.757,13.066,97.142
						c0,7.385-58.513,85.781-58.513,85.781l-10.794-21.587c0,0,38.062-69.307,38.062-74.419s-17.043-86.917-17.043-86.917H482.001z"
						/>
					<path style="fill:#004987;" d="M465.929,256.198l2.9,114.499C468.83,370.696,473.5,306.241,465.929,256.198z"/>
					<path id="XMLID_113_" style="fill:#004687;" d="M426.518,390.261c0,0-4.545,5.87-4.355,7.385
						c0.189,1.515,13.634,20.641,14.96,20.073c1.325-0.568,5.302-6.817,5.113-8.143C442.045,408.251,429.358,390.83,426.518,390.261
						z"/>
				</g>
				<path id="XMLID_108_" style="fill:#4385F5;" d="M425.533,236.168c0,0,13.633,117.588,13.633,129.517
					c0,11.929,1.704,62.202,1.704,62.202l26.928-1.457c0,0,4.599-163.847-5.626-191.966L425.533,236.168z"/>
				<path id="XMLID_107_" style="fill:#232B56;" d="M423.204,124.208c0,0-8.805,0.379-10.699,5.681
					c-1.894,5.302,5.302,104.528,10.226,111.345c4.923,6.817,59.838-1.893,61.732-6.438c1.894-4.545-2.272-102.634-5.302-109.072
					c-1.894-2.651-8.332-2.651-8.332-2.651L423.204,124.208z"/>
				<path id="XMLID_101_" style="fill:#D28C73;" d="M443.56,122.314l-20.356,1.894c0,0-3.503,26.89,27.173,25.375
					c30.676-1.515,20.451-26.51,20.451-26.51l-15.149-0.379L443.56,122.314z"/>
				<polygon id="XMLID_99_" style="fill:#D28C73;" points="443.371,108.302 443.371,131.593 456.437,131.593 456.437,110.574 				
					"/>
				<path id="XMLID_97_" style="fill:#BC7A66;" d="M456.437,127.474v-16.9c0,0-12.043,7.116-13.066,9.222
					C452.004,130.85,456.437,127.474,456.437,127.474z"/>
				<path id="XMLID_53_" style="fill:#232B56;" d="M470.828,123.072l-7.4-0.185c-1.406,4.427-3.953,8.515-9.264,9.842
					c-7.497,1.607-17.009-1.333-17.6-9.764l-13.36,1.243c0,0-3.503,26.89,27.173,25.375
					C481.054,148.068,470.828,123.072,470.828,123.072z"/>
				<path id="XMLID_49_" style="fill:#004FB1;" d="M438.542,419.613c0,0-1.42,9.374,0.568,10.226
					c1.988,0.852,30.393,0.568,30.677-1.988c0.284-2.557,1.704-8.805,0-8.805C468.082,419.045,438.542,419.613,438.542,419.613z"/>
				<path style="fill:#D28C73;" d="M438.928,256.445l-6.349,8.647c0,0-50.817-56.235-48.857-70.724
					c0.612-4.54,11.782-30.064,11.782-30.064l23.644,1.941l-15.398,30.395c4.179,3.98,8.696,10.239,13.055,17.238
					c2.103,3.379,4.172,6.927,6.147,10.479C431.884,240.408,438.928,256.445,438.928,256.445z"/>
				<path id="XMLID_92_" style="fill:#232B56;" d="M412.505,129.889c0,0-21.966,35.506-21.966,40.618
					c0,5.113,25.28,7.101,29.824,1.704c4.545-5.397,12.498-27.552,12.498-27.552S426.518,126.196,412.505,129.889z"/>
				<path id="XMLID_105_" style="fill:#0054AA;" d="M431.441,265.519c0,0,6.533-6.391,7.811-11.362
					C439.252,254.158,438.258,266.655,431.441,265.519z"/>
			</g>
			<path id="XMLID_45_" style="fill:#0054AA;" d="M439.394,281.284c0,0,11.362,3.266,14.344-8.805
				C453.738,272.478,453.17,286.539,439.394,281.284z"/>
		</g>
		<path style="fill:#49292E;" d="M432.86,189.539c-0.781,16.769-6.079,30.841-9.909,34.818c-1.975-3.552-4.044-7.1-6.147-10.479
			c11.069-11.932,4.329-89.423,4.329-89.423s4.183-4.506,10.19-1.382C435.83,136.485,433.983,165.479,432.86,189.539z"/>
		<g>
			<path style="fill:#D28C73;" d="M475.668,81.508c0,27.818-16.95,38.662-27.267,38.662c-10.317,0-27.267-10.844-27.267-38.662
				c0-16.692,12.208-30.224,27.267-30.224C463.46,51.284,475.668,64.816,475.668,81.508z"/>
			<g>
				<path style="fill:#48282B;" d="M437.898,84.239c0,1.363-0.939,2.468-2.096,2.468c-1.158,0-2.096-1.105-2.096-2.468
					c0-1.363,0.939-2.468,2.096-2.468C436.96,81.77,437.898,82.875,437.898,84.239z"/>
			</g>
			<g>
				<path style="fill:#48282B;" d="M463.298,84.239c0,1.363-0.939,2.468-2.096,2.468s-2.096-1.105-2.096-2.468
					c0-1.363,0.939-2.468,2.096-2.468S463.298,82.875,463.298,84.239z"/>
			</g>
			<g>
				<path style="fill:#48282B;" d="M440.874,80.228c0.086-0.047,0.159-0.111,0.209-0.196c0.392-0.658,0.455-2.064-0.334-2.473
					c-0.189-0.098-0.413-0.101-0.626-0.101c-2.705,0-5.409,0.001-8.114,0.001c-0.249,0-0.506,0.001-0.738,0.093
					c-0.418,0.166-1.48,1.937-0.846,2.12c0.253,0.073,0.689-0.029,0.964-0.011c0.464,0.031,0.927,0.065,1.391,0.098
					c0.927,0.065,1.854,0.131,2.781,0.196c1.605,0.113,3.238,0.381,4.845,0.381C440.567,80.335,440.736,80.304,440.874,80.228z"/>
				<path style="fill:#48282B;" d="M455.882,80.228c-0.085-0.047-0.159-0.111-0.21-0.196c-0.392-0.658-0.455-2.064,0.334-2.473
					c0.189-0.098,0.413-0.101,0.626-0.101c2.705,0,5.409,0.001,8.114,0.001c0.249,0,0.506,0.001,0.738,0.093
					c0.418,0.166,1.48,1.937,0.846,2.12c-0.253,0.073-0.69-0.029-0.964-0.011c-0.464,0.031-0.927,0.065-1.391,0.098
					c-0.927,0.065-1.854,0.131-2.781,0.196c-1.605,0.113-3.238,0.381-4.845,0.381C456.189,80.335,456.02,80.304,455.882,80.228z"/>
			</g>
			<path style="fill:#BC664B;" d="M447.836,83.118c-0.879,1.677-1.568,3.489-2.096,5.304c-0.68,2.335-1.867,5.398-1.019,7.781
				c0.184,0.515,0.457,1.024,0.906,1.337c0.694,0.484,1.622,0.394,2.461,0.283c0.435-0.057,0.889-0.122,1.249-0.372
				c0.36-0.251,0.589-0.749,0.391-1.141c-0.434,0.603-1.263,0.89-1.976,0.684C443.832,95.864,447.039,85.317,447.836,83.118z"/>
			<path style="fill:#FFFFFF;" d="M440.694,102.559c0,0,8.374,1.142,15.745,0C456.439,102.559,446.886,115.701,440.694,102.559z"/>
			<g>
				<g>
					<path style="fill:#D28C73;" d="M421.316,80.585c0,0-5.136-2.592-7.269,2.928c-2.611,6.757,4.389,15.349,8.924,13.733
						S421.316,80.585,421.316,80.585z"/>
					<path style="fill:#C17E68;" d="M420.658,92.6c0,0-0.263-9.351-3.029-8.561c-2.766,0.79-0.659,4.257-0.659,4.257
						s-0.659-2.742,0.395-2.775C418.419,85.488,419.209,86.805,420.658,92.6z"/>
				</g>
				<g>
					<path style="fill:#D28C73;" d="M475.485,80.585c0,0,5.136-2.592,7.269,2.928c2.611,6.757-4.389,15.349-8.924,13.733
						S475.485,80.585,475.485,80.585z"/>
					<path style="fill:#C17E68;" d="M476.143,92.6c0,0,0.263-9.351,3.029-8.561c2.766,0.79,0.658,4.257,0.658,4.257
						s0.659-2.742-0.395-2.775C478.382,85.488,477.592,86.805,476.143,92.6z"/>
				</g>
			</g>
		</g>
		<path style="fill:#1F1D28;" d="M426.419,64.206c0.168,0.033,0.332,0.071,0.479,0.132c0.661,0.275,1.171,0.624,1.926,0.695
			c0.738,0.069,1.48-0.025,2.217-0.107c5.269-0.588,10.609-0.535,15.865,0.158c2.482,0.327,4.945,0.796,7.429,1.108
			c2.835,0.356,5.695,0.508,8.552,0.453c1.159-0.022,2.388-0.034,3.514-0.338c0.829-0.224,1.649-0.232,2.477-0.438
			c0.328-0.081,5.095-2.037,5.072-1.467c0.056-1.411-0.514-2.779-1.261-3.978c-0.747-1.199-1.673-2.276-2.442-3.461
			c-1.801-2.774-2.685-6.049-4.369-8.895c-1.153-1.949-2.661-3.661-4.179-5.341c-0.18-0.199-0.842-0.474-0.916-0.738
			c0.651,2.308,0.746,4.77,0.276,7.122c-0.282-4.208-3.189-8.128-7.134-9.619c0.086,2.535,0.172,5.071,0.258,7.606
			c-0.924-4.647-4.462-8.682-8.948-10.207c-0.33-0.112-3.094,9.896-3.749,10.656c0.056-0.695-0.282-1.368-0.728-1.904
			c-0.446-0.536-1-0.97-1.487-1.468c-0.853-0.874-1.497-1.951-1.861-3.117c-2.741,3.06-3.324,7.468-5.389,11.02
			c-2.066,3.553-5.611,6.24-6.918,10.136c-0.172,0.512-0.528,2.058-0.157,2.451C425.247,64.985,425.976,64.12,426.419,64.206z"/>
		<path style="fill:#1F1D28;" d="M430.229,64.7c0,0-7.967,14.842-7.66,19.293c0,0-2.067-4.583-4.139-4.01
			c0,0,2.917-15.317,8.765-17.822C433.042,59.654,430.229,64.7,430.229,64.7z"/>
		<path style="fill:#1F1D28;" d="M467.706,64.7c0,0,7.967,14.842,7.66,19.293c0,0,2.067-4.583,4.139-4.01
			c0,0-1.822-15.667-7.67-18.172C465.987,59.304,467.706,64.7,467.706,64.7z"/>
		<path style="fill:#49292E;" d="M464.742,122.887c0,0,12.776,86.679,20.12,94.029c0,0,3.025-5.167,1.282-11.264
			c-1.743-6.097-7.852-78.804-10.449-81.931C471.5,118.668,464.742,122.887,464.742,122.887z"/>
		<g>
			<polygon style="fill:#FBAF25;" points="500.787,159.976 524.066,193.832 550.6,177.063 526.319,142.565 			"/>
			<polygon style="fill:#E2951A;" points="550.6,177.063 552.352,180.746 527.07,196.945 524.066,193.832 			"/>
			<polygon style="fill:#FFFFFF;" points="549.968,177.421 551.351,180.362 526.361,196.21 524.066,193.832 			"/>
		</g>
		<path style="fill:#D28C73;" d="M538.1,156.422c0,0-6.055,3.22-5.704,4.308c0.517,1.606,4.953-1.229,4.953-1.229
			s-6.937,4.053-5.043,5.574c1.007,0.809,6.686-3.134,6.686-3.134s-4.787,4.224-3.81,5.109c0.735,0.665,5.641-2.668,5.641-2.668
			s-3.567,3.52-2.66,4.51c0.715,0.78,6.046-1.399,6.18-3.008C544.476,164.275,541.282,156.756,538.1,156.422z"/>
	</g>
	<path style="fill:#FBAF25;" d="M588.249,98.496c0,0,0.104-18.772,10.024-25.339c9.821-6.502,26.89-3.942,34.494,1.786
		c9.879,7.442,8.483,23.722,8.483,23.722s2.914-11.134-0.312-17.942c-3.883-8.198-10.116-14.619-26.606-14.619
		c-12.678,0-23.559,5.357-26.59,15.23C585.254,89.441,588.249,98.496,588.249,98.496z"/>
	<g>
		<g>
			<path style="fill:#D28C73;" d="M575.888,218.899c0.324,0.21,0.816,0.257,1.172,0.4c0.63,0.254,0.978,0.585,1.381,1.153
				c0.626,0.882,1.402,1.759,1.921,2.706c0.457,0.835,0.814,1.711,1.358,2.523c0.423,0.632,1.06,1.252,1.14,2.047
				c0.044,0.442-0.344,1.342-0.907,1.242c-0.134-0.024-0.253-0.097-0.368-0.169c-0.369-0.229-0.745-0.465-1.022-0.8
				c-0.073-0.088-0.14-0.185-0.238-0.244c0.051,0.273,0.249,0.475,0.406,0.692c0.172,0.238,0.247,0.437,0.471,0.632
				c0.426,0.37,0.936,0.849,0.919,1.462c-0.042,1.52-1.33,0.755-2.027,0.299c-0.359-0.236-1.879-1.122-1.867-1.611
				c-0.004,0.174,0.115,0.325,0.232,0.454c0.72,0.796,1.636,1.283,2.464,1.94c0.579,0.459,0.815,1.649-0.321,1.283
				c-0.667-0.215-1.148-0.533-1.71-0.96c-0.406-0.308-0.838-0.566-1.202-0.936c-0.055-0.056-0.127-0.118-0.202-0.094
				c0.163,0.503,0.648,0.816,1.007,1.205c0.113,0.122,0.221,0.277,0.193,0.442c-0.028,0.166-0.194,0.281-0.361,0.305
				c-0.167,0.024-0.335-0.023-0.496-0.072c-0.531-0.16-0.985-0.458-1.485-0.664c-0.549-0.225-1.039-0.759-1.437-1.186
				c-1.4-1.506-2.151-3.301-3.282-4.947c-1.14-1.658-2.136-3.565-1.834-5.65C570.508,215.419,575.865,218.885,575.888,218.899z"/>
		</g>
		<path style="fill:#353967;" d="M555.169,187.545c0,0-4.211,4.669-2.336,8.131c1.875,3.462,17.75,28.583,17.75,28.583l5.305-5.359
			c0,0-3.638-25.26-9.284-27.908L555.169,187.545z"/>
	</g>
</g>
<g id="DESIGNED_BY_FREEPIK">
	<g id="XMLID_2_">
		<g id="XMLID_81_">
			<g id="XMLID_338_">
				<path id="XMLID_346_" style="fill:#1D262D;" d="M385.104,467.052c-0.432,0.443-0.803,0.931-1.108,1.453l-0.465-0.241
					c-0.067-0.298-0.349-0.503-0.659-0.466c-0.331,0.039-0.568,0.339-0.529,0.67c0.039,0.331,0.339,0.568,0.67,0.529
					c0.066-0.008,0.127-0.026,0.184-0.052l0.452,0.234c-0.251,0.554-0.433,1.139-0.539,1.744l0.747,0.132
					c0.23-1.306,0.85-2.507,1.792-3.472L385.104,467.052z"/>
				<path id="XMLID_345_" style="fill:#1D262D;" d="M390.592,464.75c-0.171,0-0.341,0.006-0.51,0.017l-0.074-0.626
					c0.188-0.149,0.296-0.389,0.266-0.645c-0.046-0.393-0.402-0.674-0.795-0.628c-0.393,0.046-0.674,0.402-0.628,0.795
					c0.03,0.254,0.189,0.461,0.405,0.564l0.074,0.624c-0.714,0.116-1.403,0.332-2.06,0.646l0.327,0.684
					c0.934-0.447,1.942-0.673,2.995-0.673c0.496,0,0.993,0.053,1.475,0.158l0.161-0.741
					C391.692,464.809,391.142,464.75,390.592,464.75z"/>
				<path id="XMLID_344_" style="fill:#1D262D;" d="M397.194,467.297c0.331-0.04,0.566-0.341,0.526-0.672
					c-0.04-0.331-0.341-0.566-0.672-0.526c-0.309,0.038-0.535,0.304-0.53,0.609l-0.416,0.363c-0.418-0.43-0.889-0.813-1.408-1.139
					l-0.404,0.641c1.134,0.715,2.021,1.726,2.563,2.925l0.691-0.313c-0.251-0.554-0.568-1.072-0.942-1.545l0.402-0.351
					C397.065,467.302,397.129,467.306,397.194,467.297z"/>
				<path id="XMLID_343_" style="fill:#1D262D;" d="M390.044,474.959c-0.386,0.023-0.775,0.035-1.157,0.035
					c-0.88,0-1.733-0.061-2.478-0.179c-0.39-0.062-0.846-0.155-1.27-0.292c1.046,1.861,3.069,3.125,5.388,3.125
					c2.855,0,5.262-1.916,5.95-4.504c-0.682,0.449-1.505,0.825-2.459,1.123C392.839,474.634,391.463,474.873,390.044,474.959z"/>
				<path id="XMLID_339_" style="fill:#1D262D;" d="M390.592,466.266c-3.352,0-6.08,2.666-6.08,5.944
					c0,0.425,0.046,0.849,0.137,1.261c0.673,0.483,2.706,0.89,5.348,0.731c2.879-0.173,5.297-0.957,6.672-2.158
					c-0.006-0.195-0.021-0.39-0.045-0.582C396.244,468.5,393.65,466.266,390.592,466.266z M388.432,472.781
					c-1.02,0-1.85-0.83-1.85-1.85c0-1.02,0.83-1.85,1.85-1.85c1.02,0,1.85,0.83,1.85,1.85
					C390.282,471.951,389.452,472.781,388.432,472.781z M393.17,471.873c-0.75,0-1.36-0.61-1.36-1.36s0.61-1.361,1.36-1.361
					c0.75,0,1.361,0.61,1.361,1.361S393.92,471.873,393.17,471.873z"/>
			</g>
			<path id="XMLID_87_" style="fill:#1D262D;" d="M406.595,468.134c-0.295-0.116-0.805-0.309-1.382-0.237
				c-0.551,0.068-0.844,0.34-0.844,1.007v0.866h2.228v1.717h-2.228v5.455h-1.932v-5.455h-1.34v-1.717h1.34v-0.888
				c0-1.68,0.896-2.783,2.568-2.783c0.643,0,1.157,0.122,1.59,0.308L406.595,468.134z"/>
			<path id="XMLID_85_" style="fill:#1D262D;" d="M411.298,471.466c-0.177-0.03-0.358-0.046-0.526-0.046
				c-0.896,0-1.51,0.548-1.51,1.613v3.908h-1.932v-7.172h1.873v0.785c0.451-0.674,1.14-0.977,2.021-0.977
				c0.414,0,0.848,0.128,1.094,0.337L411.298,471.466z"/>
			<path id="XMLID_331_" style="fill:#1D262D;" d="M418.965,473.344c0,0.222-0.015,0.489-0.037,0.651h-5.085
				c0.207,1.036,0.933,1.488,1.843,1.488c0.622,0,1.295-0.252,1.813-0.688l1.133,1.243c-0.814,0.748-1.85,1.088-3.057,1.088
				c-2.198,0-3.723-1.495-3.723-3.753c0-2.257,1.48-3.797,3.627-3.797C417.544,469.576,418.958,471.108,418.965,473.344z
				 M413.851,472.678h3.175c-0.177-0.918-0.733-1.436-1.562-1.436C414.554,471.242,414.021,471.789,413.851,472.678z"/>
			<path id="XMLID_328_" style="fill:#1D262D;" d="M426.618,473.344c0,0.222-0.015,0.489-0.037,0.651h-5.085
				c0.207,1.036,0.933,1.488,1.843,1.488c0.622,0,1.295-0.252,1.813-0.688l1.132,1.243c-0.814,0.748-1.85,1.088-3.057,1.088
				c-2.198,0-3.723-1.495-3.723-3.753c0-2.257,1.48-3.797,3.627-3.797C425.197,469.576,426.611,471.108,426.618,473.344z
				 M421.504,472.678h3.175c-0.178-0.918-0.733-1.436-1.562-1.436C422.207,471.242,421.674,471.789,421.504,472.678z"/>
			<path id="XMLID_325_" style="fill:#1D262D;" d="M434.964,473.351c0,2.154-1.495,3.775-3.471,3.775
				c-0.962,0-1.643-0.378-2.109-0.933v3.708h-1.924v-10.133h1.887v0.792c0.466-0.585,1.155-0.984,2.139-0.984
				C433.469,469.576,434.964,471.197,434.964,473.351z M429.287,473.351c0,1.132,0.747,1.976,1.843,1.976
				c1.14,0,1.85-0.881,1.85-1.976c0-1.095-0.71-1.976-1.85-1.976C430.035,471.375,429.287,472.219,429.287,473.351z"/>
			<path id="XMLID_83_" style="fill:#1D262D;" d="M438.068,467.423c0,0.696-0.54,1.229-1.236,1.229
				c-0.696,0-1.229-0.533-1.229-1.229c0-0.696,0.533-1.243,1.229-1.243C437.527,466.179,438.068,466.727,438.068,467.423z
				 M437.809,476.941h-1.932v-7.172h1.932V476.941z"/>
			<path id="XMLID_82_" style="fill:#1D262D;" d="M441.032,472.322l2.701-2.554h2.368l-3.479,3.375l3.501,3.797h-2.376l-2.716-2.901
				v2.901H439.1v-10.658h1.932V472.322z"/>
		</g>
		<g id="XMLID_3_">
			<path id="XMLID_264_" style="fill:#1D262D;" d="M309.412,476.876v-1.055c-0.527,0.718-1.391,1.23-2.387,1.23
				c-1.846,0-3.149-1.406-3.149-3.706c0-2.256,1.289-3.721,3.149-3.721c0.952,0,1.816,0.469,2.387,1.245v-3.765h1.099v9.77H309.412z
				 M309.412,474.957v-3.208c-0.395-0.615-1.245-1.143-2.124-1.143c-1.421,0-2.27,1.172-2.27,2.739c0,1.567,0.85,2.724,2.27,2.724
				C308.168,476.07,309.017,475.572,309.412,474.957z"/>
			<path id="XMLID_261_" style="fill:#1D262D;" d="M311.932,473.331c0-2.051,1.465-3.706,3.486-3.706
				c2.139,0,3.398,1.67,3.398,3.794v0.279h-5.727c0.088,1.333,1.025,2.446,2.549,2.446c0.806,0,1.626-0.322,2.182-0.893l0.527,0.718
				c-0.703,0.703-1.655,1.084-2.812,1.084C313.44,477.052,311.932,475.543,311.932,473.331z M315.403,470.533
				c-1.509,0-2.256,1.274-2.314,2.358h4.643C317.718,471.837,317.014,470.533,315.403,470.533z"/>
			<path id="XMLID_259_" style="fill:#1D262D;" d="M319.607,475.938l0.571-0.791c0.469,0.542,1.362,1.011,2.329,1.011
				c1.084,0,1.67-0.513,1.67-1.216c0-1.714-4.38-0.659-4.38-3.281c0-1.098,0.952-2.036,2.636-2.036c1.201,0,2.051,0.454,2.622,1.026
				l-0.513,0.762c-0.424-0.513-1.201-0.894-2.109-0.894c-0.967,0-1.567,0.483-1.567,1.113c0,1.552,4.38,0.527,4.38,3.281
				c0,1.187-0.952,2.139-2.783,2.139C321.306,477.052,320.324,476.7,319.607,475.938z"/>
			<path id="XMLID_256_" style="fill:#1D262D;" d="M326.477,468.058c0-0.41,0.337-0.747,0.732-0.747c0.41,0,0.747,0.337,0.747,0.747
				c0,0.41-0.337,0.732-0.747,0.732C326.814,468.79,326.477,468.468,326.477,468.058z M326.667,476.876v-7.075h1.099v7.075H326.667z
				"/>
			<path id="XMLID_252_" style="fill:#1D262D;" d="M329.582,478.692l0.556-0.82c0.586,0.703,1.289,0.967,2.3,0.967
				c1.172,0,2.27-0.571,2.27-2.124v-1.011c-0.513,0.718-1.377,1.26-2.373,1.26c-1.845,0-3.149-1.377-3.149-3.662
				c0-2.27,1.289-3.677,3.149-3.677c0.952,0,1.802,0.469,2.373,1.245v-1.069h1.099v6.87c0,2.344-1.641,3.076-3.369,3.076
				C331.237,479.747,330.417,479.512,329.582,478.692z M334.709,474.84v-3.091c-0.381-0.615-1.23-1.143-2.109-1.143
				c-1.421,0-2.27,1.128-2.27,2.695c0,1.553,0.849,2.695,2.27,2.695C333.478,475.997,334.328,475.455,334.709,474.84z"/>
			<path id="XMLID_78_" style="fill:#1D262D;" d="M342.413,476.876v-4.629c0-1.245-0.63-1.641-1.582-1.641
				c-0.865,0-1.685,0.527-2.095,1.099v5.17h-1.099v-7.075h1.099v1.025c0.498-0.586,1.465-1.201,2.519-1.201
				c1.48,0,2.256,0.747,2.256,2.285v4.966H342.413z"/>
			<path id="XMLID_69_" style="fill:#1D262D;" d="M344.932,473.331c0-2.051,1.465-3.706,3.486-3.706c2.138,0,3.398,1.67,3.398,3.794
				v0.279h-5.727c0.088,1.333,1.025,2.446,2.549,2.446c0.806,0,1.626-0.322,2.183-0.893l0.527,0.718
				c-0.703,0.703-1.655,1.084-2.812,1.084C346.441,477.052,344.932,475.543,344.932,473.331z M348.404,470.533
				c-1.509,0-2.256,1.274-2.314,2.358h4.643C350.718,471.837,350.015,470.533,348.404,470.533z"/>
			<path id="XMLID_56_" style="fill:#1D262D;" d="M358.35,476.876v-1.055c-0.527,0.718-1.392,1.23-2.388,1.23
				c-1.846,0-3.149-1.406-3.149-3.706c0-2.256,1.289-3.721,3.149-3.721c0.952,0,1.817,0.469,2.388,1.245v-3.765h1.098v9.77H358.35z
				 M358.35,474.957v-3.208c-0.396-0.615-1.245-1.143-2.124-1.143c-1.421,0-2.27,1.172-2.27,2.739c0,1.567,0.849,2.724,2.27,2.724
				C357.105,476.07,357.954,475.572,358.35,474.957z"/>
			<path id="XMLID_221_" style="fill:#1D262D;" d="M364.692,476.876v-9.77h1.098v3.765c0.572-0.776,1.421-1.245,2.388-1.245
				c1.845,0,3.149,1.465,3.149,3.721c0,2.299-1.304,3.706-3.149,3.706c-0.996,0-1.86-0.513-2.388-1.23v1.055H364.692z M367.9,476.07
				c1.436,0,2.286-1.157,2.286-2.724c0-1.568-0.85-2.739-2.286-2.739c-0.864,0-1.728,0.527-2.109,1.143v3.208
				C366.171,475.572,367.036,476.07,367.9,476.07z"/>
			<path id="XMLID_24_" style="fill:#1D262D;" d="M372.528,478.648c0.161,0.073,0.425,0.117,0.601,0.117
				c0.483,0,0.806-0.161,1.055-0.747l0.469-1.069l-2.959-7.148h1.187l2.358,5.801l2.344-5.801h1.201l-3.545,8.51
				c-0.425,1.025-1.143,1.421-2.08,1.435c-0.234,0-0.601-0.044-0.806-0.103L372.528,478.648z"/>
		</g>
	</g>
</g>
</svg>
