<?xml version="1.0" encoding="utf-8"?>
<!-- Generator: Adobe Illustrator 27.5.0, SVG Export Plug-In . SVG Version: 6.00 Build 0)  -->
<svg version="1.1" xmlns="http://www.w3.org/2000/svg" xmlns:xlink="http://www.w3.org/1999/xlink" x="0px" y="0px"
	 viewBox="0 0 750 500" style="enable-background:new 0 0 750 500;" xml:space="preserve">
<g id="BACKGROUND">
	<rect style="fill-rule:evenodd;clip-rule:evenodd;fill:#FFFFFF;" width="750" height="500"/>
</g>
<g id="OBJECTS">
	<g>
		<path style="fill-rule:evenodd;clip-rule:evenodd;fill:#E2E7F5;" d="M119.87,454.989c-52.403,0-95.278-42.876-95.278-95.278
			v-0.001c0-52.403,42.874-95.278,95.277-95.278h0.001c22.158-0.001,40.285-18.129,40.285-40.286l0,0
			c0-22.158-18.127-40.286-40.286-40.286h-4.794c-23.036,0-41.885-18.848-41.885-41.885l0,0c0-23.037,18.849-41.885,41.885-41.885
			h87.776c8.967,0,16.306-7.337,16.306-16.306l0,0c0-8.968-7.338-16.306-16.306-16.306h-10.809c-6.189,0-11.255-5.064-11.255-11.254
			l0,0c0-6.189,5.066-11.253,11.255-11.253h40.506c0,0,15.476,0,30.413,0c14.936,0,16.599,17.644,54.327,17.644
			c58.319,0,191.441,0,249.763,0c8.075,0,14.684,6.609,14.684,14.685l0,0c0,8.076-6.608,14.684-14.684,14.684h-14.102
			c-11.703,0-21.277,9.577-21.277,21.278l0,0c0,11.702,9.574,21.278,21.277,21.278H653.4c30.06,0,54.652,24.596,54.652,54.653v0.001
			c0,30.059-24.595,54.654-54.652,54.654h-1.748c-28.915,0-52.569,23.657-52.569,52.567l0,0c0,28.912,23.654,52.569,52.569,52.569
			h21.752c29.152,0,53.002,23.851,53.002,53.002l0,0c0,29.151-23.85,53.003-53.002,53.003
			C522.585,454.989,270.69,454.989,119.87,454.989L119.87,454.989z M160.462,67.479c6.215,0,11.255-5.039,11.255-11.255
			c0-6.215-5.04-11.253-11.255-11.253c-6.215,0-11.254,5.039-11.254,11.253C149.208,62.439,154.246,67.479,160.462,67.479z"/>
		<g>
			<g>
				<g>
					<path style="fill-rule:evenodd;clip-rule:evenodd;fill:#FFFFFF;" d="M175.665,113.743h49.913c1.949,0,3.543,1.594,3.543,3.542
						V188.2c0,1.948-1.594,3.543-3.543,3.543h-49.913c-1.948,0-3.542-1.594-3.542-3.543v-70.914
						C172.123,115.337,173.717,113.743,175.665,113.743z"/>
					<path style="fill-rule:evenodd;clip-rule:evenodd;fill:#FFFFFF;" d="M241.685,113.743h49.914c1.95,0,3.543,1.594,3.543,3.542
						V188.2c0,1.948-1.594,3.543-3.543,3.543h-49.914c-1.947,0-3.541-1.594-3.541-3.543v-70.914
						C238.144,115.337,239.738,113.743,241.685,113.743z"/>
					<path style="fill-rule:evenodd;clip-rule:evenodd;fill:#FFFFFF;" d="M175.665,202.95h49.913c1.949,0,3.543,1.594,3.543,3.542
						v70.915c0,1.948-1.594,3.542-3.543,3.542h-49.913c-1.948,0-3.542-1.594-3.542-3.542v-70.915
						C172.123,204.544,173.717,202.95,175.665,202.95z"/>
					<path style="fill-rule:evenodd;clip-rule:evenodd;fill:#FFFFFF;" d="M241.685,202.95h49.914c1.95,0,3.543,1.594,3.543,3.542
						v70.915c0,1.948-1.594,3.542-3.543,3.542h-49.914c-1.947,0-3.541-1.594-3.541-3.542v-70.915
						C238.144,204.544,239.738,202.95,241.685,202.95z"/>
				</g>
				<path style="fill-rule:evenodd;clip-rule:evenodd;fill:#487B70;" d="M155.569,286.065h158.785c1.832,0,3.332,1.385,3.332,3.079
					l0,0c0,1.693-1.5,3.079-3.332,3.079h-10.53v11.13H166.099v-11.13h-10.53c-1.832,0-3.331-1.386-3.331-3.079l0,0
					C152.238,287.45,153.736,286.065,155.569,286.065z"/>
			</g>
			<g>
				<g>
					<path style="fill-rule:evenodd;clip-rule:evenodd;fill:#BC4E79;" d="M213.456,96.374
						c2.068,59.064-26.694,110.603-58.915,147.188h-17.491V96.374H213.456z"/>
					<path style="fill-rule:evenodd;clip-rule:evenodd;fill:#BC4E79;" d="M153.019,251.641h-15.97v87.948
						C193.005,328.142,163.904,251.641,153.019,251.641z"/>
					<path style="fill-rule:evenodd;clip-rule:evenodd;fill:#9F376D;" d="M186.919,98.048c0.002-0.465,0.383-0.843,0.849-0.84
						c0.467,0.001,0.844,0.381,0.841,0.847c-0.576,74.494-36.401,142.416-39.198,147.61c1.502,4.355,16.268,48.347,7.039,70.266
						c-9.745,23.14-18.515,25.024-18.538,25.03c-0.456,0.106-0.912-0.176-1.018-0.632c-0.107-0.456,0.176-0.912,0.632-1.018
						c0.023-0.004,7.961-1.699,17.366-24.037c9.447-22.434-7.154-69.269-7.201-69.404c-0.075-0.217-0.063-0.464,0.056-0.681
						C147.858,244.984,186.323,175.023,186.919,98.048z"/>
					<rect x="132.931" y="241.853" style="fill-rule:evenodd;clip-rule:evenodd;fill:#9F376D;" width="27.825" height="10.771"/>
					<path style="fill-rule:evenodd;clip-rule:evenodd;fill:#9F376D;" d="M156.621,98.053c0-0.468,0.379-0.845,0.844-0.845
						c0.467,0,0.846,0.378,0.846,0.845c-0.231,75.467-14.756,144.179-15.483,147.571c0.402,2.916,6.489,47.963,2.81,70.115
						c-3.843,23.126-7.471,25.114-7.48,25.12c-0.399,0.242-0.919,0.114-1.16-0.284c-0.242-0.399-0.114-0.918,0.284-1.16
						c0.009-0.005,2.973-1.597,6.688-23.947c3.717-22.372-2.679-68.619-2.833-69.732c-0.019-0.103-0.016-0.21,0.006-0.319
						C141.185,245.212,156.385,175.142,156.621,98.053z"/>
				</g>
				<g>
					<path style="fill-rule:evenodd;clip-rule:evenodd;fill:#BC4E79;" d="M256.75,96.374
						c-2.068,59.064,26.694,110.603,58.916,147.188h17.491V96.374H256.75z"/>
					<path style="fill-rule:evenodd;clip-rule:evenodd;fill:#BC4E79;" d="M317.187,251.641h15.97v87.948
						C277.201,328.142,306.303,251.641,317.187,251.641z"/>
					<path style="fill-rule:evenodd;clip-rule:evenodd;fill:#9F376D;" d="M283.287,98.048c-0.003-0.465-0.382-0.843-0.849-0.84
						c-0.467,0.001-0.844,0.381-0.841,0.847c0.578,74.494,36.401,142.416,39.199,147.61c-1.503,4.355-16.269,48.347-7.039,70.266
						c9.744,23.14,18.514,25.024,18.539,25.03c0.454,0.106,0.91-0.176,1.018-0.632c0.105-0.456-0.178-0.912-0.634-1.018
						c-0.023-0.004-7.961-1.699-17.365-24.037c-9.447-22.434,7.152-69.269,7.199-69.404c0.075-0.217,0.063-0.464-0.056-0.681
						C322.348,244.984,283.883,175.023,283.287,98.048z"/>
					<rect x="309.45" y="241.853" style="fill-rule:evenodd;clip-rule:evenodd;fill:#9F376D;" width="27.825" height="10.771"/>
					<path style="fill-rule:evenodd;clip-rule:evenodd;fill:#9F376D;" d="M313.585,98.053c0-0.468-0.378-0.845-0.844-0.845
						c-0.467,0-0.846,0.378-0.846,0.845c0.231,75.467,14.756,144.179,15.483,147.571c-0.402,2.916-6.489,47.963-2.81,70.115
						c3.843,23.126,7.471,25.114,7.482,25.12c0.398,0.242,0.917,0.114,1.16-0.284c0.241-0.399,0.112-0.918-0.285-1.16
						c-0.009-0.005-2.973-1.597-6.686-23.947c-3.716-22.372,2.678-68.619,2.832-69.732c0.019-0.103,0.018-0.21-0.005-0.319
						C329.021,245.212,313.821,175.142,313.585,98.053z"/>
				</g>
			</g>
			<g>
				<g>
					<path style="fill-rule:evenodd;clip-rule:evenodd;fill:#203137;" d="M173.785,240.749c-7.328-2.839-9.186,3.339-6.337,8.455
						c2.847,5.116,17.463,22.32,18.227,29.144c0.296,2.646,0.973,2.356,1.551,0.502
						C190.114,269.599,183.871,244.658,173.785,240.749z"/>
					<path style="fill-rule:evenodd;clip-rule:evenodd;fill:#447056;" d="M186.173,280.193c0.211,0.221,0.454,0.048,0.696-0.427
						c1.054-16.279-16.402-37.14-16.458-37.206c-0.096-0.116-0.3-0.152-0.458-0.082c-0.158,0.069-0.208,0.219-0.112,0.333
						C169.896,242.879,187.59,264.025,186.173,280.193z"/>
					<g>
						<path style="fill-rule:evenodd;clip-rule:evenodd;fill:#447056;" d="M189.298,217.311c8.401-5.515,13.653,2.206,12.202,9.653
							c-1.453,7.447-12.992,33.706-10.913,42.909c0.805,3.568-0.22,3.35-1.823,1.037
							C180.762,259.375,177.733,224.903,189.298,217.311z"/>
						<path style="fill-rule:evenodd;clip-rule:evenodd;fill:#203137;" d="M190.762,272.431c-0.18,0.342-0.58,0.172-1.115-0.398
							c-8.755-21.266,4.885-53.039,4.928-53.141c0.075-0.175,0.33-0.273,0.57-0.218c0.238,0.054,0.374,0.239,0.299,0.415
							C195.401,219.191,181.576,251.398,190.762,272.431z"/>
					</g>
					<g>
						<path style="fill-rule:evenodd;clip-rule:evenodd;fill:#B6CF8C;" d="M207.647,234.98c8.14-2.584,9.418,4.12,5.794,9.404
							c-3.625,5.283-21.183,22.75-22.778,29.982c-0.617,2.804-1.306,2.454-1.711,0.44
							C186.929,264.764,196.441,238.536,207.647,234.98z"/>
						<path style="fill-rule:evenodd;clip-rule:evenodd;fill:#739655;" d="M189.922,276.304c-0.25,0.223-0.491,0.022-0.694-0.498
							c0.736-17.43,21.743-38.621,21.808-38.691c0.116-0.117,0.339-0.144,0.501-0.06c0.159,0.084,0.196,0.247,0.081,0.364
							C211.551,237.489,190.259,258.97,189.922,276.304z"/>
					</g>
				</g>
				<g>
					<polygon style="fill-rule:evenodd;clip-rule:evenodd;fill:#3F425E;" points="196.185,269.531 180.546,269.531 176.463,273.216 
						179.799,286.065 188.366,286.065 196.933,286.065 200.268,273.216 					"/>
					<path style="fill-rule:evenodd;clip-rule:evenodd;fill:#3F425E;" d="M200.268,264.75h-23.805c-0.713,0-1.295,0.582-1.295,1.294
						v5.877c0,0.712,0.582,1.295,1.295,1.295h23.805c0.713,0,1.295-0.583,1.295-1.295v-5.877
						C201.563,265.332,200.981,264.75,200.268,264.75z"/>
					<polygon style="fill-rule:evenodd;clip-rule:evenodd;fill:#181C39;" points="176.463,273.216 177.148,275.857 199.582,275.857 
						200.268,273.216 					"/>
				</g>
			</g>
			<g>
				<rect x="132.001" y="91.212" style="fill-rule:evenodd;clip-rule:evenodd;fill:#5C968B;" width="210.623" height="10.173"/>
				<path style="fill-rule:evenodd;clip-rule:evenodd;fill:#487B70;" d="M112.544,102.058c3.132,0,5.685-2.554,5.685-5.685
					c0-3.131-2.553-5.684-5.685-5.684c-3.13,0-5.685,2.553-5.685,5.684C106.859,99.504,109.414,102.058,112.544,102.058z"/>
				<circle style="fill-rule:evenodd;clip-rule:evenodd;fill:#487B70;" cx="124.885" cy="96.374" r="12.342"/>
				<path style="fill-rule:evenodd;clip-rule:evenodd;fill:#487B70;" d="M357.663,102.058c3.13,0,5.685-2.554,5.685-5.685
					c0-3.131-2.555-5.684-5.685-5.684c-3.132,0-5.685,2.553-5.685,5.684C351.978,99.504,354.53,102.058,357.663,102.058z"/>
				<path style="fill-rule:evenodd;clip-rule:evenodd;fill:#487B70;" d="M343.658,108.715c6.798,0,12.34-5.544,12.34-12.342
					c0-6.797-5.542-12.342-12.34-12.342c-6.797,0-12.342,5.544-12.342,12.342C331.316,103.172,336.86,108.715,343.658,108.715z"/>
				<path style="fill-rule:evenodd;clip-rule:evenodd;fill:#487B70;" d="M256.734,96.897h-43.259h-0.961h-75.296
					c-0.023,0.534-0.08,1.06-0.168,1.574c-0.093,0.553-0.226,1.094-0.39,1.619c-0.14,0.443-0.304,0.876-0.491,1.295h0.881h19.553
					h1.689h28.579h1.69h24.999h43.09h24.998h1.69h28.58h1.689h18.771c-0.615-1.38-0.982-2.895-1.05-4.488H256.734z"/>
				<path style="fill-rule:evenodd;clip-rule:evenodd;fill:#5C968B;" d="M125.832,87.107c-1.984-1.914-5.582-1.4-8.036,1.145
					c-2.454,2.544-2.835,6.158-0.851,8.071c1.982,1.912,5.58,1.4,8.034-1.146C127.433,92.632,127.814,89.019,125.832,87.107z"/>
				<path style="fill-rule:evenodd;clip-rule:evenodd;fill:#5C968B;" d="M346.038,87.107c-1.984-1.914-5.581-1.4-8.036,1.145
					c-2.454,2.544-2.835,6.158-0.851,8.071c1.982,1.912,5.58,1.4,8.034-1.146C347.64,92.632,348.021,89.019,346.038,87.107z"/>
			</g>
		</g>
		<g>
			<g>
				<path style="fill-rule:evenodd;clip-rule:evenodd;fill:#FFFFFF;" d="M397.789,246.991c1.793,0,3.256-1.463,3.256-3.257
					c0-1.794-1.463-3.257-3.256-3.257c-1.796,0-3.259,1.463-3.259,3.257C394.53,245.527,395.993,246.991,397.789,246.991z"/>
				<path style="fill-rule:evenodd;clip-rule:evenodd;fill:#FFFFFF;" d="M410.977,246.991c1.793,0,3.256-1.463,3.256-3.257
					c0-1.794-1.463-3.257-3.256-3.257c-1.795,0-3.258,1.463-3.258,3.257C407.719,245.527,409.182,246.991,410.977,246.991z"/>
				<path style="fill-rule:evenodd;clip-rule:evenodd;fill:#FFFFFF;" d="M424.162,246.991c1.795,0,3.259-1.463,3.259-3.257
					c0-1.794-1.464-3.257-3.259-3.257c-1.793,0-3.256,1.463-3.256,3.257C420.906,245.527,422.369,246.991,424.162,246.991z"/>
				<path style="fill-rule:evenodd;clip-rule:evenodd;fill:#FFFFFF;" d="M437.351,246.991c1.795,0,3.258-1.463,3.258-3.257
					c0-1.794-1.463-3.257-3.258-3.257c-1.793,0-3.257,1.463-3.257,3.257C434.094,245.527,435.558,246.991,437.351,246.991z"/>
				<path style="fill-rule:evenodd;clip-rule:evenodd;fill:#FFFFFF;" d="M463.726,246.991c1.793,0,3.257-1.463,3.257-3.257
					c0-1.794-1.464-3.257-3.257-3.257c-1.795,0-3.258,1.463-3.258,3.257C460.468,245.527,461.931,246.991,463.726,246.991z"/>
				<path style="fill-rule:evenodd;clip-rule:evenodd;fill:#FFFFFF;" d="M476.914,246.991c1.793,0,3.256-1.463,3.256-3.257
					c0-1.794-1.463-3.257-3.256-3.257c-1.796,0-3.259,1.463-3.259,3.257C473.655,245.527,475.118,246.991,476.914,246.991z"/>
				<path style="fill-rule:evenodd;clip-rule:evenodd;fill:#FFFFFF;" d="M490.102,246.991c1.793,0,3.256-1.463,3.256-3.257
					c0-1.794-1.463-3.257-3.256-3.257c-1.795,0-3.259,1.463-3.259,3.257C486.843,245.527,488.307,246.991,490.102,246.991z"/>
				<path style="fill-rule:evenodd;clip-rule:evenodd;fill:#FFFFFF;" d="M384.601,260.178c1.793,0,3.257-1.463,3.257-3.257
					c0-1.794-1.464-3.258-3.257-3.258c-1.793,0-3.258,1.464-3.258,3.258C381.343,258.715,382.808,260.178,384.601,260.178z"/>
				<path style="fill-rule:evenodd;clip-rule:evenodd;fill:#FFFFFF;" d="M410.977,260.178c1.793,0,3.256-1.463,3.256-3.257
					c0-1.794-1.463-3.258-3.256-3.258c-1.795,0-3.258,1.464-3.258,3.258C407.719,258.715,409.182,260.178,410.977,260.178z"/>
				<path style="fill-rule:evenodd;clip-rule:evenodd;fill:#FFFFFF;" d="M437.351,260.178c1.795,0,3.258-1.463,3.258-3.257
					c0-1.794-1.463-3.258-3.258-3.258c-1.793,0-3.257,1.464-3.257,3.258C434.094,258.715,435.558,260.178,437.351,260.178z"/>
				<path style="fill-rule:evenodd;clip-rule:evenodd;fill:#FFFFFF;" d="M450.538,260.178c1.795,0,3.256-1.463,3.256-3.257
					c0-1.794-1.461-3.258-3.256-3.258c-1.793,0-3.256,1.464-3.256,3.258C447.282,258.715,448.745,260.178,450.538,260.178z"/>
				<path style="fill-rule:evenodd;clip-rule:evenodd;fill:#FFFFFF;" d="M463.726,260.178c1.793,0,3.257-1.463,3.257-3.257
					c0-1.794-1.464-3.258-3.257-3.258c-1.795,0-3.258,1.464-3.258,3.258C460.468,258.715,461.931,260.178,463.726,260.178z"/>
				<path style="fill-rule:evenodd;clip-rule:evenodd;fill:#FFFFFF;" d="M476.914,260.178c1.793,0,3.256-1.463,3.256-3.257
					c0-1.794-1.463-3.258-3.256-3.258c-1.796,0-3.259,1.464-3.259,3.258C473.655,258.715,475.118,260.178,476.914,260.178z"/>
				<path style="fill-rule:evenodd;clip-rule:evenodd;fill:#FFFFFF;" d="M410.977,273.365c1.793,0,3.256-1.463,3.256-3.257
					c0-1.794-1.463-3.258-3.256-3.258c-1.795,0-3.258,1.464-3.258,3.258C407.719,271.902,409.182,273.365,410.977,273.365z"/>
				<path style="fill-rule:evenodd;clip-rule:evenodd;fill:#FFFFFF;" d="M424.162,273.365c1.795,0,3.259-1.463,3.259-3.257
					c0-1.794-1.464-3.258-3.259-3.258c-1.793,0-3.256,1.464-3.256,3.258C420.906,271.902,422.369,273.365,424.162,273.365z"/>
				<path style="fill-rule:evenodd;clip-rule:evenodd;fill:#FFFFFF;" d="M437.351,273.365c1.795,0,3.258-1.463,3.258-3.257
					c0-1.794-1.463-3.258-3.258-3.258c-1.793,0-3.257,1.464-3.257,3.258C434.094,271.902,435.558,273.365,437.351,273.365z"/>
				<path style="fill-rule:evenodd;clip-rule:evenodd;fill:#FFFFFF;" d="M450.538,273.365c1.795,0,3.256-1.463,3.256-3.257
					c0-1.794-1.461-3.258-3.256-3.258c-1.793,0-3.256,1.464-3.256,3.258C447.282,271.902,448.745,273.365,450.538,273.365z"/>
				<path style="fill-rule:evenodd;clip-rule:evenodd;fill:#FFFFFF;" d="M463.726,273.365c1.793,0,3.257-1.463,3.257-3.257
					c0-1.794-1.464-3.258-3.257-3.258c-1.795,0-3.258,1.464-3.258,3.258C460.468,271.902,461.931,273.365,463.726,273.365z"/>
				<path style="fill-rule:evenodd;clip-rule:evenodd;fill:#FFFFFF;" d="M490.102,273.365c1.793,0,3.256-1.463,3.256-3.257
					c0-1.794-1.463-3.258-3.256-3.258c-1.795,0-3.259,1.464-3.259,3.258C486.843,271.902,488.307,273.365,490.102,273.365z"/>
				<path style="fill-rule:evenodd;clip-rule:evenodd;fill:#FFFFFF;" d="M503.287,273.365c1.795,0,3.259-1.463,3.259-3.257
					c0-1.794-1.464-3.258-3.259-3.258c-1.793,0-3.256,1.464-3.256,3.258C500.031,271.902,501.494,273.365,503.287,273.365z"/>
			</g>
			<path style="fill-rule:evenodd;clip-rule:evenodd;fill:#FFFFFF;" d="M49.68,344.363c-0.557,0-1.01-0.452-1.01-1.011
				c0-0.559,0.453-1.012,1.01-1.012c0.699,0,1.339-0.197,1.84-0.583c0.471-0.359,0.834-0.9,1.026-1.615
				c0.311-1.166,0.933-2.07,1.751-2.698c0.862-0.663,1.928-1.002,3.063-1.002s2.201,0.339,3.063,1.002
				c0.818,0.628,1.44,1.532,1.75,2.698c0.192,0.715,0.557,1.256,1.026,1.616c0.501,0.385,1.142,0.582,1.839,0.582
				c0.697,0,1.337-0.197,1.84-0.583c0.47-0.359,0.832-0.9,1.023-1.615c0.313-1.166,0.935-2.07,1.751-2.698
				c0.862-0.663,1.928-1.002,3.064-1.002c1.136,0,2.201,0.339,3.064,1.002c0.815,0.628,1.438,1.532,1.75,2.698
				c0.192,0.715,0.554,1.256,1.024,1.615c0.502,0.386,1.143,0.583,1.839,0.583c0.698,0,1.338-0.197,1.84-0.583
				c0.47-0.359,0.834-0.9,1.025-1.615c0.312-1.166,0.934-2.07,1.752-2.698c0.862-0.663,1.928-1.002,3.062-1.002
				c1.136,0,2.202,0.339,3.064,1.002c0.817,0.628,1.438,1.532,1.75,2.698c0.192,0.715,0.555,1.256,1.025,1.615
				c0.501,0.386,1.142,0.583,1.84,0.583c0.697,0,1.337-0.197,1.84-0.583c0.47-0.359,0.832-0.9,1.024-1.615
				c0.313-1.166,0.935-2.07,1.751-2.698c0.863-0.663,1.929-1.002,3.064-1.002c1.136,0,2.2,0.339,3.064,1.002
				c0.816,0.628,1.438,1.532,1.751,2.698c0.191,0.715,0.554,1.256,1.024,1.615c0.502,0.386,1.142,0.583,1.84,0.583
				c0.696,0,1.337-0.197,1.839-0.582c0.47-0.36,0.834-0.901,1.024-1.616c0.313-1.166,0.935-2.07,1.752-2.698
				c0.864-0.663,1.927-1.002,3.063-1.002c1.136,0,2.202,0.339,3.064,1.002c0.816,0.628,1.438,1.532,1.751,2.698
				c0.191,0.715,0.554,1.256,1.023,1.615c0.503,0.386,1.143,0.583,1.84,0.583c0.559,0,1.012,0.453,1.012,1.012
				c0,0.559-0.454,1.011-1.012,1.011c-1.135,0-2.2-0.339-3.062-1.002c-0.818-0.627-1.44-1.53-1.752-2.697
				c-0.19-0.715-0.555-1.256-1.025-1.617c-0.502-0.386-1.141-0.582-1.84-0.582c-0.696,0-1.337,0.196-1.839,0.582
				c-0.47,0.361-0.832,0.902-1.024,1.617c-0.313,1.167-0.935,2.07-1.75,2.697c-0.864,0.663-1.929,1.002-3.065,1.002
				c-1.136,0-2.201-0.339-3.064-1.002c-0.816-0.627-1.438-1.53-1.751-2.697c-0.191-0.715-0.554-1.256-1.023-1.617
				c-0.503-0.386-1.143-0.582-1.84-0.582c-0.698,0-1.337,0.196-1.839,0.582c-0.47,0.361-0.834,0.902-1.025,1.617
				c-0.312,1.167-0.934,2.07-1.752,2.697c-0.863,0.663-1.929,1.002-3.063,1.002c-1.136,0-2.202-0.339-3.064-1.002
				c-0.818-0.627-1.44-1.53-1.751-2.697c-0.192-0.715-0.556-1.256-1.026-1.617c-0.501-0.386-1.141-0.582-1.84-0.582
				c-0.696,0-1.337,0.196-1.839,0.582c-0.47,0.361-0.833,0.902-1.024,1.617c-0.313,1.167-0.935,2.07-1.751,2.697
				c-0.862,0.663-1.928,1.002-3.064,1.002c-1.136,0-2.199-0.339-3.064-1.002c-0.816-0.627-1.437-1.53-1.751-2.697
				c-0.19-0.715-0.554-1.256-1.024-1.617c-0.502-0.386-1.143-0.582-1.839-0.582c-0.697,0-1.337,0.196-1.84,0.582
				c-0.47,0.361-0.833,0.902-1.023,1.617c-0.313,1.167-0.935,2.07-1.753,2.697c-0.862,0.663-1.927,1.002-3.062,1.002
				c-1.136,0-2.202-0.339-3.064-1.002c-0.817-0.627-1.438-1.53-1.75-2.697c-0.192-0.715-0.554-1.256-1.025-1.617
				c-0.501-0.386-1.142-0.582-1.84-0.582c-0.698,0-1.338,0.196-1.838,0.582c-0.472,0.361-0.834,0.902-1.026,1.617
				c-0.312,1.167-0.933,2.07-1.751,2.697C51.882,344.024,50.817,344.363,49.68,344.363z"/>
			<path style="fill-rule:evenodd;clip-rule:evenodd;fill:#FFFFFF;" d="M409.19,91.604c-0.559,0-1.01-0.454-1.01-1.011
				c0-0.559,0.451-1.011,1.01-1.011c0.699,0,1.338-0.197,1.84-0.583c0.47-0.361,0.835-0.901,1.026-1.617
				c0.31-1.166,0.933-2.071,1.751-2.697c0.862-0.664,1.928-1.001,3.062-1.001c1.137,0,2.202,0.338,3.064,1.001
				c0.818,0.626,1.44,1.531,1.751,2.697c0.191,0.715,0.554,1.255,1.026,1.617c0.5,0.386,1.141,0.583,1.839,0.583
				c0.697,0,1.338-0.197,1.84-0.583c0.47-0.361,0.832-0.901,1.024-1.617c0.313-1.166,0.933-2.071,1.75-2.697
				c0.863-0.664,1.929-1.001,3.064-1.001c1.137,0,2.2,0.338,3.063,1.001c0.818,0.626,1.439,1.531,1.753,2.697
				c0.191,0.715,0.554,1.255,1.023,1.617c0.503,0.386,1.144,0.583,1.84,0.583s1.337-0.197,1.84-0.583
				c0.47-0.361,0.832-0.901,1.023-1.617c0.313-1.166,0.935-2.071,1.751-2.697c0.865-0.664,1.929-1.001,3.065-1.001
				c1.136,0,2.202,0.338,3.064,1.001c0.815,0.626,1.438,1.531,1.751,2.697c0.191,0.715,0.554,1.255,1.023,1.617
				c0.503,0.386,1.143,0.583,1.84,0.583c0.698,0,1.339-0.197,1.839-0.583c0.47-0.361,0.835-0.901,1.026-1.617
				c0.311-1.166,0.933-2.071,1.751-2.697c0.862-0.664,1.929-1.001,3.065-1.001c1.134,0,2.199,0.338,3.061,1.001
				c0.818,0.626,1.44,1.531,1.751,2.697c0.191,0.715,0.557,1.255,1.026,1.617c0.5,0.386,1.141,0.583,1.84,0.583
				c0.696,0,1.337-0.197,1.839-0.583c0.47-0.361,0.833-0.901,1.025-1.617c0.313-1.166,0.934-2.071,1.751-2.697
				c0.862-0.664,1.928-1.001,3.064-1.001c1.137,0,2.2,0.338,3.065,1.001c0.816,0.626,1.438,1.531,1.751,2.697
				c0.191,0.715,0.554,1.255,1.025,1.617c0.502,0.386,1.142,0.583,1.839,0.583c0.559,0,1.013,0.452,1.013,1.011
				c0,0.557-0.454,1.011-1.013,1.011c-1.136,0-2.201-0.339-3.062-1.001c-0.818-0.628-1.44-1.532-1.753-2.699
				c-0.192-0.714-0.555-1.255-1.024-1.616c-0.502-0.386-1.143-0.582-1.84-0.582c-0.696,0-1.337,0.196-1.839,0.582
				c-0.47,0.361-0.832,0.901-1.024,1.616c-0.313,1.166-0.934,2.071-1.753,2.699c-0.862,0.663-1.926,1.001-3.061,1.001
				c-1.137,0-2.202-0.339-3.064-1.001c-0.816-0.628-1.438-1.532-1.751-2.699c-0.191-0.715-0.554-1.255-1.023-1.616
				c-0.503-0.386-1.143-0.582-1.84-0.582c-0.699,0-1.34,0.196-1.84,0.582c-0.472,0.361-0.834,0.901-1.026,1.616
				c-0.311,1.166-0.935,2.071-1.75,2.699c-0.863,0.663-1.929,1.001-3.065,1.001c-1.137,0-2.2-0.339-3.063-1.001
				c-0.818-0.628-1.439-1.532-1.751-2.699c-0.191-0.714-0.556-1.255-1.025-1.616c-0.501-0.386-1.141-0.582-1.84-0.582
				c-0.696,0-1.337,0.196-1.84,0.582c-0.47,0.361-0.832,0.901-1.023,1.616c-0.314,1.166-0.935,2.071-1.751,2.699
				c-0.862,0.663-1.929,1.001-3.064,1.001c-1.136,0-2.202-0.339-3.064-1.001c-0.815-0.628-1.438-1.532-1.751-2.699
				c-0.191-0.714-0.554-1.255-1.023-1.616c-0.503-0.386-1.143-0.582-1.84-0.582c-0.698,0-1.337,0.196-1.839,0.582
				c-0.471,0.361-0.835,0.901-1.026,1.616c-0.311,1.166-0.933,2.071-1.751,2.699c-0.862,0.663-1.929,1.001-3.063,1.001
				c-1.136,0-2.201-0.339-3.064-1.001c-0.818-0.628-1.44-1.532-1.751-2.699c-0.191-0.715-0.557-1.255-1.026-1.616
				c-0.5-0.386-1.141-0.582-1.84-0.582c-0.696,0-1.337,0.196-1.839,0.582c-0.471,0.361-0.833,0.901-1.024,1.616
				c-0.313,1.166-0.935,2.071-1.751,2.699C411.393,91.265,410.327,91.604,409.19,91.604z"/>
			<path style="fill-rule:evenodd;clip-rule:evenodd;fill:#FFFFFF;" d="M473.258,106.044c1.124,0,2.146,0.457,2.882,1.196
				c0.739,0.737,1.197,1.758,1.197,2.883c0,1.126-0.458,2.147-1.197,2.884c-0.736,0.739-1.758,1.194-2.882,1.194
				c-1.126,0-2.147-0.456-2.884-1.194c-0.739-0.737-1.197-1.758-1.197-2.884c0-1.125,0.458-2.146,1.197-2.883
				C471.11,106.501,472.132,106.044,473.258,106.044z"/>
			<path style="fill-rule:evenodd;clip-rule:evenodd;fill:#FFFFFF;" d="M651.098,216.386c1.127,0,2.147,0.456,2.885,1.194
				c0.736,0.738,1.194,1.758,1.194,2.885c0,1.126-0.458,2.146-1.194,2.884c-0.738,0.737-1.758,1.194-2.885,1.194
				c-1.126,0-2.145-0.457-2.884-1.194c-0.739-0.739-1.194-1.758-1.194-2.884c0-1.127,0.455-2.147,1.194-2.885
				C648.952,216.842,649.972,216.386,651.098,216.386z"/>
			<g>
				<path style="fill-rule:evenodd;clip-rule:evenodd;fill:#FFFFFF;" d="M605.962,173.133c1.127,0,2.045-0.918,2.045-2.045
					c0-1.127-0.918-2.045-2.045-2.045c-1.127,0-2.045,0.919-2.045,2.045C603.917,172.214,604.835,173.133,605.962,173.133z"/>
				<path style="fill-rule:evenodd;clip-rule:evenodd;fill:#FFFFFF;" d="M614.243,173.133c1.127,0,2.046-0.918,2.046-2.045
					c0-1.127-0.919-2.045-2.046-2.045c-1.126,0-2.045,0.919-2.045,2.045C612.198,172.214,613.117,173.133,614.243,173.133z"/>
				<path style="fill-rule:evenodd;clip-rule:evenodd;fill:#FFFFFF;" d="M622.525,173.133c1.126,0,2.047-0.918,2.047-2.045
					c0-1.127-0.921-2.045-2.047-2.045c-1.127,0-2.046,0.919-2.046,2.045C620.479,172.214,621.398,173.133,622.525,173.133z"/>
				<path style="fill-rule:evenodd;clip-rule:evenodd;fill:#FFFFFF;" d="M630.809,173.133c1.127,0,2.046-0.918,2.046-2.045
					c0-1.127-0.919-2.045-2.046-2.045c-1.126,0-2.045,0.919-2.045,2.045C628.764,172.214,629.683,173.133,630.809,173.133z"/>
				<path style="fill-rule:evenodd;clip-rule:evenodd;fill:#FFFFFF;" d="M647.372,173.133c1.127,0,2.045-0.918,2.045-2.045
					c0-1.127-0.918-2.045-2.045-2.045c-1.127,0-2.045,0.919-2.045,2.045C645.327,172.214,646.245,173.133,647.372,173.133z"/>
				<path style="fill-rule:evenodd;clip-rule:evenodd;fill:#FFFFFF;" d="M655.653,173.133c1.129,0,2.048-0.918,2.048-2.045
					c0-1.127-0.919-2.045-2.048-2.045c-1.124,0-2.045,0.919-2.045,2.045C653.608,172.214,654.529,173.133,655.653,173.133z"/>
				<path style="fill-rule:evenodd;clip-rule:evenodd;fill:#FFFFFF;" d="M663.938,173.133c1.127,0,2.046-0.918,2.046-2.045
					c0-1.127-0.919-2.045-2.046-2.045c-1.127,0-2.045,0.919-2.045,2.045C661.893,172.214,662.811,173.133,663.938,173.133z"/>
				<path style="fill-rule:evenodd;clip-rule:evenodd;fill:#FFFFFF;" d="M597.681,181.416c1.126,0,2.045-0.92,2.045-2.046
					c0-1.126-0.919-2.045-2.045-2.045c-1.127,0-2.048,0.919-2.048,2.045C595.633,180.496,596.554,181.416,597.681,181.416z"/>
				<path style="fill-rule:evenodd;clip-rule:evenodd;fill:#FFFFFF;" d="M614.243,181.416c1.127,0,2.046-0.92,2.046-2.046
					c0-1.126-0.919-2.045-2.046-2.045c-1.126,0-2.045,0.919-2.045,2.045C612.198,180.496,613.117,181.416,614.243,181.416z"/>
				<path style="fill-rule:evenodd;clip-rule:evenodd;fill:#FFFFFF;" d="M630.809,181.416c1.127,0,2.046-0.92,2.046-2.046
					c0-1.126-0.919-2.045-2.046-2.045c-1.126,0-2.045,0.919-2.045,2.045C628.764,180.496,629.683,181.416,630.809,181.416z"/>
				<path style="fill-rule:evenodd;clip-rule:evenodd;fill:#FFFFFF;" d="M639.091,181.416c1.126,0,2.045-0.92,2.045-2.046
					c0-1.126-0.919-2.045-2.045-2.045c-1.127,0-2.046,0.919-2.046,2.045C637.045,180.496,637.964,181.416,639.091,181.416z"/>
				<path style="fill-rule:evenodd;clip-rule:evenodd;fill:#FFFFFF;" d="M647.372,181.416c1.127,0,2.045-0.92,2.045-2.046
					c0-1.126-0.918-2.045-2.045-2.045c-1.127,0-2.045,0.919-2.045,2.045C645.327,180.496,646.245,181.416,647.372,181.416z"/>
				<path style="fill-rule:evenodd;clip-rule:evenodd;fill:#FFFFFF;" d="M655.653,181.416c1.129,0,2.048-0.92,2.048-2.046
					c0-1.126-0.919-2.045-2.048-2.045c-1.124,0-2.045,0.919-2.045,2.045C653.608,180.496,654.529,181.416,655.653,181.416z"/>
				<path style="fill-rule:evenodd;clip-rule:evenodd;fill:#FFFFFF;" d="M614.243,189.697c1.127,0,2.046-0.919,2.046-2.045
					c0-1.126-0.919-2.045-2.046-2.045c-1.126,0-2.045,0.918-2.045,2.045C612.198,188.779,613.117,189.697,614.243,189.697z"/>
				<path style="fill-rule:evenodd;clip-rule:evenodd;fill:#FFFFFF;" d="M622.525,189.697c1.126,0,2.047-0.919,2.047-2.045
					c0-1.126-0.921-2.045-2.047-2.045c-1.127,0-2.046,0.918-2.046,2.045C620.479,188.779,621.398,189.697,622.525,189.697z"/>
				<path style="fill-rule:evenodd;clip-rule:evenodd;fill:#FFFFFF;" d="M630.809,189.697c1.127,0,2.046-0.919,2.046-2.045
					c0-1.126-0.919-2.045-2.046-2.045c-1.126,0-2.045,0.918-2.045,2.045C628.764,188.779,629.683,189.697,630.809,189.697z"/>
				<path style="fill-rule:evenodd;clip-rule:evenodd;fill:#FFFFFF;" d="M639.091,189.697c1.126,0,2.045-0.919,2.045-2.045
					c0-1.126-0.919-2.045-2.045-2.045c-1.127,0-2.046,0.918-2.046,2.045C637.045,188.779,637.964,189.697,639.091,189.697z"/>
				<path style="fill-rule:evenodd;clip-rule:evenodd;fill:#FFFFFF;" d="M647.372,189.697c1.127,0,2.045-0.919,2.045-2.045
					c0-1.126-0.918-2.045-2.045-2.045c-1.127,0-2.045,0.918-2.045,2.045C645.327,188.779,646.245,189.697,647.372,189.697z"/>
				<path style="fill-rule:evenodd;clip-rule:evenodd;fill:#FFFFFF;" d="M663.938,189.697c1.127,0,2.046-0.919,2.046-2.045
					c0-1.126-0.919-2.045-2.046-2.045c-1.127,0-2.045,0.918-2.045,2.045C661.893,188.779,662.811,189.697,663.938,189.697z"/>
				<path style="fill-rule:evenodd;clip-rule:evenodd;fill:#FFFFFF;" d="M672.22,189.697c1.126,0,2.045-0.919,2.045-2.045
					c0-1.126-0.919-2.045-2.045-2.045c-1.127,0-2.046,0.918-2.046,2.045C670.174,188.779,671.093,189.697,672.22,189.697z"/>
			</g>
		</g>
		<g>
			<path style="fill-rule:evenodd;clip-rule:evenodd;fill:#4A4A49;" d="M139.654,361.294l1.659-0.341
				c0.914-0.188,1.816,0.407,2.003,1.321l3.048,14.849c0.187,0.912-0.407,1.813-1.321,2.002l-1.66,0.34
				c-0.913,0.188-1.815-0.406-2.003-1.32l-3.046-14.848C138.146,362.383,138.741,361.482,139.654,361.294z"/>
			<path style="fill-rule:evenodd;clip-rule:evenodd;fill:#6E6E6D;" d="M136.648,346.639l1.66-0.34
				c0.914-0.188,1.813,0.406,2.002,1.32l3.047,14.849c0.188,0.913-0.407,1.815-1.321,2.002l-1.66,0.341
				c-0.913,0.188-1.814-0.407-2.001-1.321l-3.048-14.847C135.14,347.729,135.733,346.828,136.648,346.639z"/>
			<path style="fill-rule:evenodd;clip-rule:evenodd;fill:#5C5C5B;" d="M139.763,352.032l0.659-0.135
				c0.363-0.074,0.722,0.162,0.795,0.524l3.06,14.908c0.075,0.362-0.161,0.721-0.523,0.794l-0.659,0.136
				c-0.362,0.075-0.72-0.161-0.795-0.524l-3.06-14.907C139.165,352.464,139.401,352.107,139.763,352.032z"/>
		</g>
		<g>
			<path style="fill-rule:evenodd;clip-rule:evenodd;fill:#D57D42;" d="M153.433,349.263l1.685,0.181
				c0.928,0.1,1.606,0.94,1.505,1.868l-2.884,26.664c-0.101,0.929-0.939,1.606-1.868,1.507l-1.684-0.18
				c-0.927-0.1-1.607-0.94-1.506-1.868l2.887-26.665C151.667,349.841,152.506,349.165,153.433,349.263z"/>
			<g>
				<path style="fill-rule:evenodd;clip-rule:evenodd;fill:#FFFADB;" d="M153.447,349.228l1.692,0.183
					c0.933,0.1,1.615,0.944,1.515,1.877l-0.447,4.133c-0.262,0.116-0.636,0.216-1.11,0.235c-1.433,0.059-3.455-0.27-3.965-0.87
					l0.439-4.043C151.67,349.81,152.514,349.128,153.447,349.228z"/>
				<path style="fill-rule:evenodd;clip-rule:evenodd;fill:#CB516B;" d="M153.775,345.929l1.698,0.182
					c0.935,0.1,1.618,0.948,1.517,1.882l-0.57,5.315c-0.017,0.156-0.512,0.509-1.405,0.545c-1.522,0.062-3.773-0.358-3.693-1.091
					l0.57-5.315C151.993,346.512,152.839,345.83,153.775,345.929z"/>
			</g>
			<path style="fill-rule:evenodd;clip-rule:evenodd;fill:#DE9A5F;" d="M151.654,356.46c0.054-0.465,0.477-0.797,0.939-0.742
				c0.465,0.055,0.797,0.477,0.744,0.94l-1.945,16.456c-0.056,0.464-0.477,0.797-0.942,0.742c-0.463-0.056-0.796-0.478-0.741-0.941
				L151.654,356.46z"/>
		</g>
		<g>
			<path style="fill-rule:evenodd;clip-rule:evenodd;fill:#D98918;" d="M232.062,328.899c7.513,15.834,17.528,20.885,27.839,22.112
				c10.311,1.229,13.108-0.819,13.108-0.819c-18.545-8.428-16.346-28.581-16.495-28.255L232.062,328.899z"/>
			<path style="fill-rule:evenodd;clip-rule:evenodd;fill:#E5AC25;" d="M227.71,269.387h85.286c5.674,0,10.318,4.643,10.318,10.317
				v43.245c0,5.675-4.645,10.318-10.318,10.318H227.71c-5.675,0-10.317-4.644-10.317-10.318v-43.245
				C217.392,274.03,222.034,269.387,227.71,269.387z"/>
			<path style="fill-rule:evenodd;clip-rule:evenodd;fill:#FFFFFF;" d="M237.592,297.639c5.264,0,9.556-4.292,9.556-9.555
				c0-5.264-4.292-9.555-9.556-9.555c-5.261,0-9.554,4.291-9.554,9.555C228.038,293.347,232.331,297.639,237.592,297.639z"/>
			<g>
				<path style="fill-rule:evenodd;clip-rule:evenodd;fill:#FFFFFF;" d="M253.973,284.566c-0.467,0-0.848-0.38-0.848-0.849
					c0-0.467,0.381-0.847,0.848-0.847h61.697c0.467,0,0.848,0.38,0.848,0.847c0,0.469-0.381,0.849-0.848,0.849H253.973z"/>
				<path style="fill-rule:evenodd;clip-rule:evenodd;fill:#FFFFFF;" d="M253.973,296.305c-0.467,0-0.848-0.38-0.848-0.848
					c0-0.469,0.381-0.849,0.848-0.849h61.697c0.467,0,0.848,0.38,0.848,0.849c0,0.468-0.381,0.848-0.848,0.848H253.973z"/>
				<path style="fill-rule:evenodd;clip-rule:evenodd;fill:#FFFFFF;" d="M228.039,308.044c-0.47,0-0.848-0.38-0.848-0.847
					c0-0.469,0.378-0.849,0.848-0.849h87.631c0.467,0,0.848,0.38,0.848,0.849c0,0.467-0.381,0.847-0.848,0.847H228.039z"/>
				<path style="fill-rule:evenodd;clip-rule:evenodd;fill:#FFFFFF;" d="M228.039,319.785c-0.47,0-0.848-0.38-0.848-0.848
					c0-0.469,0.378-0.849,0.848-0.849h87.631c0.467,0,0.848,0.38,0.848,0.849c0,0.468-0.381,0.848-0.848,0.848H228.039z"/>
			</g>
			<path style="fill-rule:evenodd;clip-rule:evenodd;fill:#6E6E6D;" d="M235.295,290.422c-2.125,0.568-3.934,1.904-5.113,3.692
				c1.752,2.15,4.421,3.524,7.411,3.524c2.99,0,5.659-1.374,7.412-3.524c-1.18-1.788-2.99-3.124-5.112-3.692
				c1.241-0.77,2.068-2.146,2.068-3.714c0-2.412-1.956-4.367-4.369-4.367c-2.412,0-4.366,1.955-4.366,4.367
				C233.226,288.277,234.052,289.653,235.295,290.422z"/>
		</g>
		<g>
			<path style="fill-rule:evenodd;clip-rule:evenodd;fill:#9F376D;" d="M395.473,117.565c19.962,0,36.144,16.181,36.144,36.143
				c0,19.962-16.182,36.144-36.144,36.144c-19.96,0-36.141-16.182-36.141-36.144C359.332,133.746,375.512,117.565,395.473,117.565z"
				/>
			<path style="fill-rule:evenodd;clip-rule:evenodd;fill:#FFFFFF;" d="M395.473,124.913c15.903,0,28.797,12.892,28.797,28.795
				c0,15.903-12.894,28.795-28.797,28.795c-15.902,0-28.795-12.892-28.795-28.795C366.678,137.805,379.57,124.913,395.473,124.913z"
				/>
			<g>
				<path style="fill-rule:evenodd;clip-rule:evenodd;fill:#E5AC25;" d="M395.473,127.612c-1.127,0-2.041,0.915-2.041,2.042
					c0,1.128,0.914,2.042,2.041,2.042c1.129,0,2.043-0.914,2.043-2.042C397.516,128.527,396.602,127.612,395.473,127.612z"/>
				<path style="fill-rule:evenodd;clip-rule:evenodd;fill:#E5AC25;" d="M395.473,175.653c-1.127,0-2.041,0.914-2.041,2.042
					c0,1.128,0.914,2.042,2.041,2.042c1.129,0,2.043-0.914,2.043-2.042C397.516,176.567,396.602,175.653,395.473,175.653z"/>
			</g>
			<g>
				<path style="fill-rule:evenodd;clip-rule:evenodd;fill:#E5AC25;" d="M369.413,153.675c0,1.127,0.914,2.042,2.041,2.042
					c1.127,0,2.042-0.915,2.042-2.042c0-1.128-0.915-2.042-2.042-2.042C370.327,151.633,369.413,152.547,369.413,153.675z"/>
				<path style="fill-rule:evenodd;clip-rule:evenodd;fill:#E5AC25;" d="M417.451,153.675c0,1.127,0.914,2.042,2.043,2.042
					c1.127,0,2.041-0.915,2.041-2.042c0-1.128-0.914-2.042-2.041-2.042C418.365,151.633,417.451,152.547,417.451,153.675z"/>
			</g>
			<path style="fill-rule:evenodd;clip-rule:evenodd;fill:#E5AC25;" d="M402.978,168.452c0.683,0.865,1.938,1.012,2.806,0.33
				c0.864-0.684,1.012-1.94,0.327-2.805l-8.63-10.942v-19.529c0-1.108-0.9-2.007-2.008-2.007c-1.105,0-2.006,0.899-2.006,2.007
				v20.211h0.01c0,0.434,0.14,0.871,0.43,1.237L402.978,168.452z"/>
		</g>
		<g>
			<path style="fill-rule:evenodd;clip-rule:evenodd;fill:#487B70;" d="M137.455,368.561h19.346c0.933,0,1.697,0.764,1.697,1.696
				v41.786c0,0.933-0.765,1.696-1.697,1.696h-19.346c-0.934,0-1.696-0.764-1.696-1.696v-41.786
				C135.759,369.325,136.521,368.561,137.455,368.561z"/>
			<path style="fill-rule:evenodd;clip-rule:evenodd;fill:#5C968B;" d="M137.455,368.561h15.358v37.499
				c0,0.933-0.764,1.695-1.697,1.695h-15.357v-37.498C135.759,369.325,136.521,368.561,137.455,368.561z"/>
		</g>
		<g>
			<path style="fill-rule:evenodd;clip-rule:evenodd;fill:#9F376D;" d="M199.194,413.74h53.646c2.496,0,4.764-1.021,6.407-2.665
				c1.646-1.643,2.665-3.912,2.665-6.408c0-2.495-1.019-4.765-2.665-6.408c-1.643-1.643-3.912-2.664-6.407-2.664h-53.646
				c-2.495,0-4.765,1.021-6.408,2.664c-1.643,1.644-2.665,3.913-2.665,6.408c0,2.496,1.021,4.765,2.665,6.408
				C194.429,412.719,196.699,413.74,199.194,413.74z"/>
			<path style="fill-rule:evenodd;clip-rule:evenodd;fill:#CB4E8D;" d="M261.648,402.499c-0.403-1.629-1.25-3.088-2.402-4.24
				c-1.643-1.643-3.912-2.664-6.407-2.664h-53.646c-2.495,0-4.765,1.021-6.408,2.664c-1.152,1.152-1.998,2.611-2.4,4.24
				c0.402,1.628,1.248,3.088,2.4,4.239c1.644,1.645,3.913,2.664,6.408,2.664h53.646c2.496,0,4.764-1.02,6.407-2.664
				C260.399,405.586,261.245,404.126,261.648,402.499z"/>
			<path style="fill-rule:evenodd;clip-rule:evenodd;fill:#FFFFFF;" d="M158.612,413.069h45.116c2.312,0,4.412-0.944,5.935-2.468
				c1.523-1.522,2.467-3.623,2.467-5.935c0-2.311-0.944-4.412-2.467-5.935c-1.523-1.521-3.623-2.468-5.935-2.468h-45.116V413.069z"
				/>
			<path style="fill-rule:evenodd;clip-rule:evenodd;fill:#C33E80;" d="M158.068,411.544c-0.605,0-1.098,0.491-1.098,1.098
				c0,0.607,0.492,1.098,1.098,1.098h46.087c2.497,0,4.765-1.021,6.409-2.665c1.643-1.643,2.665-3.912,2.665-6.408
				c0-2.495-1.021-4.765-2.665-6.408c-1.645-1.643-3.913-2.664-6.409-2.664h-46.087c-0.605,0-1.098,0.491-1.098,1.098
				c0,0.605,0.492,1.098,1.098,1.098h46.087c1.891,0,3.609,0.773,4.857,2.02c1.246,1.247,2.02,2.967,2.02,4.856
				c0,1.89-0.774,3.609-2.02,4.857c-1.248,1.247-2.966,2.021-4.857,2.021H158.068z"/>
			<path style="fill-rule:evenodd;clip-rule:evenodd;fill:#F5E3D5;" d="M158.612,409.104h32.675h5.603h5.091
				c1.557,0,2.971-0.636,3.996-1.66c1.025-1.025,1.661-2.44,1.661-3.996c0-1.557-0.636-2.973-1.661-3.997
				c-1.025-1.025-2.439-1.661-3.996-1.661h2.174c1.891,0,3.609,0.773,4.857,2.02c1.246,1.247,2.02,2.967,2.02,4.856
				c0,1.83-0.725,3.499-1.903,4.735c-0.038,0.041-0.077,0.081-0.117,0.121c-1.248,1.247-2.966,2.021-4.857,2.021h-10.864h-34.679
				V409.104z"/>
		</g>
		<g>
			<path style="fill-rule:evenodd;clip-rule:evenodd;fill:#D98918;" d="M199.194,377.238h53.646c2.496,0,4.764-1.021,6.407-2.665
				c1.646-1.643,2.665-3.911,2.665-6.408c0-2.496-1.019-4.765-2.665-6.408c-1.643-1.644-3.912-2.664-6.407-2.664h-53.646
				c-2.495,0-4.765,1.021-6.408,2.664c-1.643,1.643-2.665,3.912-2.665,6.408c0,2.497,1.021,4.766,2.665,6.408
				C194.429,376.217,196.699,377.238,199.194,377.238z"/>
			<path style="fill-rule:evenodd;clip-rule:evenodd;fill:#E5AC25;" d="M261.648,365.996c-0.403-1.628-1.25-3.088-2.402-4.239
				c-1.643-1.644-3.912-2.664-6.407-2.664h-53.646c-2.495,0-4.765,1.021-6.408,2.664c-1.152,1.151-1.998,2.611-2.4,4.239
				c0.402,1.63,1.248,3.088,2.4,4.24c1.644,1.645,3.913,2.665,6.408,2.665h53.646c2.496,0,4.764-1.021,6.407-2.665
				C260.399,369.083,261.245,367.625,261.648,365.996z"/>
			<path style="fill-rule:evenodd;clip-rule:evenodd;fill:#FFFFFF;" d="M158.612,376.567h45.116c2.312,0,4.412-0.945,5.935-2.467
				c1.523-1.523,2.467-3.623,2.467-5.935c0-2.312-0.944-4.411-2.467-5.935c-1.523-1.522-3.623-2.467-5.935-2.467h-45.116V376.567z"
				/>
			<path style="fill-rule:evenodd;clip-rule:evenodd;fill:#D98918;" d="M158.068,375.042c-0.605,0-1.098,0.492-1.098,1.099
				c0,0.605,0.492,1.098,1.098,1.098h46.087c2.497,0,4.765-1.021,6.409-2.665c1.643-1.643,2.665-3.911,2.665-6.408
				c0-2.496-1.021-4.765-2.665-6.408c-1.645-1.644-3.913-2.664-6.409-2.664h-46.087c-0.605,0-1.098,0.492-1.098,1.098
				c0,0.606,0.492,1.099,1.098,1.099h46.087c1.891,0,3.609,0.773,4.857,2.021c1.246,1.247,2.02,2.966,2.02,4.855
				c0,1.891-0.774,3.609-2.02,4.856c-1.248,1.247-2.966,2.021-4.857,2.021H158.068z"/>
			<path style="fill-rule:evenodd;clip-rule:evenodd;fill:#F5E3D5;" d="M158.612,372.603h32.675h5.603h5.091
				c1.557,0,2.971-0.636,3.996-1.662c1.025-1.025,1.661-2.439,1.661-3.996c0-1.556-0.636-2.971-1.661-3.996
				c-1.025-1.025-2.439-1.66-3.996-1.66h2.174c1.891,0,3.609,0.773,4.857,2.021c1.246,1.247,2.02,2.966,2.02,4.855
				c0,1.831-0.725,3.5-1.903,4.736c-0.038,0.041-0.077,0.08-0.117,0.12c-1.248,1.247-2.966,2.021-4.857,2.021h-10.864h-34.679
				V372.603z"/>
		</g>
		<g>
			<path style="fill-rule:evenodd;clip-rule:evenodd;fill:#487B70;" d="M199.194,395.489h53.646c2.496,0,4.764-1.021,6.407-2.665
				c1.646-1.644,2.665-3.911,2.665-6.408c0-2.496-1.019-4.765-2.665-6.408c-1.643-1.645-3.912-2.664-6.407-2.664h-53.646
				c-2.495,0-4.765,1.02-6.408,2.664c-1.643,1.644-2.665,3.912-2.665,6.408c0,2.497,1.021,4.765,2.665,6.408
				C194.429,394.468,196.699,395.489,199.194,395.489z"/>
			<path style="fill-rule:evenodd;clip-rule:evenodd;fill:#5C968B;" d="M261.648,384.248c-0.403-1.629-1.25-3.089-2.402-4.24
				c-1.643-1.645-3.912-2.664-6.407-2.664h-53.646c-2.495,0-4.765,1.02-6.408,2.664c-1.152,1.151-1.998,2.611-2.4,4.24
				c0.402,1.628,1.248,3.088,2.4,4.239c1.644,1.645,3.913,2.665,6.408,2.665h53.646c2.496,0,4.764-1.02,6.407-2.665
				C260.399,387.336,261.245,385.875,261.648,384.248z"/>
			<path style="fill-rule:evenodd;clip-rule:evenodd;fill:#FFFFFF;" d="M158.612,394.818h45.116c2.312,0,4.412-0.944,5.935-2.468
				c1.523-1.522,2.467-3.623,2.467-5.935c0-2.312-0.944-4.412-2.467-5.935c-1.523-1.521-3.623-2.467-5.935-2.467h-45.116V394.818z"
				/>
			<path style="fill-rule:evenodd;clip-rule:evenodd;fill:#487B70;" d="M158.068,393.293c-0.605,0-1.098,0.491-1.098,1.098
				c0,0.605,0.492,1.098,1.098,1.098h46.087c2.497,0,4.765-1.021,6.409-2.665c1.643-1.644,2.665-3.911,2.665-6.408
				c0-2.496-1.021-4.765-2.665-6.408c-1.645-1.645-3.913-2.664-6.409-2.664h-46.087c-0.605,0-1.098,0.491-1.098,1.099
				c0,0.605,0.492,1.097,1.098,1.097h46.087c1.891,0,3.609,0.774,4.857,2.021c1.246,1.247,2.02,2.966,2.02,4.855
				c0,1.89-0.774,3.609-2.02,4.856c-1.248,1.247-2.966,2.021-4.857,2.021H158.068z"/>
			<path style="fill-rule:evenodd;clip-rule:evenodd;fill:#F5E3D5;" d="M158.612,390.853h32.675h5.603h5.091
				c1.557,0,2.971-0.636,3.996-1.66c1.025-1.025,1.661-2.44,1.661-3.997c0-1.556-0.636-2.971-1.661-3.996
				c-1.025-1.025-2.439-1.661-3.996-1.661h2.174c1.891,0,3.609,0.774,4.857,2.021c1.246,1.247,2.02,2.966,2.02,4.855
				c0,1.83-0.725,3.499-1.903,4.736c-0.038,0.04-0.077,0.08-0.117,0.12c-1.248,1.247-2.966,2.021-4.857,2.021h-10.864h-34.679
				V390.853z"/>
		</g>
		<g>
			<g>
				<g>
					<path style="fill-rule:evenodd;clip-rule:evenodd;fill:#E4AE91;" d="M339.147,299.818c-4.051-10.734,4.647-6.931,4.549-6.77
						c-1.795-4.343-2.295-7.51-1.139-9.469c1.321-2.238,4.619-2.764,7.396,0.741c-2.268-5.707-0.596-9.382,4.395-9.329
						c1.809,0.021,4.332,5.118,4.791,6.575c0,0-4.626-10.439,2.244-11.23c3.13-0.36,7.919,13.687,10.167,19.7
						c1.308,3.503,3.24,6.682,3.24,6.682s3.018-6.154,6.665-9.229c1.631-1.376,4.078-0.982,5.581-0.694
						c2.534,0.485-1.18,5.919-1.353,11.626c-0.199,6.529,0.771,12.333-3.083,17.609c-10.385,14.216-20.577,13.764-28.989,6.463
						C347.542,317.222,342.259,308.061,339.147,299.818z"/>
					<path style="fill-rule:evenodd;clip-rule:evenodd;fill:#B77A65;" d="M374.579,296.026c0.477,0.052,0.82,0.481,0.769,0.959
						c-0.053,0.477-0.481,0.821-0.961,0.77c-0.264-0.029-0.549-0.044-0.851-0.039c-3.128,0.037-8.011,1.748-12.244,4.416
						c-4.163,2.621-7.646,6.138-8.063,9.814c-0.029,0.271-0.045,0.541-0.041,0.807c0.002,0.478-0.383,0.872-0.862,0.875
						c-0.48,0.004-0.872-0.382-0.876-0.861c-0.003-0.341,0.014-0.679,0.051-1.01c0.484-4.281,4.31-8.229,8.867-11.101
						c4.484-2.824,9.732-4.638,13.147-4.68C373.891,295.971,374.248,295.988,374.579,296.026z"/>
					<path style="fill-rule:evenodd;clip-rule:evenodd;fill:#B77A65;" d="M368.347,288.994c0.482,0.015,0.858,0.416,0.844,0.895
						c-0.017,0.48-0.416,0.858-0.898,0.843c-3.936-0.114-8.478,0.74-12.428,3.258c-3.148,2.004-5.932,5.077-7.741,9.575
						c-0.18,0.446-0.688,0.664-1.134,0.486c-0.447-0.179-0.664-0.686-0.486-1.133c1.961-4.87,4.993-8.209,8.429-10.396
						C359.212,289.795,364.111,288.871,368.347,288.994z"/>
					<path style="fill-rule:evenodd;clip-rule:evenodd;fill:#B77A65;" d="M356.461,278.215c-0.187-0.443,0.021-0.954,0.465-1.141
						c0.444-0.186,0.954,0.022,1.141,0.466l4.869,11.578c0.187,0.443-0.021,0.954-0.464,1.141c-0.443,0.185-0.955-0.023-1.14-0.466
						L356.461,278.215z"/>
					<path style="fill-rule:evenodd;clip-rule:evenodd;fill:#B77A65;" d="M348.245,282.612c-0.227-0.423-0.068-0.952,0.355-1.179
						c0.423-0.228,0.953-0.068,1.181,0.354l5.986,11.109c0.227,0.424,0.068,0.952-0.355,1.181c-0.424,0.227-0.953,0.067-1.181-0.357
						L348.245,282.612z"/>
					<path style="fill-rule:evenodd;clip-rule:evenodd;fill:#B77A65;" d="M342.897,292.516c-0.304-0.373-0.247-0.921,0.126-1.224
						c0.373-0.304,0.921-0.247,1.225,0.126l5.944,7.293c0.304,0.373,0.246,0.921-0.126,1.225c-0.374,0.303-0.921,0.245-1.225-0.126
						L342.897,292.516z"/>
				</g>
				<g>
					<path style="fill-rule:evenodd;clip-rule:evenodd;fill:#487B70;" d="M513.418,299.896c42.382,0.775,67.57-0.696,79.896,4.977
						c11.094,5.105-27.306,101.152-30.477,124.015l-81.593,0.262L513.418,299.896z"/>
					<path style="fill-rule:evenodd;clip-rule:evenodd;fill:#5C968B;" d="M599.979,328.827l-25.247,100.022l-26.453,0.086
						c2.152-7.519,12.793-44.858,19.373-71.648c3.714-15.122,6.133-28.334,9.284-37.857c3.766-11.372,9.224-16.398,14.779-15.638
						C599.791,304.897,604.026,312.795,599.979,328.827z"/>
				</g>
				<path style="fill-rule:evenodd;clip-rule:evenodd;fill:#381C0A;" d="M567.345,232.006c-1.196,34.407-1.196,55.648-13.763,64.925
					c-12.566,9.275-16.156,11.07-16.156,11.07l-7.779-14.063c0,0-17.354-17.353-14.66-33.21
					C517.679,244.872,567.345,232.006,567.345,232.006z"/>
				<path style="fill-rule:evenodd;clip-rule:evenodd;fill:#BC4E79;" d="M539.779,434.18c-1.942-17.588-7.694-67.949-7.358-78.175
					c0.557-16.855,1.487-30.38,0.849-31.369c-17.512-27.178-50.218-26.876-68.487-6.484c-2.424,2.703-7.134,36.421-14.041,69.421
					c-2.139,10.211-5.364,25.603-8.431,36.151c-1.244,4.277-2.459,7.765-3.411,10.456H539.779z"/>
				<path style="fill-rule:evenodd;clip-rule:evenodd;fill:#BC4E79;" d="M481.103,341.36c-1.503,0.11-6.835,5.907-12.538,12.108
					c-6.54,7.113-13.392,14.563-22.161,20.065c-23.372,14.667-50.833,13.717-86.659-43.376l28.622-18.022
					c21.215,33.806,32.367,37.573,40.013,32.775c4.871-3.056,10.191-8.843,15.273-14.368c10.398-11.309,20.118-21.878,35.063-22.975
					L481.103,341.36z"/>
				<path style="fill-rule:evenodd;clip-rule:evenodd;fill:#9F376D;" d="M454.565,367.489c-2.548,2.175-5.25,4.218-8.162,6.045
					c-23.372,14.667-50.833,13.717-86.659-43.376l9.249-5.823c19.353,32.72,36.78,48.816,53.923,49.107
					c17.652,0.299,34.407-18.251,34.407-18.251L454.565,367.489z"/>
				<path style="fill-rule:evenodd;clip-rule:evenodd;fill:#BC4E79;" d="M510.362,299.774c15.381,2.842,51.398,26.026,69.789,49.769
					c6.737,8.699,11.639,17.92,13.352,27.102c2.219,11.896-0.482,22.957-10.158,32.146c-10.554,10.021-30.387,16.587-63.476,16.884
					l-0.267-33.793c23.468-0.21,35.732-3.156,40.419-7.605c0.302-0.289,0.351-0.835,0.22-1.536
					c-0.638-3.416-3.186-7.782-6.857-12.523c-14.018-18.098-39.115-35.333-49.115-37.181L510.362,299.774z"/>
				<path style="fill-rule:evenodd;clip-rule:evenodd;fill:#C98E77;" d="M482.185,297.681c-0.891,3.352-1.253,10.356-1.173,13.063
					c0.369,12.23,9.836,17.374,20.92,10.729c13.541-8.117,18.671-26.608,18.671-26.608L482.185,297.681z"/>
				<path style="fill-rule:evenodd;clip-rule:evenodd;fill:#381C0A;" d="M459.187,193.999c-28.666,8.357-21.544,39.177-9.611,57.295
					c11.935,18.118,11.935,18.118,11.935,18.118L459.187,193.999z"/>
				<path style="fill-rule:evenodd;clip-rule:evenodd;fill:#E4AE91;" d="M452.826,202.044c-2.83,19.686-4.102,38.13-3.44,50.807
					c0.267,5.126,0.745,9.828,1.391,14.207c3.878,26.307,36.791,38.218,60.479,31.239c11.893-3.504,24.318-15.479,27.998-23.064
					c3.066-6.324,6.563-4.886,10.603-7.755c0,0,18.178-5.975,20.081-20.251c1.902-14.275-11.112-9.083-11.112-9.083
					s0.841-22.247-8.506-47.24C537.708,157.173,455.227,185.36,452.826,202.044z"/>
				<path style="fill-rule:evenodd;clip-rule:evenodd;fill:#B77A65;" d="M452.826,202.044c-0.409,2.843-0.815,5.66-1.213,8.441
					c15.095,10.457,58.147,13.953,74.405,6.287c0,0-2.602,38.326,8.888,55.201c11.488,16.874,5.205-68.038,5.205-68.038
					s-34.825-5.385-44.342-5.744c-7.104-0.268-30.917-3.736-41.931,1.172C453.303,200.28,452.952,201.178,452.826,202.044z"/>
				<path style="fill-rule:evenodd;clip-rule:evenodd;fill:#381C0A;" d="M510.092,238.697c3.531,0.473,5.901,4.538,5.292,9.079
					c-0.608,4.542-3.965,7.839-7.496,7.364c-3.532-0.474-5.902-4.538-5.292-9.079C503.203,241.52,506.56,238.223,510.092,238.697z"
					/>
				<path style="fill-rule:evenodd;clip-rule:evenodd;fill:#FFFFFF;" d="M511.34,241.424c1.026,0.137,1.746,1.08,1.608,2.106
					c-0.139,1.025-1.08,1.745-2.107,1.608c-1.026-0.138-1.746-1.081-1.608-2.106C509.372,242.006,510.313,241.286,511.34,241.424z"
					/>
				<path style="fill-rule:evenodd;clip-rule:evenodd;fill:#381C0A;" d="M469.277,235.27c3.563,0.071,6.379,3.841,6.285,8.423
					c-0.091,4.58-3.053,8.235-6.614,8.165c-3.563-0.071-6.377-3.841-6.286-8.423C462.754,238.854,465.715,235.198,469.277,235.27z"
					/>
				<path style="fill-rule:evenodd;clip-rule:evenodd;fill:#FFFFFF;" d="M470.827,237.837c1.035,0.021,1.855,0.876,1.837,1.911
					c-0.021,1.034-0.876,1.857-1.912,1.836c-1.033-0.02-1.855-0.876-1.835-1.911C468.937,238.639,469.792,237.816,470.827,237.837z"
					/>
				<path style="fill-rule:evenodd;clip-rule:evenodd;fill:#381C0A;" d="M460.302,224.861l17.982-1.998
					c-1.654-4.613-6.767-6.339-10.591-5.399C461.765,218.92,457.23,225.202,460.302,224.861z"/>
				<path style="fill-rule:evenodd;clip-rule:evenodd;fill:#381C0A;" d="M521.409,229.91l-17.811-2.882
					C511.146,214.41,523.319,230.218,521.409,229.91z"/>
				<path style="fill-rule:evenodd;clip-rule:evenodd;fill:#B77A65;" d="M561.744,243.82c3.326,0.473,3.936,4.538,1.365,9.08
					c-2.573,4.54-7.355,7.837-10.682,7.364c-3.329-0.474-3.939-4.539-1.368-9.079C553.634,246.644,558.416,243.346,561.744,243.82z"
					/>
				<path style="fill-rule:evenodd;clip-rule:evenodd;fill:#381C0A;" d="M435.608,192.706c20.165,27.596,67.137,24.94,80.563,22.838
					c13.429-2.103,13.429-2.103,13.429-2.103s-5.696,30.701,4.319,50.34c10.014,19.639,8.217,32.122,8.217,32.122
					s6.991-9.252,7.837-21.579c0.337-4.897-1.386-5.593,0.379-18.825c1.912-14.321,3.735-17.469,17.456-18.634
					c0,0,6.37-35.596-0.22-46.045c-6.589-10.451-15.317-8.796-15.317-8.796c-12.622-40.005-76.43-35.504-105.021,5.059
					C445.192,190.001,443.68,191.774,435.608,192.706z"/>
				<path style="fill-rule:evenodd;clip-rule:evenodd;fill:#5C3A2D;" d="M552.232,181.903c-0.956-2.995-2.2-5.737-3.693-8.233
					c-3.425,1.11-7.335,2.167-11.807,3.113c-25.481,5.389-52.779-0.909-67.057-10.746c-5.477,3.404-10.638,7.526-15.254,12.346
					C482.152,195.923,525.736,200.249,552.232,181.903z"/>
				<path style="fill-rule:evenodd;clip-rule:evenodd;fill:#BC4E79;" d="M480.324,301.962c-1.258,10.233-0.585,20.286,6.596,23.518
					c11.033,4.965,28.515-12.407,31.423-20.927c0.683-1.996,1.526-4.449,2.211-6.563c0.012-0.036,1.181-4.853-0.533-2.955
					c-0.864,0.957-2.431,3.249-4.375,4.642c-4.792,3.428-11.671,7.022-15.262,8.03c-5.743,1.616-6.82,2.873-7.898,6.283
					c-1.077,3.412-1.077,3.412-1.077,3.412s0.718-7.361-1.973-9.695c-1.858-1.61-6.276-5.952-8.361-7.431
					C480.137,299.612,480.324,301.962,480.324,301.962z"/>
				<path style="fill-rule:evenodd;clip-rule:evenodd;fill:#381C0A;" d="M472.704,269.478c-0.054-0.464,0.278-0.886,0.743-0.941
					c0.463-0.055,0.886,0.278,0.939,0.742c0.397,3.295,2.048,6.085,4.42,8.136c2.14,1.848,4.862,3.099,7.784,3.583
					c2.927,0.486,6.052,0.204,8.985-1.014c3.606-1.497,6.935-4.416,9.279-9.067c0.211-0.416,0.718-0.584,1.136-0.374
					c0.416,0.211,0.585,0.72,0.374,1.136c-2.543,5.048-6.185,8.226-10.14,9.869c-3.237,1.344-6.681,1.656-9.906,1.121
					c-3.228-0.537-6.243-1.924-8.618-3.976C475.021,276.376,473.155,273.218,472.704,269.478z"/>
				<path style="fill-rule:evenodd;clip-rule:evenodd;fill:#BC4E79;" d="M536.229,312.489c6.263,0,11.37-4.772,11.37-10.621
					c0-5.851-5.107-10.621-11.37-10.621c-6.262,0-11.369,4.77-11.369,10.621C524.859,307.717,529.967,312.489,536.229,312.489z"/>
				<path style="fill-rule:evenodd;clip-rule:evenodd;fill:#B77A65;" d="M492.273,262.474c-1.181,4.184-8.44,3.577-9.182-0.682
					C483.055,261.579,492.315,262.329,492.273,262.474z"/>
				<path style="fill-rule:evenodd;clip-rule:evenodd;fill:#381C0A;" d="M482.818,355.727c4.189,22.439,29.32,40.392,29.32,40.392
					s-12.865-24.833,13.165-46.974c26.029-22.141,20.943-46.375,12.566-50.563C516.438,287.864,476.769,323.316,482.818,355.727z"/>
				<path style="fill-rule:evenodd;clip-rule:evenodd;fill:#CE807F;" d="M461.278,256.691c3.14,0,5.684,1.339,5.684,2.992
					c0,1.652-2.545,2.991-5.684,2.991c-3.139,0-5.685-1.339-5.685-2.991C455.594,258.03,458.14,256.691,461.278,256.691z"/>
				<path style="fill-rule:evenodd;clip-rule:evenodd;fill:#CE807F;" d="M517.228,260.581c3.14,0,5.685,1.339,5.685,2.992
					c0,1.652-2.545,2.991-5.685,2.991c-3.139,0-5.685-1.339-5.685-2.991C511.543,261.919,514.089,260.581,517.228,260.581z"/>
				<path style="fill-rule:evenodd;clip-rule:evenodd;fill:#E4AE91;" d="M514.54,399.804c0,0-19.148-0.934-25.133,7.94
					c-5.983,8.876-4.413,6.773-4.413,6.773h36.053C520.486,408.097,517.997,403.296,514.54,399.804z"/>
				<path style="fill-rule:evenodd;clip-rule:evenodd;fill:#9F376D;" d="M535.277,390.589c0.458-0.091,0.902,0.206,0.993,0.662
					c0.092,0.457-0.205,0.902-0.661,0.994c-15.13,3.071-21.762,7.661-21.782,7.674c-0.412,0.225-0.926,0.074-1.15-0.335
					c-0.225-0.41-0.075-0.924,0.334-1.149C513.034,398.422,519.869,393.716,535.277,390.589z"/>
				<path style="fill-rule:evenodd;clip-rule:evenodd;fill:#5C3A2D;" d="M494.62,375.407c-1.04-15.625,2.922-33.075,10.423-46.595
					c0.649-1.174,1.327-2.316,2.028-3.427c2.405-3.796,5.11-7.202,8.076-10.067c1.725-1.668,3.366-3.176,4.92-4.538
					c2.06-1.804,3.967-3.354,5.728-4.685c0.096-0.074,0.191-0.146,0.287-0.218c2.898-2.175,5.383-3.753,7.459-4.896
					c0.554-0.306,1.077-0.579,1.573-0.825c1.222-0.609,2.269-1.05,3.139-1.366c-0.126-0.074-0.255-0.143-0.383-0.207
					c-0.377-0.189-0.758-0.362-1.144-0.522c-1.276,0.119-2.769,0.322-4.436,0.659c-1.582,0.32-3.321,0.762-5.178,1.368
					c-0.717,0.234-1.453,0.493-2.204,0.78c-1.55,0.59-3.167,1.297-4.826,2.141c-0.489,0.249-0.982,0.51-1.478,0.782
					c-0.741,0.407-1.491,0.843-2.244,1.308c-0.97,0.596-1.947,1.242-2.931,1.94c-0.729,0.519-1.464,1.066-2.2,1.644
					c-0.981,0.772-1.968,1.601-2.954,2.487c-3.628,3.261-7.253,7.315-10.703,12.355c-0.423,0.619-0.844,1.252-1.263,1.899
					c-0.203,0.318-0.406,0.64-0.609,0.965c-6.354,10.163-10.089,21.507-12.237,32.176c1.952,7.304,5.989,14.05,10.433,19.753
					c0.381,0.488,0.767,0.97,1.152,1.443C494.86,378.329,494.718,376.875,494.62,375.407z"/>
				<path style="fill-rule:evenodd;clip-rule:evenodd;fill:#9F376D;" d="M519.727,407.654l0.005,0.529
					c0.56,1.626,0.972,3.395,1.208,5.314h16.552h15.156h13.917h10.717c0.547-0.35,1.08-0.705,1.595-1.067
					c1.643-1.153,3.13-2.368,4.469-3.639c9.677-9.189,12.377-20.251,10.158-32.146c-0.624-3.338-1.669-6.682-3.068-10.004
					c-0.129-0.306-0.262-0.611-0.396-0.917c0.012,0.918-0.007,1.827-0.063,2.73c-0.526,8.617-3.212,22.245-8.539,27.523
					C566.861,410.418,539.001,407.165,519.727,407.654z"/>
			</g>
			<g>
				<path style="fill-rule:evenodd;clip-rule:evenodd;fill:#6E6E6D;" d="M365.635,265.868c-0.385-0.024-0.679-0.358-0.654-0.746
					c0.024-0.385,0.358-0.679,0.746-0.654c9.761,0.646,13.157,10.594,13.166,10.622c0.129,0.366-0.063,0.768-0.428,0.896
					c-0.366,0.129-0.769-0.063-0.897-0.429C377.559,275.531,374.46,266.451,365.635,265.868z"/>
				<path style="fill-rule:evenodd;clip-rule:evenodd;fill:#6E6E6D;" d="M364.252,260.242c-0.386-0.024-0.679-0.357-0.655-0.745
					c0.026-0.387,0.358-0.68,0.745-0.655c13.722,0.908,18.499,14.907,18.513,14.948c0.129,0.365-0.063,0.767-0.428,0.895
					c-0.366,0.13-0.768-0.063-0.897-0.429C381.518,274.218,377.034,261.087,364.252,260.242z"/>
			</g>
			<g>
				<path style="fill-rule:evenodd;clip-rule:evenodd;fill:#6E6E6D;" d="M338.444,285.881c0.356-0.301,0.402-0.834,0.101-1.191
					c-0.299-0.356-0.832-0.401-1.19-0.1c-8.985,7.617-5.146,19.675-5.135,19.71c0.138,0.446,0.61,0.696,1.057,0.56
					c0.446-0.138,0.699-0.611,0.561-1.058C333.828,303.772,330.324,292.765,338.444,285.881z"/>
				<path style="fill-rule:evenodd;clip-rule:evenodd;fill:#6E6E6D;" d="M335.753,279.446c0.358-0.3,0.402-0.833,0.101-1.189
					c-0.299-0.355-0.832-0.401-1.19-0.101c-12.626,10.705-7.225,27.674-7.208,27.724c0.137,0.446,0.61,0.696,1.057,0.56
					c0.446-0.138,0.696-0.611,0.559-1.058C329.057,305.336,323.992,289.418,335.753,279.446z"/>
			</g>
		</g>
		<g>
			<g>
				<path style="fill-rule:evenodd;clip-rule:evenodd;fill:#525251;" d="M374.745,404.166h93.048c2.632,0,4.787,2.153,4.787,4.787
					l0,0c0,2.633-2.155,4.787-4.787,4.787h-93.048c-2.634,0-4.787-2.154-4.787-4.787l0,0
					C369.958,406.319,372.11,404.166,374.745,404.166z"/>
				<path style="fill-rule:evenodd;clip-rule:evenodd;fill:#6E6E6D;" d="M289.049,342.831h113.885c3.732,0,7.702,3.053,8.819,6.785
					l17.188,57.339c1.117,3.732-1.02,6.785-4.753,6.785H310.302c-3.732,0-7.701-3.053-8.818-6.785l-17.188-57.339
					C283.18,345.883,285.316,342.831,289.049,342.831z"/>
				<path style="fill-rule:evenodd;clip-rule:evenodd;fill:#C4C4C4;" d="M349.74,373.797c-0.829,0-1.595,0.113-2.294,0.322
					c0.655,0.598,1.167,1.354,1.412,2.178c0.58,1.931-0.517,3.495-2.447,3.495c-1.115,0-2.263-0.52-3.146-1.332
					c-0.318,1.279-0.278,2.75,0.192,4.313c1.484,4.956,6.708,8.976,11.665,8.976c4.956,0,7.771-4.02,6.287-8.976
					C359.921,377.816,354.696,373.797,349.74,373.797z"/>
				<path style="fill-rule:evenodd;clip-rule:evenodd;fill:#575756;" d="M285.458,347.319h86.04h27.848
					c3.73,0,7.699,3.053,8.816,6.785l8.081,26.959l6.926,23.103l2.181,7.277c0.215,0.715,0.309,1.404,0.295,2.054
					c0,0.024,0,0.049,0,0.073c0.091-0.022,0.18-0.047,0.268-0.073c2.63-0.793,3.96-3.432,3.027-6.542l-0.837-2.789l-6.795-22.674
					l-9.556-31.876c-1.117-3.732-5.087-6.785-8.819-6.785h-34.729h-79.155c-2.989,0-4.957,1.96-5.046,4.657
					C284.454,347.376,284.941,347.319,285.458,347.319z"/>
			</g>
		</g>
		<g>
			<path style="fill-rule:evenodd;clip-rule:evenodd;fill:#783D13;" d="M101.371,413.497h562.27c6.538,0,11.886,5.35,11.886,11.888
				l0,0c0,6.538-5.35,11.889-11.886,11.889h-562.27c-6.537,0-11.886-5.35-11.886-11.889l0,0
				C89.485,418.846,94.833,413.497,101.371,413.497z"/>
			<path style="fill-rule:evenodd;clip-rule:evenodd;fill:#5B3002;" d="M675.515,424.866c0.008,0.173,0.012,0.345,0.012,0.519l0,0
				c0,6.538-5.35,11.889-11.886,11.889h-562.27c-6.537,0-11.886-5.35-11.886-11.889l0,0c0-0.174,0.004-0.346,0.012-0.519H675.515z"
				/>
		</g>
		<g>
			<path style="fill-rule:evenodd;clip-rule:evenodd;fill:#FFFFFF;" d="M597.3,371.086c0.715,0.437,0.943,1.381,0.507,2.096
				c-0.438,0.716-1.382,0.944-2.097,0.508c-1.278-0.782-2.492-1.754-3.394-2.959c-0.948-1.266-1.498-2.713-1.488-4.303
				c0.007-1.457,0.483-2.843,1.238-4.078c0.852-1.391,2.048-2.593,3.348-3.567c1.323-0.991,2.27-2.332,2.487-3.995
				c0.136-1.027-0.021-2.084-0.414-3.04c-0.362-0.892-0.942-1.725-1.692-2.334c-0.743-0.601-1.681-0.981-2.646-0.832
				c-0.83,0.129-1.611-0.441-1.739-1.272c-0.129-0.831,0.441-1.609,1.273-1.738c1.83-0.283,3.609,0.324,5.033,1.477
				c1.145,0.931,2.035,2.188,2.592,3.551c0.589,1.443,0.818,3.036,0.615,4.585c-0.328,2.491-1.69,4.544-3.682,6.037
				c-0.989,0.741-1.927,1.661-2.571,2.719c-0.461,0.753-0.793,1.611-0.797,2.503c-0.005,0.914,0.336,1.737,0.879,2.462
				C595.418,369.791,596.359,370.513,597.3,371.086L597.3,371.086z M608.431,371.086c0.715,0.437,0.941,1.381,0.507,2.096
				c-0.438,0.716-1.382,0.944-2.097,0.508c-1.278-0.782-2.492-1.754-3.396-2.959c-0.949-1.266-1.496-2.713-1.488-4.303
				c0.009-1.457,0.485-2.843,1.24-4.078c0.852-1.391,2.048-2.593,3.346-3.567c1.322-0.991,2.271-2.332,2.489-3.995
				c0.136-1.027-0.023-2.084-0.414-3.04c-0.364-0.892-0.944-1.725-1.694-2.334c-0.741-0.601-1.681-0.981-2.644-0.832
				c-0.832,0.129-1.61-0.441-1.739-1.272c-0.129-0.831,0.441-1.609,1.271-1.738c1.832-0.283,3.609,0.324,5.032,1.477
				c1.147,0.931,2.036,2.188,2.593,3.551c0.591,1.443,0.82,3.036,0.617,4.585c-0.328,2.491-1.692,4.544-3.685,6.037
				c-0.986,0.741-1.923,1.661-2.568,2.719c-0.461,0.753-0.793,1.611-0.797,2.503c-0.007,0.914,0.336,1.737,0.879,2.462
				C606.549,369.791,607.49,370.513,608.431,371.086L608.431,371.086z M619.919,371.086c0.715,0.437,0.944,1.381,0.507,2.096
				c-0.437,0.716-1.381,0.944-2.097,0.508c-1.278-0.782-2.491-1.754-3.394-2.959c-0.949-1.266-1.498-2.713-1.489-4.303
				c0.007-1.457,0.484-2.843,1.239-4.078c0.851-1.391,2.048-2.593,3.347-3.567c1.321-0.991,2.269-2.332,2.487-3.995
				c0.136-1.027-0.021-2.084-0.414-3.04c-0.362-0.892-0.941-1.725-1.692-2.334c-0.743-0.601-1.68-0.981-2.646-0.832
				c-0.83,0.129-1.61-0.441-1.739-1.272c-0.129-0.831,0.441-1.609,1.274-1.738c1.83-0.283,3.608,0.324,5.03,1.477
				c1.147,0.931,2.035,2.188,2.594,3.551c0.59,1.443,0.818,3.036,0.615,4.585c-0.327,2.491-1.69,4.544-3.682,6.037
				c-0.988,0.741-1.926,1.661-2.571,2.719c-0.46,0.753-0.792,1.611-0.797,2.503c-0.005,0.914,0.337,1.737,0.879,2.462
				C618.037,369.791,618.979,370.513,619.919,371.086z"/>
			<path style="fill-rule:evenodd;clip-rule:evenodd;fill:#D98918;" d="M593.974,377.225h28.579c3.733,0,7.326,3.092,6.786,6.784
				l-3.392,23.231c-0.54,3.692-3.056,6.785-6.786,6.785h-21.794c-3.733,0-6.246-3.093-6.786-6.785l-0.282-1.931
				c-0.325,0.223-0.676,0.42-1.045,0.591c-0.465,0.214-0.963,0.385-1.491,0.505c-2.548,0.584-5.349-0.1-7.812-1.678
				c-2.308-1.475-4.364-3.756-5.624-6.492c-0.421-0.913-0.731-1.83-0.938-2.727c-0.488-2.127-0.384-4.169,0.248-5.89
				c0.696-1.909,2.008-3.418,3.852-4.268c0.466-0.214,0.963-0.385,1.491-0.505c2.546-0.584,5.346,0.1,7.813,1.677
				c0.287,0.186,0.57,0.382,0.851,0.59l-0.454-3.104C586.649,380.317,590.242,377.225,593.974,377.225L593.974,377.225z
				 M584.069,390.798c-1.358-0.868-2.784-1.271-3.957-1.001c-0.178,0.04-0.344,0.097-0.496,0.167
				c-0.565,0.261-0.977,0.751-1.208,1.385c-0.302,0.82-0.334,1.867-0.067,3.026c0.126,0.561,0.327,1.143,0.598,1.733
				c0.854,1.85,2.219,3.376,3.735,4.347c1.355,0.867,2.781,1.271,3.955,1c0.18-0.039,0.346-0.097,0.498-0.167
				c0.565-0.261,0.977-0.751,1.208-1.385c0.3-0.82,0.335-1.867,0.068-3.026c-0.129-0.559-0.327-1.141-0.601-1.733
				C586.951,393.296,585.586,391.77,584.069,390.798z"/>
			<path style="fill-rule:evenodd;clip-rule:evenodd;fill:#E5AC25;" d="M590.235,405.354c-1.273-7.629-2.099-14.852-3.046-21.345
				c-0.54-3.692,3.053-6.784,6.784-6.784h14.896h4.702h1.141h7.84c0.685,0,1.368,0.104,2.018,0.297
				c2.896,0.858,5.208,3.474,4.768,6.487l-0.832,5.696l-1.578,10.808l-0.982,6.727c-0.285,1.951-1.122,3.735-2.398,4.984
				c-0.032,0.032-0.067,0.065-0.101,0.097c-0.519,0.485-1.106,0.885-1.755,1.175c-0.763,0.341-1.608,0.529-2.532,0.529h-21.794
				c-0.923,0-1.771-0.189-2.534-0.529c-2.32-1.036-3.845-3.477-4.252-6.256l-0.282-1.931
				C590.277,405.326,590.257,405.339,590.235,405.354z"/>
			<path style="fill-rule:evenodd;clip-rule:evenodd;fill:#EFC860;" d="M591.701,377.604c0.729-0.245,1.498-0.379,2.273-0.379
				h14.896h4.702h1.141h7.84c0.685,0,1.368,0.104,2.018,0.297c2.896,0.858,5.208,3.474,4.768,6.487l-0.832,5.696l-1.578,10.808
				l-0.982,6.727c-0.087,0.59-0.223,1.163-0.407,1.713c-0.589,0.186-1.22,0.285-1.891,0.285h-21.794
				c-0.924,0-1.772-0.189-2.534-0.529c-2.321-1.036-3.845-3.477-4.252-6.255l-0.28-1.932c-0.021,0.016-0.045,0.029-0.065,0.044
				c-1.274-7.629-2.097-14.852-3.046-21.345C591.596,378.666,591.61,378.124,591.701,377.604z"/>
			<path style="fill-rule:evenodd;clip-rule:evenodd;fill:#D98918;" d="M588.565,395.312c-0.713-4.289-0.783-7.254-1.232-10.322
				h41.864l-0.689,4.716l-0.818,5.606H588.565z"/>
		</g>
	</g>
</g>
</svg>
